<svg xmlns="http://www.w3.org/2000/svg" xmlns:xlink="http://www.w3.org/1999/xlink" width="97.549" height="97.547" viewBox="0 0 97.549 97.547">
  <defs>
    <filter id="Path_4" x="0" y="0" width="97.549" height="97.547" filterUnits="userSpaceOnUse">
      <feOffset dy="3" input="SourceAlpha"/>
      <feGaussianBlur stdDeviation="3" result="blur"/>
      <feFlood flood-opacity="0.161"/>
      <feComposite operator="in" in2="blur"/>
      <feComposite in="SourceGraphic"/>
    </filter>
  </defs>
  <g id="Group_35" data-name="Group 35" transform="translate(9 6)">
    <g transform="matrix(1, 0, 0, 1, -9, -6)" filter="url(#Path_4)">
      <path id="Path_4-2" data-name="Path 4" d="M21.469,42.938A39.773,39.773,0,1,0-18.305,3.163,39.775,39.775,0,0,0,21.469,42.938" transform="translate(27.31 42.61)" fill="#fff"/>
    </g>
    <path id="Path_184" data-name="Path 184" d="M32.984-17.98l-.992.248-.5,1.178L30.38-14.012l-2.108.124-4.154-.248.93-.744V-27.032l-.062-7.192-.31-1.054.062-5.084-.372-5.7-3.72,5.27L-.124-10.23l2.294.124H18.724L20.336-7.75l-.124,2.666.744,1.55-2.6.806-.062,1.3L14.384.124,20.77,0h4.588l5.58.124L30.876.062l-.434-1.178-5.27-1.426-.124-4.9v-2.666l2.666-.062,1.178.372,1.116.434L31-6.7l.682.372ZM21.39-28.21l-1.054.558v2.108l.5.5-.5.62V-13.7H5.27L20.336-35.836v6.572Z" transform="translate(21.535 59.056)" fill="#2b2e34"/>
  </g>
</svg>
