<svg xmlns="http://www.w3.org/2000/svg" xmlns:xlink="http://www.w3.org/1999/xlink" width="97.549" height="97.547" viewBox="0 0 97.549 97.547">
  <defs>
    <filter id="Path_4" x="0" y="0" width="97.549" height="97.547" filterUnits="userSpaceOnUse">
      <feOffset dy="3" input="SourceAlpha"/>
      <feGaussianBlur stdDeviation="3" result="blur"/>
      <feFlood flood-opacity="0.161"/>
      <feComposite operator="in" in2="blur"/>
      <feComposite in="SourceGraphic"/>
    </filter>
  </defs>
  <g id="Group_2" data-name="Group 2" transform="translate(9 6)">
    <g transform="matrix(1, 0, 0, 1, -9, -6)" filter="url(#Path_4)">
      <path id="Path_4-2" data-name="Path 4" d="M21.469,42.938A39.773,39.773,0,1,0-18.305,3.163,39.775,39.775,0,0,0,21.469,42.938" transform="translate(27.31 42.61)" fill="#fff"/>
    </g>
    <path id="Path_181" data-name="Path 181" d="M24.862-.5,23.25-1.364l-.682-1.178-.062-.124a26.938,26.938,0,0,1-4.34-1.116A25.045,25.045,0,0,1,17.3-8.308c0-.186.62-.682.62-.806.062-2.17.062-10.354.062-15.686v-2.666c0-.31-.62-.93-.62-1.3,0-.682.682-1.736.682-2.48v-2.17c.062-.434.062-1.8.062-2.232.062-.992.124-3.286.248-4.278a14.791,14.791,0,0,1-1.364-.744,10.326,10.326,0,0,1,.806-.744s-.992-2.418-1.24-2.294c-1.736.682-5.394,2.666-5.394,2.666L7.13-39.122l.992.868,4.588-.062a20.348,20.348,0,0,1,.5,2.17v3.286c0,.372.992,1.054.992,1.364,0,.62-.992,1.426-.992,2.046v8c0,1.24.062,5.394.062,6.634v1.612a12.959,12.959,0,0,1-.062,1.55c0,.372.992,1.24.93,1.612,0,.372-.992,1.054-.992,1.426,0,1.612-.062,1.674-.062,3.286a8.335,8.335,0,0,0,.868.682L10.6-2.294,6.82-1.178A14.3,14.3,0,0,0,7.688,0C13.082.062,18.476-.186,23.87.062,24.118.124,24.614-.5,24.862-.5Z" transform="translate(23.535 58.056)" fill="#2b2e34"/>
  </g>
</svg>
