<svg xmlns="http://www.w3.org/2000/svg" xmlns:xlink="http://www.w3.org/1999/xlink" width="2405.221" height="2888.865" viewBox="0 0 2405.221 2888.865">
  <defs>
    <clipPath id="clip-path">
      <rect id="Rectangle_11" data-name="Rectangle 11" width="2405.221" height="2459.865" fill="none"/>
    </clipPath>
  </defs>
  <g id="Group_108" data-name="Group 108" transform="translate(242.61 1919.865)">
    <g id="Group_14" data-name="Group 14" transform="translate(2162.61 540) rotate(180)" opacity="0.188">
      <g id="Group_9" data-name="Group 9" clip-path="url(#clip-path)">
        <path id="Path_92" data-name="Path 92" d="M2405.221,2459.868H0V935.6A453.9,453.9,0,0,1,208.3,553.884l748.713-481.7a453.87,453.87,0,0,1,491.174,0l748.724,481.7A453.891,453.891,0,0,1,2405.221,935.6Z" transform="translate(0 -0.002)" fill="#feb153"/>
      </g>
    </g>
    <g id="Rectangle_15" data-name="Rectangle 15" transform="translate(140 359)" fill="#fff" stroke="rgba(119,101,180,0.69)" stroke-width="1">
      <path d="M0,0H398a0,0,0,0,1,0,0V590a20,20,0,0,1-20,20H20A20,20,0,0,1,0,590V0A0,0,0,0,1,0,0Z" stroke="none"/>
      <path d="M.5.5h397a0,0,0,0,1,0,0V590A19.5,19.5,0,0,1,378,609.5H20A19.5,19.5,0,0,1,.5,590V.5A0,0,0,0,1,.5.5Z" fill="none"/>
    </g>
    <path id="Path_1" data-name="Path 1" d="M9.922,0C-.646,0-9.213,8.963-9.213,20.019V142.632h398V20.019C388.787,8.963,380.222,0,369.655,0Z" transform="translate(149.213 216.368)" fill="#7765b4"/>
    <path id="Path_176" data-name="Path 176" d="M-55.02-18.2v.28l2.52,1.4L-56.308-2.772h-.056L-60.424-18.2h-2.352l.84,2.856-3.78,12.572h-.056L-69.356-16.52l2.52-1.4v-.28h-7.336v.28l2.38,1.4L-66.668.14h1.288l4.144-13.16L-57.372.14h1.288l5.068-16.66,2.38-1.4v-.28ZM-41.86-1.26-42-1.4V-8.092a3.421,3.421,0,0,0-3.752-3.668,5.937,5.937,0,0,0-4.368,1.9l.364.672a5.631,5.631,0,0,1,3.248-1.064c2.044,0,2.548,1.064,2.548,3.276V-6.1c-3.78.168-6.5,1.12-6.5,3.7A2.618,2.618,0,0,0-47.656.28a6.612,6.612,0,0,0,3.7-1.428V0h3.78V-1.26Zm-4.788.084c-1.064,0-1.82-.5-1.82-1.6,0-1.876,2.128-2.268,4.508-2.436v3.556A8.609,8.609,0,0,1-46.648-1.176Zm16.856-.084-.14-.14V-8.092a3.421,3.421,0,0,0-3.752-3.668,5.937,5.937,0,0,0-4.368,1.9l.364.672a5.631,5.631,0,0,1,3.248-1.064c2.044,0,2.548,1.064,2.548,3.276V-6.1c-3.78.168-6.5,1.12-6.5,3.7A2.618,2.618,0,0,0-35.588.28a6.612,6.612,0,0,0,3.7-1.428V0h3.78V-1.26Zm-4.788.084c-1.064,0-1.82-.5-1.82-1.6,0-1.876,2.128-2.268,4.508-2.436v3.556A8.609,8.609,0,0,1-34.58-1.176ZM-18.9-11.76c-.924,0-2.492,1.092-3.668,1.96l-.28-1.9-.168-.084L-26.4-10.052v.14l1.876.9V-1.4l-.14.14h-1.68V0h6.02V-1.26h-2.1l-.14-.14V-9.268a13.3,13.3,0,0,1,2.94-.392,7.257,7.257,0,0,1,1.428.14v-2.044A1.294,1.294,0,0,0-18.9-11.76ZM-11.368.28c3.64,0,5.852-2.94,5.852-6.244,0-3.64-2.408-5.8-5.572-5.8C-14.812-11.76-17-8.848-17-5.516A5.4,5.4,0,0,0-11.368.28ZM-11-.84c-2.268,0-3.836-2.464-3.836-5.4,0-3.024,1.456-4.4,3.3-4.4,2.184,0,3.836,2.3,3.836,5.376C-7.7-2.268-9.072-.84-11-.84ZM15.2-1.26l-.14-.14V-8.484c0-2.1-1.064-3.276-3.5-3.276-1.12,0-2.408.672-4.088,1.792C7.028-11.144,5.992-11.76,4.2-11.76c-1.092,0-2.3.616-3.92,1.68l-.224-1.6-.168-.084L-3.5-10.024v.14l1.876.9V-1.4l-.14.14h-1.68V0h5.6V-1.26H.476L.336-1.4V-9.576A13.717,13.717,0,0,1,3.3-9.968c1.96,0,2.436.84,2.436,3.248V-1.4l-.14.14H3.92V0h5.6V-1.26H7.84L7.7-1.4V-8.484A4.749,4.749,0,0,0,7.588-9.6l.028.056a12.913,12.913,0,0,1,3.052-.42c1.96,0,2.436.84,2.436,3.248V-1.4l-.14.14h-1.68V0h5.6V-1.26ZM27.412-14.672a1.543,1.543,0,0,0,1.512-1.512,1.548,1.548,0,0,0-1.512-1.54,1.554,1.554,0,0,0-1.54,1.54A1.548,1.548,0,0,0,27.412-14.672ZM24.808,0h5.6V-1.26h-1.68l-.14-.14V-11.676l-.168-.084-3.668,1.708v.14l1.876.9V-1.4l-.14.14h-1.68ZM36.036.28C38.164.28,39.9-.98,39.9-3c0-1.932-1.54-2.744-2.968-3.528C35.616-7.224,34.3-7.84,34.3-9.156a1.607,1.607,0,0,1,1.82-1.568A2.647,2.647,0,0,1,37.968-10l1.456,1.624h.14v-2.856A8.242,8.242,0,0,0,36.6-11.76c-2.464,0-3.976,1.344-3.976,3.22,0,1.624,1.036,2.6,2.744,3.528,1.456.784,2.8,1.232,2.8,2.632,0,1.008-.784,1.6-1.932,1.6a3.2,3.2,0,0,1-2.24-1.008l-1.4-1.54h-.14v2.94A9.967,9.967,0,0,0,36.036.28ZM58.128-7.2c0-3.22-2.1-4.592-4.424-4.592-2.548,0-5.516,2.184-5.516,6.3C48.188-2.3,50.232.28,53.648.28a6.486,6.486,0,0,0,4.34-1.624l-.308-.588a6.269,6.269,0,0,1-2.884.7c-2.52,0-4.424-1.344-4.452-5.012h7.728C58.1-6.58,58.128-6.888,58.128-7.2Zm-4.62-3.444c1.512,0,2.38,1.064,2.436,3.388H50.4C50.68-9.772,52.164-10.64,53.508-10.64Zm14-1.12c-.924,0-2.492,1.092-3.668,1.96l-.28-1.9-.168-.084L60-10.052v.14l1.876.9V-1.4l-.14.14H60.06V0h6.02V-1.26h-2.1l-.14-.14V-9.268a13.3,13.3,0,0,1,2.94-.392,7.257,7.257,0,0,1,1.428.14v-2.044A1.294,1.294,0,0,0,67.508-11.76ZM-146.02,25.1a12.739,12.739,0,0,1,3.5.476V21.96a1.987,1.987,0,0,0-.812-.14c-1.064,0-2.324.812-3.7,2.072l-.364-2.016-.364-.2-4.2,2.156V24.2l1.792,1.092v6.776l-.14.14h-1.26V34h6.44V32.208h-1.68l-.14-.14V25.152C-146.636,25.124-146.328,25.1-146.02,25.1Zm16.52,7.112-.112-.14V21.82l-.392-.2-4.62,2.24V24.2l1.792,1.12v6.216a6.994,6.994,0,0,1-1.932.28c-1.54,0-2.184-.616-2.184-2.6v-7.2l-.392-.2-4.62,2.24V24.4l1.792,1.12v5.46c0,2.128,1.12,3.3,3.22,3.3,1.624,0,2.744-.812,4.116-1.96V34h4.592V32.208Zm7.14,2.072c2.884,0,4.564-1.372,4.564-3.64,0-1.652-1.008-2.66-3.164-3.752-1.512-.756-2.688-1.316-2.688-2.352,0-.588.448-1.092,1.316-1.092a2.594,2.594,0,0,1,1.764.812l1.624,1.932h.364v-3.78a9.111,9.111,0,0,0-3.3-.588c-2.8,0-4.648,1.26-4.648,3.388,0,1.708.868,2.688,3,3.92,1.4.812,2.856,1.176,2.856,2.352,0,.644-.42,1.176-1.456,1.176a3.382,3.382,0,0,1-2.52-1.428l-1.54-1.9h-.364v4.032A11.012,11.012,0,0,0-122.36,34.28Zm10.108,0a6.608,6.608,0,0,0,4.2-1.624l-.532-.98a4.891,4.891,0,0,1-2.072.616c-1.12,0-1.54-.784-1.54-3.024V24.032h3.724V22.24H-112.2V18.908h-.364l-4.564,4.76v.364h1.568l.14.14v6.44C-115.416,33.3-114.268,34.28-112.252,34.28Zm16.492,0c3.64,0,5.852-2.94,5.852-6.244,0-3.64-2.408-5.8-5.572-5.8-3.724,0-5.908,2.912-5.908,6.244A5.4,5.4,0,0,0-95.76,34.28Zm.364-1.12c-2.268,0-3.836-2.464-3.836-5.4,0-3.024,1.456-4.4,3.3-4.4,2.184,0,3.836,2.3,3.836,5.376C-92.092,31.732-93.464,33.16-95.4,33.16Zm7.476.84h6.02V32.74H-84l-.14-.14V24.116l.14-.168h4.06v-1.26H-84l-.14-.14V19.16c0-2.688.7-3.976,2.24-3.976a2.779,2.779,0,0,1,1.792.616l1.54,1.96h.14V14.4a7.066,7.066,0,0,0-2.6-.476c-3.612,0-5.068,2.184-5.068,7.868v.756l-.14.14h-1.68v1.26h1.68l.14.168V32.6l-.14.14h-1.68Zm20.72.28c3.556,0,6.1-2.576,6.1-6.384s-2.492-6.076-5.768-6.076c-3.64,0-6.1,2.828-6.1,6.524A5.542,5.542,0,0,0-67.2,34.28Zm.56-1.652c-1.68,0-2.912-2.24-2.912-5.432,0-2.3.812-3.64,2.128-3.64,1.68,0,2.912,2.24,2.912,5.432C-64.512,31.284-65.324,32.628-66.64,32.628Zm19.572-.392-.14-.168V25.1c0-2.3-1.4-3.276-3.388-3.276a7.59,7.59,0,0,0-4.34,1.68l-.336-1.652-.364-.2-4.2,2.156v.364l1.792,1.092v6.8l-.14.14h-1.26V34h6.02V32.208h-1.26l-.14-.14v-7.5a8.648,8.648,0,0,1,2.156-.336c1.6,0,2.24.616,2.24,2.856v4.984l-.14.14h-1.26V34h6.02V32.236Zm8.148-7.14a12.739,12.739,0,0,1,3.5.476V21.96a1.987,1.987,0,0,0-.812-.14c-1.064,0-2.324.812-3.7,2.072l-.364-2.016-.364-.2-4.2,2.156V24.2l1.792,1.092v6.776l-.14.14h-1.26V34h6.44V32.208H-39.7l-.14-.14V25.152C-39.536,25.124-39.228,25.1-38.92,25.1Zm16.52,7.112-.112-.14V21.82l-.392-.2-4.62,2.24V24.2l1.792,1.12v6.216a6.994,6.994,0,0,1-1.932.28c-1.54,0-2.184-.616-2.184-2.6v-7.2l-.392-.2-4.62,2.24V24.4l1.792,1.12v5.46c0,2.128,1.12,3.3,3.22,3.3,1.624,0,2.744-.812,4.116-1.96V34h4.592V32.208Zm7.14,2.072c2.884,0,4.564-1.372,4.564-3.64,0-1.652-1.008-2.66-3.164-3.752-1.512-.756-2.688-1.316-2.688-2.352,0-.588.448-1.092,1.316-1.092a2.594,2.594,0,0,1,1.764.812l1.624,1.932h.364v-3.78a9.111,9.111,0,0,0-3.3-.588c-2.8,0-4.648,1.26-4.648,3.388,0,1.708.868,2.688,3,3.92,1.4.812,2.856,1.176,2.856,2.352,0,.644-.42,1.176-1.456,1.176a3.382,3.382,0,0,1-2.52-1.428l-1.54-1.9h-.364v4.032A11.012,11.012,0,0,0-15.26,34.28Zm10.108,0a6.608,6.608,0,0,0,4.2-1.624l-.532-.98a4.891,4.891,0,0,1-2.072.616c-1.12,0-1.54-.784-1.54-3.024V24.032h3.724V22.24H-5.1V18.908H-5.46l-4.564,4.76v.364h1.568l.14.14v6.44C-8.316,33.3-7.168,34.28-5.152,34.28Zm13.3-14.952a1.526,1.526,0,1,0-1.54-1.512A1.543,1.543,0,0,0,8.148,19.328ZM5.544,34h5.6V32.74H9.464l-.14-.14V22.324l-.168-.084L5.488,23.948v.14l1.876.9V32.6l-.14.14H5.544Zm18.928-1.26-.14-.14V25.516c0-2.1-1.12-3.276-3.64-3.276a8.217,8.217,0,0,0-4.06,1.652l-.224-1.6-.168-.084-3.388,1.736v.14l1.876.9V32.6l-.14.14h-1.68V34h5.74V32.74h-1.82l-.14-.14V24.424a14.993,14.993,0,0,1,3.108-.392c2.072,0,2.576.84,2.576,3.248V32.6l-.14.14h-1.82V34h5.74V32.74Zm20.608,0-.14-.14V13.924l-.168-.084L41.1,15.6v.14l1.876.9v6.188a6.722,6.722,0,0,0-2.912-.588c-3.976,0-5.824,3.164-5.824,6.356,0,2.884,1.624,5.684,4.4,5.684a8.813,8.813,0,0,0,4.34-1.624V34H46.9V32.74Zm-5.264-.112c-2.436,0-3.416-2.044-3.416-4.648,0-2.828.924-4.62,3.388-4.62A3.366,3.366,0,0,1,42.98,25.1v7.112A12.554,12.554,0,0,1,39.816,32.628ZM58.8,26.8c0-3.22-2.1-4.592-4.424-4.592-2.548,0-5.516,2.184-5.516,6.3,0,3.192,2.044,5.768,5.46,5.768a6.486,6.486,0,0,0,4.34-1.624l-.308-.588a6.269,6.269,0,0,1-2.884.7c-2.52,0-4.424-1.344-4.452-5.012h7.728C58.772,27.42,58.8,27.112,58.8,26.8ZM54.18,23.36c1.512,0,2.38,1.064,2.436,3.388H51.072C51.352,24.228,52.836,23.36,54.18,23.36Zm25.368-.672v.084l2.016,1.288-2.632,7.5H78.82l-3.136-9.156-1.932,1.008,1.176,3.052-2.1,5.1h-.112l-3-7.476,1.9-1.316v-.084H65.8v.14l1.624,1.26L71.792,34.28h.9s1.96-4.732,2.716-6.58l2.548,6.58h.924l3.948-10.192,1.6-1.316v-.084ZM94.92,26.8c0-3.22-2.1-4.592-4.424-4.592-2.548,0-5.516,2.184-5.516,6.3,0,3.192,2.044,5.768,5.46,5.768a6.486,6.486,0,0,0,4.34-1.624l-.308-.588a6.269,6.269,0,0,1-2.884.7c-2.52,0-4.424-1.344-4.452-5.012h7.728C94.892,27.42,94.92,27.112,94.92,26.8ZM90.3,23.36c1.512,0,2.38,1.064,2.436,3.388H87.192C87.472,24.228,88.956,23.36,90.3,23.36Zm14-1.12c-.924,0-2.492,1.092-3.668,1.96l-.28-1.9-.168-.084L96.8,23.948v.14l1.876.9V32.6l-.14.14h-1.68V34h6.02V32.74h-2.1l-.14-.14V24.732a13.3,13.3,0,0,1,2.94-.392,7.257,7.257,0,0,1,1.428.14V22.436A1.294,1.294,0,0,0,104.3,22.24ZM116.144,26.8c0-3.22-2.1-4.592-4.424-4.592-2.548,0-5.516,2.184-5.516,6.3,0,3.192,2.044,5.768,5.46,5.768A6.486,6.486,0,0,0,116,32.656l-.308-.588a6.269,6.269,0,0,1-2.884.7c-2.52,0-4.424-1.344-4.452-5.012h7.728C116.116,27.42,116.144,27.112,116.144,26.8Zm-4.62-3.444c1.512,0,2.38,1.064,2.436,3.388h-5.544C108.7,24.228,110.18,23.36,111.524,23.36ZM118.076,34h5.74V32.74H122l-.14-.14V13.924l-.168-.084L118.02,15.6v.14l1.876.9V32.6l-.14.14h-1.68Zm18.508-1.26-.14-.14V13.924l-.168-.084L132.608,15.6v.14l1.876.9v6.188a6.722,6.722,0,0,0-2.912-.588c-3.976,0-5.824,3.164-5.824,6.356,0,2.884,1.624,5.684,4.4,5.684a8.813,8.813,0,0,0,4.34-1.624V34h3.92V32.74Zm-5.264-.112c-2.436,0-3.416-2.044-3.416-4.648,0-2.828.924-4.62,3.388-4.62a3.366,3.366,0,0,1,3.192,1.736v7.112A12.554,12.554,0,0,1,131.32,32.628ZM145.768,15.38a6.617,6.617,0,0,0-5.46,2.492l1.708,1.652c.9-1.9,1.96-3,3.612-3,1.96,0,3.052,1.624,3.052,3.64,0,2.464-1.764,4.06-4.452,4.844l.364,3.892h.98l.392-3.472c3.164-.98,5.012-2.772,5.012-5.4C150.976,17.368,149.1,15.38,145.768,15.38Zm-.56,15.764a1.649,1.649,0,0,0-1.624,1.652,1.638,1.638,0,0,0,3.276,0A1.655,1.655,0,0,0,145.208,31.144Z" transform="translate(339 293.813)" fill="#fff"/>
    <g id="Rectangle_13" data-name="Rectangle 13" transform="translate(554 359)" fill="#fff" stroke="rgba(119,101,180,0.69)" stroke-width="1">
      <path d="M0,0H398a0,0,0,0,1,0,0V590a20,20,0,0,1-20,20H20A20,20,0,0,1,0,590V0A0,0,0,0,1,0,0Z" stroke="none"/>
      <path d="M.5.5h397a0,0,0,0,1,0,0V590A19.5,19.5,0,0,1,378,609.5H20A19.5,19.5,0,0,1,.5,590V.5A0,0,0,0,1,.5.5Z" fill="none"/>
    </g>
    <path id="Path_111" data-name="Path 111" d="M9.922,0C-.646,0-9.213,8.963-9.213,20.019V142.632h398V20.019C388.787,8.963,380.222,0,369.655,0Z" transform="translate(563.213 216.368)" fill="#9a8ac7"/>
    <path id="Path_177" data-name="Path 177" d="M-138.768-18.2v.28l2.52,1.4-3.808,13.748h-.056l-4.06-15.428h-2.352l.84,2.856-3.78,12.572h-.056L-153.1-16.52l2.52-1.4v-.28h-7.336v.28l2.38,1.4L-150.416.14h1.288l4.144-13.16L-141.12.14h1.288l5.068-16.66,2.38-1.4v-.28Zm15.344,11c0-3.22-2.1-4.592-4.424-4.592-2.548,0-5.516,2.184-5.516,6.3,0,3.192,2.044,5.768,5.46,5.768a6.486,6.486,0,0,0,4.34-1.624l-.308-.588a6.269,6.269,0,0,1-2.884.7c-2.52,0-4.424-1.344-4.452-5.012h7.728C-123.452-6.58-123.424-6.888-123.424-7.2Zm-4.62-3.444c1.512,0,2.38,1.064,2.436,3.388h-5.544C-130.872-9.772-129.388-10.64-128.044-10.64ZM-121.492,0h5.74V-1.26h-1.82l-.14-.14V-20.076l-.168-.084-3.668,1.764v.14l1.876.9V-1.4l-.14.14h-1.68Zm11.284-1.4V-20.076l-.168-.084-3.668,1.764v.14l1.876.9V-1.4l-.14.14h-1.68V0h5.6V-1.26h-1.68Zm7.056.14s-4.256-4.788-4.844-5.4l6.216-4.564v-.084h-5.572v.14l1.624,1.456-4.256,3.472L-104.8,0h3.332V-1.26ZM-90.468-7.2c0-3.22-2.1-4.592-4.424-4.592-2.548,0-5.516,2.184-5.516,6.3,0,3.192,2.044,5.768,5.46,5.768a6.486,6.486,0,0,0,4.34-1.624l-.308-.588a6.269,6.269,0,0,1-2.884.7c-2.52,0-4.424-1.344-4.452-5.012h7.728C-90.5-6.58-90.468-6.888-90.468-7.2Zm-4.62-3.444c1.512,0,2.38,1.064,2.436,3.388H-98.2C-97.916-9.772-96.432-10.64-95.088-10.64Zm32,8.848-.14-.14V-8.764c0-2.1-1.12-3.416-3.276-3.416-1.568,0-2.688.7-4.34,1.792a3.005,3.005,0,0,0-3.024-1.792c-1.428,0-2.576.644-4.144,1.68l-.336-1.652-.364-.2-4.2,2.156v.364l1.792,1.092v6.8l-.14.14h-1.26V0h6.02V-1.792h-1.26l-.14-.14v-7.5a8.829,8.829,0,0,1,2.352-.336c1.232,0,1.792.7,1.792,2.856v4.984l-.14.14h-1.26V0h6.02V-1.792h-1.26l-.14-.14V-8.708a6.883,6.883,0,0,0-.056-.784l.028.056a8.829,8.829,0,0,1,2.352-.336c1.2,0,1.764.7,1.764,2.856v4.984l-.14.14h-1.26V0h6.02V-1.792Zm8.4,2.072c3.556,0,6.1-2.576,6.1-6.384s-2.492-6.076-5.768-6.076c-3.64,0-6.1,2.828-6.1,6.524A5.542,5.542,0,0,0-54.684.28Zm.56-1.652c-1.68,0-2.912-2.24-2.912-5.432,0-2.3.812-3.64,2.128-3.64,1.68,0,2.912,2.24,2.912,5.432C-52-2.716-52.808-1.372-54.124-1.372Zm14.448-.252c-2.3,0-3.584-1.652-3.78-4.34h6.944a7.587,7.587,0,0,0,.14-1.512,4.387,4.387,0,0,0-4.62-4.7c-3.444,0-5.908,2.828-5.908,6.44A5.719,5.719,0,0,0-40.992.28a7.2,7.2,0,0,0,4.508-1.624l-.532-.98A5.989,5.989,0,0,1-39.676-1.624Zm-1.708-8.932c1.148,0,1.848.784,1.9,3.136h-3.976C-43.344-9.464-42.616-10.556-41.384-10.556Zm9.492-3.836a1.942,1.942,0,0,0,1.932-1.96,1.936,1.936,0,0,0-1.932-1.932,1.942,1.942,0,0,0-1.96,1.932A1.948,1.948,0,0,0-31.892-14.392ZM-34.8,0h6.02V-1.792h-1.26l-.14-.14V-12.208l-.364-.168L-35.2-10.164v.336l1.792,1.12v6.776l-.14.14H-34.8Zm7.168,0h6.02V-1.792h-1.26l-.14-.14V-19.964l-.392-.2-4.62,2.24v.336l1.792,1.12V-1.932l-.14.14h-1.26Zm10.3-14.392a1.942,1.942,0,0,0,1.932-1.96,1.936,1.936,0,0,0-1.932-1.932,1.942,1.942,0,0,0-1.96,1.932A1.948,1.948,0,0,0-17.332-14.392Zm7.28,0a1.942,1.942,0,0,0,1.932-1.96,1.936,1.936,0,0,0-1.932-1.932,1.942,1.942,0,0,0-1.96,1.932A1.948,1.948,0,0,0-10.052-14.392ZM-20.244,0h6.02V-1.792h-1.26l-.14-.14V-12.208l-.364-.168-4.648,2.212v.336l1.792,1.12v6.776l-.14.14h-1.26Zm6.272,6.356c3.332-.5,5.488-2.3,5.488-6.3V-12.208l-.364-.168L-13.5-10.164v.336l1.792,1.12V1.176c0,2.576-.868,3.556-2.716,4.34ZM-1.344-1.932V-19.964l-.392-.2-4.62,2.24v.336l1.792,1.12V-1.932l-.14.14h-1.26V0H.056V-1.792H-1.2Zm7.224.14L2.1-7.112l4.956-4.564V-11.9H.868v.252l1.6,1.568L-1.12-6.272,3.192,0H7.616V-1.792ZM19.264.28h1.288L25.4-9.828,27.1-11.4v-.364H21.868v.392l1.568,1.54-2.772,6.02H20.58L18-9.828,19.572-11.4v-.364H12.8v.392L14.5-9.828Zm14.924-1.9c-2.3,0-3.584-1.652-3.78-4.34h6.944a7.587,7.587,0,0,0,.14-1.512,4.387,4.387,0,0,0-4.62-4.7c-3.444,0-5.908,2.828-5.908,6.44A5.719,5.719,0,0,0,32.872.28,7.2,7.2,0,0,0,37.38-1.344l-.532-.98A5.989,5.989,0,0,1,34.188-1.624ZM32.48-10.556c1.148,0,1.848.784,1.9,3.136H30.408C30.52-9.464,31.248-10.556,32.48-10.556ZM44.548-8.9a12.739,12.739,0,0,1,3.5.476V-12.04a1.987,1.987,0,0,0-.812-.14c-1.064,0-2.324.812-3.7,2.072l-.364-2.016-.364-.2-4.2,2.156V-9.8L40.4-8.708v6.776l-.14.14H39V0h6.44V-1.792h-1.68l-.14-.14V-8.848C43.932-8.876,44.24-8.9,44.548-8.9Zm9.128,6.972V-19.964l-.392-.2-4.62,2.24v.336l1.792,1.12V-1.932l-.14.14h-1.26V0h6.02V-1.792h-1.26Zm7.224.14-3.78-5.32,4.956-4.564V-11.9H55.888v.252l1.6,1.568L53.9-6.272,58.212,0h4.424V-1.792ZM63.5,0h6.02V-1.792h-1.26l-.14-.14V-19.964l-.392-.2-4.62,2.24v.336l1.792,1.12V-1.932l-.14.14H63.5Zm17-1.792-.14-.14v-5.46c0-3.108-1.176-4.788-4.116-4.788A6.567,6.567,0,0,0,71.4-10.108l.532,1.064a5.51,5.51,0,0,1,2.94-1.036c1.624,0,2.268.98,2.268,2.884v.5C72.3-6.188,70.9-4.564,70.9-2.464A2.56,2.56,0,0,0,73.668.308,6.339,6.339,0,0,0,77.14-.98V0h4.62V-1.792Zm-4.872.084a1.4,1.4,0,0,1-1.6-1.54c.028-1.26.924-1.876,3.108-2.072v3.36A6.092,6.092,0,0,1,75.628-1.708Zm17-.084-.14-.14v-5.46c0-3.108-1.176-4.788-4.116-4.788a6.567,6.567,0,0,0-4.844,2.072l.532,1.064A5.51,5.51,0,0,1,87-10.08c1.624,0,2.268.98,2.268,2.884v.5c-4.844.5-6.244,2.128-6.244,4.228A2.56,2.56,0,0,0,85.792.308,6.339,6.339,0,0,0,89.264-.98V0h4.62V-1.792Zm-4.872.084a1.4,1.4,0,0,1-1.6-1.54c.028-1.26.924-1.876,3.108-2.072v3.36A6.092,6.092,0,0,1,87.752-1.708Zm13.02-7.2a12.739,12.739,0,0,1,3.5.476V-12.04a1.987,1.987,0,0,0-.812-.14c-1.064,0-2.324.812-3.7,2.072L99.4-12.124l-.364-.2-4.2,2.156V-9.8l1.792,1.092v6.776l-.14.14h-1.26V0h6.44V-1.792h-1.68l-.14-.14V-8.848C100.156-8.876,100.464-8.9,100.772-8.9Zm12.8-3.276c-1.512,0-2.52.644-3.864,1.736v-9.52l-.364-.2-4.648,2.24v.336l1.792,1.12V-.644a11.009,11.009,0,0,0,4.648.924,6.514,6.514,0,0,0,6.72-6.748C117.852-9.744,116.032-12.18,113.568-12.18ZM111.86-1.4A2.681,2.681,0,0,1,109.7-2.52v-7a8.233,8.233,0,0,1,1.988-.252c1.652,0,2.744,1.372,2.744,4.144C114.436-2.94,113.6-1.4,111.86-1.4Zm17.024-.392-.14-.14v-5.46c0-3.108-1.176-4.788-4.116-4.788a6.567,6.567,0,0,0-4.844,2.072l.532,1.064a5.51,5.51,0,0,1,2.94-1.036c1.624,0,2.268.98,2.268,2.884v.5c-4.844.5-6.244,2.128-6.244,4.228A2.56,2.56,0,0,0,122.052.308,6.339,6.339,0,0,0,125.524-.98V0h4.62V-1.792Zm-4.872.084a1.4,1.4,0,0,1-1.6-1.54c.028-1.26.924-1.876,3.108-2.072v3.36A6.092,6.092,0,0,1,124.012-1.708Zm13.02-7.2a12.739,12.739,0,0,1,3.5.476V-12.04a1.987,1.987,0,0,0-.812-.14c-1.064,0-2.324.812-3.7,2.072l-.364-2.016-.364-.2-4.2,2.156V-9.8l1.792,1.092v6.776l-.14.14h-1.26V0h6.44V-1.792h-1.68l-.14-.14V-8.848C136.416-8.876,136.724-8.9,137.032-8.9Zm11.844,7.28c-2.3,0-3.584-1.652-3.78-4.34h6.944a7.587,7.587,0,0,0,.14-1.512,4.387,4.387,0,0,0-4.62-4.7c-3.444,0-5.908,2.828-5.908,6.44A5.719,5.719,0,0,0,147.56.28a7.2,7.2,0,0,0,4.508-1.624l-.532-.98A5.989,5.989,0,0,1,148.876-1.624Zm-1.708-8.932c1.148,0,1.848.784,1.9,3.136H145.1C145.208-9.464,145.936-10.556,147.168-10.556Zm-318.6,32.124-3.5,1.316a5.338,5.338,0,0,0-3.276-1.064,4.965,4.965,0,0,0-5.236,4.788,3.794,3.794,0,0,0,1.736,3.3,4.979,4.979,0,0,0-1.932,3.472,2.045,2.045,0,0,0,1.008,1.848c-1.316.9-2.016,1.876-2.016,2.94,0,1.568,1.512,2.464,4.4,2.464,4.508,0,7.868-1.988,7.868-5.1,0-1.9-1.372-2.772-3.92-2.772h-2.688c-1.764,0-2.212-.448-2.212-1.148a2.149,2.149,0,0,1,.448-1.232,6.069,6.069,0,0,0,2.072.336c2.8,0,5.292-1.68,5.292-4.536a4.185,4.185,0,0,0-.7-2.38l2.352.728.392-.056V21.652Zm-6.944,7.784c-1.176,0-1.792-1.232-1.792-3.22,0-2.044.756-2.968,1.68-2.968,1.12,0,1.848,1.288,1.848,3.332C-176.638,28.568-177.422,29.352-178.374,29.352Zm-1.6,6.44h2.744c1.176,0,2.016.112,2.016.98,0,1.344-2.016,2.128-4.172,2.128-1.736,0-2.66-.56-2.66-1.792a2.7,2.7,0,0,1,.448-1.484A6.73,6.73,0,0,0-179.97,35.792Zm16.408-3.416c-2.3,0-3.584-1.652-3.78-4.34h6.944a7.587,7.587,0,0,0,.14-1.512,4.387,4.387,0,0,0-4.62-4.7c-3.444,0-5.908,2.828-5.908,6.44a5.719,5.719,0,0,0,5.908,6.02,7.2,7.2,0,0,0,4.508-1.624l-.532-.98A5.989,5.989,0,0,1-163.562,32.376Zm-1.708-8.932c1.148,0,1.848.784,1.9,3.136h-3.976C-167.23,24.536-166.5,23.444-165.27,23.444Zm14.728-1.624c-1.512,0-2.52.644-3.864,1.736v-9.52l-.364-.2-4.648,2.24v.336l1.792,1.12v15.82a11.009,11.009,0,0,0,4.648.924,6.514,6.514,0,0,0,6.72-6.748C-146.258,24.256-148.078,21.82-150.542,21.82ZM-152.25,32.6a2.681,2.681,0,0,1-2.156-1.12v-7a8.233,8.233,0,0,1,1.988-.252c1.652,0,2.744,1.372,2.744,4.144C-149.674,31.06-150.514,32.6-152.25,32.6Zm15.036-.224c-2.3,0-3.584-1.652-3.78-4.34h6.944a7.587,7.587,0,0,0,.14-1.512,4.387,4.387,0,0,0-4.62-4.7c-3.444,0-5.908,2.828-5.908,6.44a5.719,5.719,0,0,0,5.908,6.02,7.2,7.2,0,0,0,4.508-1.624l-.532-.98A5.989,5.989,0,0,1-137.214,32.376Zm-1.708-8.932c1.148,0,1.848.784,1.9,3.136h-3.976C-140.882,24.536-140.154,23.444-138.922,23.444Zm18.452,8.764-.112-.14V21.82l-.392-.2-4.62,2.24V24.2l1.792,1.12v6.216a6.994,6.994,0,0,1-1.932.28c-1.54,0-2.184-.616-2.184-2.6v-7.2l-.392-.2-4.62,2.24V24.4l1.792,1.12v5.46c0,2.128,1.12,3.3,3.22,3.3,1.624,0,2.744-.812,4.116-1.96V34h4.592V32.208Zm8.176-7.112a12.739,12.739,0,0,1,3.5.476V21.96a1.987,1.987,0,0,0-.812-.14c-1.064,0-2.324.812-3.7,2.072l-.364-2.016-.364-.2-4.2,2.156V24.2l1.792,1.092v6.776l-.14.14h-1.26V34h6.44V32.208h-1.68l-.14-.14V25.152C-112.91,25.124-112.6,25.1-112.294,25.1Zm9.072,9.184a6.608,6.608,0,0,0,4.2-1.624l-.532-.98a4.891,4.891,0,0,1-2.072.616c-1.12,0-1.54-.784-1.54-3.024V24.032h3.724V22.24h-3.724V18.908h-.364l-4.564,4.76v.364h1.568l.14.14v6.44C-106.386,33.3-105.238,34.28-103.222,34.28Zm12.208-1.9c-2.3,0-3.584-1.652-3.78-4.34h6.944a7.586,7.586,0,0,0,.14-1.512,4.387,4.387,0,0,0-4.62-4.7c-3.444,0-5.908,2.828-5.908,6.44a5.719,5.719,0,0,0,5.908,6.02,7.2,7.2,0,0,0,4.508-1.624l-.532-.98A5.989,5.989,0,0,1-91.014,32.376Zm-1.708-8.932c1.148,0,1.848.784,1.9,3.136h-3.976C-94.682,24.536-93.954,23.444-92.722,23.444Zm18.9,8.792-.14-.168V25.1c0-2.3-1.4-3.276-3.388-3.276a7.59,7.59,0,0,0-4.34,1.68l-.336-1.652-.364-.2-4.2,2.156v.364l1.792,1.092v6.8l-.14.14H-86.2V34h6.02V32.208h-1.26l-.14-.14v-7.5a8.648,8.648,0,0,1,2.156-.336c1.6,0,2.24.616,2.24,2.856v4.984l-.14.14h-1.26V34h6.02V32.236Zm5.572-12.628a1.942,1.942,0,0,0,1.932-1.96,1.936,1.936,0,0,0-1.932-1.932,1.942,1.942,0,0,0-1.96,1.932A1.948,1.948,0,0,0-68.25,19.608ZM-71.162,34h6.02V32.208H-66.4l-.14-.14V21.792l-.364-.168-4.648,2.212v.336l1.792,1.12v6.776l-.14.14h-1.26Zm11.76.28c2.884,0,4.564-1.372,4.564-3.64,0-1.652-1.008-2.66-3.164-3.752-1.512-.756-2.688-1.316-2.688-2.352,0-.588.448-1.092,1.316-1.092a2.594,2.594,0,0,1,1.764.812l1.624,1.932h.364v-3.78a9.111,9.111,0,0,0-3.3-.588c-2.8,0-4.648,1.26-4.648,3.388,0,1.708.868,2.688,3,3.92,1.4.812,2.856,1.176,2.856,2.352,0,.644-.42,1.176-1.456,1.176a3.382,3.382,0,0,1-2.52-1.428l-1.54-1.9H-63.6v4.032A11.012,11.012,0,0,0-59.4,34.28Zm13.944,5.964.924-.644A20.171,20.171,0,0,1-48.51,27.392a19.674,19.674,0,0,1,3.948-12.068l-.924-.672c-3.892,3.416-6.3,7.84-6.3,12.8C-51.786,32.292-49.406,36.716-45.458,40.244Zm6.524-5.964c2.884,0,4.564-1.372,4.564-3.64,0-1.652-1.008-2.66-3.164-3.752-1.512-.756-2.688-1.316-2.688-2.352,0-.588.448-1.092,1.316-1.092a2.594,2.594,0,0,1,1.764.812l1.624,1.932h.364v-3.78a9.111,9.111,0,0,0-3.3-.588c-2.8,0-4.648,1.26-4.648,3.388,0,1.708.868,2.688,3,3.92,1.4.812,2.856,1.176,2.856,2.352,0,.644-.42,1.176-1.456,1.176a3.382,3.382,0,0,1-2.52-1.428l-1.54-1.9h-.364v4.032A11.012,11.012,0,0,0-38.934,34.28Zm13.16-1.9c-2.3,0-3.584-1.652-3.78-4.34h6.944a7.587,7.587,0,0,0,.14-1.512,4.387,4.387,0,0,0-4.62-4.7c-3.444,0-5.908,2.828-5.908,6.44a5.719,5.719,0,0,0,5.908,6.02,7.2,7.2,0,0,0,4.508-1.624l-.532-.98A5.989,5.989,0,0,1-25.774,32.376Zm-1.708-8.932c1.148,0,1.848.784,1.9,3.136h-3.976C-29.442,24.536-28.714,23.444-27.482,23.444Zm18.9,8.792-.14-.168V25.1c0-2.3-1.4-3.276-3.388-3.276a7.59,7.59,0,0,0-4.34,1.68l-.336-1.652-.364-.2-4.2,2.156v.364l1.792,1.092v6.8l-.14.14h-1.26V34h6.02V32.208H-16.2l-.14-.14v-7.5a8.648,8.648,0,0,1,2.156-.336c1.6,0,2.24.616,2.24,2.856v4.984l-.14.14h-1.26V34h6.02V32.236Zm3-17.584-.924.644A20.171,20.171,0,0,1-2.534,27.5,19.674,19.674,0,0,1-6.482,39.572l.924.672c3.892-3.416,6.3-7.84,6.3-12.8C.742,22.6-1.638,18.18-5.586,14.652ZM14.658,34.28h.952l4.564-10.192,1.4-1.316v-.084h-4.7v.14l1.988,1.26-3.22,7.448h-.112L12.39,24.088l1.82-1.316v-.084H8.442v.14l1.568,1.26ZM24.99,19.328a1.526,1.526,0,1,0-1.54-1.512A1.543,1.543,0,0,0,24.99,19.328ZM22.386,34h5.6V32.74h-1.68l-.14-.14V22.324L26,22.24,22.33,23.948v.14l1.876.9V32.6l-.14.14h-1.68Zm18.928-1.26-.14-.14V25.516c0-2.1-1.12-3.276-3.64-3.276a8.217,8.217,0,0,0-4.06,1.652l-.224-1.6-.168-.084-3.388,1.736v.14l1.876.9V32.6l-.14.14H29.75V34h5.74V32.74H33.67l-.14-.14V24.424a14.993,14.993,0,0,1,3.108-.392c2.072,0,2.576.84,2.576,3.248V32.6l-.14.14h-1.82V34h5.74V32.74Zm14.448,0-.14-.14V13.924l-.168-.084L51.786,15.6v.14l1.876.9v6.188a6.722,6.722,0,0,0-2.912-.588c-3.976,0-5.824,3.164-5.824,6.356,0,2.884,1.624,5.684,4.4,5.684a8.813,8.813,0,0,0,4.34-1.624V34h3.92V32.74ZM50.5,32.628c-2.436,0-3.416-2.044-3.416-4.648,0-2.828.924-4.62,3.388-4.62A3.366,3.366,0,0,1,53.662,25.1v7.112A12.554,12.554,0,0,1,50.5,32.628ZM65.03,40.44l1.008-.728a17.83,17.83,0,0,1-4.452-12.32,17.267,17.267,0,0,1,4.452-12.208l-1.008-.728a17.936,17.936,0,0,0-5.768,12.992A18.315,18.315,0,0,0,65.03,40.44ZM77.658,26.8c0-3.22-2.1-4.592-4.424-4.592-2.548,0-5.516,2.184-5.516,6.3,0,3.192,2.044,5.768,5.46,5.768a6.486,6.486,0,0,0,4.34-1.624l-.308-.588a6.269,6.269,0,0,1-2.884.7c-2.52,0-4.424-1.344-4.452-5.012H77.6C77.63,27.42,77.658,27.112,77.658,26.8Zm-4.62-3.444c1.512,0,2.38,1.064,2.436,3.388H69.93C70.21,24.228,71.694,23.36,73.038,23.36Zm18.116,9.38-.14-.14V25.516c0-2.1-1.12-3.276-3.64-3.276a8.217,8.217,0,0,0-4.06,1.652l-.224-1.6-.168-.084-3.388,1.736v.14l1.876.9V32.6l-.14.14H79.59V34h5.74V32.74H83.51l-.14-.14V24.424a14.993,14.993,0,0,1,3.108-.392c2.072,0,2.576.84,2.576,3.248V32.6l-.14.14h-1.82V34h5.74V32.74Zm4.06-18.284-1.008.728A17.83,17.83,0,0,1,98.658,27.5a17.267,17.267,0,0,1-4.452,12.208l1.008.728a17.936,17.936,0,0,0,5.768-12.992A18.315,18.315,0,0,0,95.214,14.456ZM116.83,22.24a7.833,7.833,0,0,0-4.256,1.652l-.252-1.6-.168-.084-3.388,1.736v.14l1.876.9V39.04l-.14.14h-1.68v1.26h6.02V39.18h-2.1l-.14-.14V33.608a5.889,5.889,0,0,0,2.856.672c3.7,0,5.824-3.164,5.824-6.356C121.282,25.04,119.63,22.24,116.83,22.24Zm-1.092,10.92a3.307,3.307,0,0,1-3.136-1.736V24.4a11.276,11.276,0,0,1,3.108-.5c2.436,0,3.416,2.044,3.416,4.648C119.126,31.368,117.922,33.16,115.738,33.16Zm7.616.84h5.74V32.74h-1.82l-.14-.14V13.924l-.168-.084L123.3,15.6v.14l1.876.9V32.6l-.14.14h-1.68Zm16.128-1.26-.14-.14V25.908a3.421,3.421,0,0,0-3.752-3.668,5.937,5.937,0,0,0-4.368,1.9l.364.672a5.631,5.631,0,0,1,3.248-1.064c2.044,0,2.548,1.064,2.548,3.276V27.9c-3.78.168-6.5,1.12-6.5,3.7a2.618,2.618,0,0,0,2.8,2.688,6.612,6.612,0,0,0,3.7-1.428V34h3.78V32.74Zm-4.788.084c-1.064,0-1.82-.5-1.82-1.6,0-1.876,2.128-2.268,4.508-2.436v3.556A8.609,8.609,0,0,1,134.694,32.824Zm16.856-.084-.14-.14V25.908a3.421,3.421,0,0,0-3.752-3.668,5.937,5.937,0,0,0-4.368,1.9l.364.672a5.631,5.631,0,0,1,3.248-1.064c2.044,0,2.548,1.064,2.548,3.276V27.9c-3.78.168-6.5,1.12-6.5,3.7a2.618,2.618,0,0,0,2.8,2.688,6.612,6.612,0,0,0,3.7-1.428V34h3.78V32.74Zm-4.788.084c-1.064,0-1.82-.5-1.82-1.6,0-1.876,2.128-2.268,4.508-2.436v3.556A8.609,8.609,0,0,1,146.762,32.824ZM159.25,34.28a6.027,6.027,0,0,0,3.22-1.036l-.308-.588a5.439,5.439,0,0,1-1.848.308c-1.624,0-2.044-.952-2.044-3.78V23.948h3.78v-1.26h-3.78V19.02h-.14l-3.64,4.788v.14h1.68l.14.14v6.636C156.31,33.384,157.262,34.28,159.25,34.28Zm8.456,0c2.128,0,3.864-1.26,3.864-3.276,0-1.932-1.54-2.744-2.968-3.528-1.316-.7-2.632-1.316-2.632-2.632a1.607,1.607,0,0,1,1.82-1.568,2.647,2.647,0,0,1,1.848.728l1.456,1.624h.14V22.772a8.242,8.242,0,0,0-2.968-.532c-2.464,0-3.976,1.344-3.976,3.22,0,1.624,1.036,2.6,2.744,3.528,1.456.784,2.8,1.232,2.8,2.632,0,1.008-.784,1.6-1.932,1.6a3.2,3.2,0,0,1-2.24-1.008l-1.4-1.54h-.14v2.94A9.967,9.967,0,0,0,167.706,34.28Zm10.276-18.9a6.617,6.617,0,0,0-5.46,2.492l1.708,1.652c.9-1.9,1.96-3,3.612-3,1.96,0,3.052,1.624,3.052,3.64,0,2.464-1.764,4.06-4.452,4.844l.364,3.892h.98l.392-3.472c3.164-.98,5.012-2.772,5.012-5.4C183.19,17.368,181.314,15.38,177.982,15.38Zm-.56,15.764A1.649,1.649,0,0,0,175.8,32.8a1.638,1.638,0,0,0,3.276,0A1.655,1.655,0,0,0,177.422,31.144Z" transform="translate(753 293.813)" fill="#fff"/>
    <g id="Rectangle_14" data-name="Rectangle 14" transform="translate(968 359)" fill="#fff" stroke="rgba(119,101,180,0.69)" stroke-width="1">
      <path d="M0,0H398a0,0,0,0,1,0,0V590a20,20,0,0,1-20,20H20A20,20,0,0,1,0,590V0A0,0,0,0,1,0,0Z" stroke="none"/>
      <path d="M.5.5h397a0,0,0,0,1,0,0V590A19.5,19.5,0,0,1,378,609.5H20A19.5,19.5,0,0,1,.5,590V.5A0,0,0,0,1,.5.5Z" fill="none"/>
    </g>
    <path id="Path_112" data-name="Path 112" d="M9.922,0C-.646,0-9.213,8.963-9.213,20.019V142.632h398V20.019C388.787,8.963,380.222,0,369.655,0Z" transform="translate(977.213 216.368)" fill="#bbb1d9"/>
    <path id="Path_178" data-name="Path 178" d="M-94.22-18.2v.28l2.52,1.4L-95.508-2.772h-.056L-99.624-18.2h-2.352l.84,2.856-3.78,12.572h-.056l-3.584-13.748,2.52-1.4v-.28h-7.336v.28l2.38,1.4L-105.868.14h1.288l4.144-13.16L-96.572.14h1.288l5.068-16.66,2.38-1.4v-.28Zm8.96,3.528a1.543,1.543,0,0,0,1.512-1.512,1.548,1.548,0,0,0-1.512-1.54,1.554,1.554,0,0,0-1.54,1.54A1.548,1.548,0,0,0-85.26-14.672ZM-87.864,0h5.6V-1.26h-1.68l-.14-.14V-11.676l-.168-.084-3.668,1.708v.14l1.876.9V-1.4l-.14.14h-1.68Zm17.472-7.2c0-3.22-2.1-4.592-4.424-4.592-2.548,0-5.516,2.184-5.516,6.3,0,3.192,2.044,5.768,5.46,5.768a6.486,6.486,0,0,0,4.34-1.624l-.308-.588a6.269,6.269,0,0,1-2.884.7c-2.52,0-4.424-1.344-4.452-5.012h7.728C-70.42-6.58-70.392-6.888-70.392-7.2Zm-4.62-3.444c1.512,0,2.38,1.064,2.436,3.388H-78.12C-77.84-9.772-76.356-10.64-75.012-10.64ZM-58.52-1.4V-20.076l-.168-.084L-62.356-18.4v.14l1.876.9V-1.4l-.14.14H-62.3V0h5.6V-1.26h-1.68Zm7.056.14s-4.256-4.788-4.844-5.4l6.216-4.564v-.084h-5.572v.14l1.624,1.456L-58.3-6.244-53.116,0h3.332V-1.26Zm10.724-10.5c-.924,0-2.492,1.092-3.668,1.96l-.28-1.9-.168-.084-3.388,1.736v.14l1.876.9V-1.4l-.14.14h-1.68V0h6.02V-1.26h-2.1l-.14-.14V-9.268a13.3,13.3,0,0,1,2.94-.392,7.257,7.257,0,0,1,1.428.14v-2.044A1.294,1.294,0,0,0-40.74-11.76Zm4.34-2.912a1.543,1.543,0,0,0,1.512-1.512,1.548,1.548,0,0,0-1.512-1.54,1.554,1.554,0,0,0-1.54,1.54A1.548,1.548,0,0,0-36.4-14.672Zm6.916,0a1.543,1.543,0,0,0,1.512-1.512,1.548,1.548,0,0,0-1.512-1.54,1.554,1.554,0,0,0-1.54,1.54A1.548,1.548,0,0,0-29.484-14.672ZM-39,0h5.6V-1.26h-1.68l-.14-.14V-11.676l-.168-.084-3.668,1.708v.14l1.876.9V-1.4l-.14.14H-39Zm6.328,6.356c3-.9,4.368-1.82,4.368-7.112v-10.92l-.168-.084-3.668,1.708v.14l1.876.9V.308c0,3-.308,4.34-2.772,5.376ZM-13.524-11.9l-3.248,1.344a4.351,4.351,0,0,0-3.192-1.2A4.63,4.63,0,0,0-24.78-6.972a3.864,3.864,0,0,0,2.016,3.556c-.952.728-2.044,1.764-2.044,2.884a1.648,1.648,0,0,0,1.372,1.708c-.9.812-1.96,1.54-1.96,2.856,0,1.652,1.708,2.408,4.144,2.408,3.164,0,6.72-1.316,6.72-4.536,0-1.708-1.316-2.52-4.592-2.52h-.728c-2.52,0-3.024-.364-3.024-1.148a2.568,2.568,0,0,1,.588-1.428,4.731,4.731,0,0,0,1.848.336,4.6,4.6,0,0,0,4.872-4.536A4.6,4.6,0,0,0-16.184-9.8l2.66.252ZM-20.16-3.808c-1.568,0-2.52-1.372-2.52-3.78,0-2.212,1.036-3.248,2.492-3.248s2.548,1.428,2.548,3.92C-17.64-4.732-18.62-3.808-20.16-3.808ZM-20.972,1.4H-18.9c1.764,0,2.576.42,2.576,1.372,0,1.708-2.632,2.688-4.564,2.688-1.568,0-2.576-.616-2.576-2.1a4.022,4.022,0,0,1,.644-2.072A12.119,12.119,0,0,0-20.972,1.4ZM-8.036.28A6.027,6.027,0,0,0-4.816-.756l-.308-.588a5.439,5.439,0,0,1-1.848.308c-1.624,0-2.044-.952-2.044-3.78v-5.236h3.78v-1.26h-3.78V-14.98h-.14l-3.64,4.788v.14h1.68l.14.14v6.636C-10.976-.616-10.024.28-8.036.28ZM13.72-1.26l-.14-.14V-20.076l-.168-.084L9.744-18.4v.14l1.876.9v6.188a6.722,6.722,0,0,0-2.912-.588C4.732-11.76,2.884-8.6,2.884-5.4,2.884-2.52,4.508.28,7.28.28a8.813,8.813,0,0,0,4.34-1.624V0h3.92V-1.26ZM8.456-1.372C6.02-1.372,5.04-3.416,5.04-6.02c0-2.828.924-4.62,3.388-4.62A3.366,3.366,0,0,1,11.62-8.9v7.112A12.554,12.554,0,0,1,8.456-1.372ZM27.44-7.2c0-3.22-2.1-4.592-4.424-4.592-2.548,0-5.516,2.184-5.516,6.3C17.5-2.3,19.544.28,22.96.28A6.486,6.486,0,0,0,27.3-1.344l-.308-.588a6.269,6.269,0,0,1-2.884.7c-2.52,0-4.424-1.344-4.452-5.012h7.728C27.412-6.58,27.44-6.888,27.44-7.2ZM22.82-10.64c1.512,0,2.38,1.064,2.436,3.388H19.712C19.992-9.772,21.476-10.64,22.82-10.64ZM39.9.28c2.884,0,4.564-1.372,4.564-3.64,0-1.652-1.008-2.66-3.164-3.752-1.512-.756-2.688-1.316-2.688-2.352,0-.588.448-1.092,1.316-1.092a2.594,2.594,0,0,1,1.764.812l1.624,1.932h.364v-3.78a9.112,9.112,0,0,0-3.3-.588c-2.8,0-4.648,1.26-4.648,3.388,0,1.708.868,2.688,3,3.92,1.4.812,2.856,1.176,2.856,2.352,0,.644-.42,1.176-1.456,1.176A3.382,3.382,0,0,1,37.6-2.772l-1.54-1.9H35.7V-.644A11.012,11.012,0,0,0,39.9.28Zm11.676,0a6.479,6.479,0,0,0,4.4-1.624l-.532-.98A4.58,4.58,0,0,1,53-1.652c-1.932,0-3.752-1.568-3.752-5.068,0-2.492.756-3.836,2.184-3.836a2.288,2.288,0,0,1,1.54.644L55.1-7.056h.364v-4.508a9.559,9.559,0,0,0-3.276-.616,6.158,6.158,0,0,0-6.356,6.524C45.836-2.072,48.076.28,51.576.28ZM69.5-1.792l-.14-.14V-8.9c0-2.3-1.4-3.276-3.388-3.276a7.507,7.507,0,0,0-4.228,1.624v-9.408l-.392-.2-4.62,2.24v.336l1.792,1.12V-1.932l-.14.14H57.12V0h6.02V-1.792H61.88l-.14-.14v-7.5A8.648,8.648,0,0,1,63.9-9.772c1.6,0,2.24.616,2.24,2.856v4.984l-.14.14h-1.26V0h6.02V-1.792Zm14.392,0-.112-.14V-12.18l-.392-.2-4.62,2.24V-9.8l1.792,1.12v6.216a6.994,6.994,0,0,1-1.932.28c-1.54,0-2.184-.616-2.184-2.6v-7.2l-.392-.2-4.62,2.24V-9.6l1.792,1.12v5.46c0,2.128,1.12,3.3,3.22,3.3,1.624,0,2.744-.812,4.116-1.96V0h4.592V-1.792ZM86.436,0h6.02V-1.792H91.2l-.14-.14V-19.964l-.392-.2-4.62,2.24v.336l1.792,1.12V-1.932l-.14.14h-1.26Zm19.152-1.792-.14-.14V-19.964l-.364-.2-4.648,2.24v.336l1.792,1.12v4.7a5.022,5.022,0,0,0-2.1-.42C96.6-12.18,94.08-9.3,94.08-5.46,94.08-2.3,95.732.28,98.42.28c1.428,0,2.464-.728,3.808-1.736V0h4.62V-1.792Zm-5.124-.336c-1.876,0-2.968-1.428-2.968-4.228,0-2.632.9-4.144,2.548-4.144a2.439,2.439,0,0,1,2.184,1.456V-2.38A7.218,7.218,0,0,1,100.464-2.128ZM-133.014,34.28h.952l4.564-10.192,1.4-1.316v-.084h-4.7v.14l1.988,1.26-3.22,7.448h-.112l-3.136-7.448,1.82-1.316v-.084h-5.768v.14l1.568,1.26Zm16.212-1.54-.14-.14V25.908a3.421,3.421,0,0,0-3.752-3.668,5.937,5.937,0,0,0-4.368,1.9l.364.672a5.631,5.631,0,0,1,3.248-1.064c2.044,0,2.548,1.064,2.548,3.276V27.9c-3.78.168-6.5,1.12-6.5,3.7a2.618,2.618,0,0,0,2.8,2.688,6.612,6.612,0,0,0,3.7-1.428V34h3.78V32.74Zm-4.788.084c-1.064,0-1.82-.5-1.82-1.6,0-1.876,2.128-2.268,4.508-2.436v3.556A8.609,8.609,0,0,1-121.59,32.824Zm19.8-.084-.14-.14V25.516c0-2.1-1.12-3.276-3.64-3.276a8.217,8.217,0,0,0-4.06,1.652l-.224-1.6-.168-.084-3.388,1.736v.14l1.876.9V32.6l-.14.14h-1.68V34h5.74V32.74h-1.82l-.14-.14V24.424a14.993,14.993,0,0,1,3.108-.392c2.072,0,2.576.84,2.576,3.248V32.6l-.14.14h-1.82V34h5.74V32.74Zm20.608,0-.14-.14V13.924l-.168-.084L-85.162,15.6v.14l1.876.9v6.188A6.722,6.722,0,0,0-86.2,22.24c-3.976,0-5.824,3.164-5.824,6.356,0,2.884,1.624,5.684,4.4,5.684a8.813,8.813,0,0,0,4.34-1.624V34h3.92V32.74Zm-5.264-.112c-2.436,0-3.416-2.044-3.416-4.648,0-2.828.924-4.62,3.388-4.62A3.366,3.366,0,0,1-83.286,25.1v7.112A12.554,12.554,0,0,1-86.45,32.628ZM-67.466,26.8c0-3.22-2.1-4.592-4.424-4.592-2.548,0-5.516,2.184-5.516,6.3,0,3.192,2.044,5.768,5.46,5.768a6.486,6.486,0,0,0,4.34-1.624l-.308-.588a6.269,6.269,0,0,1-2.884.7c-2.52,0-4.424-1.344-4.452-5.012h7.728C-67.494,27.42-67.466,27.112-67.466,26.8Zm-4.62-3.444c1.512,0,2.38,1.064,2.436,3.388h-5.544C-74.914,24.228-73.43,23.36-72.086,23.36ZM-65.7,34h9.66V30.388h-.14l-1.764,2.352h-4.872l6.58-9.6v-.448h-9.016V26.3h.14l1.736-2.352h4.172v.14l-6.5,9.632Zm21.448-7.2c0-3.22-2.1-4.592-4.424-4.592-2.548,0-5.516,2.184-5.516,6.3,0,3.192,2.044,5.768,5.46,5.768a6.486,6.486,0,0,0,4.34-1.624l-.308-.588a6.269,6.269,0,0,1-2.884.7c-2.52,0-4.424-1.344-4.452-5.012h7.728C-44.282,27.42-44.254,27.112-44.254,26.8Zm-4.62-3.444c1.512,0,2.38,1.064,2.436,3.388h-5.544C-51.7,24.228-50.218,23.36-48.874,23.36Zm24.3-1.26-3.248,1.344a4.351,4.351,0,0,0-3.192-1.2,4.63,4.63,0,0,0-4.816,4.788,3.864,3.864,0,0,0,2.016,3.556c-.952.728-2.044,1.764-2.044,2.884a1.648,1.648,0,0,0,1.372,1.708c-.9.812-1.96,1.54-1.96,2.856,0,1.652,1.708,2.408,4.144,2.408,3.164,0,6.72-1.316,6.72-4.536,0-1.708-1.316-2.52-4.592-2.52H-30.9c-2.52,0-3.024-.364-3.024-1.148a2.568,2.568,0,0,1,.588-1.428,4.731,4.731,0,0,0,1.848.336,4.6,4.6,0,0,0,4.872-4.536A4.6,4.6,0,0,0-27.23,24.2l2.66.252Zm-6.636,8.092c-1.568,0-2.52-1.372-2.52-3.78,0-2.212,1.036-3.248,2.492-3.248s2.548,1.428,2.548,3.92C-28.686,29.268-29.666,30.192-31.206,30.192Zm-.812,5.208h2.072c1.764,0,2.576.42,2.576,1.372,0,1.708-2.632,2.688-4.564,2.688-1.568,0-2.576-.616-2.576-2.1a4.022,4.022,0,0,1,.644-2.072A12.118,12.118,0,0,0-32.018,35.4Zm18.648-8.6c0-3.22-2.1-4.592-4.424-4.592-2.548,0-5.516,2.184-5.516,6.3,0,3.192,2.044,5.768,5.46,5.768a6.486,6.486,0,0,0,4.34-1.624l-.308-.588a6.269,6.269,0,0,1-2.884.7c-2.52,0-4.424-1.344-4.452-5.012h7.728C-13.4,27.42-13.37,27.112-13.37,26.8Zm-4.62-3.444c1.512,0,2.38,1.064,2.436,3.388H-21.1C-20.818,24.228-19.334,23.36-17.99,23.36Zm14.2-1.12A8.708,8.708,0,0,0-8.05,23.808V13.924l-.168-.084L-11.886,15.6v.14l1.876.9V33.356a11.27,11.27,0,0,0,4.564.924c4.2,0,6.048-3.108,6.048-6.356C.6,25.04-1.022,22.24-3.794,22.24ZM-5.082,33.16A3.871,3.871,0,0,1-8.05,32.04V24.284a12.3,12.3,0,0,1,3.08-.392c2.436,0,3.416,2.044,3.416,4.648C-1.554,31.508-2.618,33.16-5.082,33.16ZM12.782,26.8c0-3.22-2.1-4.592-4.424-4.592-2.548,0-5.516,2.184-5.516,6.3,0,3.192,2.044,5.768,5.46,5.768a6.486,6.486,0,0,0,4.34-1.624l-.308-.588a6.269,6.269,0,0,1-2.884.7c-2.52,0-4.424-1.344-4.452-5.012h7.728C12.754,27.42,12.782,27.112,12.782,26.8ZM8.162,23.36c1.512,0,2.38,1.064,2.436,3.388H5.054C5.334,24.228,6.818,23.36,8.162,23.36ZM25.8,32.74l-.14-.14V22.324l-.168-.084L21.826,24v.14l1.876.9V32.1a13.717,13.717,0,0,1-2.968.392c-1.96,0-2.436-.84-2.436-3.248V22.352l-.168-.084-3.668,1.764v.14l1.876.9V31c0,2.1,1.064,3.276,3.5,3.276,1.064,0,2.268-.616,3.864-1.624V34h3.78V32.74ZM36.75,22.24c-.924,0-2.492,1.092-3.668,1.96l-.28-1.9-.168-.084-3.388,1.736v.14l1.876.9V32.6l-.14.14H29.3V34h6.02V32.74h-2.1l-.14-.14V24.732a13.3,13.3,0,0,1,2.94-.392,7.257,7.257,0,0,1,1.428.14V22.436A1.294,1.294,0,0,0,36.75,22.24Zm6.272,12.04a6.027,6.027,0,0,0,3.22-1.036l-.308-.588a5.439,5.439,0,0,1-1.848.308c-1.624,0-2.044-.952-2.044-3.78V23.948h3.78v-1.26h-3.78V19.02H41.9l-3.64,4.788v.14h1.68l.14.14v6.636C40.082,33.384,41.034,34.28,43.022,34.28ZM57.582,26.8c0-3.22-2.1-4.592-4.424-4.592-2.548,0-5.516,2.184-5.516,6.3,0,3.192,2.044,5.768,5.46,5.768a6.486,6.486,0,0,0,4.34-1.624l-.308-.588a6.269,6.269,0,0,1-2.884.7c-2.52,0-4.424-1.344-4.452-5.012h7.728C57.554,27.42,57.582,27.112,57.582,26.8Zm-4.62-3.444c1.512,0,2.38,1.064,2.436,3.388H49.854C50.134,24.228,51.618,23.36,52.962,23.36Zm18.116,9.38-.14-.14V25.516c0-2.1-1.12-3.276-3.64-3.276a8.217,8.217,0,0,0-4.06,1.652l-.224-1.6-.168-.084-3.388,1.736v.14l1.876.9V32.6l-.14.14h-1.68V34h5.74V32.74h-1.82l-.14-.14V24.424a14.993,14.993,0,0,1,3.108-.392c2.072,0,2.576.84,2.576,3.248V32.6l-.14.14h-1.82V34h5.74V32.74Zm6.048-13.412a1.526,1.526,0,1,0-1.54-1.512A1.543,1.543,0,0,0,77.126,19.328ZM74.522,34h5.6V32.74h-1.68l-.14-.14V22.324l-.168-.084-3.668,1.708v.14l1.876.9V32.6l-.14.14h-1.68Zm11.228.28c2.128,0,3.864-1.26,3.864-3.276,0-1.932-1.54-2.744-2.968-3.528-1.316-.7-2.632-1.316-2.632-2.632a1.607,1.607,0,0,1,1.82-1.568A2.647,2.647,0,0,1,87.682,24l1.456,1.624h.14V22.772a8.242,8.242,0,0,0-2.968-.532c-2.464,0-3.976,1.344-3.976,3.22,0,1.624,1.036,2.6,2.744,3.528,1.456.784,2.8,1.232,2.8,2.632,0,1.008-.784,1.6-1.932,1.6a3.2,3.2,0,0,1-2.24-1.008l-1.4-1.54h-.14v2.94A9.967,9.967,0,0,0,85.75,34.28Zm9.688,0c2.128,0,3.864-1.26,3.864-3.276,0-1.932-1.54-2.744-2.968-3.528-1.316-.7-2.632-1.316-2.632-2.632a1.607,1.607,0,0,1,1.82-1.568A2.647,2.647,0,0,1,97.37,24l1.456,1.624h.14V22.772A8.242,8.242,0,0,0,96,22.24c-2.464,0-3.976,1.344-3.976,3.22,0,1.624,1.036,2.6,2.744,3.528,1.456.784,2.8,1.232,2.8,2.632,0,1.008-.784,1.6-1.932,1.6a3.2,3.2,0,0,1-2.24-1.008l-1.4-1.54h-.14v2.94A9.967,9.967,0,0,0,95.438,34.28ZM111.51,26.8c0-3.22-2.1-4.592-4.424-4.592-2.548,0-5.516,2.184-5.516,6.3,0,3.192,2.044,5.768,5.46,5.768a6.486,6.486,0,0,0,4.34-1.624l-.308-.588a6.269,6.269,0,0,1-2.884.7c-2.52,0-4.424-1.344-4.452-5.012h7.728C111.482,27.42,111.51,27.112,111.51,26.8Zm-4.62-3.444c1.512,0,2.38,1.064,2.436,3.388h-5.544C104.062,24.228,105.546,23.36,106.89,23.36Zm18.116,9.38-.14-.14V25.516c0-2.1-1.12-3.276-3.64-3.276a8.217,8.217,0,0,0-4.06,1.652l-.224-1.6-.168-.084-3.388,1.736v.14l1.876.9V32.6l-.14.14h-1.68V34h5.74V32.74h-1.82l-.14-.14V24.424a14.993,14.993,0,0,1,3.108-.392c2.072,0,2.576.84,2.576,3.248V32.6l-.14.14h-1.82V34h5.74V32.74Zm7.476-17.36a6.617,6.617,0,0,0-5.46,2.492l1.708,1.652c.9-1.9,1.96-3,3.612-3,1.96,0,3.052,1.624,3.052,3.64,0,2.464-1.764,4.06-4.452,4.844l.364,3.892h.98l.392-3.472c3.164-.98,5.012-2.772,5.012-5.4C137.69,17.368,135.814,15.38,132.482,15.38Zm-.56,15.764A1.649,1.649,0,0,0,130.3,32.8a1.638,1.638,0,0,0,3.276,0A1.655,1.655,0,0,0,131.922,31.144Z" transform="translate(1167 293.813)" fill="#fff"/>
    <g id="Rectangle_16" data-name="Rectangle 16" transform="translate(1382 359)" fill="#fff" stroke="rgba(119,101,180,0.69)" stroke-width="1">
      <path d="M0,0H398a0,0,0,0,1,0,0V590a20,20,0,0,1-20,20H20A20,20,0,0,1,0,590V0A0,0,0,0,1,0,0Z" stroke="none"/>
      <path d="M.5.5h397a0,0,0,0,1,0,0V590A19.5,19.5,0,0,1,378,609.5H20A19.5,19.5,0,0,1,.5,590V.5A0,0,0,0,1,.5.5Z" fill="none"/>
    </g>
    <path id="Path_113" data-name="Path 113" d="M9.922,0C-.646,0-9.213,8.963-9.213,20.019V142.632h398V20.019C388.787,8.963,380.222,0,369.655,0Z" transform="translate(1391.213 216.368)" fill="#e4e0f0"/>
    <path id="Path_179" data-name="Path 179" d="M-61.908-18.2v.28l2.52,1.4L-63.2-2.772h-.056L-67.312-18.2h-2.352l.84,2.856L-72.6-2.772h-.056L-76.244-16.52l2.52-1.4v-.28H-81.06v.28l2.38,1.4L-73.556.14h1.288l4.144-13.16L-64.26.14h1.288L-57.9-16.52l2.38-1.4v-.28Zm15.344,11c0-3.22-2.1-4.592-4.424-4.592-2.548,0-5.516,2.184-5.516,6.3C-56.5-2.3-54.46.28-51.044.28A6.486,6.486,0,0,0-46.7-1.344l-.308-.588a6.269,6.269,0,0,1-2.884.7c-2.52,0-4.424-1.344-4.452-5.012h7.728C-46.592-6.58-46.564-6.888-46.564-7.2Zm-4.62-3.444c1.512,0,2.38,1.064,2.436,3.388h-5.544C-54.012-9.772-52.528-10.64-51.184-10.64ZM-44.632,0h5.74V-1.26h-1.82l-.14-.14V-20.076l-.168-.084L-44.688-18.4v.14l1.876.9V-1.4l-.14.14h-1.68Zm11.284-1.4V-20.076l-.168-.084L-37.184-18.4v.14l1.876.9V-1.4l-.14.14h-1.68V0h5.6V-1.26h-1.68Zm7.056.14s-4.256-4.788-4.844-5.4l6.216-4.564v-.084h-5.572v.14l1.624,1.456-4.256,3.472L-27.944,0h3.332V-1.26ZM-13.608-7.2c0-3.22-2.1-4.592-4.424-4.592-2.548,0-5.516,2.184-5.516,6.3C-23.548-2.3-21.5.28-18.088.28a6.486,6.486,0,0,0,4.34-1.624l-.308-.588a6.269,6.269,0,0,1-2.884.7c-2.52,0-4.424-1.344-4.452-5.012h7.728C-13.636-6.58-13.608-6.888-13.608-7.2Zm-4.62-3.444c1.512,0,2.38,1.064,2.436,3.388h-5.544C-21.056-9.772-19.572-10.64-18.228-10.64ZM-.112-8.9a12.739,12.739,0,0,1,3.5.476V-12.04a1.987,1.987,0,0,0-.812-.14c-1.064,0-2.324.812-3.7,2.072l-.364-2.016-.364-.2-4.2,2.156V-9.8l1.792,1.092v6.776l-.14.14h-1.26V0H.784V-1.792H-.9l-.14-.14V-8.848C-.728-8.876-.42-8.9-.112-8.9ZM10.276.28c3.556,0,6.1-2.576,6.1-6.384s-2.492-6.076-5.768-6.076c-3.64,0-6.1,2.828-6.1,6.524A5.542,5.542,0,0,0,10.276.28Zm.56-1.652c-1.68,0-2.912-2.24-2.912-5.432,0-2.3.812-3.64,2.128-3.64,1.68,0,2.912,2.24,2.912,5.432C12.964-2.716,12.152-1.372,10.836-1.372Zm18.872-.42-.14-.14V-19.964l-.364-.2-4.648,2.24v.336l1.792,1.12v4.7a5.022,5.022,0,0,0-2.1-.42C20.72-12.18,18.2-9.3,18.2-5.46,18.2-2.3,19.852.28,22.54.28,23.968.28,25-.448,26.348-1.456V0h4.62V-1.792Zm-5.124-.336c-1.876,0-2.968-1.428-2.968-4.228,0-2.632.9-4.144,2.548-4.144a2.439,2.439,0,0,1,2.184,1.456V-2.38A7.218,7.218,0,0,1,24.584-2.128Zm19.656.336-.14-.14V-19.964l-.364-.2-4.648,2.24v.336l1.792,1.12v4.7a5.022,5.022,0,0,0-2.1-.42c-3.528,0-6.048,2.884-6.048,6.72,0,3.164,1.652,5.74,4.34,5.74,1.428,0,2.464-.728,3.808-1.736V0H45.5V-1.792Zm-5.124-.336c-1.876,0-2.968-1.428-2.968-4.228,0-2.632.9-4.144,2.548-4.144A2.439,2.439,0,0,1,40.88-9.044V-2.38A7.218,7.218,0,0,1,39.116-2.128Zm15.232.5c-2.3,0-3.584-1.652-3.78-4.34h6.944a7.587,7.587,0,0,0,.14-1.512,4.387,4.387,0,0,0-4.62-4.7c-3.444,0-5.908,2.828-5.908,6.44A5.719,5.719,0,0,0,53.032.28,7.2,7.2,0,0,0,57.54-1.344l-.532-.98A5.989,5.989,0,0,1,54.348-1.624ZM52.64-10.556c1.148,0,1.848.784,1.9,3.136H50.568C50.68-9.464,51.408-10.556,52.64-10.556ZM59.08,0H65.1V-1.792H63.84l-.14-.14V-19.964l-.392-.2-4.62,2.24v.336l1.792,1.12V-1.932l-.14.14H59.08ZM70.924.28c2.884,0,4.564-1.372,4.564-3.64,0-1.652-1.008-2.66-3.164-3.752-1.512-.756-2.688-1.316-2.688-2.352,0-.588.448-1.092,1.316-1.092a2.594,2.594,0,0,1,1.764.812L74.34-7.812H74.7v-3.78a9.112,9.112,0,0,0-3.3-.588c-2.8,0-4.648,1.26-4.648,3.388,0,1.708.868,2.688,3,3.92C71.148-4.06,72.6-3.7,72.6-2.52c0,.644-.42,1.176-1.456,1.176a3.382,3.382,0,0,1-2.52-1.428l-1.54-1.9h-.364V-.644A11.012,11.012,0,0,0,70.924.28ZM-101.64,22.24V22.6l1.708,1.54L-102.116,30h-.14l-2.576-8.064-3.164.924,1.344,3.444-2.156,3.892h-.14l-2.436-6.02,1.68-1.568V22.24h-6.888v.392l1.708,1.54,4.48,10.108h1.148l3.36-6.02,2.352,6.02h1.232l4.34-10.108L-96.18,22.6V22.24ZM-89.1,32.376c-2.3,0-3.584-1.652-3.78-4.34h6.944a7.587,7.587,0,0,0,.14-1.512,4.387,4.387,0,0,0-4.62-4.7c-3.444,0-5.908,2.828-5.908,6.44a5.719,5.719,0,0,0,5.908,6.02A7.2,7.2,0,0,0-85.9,32.656l-.532-.98A5.989,5.989,0,0,1-89.1,32.376ZM-90.8,23.444c1.148,0,1.848.784,1.9,3.136h-3.976C-92.764,24.536-92.036,23.444-90.8,23.444ZM-78.736,25.1a12.739,12.739,0,0,1,3.5.476V21.96a1.987,1.987,0,0,0-.812-.14c-1.064,0-2.324.812-3.7,2.072l-.364-2.016-.364-.2-4.2,2.156V24.2l1.792,1.092v6.776l-.14.14h-1.26V34h6.44V32.208h-1.68l-.14-.14V25.152C-79.352,25.124-79.044,25.1-78.736,25.1Zm16.268,7.112-.14-.14V14.036l-.364-.2-4.648,2.24v.336l1.792,1.12v4.7a5.022,5.022,0,0,0-2.1-.42c-3.528,0-6.048,2.884-6.048,6.72,0,3.164,1.652,5.74,4.34,5.74,1.428,0,2.464-.728,3.808-1.736V34h4.62V32.208Zm-5.124-.336c-1.876,0-2.968-1.428-2.968-4.228,0-2.632.9-4.144,2.548-4.144a2.439,2.439,0,0,1,2.184,1.456V31.62A7.218,7.218,0,0,1-67.592,31.872Zm15.232.5c-2.3,0-3.584-1.652-3.78-4.34H-49.2a7.587,7.587,0,0,0,.14-1.512,4.387,4.387,0,0,0-4.62-4.7c-3.444,0-5.908,2.828-5.908,6.44a5.719,5.719,0,0,0,5.908,6.02,7.2,7.2,0,0,0,4.508-1.624l-.532-.98A5.989,5.989,0,0,1-52.36,32.376Zm-1.708-8.932c1.148,0,1.848.784,1.9,3.136H-56.14C-56.028,24.536-55.3,23.444-54.068,23.444Zm18.9,8.792-.14-.168V25.1c0-2.3-1.4-3.276-3.388-3.276a7.59,7.59,0,0,0-4.34,1.68l-.336-1.652-.364-.2-4.2,2.156v.364l1.792,1.092v6.8l-.14.14h-1.26V34h6.02V32.208h-1.26l-.14-.14v-7.5a8.648,8.648,0,0,1,2.156-.336c1.6,0,2.24.616,2.24,2.856v4.984l-.14.14h-1.26V34h6.02V32.236Zm15.176.14c-2.3,0-3.584-1.652-3.78-4.34h6.944a7.587,7.587,0,0,0,.14-1.512,4.387,4.387,0,0,0-4.62-4.7c-3.444,0-5.908,2.828-5.908,6.44a5.719,5.719,0,0,0,5.908,6.02A7.2,7.2,0,0,0-16.8,32.656l-.532-.98A5.989,5.989,0,0,1-19.992,32.376ZM-21.7,23.444c1.148,0,1.848.784,1.9,3.136h-3.976C-23.66,24.536-22.932,23.444-21.7,23.444ZM-9.632,25.1a12.739,12.739,0,0,1,3.5.476V21.96a1.987,1.987,0,0,0-.812-.14c-1.064,0-2.324.812-3.7,2.072L-11,21.876l-.364-.2-4.2,2.156V24.2l1.792,1.092v6.776l-.14.14h-1.26V34h6.44V32.208h-1.68l-.14-.14V25.152C-10.248,25.124-9.94,25.1-9.632,25.1ZM5.656,34.28H6.944l4.844-10.108L13.5,22.6V22.24H8.26v.392l1.568,1.54-2.772,6.02H6.972L4.4,24.172,5.964,22.6V22.24H-.812v.392L.9,24.172Zm14.924-1.9c-2.3,0-3.584-1.652-3.78-4.34h6.944a7.587,7.587,0,0,0,.14-1.512,4.387,4.387,0,0,0-4.62-4.7c-3.444,0-5.908,2.828-5.908,6.44a5.719,5.719,0,0,0,5.908,6.02,7.2,7.2,0,0,0,4.508-1.624l-.532-.98A5.989,5.989,0,0,1,20.58,32.376Zm-1.708-8.932c1.148,0,1.848.784,1.9,3.136H16.8C16.912,24.536,17.64,23.444,18.872,23.444ZM30.94,25.1a12.739,12.739,0,0,1,3.5.476V21.96a1.987,1.987,0,0,0-.812-.14c-1.064,0-2.324.812-3.7,2.072l-.364-2.016-.364-.2L25,23.836V24.2L26.8,25.292v6.776l-.14.14H25.4V34h6.44V32.208h-1.68l-.14-.14V25.152C30.324,25.124,30.632,25.1,30.94,25.1Zm9.1,9.184c2.884,0,4.564-1.372,4.564-3.64,0-1.652-1.008-2.66-3.164-3.752-1.512-.756-2.688-1.316-2.688-2.352,0-.588.448-1.092,1.316-1.092a2.594,2.594,0,0,1,1.764.812l1.624,1.932h.364v-3.78a9.111,9.111,0,0,0-3.3-.588c-2.8,0-4.648,1.26-4.648,3.388,0,1.708.868,2.688,3,3.92,1.4.812,2.856,1.176,2.856,2.352,0,.644-.42,1.176-1.456,1.176a3.382,3.382,0,0,1-2.52-1.428l-1.54-1.9H35.84v4.032A11.012,11.012,0,0,0,40.04,34.28ZM54.348,21.82A6.567,6.567,0,0,0,50.4,23.612l-.364-1.736-.364-.2-4.2,2.156V24.2l1.792,1.092V38.508l-.14.14h-1.26V40.44H52.3V38.648h-1.68l-.14-.14V33.86a5.022,5.022,0,0,0,2.1.42c3.528,0,6.048-2.884,6.048-6.58C58.632,24.228,56.812,21.82,54.348,21.82ZM52.7,32.6a2.5,2.5,0,0,1-2.212-1.344V24.48a8.233,8.233,0,0,1,1.988-.252c1.652,0,2.744,1.428,2.744,4.228C55.216,31,54.376,32.6,52.7,32.6Zm13.272-7.5a12.739,12.739,0,0,1,3.5.476V21.96a1.987,1.987,0,0,0-.812-.14c-1.064,0-2.324.812-3.7,2.072L64.6,21.876l-.364-.2-4.2,2.156V24.2l1.792,1.092v6.776l-.14.14h-1.26V34h6.44V32.208h-1.68l-.14-.14V25.152C65.352,25.124,65.66,25.1,65.968,25.1Zm11.844,7.28c-2.3,0-3.584-1.652-3.78-4.34h6.944a7.586,7.586,0,0,0,.14-1.512,4.387,4.387,0,0,0-4.62-4.7c-3.444,0-5.908,2.828-5.908,6.44A5.719,5.719,0,0,0,76.5,34.28,7.2,7.2,0,0,0,81,32.656l-.532-.98A5.989,5.989,0,0,1,77.812,32.376ZM76.1,23.444c1.148,0,1.848.784,1.9,3.136H74.032C74.144,24.536,74.872,23.444,76.1,23.444ZM85.6,19.608a1.946,1.946,0,1,0-1.96-1.96A1.942,1.942,0,0,0,85.6,19.608ZM82.684,34H88.7V32.208h-1.26l-.14-.14V21.792l-.364-.168-4.648,2.212v.336l1.792,1.12v6.776l-.14.14h-1.26Zm18.928-1.792-.14-.14V14.036l-.364-.2L96.46,16.08v.336l1.792,1.12v4.7a5.022,5.022,0,0,0-2.1-.42c-3.528,0-6.048,2.884-6.048,6.72,0,3.164,1.652,5.74,4.34,5.74,1.428,0,2.464-.728,3.808-1.736V34h4.62V32.208Zm-5.124-.336c-1.876,0-2.968-1.428-2.968-4.228,0-2.632.9-4.144,2.548-4.144a2.439,2.439,0,0,1,2.184,1.456V31.62A7.218,7.218,0,0,1,96.488,31.872ZM110.18,15.38a6.6,6.6,0,0,0-5.936,3.08l2.38,1.708c.532-2.156,1.652-3.108,3.052-3.108s2.3,1.2,2.3,2.828c0,2.268-1.232,3.808-3.92,5.32l.784,3.7h.868l.7-3.556c3.528-1.344,5.208-3.3,5.208-5.656C115.612,17.088,113.484,15.38,110.18,15.38Zm-.952,14.84a2.1,2.1,0,1,0,2.1,2.1A2.115,2.115,0,0,0,109.228,30.22Z" transform="translate(1581 293.813)"/>
    <g id="Group_107" data-name="Group 107">
      <rect id="Rectangle_17" data-name="Rectangle 17" width="1554" height="306" transform="translate(183 495)" fill="#fff"/>
      <path id="Path_180" data-name="Path 180" d="M-607.2-41.08l.13-1.17h-31.265v13.845h.975l5.2-9.425h14.43L-640.153-1.17V0h32.63V-13.78h-.975l-5.07,9.425h-16.25ZM-589.777.65c8.255,0,14.17-5.98,14.17-14.82s-5.785-14.1-13.39-14.1c-8.45,0-14.17,6.565-14.17,15.145C-603.167-4.81-597.708.65-589.777.65Zm1.3-3.835c-3.9,0-6.76-5.2-6.76-12.61,0-5.33,1.885-8.45,4.94-8.45,3.9,0,6.76,5.2,6.76,12.61C-583.537-6.305-585.422-3.185-588.477-3.185Zm33.54-.585c-5.33,0-8.32-3.835-8.775-10.075h16.12a17.611,17.611,0,0,0,.325-3.51c0-6.435-4.1-10.92-10.725-10.92-7.995,0-13.715,6.565-13.715,14.95,0,8.515,5.98,13.975,13.715,13.975a16.725,16.725,0,0,0,10.465-3.77l-1.235-2.275A13.9,13.9,0,0,1-554.938-3.77ZM-558.9-24.505c2.665,0,4.29,1.82,4.42,7.28h-9.23C-563.453-21.97-561.763-24.505-558.9-24.505Zm25.675,20.02v-41.86l-.91-.455-10.725,5.2v.78l4.16,2.6V-4.485l-.325.325h-2.925V0h13.975V-4.16H-532.9Zm16.77.325-8.775-12.35L-513.728-27.1v-.52h-14.365v.585l3.705,3.64-8.32,8.84L-522.7,0h10.27V-4.16Zm38.09-24.115c-3.315,0-6.045,1.755-9.165,4.16l-.845-4.03-.845-.455-9.75,5v.845l4.16,2.535v30.68l-.325.325h-2.925v4.16h14.95V10.79h-3.9l-.325-.325V-.325a11.658,11.658,0,0,0,4.875.975c8.19,0,14.04-6.7,14.04-15.275C-468.423-22.685-472.647-28.275-478.367-28.275ZM-482.2-3.25a5.791,5.791,0,0,1-5.135-3.12V-22.1a19.111,19.111,0,0,1,4.615-.585c3.835,0,6.37,3.315,6.37,9.815C-476.353-6.955-478.3-3.25-482.2-3.25Zm39.39-.91-.325-.325V-17.16c0-7.215-2.73-11.115-9.555-11.115a15.244,15.244,0,0,0-11.245,4.81L-462.7-21a12.792,12.792,0,0,1,6.825-2.405c3.77,0,5.265,2.275,5.265,6.7v1.17c-11.245,1.17-14.495,4.94-14.495,9.815,0,4.81,3.315,6.435,6.435,6.435a14.715,14.715,0,0,0,8.06-2.99V0h10.725V-4.16Zm-11.31.2c-2.21,0-3.77-1.105-3.7-3.575.065-2.925,2.145-4.355,7.215-4.81v7.8A14.142,14.142,0,0,1-454.123-3.965Zm30.225-16.7a29.572,29.572,0,0,1,8.125,1.1V-27.95a4.613,4.613,0,0,0-1.885-.325c-2.47,0-5.395,1.885-8.58,4.81l-.845-4.68-.845-.455-9.75,5v.845l4.16,2.535v15.73l-.325.325h-2.925V0h14.95V-4.16h-3.9l-.325-.325V-20.54C-425.328-20.6-424.613-20.67-423.9-20.67Zm32.76,16.51-.325-.325V-17.16c0-7.215-2.73-11.115-9.555-11.115a15.244,15.244,0,0,0-11.245,4.81l1.235,2.47A12.792,12.792,0,0,1-404.2-23.4c3.77,0,5.265,2.275,5.265,6.7v1.17c-11.245,1.17-14.495,4.94-14.495,9.815,0,4.81,3.315,6.435,6.435,6.435a14.715,14.715,0,0,0,8.06-2.99V0h10.725V-4.16Zm-11.31.2c-2.21,0-3.77-1.105-3.7-3.575.065-2.925,2.145-4.355,7.215-4.81v7.8A14.142,14.142,0,0,1-402.448-3.965ZM-385.288,0h13.975V-4.16h-2.925l-.325-.325v-41.86l-.91-.455L-386.2-41.6v.78l4.16,2.6V-4.485l-.325.325h-2.925Zm16.835,0h13.975V-4.16H-357.4l-.325-.325v-41.86l-.91-.455-10.725,5.2v.78l4.16,2.6V-4.485l-.325.325h-2.925Zm34.19-3.77c-5.33,0-8.32-3.835-8.775-10.075h16.12a17.611,17.611,0,0,0,.325-3.51c0-6.435-4.095-10.92-10.725-10.92-7.995,0-13.715,6.565-13.715,14.95,0,8.515,5.98,13.975,13.715,13.975a16.725,16.725,0,0,0,10.465-3.77l-1.235-2.275A13.9,13.9,0,0,1-334.263-3.77Zm-3.965-20.735c2.665,0,4.29,1.82,4.42,7.28h-9.23C-342.778-21.97-341.088-24.505-338.228-24.505ZM-323.278,0H-309.3V-4.16h-2.925l-.325-.325v-41.86l-.91-.455-10.725,5.2v.78l4.16,2.6V-4.485l-.325.325h-2.925Zm16.835,0h13.975V-4.16h-2.925l-.325-.325v-41.86l-.91-.455-10.725,5.2v.78l4.16,2.6V-4.485l-.325.325h-2.925Zm34.19-3.77c-5.33,0-8.32-3.835-8.775-10.075h16.12a17.611,17.611,0,0,0,.325-3.51c0-6.435-4.095-10.92-10.725-10.92-7.995,0-13.715,6.565-13.715,14.95,0,8.515,5.98,13.975,13.715,13.975a16.725,16.725,0,0,0,10.465-3.77l-1.235-2.275A13.9,13.9,0,0,1-272.253-3.77Zm-3.965-20.735c2.665,0,4.29,1.82,4.42,7.28h-9.23C-280.768-21.97-279.078-24.505-276.217-24.505ZM-232.343-4.1l-.325-.39V-20.67c0-5.33-3.25-7.6-7.865-7.6-3.51,0-6.24,1.365-10.075,3.9l-.78-3.835-.845-.455-9.75,5.005v.845l4.16,2.535v15.8l-.325.325h-2.925V0H-247.1V-4.16h-2.925l-.325-.325v-17.42a20.075,20.075,0,0,1,5.005-.78c3.705,0,5.2,1.43,5.2,6.63v11.57l-.325.325h-2.925V0h13.975V-4.1ZM-204.2.65a15.34,15.34,0,0,0,9.75-3.77l-1.235-2.275a11.355,11.355,0,0,1-4.81,1.43c-2.6,0-3.575-1.82-3.575-7.02V-23.14h8.645V-27.3h-8.645v-7.735h-.845l-10.6,11.05v.845h3.64l.325.325v14.95C-211.543-1.625-208.878.65-204.2.65Zm39.845-4.81-.26-.325v-23.79l-.91-.455-10.725,5.2v.78l4.16,2.6V-5.72a16.236,16.236,0,0,1-4.485.65c-3.575,0-5.07-1.43-5.07-6.045v-16.7l-.91-.455-10.725,5.2v.78l4.16,2.6V-7.02c0,4.94,2.6,7.67,7.475,7.67,3.77,0,6.37-1.885,9.555-4.55V0h10.66V-4.16ZM-147.777.65c6.695,0,10.6-3.185,10.6-8.45,0-3.835-2.34-6.175-7.345-8.71-3.51-1.755-6.24-3.055-6.24-5.46,0-1.365,1.04-2.535,3.055-2.535a6.023,6.023,0,0,1,4.1,1.885l3.77,4.485H-139V-26.91a21.152,21.152,0,0,0-7.67-1.365c-6.5,0-10.79,2.925-10.79,7.865,0,3.965,2.015,6.24,6.955,9.1,3.25,1.885,6.63,2.73,6.63,5.46,0,1.5-.975,2.73-3.38,2.73a7.852,7.852,0,0,1-5.85-3.315l-3.575-4.42h-.845V-1.5A25.564,25.564,0,0,0-147.777.65Zm24.18,0C-116.9.65-113-2.535-113-7.8c0-3.835-2.34-6.175-7.345-8.71-3.51-1.755-6.24-3.055-6.24-5.46,0-1.365,1.04-2.535,3.055-2.535a6.023,6.023,0,0,1,4.1,1.885l3.77,4.485h.845V-26.91a21.152,21.152,0,0,0-7.67-1.365c-6.5,0-10.79,2.925-10.79,7.865,0,3.965,2.015,6.24,6.955,9.1,3.25,1.885,6.63,2.73,6.63,5.46,0,1.5-.975,2.73-3.38,2.73a7.852,7.852,0,0,1-5.85-3.315l-3.575-4.42h-.845V-1.5A25.564,25.564,0,0,0-123.6.65Zm30.55-4.42c-5.33,0-8.32-3.835-8.775-10.075H-85.7a17.612,17.612,0,0,0,.325-3.51c0-6.435-4.1-10.92-10.725-10.92-8,0-13.715,6.565-13.715,14.95C-109.818-4.81-103.838.65-96.1.65A16.725,16.725,0,0,0-85.638-3.12l-1.235-2.275A13.9,13.9,0,0,1-93.048-3.77Zm-3.965-20.735c2.665,0,4.29,1.82,4.42,7.28h-9.23C-101.563-21.97-99.873-24.505-97.013-24.505ZM-53.138-4.1l-.325-.39V-20.67c0-5.33-3.25-7.6-7.865-7.6-3.51,0-6.24,1.365-10.075,3.9l-.78-3.835-.845-.455-9.75,5.005v.845l4.16,2.535v15.8l-.325.325h-2.925V0h13.975V-4.16h-2.925l-.325-.325v-17.42a20.075,20.075,0,0,1,5-.78c3.705,0,5.2,1.43,5.2,6.63v11.57l-.325.325h-2.925V0h13.975V-4.1Zm25.22-29.315a4.508,4.508,0,0,0,4.485-4.55,4.494,4.494,0,0,0-4.485-4.485,4.508,4.508,0,0,0-4.55,4.485A4.522,4.522,0,0,0-27.918-33.41Zm-9.1,48.165c7.735-1.17,12.74-5.33,12.74-14.625V-28.34l-.845-.39L-35.913-23.6v.78l4.16,2.6V2.73c0,5.98-2.015,8.255-6.305,10.075ZM9.458-4.16,9.2-4.485v-23.79l-.91-.455-10.725,5.2v.78l4.16,2.6V-5.72a16.236,16.236,0,0,1-4.485.65c-3.575,0-5.07-1.43-5.07-6.045v-16.7l-.91-.455-10.725,5.2v.78l4.16,2.6V-7.02c0,4.94,2.6,7.67,7.475,7.67,3.77,0,6.37-1.885,9.555-4.55V0h10.66V-4.16ZM15.372,0H29.347V-4.16H26.422L26.1-4.485v-41.86l-.91-.455L14.462-41.6v.78l4.16,2.6V-4.485L18.3-4.16H15.372ZM32.207,0H46.182V-4.16H43.257l-.325-.325v-41.86l-.91-.455L31.3-41.6v.78l4.16,2.6V-4.485l-.325.325H32.207Zm23.92-33.41a4.508,4.508,0,0,0,4.485-4.55,4.494,4.494,0,0,0-4.485-4.485,4.508,4.508,0,0,0-4.55,4.485A4.522,4.522,0,0,0,56.127-33.41ZM49.367,0H63.342V-4.16H60.417l-.325-.325V-28.34l-.845-.39L48.457-23.6v.78l4.16,2.6v15.73l-.325.325H49.367Zm33.67-3.77c-5.33,0-8.32-3.835-8.775-10.075h16.12a17.612,17.612,0,0,0,.325-3.51c0-6.435-4.1-10.92-10.725-10.92-8,0-13.715,6.565-13.715,14.95C66.268-4.81,72.248.65,79.983.65A16.725,16.725,0,0,0,90.448-3.12L89.213-5.395A13.9,13.9,0,0,1,83.038-3.77ZM79.073-24.505c2.665,0,4.29,1.82,4.42,7.28h-9.23C74.523-21.97,76.213-24.505,79.073-24.505ZM135.1-4.16l-.325-.325V-20.67c0-5.33-3.25-7.6-7.865-7.6-3.445,0-6.11,1.365-9.815,3.77v-21.84l-.91-.455-10.725,5.2v.78l4.16,2.6V-4.485l-.325.325h-2.925V0h13.975V-4.16h-2.925l-.325-.325v-17.42a20.075,20.075,0,0,1,5-.78c3.705,0,5.2,1.43,5.2,6.63v11.57l-.325.325h-2.925V0h13.975V-4.16Zm22.88.39c-5.33,0-8.32-3.835-8.775-10.075h16.12a17.612,17.612,0,0,0,.325-3.51c0-6.435-4.1-10.92-10.725-10.92-7.995,0-13.715,6.565-13.715,14.95,0,8.515,5.98,13.975,13.715,13.975a16.725,16.725,0,0,0,10.465-3.77l-1.235-2.275A13.9,13.9,0,0,1,157.983-3.77Zm-3.965-20.735c2.665,0,4.29,1.82,4.42,7.28h-9.23C149.468-21.97,151.158-24.505,154.018-24.505Zm25.675,20.02v-41.86l-.91-.455-10.725,5.2v.78l4.16,2.6V-4.485l-.325.325h-2.925V0h13.975V-4.16h-2.925Zm16.77.325-8.775-12.35,11.5-10.595v-.52H184.827v.585l3.705,3.64-8.32,8.84L190.222,0h10.27V-4.16ZM213.168.65c6.695,0,10.6-3.185,10.6-8.45,0-3.835-2.34-6.175-7.345-8.71-3.51-1.755-6.24-3.055-6.24-5.46,0-1.365,1.04-2.535,3.055-2.535a6.023,6.023,0,0,1,4.1,1.885l3.77,4.485h.845V-26.91a21.152,21.152,0,0,0-7.67-1.365c-6.5,0-10.79,2.925-10.79,7.865,0,3.965,2.015,6.24,6.955,9.1,3.25,1.885,6.63,2.73,6.63,5.46,0,1.5-.975,2.73-3.38,2.73a7.852,7.852,0,0,1-5.85-3.315l-3.575-4.42h-.845V-1.5A25.564,25.564,0,0,0,213.168.65Zm30.55-4.42c-5.33,0-8.32-3.835-8.775-10.075h16.12a17.612,17.612,0,0,0,.325-3.51c0-6.435-4.1-10.92-10.725-10.92-7.995,0-13.715,6.565-13.715,14.95,0,8.515,5.98,13.975,13.715,13.975a16.725,16.725,0,0,0,10.465-3.77l-1.235-2.275A13.9,13.9,0,0,1,243.717-3.77Zm-3.965-20.735c2.665,0,4.29,1.82,4.42,7.28h-9.23C235.2-21.97,236.893-24.505,239.753-24.505ZM283.628-4.1l-.325-.39V-20.67c0-5.33-3.25-7.6-7.865-7.6-3.51,0-6.24,1.365-10.075,3.9l-.78-3.835-.845-.455-9.75,5.005v.845l4.16,2.535v15.8l-.325.325H254.9V0h13.975V-4.16h-2.925l-.325-.325v-17.42a20.075,20.075,0,0,1,5.005-.78c3.705,0,5.2,1.43,5.2,6.63v11.57l-.325.325h-2.925V0h13.975V-4.1ZM300.852.65h2.99l11.245-23.465,3.965-3.64V-27.3H306.9v.91l3.64,3.575L304.1-8.84h-.195l-5.98-13.975,3.64-3.64V-27.3h-15.73v.91l3.965,3.575ZM335.5-3.77c-5.33,0-8.32-3.835-8.775-10.075h16.12a17.611,17.611,0,0,0,.325-3.51c0-6.435-4.1-10.92-10.725-10.92-7.995,0-13.715,6.565-13.715,14.95,0,8.515,5.98,13.975,13.715,13.975a16.725,16.725,0,0,0,10.465-3.77l-1.235-2.275A13.9,13.9,0,0,1,335.5-3.77Zm-3.965-20.735c2.665,0,4.29,1.82,4.42,7.28h-9.23C326.982-21.97,328.672-24.505,331.532-24.505Zm28.015,3.835a29.572,29.572,0,0,1,8.125,1.1V-27.95a4.613,4.613,0,0,0-1.885-.325c-2.47,0-5.395,1.885-8.58,4.81l-.845-4.68-.845-.455-9.75,5v.845l4.16,2.535v15.73l-.325.325h-2.925V0h14.95V-4.16h-3.9l-.325-.325V-20.54C358.117-20.6,358.832-20.67,359.547-20.67ZM384.313.65h2.99l11.245-23.465,3.965-3.64V-27.3H390.358v.91L394-22.815,387.563-8.84h-.195l-5.98-13.975,3.64-3.64V-27.3H369.3v.91l3.965,3.575Zm31.265,0c8.255,0,14.17-5.98,14.17-14.82s-5.785-14.1-13.39-14.1c-8.45,0-14.17,6.565-14.17,15.145C402.187-4.81,407.647.65,415.577.65Zm1.3-3.835c-3.9,0-6.76-5.2-6.76-12.61,0-5.33,1.885-8.45,4.94-8.45,3.9,0,6.76,5.2,6.76,12.61C421.817-6.305,419.932-3.185,416.877-3.185ZM433.388,0h13.975V-4.16h-2.925l-.325-.325v-41.86l-.91-.455-10.725,5.2v.78l4.16,2.6V-4.485l-.325.325h-2.925Zm45.695-28.86-8.125,3.055a12.392,12.392,0,0,0-7.6-2.47c-6.5,0-12.155,4.55-12.155,11.115a8.807,8.807,0,0,0,4.03,7.67c-2.86,2.6-4.485,5.395-4.485,8.06a4.748,4.748,0,0,0,2.34,4.29c-3.055,2.08-4.68,4.355-4.68,6.825,0,3.64,3.51,5.72,10.205,5.72,10.465,0,18.265-4.615,18.265-11.83,0-4.42-3.185-6.435-9.1-6.435h-6.24c-4.1,0-5.135-1.04-5.135-2.665a4.988,4.988,0,0,1,1.04-2.86,14.088,14.088,0,0,0,4.81.78c6.5,0,12.285-3.9,12.285-10.53a9.714,9.714,0,0,0-1.625-5.525l5.46,1.69.91-.13v-6.565Zm-16.12,18.07c-2.73,0-4.16-2.86-4.16-7.475,0-4.745,1.755-6.89,3.9-6.89,2.6,0,4.29,2.99,4.29,7.735C466.992-12.61,465.172-10.79,462.962-10.79Zm-3.7,14.95h6.37c2.73,0,4.68.26,4.68,2.275,0,3.12-4.68,4.94-9.685,4.94-4.03,0-6.175-1.3-6.175-4.16a6.264,6.264,0,0,1,1.04-3.445A15.624,15.624,0,0,0,459.257,4.16ZM488.7-33.41a4.508,4.508,0,0,0,4.485-4.55,4.494,4.494,0,0,0-4.485-4.485,4.508,4.508,0,0,0-4.55,4.485A4.522,4.522,0,0,0,488.7-33.41ZM481.943,0h13.975V-4.16h-2.925l-.325-.325V-28.34l-.845-.39L481.033-23.6v.78l4.16,2.6v15.73l-.325.325h-2.925Zm45.565-4.1-.325-.39V-20.67c0-5.33-3.25-7.6-7.865-7.6-3.51,0-6.24,1.365-10.075,3.9l-.78-3.835-.845-.455-9.75,5.005v.845l4.16,2.535v15.8l-.325.325h-2.925V0h13.975V-4.16h-2.925l-.325-.325v-17.42a20.075,20.075,0,0,1,5.005-.78c3.705,0,5.2,1.43,5.2,6.63v11.57l-.325.325h-2.925V0h13.975V-4.1Zm34.71-24.765-8.125,3.055a12.392,12.392,0,0,0-7.6-2.47c-6.5,0-12.155,4.55-12.155,11.115a8.807,8.807,0,0,0,4.03,7.67c-2.86,2.6-4.485,5.395-4.485,8.06a4.747,4.747,0,0,0,2.34,4.29c-3.055,2.08-4.68,4.355-4.68,6.825,0,3.64,3.51,5.72,10.205,5.72,10.465,0,18.265-4.615,18.265-11.83,0-4.42-3.185-6.435-9.1-6.435h-6.24c-4.095,0-5.135-1.04-5.135-2.665a4.988,4.988,0,0,1,1.04-2.86,14.088,14.088,0,0,0,4.81.78c6.5,0,12.285-3.9,12.285-10.53a9.715,9.715,0,0,0-1.625-5.525l5.46,1.69.91-.13v-6.565ZM546.1-10.79c-2.73,0-4.16-2.86-4.16-7.475,0-4.745,1.755-6.89,3.9-6.89,2.6,0,4.29,2.99,4.29,7.735C550.128-12.61,548.307-10.79,546.1-10.79ZM542.392,4.16h6.37c2.73,0,4.68.26,4.68,2.275,0,3.12-4.68,4.94-9.685,4.94-4.03,0-6.175-1.3-6.175-4.16a6.264,6.264,0,0,1,1.04-3.445A15.623,15.623,0,0,0,542.392,4.16Zm38.09-7.93c-5.33,0-8.32-3.835-8.775-10.075h16.12a17.611,17.611,0,0,0,.325-3.51c0-6.435-4.1-10.92-10.725-10.92-7.995,0-13.715,6.565-13.715,14.95,0,8.515,5.98,13.975,13.715,13.975a16.725,16.725,0,0,0,10.465-3.77l-1.235-2.275A13.9,13.9,0,0,1,580.482-3.77Zm-3.965-20.735c2.665,0,4.29,1.82,4.42,7.28h-9.23C571.967-21.97,573.657-24.505,576.517-24.505ZM620.392-4.1l-.325-.39V-20.67c0-5.33-3.25-7.6-7.865-7.6-3.51,0-6.24,1.365-10.075,3.9l-.78-3.835-.845-.455-9.75,5.005v.845l4.16,2.535v15.8l-.325.325h-2.925V0h13.975V-4.16h-2.925l-.325-.325v-17.42a20.075,20.075,0,0,1,5.005-.78c3.705,0,5.2,1.43,5.2,6.63v11.57l-.325.325h-2.925V0h13.975V-4.1ZM633,.975A4.868,4.868,0,0,0,637.878-3.9,4.868,4.868,0,0,0,633-8.775,4.91,4.91,0,0,0,628.128-3.9,4.91,4.91,0,0,0,633,.975Z" transform="translate(960 671)"/>
    </g>
  </g>
</svg>
