<svg xmlns="http://www.w3.org/2000/svg" xmlns:xlink="http://www.w3.org/1999/xlink" width="97.549" height="97.547" viewBox="0 0 97.549 97.547">
  <defs>
    <filter id="Path_4" x="0" y="0" width="97.549" height="97.547" filterUnits="userSpaceOnUse">
      <feOffset dy="3" input="SourceAlpha"/>
      <feGaussianBlur stdDeviation="3" result="blur"/>
      <feFlood flood-opacity="0.161"/>
      <feComposite operator="in" in2="blur"/>
      <feComposite in="SourceGraphic"/>
    </filter>
  </defs>
  <g id="Group_33" data-name="Group 33" transform="translate(9 6)">
    <g transform="matrix(1, 0, 0, 1, -9, -6)" filter="url(#Path_4)">
      <path id="Path_4-2" data-name="Path 4" d="M21.469,42.938A39.773,39.773,0,1,0-18.305,3.163,39.775,39.775,0,0,0,21.469,42.938" transform="translate(27.31 42.61)" fill="#fff"/>
    </g>
    <path id="Path_182" data-name="Path 182" d="M29.326-9.858l-.93.372c-.248,1.24-2.232,3.472-2.666,4.588-1.488,1.054-7.316,1.116-9.176,1.116l-8-.124c2.48-2.17,5.952-5.7,8.68-8.494,4.65-4.774,9.486-10.726,10.23-17.794a12.874,12.874,0,0,0,.062-2.17,9.463,9.463,0,0,0-.186-1.86c-.124-.248-1.178-.868-1.3-1.116-.062-.186.62-.806.5-.992a9.657,9.657,0,0,0-2.79-4.03,12.418,12.418,0,0,0-6.758-2.48,16.221,16.221,0,0,0-4.588.062c-.372-.682-.682-1.364-.992-2.046-.124,0-.744-.248-.806-.248a15.163,15.163,0,0,0-2.108,1.922,17.667,17.667,0,0,0-3.968,6.944c-.124.5-.806,3.472-.806,3.472s.806.124.93,0A38.971,38.971,0,0,1,8.494-39.37a9.31,9.31,0,0,1,4.526-1.054c4.836,0,8,3.038,8.99,7.316a8.974,8.974,0,0,1,.248,1.86,8.124,8.124,0,0,1,0,1.736c.062.372,1.3.992,1.3,1.3,0,.992-1.612,2.418-1.922,3.348a20.334,20.334,0,0,1-1.488,3.41c-.062.124,1.054.558.992.682-.062.186-1.736.744-1.86.992A66.876,66.876,0,0,1,7.936-5.952c-.124.124.124.93-.062,1.054-.124.124-1.55.434-1.736.558-.31.248-.806.682-1.054.93A49.58,49.58,0,0,1,.93,0C5.27.062,17.608-.062,21.948.124c.062.744,2.17,1.55,2.17,1.55L26.226.93l.5-.434s.5-1.736.558-2.108c.062-.248-1.116-.93-1.116-1.178.062-.372,1.736-1.178,1.8-1.612C28.148-5.58,29.2-8.618,29.326-9.858Z" transform="translate(23.535 59.056)" fill="#2b2e34"/>
  </g>
</svg>
