<svg xmlns="http://www.w3.org/2000/svg" xmlns:xlink="http://www.w3.org/1999/xlink" width="2405.221" height="2459.865" viewBox="0 0 2405.221 2459.865">
  <defs>
    <clipPath id="clip-path">
      <rect id="Rectangle_11" data-name="Rectangle 11" width="2405.221" height="2459.865" fill="none"/>
    </clipPath>
  </defs>
  <g id="Group_160" data-name="Group 160" transform="translate(293.61 1919.865)">
    <g id="Group_14" data-name="Group 14" transform="translate(2111.61 540) rotate(180)" opacity="0.188">
      <g id="Group_9" data-name="Group 9" clip-path="url(#clip-path)">
        <path id="Path_92" data-name="Path 92" d="M2405.221,2459.868H0V935.6A453.9,453.9,0,0,1,208.3,553.884l748.713-481.7a453.87,453.87,0,0,1,491.174,0l748.724,481.7A453.891,453.891,0,0,1,2405.221,935.6Z" transform="translate(0 -0.002)" fill="#feb153"/>
      </g>
    </g>
    <text id="Dit_mechanisme_noemen_we_het_zondebokprincipe." data-name="Dit mechanisme noemen we 
het zondebokprincipe." transform="translate(961 173)" font-size="65" font-family="Bely-Bold, Bely" font-weight="700"><tspan x="-369.947" y="0">Dit mechanisme noemen we </tspan><tspan x="-290.485" y="78">het </tspan><tspan y="78" fill="#7765b4">zondebokprincipe</tspan><tspan y="78">.</tspan></text>
    <g id="Group_36" data-name="Group 36" transform="translate(-1.438 -40)">
      <path id="Path_114" data-name="Path 114" d="M-299.824,99.67h0a103.553,103.553,0,0,1,91.115-54.348H408.328a92.449,92.449,0,0,0,68.257-30.1L490.371.135" transform="translate(469.262 341.404)" fill="none" stroke="#161615" stroke-miterlimit="10" stroke-width="3"/>
      <path id="Path_115" data-name="Path 115" d="M1227.526,99.67h0a103.553,103.553,0,0,0-91.115-54.348H509.373a92.449,92.449,0,0,1-68.257-30.1L427.331.135" transform="translate(531.037 341.404)" fill="none" stroke="#161615" stroke-miterlimit="10" stroke-width="3"/>
    </g>
  </g>
</svg>
