<svg xmlns="http://www.w3.org/2000/svg" xmlns:xlink="http://www.w3.org/1999/xlink" width="97.549" height="97.547" viewBox="0 0 97.549 97.547">
  <defs>
    <filter id="Path_4" x="0" y="0" width="97.549" height="97.547" filterUnits="userSpaceOnUse">
      <feOffset dy="3" input="SourceAlpha"/>
      <feGaussianBlur stdDeviation="3" result="blur"/>
      <feFlood flood-opacity="0.161"/>
      <feComposite operator="in" in2="blur"/>
      <feComposite in="SourceGraphic"/>
    </filter>
  </defs>
  <g id="Group_34" data-name="Group 34" transform="translate(9 6)">
    <g transform="matrix(1, 0, 0, 1, -9, -6)" filter="url(#Path_4)">
      <path id="Path_4-2" data-name="Path 4" d="M21.469,42.938A39.773,39.773,0,1,0-18.305,3.163,39.775,39.775,0,0,0,21.469,42.938" transform="translate(27.31 42.61)" fill="#fff"/>
    </g>
    <path id="Path_183" data-name="Path 183" d="M28.334-12.276a20.4,20.4,0,0,0-.5-3.844l-1.116-.558a2.3,2.3,0,0,0,.558-1.178V-18.1c-1.364-3.844-5.89-5.394-9.486-5.828.372-.186.558-.558.868-.868.434-.31.992-.124,1.426-.434.682-.434,3.6-2.356,3.6-3.1,0-.186-.248-.434-.31-.558,1.8-.744,2.48-2.914,2.48-4.836a14.106,14.106,0,0,0-.124-1.612,5.894,5.894,0,0,0-1.736-1.24c.31-.31.93-.682.992-1.054-1.674-3.472-5.7-4.836-9.362-4.836a13.475,13.475,0,0,0-5.208,1.054l-.682-.248c0-.248.186-.682-.186-.682-.248,0-.62.186-.992.248a15.942,15.942,0,0,0-5.084,9.424C5.642-36.7,8.99-39.06,13.578-39.06c3.472,0,6.076,1.426,7.006,4.774.124.248.744,1.054.744,1.054a4.873,4.873,0,0,0-.744,1.116c-.868,4.34-5.89,7.316-9.424,9.61,5.022.806,12.09,2.356,12.09,8.8,0,1.426-.186,1.364,1.3,2.046-.434.372-.992.682-1.426,1.116a11.141,11.141,0,0,1-10.54,7.316c-3.844,0-7.006-1.426-8.8-4.96l-.558.124A12.909,12.909,0,0,0,10.106.682L10.85.62l1.3-.682A12.03,12.03,0,0,0,15.81,0c3.906-.5,7.812-2.046,10.23-5.332.062-.186.868-1.3.868-1.426,0-.434-.744-.744-1.054-.868l1.736-.62A14.917,14.917,0,0,0,28.334-12.276Z" transform="translate(24.535 60.056)" fill="#2b2e34"/>
  </g>
</svg>
