<svg xmlns="http://www.w3.org/2000/svg" xmlns:xlink="http://www.w3.org/1999/xlink" width="2156.156" height="1262.938" viewBox="0 0 2156.156 1262.938">
  <defs>
    <clipPath id="clip-path">
      <rect id="Rectangle_11" data-name="Rectangle 11" width="1262.938" height="1291.631" fill="none"/>
    </clipPath>
    <clipPath id="clip-path-2">
      <rect id="Rectangle_11-2" data-name="Rectangle 11" width="32.924" height="33.672" fill="#7765b4"/>
    </clipPath>
    <clipPath id="clip-path-4">
      <rect id="Rectangle_30" data-name="Rectangle 30" width="67.201" height="78.631" fill="none"/>
    </clipPath>
  </defs>
  <g id="Group_106" data-name="Group 106" transform="translate(426.636 102.076)">
    <g id="Group_14" data-name="Group 14" transform="translate(864.995 -102.076) rotate(90)" opacity="0.188">
      <g id="Group_9" data-name="Group 9" clip-path="url(#clip-path)">
        <path id="Path_92" data-name="Path 92" d="M1262.938,1291.632H0V491.267A238.337,238.337,0,0,1,109.375,290.835L502.511,37.9a238.319,238.319,0,0,1,257.906,0l393.141,252.933a238.33,238.33,0,0,1,109.38,200.432Z" transform="translate(0 -0.001)" fill="#feb153"/>
      </g>
    </g>
    <path id="Path_173" data-name="Path 173" d="M40.04-4.355l-.325-.325L23.53-42.25H20.085L4.55-4.68l-.325.325H.65V0h13.2V-4.355h-3.9L9.62-4.68l2.665-6.89H27.95l2.925,6.89-.325.325h-3.9V0H43.485V-4.355ZM13.975-15.99,19.63-30.55h.325L26.13-15.99ZM74.75-4.1l-.325-.39V-20.67c0-5.33-3.25-7.6-7.865-7.6-3.51,0-6.24,1.365-10.075,3.9L55.7-28.21l-.845-.455L45.11-23.66v.845l4.16,2.535v15.8l-.325.325H46.02V0H59.995V-4.16H57.07l-.325-.325v-17.42a20.075,20.075,0,0,1,5.005-.78c3.705,0,5.2,1.43,5.2,6.63v11.57l-.325.325H63.7V0H77.675V-4.1ZM102.9-4.16l-.325-.325V-17.16c0-7.215-2.73-11.115-9.555-11.115a15.244,15.244,0,0,0-11.245,4.81L83.005-21A12.792,12.792,0,0,1,89.83-23.4c3.77,0,5.265,2.275,5.265,6.7v1.17C83.85-14.365,80.6-10.6,80.6-5.72,80.6-.91,83.915.715,87.035.715a14.715,14.715,0,0,0,8.06-2.99V0H105.82V-4.16Zm-11.31.2c-2.21,0-3.77-1.105-3.705-3.575.065-2.925,2.145-4.355,7.215-4.81v7.8A14.142,14.142,0,0,1,91.585-3.965ZM108.745,0H122.72V-4.16h-2.925l-.325-.325v-41.86l-.91-.455-10.725,5.2v.78l4.16,2.6V-4.485l-.325.325h-2.925ZM133.9,15.925l7.41-14.5,11.375-24.245,4.16-3.64V-27.3H144.56v.91l3.575,3.575L142.025-8.97h-.39L135.59-22.815l3.64-3.64V-27.3H123.24v.91l4.225,3.575L138.45.52,125.19,11.765v.585ZM167.9.65c6.695,0,10.595-3.185,10.595-8.45,0-3.835-2.34-6.175-7.345-8.71-3.51-1.755-6.24-3.055-6.24-5.46,0-1.365,1.04-2.535,3.055-2.535a6.023,6.023,0,0,1,4.1,1.885l3.77,4.485h.845V-26.91A21.152,21.152,0,0,0,169-28.275c-6.5,0-10.79,2.925-10.79,7.865,0,3.965,2.015,6.24,6.955,9.1,3.25,1.885,6.63,2.73,6.63,5.46,0,1.5-.975,2.73-3.38,2.73a7.852,7.852,0,0,1-5.85-3.315l-3.575-4.42h-.845V-1.5A25.564,25.564,0,0,0,167.9.65Zm30.55-4.42c-5.33,0-8.32-3.835-8.775-10.075h16.12a17.612,17.612,0,0,0,.325-3.51c0-6.435-4.1-10.92-10.725-10.92-7.995,0-13.715,6.565-13.715,14.95C181.675-4.81,187.655.65,195.39.65a16.725,16.725,0,0,0,10.465-3.77L204.62-5.395A13.9,13.9,0,0,1,198.445-3.77ZM194.48-24.505c2.665,0,4.29,1.82,4.42,7.28h-9.23C189.93-21.97,191.62-24.505,194.48-24.505ZM226.46-3.77c-5.33,0-8.32-3.835-8.775-10.075h16.12a17.612,17.612,0,0,0,.325-3.51c0-6.435-4.1-10.92-10.725-10.92-7.995,0-13.715,6.565-13.715,14.95C209.69-4.81,215.67.65,223.4.65A16.725,16.725,0,0,0,233.87-3.12l-1.235-2.275A13.9,13.9,0,0,1,226.46-3.77ZM222.5-24.505c2.665,0,4.29,1.82,4.42,7.28h-9.23C217.945-21.97,219.635-24.505,222.5-24.505ZM250.51-20.67a29.572,29.572,0,0,1,8.125,1.1V-27.95a4.613,4.613,0,0,0-1.885-.325c-2.47,0-5.395,1.885-8.58,4.81l-.845-4.68-.845-.455-9.75,5v.845l4.16,2.535v15.73l-.325.325H237.64V0h14.95V-4.16h-3.9l-.325-.325V-20.54C249.08-20.6,249.795-20.67,250.51-20.67Zm39.845,16.9c-5.33,0-8.32-3.835-8.775-10.075H297.7a17.611,17.611,0,0,0,.325-3.51c0-6.435-4.1-10.92-10.725-10.92-7.995,0-13.715,6.565-13.715,14.95C273.585-4.81,279.565.65,287.3.65a16.725,16.725,0,0,0,10.465-3.77L296.53-5.395A13.9,13.9,0,0,1,290.355-3.77ZM286.39-24.505c2.665,0,4.29,1.82,4.42,7.28h-9.23C281.84-21.97,283.53-24.505,286.39-24.505ZM318.37-3.77c-5.33,0-8.32-3.835-8.775-10.075h16.12a17.611,17.611,0,0,0,.325-3.51c0-6.435-4.095-10.92-10.725-10.92-7.995,0-13.715,6.565-13.715,14.95C301.6-4.81,307.58.65,315.315.65A16.725,16.725,0,0,0,325.78-3.12l-1.235-2.275A13.9,13.9,0,0,1,318.37-3.77ZM314.4-24.505c2.665,0,4.29,1.82,4.42,7.28H309.6C309.855-21.97,311.545-24.505,314.4-24.505ZM358.28-4.1l-.325-.39V-20.67c0-5.33-3.25-7.6-7.865-7.6-3.51,0-6.24,1.365-10.075,3.9l-.78-3.835-.845-.455-9.75,5.005v.845l4.16,2.535v15.8l-.325.325H329.55V0h13.975V-4.16H340.6l-.325-.325v-17.42a20.074,20.074,0,0,1,5-.78c3.705,0,5.2,1.43,5.2,6.63v11.57l-.325.325H347.23V0h13.975V-4.1Zm46.93-.065-.325-.325V-20.67c0-5.33-3.25-7.6-7.865-7.6-3.445,0-6.11,1.365-9.815,3.77v-21.84l-.91-.455L375.57-41.6v.78l4.16,2.6V-4.485l-.325.325H376.48V0h13.975V-4.16H387.53l-.325-.325v-17.42a20.074,20.074,0,0,1,5.005-.78c3.7,0,5.2,1.43,5.2,6.63v11.57l-.325.325H394.16V0h13.975V-4.16Zm22.88.39c-5.33,0-8.32-3.835-8.775-10.075h16.12a17.611,17.611,0,0,0,.325-3.51c0-6.435-4.1-10.92-10.725-10.92-7.995,0-13.715,6.565-13.715,14.95C411.32-4.81,417.3.65,425.035.65A16.725,16.725,0,0,0,435.5-3.12l-1.235-2.275A13.9,13.9,0,0,1,428.09-3.77Zm-3.965-20.735c2.665,0,4.29,1.82,4.42,7.28h-9.23C419.575-21.97,421.265-24.505,424.125-24.505ZM449.8-4.485v-41.86l-.91-.455-10.725,5.2v.78l4.16,2.6V-4.485L442-4.16h-2.925V0H453.05V-4.16h-2.925Zm16.77.325L457.8-16.51,469.3-27.1v-.52H454.935v.585l3.705,3.64-8.32,8.84L460.33,0H470.6V-4.16Zm16.7,4.81c6.7,0,10.6-3.185,10.6-8.45,0-3.835-2.34-6.175-7.345-8.71-3.51-1.755-6.24-3.055-6.24-5.46,0-1.365,1.04-2.535,3.055-2.535a6.023,6.023,0,0,1,4.1,1.885l3.77,4.485h.845V-26.91a21.152,21.152,0,0,0-7.67-1.365c-6.5,0-10.79,2.925-10.79,7.865,0,3.965,2.015,6.24,6.955,9.1,3.25,1.885,6.63,2.73,6.63,5.46,0,1.5-.975,2.73-3.38,2.73a7.852,7.852,0,0,1-5.85-3.315l-3.575-4.42h-.845V-1.5A25.564,25.564,0,0,0,483.275.65Zm30.55-4.42c-5.33,0-8.32-3.835-8.775-10.075h16.12a17.611,17.611,0,0,0,.325-3.51c0-6.435-4.095-10.92-10.725-10.92-7.995,0-13.715,6.565-13.715,14.95C497.055-4.81,503.035.65,510.77.65a16.725,16.725,0,0,0,10.465-3.77L520-5.395A13.9,13.9,0,0,1,513.825-3.77ZM509.86-24.505c2.665,0,4.29,1.82,4.42,7.28h-9.23C505.31-21.97,507-24.505,509.86-24.505ZM553.735-4.1l-.325-.39V-20.67c0-5.33-3.25-7.6-7.865-7.6-3.51,0-6.24,1.365-10.075,3.9l-.78-3.835-.845-.455-9.75,5.005v.845l4.16,2.535v15.8l-.325.325h-2.925V0H538.98V-4.16h-2.925l-.325-.325v-17.42a20.075,20.075,0,0,1,5.005-.78c3.705,0,5.2,1.43,5.2,6.63v11.57l-.325.325h-2.925V0H556.66V-4.1ZM570.96.65h2.99l11.245-23.465,3.965-3.64V-27.3H577v.91l3.64,3.575L574.21-8.84h-.2l-5.98-13.975,3.64-3.64V-27.3h-15.73v.91l3.965,3.575ZM605.6-3.77c-5.33,0-8.32-3.835-8.775-10.075h16.12a17.611,17.611,0,0,0,.325-3.51c0-6.435-4.1-10.92-10.725-10.92-7.995,0-13.715,6.565-13.715,14.95C588.835-4.81,594.815.65,602.55.65a16.725,16.725,0,0,0,10.465-3.77L611.78-5.395A13.9,13.9,0,0,1,605.6-3.77ZM601.64-24.505c2.665,0,4.29,1.82,4.42,7.28h-9.23C597.09-21.97,598.78-24.505,601.64-24.505Zm28.015,3.835a29.572,29.572,0,0,1,8.125,1.1V-27.95a4.613,4.613,0,0,0-1.885-.325c-2.47,0-5.4,1.885-8.58,4.81l-.845-4.68-.845-.455-9.75,5v.845l4.16,2.535v15.73l-.325.325h-2.925V0h14.95V-4.16h-3.9l-.325-.325V-20.54C628.225-20.6,628.94-20.67,629.655-20.67ZM654.42.65h2.99l11.245-23.465,3.965-3.64V-27.3H660.465v.91l3.64,3.575L657.67-8.84h-.2l-5.98-13.975,3.64-3.64V-27.3H639.4v.91l3.965,3.575Zm31.265,0c8.255,0,14.17-5.98,14.17-14.82s-5.785-14.1-13.39-14.1c-8.45,0-14.17,6.565-14.17,15.145C672.295-4.81,677.755.65,685.685.65Zm1.3-3.835c-3.9,0-6.76-5.2-6.76-12.61,0-5.33,1.885-8.45,4.94-8.45,3.9,0,6.76,5.2,6.76,12.61C691.925-6.305,690.04-3.185,686.985-3.185ZM703.495,0H717.47V-4.16h-2.925l-.325-.325v-41.86l-.91-.455-10.725,5.2v.78l4.16,2.6V-4.485l-.325.325h-2.925Zm45.7-28.86-8.125,3.055a12.392,12.392,0,0,0-7.6-2.47c-6.5,0-12.155,4.55-12.155,11.115a8.807,8.807,0,0,0,4.03,7.67c-2.86,2.6-4.485,5.395-4.485,8.06a4.747,4.747,0,0,0,2.34,4.29c-3.055,2.08-4.68,4.355-4.68,6.825,0,3.64,3.51,5.72,10.205,5.72,10.465,0,18.265-4.615,18.265-11.83,0-4.42-3.185-6.435-9.1-6.435h-6.24c-4.095,0-5.135-1.04-5.135-2.665a4.988,4.988,0,0,1,1.04-2.86,14.088,14.088,0,0,0,4.81.78c6.5,0,12.285-3.9,12.285-10.53a9.715,9.715,0,0,0-1.625-5.525l5.46,1.69.91-.13v-6.565ZM733.07-10.79c-2.73,0-4.16-2.86-4.16-7.475,0-4.745,1.755-6.89,3.9-6.89,2.6,0,4.29,2.99,4.29,7.735C737.1-12.61,735.28-10.79,733.07-10.79ZM729.365,4.16h6.37c2.73,0,4.68.26,4.68,2.275,0,3.12-4.68,4.94-9.685,4.94-4.03,0-6.175-1.3-6.175-4.16A6.264,6.264,0,0,1,725.6,3.77,15.623,15.623,0,0,0,729.365,4.16ZM758.81-33.41a4.508,4.508,0,0,0,4.485-4.55,4.494,4.494,0,0,0-4.485-4.485,4.508,4.508,0,0,0-4.55,4.485A4.522,4.522,0,0,0,758.81-33.41ZM752.05,0h13.975V-4.16H763.1l-.325-.325V-28.34l-.845-.39L751.14-23.6v.78l4.16,2.6v15.73l-.325.325H752.05Zm45.565-4.1-.325-.39V-20.67c0-5.33-3.25-7.6-7.865-7.6-3.51,0-6.24,1.365-10.075,3.9l-.78-3.835-.845-.455-9.75,5.005v.845l4.16,2.535v15.8l-.325.325h-2.925V0H782.86V-4.16h-2.925l-.325-.325v-17.42a20.075,20.075,0,0,1,5.005-.78c3.705,0,5.2,1.43,5.2,6.63v11.57l-.325.325h-2.925V0H800.54V-4.1Zm34.71-24.765L824.2-25.805a12.392,12.392,0,0,0-7.6-2.47c-6.5,0-12.155,4.55-12.155,11.115a8.807,8.807,0,0,0,4.03,7.67c-2.86,2.6-4.485,5.395-4.485,8.06a4.747,4.747,0,0,0,2.34,4.29c-3.055,2.08-4.68,4.355-4.68,6.825,0,3.64,3.51,5.72,10.205,5.72,10.465,0,18.265-4.615,18.265-11.83,0-4.42-3.185-6.435-9.1-6.435h-6.24c-4.095,0-5.135-1.04-5.135-2.665a4.988,4.988,0,0,1,1.04-2.86,14.088,14.088,0,0,0,4.81.78c6.5,0,12.285-3.9,12.285-10.53a9.715,9.715,0,0,0-1.625-5.525l5.46,1.69.91-.13v-6.565Zm-16.12,18.07c-2.73,0-4.16-2.86-4.16-7.475,0-4.745,1.755-6.89,3.9-6.89,2.6,0,4.29,2.99,4.29,7.735C820.235-12.61,818.415-10.79,816.205-10.79ZM812.5,4.16h6.37c2.73,0,4.68.26,4.68,2.275,0,3.12-4.68,4.94-9.685,4.94-4.03,0-6.175-1.3-6.175-4.16a6.264,6.264,0,0,1,1.04-3.445A15.623,15.623,0,0,0,812.5,4.16ZM29.575,73.84l-.26-.325V49.725l-.91-.455L17.68,54.47v.78l4.16,2.6V72.28a16.236,16.236,0,0,1-4.485.65c-3.575,0-5.07-1.43-5.07-6.045V50.18l-.91-.455L.65,54.925v.78l4.16,2.6V70.98c0,4.94,2.6,7.67,7.475,7.67,3.77,0,6.37-1.885,9.555-4.55V78H32.5V73.84Zm13-29.25a4.518,4.518,0,1,0-4.55-4.55A4.508,4.508,0,0,0,42.575,44.59ZM35.815,78H49.79V73.84H46.865l-.325-.325V49.66l-.845-.39L34.9,54.4v.78l4.16,2.6v15.73l-.325.325H35.815Zm26.585.65a15.34,15.34,0,0,0,9.75-3.77l-1.235-2.275a11.355,11.355,0,0,1-4.81,1.43c-2.6,0-3.575-1.82-3.575-7.02V54.86h8.645V50.7H62.53V42.965h-.845L51.09,54.015v.845h3.64l.325.325v14.95C55.055,76.375,57.72,78.65,62.4,78.65Zm51.61-4.81-.325-.325V31.655l-.845-.455-10.79,5.2v.78l4.16,2.6V50.7a11.658,11.658,0,0,0-4.875-.975c-8.19,0-14.04,6.695-14.04,15.6,0,7.345,3.835,13.325,10.075,13.325,3.315,0,5.72-1.69,8.84-4.03V78h10.725V73.84Zm-11.895-.78c-4.355,0-6.89-3.315-6.89-9.815,0-6.11,2.08-9.62,5.915-9.62,2.145,0,3.77,1.1,5.07,3.38v15.47A16.756,16.756,0,0,1,102.115,73.06Zm35.36,1.17c-5.33,0-8.32-3.835-8.775-10.075h16.12a17.611,17.611,0,0,0,.325-3.51c0-6.435-4.095-10.92-10.725-10.92-8,0-13.715,6.565-13.715,14.95,0,8.515,5.98,13.975,13.715,13.975a16.725,16.725,0,0,0,10.465-3.77l-1.235-2.275A13.9,13.9,0,0,1,137.475,74.23ZM133.51,53.495c2.665,0,4.29,1.82,4.42,7.28H128.7C128.96,56.03,130.65,53.495,133.51,53.495ZM162.045,78H182.91V73.645h-6.24l-.325-.325V47.125h-14.3V51.48h6.175l.325.325V73.32l-.325.325h-6.175ZM203.9,52.65a16,16,0,0,0-7.41,1.82c2.47-7.28,8.45-12.675,16.315-15.665l-1.1-2.99c-13.715,3.64-24.9,14.3-24.9,26.455,0,10.79,6.63,16.7,15.275,16.7,8.385,0,14.625-6.11,14.625-14.365C216.71,58.11,212.1,52.65,203.9,52.65ZM202.41,75.075c-4.615,0-7.15-4.615-7.15-12.87a23.953,23.953,0,0,1,.26-3.77,18.665,18.665,0,0,1,5.265-.91c4.94,0,7.475,3.575,7.475,8.255C208.26,71.695,205.985,75.075,202.41,75.075Zm44.915-1.235L247,73.515V31.655l-.845-.455-10.79,5.2v.78l4.16,2.6V50.7a11.658,11.658,0,0,0-4.875-.975c-8.19,0-14.04,6.695-14.04,15.6,0,7.345,3.835,13.325,10.075,13.325,3.315,0,5.72-1.69,8.84-4.03V78H250.25V73.84Zm-11.9-.78c-4.355,0-6.89-3.315-6.89-9.815,0-6.11,2.08-9.62,5.915-9.62,2.145,0,3.77,1.1,5.07,3.38v15.47A16.756,16.756,0,0,1,235.43,73.06Zm35.36,1.17c-5.33,0-8.32-3.835-8.775-10.075h16.12a17.611,17.611,0,0,0,.325-3.51c0-6.435-4.1-10.92-10.725-10.92-7.995,0-13.715,6.565-13.715,14.95,0,8.515,5.98,13.975,13.715,13.975A16.725,16.725,0,0,0,278.2,74.88l-1.235-2.275A13.9,13.9,0,0,1,270.79,74.23Zm-3.965-20.735c2.665,0,4.29,1.82,4.42,7.28h-9.23C262.275,56.03,263.965,53.495,266.825,53.495Zm44.33,20.735c-5.33,0-8.32-3.835-8.775-10.075H318.5a17.611,17.611,0,0,0,.325-3.51c0-6.435-4.1-10.92-10.725-10.92-7.995,0-13.715,6.565-13.715,14.95,0,8.515,5.98,13.975,13.715,13.975a16.725,16.725,0,0,0,10.465-3.77l-1.235-2.275A13.9,13.9,0,0,1,311.155,74.23ZM307.19,53.495c2.665,0,4.29,1.82,4.42,7.28h-9.23C302.64,56.03,304.33,53.495,307.19,53.495ZM351.065,73.9l-.325-.39V57.33c0-5.33-3.25-7.605-7.865-7.605-3.51,0-6.24,1.365-10.075,3.9l-.78-3.835-.845-.455-9.75,5.005v.845l4.16,2.535V73.515l-.325.325h-2.925V78H336.31V73.84h-2.925l-.325-.325V56.1a20.075,20.075,0,0,1,5.005-.78c3.705,0,5.2,1.43,5.2,6.63v11.57l-.325.325h-2.925V78H353.99V73.9ZM370.5,78h20.865V73.645h-6.24l-.325-.325V47.125H370.5V51.48h6.175l.325.325V73.32l-.325.325H370.5Zm25.415-30.875V61.75h.975l4.615-7.865h15.73L398.06,84.825l8.775,2.6,16.64-38.48v-1.82Zm57.33,26.715-.325-.325V31.655l-.845-.455-10.79,5.2v.78l4.16,2.6V50.7a11.658,11.658,0,0,0-4.875-.975c-8.19,0-14.04,6.695-14.04,15.6,0,7.345,3.835,13.325,10.075,13.325,3.315,0,5.72-1.69,8.84-4.03V78H456.17V73.84Zm-11.895-.78c-4.355,0-6.89-3.315-6.89-9.815,0-6.11,2.08-9.62,5.915-9.62,2.145,0,3.77,1.1,5.07,3.38v15.47A16.756,16.756,0,0,1,441.35,73.06Zm35.36,1.17c-5.33,0-8.32-3.835-8.775-10.075h16.12a17.611,17.611,0,0,0,.325-3.51c0-6.435-4.1-10.92-10.725-10.92-7.995,0-13.715,6.565-13.715,14.95,0,8.515,5.98,13.975,13.715,13.975a16.725,16.725,0,0,0,10.465-3.77l-1.235-2.275A13.9,13.9,0,0,1,476.71,74.23Zm-3.965-20.735c2.665,0,4.29,1.82,4.42,7.28h-9.23C468.195,56.03,469.885,53.495,472.745,53.495Zm44.33,20.735c-5.33,0-8.32-3.835-8.775-10.075h16.12a17.611,17.611,0,0,0,.325-3.51c0-6.435-4.095-10.92-10.725-10.92-7.995,0-13.715,6.565-13.715,14.95,0,8.515,5.98,13.975,13.715,13.975a16.725,16.725,0,0,0,10.465-3.77l-1.235-2.275A13.9,13.9,0,0,1,517.075,74.23ZM513.11,53.495c2.665,0,4.29,1.82,4.42,7.28H508.3C508.56,56.03,510.25,53.495,513.11,53.495ZM545.09,74.23c-5.33,0-8.32-3.835-8.775-10.075h16.12a17.611,17.611,0,0,0,.325-3.51c0-6.435-4.1-10.92-10.725-10.92-7.995,0-13.715,6.565-13.715,14.95,0,8.515,5.98,13.975,13.715,13.975A16.725,16.725,0,0,0,552.5,74.88l-1.235-2.275A13.9,13.9,0,0,1,545.09,74.23Zm-3.965-20.735c2.665,0,4.29,1.82,4.42,7.28h-9.23C536.575,56.03,538.265,53.495,541.125,53.495ZM583.96,73.84l-.26-.325V49.725l-.91-.455-10.725,5.2v.78l4.16,2.6V72.28a16.236,16.236,0,0,1-4.485.65c-3.575,0-5.07-1.43-5.07-6.045V50.18l-.91-.455-10.725,5.2v.78l4.16,2.6V70.98c0,4.94,2.6,7.67,7.475,7.67,3.77,0,6.37-1.885,9.555-4.55V78h10.66V73.84ZM621.92,50.7v.845l3.965,3.575-5.07,13.585h-.325l-5.98-18.72-7.345,2.145,3.12,8L605.28,69.16h-.325L599.3,55.185l3.9-3.64V50.7H587.21v.91l3.965,3.575,10.4,23.465h2.665l7.8-13.975L617.5,78.65h2.86l10.075-23.465,4.16-3.64V50.7Zm13.91,18.525a4.868,4.868,0,0,0-.715,9.685c-.455,3.445-2.6,5.46-5.525,6.76l1.43,2.665c6.89-2.73,9.685-8.45,9.685-12.935C640.705,71.5,638.56,69.225,635.83,69.225Zm45.825-10.92v4.55h5.2l.325.325V74.035a15.95,15.95,0,0,1-5.785.845c-7.6,0-12.675-6.305-12.675-18.265,0-11.245,4.095-17.745,11.895-17.745a12.427,12.427,0,0,1,7.8,2.6l4.225,7.865h.975V36.66a35.726,35.726,0,0,0-11.765-1.885c-12.935,0-22.23,8.905-22.23,22.88,0,13.195,9.23,21.32,21.19,21.32A28.106,28.106,0,0,0,695.3,75.01V63.18l.325-.325h3.705v-4.55ZM719.68,74.23c-5.33,0-8.32-3.835-8.775-10.075h16.12a17.611,17.611,0,0,0,.325-3.51c0-6.435-4.1-10.92-10.725-10.92-7.995,0-13.715,6.565-13.715,14.95,0,8.515,5.98,13.975,13.715,13.975a16.725,16.725,0,0,0,10.465-3.77l-1.235-2.275A13.9,13.9,0,0,1,719.68,74.23Zm-3.965-20.735c2.665,0,4.29,1.82,4.42,7.28h-9.23C711.165,56.03,712.855,53.495,715.715,53.495ZM759.59,73.9l-.325-.39V57.33c0-5.33-3.25-7.605-7.865-7.605-3.51,0-6.24,1.365-10.075,3.9l-.78-3.835-.845-.455-9.75,5.005v.845l4.16,2.535V73.515l-.325.325H730.86V78h13.975V73.84H741.91l-.325-.325V56.1a20.075,20.075,0,0,1,5.005-.78c3.705,0,5.2,1.43,5.2,6.63v11.57l-.325.325H748.54V78h13.975V73.9Zm15.8,4.745a15.34,15.34,0,0,0,9.75-3.77L783.9,72.605a11.355,11.355,0,0,1-4.81,1.43c-2.6,0-3.575-1.82-3.575-7.02V54.86h8.645V50.7h-8.645V42.965h-.845l-10.595,11.05v.845h3.64l.325.325v14.95C768.04,76.375,770.705,78.65,775.385,78.65Zm18.72.325A4.875,4.875,0,1,0,789.23,74.1,4.868,4.868,0,0,0,794.105,78.975Z" transform="translate(897 255)" fill="#7765b4"/>
    <path id="Path_174" data-name="Path 174" d="M10.534,38.79h12.42V45H2.76V11.489h7.774ZM35.926,20.781a12.281,12.281,0,0,1,4.335.736,9.425,9.425,0,0,1,3.381,2.139,9.763,9.763,0,0,1,2.208,3.438,12.618,12.618,0,0,1,.793,4.611,10.066,10.066,0,0,1-.069,1.311,2.075,2.075,0,0,1-.253.805.963.963,0,0,1-.494.414,2.316,2.316,0,0,1-.793.115H31.28A6.724,6.724,0,0,0,33.1,38.687a5.406,5.406,0,0,0,3.795,1.346,6.793,6.793,0,0,0,2.139-.3,10.791,10.791,0,0,0,1.6-.667q.7-.368,1.288-.667a2.674,2.674,0,0,1,1.23-.3,1.474,1.474,0,0,1,1.288.621l2.07,2.553a10.6,10.6,0,0,1-2.381,2.059A12.371,12.371,0,0,1,41.5,44.575a14.212,14.212,0,0,1-2.691.621,20.194,20.194,0,0,1-2.564.173,13.39,13.39,0,0,1-4.7-.817A10.808,10.808,0,0,1,27.7,42.125a11.449,11.449,0,0,1-2.6-4,14.953,14.953,0,0,1-.955-5.566,12.6,12.6,0,0,1,.817-4.531,11.007,11.007,0,0,1,6.049-6.3A12.222,12.222,0,0,1,35.926,20.781Zm.138,4.922a4.3,4.3,0,0,0-3.2,1.161,6.052,6.052,0,0,0-1.518,3.346h8.9a6.294,6.294,0,0,0-.218-1.656,4.015,4.015,0,0,0-.713-1.437,3.628,3.628,0,0,0-1.3-1.024A4.444,4.444,0,0,0,36.064,25.7ZM60.95,20.781a12.281,12.281,0,0,1,4.335.736,9.425,9.425,0,0,1,3.381,2.139,9.763,9.763,0,0,1,2.208,3.438,12.618,12.618,0,0,1,.793,4.611,10.066,10.066,0,0,1-.069,1.311,2.075,2.075,0,0,1-.253.805.963.963,0,0,1-.494.414,2.316,2.316,0,0,1-.794.115H56.3a6.724,6.724,0,0,0,1.817,4.336,5.406,5.406,0,0,0,3.795,1.346,6.793,6.793,0,0,0,2.139-.3,10.792,10.792,0,0,0,1.6-.667q.7-.368,1.288-.667a2.674,2.674,0,0,1,1.23-.3,1.474,1.474,0,0,1,1.288.621l2.07,2.553a10.6,10.6,0,0,1-2.381,2.059,12.37,12.37,0,0,1-2.622,1.242,14.212,14.212,0,0,1-2.691.621,20.194,20.194,0,0,1-2.564.173,13.39,13.39,0,0,1-4.7-.817,10.808,10.808,0,0,1-3.841-2.426,11.449,11.449,0,0,1-2.6-4,14.953,14.953,0,0,1-.955-5.566,12.6,12.6,0,0,1,.817-4.531,11.007,11.007,0,0,1,6.049-6.3A12.222,12.222,0,0,1,60.95,20.781Zm.138,4.922a4.3,4.3,0,0,0-3.2,1.161,6.052,6.052,0,0,0-1.518,3.346h8.9a6.294,6.294,0,0,0-.219-1.656,4.015,4.015,0,0,0-.713-1.437,3.628,3.628,0,0,0-1.3-1.024A4.444,4.444,0,0,0,61.088,25.7Zm29.256.667a1.844,1.844,0,0,1-.587.621,1.539,1.539,0,0,1-.794.184,2.535,2.535,0,0,1-1.012-.219l-1.092-.471a11.9,11.9,0,0,0-1.322-.472,5.9,5.9,0,0,0-1.679-.219,3.551,3.551,0,0,0-2.082.517,1.668,1.668,0,0,0-.724,1.438,1.441,1.441,0,0,0,.471,1.1,4.326,4.326,0,0,0,1.254.771,17.288,17.288,0,0,0,1.771.632q.989.3,2.024.667a18.024,18.024,0,0,1,2.024.862,7.57,7.57,0,0,1,1.771,1.219,5.441,5.441,0,0,1,1.254,1.759,5.959,5.959,0,0,1,.471,2.484,8.168,8.168,0,0,1-.644,3.266,6.935,6.935,0,0,1-1.921,2.576,9.082,9.082,0,0,1-3.151,1.679,14.193,14.193,0,0,1-4.312.6,13.123,13.123,0,0,1-2.438-.23,16.886,16.886,0,0,1-2.357-.621,12.843,12.843,0,0,1-2.1-.931,9.127,9.127,0,0,1-1.656-1.161L75.164,39.8a2.384,2.384,0,0,1,.713-.725,1.98,1.98,0,0,1,1.081-.264,2.249,2.249,0,0,1,1.116.276l1.069.6a8.916,8.916,0,0,0,1.346.6,5.834,5.834,0,0,0,1.943.276,4.937,4.937,0,0,0,1.4-.173,2.472,2.472,0,0,0,.92-.472,1.848,1.848,0,0,0,.667-1.426,1.549,1.549,0,0,0-.483-1.173,4.208,4.208,0,0,0-1.265-.794,15.423,15.423,0,0,0-1.783-.621q-1-.287-2.035-.655a16.35,16.35,0,0,1-2.036-.886,7,7,0,0,1-1.782-1.311,6.092,6.092,0,0,1-1.265-1.943,7.179,7.179,0,0,1-.483-2.783,7.251,7.251,0,0,1,.586-2.886,6.7,6.7,0,0,1,1.76-2.4,8.639,8.639,0,0,1,2.944-1.644,12.728,12.728,0,0,1,4.14-.61,13.31,13.31,0,0,1,2.5.23,12.753,12.753,0,0,1,2.265.644,10.85,10.85,0,0,1,1.932.977,9.278,9.278,0,0,1,1.541,1.23ZM110.032,21.7V45h-4.094V21.7Zm.92-7.314a2.6,2.6,0,0,1-.242,1.115,3.212,3.212,0,0,1-.644.92,2.992,2.992,0,0,1-.932.632,2.8,2.8,0,0,1-1.127.23,2.715,2.715,0,0,1-1.116-.23A3.066,3.066,0,0,1,105.34,15.5a2.715,2.715,0,0,1-.23-1.115,2.878,2.878,0,0,1,.23-1.139,2.956,2.956,0,0,1,.632-.943,3.032,3.032,0,0,1,.92-.632,2.715,2.715,0,0,1,1.116-.23,2.8,2.8,0,0,1,1.127.23,2.992,2.992,0,0,1,.932.632,3.119,3.119,0,0,1,.644.943A2.76,2.76,0,0,1,110.952,14.387ZM117.254,45V21.7h2.438a1.044,1.044,0,0,1,1.1.851l.322,2.53a13.1,13.1,0,0,1,3.393-2.714,8.823,8.823,0,0,1,4.336-1.035,8.413,8.413,0,0,1,3.369.633,6.519,6.519,0,0,1,2.438,1.794,7.923,7.923,0,0,1,1.484,2.795,12.161,12.161,0,0,1,.506,3.611V45h-4.094V30.165a6.271,6.271,0,0,0-1.208-4.106A4.514,4.514,0,0,0,127.65,24.6a6.882,6.882,0,0,0-3.392.874,11.172,11.172,0,0,0-2.91,2.369V45Zm50.853,0a1.044,1.044,0,0,1-1.1-.851l-.368-2.829a12.265,12.265,0,0,1-3.415,2.91,8.75,8.75,0,0,1-4.4,1.092,8.41,8.41,0,0,1-3.634-.771,7.536,7.536,0,0,1-2.783-2.265,10.791,10.791,0,0,1-1.771-3.726,19.183,19.183,0,0,1-.621-5.129,16.076,16.076,0,0,1,.69-4.8,11.688,11.688,0,0,1,1.99-3.853,9.125,9.125,0,0,1,7.395-3.5,8.43,8.43,0,0,1,3.657.725,8.768,8.768,0,0,1,2.714,2.035V11.121h4.094V45Zm-7.935-2.99a6.6,6.6,0,0,0,3.507-.92,10.111,10.111,0,0,0,2.771-2.6V27.221a6.478,6.478,0,0,0-2.473-2.128,7.135,7.135,0,0,0-2.979-.61,5.9,5.9,0,0,0-5.014,2.323,10.85,10.85,0,0,0-1.748,6.624,16.843,16.843,0,0,0,.391,3.9A7.5,7.5,0,0,0,155.779,40a4.519,4.519,0,0,0,1.863,1.529A6.257,6.257,0,0,0,160.172,42.01ZM180.964,21.7V36.559a6.183,6.183,0,0,0,1.219,4.094,4.538,4.538,0,0,0,3.68,1.449,7.049,7.049,0,0,0,3.381-.851,10.516,10.516,0,0,0,2.921-2.369V21.7h4.094V45h-2.438a1.044,1.044,0,0,1-1.1-.851l-.322-2.507a12.816,12.816,0,0,1-3.4,2.7,8.921,8.921,0,0,1-4.324,1.023,8.413,8.413,0,0,1-3.369-.632,6.68,6.68,0,0,1-2.45-1.783,7.57,7.57,0,0,1-1.483-2.783,12.424,12.424,0,0,1-.495-3.611V21.7Zm31.464-.368a11.967,11.967,0,0,1,4.612.851,9.723,9.723,0,0,1,3.5,2.415,10.691,10.691,0,0,1,2.208,3.784,15.044,15.044,0,0,1,.771,4.957,15.017,15.017,0,0,1-.771,4.968,10.708,10.708,0,0,1-2.208,3.772,9.6,9.6,0,0,1-3.5,2.4,13.086,13.086,0,0,1-9.223,0,9.711,9.711,0,0,1-3.507-2.4,10.753,10.753,0,0,1-2.231-3.772,14.815,14.815,0,0,1-.782-4.968,14.842,14.842,0,0,1,.782-4.957,10.736,10.736,0,0,1,2.231-3.784,9.835,9.835,0,0,1,3.507-2.415A11.967,11.967,0,0,1,212.428,21.333Zm0,20.792a5.981,5.981,0,0,0,5.152-2.312,10.7,10.7,0,0,0,1.7-6.451,10.8,10.8,0,0,0-1.7-6.486,5.969,5.969,0,0,0-5.152-2.323,7.15,7.15,0,0,0-3.036.6,5.682,5.682,0,0,0-2.15,1.725,7.662,7.662,0,0,0-1.288,2.771,14.856,14.856,0,0,0-.426,3.715,14.718,14.718,0,0,0,.426,3.7,7.548,7.548,0,0,0,1.288,2.749,5.727,5.727,0,0,0,2.15,1.714A7.15,7.15,0,0,0,212.428,42.125Zm34.247-20.792a10.4,10.4,0,0,1,3.864.7,8.673,8.673,0,0,1,3.059,2.024,9.228,9.228,0,0,1,2.012,3.266,12.617,12.617,0,0,1,.725,4.427,2.67,2.67,0,0,1-.207,1.288.86.86,0,0,1-.782.322h-15.5a12.863,12.863,0,0,0,.6,3.841,7.854,7.854,0,0,0,1.518,2.726,6.082,6.082,0,0,0,2.3,1.633,7.9,7.9,0,0,0,2.99.541,8.772,8.772,0,0,0,2.656-.357,12.639,12.639,0,0,0,1.921-.771,14.649,14.649,0,0,0,1.346-.771,1.784,1.784,0,0,1,.931-.356.9.9,0,0,1,.782.391l1.15,1.5a7.776,7.776,0,0,1-1.817,1.6,11.313,11.313,0,0,1-2.266,1.116,14.389,14.389,0,0,1-2.5.655,15.242,15.242,0,0,1-2.553.218,11.847,11.847,0,0,1-4.451-.816,9.768,9.768,0,0,1-3.519-2.392,10.973,10.973,0,0,1-2.312-3.9,15.853,15.853,0,0,1-.828-5.336,13.576,13.576,0,0,1,.747-4.554,10.734,10.734,0,0,1,2.151-3.668,9.9,9.9,0,0,1,3.427-2.438A11.25,11.25,0,0,1,246.675,21.333Zm.092,3.013a6.285,6.285,0,0,0-4.669,1.713,8.065,8.065,0,0,0-2.116,4.75h12.673a8.29,8.29,0,0,0-.391-2.611,5.817,5.817,0,0,0-1.15-2.047,5.147,5.147,0,0,0-1.852-1.334A6.244,6.244,0,0,0,246.767,24.346Zm24.012-3.013a10.4,10.4,0,0,1,3.864.7,8.673,8.673,0,0,1,3.059,2.024,9.228,9.228,0,0,1,2.013,3.266,12.618,12.618,0,0,1,.724,4.427,2.67,2.67,0,0,1-.207,1.288.86.86,0,0,1-.782.322h-15.5a12.863,12.863,0,0,0,.6,3.841,7.854,7.854,0,0,0,1.518,2.726,6.082,6.082,0,0,0,2.3,1.633,7.9,7.9,0,0,0,2.99.541,8.772,8.772,0,0,0,2.656-.357,12.637,12.637,0,0,0,1.921-.771,14.649,14.649,0,0,0,1.345-.771,1.784,1.784,0,0,1,.932-.356.9.9,0,0,1,.782.391l1.15,1.5a7.776,7.776,0,0,1-1.817,1.6,11.314,11.314,0,0,1-2.266,1.116,14.389,14.389,0,0,1-2.5.655,15.243,15.243,0,0,1-2.553.218,11.847,11.847,0,0,1-4.451-.816,9.768,9.768,0,0,1-3.519-2.392,10.974,10.974,0,0,1-2.311-3.9,15.853,15.853,0,0,1-.828-5.336,13.576,13.576,0,0,1,.747-4.554,10.734,10.734,0,0,1,2.151-3.668,9.9,9.9,0,0,1,3.427-2.438A11.25,11.25,0,0,1,270.779,21.333Zm.092,3.013a6.285,6.285,0,0,0-4.669,1.713,8.065,8.065,0,0,0-2.116,4.75h12.673a8.29,8.29,0,0,0-.391-2.611,5.817,5.817,0,0,0-1.15-2.047,5.147,5.147,0,0,0-1.852-1.334A6.244,6.244,0,0,0,270.871,24.346ZM285.66,45V21.7H288.1a1.044,1.044,0,0,1,1.1.851l.322,2.53a13.1,13.1,0,0,1,3.393-2.714,8.823,8.823,0,0,1,4.336-1.035,8.413,8.413,0,0,1,3.369.633,6.519,6.519,0,0,1,2.438,1.794,7.923,7.923,0,0,1,1.483,2.795,12.161,12.161,0,0,1,.506,3.611V45h-4.094V30.165a6.271,6.271,0,0,0-1.208-4.106,4.514,4.514,0,0,0-3.691-1.461,6.882,6.882,0,0,0-3.392.874,11.173,11.173,0,0,0-2.91,2.369V45Zm31.51-23.3h3.358a1.263,1.263,0,0,1,.8.253,1.434,1.434,0,0,1,.46.6l5.911,15a11.377,11.377,0,0,1,.506,1.656q.184.828.345,1.633.184-.8.391-1.633a13.807,13.807,0,0,1,.529-1.656l5.98-15a1.365,1.365,0,0,1,.448-.61,1.217,1.217,0,0,1,.771-.241h3.2l-9.5,23.3h-3.7Zm35.121-.368a10.4,10.4,0,0,1,3.864.7,8.673,8.673,0,0,1,3.059,2.024,9.228,9.228,0,0,1,2.013,3.266,12.618,12.618,0,0,1,.724,4.427,2.67,2.67,0,0,1-.207,1.288.86.86,0,0,1-.782.322h-15.5a12.863,12.863,0,0,0,.6,3.841,7.854,7.854,0,0,0,1.518,2.726,6.082,6.082,0,0,0,2.3,1.633,7.9,7.9,0,0,0,2.99.541,8.772,8.772,0,0,0,2.656-.357,12.637,12.637,0,0,0,1.921-.771,14.649,14.649,0,0,0,1.345-.771,1.784,1.784,0,0,1,.932-.356.9.9,0,0,1,.782.391l1.15,1.5a7.776,7.776,0,0,1-1.817,1.6,11.314,11.314,0,0,1-2.266,1.116,14.389,14.389,0,0,1-2.5.655,15.243,15.243,0,0,1-2.553.218,11.847,11.847,0,0,1-4.451-.816,9.768,9.768,0,0,1-3.519-2.392,10.974,10.974,0,0,1-2.311-3.9,15.853,15.853,0,0,1-.828-5.336,13.576,13.576,0,0,1,.747-4.554,10.734,10.734,0,0,1,2.151-3.668,9.9,9.9,0,0,1,3.427-2.438A11.25,11.25,0,0,1,352.291,21.333Zm.092,3.013a6.285,6.285,0,0,0-4.669,1.713,8.065,8.065,0,0,0-2.116,4.75h12.673a8.29,8.29,0,0,0-.391-2.611,5.817,5.817,0,0,0-1.15-2.047,5.147,5.147,0,0,0-1.852-1.334A6.244,6.244,0,0,0,352.383,24.346ZM367.172,45V21.7h2.346a1.3,1.3,0,0,1,.92.253,1.551,1.551,0,0,1,.345.874l.276,3.634a10.657,10.657,0,0,1,2.956-3.806,6.964,6.964,0,0,1,5.876-1.15,6.093,6.093,0,0,1,1.449.609l-.529,3.059a.692.692,0,0,1-.713.575,3.578,3.578,0,0,1-.989-.219,6.238,6.238,0,0,0-1.863-.219,5.277,5.277,0,0,0-3.577,1.242,9.324,9.324,0,0,0-2.4,3.611V45Zm18.538,0V11.121H389.8V24.829a12.572,12.572,0,0,1,3.312-2.542,8.87,8.87,0,0,1,4.186-.955,8.413,8.413,0,0,1,3.369.633,6.519,6.519,0,0,1,2.438,1.794,7.923,7.923,0,0,1,1.483,2.795,12.161,12.161,0,0,1,.506,3.611V45h-4.094V30.165a6.271,6.271,0,0,0-1.208-4.106,4.514,4.514,0,0,0-3.691-1.461,6.882,6.882,0,0,0-3.392.874,11.173,11.173,0,0,0-2.91,2.369V45ZM428.4,45h-1.817a2.169,2.169,0,0,1-.966-.184,1.018,1.018,0,0,1-.483-.782l-.46-2.162q-.92.828-1.794,1.483a10.267,10.267,0,0,1-1.84,1.1,9.534,9.534,0,0,1-2.058.679,11.806,11.806,0,0,1-2.427.23,8.283,8.283,0,0,1-2.542-.38,5.794,5.794,0,0,1-2.059-1.139,5.421,5.421,0,0,1-1.391-1.92,6.711,6.711,0,0,1-.518-2.749,5.126,5.126,0,0,1,.759-2.657,6.67,6.67,0,0,1,2.449-2.265,15.958,15.958,0,0,1,4.428-1.621,33.731,33.731,0,0,1,6.693-.725V30.1a6.272,6.272,0,0,0-1.161-4.106,4.223,4.223,0,0,0-3.439-1.392,7.289,7.289,0,0,0-2.518.379,9.532,9.532,0,0,0-1.771.851q-.747.471-1.288.851a1.858,1.858,0,0,1-1.069.38,1.227,1.227,0,0,1-.724-.219,1.664,1.664,0,0,1-.495-.541l-.736-1.311a13.3,13.3,0,0,1,4.163-2.783,12.854,12.854,0,0,1,4.945-.92,8.823,8.823,0,0,1,3.473.644,7.123,7.123,0,0,1,2.553,1.794,7.6,7.6,0,0,1,1.564,2.783A11.591,11.591,0,0,1,428.4,30.1Zm-10.626-2.507a8.358,8.358,0,0,0,1.978-.219,7.808,7.808,0,0,0,1.691-.621,8.959,8.959,0,0,0,1.518-.978,13.151,13.151,0,0,0,1.415-1.311V34.512a33.832,33.832,0,0,0-4.807.448,13.483,13.483,0,0,0-3.22.931,4.485,4.485,0,0,0-1.806,1.357A2.919,2.919,0,0,0,413.977,39a3.857,3.857,0,0,0,.3,1.587,3.008,3.008,0,0,0,.8,1.092,3.178,3.178,0,0,0,1.2.621A5.466,5.466,0,0,0,417.772,42.493ZM451.72,45H449.9a2.169,2.169,0,0,1-.966-.184,1.018,1.018,0,0,1-.483-.782l-.46-2.162q-.92.828-1.794,1.483a10.267,10.267,0,0,1-1.84,1.1,9.534,9.534,0,0,1-2.058.679,11.807,11.807,0,0,1-2.427.23,8.283,8.283,0,0,1-2.542-.38,5.794,5.794,0,0,1-2.059-1.139,5.421,5.421,0,0,1-1.391-1.92,6.711,6.711,0,0,1-.518-2.749,5.126,5.126,0,0,1,.759-2.657,6.67,6.67,0,0,1,2.449-2.265A15.958,15.958,0,0,1,441,32.638a33.731,33.731,0,0,1,6.693-.725V30.1a6.272,6.272,0,0,0-1.161-4.106A4.223,4.223,0,0,0,443.1,24.6a7.289,7.289,0,0,0-2.518.379,9.532,9.532,0,0,0-1.771.851q-.747.471-1.288.851a1.858,1.858,0,0,1-1.069.38,1.227,1.227,0,0,1-.724-.219,1.664,1.664,0,0,1-.495-.541l-.736-1.311a13.3,13.3,0,0,1,4.163-2.783,12.854,12.854,0,0,1,4.945-.92,8.823,8.823,0,0,1,3.473.644,7.123,7.123,0,0,1,2.553,1.794,7.6,7.6,0,0,1,1.564,2.783,11.591,11.591,0,0,1,.529,3.588Zm-10.626-2.507a8.358,8.358,0,0,0,1.978-.219,7.808,7.808,0,0,0,1.691-.621,8.959,8.959,0,0,0,1.518-.978,13.151,13.151,0,0,0,1.415-1.311V34.512a33.832,33.832,0,0,0-4.807.448,13.483,13.483,0,0,0-3.22.931,4.485,4.485,0,0,0-1.806,1.357A2.919,2.919,0,0,0,437.3,39a3.857,3.857,0,0,0,.3,1.587,3.008,3.008,0,0,0,.805,1.092,3.177,3.177,0,0,0,1.2.621A5.466,5.466,0,0,0,441.094,42.493Zm21.39-31.372V45H458.39V11.121Zm5.888,31.349a2.923,2.923,0,0,1,.219-1.127,2.89,2.89,0,0,1,.6-.92,2.865,2.865,0,0,1,3.163-.621,2.95,2.95,0,0,1,.92.621,2.8,2.8,0,0,1,.609.92,3.045,3.045,0,0,1,0,2.266,2.827,2.827,0,0,1-.609.908,2.8,2.8,0,0,1-.92.61,3.016,3.016,0,0,1-2.254,0,2.67,2.67,0,0,1-.909-.61,2.881,2.881,0,0,1-.816-2.047Z" transform="translate(1046 454)" fill="#1a1a1a"/>
    <path id="Path_175" data-name="Path 175" d="M33.948,45H27.922a2.785,2.785,0,0,1-1.667-.472,2.435,2.435,0,0,1-.908-1.208l-1.978-5.842H10.626L8.648,43.321A2.664,2.664,0,0,1,6.118,45H.046L13.018,11.489h7.958ZM12.42,32.189h9.154l-3.082-9.177q-.3-.874-.7-2.059T17,18.389q-.368,1.4-.759,2.6t-.736,2.07ZM36.662,45V21.149h4.416a1.968,1.968,0,0,1,1.116.3,1.6,1.6,0,0,1,.632.9l.414,1.38a17.323,17.323,0,0,1,1.426-1.2,8.351,8.351,0,0,1,1.576-.931,9.351,9.351,0,0,1,1.817-.6,9.75,9.75,0,0,1,2.127-.219,8.35,8.35,0,0,1,3.461.679,7.183,7.183,0,0,1,2.542,1.886,8.141,8.141,0,0,1,1.564,2.875,11.922,11.922,0,0,1,.529,3.623V45h-7.13V29.843a4.171,4.171,0,0,0-.805-2.726,2.891,2.891,0,0,0-2.369-.978,4.961,4.961,0,0,0-2.208.506A8.586,8.586,0,0,0,43.792,28V45ZM79.81,45a3.34,3.34,0,0,1-1.529-.276,2.109,2.109,0,0,1-.863-1.15l-.506-1.311q-.9.759-1.725,1.334a10.932,10.932,0,0,1-1.713.978,8.462,8.462,0,0,1-1.886.6,11.607,11.607,0,0,1-2.219.2,9.732,9.732,0,0,1-2.967-.425,6.19,6.19,0,0,1-2.266-1.254A5.512,5.512,0,0,1,62.7,41.631a7.423,7.423,0,0,1-.506-2.84,5.957,5.957,0,0,1,.644-2.6,6.412,6.412,0,0,1,2.231-2.427,14.179,14.179,0,0,1,4.278-1.828,28.7,28.7,0,0,1,6.785-.828V30.1a4.373,4.373,0,0,0-.863-3.025,3.173,3.173,0,0,0-2.45-.931,6.5,6.5,0,0,0-2.07.276,9.306,9.306,0,0,0-1.437.621q-.633.345-1.23.621a3.38,3.38,0,0,1-1.426.276,2.155,2.155,0,0,1-1.254-.357,2.648,2.648,0,0,1-.816-.885L63.3,24.461a14.5,14.5,0,0,1,4.8-2.84,16.811,16.811,0,0,1,5.646-.932,10.327,10.327,0,0,1,3.9.7,8.39,8.39,0,0,1,2.944,1.955,8.542,8.542,0,0,1,1.852,2.979,10.7,10.7,0,0,1,.644,3.772V45Zm-8.188-4.347a5.657,5.657,0,0,0,2.415-.483,7.357,7.357,0,0,0,2.093-1.564V35.294a23.671,23.671,0,0,0-3.519.368,8.548,8.548,0,0,0-2.185.69,2.644,2.644,0,0,0-1.116.943A2.232,2.232,0,0,0,69,38.445a2,2,0,0,0,.667,1.714A3.254,3.254,0,0,0,71.622,40.653ZM95.5,10.569V45h-7.13V10.569ZM111,51.187a2.036,2.036,0,0,1-2.254,1.38h-5.336l4.6-9.66L98.486,21.149h6.3a2.012,2.012,0,0,1,1.288.368,1.975,1.975,0,0,1,.644.874l3.91,10.281a22.655,22.655,0,0,1,.9,2.852q.23-.736.506-1.449t.529-1.449L116.1,22.391a1.745,1.745,0,0,1,.724-.885,2.071,2.071,0,0,1,1.161-.356h5.75ZM141.266,26.37a1.844,1.844,0,0,1-.587.621,1.539,1.539,0,0,1-.794.184,2.535,2.535,0,0,1-1.012-.219l-1.092-.471a11.9,11.9,0,0,0-1.323-.472,5.9,5.9,0,0,0-1.679-.219,3.551,3.551,0,0,0-2.081.517,1.668,1.668,0,0,0-.725,1.438,1.441,1.441,0,0,0,.471,1.1,4.326,4.326,0,0,0,1.254.771,17.288,17.288,0,0,0,1.771.632q.989.3,2.024.667a18.023,18.023,0,0,1,2.024.862,7.57,7.57,0,0,1,1.771,1.219,5.442,5.442,0,0,1,1.254,1.759,5.959,5.959,0,0,1,.471,2.484,8.168,8.168,0,0,1-.644,3.266,6.935,6.935,0,0,1-1.92,2.576A9.082,9.082,0,0,1,137.3,44.77a14.193,14.193,0,0,1-4.312.6,13.123,13.123,0,0,1-2.438-.23,16.887,16.887,0,0,1-2.357-.621,12.843,12.843,0,0,1-2.1-.931,9.127,9.127,0,0,1-1.656-1.161l1.656-2.622a2.384,2.384,0,0,1,.713-.725,1.98,1.98,0,0,1,1.081-.264,2.249,2.249,0,0,1,1.115.276l1.07.6a8.916,8.916,0,0,0,1.346.6,5.834,5.834,0,0,0,1.943.276,4.937,4.937,0,0,0,1.4-.173,2.472,2.472,0,0,0,.92-.472,1.848,1.848,0,0,0,.667-1.426,1.549,1.549,0,0,0-.483-1.173,4.208,4.208,0,0,0-1.265-.794,15.423,15.423,0,0,0-1.783-.621q-1-.287-2.036-.655a16.349,16.349,0,0,1-2.035-.886,7,7,0,0,1-1.783-1.311,6.092,6.092,0,0,1-1.265-1.943,7.179,7.179,0,0,1-.483-2.783,7.251,7.251,0,0,1,.586-2.886,6.7,6.7,0,0,1,1.76-2.4,8.639,8.639,0,0,1,2.944-1.644,12.728,12.728,0,0,1,4.14-.61,13.31,13.31,0,0,1,2.5.23,12.753,12.753,0,0,1,2.265.644,10.851,10.851,0,0,1,1.932.977,9.278,9.278,0,0,1,1.541,1.23Zm15.87-5.589a12.281,12.281,0,0,1,4.335.736,9.425,9.425,0,0,1,3.381,2.139,9.763,9.763,0,0,1,2.208,3.438,12.618,12.618,0,0,1,.794,4.611,10.065,10.065,0,0,1-.069,1.311,2.075,2.075,0,0,1-.253.805.963.963,0,0,1-.494.414,2.316,2.316,0,0,1-.794.115H152.49a6.724,6.724,0,0,0,1.817,4.336,5.406,5.406,0,0,0,3.795,1.346,6.793,6.793,0,0,0,2.139-.3,10.791,10.791,0,0,0,1.6-.667q.7-.368,1.288-.667a2.674,2.674,0,0,1,1.23-.3,1.474,1.474,0,0,1,1.288.621l2.07,2.553a10.6,10.6,0,0,1-2.381,2.059,12.37,12.37,0,0,1-2.622,1.242,14.213,14.213,0,0,1-2.691.621,20.194,20.194,0,0,1-2.564.173,13.39,13.39,0,0,1-4.7-.817,10.808,10.808,0,0,1-3.841-2.426,11.449,11.449,0,0,1-2.6-4,14.953,14.953,0,0,1-.954-5.566,12.6,12.6,0,0,1,.816-4.531,11.007,11.007,0,0,1,6.049-6.3A12.222,12.222,0,0,1,157.136,20.781Zm.138,4.922a4.3,4.3,0,0,0-3.2,1.161,6.052,6.052,0,0,0-1.518,3.346h8.9a6.293,6.293,0,0,0-.219-1.656,4.015,4.015,0,0,0-.713-1.437,3.628,3.628,0,0,0-1.3-1.024A4.444,4.444,0,0,0,157.274,25.7Zm24.886-4.922a12.281,12.281,0,0,1,4.335.736,9.425,9.425,0,0,1,3.381,2.139,9.763,9.763,0,0,1,2.208,3.438,12.618,12.618,0,0,1,.794,4.611,10.065,10.065,0,0,1-.069,1.311,2.075,2.075,0,0,1-.253.805.963.963,0,0,1-.494.414,2.316,2.316,0,0,1-.794.115H177.514a6.724,6.724,0,0,0,1.817,4.336,5.406,5.406,0,0,0,3.795,1.346,6.793,6.793,0,0,0,2.139-.3,10.791,10.791,0,0,0,1.6-.667q.7-.368,1.288-.667a2.674,2.674,0,0,1,1.23-.3,1.474,1.474,0,0,1,1.288.621l2.07,2.553a10.6,10.6,0,0,1-2.381,2.059,12.37,12.37,0,0,1-2.622,1.242,14.213,14.213,0,0,1-2.691.621,20.194,20.194,0,0,1-2.564.173,13.39,13.39,0,0,1-4.7-.817,10.808,10.808,0,0,1-3.841-2.426,11.449,11.449,0,0,1-2.6-4,14.953,14.953,0,0,1-.954-5.566,12.6,12.6,0,0,1,.816-4.531,11.007,11.007,0,0,1,6.049-6.3A12.222,12.222,0,0,1,182.16,20.781ZM182.3,25.7a4.3,4.3,0,0,0-3.2,1.161,6.052,6.052,0,0,0-1.518,3.346h8.9a6.293,6.293,0,0,0-.219-1.656,4.015,4.015,0,0,0-.713-1.437,3.628,3.628,0,0,0-1.3-1.024A4.444,4.444,0,0,0,182.3,25.7ZM196.972,45V21.149H201.2a3.609,3.609,0,0,1,.885.092,1.553,1.553,0,0,1,.6.288,1.227,1.227,0,0,1,.368.517,4.666,4.666,0,0,1,.218.782l.391,2.231a11.688,11.688,0,0,1,2.944-3.2,5.982,5.982,0,0,1,3.565-1.173,4.107,4.107,0,0,1,2.622.782l-.92,5.244a1.024,1.024,0,0,1-.368.678,1.249,1.249,0,0,1-.736.2,4.882,4.882,0,0,1-.92-.1,7.132,7.132,0,0,0-1.334-.1q-2.806,0-4.416,2.99V45Zm28.474,0V11.121h4.094V24.829a12.573,12.573,0,0,1,3.312-2.542,8.87,8.87,0,0,1,4.186-.955,8.413,8.413,0,0,1,3.37.633,6.519,6.519,0,0,1,2.438,1.794,7.923,7.923,0,0,1,1.484,2.795,12.161,12.161,0,0,1,.506,3.611V45h-4.094V30.165a6.271,6.271,0,0,0-1.208-4.106,4.514,4.514,0,0,0-3.691-1.461,6.882,6.882,0,0,0-3.393.874,11.172,11.172,0,0,0-2.91,2.369V45Zm34.8-23.667a10.4,10.4,0,0,1,3.864.7,8.673,8.673,0,0,1,3.059,2.024,9.228,9.228,0,0,1,2.013,3.266,12.618,12.618,0,0,1,.724,4.427,2.67,2.67,0,0,1-.207,1.288.86.86,0,0,1-.782.322h-15.5a12.863,12.863,0,0,0,.6,3.841,7.854,7.854,0,0,0,1.518,2.726,6.082,6.082,0,0,0,2.3,1.633,7.9,7.9,0,0,0,2.99.541,8.772,8.772,0,0,0,2.656-.357,12.637,12.637,0,0,0,1.921-.771,14.649,14.649,0,0,0,1.345-.771,1.784,1.784,0,0,1,.932-.356.9.9,0,0,1,.782.391l1.15,1.5a7.776,7.776,0,0,1-1.817,1.6,11.314,11.314,0,0,1-2.266,1.116,14.389,14.389,0,0,1-2.5.655,15.243,15.243,0,0,1-2.553.218,11.847,11.847,0,0,1-4.451-.816,9.768,9.768,0,0,1-3.519-2.392,10.973,10.973,0,0,1-2.312-3.9,15.853,15.853,0,0,1-.828-5.336,13.576,13.576,0,0,1,.747-4.554,10.734,10.734,0,0,1,2.151-3.668,9.9,9.9,0,0,1,3.427-2.438A11.25,11.25,0,0,1,260.245,21.333Zm.092,3.013a6.285,6.285,0,0,0-4.669,1.713,8.065,8.065,0,0,0-2.116,4.75h12.673a8.29,8.29,0,0,0-.391-2.611,5.817,5.817,0,0,0-1.15-2.047,5.147,5.147,0,0,0-1.852-1.334A6.244,6.244,0,0,0,260.337,24.346Zm21.85,21.022a5.617,5.617,0,0,1-4.243-1.541,6.149,6.149,0,0,1-1.484-4.439V25.128h-2.806a.917.917,0,0,1-.621-.219.849.849,0,0,1-.253-.678V22.6l3.818-.483.943-7.2a.87.87,0,0,1,.3-.563.95.95,0,0,1,.644-.219h2.07v8.027h6.67v2.967h-6.67V39.112a2.975,2.975,0,0,0,.713,2.185,2.49,2.49,0,0,0,1.84.713,3.248,3.248,0,0,0,1.116-.173,4.787,4.787,0,0,0,.816-.38q.345-.207.587-.38a.768.768,0,0,1,.425-.173.7.7,0,0,1,.575.391l1.2,1.955a7.627,7.627,0,0,1-2.553,1.553A8.669,8.669,0,0,1,282.187,45.368ZM298.218,21.7h3.358a1.263,1.263,0,0,1,.8.253,1.434,1.434,0,0,1,.46.6l5.911,15a11.377,11.377,0,0,1,.506,1.656q.184.828.345,1.633.184-.8.391-1.633a13.807,13.807,0,0,1,.529-1.656l5.98-15a1.365,1.365,0,0,1,.448-.61,1.217,1.217,0,0,1,.771-.241h3.2L311.42,45h-3.7Zm35.121-.368a10.4,10.4,0,0,1,3.864.7,8.673,8.673,0,0,1,3.059,2.024,9.228,9.228,0,0,1,2.013,3.266A12.618,12.618,0,0,1,343,31.752a2.67,2.67,0,0,1-.207,1.288.86.86,0,0,1-.782.322h-15.5a12.863,12.863,0,0,0,.6,3.841,7.854,7.854,0,0,0,1.518,2.726,6.082,6.082,0,0,0,2.3,1.633,7.9,7.9,0,0,0,2.99.541,8.772,8.772,0,0,0,2.656-.357,12.637,12.637,0,0,0,1.921-.771,14.649,14.649,0,0,0,1.345-.771,1.784,1.784,0,0,1,.932-.356.9.9,0,0,1,.782.391l1.15,1.5a7.776,7.776,0,0,1-1.817,1.6,11.314,11.314,0,0,1-2.266,1.116,14.389,14.389,0,0,1-2.5.655,15.243,15.243,0,0,1-2.553.218,11.847,11.847,0,0,1-4.451-.816,9.768,9.768,0,0,1-3.519-2.392,10.974,10.974,0,0,1-2.311-3.9,15.853,15.853,0,0,1-.828-5.336,13.576,13.576,0,0,1,.747-4.554,10.734,10.734,0,0,1,2.151-3.668,9.9,9.9,0,0,1,3.427-2.438A11.25,11.25,0,0,1,333.339,21.333Zm.092,3.013a6.285,6.285,0,0,0-4.669,1.713,8.065,8.065,0,0,0-2.116,4.75h12.673a8.29,8.29,0,0,0-.391-2.611,5.817,5.817,0,0,0-1.15-2.047,5.147,5.147,0,0,0-1.852-1.334A6.244,6.244,0,0,0,333.431,24.346ZM348.22,45V21.7h2.346a1.3,1.3,0,0,1,.92.253,1.551,1.551,0,0,1,.345.874l.276,3.634a10.657,10.657,0,0,1,2.956-3.806,6.964,6.964,0,0,1,5.876-1.15,6.093,6.093,0,0,1,1.449.609l-.529,3.059a.692.692,0,0,1-.713.575,3.578,3.578,0,0,1-.989-.219,6.238,6.238,0,0,0-1.863-.219,5.277,5.277,0,0,0-3.577,1.242,9.324,9.324,0,0,0-2.4,3.611V45Zm18.538,0V11.121h4.094V24.829a12.572,12.572,0,0,1,3.312-2.542,8.87,8.87,0,0,1,4.186-.955,8.413,8.413,0,0,1,3.369.633,6.519,6.519,0,0,1,2.438,1.794,7.922,7.922,0,0,1,1.483,2.795,12.161,12.161,0,0,1,.506,3.611V45h-4.094V30.165a6.271,6.271,0,0,0-1.207-4.106,4.514,4.514,0,0,0-3.691-1.461,6.882,6.882,0,0,0-3.392.874,11.173,11.173,0,0,0-2.91,2.369V45Zm42.688,0h-1.817a2.169,2.169,0,0,1-.966-.184,1.018,1.018,0,0,1-.483-.782l-.46-2.162q-.92.828-1.794,1.483a10.267,10.267,0,0,1-1.84,1.1,9.534,9.534,0,0,1-2.058.679,11.807,11.807,0,0,1-2.427.23,8.283,8.283,0,0,1-2.542-.38A5.794,5.794,0,0,1,393,43.85a5.421,5.421,0,0,1-1.391-1.92,6.711,6.711,0,0,1-.518-2.749,5.126,5.126,0,0,1,.759-2.657,6.67,6.67,0,0,1,2.449-2.265,15.958,15.958,0,0,1,4.428-1.621,33.731,33.731,0,0,1,6.693-.725V30.1a6.272,6.272,0,0,0-1.161-4.106,4.223,4.223,0,0,0-3.439-1.392,7.289,7.289,0,0,0-2.518.379,9.532,9.532,0,0,0-1.771.851q-.747.471-1.288.851a1.858,1.858,0,0,1-1.069.38,1.227,1.227,0,0,1-.724-.219,1.664,1.664,0,0,1-.495-.541l-.736-1.311a13.3,13.3,0,0,1,4.163-2.783,12.854,12.854,0,0,1,4.945-.92,8.823,8.823,0,0,1,3.473.644,7.123,7.123,0,0,1,2.553,1.794,7.6,7.6,0,0,1,1.564,2.783,11.591,11.591,0,0,1,.529,3.588ZM398.82,42.493a8.358,8.358,0,0,0,1.978-.219,7.808,7.808,0,0,0,1.691-.621,8.959,8.959,0,0,0,1.518-.978,13.151,13.151,0,0,0,1.415-1.311V34.512a33.832,33.832,0,0,0-4.807.448,13.483,13.483,0,0,0-3.22.931,4.485,4.485,0,0,0-1.806,1.357A2.919,2.919,0,0,0,395.025,39a3.857,3.857,0,0,0,.3,1.587,3.008,3.008,0,0,0,.805,1.092,3.177,3.177,0,0,0,1.2.621A5.466,5.466,0,0,0,398.82,42.493ZM432.768,45h-1.817a2.169,2.169,0,0,1-.966-.184,1.018,1.018,0,0,1-.483-.782l-.46-2.162q-.92.828-1.794,1.483a10.267,10.267,0,0,1-1.84,1.1,9.534,9.534,0,0,1-2.058.679,11.806,11.806,0,0,1-2.427.23,8.283,8.283,0,0,1-2.542-.38,5.794,5.794,0,0,1-2.059-1.139,5.421,5.421,0,0,1-1.391-1.92,6.711,6.711,0,0,1-.518-2.749,5.126,5.126,0,0,1,.759-2.657,6.67,6.67,0,0,1,2.449-2.265,15.958,15.958,0,0,1,4.428-1.621,33.731,33.731,0,0,1,6.693-.725V30.1a6.272,6.272,0,0,0-1.161-4.106,4.223,4.223,0,0,0-3.439-1.392,7.289,7.289,0,0,0-2.518.379,9.532,9.532,0,0,0-1.771.851q-.747.471-1.288.851a1.858,1.858,0,0,1-1.069.38,1.227,1.227,0,0,1-.724-.219,1.664,1.664,0,0,1-.495-.541l-.736-1.311a13.3,13.3,0,0,1,4.163-2.783,12.854,12.854,0,0,1,4.945-.92,8.823,8.823,0,0,1,3.473.644,7.123,7.123,0,0,1,2.553,1.794,7.6,7.6,0,0,1,1.564,2.783,11.591,11.591,0,0,1,.529,3.588Zm-10.626-2.507a8.358,8.358,0,0,0,1.978-.219,7.808,7.808,0,0,0,1.691-.621,8.959,8.959,0,0,0,1.518-.978,13.151,13.151,0,0,0,1.415-1.311V34.512a33.832,33.832,0,0,0-4.807.448,13.483,13.483,0,0,0-3.22.931,4.485,4.485,0,0,0-1.806,1.357A2.919,2.919,0,0,0,418.347,39a3.857,3.857,0,0,0,.3,1.587,3.008,3.008,0,0,0,.8,1.092,3.178,3.178,0,0,0,1.2.621A5.466,5.466,0,0,0,422.142,42.493Zm21.39-31.372V45h-4.094V11.121ZM3.358,100V76.7H5.8a1.044,1.044,0,0,1,1.1.851l.3,2.392a11.953,11.953,0,0,1,2.886-2.6A6.8,6.8,0,0,1,13.8,76.333a5.516,5.516,0,0,1,3.829,1.311,7.375,7.375,0,0,1,2.1,3.542A7.292,7.292,0,0,1,21.01,79a7.415,7.415,0,0,1,1.782-1.518,7.55,7.55,0,0,1,2.1-.874,9.4,9.4,0,0,1,2.266-.276,8.616,8.616,0,0,1,3.278.587,6.489,6.489,0,0,1,2.438,1.713,7.632,7.632,0,0,1,1.53,2.772,12.273,12.273,0,0,1,.529,3.76V100H30.843V85.165a6.28,6.28,0,0,0-1.2-4.151A4.294,4.294,0,0,0,26.174,79.6a5.21,5.21,0,0,0-1.92.356A4.628,4.628,0,0,0,22.655,81a4.906,4.906,0,0,0-1.093,1.736,6.735,6.735,0,0,0-.4,2.427V100H17.066V85.165a6.528,6.528,0,0,0-1.127-4.186A4,4,0,0,0,12.65,79.6a5.2,5.2,0,0,0-2.818.816,9.224,9.224,0,0,0-2.381,2.22V100ZM50.347,76.333a10.4,10.4,0,0,1,3.864.7,8.673,8.673,0,0,1,3.059,2.024,9.227,9.227,0,0,1,2.013,3.266,12.618,12.618,0,0,1,.724,4.427A2.67,2.67,0,0,1,59.8,88.04a.86.86,0,0,1-.782.322h-15.5a12.863,12.863,0,0,0,.6,3.841,7.854,7.854,0,0,0,1.518,2.725,6.082,6.082,0,0,0,2.3,1.633,7.9,7.9,0,0,0,2.99.54,8.772,8.772,0,0,0,2.657-.356,12.638,12.638,0,0,0,1.921-.771,14.65,14.65,0,0,0,1.345-.771,1.784,1.784,0,0,1,.932-.356.9.9,0,0,1,.782.391l1.15,1.5a7.776,7.776,0,0,1-1.817,1.6,11.313,11.313,0,0,1-2.266,1.116,14.389,14.389,0,0,1-2.5.656,15.242,15.242,0,0,1-2.553.218,11.847,11.847,0,0,1-4.451-.816,9.768,9.768,0,0,1-3.519-2.392,10.973,10.973,0,0,1-2.312-3.9,15.853,15.853,0,0,1-.828-5.336,13.576,13.576,0,0,1,.748-4.554,10.734,10.734,0,0,1,2.15-3.668,9.9,9.9,0,0,1,3.427-2.438A11.25,11.25,0,0,1,50.347,76.333Zm.092,3.013A6.285,6.285,0,0,0,45.77,81.06a8.065,8.065,0,0,0-2.116,4.749H56.327a8.29,8.29,0,0,0-.391-2.61,5.817,5.817,0,0,0-1.15-2.047,5.147,5.147,0,0,0-1.852-1.334A6.244,6.244,0,0,0,50.439,79.346Zm21.85,21.022a5.617,5.617,0,0,1-4.243-1.541,6.15,6.15,0,0,1-1.484-4.439V80.128H63.756a.917.917,0,0,1-.621-.218.849.849,0,0,1-.253-.678V77.6l3.818-.483.943-7.2a.87.87,0,0,1,.3-.563.95.95,0,0,1,.644-.218h2.07v8.027h6.67v2.967h-6.67V94.112a2.975,2.975,0,0,0,.713,2.185,2.49,2.49,0,0,0,1.84.713,3.248,3.248,0,0,0,1.116-.173,4.787,4.787,0,0,0,.816-.38q.345-.207.587-.38a.768.768,0,0,1,.425-.173.7.7,0,0,1,.575.391l1.2,1.955A7.627,7.627,0,0,1,75.371,99.8,8.669,8.669,0,0,1,72.289,100.368ZM91.264,100V66.121h4.094V79.829a12.572,12.572,0,0,1,3.312-2.542,8.87,8.87,0,0,1,4.186-.954,8.413,8.413,0,0,1,3.369.632,6.519,6.519,0,0,1,2.438,1.794,7.923,7.923,0,0,1,1.484,2.795,12.161,12.161,0,0,1,.506,3.611V100h-4.094V85.165a6.271,6.271,0,0,0-1.207-4.105A4.514,4.514,0,0,0,101.66,79.6a6.882,6.882,0,0,0-3.392.874,11.172,11.172,0,0,0-2.91,2.369V100Zm34.8-23.667a10.4,10.4,0,0,1,3.864.7,8.673,8.673,0,0,1,3.059,2.024A9.228,9.228,0,0,1,135,82.325a12.618,12.618,0,0,1,.725,4.427,2.67,2.67,0,0,1-.207,1.288.86.86,0,0,1-.782.322h-15.5a12.863,12.863,0,0,0,.6,3.841,7.854,7.854,0,0,0,1.518,2.725,6.082,6.082,0,0,0,2.3,1.633,7.9,7.9,0,0,0,2.99.54,8.772,8.772,0,0,0,2.656-.356,12.638,12.638,0,0,0,1.921-.771,14.651,14.651,0,0,0,1.346-.771,1.784,1.784,0,0,1,.932-.356.9.9,0,0,1,.782.391l1.15,1.5a7.776,7.776,0,0,1-1.817,1.6,11.313,11.313,0,0,1-2.265,1.116,14.39,14.39,0,0,1-2.5.656,15.242,15.242,0,0,1-2.553.218,11.847,11.847,0,0,1-4.451-.816,9.768,9.768,0,0,1-3.519-2.392,10.973,10.973,0,0,1-2.312-3.9,15.853,15.853,0,0,1-.828-5.336,13.576,13.576,0,0,1,.747-4.554,10.734,10.734,0,0,1,2.15-3.668,9.9,9.9,0,0,1,3.427-2.438A11.25,11.25,0,0,1,126.063,76.333Zm.092,3.013a6.285,6.285,0,0,0-4.669,1.714,8.065,8.065,0,0,0-2.116,4.749h12.673a8.29,8.29,0,0,0-.391-2.61,5.817,5.817,0,0,0-1.15-2.047,5.147,5.147,0,0,0-1.852-1.334A6.244,6.244,0,0,0,126.155,79.346Zm21.85,21.022a5.617,5.617,0,0,1-4.243-1.541,6.15,6.15,0,0,1-1.484-4.439V80.128h-2.806a.917.917,0,0,1-.621-.218.849.849,0,0,1-.253-.678V77.6l3.818-.483.943-7.2a.87.87,0,0,1,.3-.563.95.95,0,0,1,.644-.218h2.07v8.027h6.67v2.967h-6.67V94.112a2.975,2.975,0,0,0,.713,2.185,2.49,2.49,0,0,0,1.84.713,3.248,3.248,0,0,0,1.115-.173,4.787,4.787,0,0,0,.816-.38q.345-.207.587-.38a.768.768,0,0,1,.426-.173.7.7,0,0,1,.575.391l1.2,1.955a7.627,7.627,0,0,1-2.553,1.552A8.669,8.669,0,0,1,148.005,100.368ZM180.32,80.542a.907.907,0,0,1-.851.506,1.6,1.6,0,0,1-.782-.253q-.437-.253-1.07-.563a10.045,10.045,0,0,0-1.507-.575,7.186,7.186,0,0,0-2.07-.265,6.109,6.109,0,0,0-1.863.265,4.474,4.474,0,0,0-1.415.724,3.2,3.2,0,0,0-.9,1.07,2.871,2.871,0,0,0-.311,1.322,2.2,2.2,0,0,0,.517,1.5,4.5,4.5,0,0,0,1.369,1.035,11.931,11.931,0,0,0,1.932.771q1.081.333,2.219.713t2.219.84a8.054,8.054,0,0,1,1.932,1.15,5.26,5.26,0,0,1,1.368,1.69,5.174,5.174,0,0,1,.518,2.4,7.611,7.611,0,0,1-.575,2.979,6.5,6.5,0,0,1-1.7,2.369,8.207,8.207,0,0,1-2.76,1.576,11.339,11.339,0,0,1-3.772.575,11.766,11.766,0,0,1-4.416-.793,11.19,11.19,0,0,1-3.358-2.035l.966-1.564a1.4,1.4,0,0,1,.437-.46,1.227,1.227,0,0,1,.667-.161,1.541,1.541,0,0,1,.874.322q.46.322,1.116.713a8.584,8.584,0,0,0,1.587.713,7.233,7.233,0,0,0,2.335.322,6.4,6.4,0,0,0,2.093-.311,4.4,4.4,0,0,0,1.495-.84,3.324,3.324,0,0,0,.885-1.219,3.789,3.789,0,0,0,.288-1.472,2.441,2.441,0,0,0-.518-1.6A4.367,4.367,0,0,0,175.9,90.9a11.152,11.152,0,0,0-1.943-.782q-1.092-.333-2.231-.7t-2.231-.84a7.843,7.843,0,0,1-1.943-1.184,5.366,5.366,0,0,1-1.368-1.76,5.689,5.689,0,0,1-.518-2.541,6.2,6.2,0,0,1,.552-2.564,6.289,6.289,0,0,1,1.61-2.162,7.929,7.929,0,0,1,2.6-1.483,10.4,10.4,0,0,1,3.519-.552,11.13,11.13,0,0,1,4.129.725,9.77,9.77,0,0,1,3.162,1.989ZM191.5,76.7v25.024a8.915,8.915,0,0,1-.368,2.611,5.593,5.593,0,0,1-1.161,2.1,5.462,5.462,0,0,1-2.047,1.414,7.85,7.85,0,0,1-3,.518,7.605,7.605,0,0,1-1.38-.115,7.511,7.511,0,0,1-1.242-.345l.184-2.208a.47.47,0,0,1,.207-.38,1.192,1.192,0,0,1,.506-.08q.184,0,.391.011t.506.011a3.309,3.309,0,0,0,2.553-.84,3.966,3.966,0,0,0,.759-2.7V76.7Zm.92-7.314a2.605,2.605,0,0,1-.242,1.116,3.212,3.212,0,0,1-.644.92,2.992,2.992,0,0,1-.932.632,2.8,2.8,0,0,1-1.127.23,2.715,2.715,0,0,1-1.115-.23,3.066,3.066,0,0,1-1.553-1.552,2.715,2.715,0,0,1-.23-1.116,2.878,2.878,0,0,1,.23-1.138,2.956,2.956,0,0,1,.632-.943,3.032,3.032,0,0,1,.92-.632,2.715,2.715,0,0,1,1.115-.23,2.8,2.8,0,0,1,1.127.23,2.992,2.992,0,0,1,.932.632,3.119,3.119,0,0,1,.644.943A2.76,2.76,0,0,1,192.418,69.387ZM215.74,100h-1.817a2.169,2.169,0,0,1-.966-.184,1.018,1.018,0,0,1-.483-.782l-.46-2.162q-.92.828-1.794,1.483a10.267,10.267,0,0,1-1.84,1.1,9.535,9.535,0,0,1-2.059.678,11.807,11.807,0,0,1-2.426.23,8.283,8.283,0,0,1-2.542-.379,5.794,5.794,0,0,1-2.059-1.139,5.421,5.421,0,0,1-1.391-1.921,6.711,6.711,0,0,1-.518-2.748,5.126,5.126,0,0,1,.759-2.657,6.67,6.67,0,0,1,2.449-2.265,15.958,15.958,0,0,1,4.428-1.622,33.731,33.731,0,0,1,6.693-.724V85.1a6.272,6.272,0,0,0-1.161-4.105,4.223,4.223,0,0,0-3.438-1.392,7.29,7.29,0,0,0-2.519.38,9.533,9.533,0,0,0-1.771.851q-.748.471-1.288.851a1.858,1.858,0,0,1-1.07.38,1.227,1.227,0,0,1-.725-.218,1.665,1.665,0,0,1-.494-.541l-.736-1.311a13.305,13.305,0,0,1,4.163-2.783,12.853,12.853,0,0,1,4.945-.92,8.823,8.823,0,0,1,3.473.644,7.122,7.122,0,0,1,2.553,1.794,7.6,7.6,0,0,1,1.564,2.783,11.59,11.59,0,0,1,.529,3.588Zm-10.626-2.507a8.358,8.358,0,0,0,1.978-.218,7.807,7.807,0,0,0,1.69-.621,8.958,8.958,0,0,0,1.518-.978,13.151,13.151,0,0,0,1.414-1.311V89.512a33.832,33.832,0,0,0-4.807.449,13.483,13.483,0,0,0-3.22.931,4.485,4.485,0,0,0-1.805,1.357A2.919,2.919,0,0,0,201.319,94a3.857,3.857,0,0,0,.3,1.587,3.008,3.008,0,0,0,.8,1.092,3.177,3.177,0,0,0,1.2.621A5.466,5.466,0,0,0,205.114,97.493ZM222.088,100V66.121h4.117V80.059a11.9,11.9,0,0,1,3.323-2.7,8.805,8.805,0,0,1,4.29-1.023,8.574,8.574,0,0,1,3.657.759,7.388,7.388,0,0,1,2.783,2.265,10.927,10.927,0,0,1,1.771,3.726,19.054,19.054,0,0,1,.621,5.118,16.076,16.076,0,0,1-.69,4.8,11.555,11.555,0,0,1-1.99,3.841,9.2,9.2,0,0,1-7.395,3.484,7.79,7.79,0,0,1-3.829-.874A8.71,8.71,0,0,1,226,97.01l-.207,2.116a.985.985,0,0,1-1.058.874Zm10.4-20.4a6.6,6.6,0,0,0-3.507.92,10.111,10.111,0,0,0-2.771,2.6v11.27a6.416,6.416,0,0,0,2.449,2.139,7.078,7.078,0,0,0,3,.621,5.9,5.9,0,0,0,5.014-2.323,10.85,10.85,0,0,0,1.748-6.624,16.529,16.529,0,0,0-.4-3.91,7.646,7.646,0,0,0-1.161-2.68,4.519,4.519,0,0,0-1.863-1.529A6.2,6.2,0,0,0,232.484,79.6Zm19.734-13.478V100h-4.094V66.121ZM268.87,76.333a11.967,11.967,0,0,1,4.612.851,9.724,9.724,0,0,1,3.5,2.415,10.691,10.691,0,0,1,2.208,3.784,16.364,16.364,0,0,1,0,9.924,10.707,10.707,0,0,1-2.208,3.772,9.6,9.6,0,0,1-3.5,2.4,13.086,13.086,0,0,1-9.223,0,9.711,9.711,0,0,1-3.508-2.4,10.753,10.753,0,0,1-2.231-3.772,16.136,16.136,0,0,1,0-9.924,10.736,10.736,0,0,1,2.231-3.784,9.835,9.835,0,0,1,3.508-2.415A11.967,11.967,0,0,1,268.87,76.333Zm0,20.792a5.981,5.981,0,0,0,5.152-2.312,10.7,10.7,0,0,0,1.7-6.451,10.8,10.8,0,0,0-1.7-6.486,5.969,5.969,0,0,0-5.152-2.323,7.15,7.15,0,0,0-3.036.6,5.682,5.682,0,0,0-2.151,1.725,7.662,7.662,0,0,0-1.288,2.771,16.376,16.376,0,0,0,0,7.418,7.548,7.548,0,0,0,1.288,2.748,5.727,5.727,0,0,0,2.151,1.714A7.15,7.15,0,0,0,268.87,97.125Zm25.576-20.792a11.967,11.967,0,0,1,4.612.851,9.724,9.724,0,0,1,3.5,2.415,10.691,10.691,0,0,1,2.208,3.784,16.364,16.364,0,0,1,0,9.924,10.707,10.707,0,0,1-2.208,3.772,9.6,9.6,0,0,1-3.5,2.4,13.086,13.086,0,0,1-9.223,0,9.711,9.711,0,0,1-3.508-2.4,10.753,10.753,0,0,1-2.231-3.772,16.136,16.136,0,0,1,0-9.924,10.736,10.736,0,0,1,2.231-3.784,9.835,9.835,0,0,1,3.508-2.415A11.967,11.967,0,0,1,294.446,76.333Zm0,20.792a5.981,5.981,0,0,0,5.152-2.312,10.7,10.7,0,0,0,1.7-6.451,10.8,10.8,0,0,0-1.7-6.486,5.969,5.969,0,0,0-5.152-2.323,7.15,7.15,0,0,0-3.036.6,5.682,5.682,0,0,0-2.151,1.725,7.662,7.662,0,0,0-1.288,2.771,16.376,16.376,0,0,0,0,7.418,7.548,7.548,0,0,0,1.288,2.748,5.727,5.727,0,0,0,2.151,1.714A7.15,7.15,0,0,0,294.446,97.125ZM310.592,100V76.7h2.438a1.044,1.044,0,0,1,1.1.851l.322,2.53a13.1,13.1,0,0,1,3.393-2.714,8.823,8.823,0,0,1,4.336-1.035,8.413,8.413,0,0,1,3.369.632,6.519,6.519,0,0,1,2.438,1.794,7.923,7.923,0,0,1,1.483,2.795,12.161,12.161,0,0,1,.506,3.611V100h-4.094V85.165a6.271,6.271,0,0,0-1.208-4.105,4.514,4.514,0,0,0-3.691-1.461,6.882,6.882,0,0,0-3.392.874,11.173,11.173,0,0,0-2.91,2.369V100Zm24.242-2.53a2.923,2.923,0,0,1,.219-1.127,2.889,2.889,0,0,1,.6-.92,2.865,2.865,0,0,1,3.162-.621,2.95,2.95,0,0,1,.92.621,2.8,2.8,0,0,1,.609.92,3.045,3.045,0,0,1,0,2.265,2.827,2.827,0,0,1-.609.909,2.8,2.8,0,0,1-.92.61,3.016,3.016,0,0,1-2.254,0,2.669,2.669,0,0,1-.908-.61,2.881,2.881,0,0,1-.817-2.047Z" transform="translate(1046 602)" fill="#1a1a1a"/>
    <g id="Group_12" data-name="Group 12" transform="translate(1001.672 470.549) rotate(90)">
      <g id="Group_9-2" data-name="Group 9" clip-path="url(#clip-path-2)">
        <path id="Path_92-2" data-name="Path 92" d="M32.924,33.672H0V12.807A6.213,6.213,0,0,1,2.851,7.582L13.1.988a6.213,6.213,0,0,1,6.723,0L30.073,7.582a6.213,6.213,0,0,1,2.851,5.225Z" transform="translate(0 0)" fill="#7765b4"/>
      </g>
    </g>
    <g id="Group_78" data-name="Group 78" transform="translate(1001.672 618.549) rotate(90)">
      <g id="Group_9-3" data-name="Group 9" clip-path="url(#clip-path-2)">
        <path id="Path_92-3" data-name="Path 92" d="M32.924,33.672H0V12.807A6.213,6.213,0,0,1,2.851,7.582L13.1.988a6.213,6.213,0,0,1,6.723,0L30.073,7.582a6.213,6.213,0,0,1,2.851,5.225Z" transform="translate(0 0)" fill="#7765b4"/>
      </g>
    </g>
    <path id="Path_95" data-name="Path 95" d="M248.739,23.37c-.83-5.192-3.06-9.871-5.472-14.477a13.652,13.652,0,0,0-7.279-6.3,26.353,26.353,0,0,0-10.576-2.1c-2.531.1-98.475.051-124.1,0,0-.082-.013-.163-.016-.246C98.168.447,24.174.3,21.051.208a14.5,14.5,0,0,0-7.842,1.829,48.6,48.6,0,0,0-4.039,2.8,19.87,19.87,0,0,0-6.626,7.613C-.284,18.428-.069,24.923.7,31.175a103.216,103.216,0,0,0,4,19.194A51.687,51.687,0,0,1,6.62,57.787c.909,5.534,1.976,11.032,4.234,16.208,1.878,4.3,4.889,7.176,9.995,7.587,10.812.869,21.637.649,32.442.443,17.911-.341,112.9.339,130.812-.805a203.923,203.923,0,0,1,22.642-.188c7.859.385,15.664-.366,23.475-.972,1.662-.129,2.872-1.161,4.1-2.091,3.066-2.33,3.742-6.016,4.729-9.3a130.064,130.064,0,0,0,3.4-15.625c.8-4.691,1.717-9.334,2.911-13.945,1.066-4.117,2.6-8.108,3.306-12.322A10.38,10.38,0,0,0,248.739,23.37Zm-3.665,3.266c-1.007,3.753-1.893,7.381-2.96,10.956-2.033,6.81-2.967,13.846-4.51,20.753-1.137,5.089-1.669,10.4-4.391,15.039-.932,1.59-2.353,2.188-4.266,2.419-14.954,1.8-30.049.071-44.983,1.561-9.74.972-96.509.049-106.22.349-14.005.434-28.005,1.145-42.028.613-1.769-.067-1.77-.053-1.566-1.979-1.765,1.4-3.435,2.678-5.72,1.523.709-1.067,2.3-1.121,3.025-2.682-2.56.9-4.406,2.706-7.1,2.495l5.522-4.22c-3.1.793-5.171,2.589-7.624,3.594-.731.3-1.546,1.109-2.072.359s.867-.894,1.146-1.513c.086-.189.2-.363.343-.608-1.144-.617-1.707.405-2.455.766-.539.26-1,1.14-1.638.447-.618-.671-.219-1.291.555-1.7.222-.115.349-.406.637-.761-1.316-.406-1.786,1.483-3.137.7l3.2-3.6c-1.292.62-2.14.967-2.92,1.425-.429.251-.635,1.148-1.3.3A1.272,1.272,0,0,1,14.6,71.1c.542-.6,1.329-1.016,1.289-1.95-1.052-.409-1.631,1.8-2.711.433-.892-1.127-.563-2.128.88-2.676-.43-.919-1.71.3-1.826-.956-.121-1.318,1.117-1.62,1.776-2.342-.174-.167-.248-.3-.355-.331-.812-.248-1.263,1.456-1.982.565-.744-.921.728-1.135,1.088-1.74.778-1.307,1.911-2.407,2.749-3.887l-4.324,2.61c-1.06-4.151-2.181-8.151-3.073-12.2-.471-2.14-.973-4.3-1.538-6.392A116.473,116.473,0,0,1,3.814,27.36c-.876-6.5.413-12.653,4.86-17.656A29.876,29.876,0,0,1,16.562,3.64a5.671,5.671,0,0,1,2.766-.391c3.245-.078,56.458.272,75.724.4,0,.033,0,.067,0,.1,3.012.053,127.667.108,130.679.159.95.016,2.028-.286,2.872.6-.577,1.05-2.216.889-2.511,2.3,2.249.221,3.73-2.136,5.991-1.764.162,1.194-1.233.941-1.442,1.751a1.079,1.079,0,0,0,1.336.067c1.68-1.281,3.2-.458,4.714.281.635.311,1.151.765.1,1.335-.677.367-1.5.595-1.889,1.423,1.046.248,1.783-.533,2.681-.691.5-.089,1.1-.773,1.481.075.331.73-.534.663-.828.986-1.038,1.138-2.9,1.142-3.99,2.9,2.17-.849,3.786-2.177,6.027-2-.32,1.763-2.239,1.809-3.263,3.013,1.134.126,1.7-.8,2.54-.935.693-.114,1.557-.446,1.921.414.336.792-.646.757-1.024,1.1s-.767.621-1.212.976c.636.359.988-.188,1.438-.2.623-.019,1.25-1.172,1.841-.11.522.938-.644.878-.995,1.312-.223.276-.443.553-.779.972.932.16,1.733-.689,2.558.024-.39,1.682-2.555,1.466-3.276,3.081,1.578.069,2.662-1.166,4.071-1.356.763,1.681-1.7,1.391-1.651,2.612.793.467,1.625-.784,2.475.113A4.711,4.711,0,0,1,243.1,24.14c.619.795,1.481-.831,2.041.214.19.355-.025.629-.367.876-.623.451-1.185.982-2.212,1.853Z" transform="translate(58.181 80.751) rotate(-1)" fill="none"/>
    <g id="Group_50" data-name="Group 50" transform="translate(77.4 946.369)">
      <g id="Group_49" data-name="Group 49" clip-path="url(#clip-path-4)">
        <path id="Path_117" data-name="Path 117" d="M41.428,398.049c-5.951-.233-11.892.1-17.836.275a81.27,81.27,0,0,1-12.957-.723,29.851,29.851,0,0,1-5.74-1.244,6.5,6.5,0,0,1-4.778-5.8,14.233,14.233,0,0,1,.931-6.827A27.3,27.3,0,0,1,7.68,372.874a25.05,25.05,0,0,1,8.626-5.927,26.245,26.245,0,0,1,7.482-1.6,109.829,109.829,0,0,1,12.371-.418,81.175,81.175,0,0,1,10.468,1.037,18.03,18.03,0,0,1,4.775,2.083,25.77,25.77,0,0,1,11.061,10.172,55.618,55.618,0,0,1,3.9,8.661,13.416,13.416,0,0,1,.839,4.974c-.027,2.558-2.389,4.411-4.172,4.886-6.074,1.62-12.281,1.39-18.477,1.311-1.041-.013-2.082,0-3.123,0M28.8,389.367c-1.223,1.305-2.542,2.5-3.66,3.888-.163.2-.465.366-.32.669s.472.2.726.2c.773.017,1.547.02,2.32.015a72,72,0,0,0,8.761-.146,28.463,28.463,0,0,1,8.5.243,43.853,43.853,0,0,0,9.5.625,39.427,39.427,0,0,0,6.473-.741,2.9,2.9,0,0,0,2.323-1.986,5.874,5.874,0,0,0-.018-3.837,58.469,58.469,0,0,0-3.317-7.306c-2.417-4.43-5.569-8.2-10.324-10.18a29.277,29.277,0,0,0-9.094-2.127c-5.148-.38-10.265-1.054-15.46-.408a25.788,25.788,0,0,0-11.521,3.853,18.06,18.06,0,0,0-6.755,7.251c-.943,2.037-1.842,4.1-2.645,6.194-.616,1.606-1.114,3.276-.326,5.1,6.185-5.655,12.172-11.511,19.8-15.209a20.987,20.987,0,0,0-3.976,3.627,33.458,33.458,0,0,1-3.624,4.172c-3.3,2.787-6.628,5.54-9.947,8.3-1.17.975-1.166,1.033.283,1.628.211.087.461.078.676.158.29.108.338-.024.5-.256a18.232,18.232,0,0,1,5.3-4.965c1.512-.956,3.113-1.769,4.539-2.865a4.371,4.371,0,0,1,1.81-1.129c-3.4,3.006-5.413,7.333-9.467,9.765,1.323-.069,2.676.469,3.691-.948a8.92,8.92,0,0,1,3.2-2.752,34.731,34.731,0,0,0,5.91-3.283c.057-.044.178-.006.58-.006-2.771,2.02-4.015,5.084-6.57,6.815,1.7,0,3.376,0,5.051,0a.6.6,0,0,0,.372-.092,46.465,46.465,0,0,1,4.35-2.924,7.014,7.014,0,0,1,2.351-1.343" transform="translate(0 -319.723)"/>
        <path id="Path_118" data-name="Path 118" d="M132.792.049c4.538-.23,7.775,1.946,10.932,4.2,3.884,2.771,5.7,6.851,6.882,11.313a27.966,27.966,0,0,1,1.185,6.666,14.225,14.225,0,0,1-2.553,8.545,19.3,19.3,0,0,1-7.482,6.755,19.843,19.843,0,0,1-27.012-9.053,17.289,17.289,0,0,1-1.743-9.5A22.393,22.393,0,0,1,119.96,4.335a13.645,13.645,0,0,1,5.57-2.925,14.155,14.155,0,0,1,1.71-.526C129.2.5,131.114-.19,132.792.049m3.845,3.694a6.013,6.013,0,0,0-4.753-.783c-2,.5-4.016.913-6,1.476-4.278,1.211-7,4.041-8.808,7.9a18.69,18.69,0,0,0-1.4,6.607A10.57,10.57,0,0,0,116,23.622c1.471,3.7,3.39,7.144,6.937,9.353A16.173,16.173,0,0,0,128.3,35.5a28.346,28.346,0,0,0,6.127.245,16.547,16.547,0,0,0,9.207-3.117,11.53,11.53,0,0,0,4.826-6.624,15.758,15.758,0,0,0,.023-8.019c-.135-.519-.319-1.074-1.094-.566a3.746,3.746,0,0,1-1.385.524c-.779.136-1.387.771-2.219.753,1.073-1.071,2.178-2.063,3.315-3.016a.818.818,0,0,0,.3-1.013c-.7-2.654-.995-2.815-3.479-1.658l-3.006,1.4c.1-.471.435-.6.676-.8,1.125-.933,2.317-1.782,3.4-2.766.342-.309.488-.531.232-.9a9.451,9.451,0,0,0-1.5-1.88c-.189-.165-.335-.342-.586-.119-1.052.931-2.427,1.208-3.654,1.78-1.633.762-3.183,1.671-4.818,2.471l7.029-5.9c-.657-.388-1.267-.7-1.828-1.092a1.12,1.12,0,0,0-1.6.107,17.691,17.691,0,0,1-2.146,1.618c-2.691,1.761-5.468,3.391-8,5.382-.737.578-1.5,1.127-2.246,1.689l-.2-.233c3.788-3.135,7.056-6.822,10.953-10.019" transform="translate(-98.957 0)"/>
      </g>
    </g>
    <g id="Group_51" data-name="Group 51" transform="translate(151.978 946.369)">
      <g id="Group_49-2" data-name="Group 49" clip-path="url(#clip-path-4)">
        <path id="Path_117-2" data-name="Path 117" d="M41.428,398.049c-5.951-.233-11.892.1-17.836.275a81.27,81.27,0,0,1-12.957-.723,29.851,29.851,0,0,1-5.74-1.244,6.5,6.5,0,0,1-4.778-5.8,14.233,14.233,0,0,1,.931-6.827A27.3,27.3,0,0,1,7.68,372.874a25.05,25.05,0,0,1,8.626-5.927,26.245,26.245,0,0,1,7.482-1.6,109.829,109.829,0,0,1,12.371-.418,81.175,81.175,0,0,1,10.468,1.037,18.03,18.03,0,0,1,4.775,2.083,25.77,25.77,0,0,1,11.061,10.172,55.618,55.618,0,0,1,3.9,8.661,13.416,13.416,0,0,1,.839,4.974c-.027,2.558-2.389,4.411-4.172,4.886-6.074,1.62-12.281,1.39-18.477,1.311-1.041-.013-2.082,0-3.123,0M28.8,389.367c-1.223,1.305-2.542,2.5-3.66,3.888-.163.2-.465.366-.32.669s.472.2.726.2c.773.017,1.547.02,2.32.015a72,72,0,0,0,8.761-.146,28.463,28.463,0,0,1,8.5.243,43.853,43.853,0,0,0,9.5.625,39.427,39.427,0,0,0,6.473-.741,2.9,2.9,0,0,0,2.323-1.986,5.874,5.874,0,0,0-.018-3.837,58.469,58.469,0,0,0-3.317-7.306c-2.417-4.43-5.569-8.2-10.324-10.18a29.277,29.277,0,0,0-9.094-2.127c-5.148-.38-10.265-1.054-15.46-.408a25.788,25.788,0,0,0-11.521,3.853,18.06,18.06,0,0,0-6.755,7.251c-.943,2.037-1.842,4.1-2.645,6.194-.616,1.606-1.114,3.276-.326,5.1,6.185-5.655,12.172-11.511,19.8-15.209a20.987,20.987,0,0,0-3.976,3.627,33.458,33.458,0,0,1-3.624,4.172c-3.3,2.787-6.628,5.54-9.947,8.3-1.17.975-1.166,1.033.283,1.628.211.087.461.078.676.158.29.108.338-.024.5-.256a18.232,18.232,0,0,1,5.3-4.965c1.512-.956,3.113-1.769,4.539-2.865a4.371,4.371,0,0,1,1.81-1.129c-3.4,3.006-5.413,7.333-9.467,9.765,1.323-.069,2.676.469,3.691-.948a8.92,8.92,0,0,1,3.2-2.752,34.731,34.731,0,0,0,5.91-3.283c.057-.044.178-.006.58-.006-2.771,2.02-4.015,5.084-6.57,6.815,1.7,0,3.376,0,5.051,0a.6.6,0,0,0,.372-.092,46.465,46.465,0,0,1,4.35-2.924,7.014,7.014,0,0,1,2.351-1.343" transform="translate(0 -319.723)"/>
        <path id="Path_118-2" data-name="Path 118" d="M132.792.049c4.538-.23,7.775,1.946,10.932,4.2,3.884,2.771,5.7,6.851,6.882,11.313a27.966,27.966,0,0,1,1.185,6.666,14.225,14.225,0,0,1-2.553,8.545,19.3,19.3,0,0,1-7.482,6.755,19.843,19.843,0,0,1-27.012-9.053,17.289,17.289,0,0,1-1.743-9.5A22.393,22.393,0,0,1,119.96,4.335a13.645,13.645,0,0,1,5.57-2.925,14.155,14.155,0,0,1,1.71-.526C129.2.5,131.114-.19,132.792.049m3.845,3.694a6.013,6.013,0,0,0-4.753-.783c-2,.5-4.016.913-6,1.476-4.278,1.211-7,4.041-8.808,7.9a18.69,18.69,0,0,0-1.4,6.607A10.57,10.57,0,0,0,116,23.622c1.471,3.7,3.39,7.144,6.937,9.353A16.173,16.173,0,0,0,128.3,35.5a28.346,28.346,0,0,0,6.127.245,16.547,16.547,0,0,0,9.207-3.117,11.53,11.53,0,0,0,4.826-6.624,15.758,15.758,0,0,0,.023-8.019c-.135-.519-.319-1.074-1.094-.566a3.746,3.746,0,0,1-1.385.524c-.779.136-1.387.771-2.219.753,1.073-1.071,2.178-2.063,3.315-3.016a.818.818,0,0,0,.3-1.013c-.7-2.654-.995-2.815-3.479-1.658l-3.006,1.4c.1-.471.435-.6.676-.8,1.125-.933,2.317-1.782,3.4-2.766.342-.309.488-.531.232-.9a9.451,9.451,0,0,0-1.5-1.88c-.189-.165-.335-.342-.586-.119-1.052.931-2.427,1.208-3.654,1.78-1.633.762-3.183,1.671-4.818,2.471l7.029-5.9c-.657-.388-1.267-.7-1.828-1.092a1.12,1.12,0,0,0-1.6.107,17.691,17.691,0,0,1-2.146,1.618c-2.691,1.761-5.468,3.391-8,5.382-.737.578-1.5,1.127-2.246,1.689l-.2-.233c3.788-3.135,7.056-6.822,10.953-10.019" transform="translate(-98.957 0)"/>
      </g>
    </g>
  </g>
</svg>
