<svg xmlns="http://www.w3.org/2000/svg" xmlns:xlink="http://www.w3.org/1999/xlink" width="1970.739" height="2015.513" viewBox="0 0 1970.739 2015.513">
  <defs>
    <clipPath id="clip-path">
      <rect id="Rectangle_11" data-name="Rectangle 11" width="1970.739" height="2015.513" fill="none"/>
    </clipPath>
  </defs>
  <g id="Group_106" data-name="Group 106" transform="translate(25.759 1630.513)">
    <g id="Group_14" data-name="Group 14" transform="translate(1944.98 385) rotate(180)" opacity="0.188">
      <g id="Group_9" data-name="Group 9" clip-path="url(#clip-path)">
        <path id="Path_92" data-name="Path 92" d="M1970.739,2015.515H0V766.593A371.911,371.911,0,0,1,170.673,453.83L784.138,59.143a371.882,371.882,0,0,1,402.448,0L1800.059,453.83a371.9,371.9,0,0,1,170.681,312.763Z" transform="translate(0 -0.002)" fill="#feb153"/>
      </g>
    </g>
    <g id="Group_79" data-name="Group 79" transform="translate(75.788 -2.96)">
      <g id="Group_74" data-name="Group 74" transform="translate(759.325 88.843)">
        <g id="Group_73" data-name="Group 73" transform="translate(0 0)">
          <path id="Path_164" data-name="Path 164" d="M9.792,2.509,239.064,1.385s7.252,2.832,7.544,8.432-2.938,20.338-2.938,20.338l-3.276,13.771L66.059,46.164,12.59,47.476,7.118,41.214l-4-13.761L.628,15.179,3.884,6.5Z" transform="translate(-0.03 0.161)" fill="#fff"/>
          <path id="Path_170" data-name="Path 170" d="M248.645,13.169a27.281,27.281,0,0,0-3.278-8.233,7.813,7.813,0,0,0-4.229-3.53,15.109,15.109,0,0,0-6.077-1.1C233.614.39,49.724,1.319,35.051,1.545c0-.046-.01-.093-.013-.14-1.786.144-21.247.8-23.036.778A8.305,8.305,0,0,0,7.53,3.309,28.011,28.011,0,0,0,5.246,4.951,11.386,11.386,0,0,0,1.528,9.376C-.031,12.829.159,16.545.661,20.117A59.06,59.06,0,0,0,3.142,31.066a29.612,29.612,0,0,1,1.173,4.228A38.52,38.52,0,0,0,6.9,44.531a6.488,6.488,0,0,0,5.8,4.244c6.2.39,12.394.154,18.578-.071,10.251-.373,41.739-.933,51.98-1.768,4.311-.351,137.6-.462,141.922-.332a106.644,106.644,0,0,0,13.429-.792,4.527,4.527,0,0,0,2.325-1.238c1.733-1.365,2.082-3.481,2.614-5.373a74.509,74.509,0,0,0,1.79-8.98c.41-2.693.889-5.362,1.527-8.012.57-2.368,1.408-4.669,1.77-7.088a5.967,5.967,0,0,0,.01-1.952m-2.066,1.907c-.54,2.16-1.01,4.244-1.586,6.3-1.1,3.919-1.56,7.956-2.375,11.927-.6,2.925-.849,5.968-2.364,8.654a2.932,2.932,0,0,1-2.418,1.427c-8.544,1.181-146.162.341-154.7,1.343-5.567.654-55.251.993-60.811,1.261-8.014.39,6.882.936-1.153.772-1.013-.021-1.013-.013-.916-1.117-1,.819-1.939,1.567-3.26.93.395-.619,1.307-.665,1.7-1.567-1.457.54-2.5,1.593-4.041,1.5l3.119-2.472c-1.765.485-2.935,1.535-4.329,2.133-.415.179-.874.651-1.183.227s.487-.521.641-.878c.048-.106.113-.209.19-.352-.661-.342-.973.249-1.4.464-.306.154-.561.663-.933.272s-.139-.739.3-.976c.125-.069.2-.236.357-.442-.758-.219-1.008.866-1.789.432l1.8-2.095c-.735.368-1.215.575-1.657.846-.243.148-.352.664-.738.184a.728.728,0,0,1-.028-1.012c.3-.347.752-.6.719-1.13-.606-.223-.916,1.046-1.548.276-.521-.638-.343-1.214.477-1.541-.256-.522-.976.19-1.055-.53-.083-.753.624-.938.993-1.358-.1-.094-.145-.169-.207-.187-.467-.134-.708.847-1.129.344-.433-.522.406-.658.605-1.007.433-.755,1.07-1.4,1.536-2.252L6.957,36.994c-.649-2.366-1.332-4.645-1.882-6.954-.291-1.224-.6-2.453-.943-3.647A66.868,66.868,0,0,1,2.4,17.9,12.173,12.173,0,0,1,5.012,7.745a17.109,17.109,0,0,1,4.455-3.55,3.237,3.237,0,0,1,1.58-.251c1.857-.076,9.422-.408,20.453-.526v.058c1.725,0,202.052-1.214,203.779-1.215.544,0,1.158-.184,1.647.317-.319.606-1.263.531-1.414,1.339,1.29.105,2.113-1.259,3.412-1.07.1.681-.7.551-.808,1.017a.618.618,0,0,0,.765.025c.948-.75,1.829-.3,2.7.111.367.172.668.427.071.764-.385.218-.853.356-1.067.833.6.132,1.015-.323,1.528-.422.288-.058.62-.453.849.028.2.415-.3.385-.467.572-.583.663-1.649.684-2.255,1.7,1.234-.507,2.145-1.284,3.43-1.208-.165,1.012-1.263,1.059-1.838,1.758.651.061.966-.474,1.446-.56.4-.073.887-.271,1.1.218.2.45-.363.44-.575.641s-.433.363-.684.571c.367.2.564-.117.821-.13.357-.016.7-.683,1.052-.081.308.531-.362.51-.556.762-.124.16-.248.322-.436.564.536.083.986-.411,1.466-.011-.207.967-1.448.864-1.845,1.8.9.024,1.513-.694,2.318-.817.453.955-.957.811-.919,1.511.458.258.923-.465,1.418.04a2.7,2.7,0,0,1-1.017,1.136c.363.448.839-.492,1.171.1.112.2-.009.361-.2.5-.352.264-.668.574-1.248,1.082l1.433-.282" transform="translate(-0.113 -0.114)" fill="#121211"/>
          <path id="Path_171" data-name="Path 171" d="M19.8,49.055c-2.411,0-4.826-.057-7.227-.208a6.669,6.669,0,0,1-5.954-4.353,38.622,38.622,0,0,1-2.6-9.282,29.5,29.5,0,0,0-1.165-4.2l0,0A59.391,59.391,0,0,1,.362,20.026a28.807,28.807,0,0,1-.341-5.447A14.535,14.535,0,0,1,1.244,9.185v0A11.6,11.6,0,0,1,5.019,4.689c.734-.586,1.506-1.141,2.295-1.65l.007,0a8.48,8.48,0,0,1,4.57-1.152c1.881.02,21.227-.633,23.017-.777L35.1,1.09l.008.152c9.163-.133,74.405-.5,126.9-.8C200.813.229,234.33.041,234.936.005h.006a15.2,15.2,0,0,1,6.147,1.113,8,8,0,0,1,4.326,3.613,27.726,27.726,0,0,1,3.3,8.293v0a6.143,6.143,0,0,1-.01,2.01,36.665,36.665,0,0,1-1.089,4.568c-.236.829-.479,1.685-.684,2.535-.571,2.373-1.055,4.914-1.524,8a74.958,74.958,0,0,1-1.794,9c-.071.253-.14.512-.206.763-.453,1.714-.922,3.486-2.473,4.708l-.188.149a4.241,4.241,0,0,1-2.234,1.128l-1.569.151a93.161,93.161,0,0,1-11.883.641c-1.153-.035-11.685-.053-26.68-.053-12.581,0-28.3.013-44.28.038-42.6.069-69.124.2-70.941.346-7.126.581-24.194,1.02-37.909,1.373-5.88.151-10.957.282-14.08.4l-.28.01C27.246,48.919,23.527,49.055,19.8,49.055ZM3.2,30.891a29.881,29.881,0,0,1,1.179,4.252,38.318,38.318,0,0,0,2.574,9.2,7.481,7.481,0,0,0,2.165,2.9A6.1,6.1,0,0,0,12.6,48.476c6.1.383,12.29.157,18.28-.061l.28-.01c3.124-.114,8.2-.244,14.084-.4,13.71-.353,30.773-.792,37.889-1.371,2.706-.22,55.006-.321,70.971-.347,35.02-.056,68.847-.05,70.971.014a92.885,92.885,0,0,0,11.836-.64l1.57-.151a3.9,3.9,0,0,0,2.038-1.049l.19-.15c1.453-1.145,1.906-2.856,2.343-4.511.067-.252.136-.513.207-.766a74.593,74.593,0,0,0,1.785-8.954c.471-3.1.957-5.647,1.531-8.031.206-.857.451-1.717.688-2.549a36.383,36.383,0,0,0,1.079-4.523v0a5.77,5.77,0,0,0,.01-1.89,27.405,27.405,0,0,0-3.257-8.176,7.621,7.621,0,0,0-4.127-3.444l-.009,0a14.832,14.832,0,0,0-6-1.088c-.759.037-34.218.225-72.948.443-52.835.3-118.589.667-127.066.8l-.184,0,0-.131c-2.659.167-21.049.786-22.866.765h0a8.108,8.108,0,0,0-4.369,1.1c-.778.5-1.54,1.051-2.265,1.629l-.009.006A11.225,11.225,0,0,0,1.582,9.34,14.171,14.171,0,0,0,.393,14.6a28.472,28.472,0,0,0,.338,5.38A59.026,59.026,0,0,0,3.2,30.891Zm14.651,16a2.4,2.4,0,0,1-1.051-.257l-.188-.091.113-.176a2.18,2.18,0,0,1,.778-.655,3.413,3.413,0,0,0,.544-.377c-.261.127-.513.264-.759.4a4.953,4.953,0,0,1-2.753.855l-.486-.029,2.614-2.071a15.662,15.662,0,0,0-1.659.893,13.905,13.905,0,0,1-1.594.854,2.76,2.76,0,0,0-.293.159c-.312.184-.783.463-1.114.007a.46.46,0,0,1-.1-.364c.041-.209.232-.329.418-.445a.822.822,0,0,0,.3-.253c.028-.063.059-.121.094-.183-.247-.058-.422.069-.676.275a2.123,2.123,0,0,1-.371.26,1.176,1.176,0,0,0-.214.163c-.205.18-.549.48-.938.071a.7.7,0,0,1-.224-.606.982.982,0,0,1,.571-.662.343.343,0,0,0,.089-.1,1.434,1.434,0,0,0-.369.225.948.948,0,0,1-1.154.186l-.2-.111,1.358-1.583c-.318.155-.583.288-.831.44a.69.69,0,0,0-.137.143.553.553,0,0,1-.411.268.59.59,0,0,1-.424-.261A.911.911,0,0,1,8.761,42.6c.078-.089.163-.17.245-.248a1.152,1.152,0,0,0,.419-.593A.933.933,0,0,0,9.074,42a.9.9,0,0,1-.641.312.751.751,0,0,1-.506-.317,1.137,1.137,0,0,1-.309-1.021,1.1,1.1,0,0,1,.553-.66c-.041,0-.09.005-.149.012a.839.839,0,0,1-.421-.026.525.525,0,0,1-.293-.473,1.259,1.259,0,0,1,.68-1.2c.084-.062.164-.123.237-.186l-.008-.008c-.093-.017-.189.07-.332.212a.723.723,0,0,1-.51.287.514.514,0,0,1-.366-.21.581.581,0,0,1-.161-.456c.036-.242.258-.389.454-.518a.993.993,0,0,0,.293-.244,10.082,10.082,0,0,1,.713-1.034c.131-.175.265-.352.394-.536L6.73,37.17l-.066-.241c-.19-.692-.385-1.387-.574-2.058-.473-1.679-.919-3.265-1.309-4.9-.242-1.019-.568-2.353-.941-3.638v0a67.3,67.3,0,0,1-1.732-8.515,14.166,14.166,0,0,1,.159-5.449A11.522,11.522,0,0,1,4.756,7.51l0,0a17.254,17.254,0,0,1,4.5-3.589l.016-.008a3.432,3.432,0,0,1,1.658-.266l.292-.012c2.386-.1,9.646-.4,20.155-.514l.184,0v.059c3.642-.016,58.121-.344,110.851-.661,47.278-.284,91.934-.553,92.746-.554.108,0,.219-.008.336-.016a1.644,1.644,0,0,1,1.444.389l.095.1-.063.12a1.564,1.564,0,0,1-.737.613,1.276,1.276,0,0,0-.582.454,3.173,3.173,0,0,0,1.31-.52,2.842,2.842,0,0,1,1.869-.549l.136.02.021.136a.743.743,0,0,1-.51.83,1.031,1.031,0,0,0-.235.148.43.43,0,0,0,.407-.056c1.007-.794,1.964-.345,2.808.052l.084.039c.217.1.506.268.517.544.012.3-.323.488-.433.55-.084.047-.171.091-.255.133a1.988,1.988,0,0,0-.567.367,1.931,1.931,0,0,0,.562-.208,2.4,2.4,0,0,1,.6-.226.936.936,0,0,0,.2-.083.7.7,0,0,1,.54-.1.561.561,0,0,1,.315.318.485.485,0,0,1,.039.386.591.591,0,0,1-.368.3.586.586,0,0,0-.168.09,3.049,3.049,0,0,1-.972.658,6.141,6.141,0,0,0-.54.294l.057-.029a4.7,4.7,0,0,1,2.5-.739l.206.012-.033.2a1.452,1.452,0,0,1-.652.993l.043-.009c.053-.01.108-.022.167-.035.355-.079.892-.2,1.14.361a.506.506,0,0,1,.029.4.694.694,0,0,1-.432.339.808.808,0,0,0-.214.112c-.058.055-.117.108-.178.159a.6.6,0,0,1,.177-.039.689.689,0,0,0,.268-.136.734.734,0,0,1,.57-.185.623.623,0,0,1,.385.332.564.564,0,0,1,.085.461.7.7,0,0,1-.43.373.714.714,0,0,0-.225.134l-.124.161-.055.071c.05-.013.1-.028.153-.043a1,1,0,0,1,1.028.108l.086.072-.023.11a1.615,1.615,0,0,1-1,1.064,2.392,2.392,0,0,0-.677.476,3.372,3.372,0,0,0,.891-.373,3.3,3.3,0,0,1,1.044-.411l.137-.021.059.125c.33.7-.166.974-.495,1.158-.211.118-.338.2-.386.3a.92.92,0,0,0,.34-.087.826.826,0,0,1,1,.125l.091.093-.056.117a2.884,2.884,0,0,1-.635.868.521.521,0,0,1,.783.2c.1.18.137.455-.256.745-.226.169-.436.358-.726.619l.765-.15.037.186.181.045c-.17.68-.335,1.361-.495,2.019-.358,1.479-.7,2.876-1.093,4.288a76.671,76.671,0,0,0-1.587,7.633c-.242,1.405-.493,2.859-.785,4.281-.131.637-.247,1.292-.359,1.925a20.859,20.859,0,0,1-2.025,6.782,3.08,3.08,0,0,1-2.554,1.52c-4.462.617-43.849.684-81.939.748-35.321.06-68.683.116-72.763.6-3.539.416-24.489.7-41.322.928-9.374.127-17.47.237-19.5.335-.758.037-1.272.073-1.62.106.6.077,1.423.151,1.916.194.294.026.548.049.733.068.1.01.173.019.223.027s.246.036.236.213-.19.186-.309.19c-.093,0-.233,0-.428,0-.391,0-1.018-.011-1.916-.03h-.024c-.539-.011-.809-.017-.979-.206a.471.471,0,0,1-.1-.189c-.146-.032-.332-.084-.37-.228a4.159,4.159,0,0,1-.876.5A2.275,2.275,0,0,1,17.855,46.886Zm-.671-.5c1.123.415,1.96-.273,2.842-1l.342-.282-.039.442c-.009.1-.017.193-.024.279.411-.049,1.049-.094,1.9-.135,2.038-.1,10.137-.208,19.514-.335,16.825-.228,37.764-.512,41.284-.925,4.1-.481,37.473-.538,72.805-.6,38.078-.064,77.452-.131,81.889-.745a2.715,2.715,0,0,0,2.281-1.334,20.577,20.577,0,0,0,1.983-6.665c.113-.636.229-1.293.361-1.935.291-1.417.541-2.867.783-4.269a76.939,76.939,0,0,1,1.6-7.671c.394-1.407.732-2.8,1.089-4.276.138-.569.28-1.154.426-1.742l-1.827.359.52-.456c.191-.167.354-.314.5-.443.3-.271.519-.466.761-.648.214-.157.179-.22.153-.266-.076-.136-.1-.146-.355-.016-.2.1-.53.272-.8-.059l-.133-.164.179-.111a2.511,2.511,0,0,0,.882-.93c-.143-.086-.284-.04-.506.044a.862.862,0,0,1-.77.03l-.089-.05-.005-.1c-.023-.421.321-.613.6-.768.313-.175.47-.278.393-.54a3.571,3.571,0,0,0-.781.342,2.8,2.8,0,0,1-1.426.448l-.273-.007.107-.252a2.025,2.025,0,0,1,1.024-.947c.349-.191.655-.358.777-.7a.751.751,0,0,0-.589.029,1.551,1.551,0,0,1-.691.089l-.313-.048.194-.25.312-.4.124-.161a.93.93,0,0,1,.364-.244c.091-.042.216-.1.231-.148a.257.257,0,0,0-.053-.163c-.052-.09-.106-.147-.147-.156-.062-.014-.177.063-.278.131a.928.928,0,0,1-.458.2.541.541,0,0,0-.185.072.709.709,0,0,1-.733.036l-.242-.131.211-.175c.083-.068.162-.133.239-.194.156-.125.3-.243.436-.369a1.038,1.038,0,0,1,.326-.185c.09-.038.213-.089.23-.133a.177.177,0,0,0-.024-.112c-.113-.254-.306-.24-.719-.148-.06.013-.121.027-.181.038a1.364,1.364,0,0,0-.468.23A1.521,1.521,0,0,1,241.7,8.1l-.349-.033.222-.27a2.972,2.972,0,0,1,.872-.657,1.692,1.692,0,0,0,.87-.8,4.746,4.746,0,0,0-2.083.7c-.328.169-.667.343-1.037.5l-.516.212.286-.479a3.051,3.051,0,0,1,1.414-1.157,2.733,2.733,0,0,0,.861-.572.805.805,0,0,1,.3-.186.537.537,0,0,0,.166-.091.193.193,0,0,0-.027-.094.246.246,0,0,0-.1-.126c-.05-.017-.162.04-.252.085a1.178,1.178,0,0,1-.294.116,2.093,2.093,0,0,0-.5.2,1.615,1.615,0,0,1-1.1.226l-.224-.049.094-.209a1.7,1.7,0,0,1,.907-.794c.084-.042.163-.082.239-.125.2-.114.245-.193.244-.212,0,0-.011-.086-.3-.222l-.084-.04c-.82-.385-1.595-.749-2.422-.095l0,0a.8.8,0,0,1-1-.033l-.088-.074.027-.111a.8.8,0,0,1,.49-.5c.191-.1.3-.162.319-.3a2.759,2.759,0,0,0-1.476.518,3.013,3.013,0,0,1-1.771.568l-.206-.017.038-.2a1.324,1.324,0,0,1,.853-.935,1.639,1.639,0,0,0,.5-.339,1.455,1.455,0,0,0-1.04-.179c-.119.008-.242.017-.362.017-.81,0-45.466.269-92.744.554-54.082.325-110,.662-111.032.662H31.2V3.492C20.8,3.606,13.614,3.9,11.243,4l-.317.013h-.012a3.059,3.059,0,0,0-1.481.233,16.884,16.884,0,0,0-4.4,3.506A11.935,11.935,0,0,0,2.474,17.76,66.947,66.947,0,0,0,4.2,26.227c.376,1.293.7,2.633.946,3.655.388,1.629.833,3.211,1.3,4.887.167.594.34,1.206.509,1.82L9.8,34.807l-.34.624A10.24,10.24,0,0,1,8.6,36.693a9.8,9.8,0,0,0-.687.995,1.213,1.213,0,0,1-.411.37c-.125.083-.28.185-.292.263a.254.254,0,0,0,.079.163c.047.056.082.076.1.077.048,0,.158-.107.231-.179a.731.731,0,0,1,.709-.3.442.442,0,0,1,.2.146c.024.026.05.054.081.083l.133.123-.12.136a2.649,2.649,0,0,1-.416.358c-.359.268-.577.453-.533.857.006.056.023.152.067.17a.612.612,0,0,0,.236,0,.626.626,0,0,1,.734.3l.088.18-.186.074a.958.958,0,0,0-.639.558.843.843,0,0,0,.237.693.456.456,0,0,0,.249.182c.1.009.231-.1.366-.221a.843.843,0,0,1,.853-.294l.114.042.007.121a1.291,1.291,0,0,1-.541,1.038c-.08.077-.156.149-.224.226l0,0a.54.54,0,0,0,.021.754l.015.016c.084.1.129.126.141.13a.658.658,0,0,0,.123-.13.949.949,0,0,1,.233-.227c.31-.19.636-.348,1.047-.547.184-.089.393-.19.623-.306l.826-.414L9.842,44.72c.173.017.316-.082.523-.237a1.076,1.076,0,0,1,1-.29l.264.076-.169.217c-.052.067-.094.128-.134.188a.857.857,0,0,1-.28.3c-.222.12-.361.263-.382.394a.355.355,0,0,0,.126.291c.127.134.175.123.424-.095a1.449,1.449,0,0,1,.291-.215,1.829,1.829,0,0,0,.3-.216,1.036,1.036,0,0,1,1.263-.246l.169.087-.091.167c-.027.05-.053.1-.077.138-.043.075-.079.14-.107.2a1.043,1.043,0,0,1-.445.418c-.09.056-.241.15-.25.2,0,.007,0,.032.035.074.109.15.219.131.623-.108a3.064,3.064,0,0,1,.335-.18,13.629,13.629,0,0,0,1.552-.833,11.144,11.144,0,0,1,2.8-1.309l.88-.242L15.1,46.193a5.748,5.748,0,0,0,2.007-.792,10.711,10.711,0,0,1,1.413-.681l.412-.153-.178.4A2.306,2.306,0,0,1,17.7,46.025,2.723,2.723,0,0,0,17.184,46.387Z" transform="translate(0.001 0)" fill="#040405"/>
        </g>
        <path id="Path_172" data-name="Path 172" d="M17.327-28.287a3.705,3.705,0,0,0-.117-.932c-.058-.35-.845-.641-.991-.816-.117-.146.379-.35.2-.554-1.544-2.039-5.069-2.535-7.546-2.476a7.165,7.165,0,0,0-1.573.029c-1.107,0-4.72.029-4.72.029l.175.291c.524.058,1.952.524,2.476.641.029.262.029,1.311.058,1.544,0,.175.5.583.5.758s-.466.524-.466.7c0,.554-.029,2.972-.029,3.554,0,.087.35.379.35.466s-.35.379-.35.437c0,.758.029,4.836.029,5.565,0,.117.554.408.554.524s-.554.35-.554.5c0,.816-.029,2.855-.087,3.671-.5.117-1.02.845-1.544.874l-.961.728c.612-.029,2.273-.087,2.884-.087H7.247c.554,0,2.651.058,3.2.087L9.461-13.4a4.5,4.5,0,0,1-.029-.5,11.442,11.442,0,0,0-1.282-.291c-.291-.029-.117-.146-.379-.291-.058-.991-.087-2.185-.087-3.321,0-.146-.379-.379-.379-.5,0-.058.35-.2.35-.32a8.924,8.924,0,0,1,.758-3.03c.612-.029,1.777-.087,2.476-.2,2.943-.554,4.924-1.923,5.827-3.933.117-.2-.379-.524-.291-.728s.787-.524.845-.816C17.3-27.675,17.327-27.937,17.327-28.287Zm-2.564.67a5.269,5.269,0,0,1-.262,1.6c-.117.291-.175.7-.262.816s-.408.379-.583.554c-.146.175-.233.35-.291.408-.146.087-.554.32-.787.437a9.693,9.693,0,0,1-4.166,1.078c-.5-.728-.758-1.515-.758-3.758,0-.087-.175-.32-.175-.408,0-.058.175-.32.175-.408v-.67c0-.146-.437-.524-.437-.67,0-.2.437-.5.437-.67.029-.408.058-1.777.087-2.185.583-.612,2.331-.757,3.846-.2.379.146,1.632.32,1.865.466.146.117-.408.291-.233.437A3.837,3.837,0,0,1,14.763-27.616ZM39.557-12.729c0-.087-.32-.262-.408-.291a29.33,29.33,0,0,1-4.632-4.487c-.029-1.107-2.389-3.438-2.943-4.458-.117-.233-.117-.554-.262-.787A6.488,6.488,0,0,0,35.566-28.4c0-1.835-.932-2.039-2.447-2.506l.612-.175c-1.573-1.573-4.428-1.952-6.555-1.952-2.243,0-4.487.029-6.73.058l.175.291a23.636,23.636,0,0,1,2.476.612,14.766,14.766,0,0,1,.087,1.6l.466.787-.466.641c0,.874-.058,1.748-.058,2.593A6.444,6.444,0,0,0,23.5-24.5a6.463,6.463,0,0,0-.437,2.535c0,1.369.117,2.739.117,4.108l.554.554c0,.437-.583.816-.583,1.224L23.1-14.36c-.583.146-.961.816-1.544.874l-.961.728a71.876,71.876,0,0,1,7.517,0l-.961-.524v-.466l-.117-.2a7.08,7.08,0,0,1-1.369-.233c.029-.2.058-.146-.058-.291l-.058-2.884c-.029-.758.32-1.457.32-2.214a1.009,1.009,0,0,0-.7-1.049l.35-.291.029-.466c.35-.758,1.282-.554,1.981-.583a17.186,17.186,0,0,1,2.01,1.165c.67.874,1.195.787,1.748,2.039l-.029.117c.845,1.107,1.777,2.564,3.088,3.176l-.379.932A7.313,7.313,0,0,0,38.77-12.5C38.887-12.5,39.557-12.583,39.557-12.729ZM32.973-27.849c0,.758-.32,1.486-.291,2.214-1.107,2.1-4.021,2.593-6.177,2.593-1.369,0-.816-1.952-1.195-2.855a2.743,2.743,0,0,0,.2-1.457c0-.35-.437-.641-.437-.991,0-.32.437-.554.437-.874.029-1.107-.262-1.835,1.107-1.835.67,0,1.369.233,2.039.262l.058-1.049A4.229,4.229,0,0,1,32.973-27.849Zm29.747,4.4a13.033,13.033,0,0,0-.32-2.71c-.087-.233-.845-.554-.932-.758-.087-.175.408-.583.291-.758-1.661-3.613-5.477-5.71-9.906-5.71a13.616,13.616,0,0,0-4.166.758c-.117.029.117.233,0,.262-.262.117-1.515.379-1.748.524a10.543,10.543,0,0,0-3.467,3.234c-.087.146.32.437.233.583-.117.2-.932.524-1.02.728a11.824,11.824,0,0,0-.991,4.6A11.042,11.042,0,0,0,42-17.419c.146.2,1.078.524,1.253.7.117.175-.35.583-.2.728A10.98,10.98,0,0,0,51.5-12.379a11.168,11.168,0,0,0,8.07-3.117c.2-.175,0-.466.117-.583.146-.146.816-.437.991-.7A11.133,11.133,0,0,0,62.719-23.45Zm-1.835,1.078c0,.233-.7.758-.728.991a10.842,10.842,0,0,1-.466,2.389c-.058.146.32.524.262.67-.087.146-.7.466-.816.612a7.7,7.7,0,0,1-6.9,4.312,7.579,7.579,0,0,1-4.487-1.457c-.262-.146-1.6-.554-1.865-.728-.146-.117.32-.524.175-.67a10.818,10.818,0,0,1-1.69-2.651c-.146-.2-1.078-.583-1.165-.787-.117-.2.583-.524.5-.728a13.784,13.784,0,0,1-.466-3.263,10.465,10.465,0,0,1,.2-2.739,11.568,11.568,0,0,1,.5-1.049,7.427,7.427,0,0,1,2.651-3.554c.2-.146.554-.262.758-.379a7.835,7.835,0,0,1,3.962-.991,8.3,8.3,0,0,1,6.351,3.117c.2.175,1.195.5,1.369.67.146.175-.379.612-.262.787a12.213,12.213,0,0,1,1.4,4.662C60.185-22.955,60.884-22.605,60.884-22.372Zm18.18,5.157-.437.262A11.051,11.051,0,0,1,77.665-15c-.612.728-6.06.67-7.225.67l-.466-.5c-.058-.641-.058-1.282-.058-1.923l-.554-.437.524-.554v-4.895l2.651-.029a19.429,19.429,0,0,1,2.36.233l.554.466.291.816.554.612.029-1.486a5.82,5.82,0,0,0-.146-1.136,13.562,13.562,0,0,0,.437-2.826l-.291.146c-.087.32-.2.612-.32.932a10.394,10.394,0,0,1-5.069.787c-.961,0-1.224-.466-1.224-1.369a33.143,33.143,0,0,1,.233-3.817l-.32-.262.32-.2v-1.457l.262-.233c1.049,0,6.118.117,6.7.612a4.8,4.8,0,0,1,.845,1.661l.612.117-.233-3.584.117-1.136-.554.058a2.59,2.59,0,0,0-.816.67,34.135,34.135,0,0,1-3.467.146c-1.835,0-3.7-.117-5.565-.117-.787,0-1.573.262-2.36.262l.175.262c1.136.262.961,1.6,1.486,1.719a14.256,14.256,0,0,1,.787,1.34c.146.233.233,0-.524,1.165v4.166c0,.524.845.67.845,1.195,0,.554-.845.7-.845,1.253,0,2.156.029,4.283-.117,6.41l.262.32a7.852,7.852,0,0,0-.816.117,11.043,11.043,0,0,0-1.02,1.748,2.869,2.869,0,0,0,.816.233c1.253,0,8.77-.262,9.323.32.087.35.583.35.641.7l.437.058c.175-.466,1.165-.9,1.369-1.4A26.168,26.168,0,0,0,79.064-17.215ZM94.447-28.694v-.087c0-.874-.146-1.748-.146-2.622,0-.35-.146-.67-.146-.991a12.219,12.219,0,0,1,.175-1.4l-.5.058c-.087.32-.612.379-.728.7a24.427,24.427,0,0,1-3.584.117c-2.826,0-5.681,0-8.478-.117a6.312,6.312,0,0,0,1.544.9c.408.2.612,1.748.961,1.835a3.2,3.2,0,0,1,.058.758c0,1.369-.058,2.71-.117,4.079l.466.612a4.683,4.683,0,0,0-.437,2.506c0,2.243-.029,4.458-.087,6.73l.437.641-.612,1.078a8.714,8.714,0,0,0-1.6,1.107c2.214-.029,4.458-.058,6.672-.058l-2.243-.9c-.175-2.36-.058-4.836-.117-7.2l-.641-.583a5.545,5.545,0,0,1,1.224-1.107,20.16,20.16,0,0,1,4.516.35c.029.437.961,1.369.961,1.806l.291.291a12.671,12.671,0,0,0,.058-1.486,7.559,7.559,0,0,0-.117-1.632,9.06,9.06,0,0,0,.437-2.68l-.35.262c-.117.32-.991.961-1.136,1.282A33.053,33.053,0,0,1,86-24.179h-.029V-25.81l-.32-.728L85.94-27l-.029-1.835-.787-.524.845-.291a9.413,9.413,0,0,1,.117-1.806c.991,0,6.293.117,6.759.612a4.633,4.633,0,0,1,1.078,1.777Zm22.4,15.966c0-.087-.32-.262-.408-.291a29.33,29.33,0,0,1-4.632-4.487c-.029-1.107-2.389-3.438-2.943-4.458-.117-.233-.117-.554-.262-.787A6.488,6.488,0,0,0,112.86-28.4c0-1.835-.932-2.039-2.447-2.506l.612-.175c-1.573-1.573-4.428-1.952-6.555-1.952-2.243,0-4.487.029-6.73.058l.175.291a23.635,23.635,0,0,1,2.476.612,14.766,14.766,0,0,1,.087,1.6l.466.787-.466.641c0,.874-.058,1.748-.058,2.593A6.444,6.444,0,0,0,100.8-24.5a6.463,6.463,0,0,0-.437,2.535c0,1.369.117,2.739.117,4.108l.554.554c0,.437-.583.816-.583,1.224l-.058,1.719c-.583.146-.961.816-1.544.874l-.961.728a71.876,71.876,0,0,1,7.517,0l-.961-.524v-.466l-.117-.2a7.08,7.08,0,0,1-1.369-.233c.029-.2.058-.146-.058-.291l-.058-2.884c-.029-.758.32-1.457.32-2.214a1.009,1.009,0,0,0-.7-1.049l.35-.291.029-.466c.35-.758,1.282-.554,1.981-.583a17.187,17.187,0,0,1,2.01,1.165c.67.874,1.195.787,1.748,2.039l-.029.117c.845,1.107,1.777,2.564,3.088,3.176l-.379.932a7.313,7.313,0,0,0,4.807,2.039C116.182-12.5,116.852-12.583,116.852-12.729Zm-6.584-15.121c0,.758-.32,1.486-.291,2.214-1.107,2.1-4.021,2.593-6.177,2.593-1.369,0-.816-1.952-1.195-2.855a2.744,2.744,0,0,0,.2-1.457c0-.35-.437-.641-.437-.991,0-.32.437-.554.437-.874.029-1.107-.262-1.835,1.107-1.835.67,0,1.369.233,2.039.262l.058-1.049A4.229,4.229,0,0,1,110.267-27.849Zm29.747,4.4a13.033,13.033,0,0,0-.32-2.71c-.087-.233-.845-.554-.932-.758-.087-.175.408-.583.291-.758-1.661-3.613-5.477-5.71-9.906-5.71a13.616,13.616,0,0,0-4.166.758c-.117.029.117.233,0,.262-.262.117-1.515.379-1.748.524a10.543,10.543,0,0,0-3.467,3.234c-.087.146.32.437.233.583-.117.2-.932.524-1.02.728a11.824,11.824,0,0,0-.991,4.6,11.042,11.042,0,0,0,1.311,5.273c.146.2,1.078.524,1.253.7.117.175-.35.583-.2.728a10.98,10.98,0,0,0,8.449,3.613,11.168,11.168,0,0,0,8.07-3.117c.2-.175,0-.466.117-.583.146-.146.816-.437.991-.7A11.133,11.133,0,0,0,140.014-23.45Zm-1.835,1.078c0,.233-.7.758-.728.991a10.842,10.842,0,0,1-.466,2.389c-.058.146.32.524.262.67-.087.146-.7.466-.816.612a7.7,7.7,0,0,1-6.9,4.312,7.579,7.579,0,0,1-4.487-1.457c-.262-.146-1.6-.554-1.865-.728-.146-.117.32-.524.175-.67a10.818,10.818,0,0,1-1.69-2.651c-.146-.2-1.078-.583-1.165-.787-.117-.2.583-.524.5-.728a13.783,13.783,0,0,1-.466-3.263,10.466,10.466,0,0,1,.2-2.739,11.572,11.572,0,0,1,.5-1.049,7.427,7.427,0,0,1,2.651-3.554c.2-.146.554-.262.757-.379a7.835,7.835,0,0,1,3.962-.991,8.3,8.3,0,0,1,6.351,3.117c.2.175,1.195.5,1.369.67.146.175-.379.612-.262.787a12.212,12.212,0,0,1,1.4,4.662C137.479-22.955,138.178-22.605,138.178-22.372ZM165.39-33.065l-3.38.146-3.554-.146,2.8.961.087,1.282.233.728-.146.874.087,5.477-.058,2.651.32.612-.291.7v3.409L156.8-22.343l-1.34-.466.554-.408-3.059-3.9-.9-.641-.146-.7-1.253-1.573-1.107-.816-.2-.9-1.02-1.34-4.866.117,1.282.787,1.34.35.087,1.719.583.728-.612.758-.175,4.312.2,3.147-.2.437L145.9-16.05l.117.583-.2,1.661-2.3,1.02,3.817-.117,2.039.146-1.661-1.195-.175-1.835.029-3.846-.379-1.195.408-.728-.2-3.584-.146-.874.291-.379V-29.86l.583.787.5.233,3,4.108,1.661,1.457.5,1.195,3.176,3.729,1.136,1.69,2.3,2.884,1.777,1.165.67-.583v-2.389l.146-9.207-.175-.524.32-5.448-.379-.291.437-.32.058-.758,1.981-.583ZM190.155-24a7.573,7.573,0,0,0-6-7.575l.291-.2a17.4,17.4,0,0,0-6.672-1.253c-3.03,0-6.06.379-9.09.437l.175.291c.641.146,1.311.291,1.952.466l.408,1.195c.117.379.845.932.845,1.253,0,.291-.758.583-.728.874v3.788l.583.641-.583.554c0,1.6-.058,3.176-.058,4.749a6.27,6.27,0,0,0,.7,3.176l-.67.291-.029.291-.233.787-1.69.845-.641.32c2.3.146,4.632.32,6.963.32,4.866,0,9.381-.7,12.5-4.807a10.674,10.674,0,0,0,1.34-2.535c0-.262-.2-.5-.262-.758C190.3-21.673,190.155-22.78,190.155-24Zm-2.593,1.02a9.4,9.4,0,0,1-.787,3.991l.35.408-.932.583a7.619,7.619,0,0,1-2.564,2.535l-.029.35a20.727,20.727,0,0,1-5.944,1.195,13.708,13.708,0,0,1-3.788-.35l-.029-.787-.524-.67.466-.816c-.029-1.078-.029-2.185,0-3.292l-.437-.437.437-.35v-1.4l-.583-.641.583-.67v-3.409c0-.5-.175-.961-.175-1.428a21.129,21.129,0,0,1,.262-2.331c.554-.146.757-1.282,1.282-1.282.612-.029,1.253-.029,1.865-.029,3.38,0,5.943,1.165,8.857,2.739l-.262.466A7.667,7.667,0,0,1,187.562-22.984ZM206.3-17.215l-.437.262A11.049,11.049,0,0,1,204.9-15c-.612.728-6.06.67-7.225.67l-.466-.5c-.058-.641-.058-1.282-.058-1.923l-.554-.437.524-.554v-4.895l2.651-.029a19.429,19.429,0,0,1,2.36.233l.554.466.291.816.554.612.029-1.486a5.82,5.82,0,0,0-.146-1.136,13.562,13.562,0,0,0,.437-2.826l-.291.146c-.087.32-.2.612-.32.932a10.394,10.394,0,0,1-5.069.787c-.961,0-1.224-.466-1.224-1.369a33.141,33.141,0,0,1,.233-3.817l-.32-.262.32-.2v-1.457l.262-.233c1.049,0,6.118.117,6.7.612a4.8,4.8,0,0,1,.845,1.661l.612.117-.233-3.584.117-1.136-.554.058a2.59,2.59,0,0,0-.816.67,34.135,34.135,0,0,1-3.467.146c-1.835,0-3.7-.117-5.565-.117-.787,0-1.573.262-2.36.262l.175.262c1.136.262.961,1.6,1.486,1.719a14.253,14.253,0,0,1,.787,1.34c.146.233.233,0-.524,1.165v4.166c0,.524.845.67.845,1.195,0,.554-.845.7-.845,1.253,0,2.156.029,4.283-.117,6.41l.262.32a7.853,7.853,0,0,0-.816.117,11.042,11.042,0,0,0-1.02,1.748,2.869,2.869,0,0,0,.816.233c1.253,0,8.77-.262,9.323.32.087.35.583.35.641.7l.437.058c.175-.466,1.165-.9,1.369-1.4A26.166,26.166,0,0,0,206.3-17.215Z" transform="translate(20.202 46.362)"/>
        <path id="Proefronde_-_Outline" data-name="Proefronde - Outline" d="M94.276-34.137l-.034.239c-.015.1-.032.215-.051.334a7.838,7.838,0,0,0-.122,1.038,2.064,2.064,0,0,0,.066.433,2.521,2.521,0,0,1,.08.557c0,.429.037.87.072,1.3s.073.882.073,1.327v.451l-.868-.627-.019-.057a4.417,4.417,0,0,0-1.037-1.708c-.042-.044-.387-.272-3.061-.434-1.354-.082-2.79-.114-3.408-.119a10.325,10.325,0,0,0-.086,1.62v.133l-.615.212.556.37.032,1.988-.268.429.3.674V-24.5a26.578,26.578,0,0,0,4.931-.23,3.761,3.761,0,0,1,.551-.6,2.9,2.9,0,0,0,.538-.6l.019-.052.751-.563-.061.442c-.033.242-.052.5-.072.779a5.524,5.524,0,0,1-.354,1.9,8.065,8.065,0,0,1,.107,1.608,12.884,12.884,0,0,1-.06,1.508l-.045.381-.617-.617v-.077a2.5,2.5,0,0,0-.455-.823,3.3,3.3,0,0,1-.485-.85,21.1,21.1,0,0,0-4.3-.3,5.206,5.206,0,0,0-1.017.906l.565.514,0,.08c.022.887.019,1.806.016,2.7,0,1.447-.009,2.943.091,4.376l2.136.86-.069.358c-2.242,0-4.493.03-6.669.058l-.529.007.409-.336a9.079,9.079,0,0,1,1.587-1.1l.527-.928-.406-.595,0-.06c.059-2.292.087-4.492.087-6.725v-.217a4.453,4.453,0,0,1,.413-2.257l-.445-.584.006-.151c.058-1.363.113-2.65.113-3.987a3.587,3.587,0,0,0-.035-.633,2.022,2.022,0,0,1-.466-.921c-.109-.317-.274-.8-.412-.871a6.468,6.468,0,0,1-1.579-.925l-.459-.357.581.024c2.793.116,5.679.116,8.47.116.231,0,.472,0,.705,0s.487,0,.732,0a14.738,14.738,0,0,0,2.023-.11,1.1,1.1,0,0,1,.394-.334c.13-.079.253-.153.278-.244l.033-.121Zm-.292,4.944c-.011-.339-.04-.682-.067-1.016-.036-.434-.073-.882-.073-1.327a2.2,2.2,0,0,0-.071-.477,2.367,2.367,0,0,1-.075-.514,8.034,8.034,0,0,1,.126-1.1l.014-.089-.146.017a1.033,1.033,0,0,1-.394.341c-.13.079-.254.153-.289.249l-.038.1-.109.017a14.579,14.579,0,0,1-2.174.128c-.247,0-.5,0-.736,0s-.472,0-.7,0c-2.589,0-5.26,0-7.866-.093a6.467,6.467,0,0,0,1.005.523l.01,0c.275.137.433.6.6,1.085a2.522,2.522,0,0,0,.328.738l.1.026.027.108a3.351,3.351,0,0,1,.064.8c0,1.345-.055,2.636-.113,4v.017l.488.64-.036.1a4.259,4.259,0,0,0-.426,2.223v.218c0,2.217-.028,4.4-.086,6.675l.469.687-.7,1.228-.051.025a7.039,7.039,0,0,0-1.149.748c1.7-.022,3.438-.043,5.179-.05l-1.465-.59-.009-.116c-.11-1.483-.105-3.027-.1-4.52,0-.86.005-1.748-.014-2.606l-.715-.65.116-.137a5.837,5.837,0,0,1,1.27-1.146l.044-.026h.051a19.049,19.049,0,0,1,4.6.369l.1.048.007.106a2.62,2.62,0,0,0,.441.784,3.784,3.784,0,0,1,.481.821c.017-.328.017-.658.017-.981a7.464,7.464,0,0,0-.112-1.591l-.014-.064.03-.059a5.039,5.039,0,0,0,.345-1.819c.008-.114.016-.226.025-.335a3.827,3.827,0,0,1-.572.62,3.055,3.055,0,0,0-.511.558l-.032.07-.072.027a25.584,25.584,0,0,1-5.28.274H85.51V-25.9l-.344-.783.314-.5-.027-1.683-1.018-.678,1.074-.37a8.948,8.948,0,0,1,.12-1.71l.03-.149h.152c.519,0,2.08.029,3.588.121,2.958.179,3.2.439,3.307.55a4.838,4.838,0,0,1,1.1,1.789Zm-15.8-4.94-.138,1.349.248,3.808-.958-.183-.033-.108a4.448,4.448,0,0,0-.789-1.575c-.075-.064-.523-.289-3.065-.446-1.4-.087-2.87-.117-3.443-.12l-.147.13V-29.8l-.19.121.2.164-.012.1a33.064,33.064,0,0,0-.232,3.8c0,.885.262,1.183,1.038,1.183h.726a9,9,0,0,0,4.2-.741l.047-.126c.09-.242.175-.471.241-.715l.022-.08.665-.333-.031.333q-.016.166-.03.332a12.2,12.2,0,0,1-.4,2.477,6.4,6.4,0,0,1,.137,1.129v.005l-.038,1.96-.893-.987-.287-.8-.475-.4a18.706,18.706,0,0,0-2.28-.223l-2.465.027V-17.8l-.435.46.465.367v.09c0,.605,0,1.23.052,1.842l.367.39h.622c5.3,0,6.228-.423,6.38-.6A5.262,5.262,0,0,0,77.9-16.5c.1-.238.192-.464.292-.663l.024-.048.855-.513-.094.422c-.109.491-.174,1.026-.237,1.544a10.061,10.061,0,0,1-.529,2.535,2.32,2.32,0,0,1-.758.791,2,2,0,0,0-.609.6l-.052.139-.72-.1-.023-.136c-.015-.09-.093-.142-.23-.226a.824.824,0,0,1-.388-.394,4.426,4.426,0,0,0-1.506-.23c-.757-.049-1.788-.074-3.066-.074s-2.566.024-3.5.042c-.494.009-.883.017-1.095.017a2.926,2.926,0,0,1-.911-.26l-.128-.077.047-.142c.041-.124.319-.637.5-.962.479-.845.56-.886.641-.906a2.1,2.1,0,0,1,.5-.08h.007l-.1-.117.005-.073c.124-1.816.121-3.675.117-5.473q0-.461,0-.924a1.019,1.019,0,0,1,.49-.77c.221-.183.355-.307.355-.483,0-.161-.133-.278-.352-.452a.98.98,0,0,1-.493-.743v-4.221l.03-.046c.139-.214.248-.379.336-.511.115-.174.2-.309.242-.377a.8.8,0,0,1-.055-.077l-.028-.045v-.032c-.05-.131-.387-.667-.552-.929-.071-.113-.132-.209-.173-.277-.249-.1-.359-.383-.476-.678-.163-.413-.347-.881-.928-1.015l-.072-.017-.409-.613h.347a7.019,7.019,0,0,0,1.149-.129,7.4,7.4,0,0,1,1.211-.134c.939,0,1.89.03,2.81.059s1.843.058,2.755.058c1.366,0,2.408-.042,3.359-.136a2.976,2.976,0,0,1,.834-.657l.033-.018Zm-.293,4.7-.218-3.359.095-.924-.288.03a2.227,2.227,0,0,0-.71.578l-.047.086-.1.01a33.678,33.678,0,0,1-3.486.147c-.917,0-1.857-.03-2.766-.058s-1.865-.059-2.8-.059a7.018,7.018,0,0,0-1.149.129c-.244.041-.493.082-.745.108a1.821,1.821,0,0,1,.941,1.162c.092.232.178.452.294.477l.08.018.041.071c.031.055.11.181.2.327a6.783,6.783,0,0,1,.6,1.03l.026.033c.164.2.1.292-.233.8-.081.122-.181.272-.3.463v4.111c0,.161.133.278.352.452a.98.98,0,0,1,.493.743,1.019,1.019,0,0,1-.49.77c-.221.183-.355.307-.355.483q0,.463,0,.923c0,1.78.007,3.62-.113,5.425l.407.5-.295.066a2.636,2.636,0,0,1-.376.047,1.944,1.944,0,0,0-.39.055A14.515,14.515,0,0,0,65.7-13.3a2.92,2.92,0,0,0,.568.142c.208,0,.6-.007,1.087-.017.932-.018,2.208-.042,3.5-.042,3.923,0,4.662.221,4.867.437l.034.035.012.047c.023.094.107.15.242.232a.838.838,0,0,1,.36.343l.189.025a2.786,2.786,0,0,1,.661-.63,2.141,2.141,0,0,0,.642-.638,9.794,9.794,0,0,0,.5-2.439c.047-.386.1-.781.162-1.165l-.031.019c-.085.176-.169.378-.257.591a5.5,5.5,0,0,1-.7,1.348c-.267.318-1.247.739-6.666.739h-.783l-.565-.6-.006-.064c-.056-.619-.059-1.243-.059-1.85l-.643-.507.613-.648v-5l2.835-.031a19.323,19.323,0,0,1,2.391.235l.051.008.631.532.3.828.214.237.02-1.012a5.408,5.408,0,0,0-.136-1.079l-.019-.057.018-.057a10.448,10.448,0,0,0,.373-2.163c-.039.111-.079.221-.121.333l-.074.2-.028.076-.074.032a9.42,9.42,0,0,1-4.416.8h-.726c-1.242,0-1.41-.786-1.41-1.555a33.306,33.306,0,0,1,.223-3.737l-.441-.361.451-.287v-1.438l.377-.336h.071c.518,0,2.065.029,3.537.121,2.863.177,3.169.438,3.285.536a4.478,4.478,0,0,1,.868,1.64Zm127.525-4.7-.138,1.349.248,3.808-.958-.183-.033-.108a4.448,4.448,0,0,0-.789-1.575c-.075-.064-.523-.289-3.065-.446-1.4-.087-2.87-.117-3.443-.12l-.147.13V-29.8l-.19.121.2.164-.012.1a33.066,33.066,0,0,0-.232,3.8c0,.885.262,1.183,1.038,1.183h.726a9,9,0,0,0,4.2-.741l.047-.126c.09-.242.175-.471.241-.716l.022-.08.665-.333-.031.334q-.016.166-.03.332a12.2,12.2,0,0,1-.4,2.477,6.4,6.4,0,0,1,.137,1.129v.005l-.038,1.96-.893-.987-.287-.8-.475-.4a18.7,18.7,0,0,0-2.28-.223l-2.465.027V-17.8l-.435.46.465.367v.09c0,.605,0,1.23.052,1.842l.367.39h.622c5.3,0,6.228-.423,6.38-.6a5.261,5.261,0,0,0,.646-1.253c.1-.238.192-.464.292-.663l.024-.048.855-.513-.094.422c-.109.491-.174,1.026-.237,1.544a10.061,10.061,0,0,1-.529,2.535,2.32,2.32,0,0,1-.758.791,2,2,0,0,0-.609.6l-.052.139-.72-.1-.023-.136c-.015-.09-.093-.142-.23-.226a.824.824,0,0,1-.388-.394,4.426,4.426,0,0,0-1.506-.23c-.757-.049-1.788-.074-3.066-.074s-2.566.024-3.5.042c-.494.009-.883.017-1.095.017a2.927,2.927,0,0,1-.911-.26l-.128-.077.047-.142c.041-.124.319-.637.5-.962.479-.845.56-.886.641-.906a2.1,2.1,0,0,1,.5-.08h.007l-.1-.117.005-.073c.124-1.816.121-3.675.117-5.473q0-.461,0-.924a1.019,1.019,0,0,1,.49-.77c.221-.183.355-.307.355-.483,0-.161-.133-.278-.352-.452a.981.981,0,0,1-.493-.743v-4.221l.03-.046c.139-.214.248-.379.336-.511.115-.174.2-.309.242-.377a.794.794,0,0,1-.055-.077l-.028-.045v-.032c-.05-.131-.387-.667-.552-.929-.071-.113-.132-.209-.173-.277-.249-.1-.359-.383-.476-.678-.163-.413-.347-.881-.928-1.015l-.072-.017-.409-.613h.347a7.018,7.018,0,0,0,1.149-.129,7.4,7.4,0,0,1,1.211-.134c.939,0,1.89.03,2.81.059s1.843.058,2.755.058c1.366,0,2.408-.042,3.359-.136a2.976,2.976,0,0,1,.834-.657l.033-.018Zm-.293,4.7-.219-3.359.095-.924-.288.03a2.227,2.227,0,0,0-.71.578l-.047.086-.1.01a33.678,33.678,0,0,1-3.486.147c-.917,0-1.857-.03-2.766-.058s-1.865-.059-2.8-.059a7.019,7.019,0,0,0-1.149.129c-.244.041-.493.082-.745.108a1.821,1.821,0,0,1,.941,1.162c.092.232.178.452.294.477l.08.018.041.071c.031.055.11.181.2.327a6.782,6.782,0,0,1,.6,1.03l.026.033c.164.2.1.292-.233.8-.081.122-.181.272-.3.463v4.111c0,.161.133.278.352.452a.98.98,0,0,1,.493.743,1.019,1.019,0,0,1-.49.77c-.221.183-.355.307-.355.483q0,.463,0,.923c0,1.78.007,3.62-.113,5.425l.407.5-.295.066a2.636,2.636,0,0,1-.376.047,1.944,1.944,0,0,0-.39.055,14.515,14.515,0,0,0-.861,1.486,2.92,2.92,0,0,0,.568.142c.208,0,.6-.007,1.087-.017.932-.018,2.208-.042,3.5-.042,3.923,0,4.662.221,4.867.437l.034.035L203-12.7c.023.094.107.15.242.232a.838.838,0,0,1,.36.343l.189.025a2.786,2.786,0,0,1,.661-.63,2.141,2.141,0,0,0,.642-.638,9.8,9.8,0,0,0,.5-2.439c.047-.386.1-.781.162-1.165l-.031.019c-.085.176-.169.378-.257.591a5.494,5.494,0,0,1-.7,1.348c-.267.318-1.247.739-6.666.739h-.783l-.565-.6-.006-.064c-.056-.619-.059-1.243-.059-1.85l-.643-.507.613-.648v-5l2.835-.031a19.323,19.323,0,0,1,2.391.235l.051.008.631.532.3.828.214.237.02-1.012a5.408,5.408,0,0,0-.136-1.079l-.019-.057.018-.057a10.446,10.446,0,0,0,.372-2.163c-.039.111-.08.221-.121.334l-.074.2-.028.076-.074.032a9.42,9.42,0,0,1-4.416.8h-.726c-1.242,0-1.41-.786-1.41-1.555a33.3,33.3,0,0,1,.223-3.737l-.441-.361.451-.287v-1.438l.377-.336h.071c.518,0,2.065.029,3.537.121,2.863.177,3.169.438,3.285.536a4.478,4.478,0,0,1,.868,1.64ZM51.579-33.7a12.3,12.3,0,0,1,6.083,1.525,9.52,9.52,0,0,1,3.987,4.283c.112.191-.035.409-.155.586a1.433,1.433,0,0,0-.12.2,2.417,2.417,0,0,0,.357.255c.312.2.506.332.569.5l0,.011,0,.012a13.261,13.261,0,0,1,.325,2.751A11.309,11.309,0,0,1,60.559-16.8a2.325,2.325,0,0,1-.711.533,3.162,3.162,0,0,0-.285.177c0,.022,0,.06.007.087a.546.546,0,0,1-.144.514,10.446,10.446,0,0,1-3.6,2.339,12.554,12.554,0,0,1-4.595.829A11.2,11.2,0,0,1,42.643-16c-.166-.175-.029-.408.072-.579a1.5,1.5,0,0,0,.094-.177,5.092,5.092,0,0,0-.463-.233,2.172,2.172,0,0,1-.765-.457l-.012-.019a11.16,11.16,0,0,1-1.334-5.363A12.021,12.021,0,0,1,41.24-27.5c.066-.153.27-.276.6-.463a3.279,3.279,0,0,0,.407-.257c-.02-.035-.056-.083-.08-.116-.1-.134-.233-.318-.126-.5l0-.007a10.767,10.767,0,0,1,3.526-3.29,5.549,5.549,0,0,1,1.07-.335c.213-.055.431-.112.573-.156a.246.246,0,0,1,0-.193.223.223,0,0,1,.144-.122A14.018,14.018,0,0,1,51.579-33.7Zm9.735,5.97a9.149,9.149,0,0,0-3.836-4.122,11.931,11.931,0,0,0-5.9-1.476,13.5,13.5,0,0,0-3.964.7.245.245,0,0,1,0,.19.222.222,0,0,1-.135.119,7.466,7.466,0,0,1-.744.215,6.888,6.888,0,0,0-.969.292l0,0a10.4,10.4,0,0,0-3.377,3.133,1.408,1.408,0,0,0,.083.121c.1.134.233.317.127.5a1.573,1.573,0,0,1-.569.42,2.277,2.277,0,0,0-.442.291,11.641,11.641,0,0,0-.974,4.526,10.791,10.791,0,0,0,1.281,5.17,3.32,3.32,0,0,0,.615.331,2.487,2.487,0,0,1,.614.34l.013.013.01.015c.122.183,0,.4-.1.567a1.445,1.445,0,0,0-.091.17A10.837,10.837,0,0,0,51.229-12.7a12.184,12.184,0,0,0,4.459-.8,10.077,10.077,0,0,0,3.48-2.26l.01-.01c.035-.03.036-.073.023-.195a.428.428,0,0,1,.084-.378,2.09,2.09,0,0,1,.377-.25,2.274,2.274,0,0,0,.591-.421l.005-.007a10.94,10.94,0,0,0,2-6.561,12.86,12.86,0,0,0-.312-2.65,2.051,2.051,0,0,0-.417-.311c-.272-.174-.444-.288-.507-.428-.086-.18.04-.366.161-.547A1.263,1.263,0,0,0,61.314-27.732Zm67.56-5.97a12.3,12.3,0,0,1,6.083,1.525,9.52,9.52,0,0,1,3.987,4.283c.112.191-.035.409-.155.586a1.432,1.432,0,0,0-.12.2,2.417,2.417,0,0,0,.357.255c.312.2.506.332.569.5l0,.011,0,.012a13.261,13.261,0,0,1,.325,2.751,11.309,11.309,0,0,1-2.073,6.779,2.325,2.325,0,0,1-.711.533,3.161,3.161,0,0,0-.285.177c0,.022,0,.06.007.087a.546.546,0,0,1-.144.514,10.447,10.447,0,0,1-3.6,2.339,12.554,12.554,0,0,1-4.595.829A11.2,11.2,0,0,1,119.937-16c-.166-.175-.029-.408.072-.579a1.5,1.5,0,0,0,.094-.177,5.092,5.092,0,0,0-.463-.233,2.172,2.172,0,0,1-.765-.457l-.012-.019a11.16,11.16,0,0,1-1.334-5.363,12.021,12.021,0,0,1,1.006-4.677c.066-.153.27-.276.6-.463a3.281,3.281,0,0,0,.407-.257c-.02-.035-.056-.083-.08-.116-.1-.134-.233-.318-.126-.5l0-.007a10.767,10.767,0,0,1,3.526-3.29,5.549,5.549,0,0,1,1.07-.335c.213-.055.431-.112.573-.156a.246.246,0,0,1,0-.193.223.223,0,0,1,.144-.122A14.018,14.018,0,0,1,128.874-33.7Zm9.735,5.97a9.149,9.149,0,0,0-3.836-4.122,11.931,11.931,0,0,0-5.9-1.476,13.5,13.5,0,0,0-3.964.7.245.245,0,0,1,0,.19.222.222,0,0,1-.135.119,7.466,7.466,0,0,1-.744.215,6.887,6.887,0,0,0-.969.292l0,0a10.4,10.4,0,0,0-3.377,3.133,1.416,1.416,0,0,0,.083.121c.1.134.233.317.127.5a1.573,1.573,0,0,1-.569.42,2.277,2.277,0,0,0-.442.291,11.641,11.641,0,0,0-.974,4.526,10.791,10.791,0,0,0,1.281,5.17,3.321,3.321,0,0,0,.615.331,2.487,2.487,0,0,1,.614.34l.013.013.01.015c.122.183,0,.4-.1.567a1.444,1.444,0,0,0-.091.17,10.837,10.837,0,0,0,8.285,3.521,12.184,12.184,0,0,0,4.459-.8,10.077,10.077,0,0,0,3.48-2.26l.01-.01c.035-.03.036-.073.023-.195a.428.428,0,0,1,.084-.378,2.091,2.091,0,0,1,.377-.25,2.274,2.274,0,0,0,.591-.421l.005-.007a10.94,10.94,0,0,0,2-6.561,12.86,12.86,0,0,0-.312-2.65,2.051,2.051,0,0,0-.417-.311c-.272-.174-.444-.288-.507-.428-.086-.18.04-.366.162-.547A1.264,1.264,0,0,0,138.609-27.732ZM8.188-33.419a1.735,1.735,0,0,1,.444.037c.117,0,.237,0,.355,0a14.769,14.769,0,0,1,4,.522A6.173,6.173,0,0,1,16.3-30.835c.2.236-.02.469-.114.568l-.03.032c.059.04.146.091.215.131.325.19.693.4.751.713a3.9,3.9,0,0,1,.121.973c0,.3-.02.533-.044.8,0,.056-.01.113-.015.172l0,.021c-.048.238-.311.429-.567.615a2.056,2.056,0,0,0-.282.227,1.064,1.064,0,0,0,.118.179c.115.153.272.362.161.57-.938,2.082-3,3.476-5.959,4.033h0c-.675.112-1.775.171-2.358.2a5.325,5.325,0,0,1-.231.629,5.272,5.272,0,0,0-.489,2.222c0,.162-.149.266-.287.356l.053.052c.129.124.262.252.262.408,0,1.142.029,2.28.082,3.217a.5.5,0,0,1,.159.2v0A.425.425,0,0,0,7.9-14.5a11.564,11.564,0,0,1,1.317.3l.133.04v.138c0,.154.011.3.019.387l1.5.971-.7-.037c-.573-.03-2.663-.087-3.2-.087H5.342c-.6,0-2.249.057-2.876.087l-.6.029L3.352-13.8l.057,0a1.648,1.648,0,0,0,.745-.417,2.793,2.793,0,0,1,.632-.41c.052-.867.079-2.723.079-3.533,0-.177.178-.294.384-.429l.109-.073c-.045-.036-.1-.076-.14-.106-.212-.156-.352-.26-.352-.412,0-.36-.007-1.567-.014-2.735-.007-1.2-.015-2.447-.015-2.83,0-.1.067-.171.2-.309.032-.034.083-.086.12-.128-.03-.035-.068-.077-.1-.107-.147-.16-.224-.248-.224-.359,0-.3.008-1.07.015-1.819.007-.719.014-1.463.014-1.736,0-.158.13-.3.28-.473a1.71,1.71,0,0,0,.181-.226,1.984,1.984,0,0,0-.2-.258c-.175-.206-.285-.342-.292-.486s-.022-.446-.03-.777c-.005-.234-.011-.474-.019-.631-.2-.05-.463-.126-.76-.211a13.867,13.867,0,0,0-1.562-.394l-.092-.01-.39-.649.325,0c.036,0,3.606-.029,4.712-.029C7.109-33.361,7.724-33.419,8.188-33.419Zm.386.411-.034-.013a1.26,1.26,0,0,0-.352-.026c-.377,0-.909.043-1.137.066H7.032c-.821,0-3.05.016-4.124.024.353.082.807.212,1.222.331.35.1.68.2.873.238l.13.029.015.132c.015.138.023.456.03.793.007.3.014.641.028.749v.012a1.675,1.675,0,0,0,.2.269c.181.213.292.351.292.5s-.13.3-.28.473a1.433,1.433,0,0,0-.186.237c0,.282-.007.985-.014,1.729-.007.719-.014,1.461-.015,1.779.026.036.087.1.125.143.147.16.224.248.224.359s-.087.213-.253.386c-.03.031-.071.074-.1.1,0,.433.008,1.623.015,2.776.007,1.123.014,2.282.014,2.691a2.463,2.463,0,0,0,.2.159c.212.156.352.26.352.412s-.142.248-.338.377a1.832,1.832,0,0,0-.216.156c0,.877-.031,2.85-.088,3.647l-.01.136-.133.031a1.977,1.977,0,0,0-.623.384,2.016,2.016,0,0,1-.893.489l-.446.338c.762-.029,1.834-.063,2.3-.063H6.974c.4,0,1.675.032,2.534.061l-.494-.319L9-13.506c0-.008-.021-.17-.028-.377a10.91,10.91,0,0,0-1.119-.248.371.371,0,0,1-.354-.221.172.172,0,0,0-.094-.093l-.089-.05-.006-.1c-.056-.957-.087-2.133-.088-3.314a1.206,1.206,0,0,0-.148-.158c-.124-.119-.231-.221-.231-.356s.1-.19.215-.265a1.351,1.351,0,0,0,.135-.1,5.6,5.6,0,0,1,.517-2.324,3.911,3.911,0,0,0,.244-.7l.028-.142.145-.007c.521-.025,1.741-.083,2.453-.2,2.838-.534,4.8-1.857,5.69-3.826a.964.964,0,0,0-.122-.188c-.114-.151-.255-.34-.17-.538a1.194,1.194,0,0,1,.413-.393c.137-.1.389-.282.419-.379,0-.055.009-.108.014-.16.023-.263.043-.491.043-.772a3.513,3.513,0,0,0-.11-.883l0-.018c-.024-.142-.382-.351-.574-.464a1.521,1.521,0,0,1-.376-.264l0,0c-.154-.192.024-.381.109-.472a.974.974,0,0,0,.083-.1,5.825,5.825,0,0,0-3.11-1.889,14.394,14.394,0,0,0-3.9-.507c-.126,0-.253,0-.377,0Zm139.561-.4,1.1,1.448.2.875,1.071.789.015.019,1.28,1.608.14.671.866.614L156-23.312l-.424.312,1.058.368.034.043,4.358,5.55v-2.908l.272-.653-.3-.577.059-2.7-.088-5.491.141-.846-.226-.707L160.8-32.1l-2.68-.921.068-.362,3.547.145,3.687-.159-.352.7-1.936.569-.055.715-.306.225.261.2-.324,5.511.174.521v.032l-.146,9.207v2.471l-.84.731-1.92-1.259-2.329-2.92-1.13-1.681-3.188-3.743-.49-1.182L151.2-24.736l-2.985-4.086-.495-.233-.275-.371v2.967l-.281.365.135.814.207,3.638-.4.705.363,1.146v.029l-.029,3.836.166,1.742,2.125,1.528-2.685-.192-3.807.116-.081-.356,2.205-.977.187-1.526-.115-.573v-.02l.059-4.731.2-.43-.2-3.109v-.01l.177-4.373.557-.689-.527-.658-.084-1.643-1.235-.322-1.842-1.13Zm.757,1.609-.938-1.232-4.141.1.722.443,1.445.377.091,1.8.639.8-.667.826-.172,4.241.206,3.184-.207.444-.058,4.631.119.593-.22,1.8-1.529.678,2.876-.088,1.394.1-1.2-.861-.184-1.929.029-3.826-.394-1.243.421-.751-.2-3.519-.157-.944.3-.393v-3.967l.89,1.2.5.233,3.017,4.13,1.678,1.472.5,1.207,3.169,3.724,1.132,1.684,2.278,2.855,1.635,1.072.5-.435v-2.3l.145-9.178-.176-.528,0-.036.315-5.35-.5-.382.568-.416.062-.8,2.006-.59-3.054.132h-.008l-2.283-.094,1.71.588.094,1.383.24.75-.15.9.087,5.464-.057,2.607.339.647-.311.745v3.909l-4.989-6.353-1.622-.564.684-.5-2.924-3.732-.941-.668-.152-.727-1.21-1.519-1.143-.842ZM26.9-33.352c1.748,0,4.941.261,6.687,2.007l.223.223-.314.09a3.623,3.623,0,0,1,1.313.636,2.269,2.269,0,0,1,.667,1.863,5.935,5.935,0,0,1-1.313,3.551,6.812,6.812,0,0,1-2.872,2.206,2.657,2.657,0,0,1,.078.286,1.506,1.506,0,0,0,.095.31,12.72,12.72,0,0,0,1.079,1.452c.85,1.055,1.811,2.246,1.881,3.023a29.289,29.289,0,0,0,4.539,4.391c.113.047.5.229.5.456,0,.244-.335.317-.5.353a2.922,2.922,0,0,1-.477.066,6.922,6.922,0,0,1-2.707-.609,7.136,7.136,0,0,1-2.233-1.487l-.085-.087.36-.885a8.667,8.667,0,0,1-2.624-2.652c-.13-.175-.252-.34-.374-.5l-.054-.071.035-.141a2.815,2.815,0,0,0-.941-1.192,4.235,4.235,0,0,1-.738-.726l-.113-.072a16.047,16.047,0,0,0-1.808-1.046l-.13,0c-.086,0-.176,0-.263,0s-.179,0-.267,0c-.537,0-.911.076-1.1.449l-.032.51-.2.167a1.138,1.138,0,0,1,.556,1.081A4.907,4.907,0,0,1,25.61-18.6a4.181,4.181,0,0,0-.154,1.1v0l.057,2.821a.285.285,0,0,1,.083.229,5.919,5.919,0,0,0,.866.14c.111.012.215.024.318.038l.091.012.187.327v.405l.865.472-.1.349c-1.138-.066-2.3-.1-3.541-.1s-2.533.032-3.957.1l-.6.028L21.208-13.8l.052-.005a1.488,1.488,0,0,0,.717-.4,2.5,2.5,0,0,1,.664-.428l.054-1.585a1.257,1.257,0,0,1,.319-.7,1.37,1.37,0,0,0,.256-.454l-.546-.546v-.077c0-.681-.03-1.375-.058-2.046s-.058-1.373-.058-2.062a5.824,5.824,0,0,1,.338-2.227l.091-.307L23-24.756a6.04,6.04,0,0,1-.334-1.826c0-.422.015-.859.029-1.281s.029-.875.029-1.312v-.06l.43-.591-.427-.72,0-.045c-.01-.179-.013-.363-.016-.541a8.305,8.305,0,0,0-.05-.919c-.285-.067-.572-.152-.85-.235a8.268,8.268,0,0,0-1.481-.345l-.092-.01-.389-.649.324,0C22.376-33.322,24.657-33.352,26.9-33.352Zm6.187,2.05c-1.7-1.454-4.574-1.678-6.187-1.678-2.021,0-4.073.024-6.074.05.37.074.732.182,1.087.288.326.1.635.189.947.256l.124.027.021.125a7.506,7.506,0,0,1,.074,1.1c0,.166.006.325.014.482l.505.853-.5.691c0,.424-.016.851-.03,1.264s-.029.853-.029,1.268a5.669,5.669,0,0,0,.319,1.721l.052.179.015.052-.015.052c-.039.132-.074.252-.107.361a5.493,5.493,0,0,0-.323,2.121c0,.681.03,1.375.058,2.046.028.65.056,1.321.058,1.985l.554.554v.077a1.328,1.328,0,0,1-.334.743,1.009,1.009,0,0,0-.248.481v.006L23-14.344l-.136.034a1.836,1.836,0,0,0-.657.4,1.868,1.868,0,0,1-.859.472L20.9-13.1c1.2-.049,2.308-.073,3.378-.073.956,0,1.862.019,2.747.057l-.343-.187v-.527l-.046-.081-.22-.025a5,5,0,0,1-1.1-.205l-.143-.051.021-.15c.006-.045.013-.078.018-.1l-.01-.012-.067-.083-.06-2.946a4.534,4.534,0,0,1,.164-1.2,4.557,4.557,0,0,0,.157-1.023.825.825,0,0,0-.592-.881l-.264-.124.512-.427.026-.421.015-.032a1.44,1.44,0,0,1,1.452-.7c.093,0,.185,0,.275,0s.172,0,.255,0c.06,0,.112,0,.16,0l.045,0,.041.019a15.967,15.967,0,0,1,1.893,1.089l.167.107.02.026a3.834,3.834,0,0,0,.7.69,3.186,3.186,0,0,1,1.072,1.388l.026.058-.023.092c.106.14.212.283.323.434a7.934,7.934,0,0,0,2.641,2.615l.16.075-.4.982a7.185,7.185,0,0,0,4.589,1.9,2.743,2.743,0,0,0,.483-.078,1.067,1.067,0,0,0-.163-.084l-.024-.008L38.773-13A29.608,29.608,0,0,1,34.1-17.523l-.037-.048,0-.061c-.017-.648-1.007-1.876-1.8-2.863a12.507,12.507,0,0,1-1.118-1.511l0-.006a1.777,1.777,0,0,1-.126-.394,1.275,1.275,0,0,0-.128-.377l-.124-.2.221-.076a6.372,6.372,0,0,0,2.893-2.152,5.563,5.563,0,0,0,1.236-3.324,1.938,1.938,0,0,0-.539-1.582,4.433,4.433,0,0,0-1.588-.688l-.189-.058-.6-.184Zm71.108-2.05c1.748,0,4.941.261,6.687,2.007l.224.223-.314.09a3.623,3.623,0,0,1,1.313.636,2.269,2.269,0,0,1,.667,1.863,5.935,5.935,0,0,1-1.313,3.551,6.812,6.812,0,0,1-2.872,2.206,2.652,2.652,0,0,1,.078.286,1.51,1.51,0,0,0,.095.31,12.71,12.71,0,0,0,1.079,1.452c.85,1.055,1.811,2.246,1.881,3.023a29.288,29.288,0,0,0,4.539,4.391c.113.047.5.229.5.456,0,.244-.335.317-.5.353a2.922,2.922,0,0,1-.477.066,6.922,6.922,0,0,1-2.707-.609,7.136,7.136,0,0,1-2.233-1.487l-.085-.087.36-.885A8.666,8.666,0,0,1,108.5-18.16c-.13-.175-.252-.34-.375-.5l-.054-.071.035-.141a2.815,2.815,0,0,0-.941-1.192,4.234,4.234,0,0,1-.738-.726l-.113-.072a16.049,16.049,0,0,0-1.808-1.046l-.13,0c-.086,0-.176,0-.263,0s-.179,0-.267,0c-.537,0-.911.076-1.1.449l-.032.51-.2.167a1.138,1.138,0,0,1,.556,1.081,4.907,4.907,0,0,1-.166,1.107,4.181,4.181,0,0,0-.154,1.1v0l.057,2.821a.285.285,0,0,1,.083.229,5.918,5.918,0,0,0,.866.14c.111.012.215.024.318.038l.091.012.187.327v.405l.865.472-.1.349c-1.138-.066-2.3-.1-3.541-.1s-2.533.032-3.957.1l-.6.028L98.5-13.8l.052-.005a1.488,1.488,0,0,0,.717-.4,2.5,2.5,0,0,1,.664-.428l.054-1.585a1.257,1.257,0,0,1,.319-.7,1.37,1.37,0,0,0,.256-.454l-.546-.546v-.077c0-.681-.03-1.375-.058-2.046s-.058-1.373-.058-2.062a5.825,5.825,0,0,1,.338-2.227l.091-.307-.037-.126a6.04,6.04,0,0,1-.334-1.826c0-.422.015-.859.029-1.281s.029-.875.029-1.312v-.06l.43-.591-.427-.72,0-.045c-.01-.179-.013-.363-.016-.541a8.3,8.3,0,0,0-.05-.919c-.285-.067-.572-.152-.85-.235a8.268,8.268,0,0,0-1.481-.345l-.092-.01-.389-.649.324,0C99.67-33.322,101.952-33.352,104.2-33.352Zm6.187,2.05c-1.7-1.454-4.574-1.678-6.187-1.678-2.021,0-4.073.024-6.074.05.37.074.732.182,1.087.288.326.1.635.189.947.256l.124.027.021.125a7.5,7.5,0,0,1,.074,1.1c0,.166.006.325.014.482l.505.853-.5.691c0,.424-.016.851-.03,1.264s-.029.853-.029,1.268a5.669,5.669,0,0,0,.319,1.721l.053.179.015.052-.015.052c-.039.132-.074.252-.107.361a5.493,5.493,0,0,0-.323,2.121c0,.681.03,1.375.058,2.046.028.65.056,1.321.058,1.985l.554.554v.077a1.328,1.328,0,0,1-.334.743,1.009,1.009,0,0,0-.248.481v.006l-.063,1.859-.136.034a1.836,1.836,0,0,0-.657.4,1.868,1.868,0,0,1-.859.472L98.2-13.1c1.2-.049,2.308-.073,3.378-.073.956,0,1.862.019,2.747.057l-.343-.187v-.527l-.046-.081-.22-.025a5,5,0,0,1-1.1-.205l-.143-.051.021-.15c.006-.045.013-.078.018-.1l-.01-.012-.067-.083-.06-2.946a4.533,4.533,0,0,1,.164-1.2,4.557,4.557,0,0,0,.157-1.023.825.825,0,0,0-.592-.881l-.264-.124.512-.427.026-.421.015-.032a1.44,1.44,0,0,1,1.452-.7c.093,0,.185,0,.275,0s.172,0,.255,0c.06,0,.112,0,.16,0l.045,0,.041.019a15.967,15.967,0,0,1,1.893,1.089l.167.107.02.026a3.835,3.835,0,0,0,.7.69,3.186,3.186,0,0,1,1.072,1.388l.026.058-.023.092c.106.14.212.283.324.434a7.934,7.934,0,0,0,2.641,2.615l.16.075-.4.982a7.185,7.185,0,0,0,4.589,1.9,2.743,2.743,0,0,0,.483-.078,1.067,1.067,0,0,0-.163-.084l-.024-.008L116.068-13a29.605,29.605,0,0,1-4.676-4.528l-.037-.048,0-.061c-.017-.648-1.007-1.876-1.8-2.863a12.506,12.506,0,0,1-1.118-1.511l0-.006a1.776,1.776,0,0,1-.126-.394,1.275,1.275,0,0,0-.128-.377l-.124-.2.221-.076a6.372,6.372,0,0,0,2.893-2.152,5.563,5.563,0,0,0,1.236-3.324,1.937,1.937,0,0,0-.539-1.582,4.433,4.433,0,0,0-1.588-.688l-.189-.058-.6-.184Zm67.117-2.05a17.449,17.449,0,0,1,6.743,1.267l.312.13-.24.168a7.935,7.935,0,0,1,4.077,2.668,7.908,7.908,0,0,1,1.676,4.985c0,.133,0,.267,0,.4a3.2,3.2,0,0,1-.878,2.815c.022.057.05.115.079.176a1.2,1.2,0,0,1,.155.516,10.374,10.374,0,0,1-1.379,2.648,11.247,11.247,0,0,1-5.684,4.008,22.252,22.252,0,0,1-6.962.872c-2.023,0-4.066-.133-6.043-.261l-.932-.06-.688-.044,2.875-1.438.205-.692.038-.382.6-.26a6.306,6.306,0,0,1-.639-3.08c0-.785.015-1.584.029-2.356s.029-1.59.029-2.393v-.08l.509-.483-.509-.56v-3.852c-.017-.245.213-.425.435-.6.1-.078.284-.223.293-.284,0-.1-.224-.356-.372-.526a2.178,2.178,0,0,1-.463-.667l-.375-1.1c-.508-.136-1.036-.255-1.548-.37l-.3-.068-.077-.018-.381-.635.321-.006c1.384-.027,2.794-.122,4.157-.214C174.18-33.239,175.852-33.352,177.5-33.352Zm6.284,1.483A17.24,17.24,0,0,0,177.5-32.98c-1.635,0-3.3.113-4.911.222-1.206.082-2.449.166-3.681.2l.019,0c.548.124,1.114.251,1.659.4l.1.026.442,1.293a2.092,2.092,0,0,0,.389.535c.249.285.464.531.464.772s-.222.407-.436.575c-.1.077-.281.221-.293.283v3.732l.657.722-.657.624c0,.78-.015,1.562-.029,2.32s-.029,1.568-.029,2.349a6.071,6.071,0,0,0,.683,3.1l.078.172-.743.323-.02.2-.261.881-1.787.894.246.016c1.971.128,4.008.26,6.019.26,4.549,0,9.194-.573,12.351-4.734a11.188,11.188,0,0,0,1.3-2.422.9.9,0,0,0-.118-.356,1.672,1.672,0,0,1-.14-.362l-.026-.115.093-.072c.86-.669.849-1.563.835-2.6,0-.131,0-.266,0-.4a7.54,7.54,0,0,0-1.595-4.753,7.639,7.639,0,0,0-4.264-2.641l-.4-.1ZM51.025-32.711a7.934,7.934,0,0,1,3.676.9,9.176,9.176,0,0,1,2.806,2.268,4.414,4.414,0,0,0,.608.285,2.869,2.869,0,0,1,.762.387l.011.012c.162.195.008.434-.115.627a1.319,1.319,0,0,0-.117.206,12.468,12.468,0,0,1,1.41,4.7,1.739,1.739,0,0,0,.273.245c.235.187.458.363.458.577,0,.185-.161.365-.423.643a2.019,2.019,0,0,0-.307.372,10.972,10.972,0,0,1-.468,2.406,1.365,1.365,0,0,0,.107.2c.107.176.209.342.145.5l-.006.014-.008.013a1.682,1.682,0,0,1-.487.387,3.223,3.223,0,0,0-.334.235,8.383,8.383,0,0,1-2.761,3.112,7.621,7.621,0,0,1-4.3,1.28,7.816,7.816,0,0,1-4.586-1.485c-.112-.059-.444-.176-.765-.29a7.025,7.025,0,0,1-1.1-.442l-.013-.01c-.2-.158-.05-.408.039-.557a1.387,1.387,0,0,0,.088-.163,11.123,11.123,0,0,1-1.684-2.648,3.226,3.226,0,0,0-.49-.3c-.385-.214-.61-.344-.683-.5-.124-.232.115-.442.29-.6a1.464,1.464,0,0,0,.188-.184,13.86,13.86,0,0,1-.468-3.3q0-.144,0-.288a9.3,9.3,0,0,1,.211-2.5l0-.005a3.674,3.674,0,0,1,.3-.66c.075-.139.145-.27.2-.406A7.574,7.574,0,0,1,46.2-31.308a2.87,2.87,0,0,1,.486-.252c.108-.048.211-.093.285-.136A7.982,7.982,0,0,1,51.025-32.711Zm7.552,4.077a5.65,5.65,0,0,0-.606-.279,3.28,3.28,0,0,1-.716-.353l-.012-.01-.01-.012a8.81,8.81,0,0,0-2.7-2.19,7.565,7.565,0,0,0-3.505-.861,7.617,7.617,0,0,0-3.869.966c-.092.053-.2.1-.32.154a2.619,2.619,0,0,0-.422.215l0,0a7.221,7.221,0,0,0-2.583,3.469c-.064.155-.143.3-.218.441a3.355,3.355,0,0,0-.271.591,9.047,9.047,0,0,0-.2,2.4q0,.144,0,.289a13.486,13.486,0,0,0,.457,3.206c.08.217-.124.395-.3.553a1.741,1.741,0,0,0-.182.175,3.778,3.778,0,0,0,.509.314,2.066,2.066,0,0,1,.62.422l.01.014.007.015a10.715,10.715,0,0,0,1.656,2.6c.171.176.028.417-.067.577-.018.03-.043.073-.062.109.192.092.6.238.945.359a7.921,7.921,0,0,1,.83.32l.018.012a7.346,7.346,0,0,0,4.378,1.422,7.255,7.255,0,0,0,4.092-1.218A8.014,8.014,0,0,0,58.7-17.927l.008-.016.011-.014a2.03,2.03,0,0,1,.43-.324c.1-.067.265-.173.339-.236a1.92,1.92,0,0,0-.1-.173c-.106-.173-.206-.337-.148-.494a10.711,10.711,0,0,0,.456-2.341v-.009c.021-.164.167-.327.405-.58a2.21,2.21,0,0,0,.319-.385,1.731,1.731,0,0,0-.314-.289c-.215-.171-.386-.306-.41-.475v-.009a12.078,12.078,0,0,0-1.373-4.583c-.115-.184.018-.392.137-.576A1.552,1.552,0,0,0,58.578-28.634Zm69.742-4.077a7.934,7.934,0,0,1,3.676.9,9.176,9.176,0,0,1,2.806,2.268,4.412,4.412,0,0,0,.608.285,2.869,2.869,0,0,1,.762.387l.011.012c.162.195.008.434-.115.627a1.318,1.318,0,0,0-.117.206,12.468,12.468,0,0,1,1.41,4.7,1.739,1.739,0,0,0,.273.245c.235.187.458.363.458.577,0,.185-.161.365-.423.643a2.019,2.019,0,0,0-.307.372,10.974,10.974,0,0,1-.468,2.406,1.364,1.364,0,0,0,.107.2c.107.176.209.342.145.5l-.006.014-.008.013a1.682,1.682,0,0,1-.487.387,3.224,3.224,0,0,0-.334.235,8.384,8.384,0,0,1-2.761,3.112,7.621,7.621,0,0,1-4.3,1.28,7.816,7.816,0,0,1-4.586-1.485c-.112-.059-.444-.176-.765-.29a7.025,7.025,0,0,1-1.1-.442l-.013-.01c-.2-.158-.05-.408.039-.557a1.384,1.384,0,0,0,.088-.163,11.122,11.122,0,0,1-1.684-2.648,3.227,3.227,0,0,0-.49-.3c-.385-.214-.61-.344-.683-.5-.124-.233.115-.442.29-.6a1.463,1.463,0,0,0,.188-.184,13.86,13.86,0,0,1-.468-3.3q0-.144,0-.288a9.3,9.3,0,0,1,.211-2.5l0-.005a3.674,3.674,0,0,1,.3-.66c.075-.139.145-.27.2-.406a7.575,7.575,0,0,1,2.717-3.636,2.87,2.87,0,0,1,.486-.252c.108-.048.211-.093.285-.136A7.983,7.983,0,0,1,128.32-32.711Zm7.552,4.077a5.649,5.649,0,0,0-.606-.279,3.28,3.28,0,0,1-.716-.353l-.012-.01-.01-.012a8.81,8.81,0,0,0-2.7-2.19,7.565,7.565,0,0,0-3.505-.861,7.617,7.617,0,0,0-3.869.966c-.092.053-.2.1-.32.154a2.618,2.618,0,0,0-.422.215l0,0a7.221,7.221,0,0,0-2.583,3.469c-.064.155-.143.3-.218.441a3.356,3.356,0,0,0-.271.591,9.047,9.047,0,0,0-.2,2.4q0,.144,0,.289a13.486,13.486,0,0,0,.457,3.206c.08.217-.124.395-.3.553a1.742,1.742,0,0,0-.181.175,3.775,3.775,0,0,0,.509.314,2.066,2.066,0,0,1,.62.422l.01.014.007.015a10.712,10.712,0,0,0,1.657,2.6c.171.176.028.417-.067.577-.018.03-.043.073-.062.109.192.092.6.238.945.359a7.921,7.921,0,0,1,.83.32l.018.012a7.346,7.346,0,0,0,4.378,1.422,7.255,7.255,0,0,0,4.092-1.218,8.015,8.015,0,0,0,2.647-2.994l.008-.016.011-.014a2.031,2.031,0,0,1,.43-.324c.1-.067.265-.173.339-.236a1.924,1.924,0,0,0-.1-.173c-.106-.173-.206-.337-.148-.494a10.709,10.709,0,0,0,.456-2.341v-.009c.021-.164.167-.327.405-.58a2.211,2.211,0,0,0,.318-.385,1.73,1.73,0,0,0-.314-.289c-.215-.171-.386-.306-.41-.475v-.009a12.078,12.078,0,0,0-1.373-4.583c-.115-.184.018-.392.137-.576A1.549,1.549,0,0,0,135.872-28.634ZM9.359-32.357A5.948,5.948,0,0,1,11.378-32h0a7.431,7.431,0,0,0,.851.2,4.327,4.327,0,0,1,1.045.279l.018.013a.239.239,0,0,1,.094.191c0,.136-.112.222-.209.3L13.154-31a4,4,0,0,1,1.523,3.249,5.428,5.428,0,0,1-.271,1.658l0,.014a3.661,3.661,0,0,0-.124.412,1.409,1.409,0,0,1-.162.446,3.132,3.132,0,0,1-.348.34c-.088.079-.179.161-.246.227a2.607,2.607,0,0,0-.176.248,1.047,1.047,0,0,1-.122.166l-.016.016-.02.012c-.154.092-.56.324-.794.441a10.018,10.018,0,0,1-4.243,1.1l-.105.006-.059-.087c-.523-.769-.789-1.576-.79-3.849a1.34,1.34,0,0,0-.065-.128.667.667,0,0,1-.11-.293.578.578,0,0,1,.1-.254,1.555,1.555,0,0,0,.079-.166v-.642a1.775,1.775,0,0,0-.175-.232c-.162-.195-.262-.321-.262-.454a.81.81,0,0,1,.28-.485,1.184,1.184,0,0,0,.158-.2v0c.014-.2.029-.65.043-1.085.015-.459.029-.892.044-1.1l0-.067.046-.048A2.863,2.863,0,0,1,9.359-32.357Zm1.891.705a5.572,5.572,0,0,0-1.891-.333,2.749,2.749,0,0,0-1.709.446c-.013.223-.026.625-.039,1.015-.015.455-.029.885-.044,1.095A.748.748,0,0,1,7.313-29a1.272,1.272,0,0,0-.179.226,2.016,2.016,0,0,0,.172.225c.162.195.262.321.262.454v.67a.779.779,0,0,1-.122.326c-.014.026-.032.062-.045.088.014.031.04.078.057.109a.667.667,0,0,1,.11.293c0,2.1.225,2.881.667,3.566a9.532,9.532,0,0,0,3.978-1.047l.01-.005c.214-.107.583-.317.749-.415.016-.021.041-.06.062-.093a2.908,2.908,0,0,1,.207-.29l.011-.012c.074-.074.172-.162.266-.247a3.474,3.474,0,0,0,.3-.287,1.8,1.8,0,0,0,.1-.317,4,4,0,0,1,.136-.449,5.063,5.063,0,0,0,.252-1.54,3.655,3.655,0,0,0-1.472-3.029l-.005,0a.265.265,0,0,1-.1-.21.383.383,0,0,1,.172-.278c-.2-.054-.5-.116-.74-.165A7.349,7.349,0,0,1,11.25-31.652Zm17.02-.506h.176a4.632,4.632,0,0,1,3.06,1.2,4,4,0,0,1,1.38,2.975,5.48,5.48,0,0,1-.153,1.118,4.525,4.525,0,0,0-.139,1.088l0,.05-.023.044a4.7,4.7,0,0,1-2.8,2.172,11.387,11.387,0,0,1-3.541.52c-1.1,0-1.158-1.059-1.208-1.909a3.541,3.541,0,0,0-.158-1.06l-.036-.087.048-.081a2.076,2.076,0,0,0,.18-1.128c0-.076,0-.155,0-.233a.821.821,0,0,0-.186-.391,1.1,1.1,0,0,1-.251-.6.911.911,0,0,1,.259-.552.646.646,0,0,0,.179-.322v0c0-.18,0-.349,0-.512a1.6,1.6,0,0,1,.253-1.2,1.4,1.4,0,0,1,1.043-.306,6.366,6.366,0,0,1,1.123.136c.256.046.5.091.741.114Zm3.951,6.347a5.089,5.089,0,0,1,.148-1.127,5.2,5.2,0,0,0,.145-1.043,3.63,3.63,0,0,0-1.257-2.7,4.276,4.276,0,0,0-2.635-1.1l-.058,1.053-.184-.008a7.3,7.3,0,0,1-.975-.132A6.093,6.093,0,0,0,26.348-31a1.1,1.1,0,0,0-.776.194c-.165.169-.158.505-.148.93,0,.159.008.34,0,.529a.915.915,0,0,1-.259.549.645.645,0,0,0-.179.322.82.82,0,0,0,.186.391,1.1,1.1,0,0,1,.251.6c0,.075,0,.15,0,.226a2.533,2.533,0,0,1-.188,1.245,4.257,4.257,0,0,1,.154,1.1c.057.97.142,1.559.836,1.559a11.015,11.015,0,0,0,3.422-.5A4.366,4.366,0,0,0,32.221-25.81Zm73.344-6.347h.176a4.632,4.632,0,0,1,3.06,1.2,4,4,0,0,1,1.38,2.975,5.481,5.481,0,0,1-.153,1.118,4.523,4.523,0,0,0-.139,1.089l0,.05-.023.044a4.7,4.7,0,0,1-2.8,2.172,11.387,11.387,0,0,1-3.541.52c-1.1,0-1.158-1.059-1.208-1.909a3.541,3.541,0,0,0-.158-1.06l-.036-.087.048-.081a2.075,2.075,0,0,0,.18-1.128c0-.076,0-.155,0-.233a.821.821,0,0,0-.186-.391,1.1,1.1,0,0,1-.251-.6.911.911,0,0,1,.259-.552.645.645,0,0,0,.179-.322v0c0-.18,0-.349,0-.512a1.6,1.6,0,0,1,.253-1.2,1.4,1.4,0,0,1,1.043-.306,6.369,6.369,0,0,1,1.123.136c.256.047.5.091.741.114Zm3.951,6.347a5.088,5.088,0,0,1,.148-1.128,5.2,5.2,0,0,0,.145-1.042,3.63,3.63,0,0,0-1.257-2.7,4.277,4.277,0,0,0-2.635-1.1l-.058,1.053-.184-.008a7.3,7.3,0,0,1-.975-.132,6.093,6.093,0,0,0-1.057-.13,1.1,1.1,0,0,0-.777.194c-.165.169-.158.505-.148.93,0,.159.008.34,0,.529a.915.915,0,0,1-.259.549.645.645,0,0,0-.179.322.821.821,0,0,0,.186.391,1.1,1.1,0,0,1,.251.6c0,.075,0,.15,0,.226a2.533,2.533,0,0,1-.188,1.245,4.257,4.257,0,0,1,.154,1.1c.057.97.142,1.559.836,1.559a11.015,11.015,0,0,0,3.422-.5A4.366,4.366,0,0,0,109.516-25.81Zm67.227-6.318a14.2,14.2,0,0,1,4.663.789,28.651,28.651,0,0,1,4.282,1.972l.166.09-.29.515a7.847,7.847,0,0,1,1.911,5.648,9.566,9.566,0,0,1-.754,3.961l.413.482L186.056-18a7.759,7.759,0,0,1-2.523,2.51l-.031.373-.111.041a20.8,20.8,0,0,1-6.008,1.206,13.888,13.888,0,0,1-3.846-.359l-.122-.041-.032-.855-.564-.721.5-.879c-.027-1.039-.027-2.1,0-3.17l-.527-.527.529-.424v-1.237l-.646-.71.646-.742v-3.339a3.914,3.914,0,0,0-.086-.7,4.012,4.012,0,0,1-.089-.726,10.514,10.514,0,0,1,.156-1.567c.039-.256.079-.522.108-.784l.014-.127.123-.032c.2-.052.363-.323.524-.585.211-.344.429-.7.8-.7C175.488-32.128,176.125-32.128,176.742-32.128Zm8.6,3a27.531,27.531,0,0,0-4.059-1.857,13.647,13.647,0,0,0-4.543-.769c-.614,0-1.248,0-1.856.029h-.009c-.166,0-.33.267-.489.525a1.731,1.731,0,0,1-.622.7c-.028.232-.063.462-.1.685a10.08,10.08,0,0,0-.151,1.511,3.679,3.679,0,0,0,.082.658,4.194,4.194,0,0,1,.092.769v3.478l-.52.6.52.572v1.56l-.345.276.347.347,0,.08c-.029,1.1-.029,2.208,0,3.282v.052l-.43.753.485.619.027.716a14.524,14.524,0,0,0,3.607.3,20.7,20.7,0,0,0,5.768-1.143l.027-.326.082-.049a7.483,7.483,0,0,0,2.5-2.471l.023-.038.787-.492-.287-.335.05-.109a9.121,9.121,0,0,0,.769-3.913,9.437,9.437,0,0,0-.4-2.951,6.842,6.842,0,0,0-1.5-2.547l-.091-.1Z" transform="translate(20.475 46.492)"/>
      </g>
    </g>
  </g>
</svg>
