<svg xmlns="http://www.w3.org/2000/svg" xmlns:xlink="http://www.w3.org/1999/xlink" width="2210.394" height="1262.938" viewBox="0 0 2210.394 1262.938">
  <defs>
    <clipPath id="clip-path">
      <rect id="Rectangle_11" data-name="Rectangle 11" width="1262.938" height="1291.631" fill="none"/>
    </clipPath>
    <clipPath id="clip-path-2">
      <rect id="Rectangle_11-2" data-name="Rectangle 11" width="32.924" height="33.672" fill="#7765b4"/>
    </clipPath>
  </defs>
  <g id="Group_113" data-name="Group 113" transform="translate(426.636 102.076)">
    <g id="Group_14" data-name="Group 14" transform="translate(864.995 -102.076) rotate(90)" opacity="0.188">
      <g id="Group_9" data-name="Group 9" clip-path="url(#clip-path)">
        <path id="Path_92" data-name="Path 92" d="M1262.938,1291.632H0V491.267A238.337,238.337,0,0,1,109.375,290.835L502.511,37.9a238.319,238.319,0,0,1,257.906,0l393.141,252.933a238.33,238.33,0,0,1,109.38,200.432Z" transform="translate(0 -0.001)" fill="#feb153"/>
      </g>
    </g>
    <g id="Group_95" data-name="Group 95">
      <g id="Group_94" data-name="Group 94" transform="translate(0 -20.632)">
        <path id="Path_202" data-name="Path 202" d="M24.311,12.041v3.634H8.487V26.623H21.3v3.5H8.487V41.366H24.311V45H4V12.041Zm10.327-.92V45H30.544V11.121Zm11.477,0V31.062h1.058a1.961,1.961,0,0,0,.759-.127,2.124,2.124,0,0,0,.667-.517l7.36-7.889a4,4,0,0,1,.69-.6,1.635,1.635,0,0,1,.92-.23h3.726l-8.579,9.131a8.154,8.154,0,0,1-.632.69,3.739,3.739,0,0,1-.7.529,4.24,4.24,0,0,1,.747.633,5.89,5.89,0,0,1,.633.816L61.87,45H58.19a1.77,1.77,0,0,1-.862-.2,2.255,2.255,0,0,1-.679-.61L48.99,34.65a1.788,1.788,0,0,0-.69-.632,2.732,2.732,0,0,0-1.035-.15h-1.15V45H42V11.121ZM73.807,21.333a10.4,10.4,0,0,1,3.864.7,8.673,8.673,0,0,1,3.059,2.024,9.227,9.227,0,0,1,2.012,3.266,12.618,12.618,0,0,1,.725,4.427,2.67,2.67,0,0,1-.207,1.288.86.86,0,0,1-.782.322h-15.5a12.863,12.863,0,0,0,.6,3.841,7.854,7.854,0,0,0,1.518,2.726,6.082,6.082,0,0,0,2.3,1.633,7.9,7.9,0,0,0,2.99.541,8.772,8.772,0,0,0,2.656-.357,12.639,12.639,0,0,0,1.921-.771A14.649,14.649,0,0,0,80.3,40.2a1.784,1.784,0,0,1,.931-.356.9.9,0,0,1,.782.391l1.15,1.5a7.776,7.776,0,0,1-1.817,1.6,11.313,11.313,0,0,1-2.265,1.116,14.39,14.39,0,0,1-2.5.655,15.242,15.242,0,0,1-2.553.218,11.847,11.847,0,0,1-4.451-.816,9.768,9.768,0,0,1-3.519-2.392,10.973,10.973,0,0,1-2.312-3.9,15.853,15.853,0,0,1-.828-5.336,13.576,13.576,0,0,1,.748-4.554,10.734,10.734,0,0,1,2.151-3.668,9.9,9.9,0,0,1,3.427-2.438A11.25,11.25,0,0,1,73.807,21.333Zm.092,3.013a6.285,6.285,0,0,0-4.669,1.713,8.065,8.065,0,0,0-2.116,4.75H79.787A8.29,8.29,0,0,0,79.4,28.2a5.817,5.817,0,0,0-1.15-2.047,5.147,5.147,0,0,0-1.852-1.334A6.244,6.244,0,0,0,73.9,24.346ZM97.566,45V21.7h2.346a1.3,1.3,0,0,1,.92.253,1.552,1.552,0,0,1,.345.874l.276,3.634a10.657,10.657,0,0,1,2.955-3.806,6.964,6.964,0,0,1,5.877-1.15,6.093,6.093,0,0,1,1.449.609l-.529,3.059a.692.692,0,0,1-.713.575,3.578,3.578,0,0,1-.989-.219,6.238,6.238,0,0,0-1.863-.219,5.277,5.277,0,0,0-3.576,1.242,9.323,9.323,0,0,0-2.4,3.611V45Zm27.968-23.667a11.967,11.967,0,0,1,4.612.851,9.723,9.723,0,0,1,3.5,2.415,10.691,10.691,0,0,1,2.208,3.784,15.044,15.044,0,0,1,.77,4.957,15.017,15.017,0,0,1-.77,4.968,10.708,10.708,0,0,1-2.208,3.772,9.6,9.6,0,0,1-3.5,2.4,13.086,13.086,0,0,1-9.223,0,9.711,9.711,0,0,1-3.507-2.4,10.753,10.753,0,0,1-2.231-3.772,14.815,14.815,0,0,1-.782-4.968,14.842,14.842,0,0,1,.782-4.957,10.736,10.736,0,0,1,2.231-3.784,9.835,9.835,0,0,1,3.507-2.415A11.967,11.967,0,0,1,125.534,21.333Zm0,20.792a5.981,5.981,0,0,0,5.152-2.312,10.7,10.7,0,0,0,1.7-6.451,10.8,10.8,0,0,0-1.7-6.486,5.969,5.969,0,0,0-5.152-2.323,7.15,7.15,0,0,0-3.036.6,5.682,5.682,0,0,0-2.15,1.725,7.662,7.662,0,0,0-1.288,2.771,14.856,14.856,0,0,0-.425,3.715,14.719,14.719,0,0,0,.425,3.7,7.548,7.548,0,0,0,1.288,2.749,5.727,5.727,0,0,0,2.15,1.714A7.15,7.15,0,0,0,125.534,42.125ZM141.68,45V21.7h2.438a1.044,1.044,0,0,1,1.1.851l.322,2.53a13.1,13.1,0,0,1,3.393-2.714,8.823,8.823,0,0,1,4.335-1.035,8.413,8.413,0,0,1,3.37.633,6.519,6.519,0,0,1,2.438,1.794,7.923,7.923,0,0,1,1.484,2.795,12.161,12.161,0,0,1,.506,3.611V45h-4.094V30.165a6.271,6.271,0,0,0-1.208-4.106,4.514,4.514,0,0,0-3.691-1.461,6.882,6.882,0,0,0-3.393.874,11.172,11.172,0,0,0-2.91,2.369V45Zm41.975,0a1.044,1.044,0,0,1-1.1-.851l-.368-2.829a12.265,12.265,0,0,1-3.415,2.91,8.75,8.75,0,0,1-4.4,1.092,8.41,8.41,0,0,1-3.634-.771,7.536,7.536,0,0,1-2.783-2.265,10.791,10.791,0,0,1-1.771-3.726,19.183,19.183,0,0,1-.621-5.129,16.076,16.076,0,0,1,.69-4.8,11.688,11.688,0,0,1,1.99-3.853,9.125,9.125,0,0,1,7.395-3.5,8.431,8.431,0,0,1,3.657.725A8.769,8.769,0,0,1,182,24.047V11.121h4.094V45Zm-7.935-2.99a6.6,6.6,0,0,0,3.507-.92,10.111,10.111,0,0,0,2.771-2.6V27.221a6.478,6.478,0,0,0-2.473-2.128,7.135,7.135,0,0,0-2.979-.61,5.9,5.9,0,0,0-5.014,2.323,10.85,10.85,0,0,0-1.748,6.624,16.843,16.843,0,0,0,.391,3.9A7.5,7.5,0,0,0,171.327,40a4.519,4.519,0,0,0,1.863,1.529A6.257,6.257,0,0,0,175.72,42.01Zm26.473-20.677a10.4,10.4,0,0,1,3.864.7,8.673,8.673,0,0,1,3.059,2.024,9.228,9.228,0,0,1,2.012,3.266,12.618,12.618,0,0,1,.725,4.427,2.67,2.67,0,0,1-.207,1.288.86.86,0,0,1-.782.322h-15.5a12.863,12.863,0,0,0,.6,3.841,7.854,7.854,0,0,0,1.518,2.726,6.082,6.082,0,0,0,2.3,1.633,7.9,7.9,0,0,0,2.99.541,8.772,8.772,0,0,0,2.656-.357,12.639,12.639,0,0,0,1.921-.771,14.649,14.649,0,0,0,1.346-.771,1.784,1.784,0,0,1,.931-.356.9.9,0,0,1,.782.391l1.15,1.5a7.776,7.776,0,0,1-1.817,1.6,11.313,11.313,0,0,1-2.266,1.116,14.389,14.389,0,0,1-2.5.655,15.242,15.242,0,0,1-2.553.218,11.847,11.847,0,0,1-4.451-.816,9.768,9.768,0,0,1-3.519-2.392,10.973,10.973,0,0,1-2.312-3.9,15.853,15.853,0,0,1-.828-5.336,13.576,13.576,0,0,1,.747-4.554,10.734,10.734,0,0,1,2.151-3.668,9.9,9.9,0,0,1,3.427-2.438A11.25,11.25,0,0,1,202.193,21.333Zm.092,3.013a6.285,6.285,0,0,0-4.669,1.713,8.065,8.065,0,0,0-2.116,4.75h12.673a8.29,8.29,0,0,0-.391-2.611,5.817,5.817,0,0,0-1.15-2.047,5.147,5.147,0,0,0-1.852-1.334A6.244,6.244,0,0,0,202.285,24.346ZM225.952,45V11.121h4.094V24.829a12.572,12.572,0,0,1,3.312-2.542,8.87,8.87,0,0,1,4.186-.955,8.413,8.413,0,0,1,3.37.633,6.519,6.519,0,0,1,2.438,1.794,7.923,7.923,0,0,1,1.483,2.795,12.161,12.161,0,0,1,.506,3.611V45h-4.094V30.165a6.271,6.271,0,0,0-1.208-4.106,4.514,4.514,0,0,0-3.691-1.461,6.882,6.882,0,0,0-3.393.874,11.172,11.172,0,0,0-2.91,2.369V45Zm34.8-23.667a10.4,10.4,0,0,1,3.864.7,8.673,8.673,0,0,1,3.059,2.024,9.227,9.227,0,0,1,2.012,3.266,12.618,12.618,0,0,1,.725,4.427,2.67,2.67,0,0,1-.207,1.288.86.86,0,0,1-.782.322h-15.5a12.863,12.863,0,0,0,.6,3.841,7.854,7.854,0,0,0,1.518,2.726,6.082,6.082,0,0,0,2.3,1.633,7.9,7.9,0,0,0,2.99.541,8.771,8.771,0,0,0,2.656-.357,12.637,12.637,0,0,0,1.921-.771,14.645,14.645,0,0,0,1.346-.771,1.784,1.784,0,0,1,.931-.356.9.9,0,0,1,.782.391l1.15,1.5a7.776,7.776,0,0,1-1.817,1.6,11.313,11.313,0,0,1-2.265,1.116,14.39,14.39,0,0,1-2.5.655,15.242,15.242,0,0,1-2.553.218,11.847,11.847,0,0,1-4.451-.816,9.768,9.768,0,0,1-3.519-2.392,10.973,10.973,0,0,1-2.312-3.9,15.853,15.853,0,0,1-.828-5.336,13.576,13.576,0,0,1,.747-4.554,10.734,10.734,0,0,1,2.151-3.668,9.9,9.9,0,0,1,3.427-2.438A11.25,11.25,0,0,1,260.751,21.333Zm.092,3.013a6.285,6.285,0,0,0-4.669,1.713,8.065,8.065,0,0,0-2.116,4.75h12.673a8.29,8.29,0,0,0-.391-2.611,5.817,5.817,0,0,0-1.15-2.047,5.147,5.147,0,0,0-1.852-1.334A6.245,6.245,0,0,0,260.843,24.346Zm24.012-3.013a10.4,10.4,0,0,1,3.864.7,8.673,8.673,0,0,1,3.059,2.024,9.228,9.228,0,0,1,2.013,3.266,12.618,12.618,0,0,1,.724,4.427,2.67,2.67,0,0,1-.207,1.288.86.86,0,0,1-.782.322h-15.5a12.863,12.863,0,0,0,.6,3.841,7.854,7.854,0,0,0,1.518,2.726,6.082,6.082,0,0,0,2.3,1.633,7.9,7.9,0,0,0,2.99.541,8.772,8.772,0,0,0,2.656-.357,12.637,12.637,0,0,0,1.921-.771,14.649,14.649,0,0,0,1.345-.771,1.784,1.784,0,0,1,.932-.356.9.9,0,0,1,.782.391l1.15,1.5a7.776,7.776,0,0,1-1.817,1.6,11.314,11.314,0,0,1-2.266,1.116,14.389,14.389,0,0,1-2.5.655,15.243,15.243,0,0,1-2.553.218,11.847,11.847,0,0,1-4.451-.816,9.768,9.768,0,0,1-3.519-2.392,10.974,10.974,0,0,1-2.311-3.9,15.853,15.853,0,0,1-.828-5.336,13.576,13.576,0,0,1,.747-4.554,10.734,10.734,0,0,1,2.151-3.668,9.9,9.9,0,0,1,3.427-2.438A11.25,11.25,0,0,1,284.855,21.333Zm.092,3.013a6.285,6.285,0,0,0-4.669,1.713,8.065,8.065,0,0,0-2.116,4.75h12.673a8.29,8.29,0,0,0-.391-2.611,5.817,5.817,0,0,0-1.15-2.047,5.147,5.147,0,0,0-1.852-1.334A6.244,6.244,0,0,0,284.947,24.346ZM300.656,45V25.2l-2.576-.3a2.049,2.049,0,0,1-.793-.356.835.835,0,0,1-.311-.7V22.161h3.68V19.907a10.381,10.381,0,0,1,.563-3.554,7.2,7.2,0,0,1,1.61-2.622,6.823,6.823,0,0,1,2.518-1.621,9.378,9.378,0,0,1,3.312-.552,8.834,8.834,0,0,1,2.9.46l-.092,2.047a.523.523,0,0,1-.391.552,4.5,4.5,0,0,1-1.035.092h-.713a6.281,6.281,0,0,0-1.921.276,3.629,3.629,0,0,0-1.483.9,4.061,4.061,0,0,0-.954,1.633,8.1,8.1,0,0,0-.334,2.507v2.139h6.739v2.967h-6.6V45Zm21.643.368a5.617,5.617,0,0,1-4.243-1.541,6.149,6.149,0,0,1-1.484-4.439V25.128h-2.806a.917.917,0,0,1-.621-.219.849.849,0,0,1-.253-.678V22.6l3.818-.483.943-7.2a.87.87,0,0,1,.3-.563.95.95,0,0,1,.644-.219h2.07v8.027h6.67v2.967h-6.67V39.112a2.975,2.975,0,0,0,.713,2.185,2.49,2.49,0,0,0,1.84.713,3.248,3.248,0,0,0,1.116-.173,4.787,4.787,0,0,0,.816-.38q.345-.207.587-.38a.768.768,0,0,1,.425-.173.7.7,0,0,1,.575.391l1.2,1.955a7.627,7.627,0,0,1-2.553,1.553A8.669,8.669,0,0,1,322.3,45.368Zm28.2-24.035a10.4,10.4,0,0,1,3.864.7,8.673,8.673,0,0,1,3.059,2.024,9.228,9.228,0,0,1,2.013,3.266,12.618,12.618,0,0,1,.724,4.427,2.67,2.67,0,0,1-.207,1.288.86.86,0,0,1-.782.322h-15.5a12.863,12.863,0,0,0,.6,3.841,7.854,7.854,0,0,0,1.518,2.726,6.082,6.082,0,0,0,2.3,1.633,7.9,7.9,0,0,0,2.99.541,8.772,8.772,0,0,0,2.656-.357,12.637,12.637,0,0,0,1.921-.771,14.649,14.649,0,0,0,1.345-.771,1.784,1.784,0,0,1,.932-.356.9.9,0,0,1,.782.391l1.15,1.5a7.776,7.776,0,0,1-1.817,1.6,11.314,11.314,0,0,1-2.266,1.116,14.389,14.389,0,0,1-2.5.655,15.243,15.243,0,0,1-2.553.218,11.847,11.847,0,0,1-4.451-.816,9.768,9.768,0,0,1-3.519-2.392,10.974,10.974,0,0,1-2.311-3.9,15.853,15.853,0,0,1-.828-5.336,13.576,13.576,0,0,1,.747-4.554,10.734,10.734,0,0,1,2.151-3.668,9.9,9.9,0,0,1,3.427-2.438A11.25,11.25,0,0,1,350.5,21.333Zm.092,3.013a6.285,6.285,0,0,0-4.669,1.713,8.065,8.065,0,0,0-2.116,4.75h12.673a8.29,8.29,0,0,0-.391-2.611,5.817,5.817,0,0,0-1.15-2.047,5.147,5.147,0,0,0-1.852-1.334A6.244,6.244,0,0,0,350.589,24.346ZM374.6,21.333a10.4,10.4,0,0,1,3.864.7,8.673,8.673,0,0,1,3.059,2.024,9.228,9.228,0,0,1,2.013,3.266,12.618,12.618,0,0,1,.724,4.427,2.67,2.67,0,0,1-.207,1.288.86.86,0,0,1-.782.322h-15.5a12.863,12.863,0,0,0,.6,3.841,7.854,7.854,0,0,0,1.518,2.726,6.082,6.082,0,0,0,2.3,1.633,7.9,7.9,0,0,0,2.99.541,8.772,8.772,0,0,0,2.656-.357,12.637,12.637,0,0,0,1.921-.771A14.649,14.649,0,0,0,381.1,40.2a1.784,1.784,0,0,1,.932-.356.9.9,0,0,1,.782.391l1.15,1.5a7.776,7.776,0,0,1-1.817,1.6,11.314,11.314,0,0,1-2.266,1.116,14.389,14.389,0,0,1-2.5.655,15.243,15.243,0,0,1-2.553.218,11.847,11.847,0,0,1-4.451-.816,9.768,9.768,0,0,1-3.519-2.392,10.974,10.974,0,0,1-2.311-3.9,15.853,15.853,0,0,1-.828-5.336,13.576,13.576,0,0,1,.747-4.554,10.734,10.734,0,0,1,2.151-3.668,9.9,9.9,0,0,1,3.427-2.438A11.25,11.25,0,0,1,374.6,21.333Zm.092,3.013a6.285,6.285,0,0,0-4.669,1.713,8.065,8.065,0,0,0-2.116,4.75h12.673a8.29,8.29,0,0,0-.391-2.611,5.817,5.817,0,0,0-1.15-2.047,5.147,5.147,0,0,0-1.852-1.334A6.244,6.244,0,0,0,374.693,24.346ZM389.482,45V21.7h2.438a1.044,1.044,0,0,1,1.1.851l.322,2.53a13.1,13.1,0,0,1,3.392-2.714,8.823,8.823,0,0,1,4.336-1.035,8.413,8.413,0,0,1,3.369.633,6.519,6.519,0,0,1,2.438,1.794,7.922,7.922,0,0,1,1.483,2.795,12.161,12.161,0,0,1,.506,3.611V45h-4.094V30.165a6.271,6.271,0,0,0-1.207-4.106,4.514,4.514,0,0,0-3.691-1.461,6.882,6.882,0,0,0-3.392.874,11.173,11.173,0,0,0-2.91,2.369V45Zm50.324,0a3.34,3.34,0,0,1-1.53-.276,2.109,2.109,0,0,1-.862-1.15l-.506-1.311q-.9.759-1.725,1.334a10.933,10.933,0,0,1-1.714.978,8.461,8.461,0,0,1-1.886.6,11.607,11.607,0,0,1-2.219.2,9.732,9.732,0,0,1-2.967-.425,6.19,6.19,0,0,1-2.266-1.254,5.512,5.512,0,0,1-1.437-2.058,7.423,7.423,0,0,1-.506-2.84,5.957,5.957,0,0,1,.644-2.6,6.412,6.412,0,0,1,2.231-2.427,14.179,14.179,0,0,1,4.278-1.828,28.7,28.7,0,0,1,6.785-.828V30.1a4.373,4.373,0,0,0-.863-3.025,3.173,3.173,0,0,0-2.449-.931,6.5,6.5,0,0,0-2.07.276,9.3,9.3,0,0,0-1.437.621q-.632.345-1.231.621a3.38,3.38,0,0,1-1.426.276,2.155,2.155,0,0,1-1.253-.357,2.648,2.648,0,0,1-.816-.885l-1.288-2.231a14.5,14.5,0,0,1,4.8-2.84,16.812,16.812,0,0,1,5.647-.932,10.327,10.327,0,0,1,3.9.7,8.39,8.39,0,0,1,2.944,1.955,8.543,8.543,0,0,1,1.852,2.979,10.7,10.7,0,0,1,.644,3.772V45Zm-8.188-4.347a5.657,5.657,0,0,0,2.415-.483,7.357,7.357,0,0,0,2.093-1.564V35.294a23.672,23.672,0,0,0-3.519.368,8.547,8.547,0,0,0-2.185.69,2.644,2.644,0,0,0-1.115.943,2.232,2.232,0,0,0-.311,1.15,2,2,0,0,0,.667,1.714A3.254,3.254,0,0,0,431.618,40.653ZM448.132,45V21.149h4.416a1.968,1.968,0,0,1,1.116.3,1.6,1.6,0,0,1,.633.9l.414,1.38a17.322,17.322,0,0,1,1.426-1.2,8.351,8.351,0,0,1,1.576-.931,9.351,9.351,0,0,1,1.817-.6,9.75,9.75,0,0,1,2.128-.219,8.35,8.35,0,0,1,3.462.679,7.183,7.183,0,0,1,2.541,1.886,8.141,8.141,0,0,1,1.564,2.875,11.922,11.922,0,0,1,.529,3.623V45h-7.13V29.843a4.171,4.171,0,0,0-.8-2.726,2.891,2.891,0,0,0-2.369-.978,4.961,4.961,0,0,0-2.208.506A8.586,8.586,0,0,0,455.262,28V45Zm43.424,0a1.968,1.968,0,0,1-1.116-.3,1.6,1.6,0,0,1-.632-.9l-.552-1.817a13.983,13.983,0,0,1-1.495,1.38,9.4,9.4,0,0,1-1.691,1.069,8.941,8.941,0,0,1-1.955.69,10.065,10.065,0,0,1-2.266.242,7.346,7.346,0,0,1-3.45-.828,7.95,7.95,0,0,1-2.737-2.392,12.07,12.07,0,0,1-1.805-3.829,18.6,18.6,0,0,1-.656-5.164,16.1,16.1,0,0,1,.736-4.956,12.152,12.152,0,0,1,2.082-3.956,9.666,9.666,0,0,1,3.232-2.611,9.177,9.177,0,0,1,4.163-.943,7.992,7.992,0,0,1,3.116.541,9,9,0,0,1,2.312,1.414V10.569h7.13V45Zm-7.222-5.106a6.161,6.161,0,0,0,1.414-.15,4.973,4.973,0,0,0,1.161-.425,5.068,5.068,0,0,0,1-.69,8.656,8.656,0,0,0,.932-.966V27.543a4.714,4.714,0,0,0-1.76-1.253,5.454,5.454,0,0,0-1.966-.357,4.2,4.2,0,0,0-1.817.391,3.7,3.7,0,0,0-1.437,1.253,6.676,6.676,0,0,0-.954,2.243,13.931,13.931,0,0,0-.345,3.335,15.449,15.449,0,0,0,.276,3.174,6.539,6.539,0,0,0,.77,2.082,2.991,2.991,0,0,0,1.185,1.139A3.4,3.4,0,0,0,484.334,39.894ZM511.7,20.781a12.281,12.281,0,0,1,4.336.736,9.425,9.425,0,0,1,3.381,2.139,9.762,9.762,0,0,1,2.208,3.438,12.618,12.618,0,0,1,.794,4.611,10.062,10.062,0,0,1-.069,1.311,2.074,2.074,0,0,1-.253.805.963.963,0,0,1-.495.414,2.316,2.316,0,0,1-.793.115H507.058a6.724,6.724,0,0,0,1.817,4.336,5.406,5.406,0,0,0,3.795,1.346,6.793,6.793,0,0,0,2.139-.3,10.792,10.792,0,0,0,1.6-.667q.7-.368,1.288-.667a2.674,2.674,0,0,1,1.231-.3,1.474,1.474,0,0,1,1.288.621l2.07,2.553a10.6,10.6,0,0,1-2.38,2.059,12.37,12.37,0,0,1-2.622,1.242,14.213,14.213,0,0,1-2.691.621,20.194,20.194,0,0,1-2.565.173,13.39,13.39,0,0,1-4.7-.817,10.808,10.808,0,0,1-3.841-2.426,11.449,11.449,0,0,1-2.6-4,14.954,14.954,0,0,1-.954-5.566,12.6,12.6,0,0,1,.816-4.531,11.007,11.007,0,0,1,6.049-6.3A12.222,12.222,0,0,1,511.7,20.781Zm.138,4.922a4.3,4.3,0,0,0-3.2,1.161,6.052,6.052,0,0,0-1.518,3.346h8.9a6.293,6.293,0,0,0-.219-1.656,4.015,4.015,0,0,0-.713-1.437,3.628,3.628,0,0,0-1.3-1.024A4.444,4.444,0,0,0,511.842,25.7ZM526.516,45V21.149h4.232a3.609,3.609,0,0,1,.885.092,1.553,1.553,0,0,1,.6.288,1.228,1.228,0,0,1,.368.517,4.671,4.671,0,0,1,.219.782l.391,2.231a11.687,11.687,0,0,1,2.944-3.2,5.982,5.982,0,0,1,3.565-1.173,4.107,4.107,0,0,1,2.622.782l-.92,5.244a1.024,1.024,0,0,1-.368.678,1.249,1.249,0,0,1-.736.2,4.881,4.881,0,0,1-.92-.1,7.131,7.131,0,0,0-1.334-.1q-2.806,0-4.416,2.99V45Zm29.21-24.219a12.281,12.281,0,0,1,4.336.736,9.425,9.425,0,0,1,3.381,2.139,9.762,9.762,0,0,1,2.208,3.438,12.618,12.618,0,0,1,.794,4.611,10.062,10.062,0,0,1-.069,1.311,2.074,2.074,0,0,1-.253.805.963.963,0,0,1-.495.414,2.316,2.316,0,0,1-.793.115H551.08a6.724,6.724,0,0,0,1.817,4.336,5.406,5.406,0,0,0,3.795,1.346,6.793,6.793,0,0,0,2.139-.3,10.792,10.792,0,0,0,1.6-.667q.7-.368,1.288-.667a2.674,2.674,0,0,1,1.23-.3,1.474,1.474,0,0,1,1.288.621l2.07,2.553a10.6,10.6,0,0,1-2.38,2.059,12.37,12.37,0,0,1-2.622,1.242,14.213,14.213,0,0,1-2.691.621,20.194,20.194,0,0,1-2.565.173,13.39,13.39,0,0,1-4.7-.817,10.808,10.808,0,0,1-3.841-2.426,11.448,11.448,0,0,1-2.6-4,14.953,14.953,0,0,1-.955-5.566,12.6,12.6,0,0,1,.817-4.531,11.007,11.007,0,0,1,6.049-6.3A12.221,12.221,0,0,1,555.726,20.781Zm.138,4.922a4.3,4.3,0,0,0-3.2,1.161,6.052,6.052,0,0,0-1.518,3.346h8.9a6.293,6.293,0,0,0-.219-1.656,4.015,4.015,0,0,0-.713-1.437,3.628,3.628,0,0,0-1.3-1.024A4.444,4.444,0,0,0,555.864,25.7ZM15.962,100H9.476L.23,76.149H6.164a2.2,2.2,0,0,1,1.277.356,1.776,1.776,0,0,1,.7.885l3.312,10.695q.391,1.311.748,2.553t.609,2.484q.253-1.242.621-2.484t.782-2.553l3.45-10.695a1.794,1.794,0,0,1,.69-.885,2.023,2.023,0,0,1,1.2-.356h5.658ZM37.49,75.781a12.281,12.281,0,0,1,4.336.736,9.425,9.425,0,0,1,3.381,2.139,9.763,9.763,0,0,1,2.208,3.438,12.618,12.618,0,0,1,.793,4.612,10.066,10.066,0,0,1-.069,1.311,2.075,2.075,0,0,1-.253.805.963.963,0,0,1-.495.414,2.316,2.316,0,0,1-.793.115H32.844a6.724,6.724,0,0,0,1.817,4.336,5.406,5.406,0,0,0,3.8,1.345,6.793,6.793,0,0,0,2.139-.3,10.791,10.791,0,0,0,1.6-.667q.7-.368,1.288-.667a2.674,2.674,0,0,1,1.23-.3A1.474,1.474,0,0,1,46,93.721l2.07,2.553a10.6,10.6,0,0,1-2.381,2.058,12.371,12.371,0,0,1-2.622,1.242,14.212,14.212,0,0,1-2.691.621,20.194,20.194,0,0,1-2.564.172,13.39,13.39,0,0,1-4.7-.816,10.808,10.808,0,0,1-3.841-2.426,11.449,11.449,0,0,1-2.6-4,14.953,14.953,0,0,1-.955-5.566,12.6,12.6,0,0,1,.817-4.531,11.007,11.007,0,0,1,6.049-6.3A12.222,12.222,0,0,1,37.49,75.781Zm.138,4.922a4.3,4.3,0,0,0-3.2,1.161,6.052,6.052,0,0,0-1.518,3.346h8.9a6.294,6.294,0,0,0-.219-1.656,4.015,4.015,0,0,0-.713-1.437,3.628,3.628,0,0,0-1.3-1.023A4.444,4.444,0,0,0,37.628,80.7ZM52.3,100V76.149h4.232a3.608,3.608,0,0,1,.885.092,1.553,1.553,0,0,1,.6.288,1.227,1.227,0,0,1,.368.517,4.666,4.666,0,0,1,.219.782l.391,2.231a11.688,11.688,0,0,1,2.944-3.2A5.982,5.982,0,0,1,65.5,75.689a4.107,4.107,0,0,1,2.622.782l-.92,5.244a1.024,1.024,0,0,1-.368.679,1.249,1.249,0,0,1-.736.2,4.882,4.882,0,0,1-.92-.1,7.132,7.132,0,0,0-1.334-.1q-2.806,0-4.416,2.99V100Zm27.37.368a8.408,8.408,0,0,1-3-.494,5.791,5.791,0,0,1-3.531-3.6,8.5,8.5,0,0,1-.46-2.875V81.071H70.656a1.286,1.286,0,0,1-1.334-1.4V76.885l3.8-.736,1.4-5.819a1.417,1.417,0,0,1,1.564-1.1H79.81v6.969h5.8v4.876h-5.8V92.916a2.229,2.229,0,0,0,.4,1.368,1.36,1.36,0,0,0,1.161.54,2.283,2.283,0,0,0,.656-.08,2.61,2.61,0,0,0,.46-.184q.2-.1.368-.184a.943.943,0,0,1,.4-.081.83.83,0,0,1,.518.15,1.851,1.851,0,0,1,.4.471L86.342,98.3a9.84,9.84,0,0,1-3.105,1.553A12.34,12.34,0,0,1,79.672,100.368Zm20.24-24.587a12.281,12.281,0,0,1,4.336.736,9.425,9.425,0,0,1,3.381,2.139,9.763,9.763,0,0,1,2.208,3.438,12.618,12.618,0,0,1,.794,4.612,10.066,10.066,0,0,1-.069,1.311,2.075,2.075,0,0,1-.253.805.963.963,0,0,1-.494.414,2.316,2.316,0,0,1-.793.115H95.266a6.724,6.724,0,0,0,1.817,4.336,5.406,5.406,0,0,0,3.8,1.345,6.793,6.793,0,0,0,2.139-.3,10.791,10.791,0,0,0,1.6-.667q.7-.368,1.288-.667a2.674,2.674,0,0,1,1.23-.3,1.474,1.474,0,0,1,1.288.621l2.07,2.553a10.6,10.6,0,0,1-2.381,2.058,12.371,12.371,0,0,1-2.622,1.242,14.212,14.212,0,0,1-2.691.621,20.194,20.194,0,0,1-2.564.172,13.39,13.39,0,0,1-4.7-.816,10.808,10.808,0,0,1-3.841-2.426,11.449,11.449,0,0,1-2.6-4,14.953,14.953,0,0,1-.954-5.566,12.6,12.6,0,0,1,.816-4.531A11.007,11.007,0,0,1,95,76.724,12.222,12.222,0,0,1,99.912,75.781Zm.138,4.922a4.3,4.3,0,0,0-3.2,1.161,6.052,6.052,0,0,0-1.518,3.346h8.9a6.294,6.294,0,0,0-.218-1.656,4.015,4.015,0,0,0-.713-1.437,3.628,3.628,0,0,0-1.3-1.023A4.444,4.444,0,0,0,100.05,80.7Zm22.034-15.134V100h-7.13V65.569Zm13.11,0V100h-7.13V65.569Zm15.962,10.212a12.281,12.281,0,0,1,4.335.736,9.425,9.425,0,0,1,3.381,2.139,9.763,9.763,0,0,1,2.208,3.438,12.618,12.618,0,0,1,.794,4.612,10.065,10.065,0,0,1-.069,1.311,2.075,2.075,0,0,1-.253.805.963.963,0,0,1-.494.414,2.316,2.316,0,0,1-.794.115H146.51a6.724,6.724,0,0,0,1.817,4.336,5.406,5.406,0,0,0,3.795,1.345,6.793,6.793,0,0,0,2.139-.3,10.791,10.791,0,0,0,1.6-.667q.7-.368,1.288-.667a2.674,2.674,0,0,1,1.23-.3,1.474,1.474,0,0,1,1.288.621l2.07,2.553a10.6,10.6,0,0,1-2.381,2.058,12.371,12.371,0,0,1-2.622,1.242,14.212,14.212,0,0,1-2.691.621,20.194,20.194,0,0,1-2.564.172,13.39,13.39,0,0,1-4.7-.816,10.808,10.808,0,0,1-3.841-2.426,11.449,11.449,0,0,1-2.6-4,14.953,14.953,0,0,1-.954-5.566,12.6,12.6,0,0,1,.816-4.531,11.007,11.007,0,0,1,6.049-6.3A12.222,12.222,0,0,1,151.156,75.781Zm.138,4.922a4.3,4.3,0,0,0-3.2,1.161,6.052,6.052,0,0,0-1.518,3.346h8.9a6.293,6.293,0,0,0-.219-1.656,4.015,4.015,0,0,0-.713-1.437,3.628,3.628,0,0,0-1.3-1.023A4.444,4.444,0,0,0,151.294,80.7ZM165.968,100V76.149H170.2a3.609,3.609,0,0,1,.885.092,1.553,1.553,0,0,1,.6.288,1.227,1.227,0,0,1,.368.517,4.666,4.666,0,0,1,.218.782l.391,2.231a11.688,11.688,0,0,1,2.944-3.2,5.982,5.982,0,0,1,3.565-1.173,4.107,4.107,0,0,1,2.622.782l-.92,5.244a1.024,1.024,0,0,1-.368.679,1.249,1.249,0,0,1-.736.2,4.882,4.882,0,0,1-.92-.1,7.132,7.132,0,0,0-1.334-.1q-2.806,0-4.416,2.99V100Zm37.7-23.667a10.4,10.4,0,0,1,3.864.7,8.673,8.673,0,0,1,3.059,2.024,9.227,9.227,0,0,1,2.012,3.266,12.618,12.618,0,0,1,.725,4.427,2.67,2.67,0,0,1-.207,1.288.86.86,0,0,1-.782.322h-15.5a12.863,12.863,0,0,0,.6,3.841,7.854,7.854,0,0,0,1.518,2.725,6.082,6.082,0,0,0,2.3,1.633,7.9,7.9,0,0,0,2.99.54,8.772,8.772,0,0,0,2.656-.356,12.638,12.638,0,0,0,1.921-.771,14.651,14.651,0,0,0,1.346-.771,1.784,1.784,0,0,1,.931-.356.9.9,0,0,1,.782.391l1.15,1.5a7.776,7.776,0,0,1-1.817,1.6,11.313,11.313,0,0,1-2.266,1.116,14.39,14.39,0,0,1-2.5.656,15.242,15.242,0,0,1-2.553.218,11.847,11.847,0,0,1-4.451-.816,9.768,9.768,0,0,1-3.519-2.392,10.973,10.973,0,0,1-2.312-3.9,15.853,15.853,0,0,1-.828-5.336,13.576,13.576,0,0,1,.747-4.554,10.734,10.734,0,0,1,2.151-3.668,9.9,9.9,0,0,1,3.427-2.438A11.25,11.25,0,0,1,203.665,76.333Zm.092,3.013a6.285,6.285,0,0,0-4.669,1.714,8.065,8.065,0,0,0-2.116,4.749h12.673a8.29,8.29,0,0,0-.391-2.61,5.817,5.817,0,0,0-1.15-2.047,5.147,5.147,0,0,0-1.852-1.334A6.244,6.244,0,0,0,203.757,79.346ZM218.546,100V76.7h2.438a1.044,1.044,0,0,1,1.1.851l.322,2.53a13.1,13.1,0,0,1,3.393-2.714,8.823,8.823,0,0,1,4.335-1.035,8.413,8.413,0,0,1,3.37.632,6.519,6.519,0,0,1,2.438,1.794,7.923,7.923,0,0,1,1.484,2.795,12.161,12.161,0,0,1,.506,3.611V100h-4.094V85.165a6.271,6.271,0,0,0-1.208-4.105,4.514,4.514,0,0,0-3.691-1.461,6.882,6.882,0,0,0-3.393.874,11.172,11.172,0,0,0-2.91,2.369V100Zm43.677-23.667a10.4,10.4,0,0,1,3.864.7,8.673,8.673,0,0,1,3.059,2.024,9.227,9.227,0,0,1,2.013,3.266,12.618,12.618,0,0,1,.724,4.427,2.67,2.67,0,0,1-.207,1.288.86.86,0,0,1-.782.322h-15.5a12.863,12.863,0,0,0,.6,3.841,7.854,7.854,0,0,0,1.518,2.725,6.082,6.082,0,0,0,2.3,1.633,7.9,7.9,0,0,0,2.99.54,8.772,8.772,0,0,0,2.656-.356,12.637,12.637,0,0,0,1.921-.771,14.65,14.65,0,0,0,1.345-.771,1.784,1.784,0,0,1,.932-.356.9.9,0,0,1,.782.391l1.15,1.5a7.775,7.775,0,0,1-1.817,1.6,11.314,11.314,0,0,1-2.266,1.116,14.389,14.389,0,0,1-2.5.656,15.242,15.242,0,0,1-2.553.218A11.847,11.847,0,0,1,258,99.506a9.768,9.768,0,0,1-3.519-2.392,10.973,10.973,0,0,1-2.312-3.9,15.853,15.853,0,0,1-.828-5.336,13.576,13.576,0,0,1,.747-4.554,10.734,10.734,0,0,1,2.151-3.668,9.9,9.9,0,0,1,3.427-2.438A11.25,11.25,0,0,1,262.223,76.333Zm.092,3.013a6.285,6.285,0,0,0-4.669,1.714,8.065,8.065,0,0,0-2.116,4.749H268.2a8.29,8.29,0,0,0-.391-2.61,5.817,5.817,0,0,0-1.15-2.047,5.147,5.147,0,0,0-1.852-1.334A6.244,6.244,0,0,0,262.315,79.346Zm24.012-3.013a10.4,10.4,0,0,1,3.864.7,8.673,8.673,0,0,1,3.059,2.024,9.227,9.227,0,0,1,2.013,3.266,12.618,12.618,0,0,1,.724,4.427,2.67,2.67,0,0,1-.207,1.288.86.86,0,0,1-.782.322H279.5a12.863,12.863,0,0,0,.6,3.841,7.854,7.854,0,0,0,1.518,2.725,6.082,6.082,0,0,0,2.3,1.633,7.9,7.9,0,0,0,2.99.54,8.772,8.772,0,0,0,2.656-.356,12.637,12.637,0,0,0,1.921-.771,14.65,14.65,0,0,0,1.345-.771,1.784,1.784,0,0,1,.932-.356.9.9,0,0,1,.782.391l1.15,1.5a7.775,7.775,0,0,1-1.817,1.6,11.314,11.314,0,0,1-2.266,1.116,14.389,14.389,0,0,1-2.5.656,15.242,15.242,0,0,1-2.553.218,11.847,11.847,0,0,1-4.451-.816,9.768,9.768,0,0,1-3.519-2.392,10.974,10.974,0,0,1-2.311-3.9,15.853,15.853,0,0,1-.828-5.336,13.576,13.576,0,0,1,.747-4.554,10.734,10.734,0,0,1,2.151-3.668,9.9,9.9,0,0,1,3.427-2.438A11.25,11.25,0,0,1,286.327,76.333Zm.092,3.013a6.285,6.285,0,0,0-4.669,1.714,8.065,8.065,0,0,0-2.116,4.749h12.673a8.29,8.29,0,0,0-.391-2.61,5.817,5.817,0,0,0-1.15-2.047,5.147,5.147,0,0,0-1.852-1.334A6.244,6.244,0,0,0,286.419,79.346ZM301.208,100V76.7h2.438a1.044,1.044,0,0,1,1.1.851l.322,2.53a13.1,13.1,0,0,1,3.392-2.714,8.823,8.823,0,0,1,4.336-1.035,8.413,8.413,0,0,1,3.369.632,6.519,6.519,0,0,1,2.438,1.794,7.922,7.922,0,0,1,1.483,2.795,12.161,12.161,0,0,1,.506,3.611V100H316.5V85.165A6.271,6.271,0,0,0,315.3,81.06,4.514,4.514,0,0,0,311.6,79.6a6.882,6.882,0,0,0-3.392.874,11.173,11.173,0,0,0-2.91,2.369V100Zm34.454,0V76.7H338.1a1.044,1.044,0,0,1,1.1.851l.322,2.53a13.1,13.1,0,0,1,3.392-2.714,8.823,8.823,0,0,1,4.336-1.035,8.413,8.413,0,0,1,3.369.632,6.519,6.519,0,0,1,2.438,1.794,7.922,7.922,0,0,1,1.483,2.795,12.161,12.161,0,0,1,.506,3.611V100h-4.094V85.165a6.271,6.271,0,0,0-1.207-4.105,4.514,4.514,0,0,0-3.691-1.461,6.882,6.882,0,0,0-3.392.874,11.173,11.173,0,0,0-2.91,2.369V100Zm30.13-23.3V100H361.7V76.7Zm.92-7.314a2.605,2.605,0,0,1-.241,1.116,3.212,3.212,0,0,1-.644.92,2.992,2.992,0,0,1-.931.632,2.8,2.8,0,0,1-1.127.23,2.715,2.715,0,0,1-1.116-.23A3.066,3.066,0,0,1,361.1,70.5a2.715,2.715,0,0,1-.23-1.116,2.877,2.877,0,0,1,.23-1.138,2.956,2.956,0,0,1,.633-.943,3.032,3.032,0,0,1,.92-.632,2.715,2.715,0,0,1,1.116-.23,2.8,2.8,0,0,1,1.127.23,2.992,2.992,0,0,1,.931.632,3.119,3.119,0,0,1,.644.943A2.76,2.76,0,0,1,366.712,69.387Zm15.525,6.946a10.4,10.4,0,0,1,3.864.7,8.673,8.673,0,0,1,3.059,2.024,9.227,9.227,0,0,1,2.013,3.266,12.618,12.618,0,0,1,.724,4.427,2.67,2.67,0,0,1-.207,1.288.86.86,0,0,1-.782.322h-15.5A12.863,12.863,0,0,0,376,92.2a7.854,7.854,0,0,0,1.518,2.725,6.082,6.082,0,0,0,2.3,1.633,7.9,7.9,0,0,0,2.99.54,8.772,8.772,0,0,0,2.656-.356,12.637,12.637,0,0,0,1.921-.771,14.65,14.65,0,0,0,1.345-.771,1.784,1.784,0,0,1,.932-.356.9.9,0,0,1,.782.391l1.15,1.5a7.775,7.775,0,0,1-1.817,1.6,11.314,11.314,0,0,1-2.266,1.116,14.389,14.389,0,0,1-2.5.656,15.242,15.242,0,0,1-2.553.218,11.847,11.847,0,0,1-4.451-.816,9.768,9.768,0,0,1-3.519-2.392,10.974,10.974,0,0,1-2.311-3.9,15.853,15.853,0,0,1-.828-5.336,13.576,13.576,0,0,1,.747-4.554,10.734,10.734,0,0,1,2.151-3.668,9.9,9.9,0,0,1,3.427-2.438A11.25,11.25,0,0,1,382.237,76.333Zm.092,3.013a6.285,6.285,0,0,0-4.669,1.714,8.065,8.065,0,0,0-2.116,4.749h12.673a8.29,8.29,0,0,0-.391-2.61,5.817,5.817,0,0,0-1.15-2.047,5.147,5.147,0,0,0-1.852-1.334A6.244,6.244,0,0,0,382.329,79.346ZM400.66,76.7V91.559a6.183,6.183,0,0,0,1.219,4.094,4.538,4.538,0,0,0,3.68,1.449,7.049,7.049,0,0,0,3.381-.851,10.516,10.516,0,0,0,2.921-2.369V76.7h4.094V100h-2.438a1.044,1.044,0,0,1-1.1-.851l-.322-2.507a12.817,12.817,0,0,1-3.4,2.7,8.921,8.921,0,0,1-4.324,1.023,8.413,8.413,0,0,1-3.37-.632,6.68,6.68,0,0,1-2.449-1.782,7.57,7.57,0,0,1-1.483-2.783,12.424,12.424,0,0,1-.495-3.611V76.7Zm19,0h3.22a1.3,1.3,0,0,1,.828.253,1.265,1.265,0,0,1,.437.6l4.462,15q.184.828.345,1.6t.276,1.552q.184-.782.414-1.552t.483-1.6l4.922-15.088a1.214,1.214,0,0,1,.4-.575,1.123,1.123,0,0,1,.724-.23h1.771a1.209,1.209,0,0,1,.759.23,1.186,1.186,0,0,1,.414.575l4.807,15.088q.253.805.448,1.587t.38,1.541q.115-.759.3-1.587t.391-1.541l4.554-15a1.192,1.192,0,0,1,.437-.61,1.23,1.23,0,0,1,.759-.241h3.082L446.729,100h-3.243q-.6,0-.828-.782l-5.152-15.8a8.871,8.871,0,0,1-.3-1.069q-.115-.541-.23-1.07-.115.529-.23,1.081a8.676,8.676,0,0,1-.3,1.081l-5.221,15.778a.959.959,0,0,1-.943.782H427.2Zm47.495-.368a10.4,10.4,0,0,1,3.864.7,8.673,8.673,0,0,1,3.059,2.024,9.227,9.227,0,0,1,2.013,3.266,12.618,12.618,0,0,1,.724,4.427,2.67,2.67,0,0,1-.207,1.288.86.86,0,0,1-.782.322h-15.5a12.863,12.863,0,0,0,.6,3.841,7.854,7.854,0,0,0,1.518,2.725,6.082,6.082,0,0,0,2.3,1.633,7.9,7.9,0,0,0,2.99.54,8.772,8.772,0,0,0,2.656-.356,12.637,12.637,0,0,0,1.921-.771,14.65,14.65,0,0,0,1.345-.771,1.784,1.784,0,0,1,.932-.356.9.9,0,0,1,.782.391l1.15,1.5a7.775,7.775,0,0,1-1.817,1.6,11.314,11.314,0,0,1-2.266,1.116,14.389,14.389,0,0,1-2.5.656,15.242,15.242,0,0,1-2.553.218,11.847,11.847,0,0,1-4.451-.816,9.768,9.768,0,0,1-3.519-2.392,10.974,10.974,0,0,1-2.311-3.9,15.853,15.853,0,0,1-.828-5.336,13.576,13.576,0,0,1,.747-4.554,10.734,10.734,0,0,1,2.151-3.668,9.9,9.9,0,0,1,3.427-2.438A11.25,11.25,0,0,1,467.153,76.333Zm.092,3.013a6.285,6.285,0,0,0-4.669,1.714,8.065,8.065,0,0,0-2.116,4.749h12.673a8.29,8.29,0,0,0-.391-2.61,5.817,5.817,0,0,0-1.15-2.047,5.147,5.147,0,0,0-1.852-1.334A6.244,6.244,0,0,0,467.245,79.346ZM487.968,76.7h3.358a1.263,1.263,0,0,1,.8.253,1.434,1.434,0,0,1,.46.6l5.911,15a11.377,11.377,0,0,1,.506,1.656q.184.828.345,1.633.184-.805.391-1.633a13.808,13.808,0,0,1,.529-1.656l5.98-15a1.365,1.365,0,0,1,.448-.61,1.217,1.217,0,0,1,.771-.241h3.2l-9.5,23.3h-3.7Zm35.121-.368a10.4,10.4,0,0,1,3.864.7,8.674,8.674,0,0,1,3.059,2.024,9.227,9.227,0,0,1,2.012,3.266,12.617,12.617,0,0,1,.725,4.427,2.67,2.67,0,0,1-.207,1.288.86.86,0,0,1-.782.322h-15.5a12.865,12.865,0,0,0,.6,3.841,7.854,7.854,0,0,0,1.518,2.725,6.082,6.082,0,0,0,2.3,1.633,7.9,7.9,0,0,0,2.99.54,8.772,8.772,0,0,0,2.656-.356,12.639,12.639,0,0,0,1.92-.771,14.643,14.643,0,0,0,1.346-.771,1.784,1.784,0,0,1,.932-.356.9.9,0,0,1,.782.391l1.15,1.5a7.777,7.777,0,0,1-1.817,1.6,11.313,11.313,0,0,1-2.266,1.116,14.39,14.39,0,0,1-2.5.656,15.243,15.243,0,0,1-2.553.218,11.847,11.847,0,0,1-4.451-.816,9.768,9.768,0,0,1-3.519-2.392,10.972,10.972,0,0,1-2.311-3.9,15.853,15.853,0,0,1-.828-5.336,13.575,13.575,0,0,1,.747-4.554,10.734,10.734,0,0,1,2.15-3.668,9.9,9.9,0,0,1,3.427-2.438A11.25,11.25,0,0,1,523.089,76.333Zm.092,3.013a6.285,6.285,0,0,0-4.669,1.714,8.065,8.065,0,0,0-2.116,4.749h12.673a8.289,8.289,0,0,0-.391-2.61,5.818,5.818,0,0,0-1.15-2.047,5.148,5.148,0,0,0-1.852-1.334A6.245,6.245,0,0,0,523.181,79.346ZM537.97,100V76.7h2.346a1.3,1.3,0,0,1,.92.253,1.552,1.552,0,0,1,.345.874l.276,3.634a10.656,10.656,0,0,1,2.956-3.806,6.964,6.964,0,0,1,5.877-1.15,6.093,6.093,0,0,1,1.449.609l-.529,3.059a.692.692,0,0,1-.713.575,3.578,3.578,0,0,1-.989-.218,6.238,6.238,0,0,0-1.863-.219,5.277,5.277,0,0,0-3.576,1.242,9.323,9.323,0,0,0-2.4,3.611V100Zm25.6.368a5.617,5.617,0,0,1-4.244-1.541,6.15,6.15,0,0,1-1.483-4.439V80.128h-2.806a.917.917,0,0,1-.621-.218.849.849,0,0,1-.253-.678V77.6l3.818-.483.943-7.2a.87.87,0,0,1,.3-.563.95.95,0,0,1,.644-.218h2.07v8.027h6.67v2.967h-6.67V94.112a2.975,2.975,0,0,0,.713,2.185,2.49,2.49,0,0,0,1.84.713,3.249,3.249,0,0,0,1.116-.173,4.786,4.786,0,0,0,.816-.38q.345-.207.586-.38a.768.768,0,0,1,.426-.173.7.7,0,0,1,.575.391l1.2,1.955a7.628,7.628,0,0,1-2.553,1.552A8.669,8.669,0,0,1,563.569,100.368Zm19.32-24.035a10.4,10.4,0,0,1,3.864.7,8.674,8.674,0,0,1,3.059,2.024,9.227,9.227,0,0,1,2.012,3.266,12.617,12.617,0,0,1,.725,4.427,2.67,2.67,0,0,1-.207,1.288.86.86,0,0,1-.782.322h-15.5a12.865,12.865,0,0,0,.6,3.841,7.854,7.854,0,0,0,1.518,2.725,6.082,6.082,0,0,0,2.3,1.633,7.9,7.9,0,0,0,2.99.54,8.772,8.772,0,0,0,2.656-.356,12.639,12.639,0,0,0,1.92-.771,14.643,14.643,0,0,0,1.346-.771,1.784,1.784,0,0,1,.932-.356.9.9,0,0,1,.782.391l1.15,1.5a7.777,7.777,0,0,1-1.817,1.6,11.313,11.313,0,0,1-2.266,1.116,14.39,14.39,0,0,1-2.5.656,15.243,15.243,0,0,1-2.553.218,11.847,11.847,0,0,1-4.451-.816,9.768,9.768,0,0,1-3.519-2.392,10.972,10.972,0,0,1-2.311-3.9,15.853,15.853,0,0,1-.828-5.336,13.575,13.575,0,0,1,.747-4.554,10.734,10.734,0,0,1,2.15-3.668,9.9,9.9,0,0,1,3.427-2.438A11.25,11.25,0,0,1,582.889,76.333Zm.092,3.013a6.285,6.285,0,0,0-4.669,1.714,8.065,8.065,0,0,0-2.116,4.749h12.673a8.289,8.289,0,0,0-.391-2.61,5.818,5.818,0,0,0-1.15-2.047,5.148,5.148,0,0,0-1.852-1.334A6.245,6.245,0,0,0,582.981,79.346Zm19.343-13.225V100H598.23V66.121Zm11.477,0V86.062h1.058a1.961,1.961,0,0,0,.759-.126,2.124,2.124,0,0,0,.667-.518l7.36-7.889a4,4,0,0,1,.69-.6,1.635,1.635,0,0,1,.92-.23h3.726L620.4,85.832a8.147,8.147,0,0,1-.633.69,3.738,3.738,0,0,1-.7.529,4.24,4.24,0,0,1,.747.632,5.889,5.889,0,0,1,.633.816l9.108,11.5h-3.68a1.77,1.77,0,0,1-.862-.2,2.255,2.255,0,0,1-.679-.609l-7.659-9.545a1.787,1.787,0,0,0-.69-.632,2.732,2.732,0,0,0-1.035-.15H613.8V100h-4.117V66.121ZM650.762,100h-1.817a2.168,2.168,0,0,1-.966-.184,1.018,1.018,0,0,1-.483-.782l-.46-2.162q-.92.828-1.794,1.483a10.269,10.269,0,0,1-1.84,1.1,9.534,9.534,0,0,1-2.058.678,11.807,11.807,0,0,1-2.427.23,8.283,8.283,0,0,1-2.542-.379,5.794,5.794,0,0,1-2.058-1.139,5.421,5.421,0,0,1-1.392-1.921,6.712,6.712,0,0,1-.517-2.748,5.127,5.127,0,0,1,.759-2.657,6.67,6.67,0,0,1,2.45-2.265,15.958,15.958,0,0,1,4.427-1.622,33.731,33.731,0,0,1,6.693-.724V85.1a6.272,6.272,0,0,0-1.161-4.105,4.224,4.224,0,0,0-3.439-1.392,7.289,7.289,0,0,0-2.518.38,9.534,9.534,0,0,0-1.771.851q-.748.471-1.288.851a1.858,1.858,0,0,1-1.07.38,1.227,1.227,0,0,1-.724-.218,1.665,1.665,0,0,1-.495-.541l-.736-1.311a13.3,13.3,0,0,1,4.163-2.783,12.854,12.854,0,0,1,4.945-.92,8.823,8.823,0,0,1,3.473.644,7.122,7.122,0,0,1,2.553,1.794,7.6,7.6,0,0,1,1.564,2.783,11.591,11.591,0,0,1,.529,3.588Zm-10.626-2.507a8.358,8.358,0,0,0,1.978-.218,7.808,7.808,0,0,0,1.69-.621,8.958,8.958,0,0,0,1.518-.978,13.157,13.157,0,0,0,1.414-1.311V89.512a33.833,33.833,0,0,0-4.807.449,13.482,13.482,0,0,0-3.22.931,4.485,4.485,0,0,0-1.806,1.357A2.919,2.919,0,0,0,636.341,94a3.857,3.857,0,0,0,.3,1.587,3.007,3.007,0,0,0,.8,1.092,3.177,3.177,0,0,0,1.2.621A5.466,5.466,0,0,0,640.136,97.493ZM674.084,100h-1.817a2.168,2.168,0,0,1-.966-.184,1.018,1.018,0,0,1-.483-.782l-.46-2.162q-.92.828-1.794,1.483a10.269,10.269,0,0,1-1.84,1.1,9.534,9.534,0,0,1-2.058.678,11.807,11.807,0,0,1-2.427.23,8.283,8.283,0,0,1-2.542-.379,5.794,5.794,0,0,1-2.058-1.139,5.421,5.421,0,0,1-1.392-1.921,6.712,6.712,0,0,1-.517-2.748,5.127,5.127,0,0,1,.759-2.657,6.67,6.67,0,0,1,2.45-2.265,15.958,15.958,0,0,1,4.427-1.622,33.731,33.731,0,0,1,6.693-.724V85.1a6.272,6.272,0,0,0-1.161-4.105,4.224,4.224,0,0,0-3.439-1.392,7.289,7.289,0,0,0-2.518.38,9.534,9.534,0,0,0-1.771.851q-.748.471-1.288.851a1.858,1.858,0,0,1-1.07.38,1.227,1.227,0,0,1-.724-.218,1.665,1.665,0,0,1-.495-.541l-.736-1.311a13.3,13.3,0,0,1,4.163-2.783,12.854,12.854,0,0,1,4.945-.92,8.823,8.823,0,0,1,3.473.644,7.122,7.122,0,0,1,2.553,1.794,7.6,7.6,0,0,1,1.564,2.783,11.591,11.591,0,0,1,.529,3.588Zm-10.626-2.507a8.358,8.358,0,0,0,1.978-.218,7.808,7.808,0,0,0,1.69-.621,8.958,8.958,0,0,0,1.518-.978,13.157,13.157,0,0,0,1.414-1.311V89.512a33.833,33.833,0,0,0-4.807.449,13.482,13.482,0,0,0-3.22.931,4.485,4.485,0,0,0-1.806,1.357A2.919,2.919,0,0,0,659.663,94a3.857,3.857,0,0,0,.3,1.587,3.007,3.007,0,0,0,.8,1.092,3.177,3.177,0,0,0,1.2.621A5.466,5.466,0,0,0,663.458,97.493ZM680.294,100V76.7h2.346a1.3,1.3,0,0,1,.92.253,1.552,1.552,0,0,1,.345.874l.276,3.634a10.656,10.656,0,0,1,2.956-3.806,6.964,6.964,0,0,1,5.877-1.15,6.093,6.093,0,0,1,1.449.609l-.529,3.059a.692.692,0,0,1-.713.575,3.578,3.578,0,0,1-.989-.218,6.238,6.238,0,0,0-1.863-.219,5.277,5.277,0,0,0-3.576,1.242,9.323,9.323,0,0,0-2.4,3.611V100Zm25.6.368a5.617,5.617,0,0,1-4.244-1.541,6.15,6.15,0,0,1-1.483-4.439V80.128H697.36a.917.917,0,0,1-.621-.218.849.849,0,0,1-.253-.678V77.6l3.818-.483.943-7.2a.87.87,0,0,1,.3-.563.95.95,0,0,1,.644-.218h2.07v8.027h6.67v2.967h-6.67V94.112a2.975,2.975,0,0,0,.713,2.185,2.49,2.49,0,0,0,1.84.713,3.249,3.249,0,0,0,1.116-.173,4.786,4.786,0,0,0,.816-.38q.345-.207.586-.38a.768.768,0,0,1,.426-.173.7.7,0,0,1,.575.391l1.2,1.955a7.628,7.628,0,0,1-2.553,1.552A8.669,8.669,0,0,1,705.893,100.368Zm8.763-2.9a2.922,2.922,0,0,1,.219-1.127,2.891,2.891,0,0,1,.6-.92,2.865,2.865,0,0,1,3.162-.621,2.95,2.95,0,0,1,.92.621,2.794,2.794,0,0,1,.609.92,3.045,3.045,0,0,1,0,2.265,2.826,2.826,0,0,1-.609.909,2.8,2.8,0,0,1-.92.61,3.016,3.016,0,0,1-2.254,0,2.669,2.669,0,0,1-.909-.61,2.881,2.881,0,0,1-.817-2.047Z" transform="translate(1036.672 640)" fill="#1a1a1a"/>
        <g id="Group_13" data-name="Group 13" transform="translate(1001.672 651.549) rotate(90)">
          <g id="Group_9-2" data-name="Group 9" clip-path="url(#clip-path-2)">
            <path id="Path_92-2" data-name="Path 92" d="M32.924,33.672H0V12.807A6.213,6.213,0,0,1,2.851,7.582L13.1.988a6.213,6.213,0,0,1,6.723,0L30.073,7.582a6.213,6.213,0,0,1,2.851,5.225Z" transform="translate(0 0)" fill="#7765b4"/>
          </g>
        </g>
      </g>
      <g id="Group_93" data-name="Group 93" transform="translate(0 10.569)">
        <path id="Path_203" data-name="Path 203" d="M20.884,17.193a1.783,1.783,0,0,1-.437.517.971.971,0,0,1-.6.172,1.593,1.593,0,0,1-.908-.391,14.48,14.48,0,0,0-1.311-.863,10.639,10.639,0,0,0-1.909-.862,8.214,8.214,0,0,0-2.7-.391,7.991,7.991,0,0,0-2.645.4,5.624,5.624,0,0,0-1.92,1.092,4.485,4.485,0,0,0-1.162,1.622A5.147,5.147,0,0,0,6.9,20.5a3.719,3.719,0,0,0,.678,2.289,5.846,5.846,0,0,0,1.794,1.552,13.744,13.744,0,0,0,2.53,1.115q1.414.471,2.9.978t2.9,1.138a10.193,10.193,0,0,1,2.53,1.6,7.287,7.287,0,0,1,1.794,2.369,7.884,7.884,0,0,1,.679,3.45,11.127,11.127,0,0,1-.736,4.06,9.359,9.359,0,0,1-2.15,3.3,10.06,10.06,0,0,1-3.473,2.208,12.774,12.774,0,0,1-4.68.805,14.292,14.292,0,0,1-5.831-1.161,13.676,13.676,0,0,1-4.5-3.139l1.288-2.116a1.693,1.693,0,0,1,.448-.425,1.051,1.051,0,0,1,.586-.173,1.83,1.83,0,0,1,1.1.517,18.394,18.394,0,0,0,1.553,1.139,11.858,11.858,0,0,0,2.254,1.139,8.9,8.9,0,0,0,3.231.518,8.5,8.5,0,0,0,2.829-.437,6.008,6.008,0,0,0,2.1-1.23,5.331,5.331,0,0,0,1.323-1.9,6.341,6.341,0,0,0,.46-2.461,4.13,4.13,0,0,0-.678-2.45,5.624,5.624,0,0,0-1.782-1.6A12.46,12.46,0,0,0,13.536,30.5l-2.9-.92a29.223,29.223,0,0,1-2.9-1.093,9.419,9.419,0,0,1-2.518-1.61A7.4,7.4,0,0,1,3.438,24.4a8.806,8.806,0,0,1-.678-3.668,8.787,8.787,0,0,1,2.645-6.279A9.531,9.531,0,0,1,8.59,12.432a11.669,11.669,0,0,1,4.359-.759,13.951,13.951,0,0,1,5.037.874,11.6,11.6,0,0,1,3.979,2.53Zm6.854,35.7V21.7h2.438a1.044,1.044,0,0,1,1.1.851l.345,2.76a12.439,12.439,0,0,1,3.415-2.921,8.725,8.725,0,0,1,4.428-1.1,8.41,8.41,0,0,1,3.634.771,7.493,7.493,0,0,1,2.783,2.277,10.92,10.92,0,0,1,1.771,3.738,19.183,19.183,0,0,1,.621,5.129,16.076,16.076,0,0,1-.69,4.8,11.678,11.678,0,0,1-1.978,3.841,9.237,9.237,0,0,1-3.163,2.553,9.355,9.355,0,0,1-4.221.931,8.687,8.687,0,0,1-3.691-.713,8.318,8.318,0,0,1-2.7-2.024v10.3ZM38.111,24.6a6.6,6.6,0,0,0-3.507.92,10.111,10.111,0,0,0-2.772,2.6v11.27A6.583,6.583,0,0,0,34.3,41.527a7.078,7.078,0,0,0,3,.621A5.873,5.873,0,0,0,42.3,39.825,10.85,10.85,0,0,0,44.045,33.2a16.528,16.528,0,0,0-.4-3.91,7.646,7.646,0,0,0-1.161-2.68,4.519,4.519,0,0,0-1.863-1.529A6.2,6.2,0,0,0,38.111,24.6Zm24.242-3.266a10.4,10.4,0,0,1,3.864.7,8.673,8.673,0,0,1,3.059,2.024,9.228,9.228,0,0,1,2.012,3.266,12.618,12.618,0,0,1,.725,4.427,2.67,2.67,0,0,1-.207,1.288.86.86,0,0,1-.782.322h-15.5a12.863,12.863,0,0,0,.6,3.841,7.854,7.854,0,0,0,1.518,2.726,6.082,6.082,0,0,0,2.3,1.633,7.9,7.9,0,0,0,2.99.541,8.772,8.772,0,0,0,2.657-.357,12.639,12.639,0,0,0,1.92-.771,14.649,14.649,0,0,0,1.346-.771,1.784,1.784,0,0,1,.931-.356.9.9,0,0,1,.782.391l1.15,1.5a7.776,7.776,0,0,1-1.817,1.6,11.313,11.313,0,0,1-2.266,1.116,14.39,14.39,0,0,1-2.5.655,15.242,15.242,0,0,1-2.553.218,11.847,11.847,0,0,1-4.451-.816,9.768,9.768,0,0,1-3.519-2.392,10.973,10.973,0,0,1-2.312-3.9,15.853,15.853,0,0,1-.828-5.336,13.576,13.576,0,0,1,.748-4.554,10.734,10.734,0,0,1,2.15-3.668A9.9,9.9,0,0,1,57.8,22.219,11.25,11.25,0,0,1,62.353,21.333Zm.092,3.013a6.285,6.285,0,0,0-4.669,1.713,8.065,8.065,0,0,0-2.116,4.75H68.333a8.29,8.29,0,0,0-.391-2.611,5.817,5.817,0,0,0-1.15-2.047,5.147,5.147,0,0,0-1.852-1.334A6.244,6.244,0,0,0,62.445,24.346Zm24.012-3.013a10.4,10.4,0,0,1,3.864.7,8.673,8.673,0,0,1,3.059,2.024,9.228,9.228,0,0,1,2.013,3.266,12.618,12.618,0,0,1,.725,4.427,2.67,2.67,0,0,1-.207,1.288.86.86,0,0,1-.782.322h-15.5a12.863,12.863,0,0,0,.6,3.841,7.854,7.854,0,0,0,1.518,2.726,6.082,6.082,0,0,0,2.3,1.633,7.9,7.9,0,0,0,2.99.541,8.772,8.772,0,0,0,2.657-.357,12.639,12.639,0,0,0,1.921-.771,14.648,14.648,0,0,0,1.345-.771,1.784,1.784,0,0,1,.932-.356.9.9,0,0,1,.782.391l1.15,1.5A7.777,7.777,0,0,1,94,43.333a11.313,11.313,0,0,1-2.266,1.116,14.39,14.39,0,0,1-2.5.655,15.242,15.242,0,0,1-2.553.218,11.847,11.847,0,0,1-4.451-.816,9.768,9.768,0,0,1-3.519-2.392,10.973,10.973,0,0,1-2.312-3.9,15.853,15.853,0,0,1-.828-5.336,13.576,13.576,0,0,1,.747-4.554,10.734,10.734,0,0,1,2.15-3.668A9.9,9.9,0,0,1,81.9,22.219,11.25,11.25,0,0,1,86.457,21.333Zm.092,3.013a6.285,6.285,0,0,0-4.669,1.713,8.065,8.065,0,0,0-2.116,4.75H92.437a8.29,8.29,0,0,0-.391-2.611,5.817,5.817,0,0,0-1.15-2.047,5.147,5.147,0,0,0-1.851-1.334A6.245,6.245,0,0,0,86.549,24.346Zm19.343-13.225V45H101.8V11.121ZM126.546,21.7V45h-4.094V21.7Zm.92-7.314a2.6,2.6,0,0,1-.242,1.115,3.212,3.212,0,0,1-.644.92,2.992,2.992,0,0,1-.932.632,2.8,2.8,0,0,1-1.127.23,2.715,2.715,0,0,1-1.116-.23,3.066,3.066,0,0,1-1.552-1.552,2.715,2.715,0,0,1-.23-1.115,2.878,2.878,0,0,1,.23-1.139,2.956,2.956,0,0,1,.632-.943,3.032,3.032,0,0,1,.92-.632,2.715,2.715,0,0,1,1.116-.23,2.8,2.8,0,0,1,1.127.23,2.992,2.992,0,0,1,.932.632,3.119,3.119,0,0,1,.644.943A2.76,2.76,0,0,1,127.466,14.387ZM133.768,45V21.7h2.438a1.044,1.044,0,0,1,1.1.851l.322,2.53a13.1,13.1,0,0,1,3.393-2.714,8.823,8.823,0,0,1,4.335-1.035,8.413,8.413,0,0,1,3.37.633,6.519,6.519,0,0,1,2.438,1.794,7.923,7.923,0,0,1,1.483,2.795,12.161,12.161,0,0,1,.506,3.611V45h-4.094V30.165a6.271,6.271,0,0,0-1.208-4.106,4.514,4.514,0,0,0-3.691-1.461,6.882,6.882,0,0,0-3.393.874,11.172,11.172,0,0,0-2.91,2.369V45Zm42.3-23.69a11.588,11.588,0,0,1,2.84.333,8.934,8.934,0,0,1,2.4.977h6.325v1.518q0,.759-.966.966l-2.645.368a7.085,7.085,0,0,1,.782,3.335,7.169,7.169,0,0,1-.655,3.094,7.017,7.017,0,0,1-1.817,2.381,8.156,8.156,0,0,1-2.76,1.518,11.109,11.109,0,0,1-3.507.529,11.786,11.786,0,0,1-3.082-.391,3.872,3.872,0,0,0-1.116.989,1.78,1.78,0,0,0-.38,1.035,1.393,1.393,0,0,0,.667,1.254,4.742,4.742,0,0,0,1.771.61,19.2,19.2,0,0,0,2.507.23q1.4.046,2.863.149a26.8,26.8,0,0,1,2.864.357,8.763,8.763,0,0,1,2.507.828A4.365,4.365,0,0,1,187.1,45.6a6.089,6.089,0,0,1-.747,2.9,7.841,7.841,0,0,1-2.15,2.5,11.082,11.082,0,0,1-3.427,1.748,14.826,14.826,0,0,1-4.577.656,17.66,17.66,0,0,1-4.474-.506,10.463,10.463,0,0,1-3.186-1.357,5.913,5.913,0,0,1-1.9-1.967,4.667,4.667,0,0,1-.633-2.334,4.215,4.215,0,0,1,1.092-2.932,7.494,7.494,0,0,1,3-1.921,4.115,4.115,0,0,1-1.576-1.23,3.314,3.314,0,0,1-.587-2.058,3.24,3.24,0,0,1,.184-1.047,4.115,4.115,0,0,1,.563-1.069,6.023,6.023,0,0,1,2.219-1.863,7.25,7.25,0,0,1-2.7-2.564,7.021,7.021,0,0,1-.977-3.738,7.169,7.169,0,0,1,.656-3.094,6.84,6.84,0,0,1,1.828-2.369,8.363,8.363,0,0,1,2.795-1.506A11.4,11.4,0,0,1,176.065,21.31Zm7.268,24.955a2,2,0,0,0-.483-1.4,3.119,3.119,0,0,0-1.311-.816,9.514,9.514,0,0,0-1.909-.426q-1.081-.138-2.277-.2t-2.438-.126a22.43,22.43,0,0,1-2.369-.253,6.722,6.722,0,0,0-2.128,1.518A3.069,3.069,0,0,0,169.6,46.7a2.814,2.814,0,0,0,.4,1.46,3.43,3.43,0,0,0,1.23,1.173,7.2,7.2,0,0,0,2.081.782,15.1,15.1,0,0,0,5.923-.012,7.449,7.449,0,0,0,2.219-.851,4.178,4.178,0,0,0,1.392-1.311A3.064,3.064,0,0,0,183.333,46.265Zm-7.268-12.65a6.444,6.444,0,0,0,2.2-.345,4.44,4.44,0,0,0,1.6-.966,3.952,3.952,0,0,0,.966-1.484,5.387,5.387,0,0,0,.322-1.9,4.532,4.532,0,0,0-1.3-3.4,6.256,6.256,0,0,0-7.544,0,4.532,4.532,0,0,0-1.3,3.4,5.22,5.22,0,0,0,.333,1.9,4.073,4.073,0,0,0,.977,1.484,4.456,4.456,0,0,0,1.587.966A6.271,6.271,0,0,0,176.065,33.615ZM191.728,45V21.7h2.346a1.3,1.3,0,0,1,.92.253,1.552,1.552,0,0,1,.345.874l.276,3.634a10.657,10.657,0,0,1,2.956-3.806,6.964,6.964,0,0,1,5.876-1.15,6.093,6.093,0,0,1,1.449.609l-.529,3.059a.691.691,0,0,1-.713.575,3.578,3.578,0,0,1-.989-.219,6.238,6.238,0,0,0-1.863-.219,5.277,5.277,0,0,0-3.577,1.242,9.324,9.324,0,0,0-2.4,3.611V45ZM219.7,21.333a11.967,11.967,0,0,1,4.612.851,9.723,9.723,0,0,1,3.5,2.415,10.691,10.691,0,0,1,2.208,3.784,15.044,15.044,0,0,1,.771,4.957,15.017,15.017,0,0,1-.771,4.968,10.708,10.708,0,0,1-2.208,3.772,9.6,9.6,0,0,1-3.5,2.4,13.086,13.086,0,0,1-9.223,0,9.711,9.711,0,0,1-3.507-2.4,10.753,10.753,0,0,1-2.231-3.772,14.815,14.815,0,0,1-.782-4.968,14.842,14.842,0,0,1,.782-4.957,10.736,10.736,0,0,1,2.231-3.784,9.835,9.835,0,0,1,3.507-2.415A11.967,11.967,0,0,1,219.7,21.333Zm0,20.792a5.981,5.981,0,0,0,5.152-2.312,10.7,10.7,0,0,0,1.7-6.451,10.8,10.8,0,0,0-1.7-6.486,5.969,5.969,0,0,0-5.152-2.323,7.15,7.15,0,0,0-3.036.6,5.682,5.682,0,0,0-2.15,1.725,7.662,7.662,0,0,0-1.288,2.771,14.856,14.856,0,0,0-.426,3.715,14.718,14.718,0,0,0,.426,3.7,7.548,7.548,0,0,0,1.288,2.749,5.727,5.727,0,0,0,2.15,1.714A7.15,7.15,0,0,0,219.7,42.125Zm25.369-20.792a10.4,10.4,0,0,1,3.864.7,8.673,8.673,0,0,1,3.059,2.024A9.227,9.227,0,0,1,254,27.325a12.618,12.618,0,0,1,.725,4.427,2.67,2.67,0,0,1-.207,1.288.86.86,0,0,1-.782.322h-15.5a12.863,12.863,0,0,0,.6,3.841,7.854,7.854,0,0,0,1.518,2.726,6.082,6.082,0,0,0,2.3,1.633,7.9,7.9,0,0,0,2.99.541,8.772,8.772,0,0,0,2.656-.357,12.639,12.639,0,0,0,1.921-.771,14.649,14.649,0,0,0,1.346-.771,1.784,1.784,0,0,1,.931-.356.9.9,0,0,1,.782.391l1.15,1.5a7.776,7.776,0,0,1-1.817,1.6,11.313,11.313,0,0,1-2.266,1.116,14.39,14.39,0,0,1-2.5.655,15.242,15.242,0,0,1-2.553.218,11.847,11.847,0,0,1-4.451-.816,9.768,9.768,0,0,1-3.519-2.392,10.973,10.973,0,0,1-2.312-3.9,15.853,15.853,0,0,1-.828-5.336,13.576,13.576,0,0,1,.747-4.554,10.734,10.734,0,0,1,2.151-3.668,9.9,9.9,0,0,1,3.427-2.438A11.25,11.25,0,0,1,245.065,21.333Zm.092,3.013a6.285,6.285,0,0,0-4.669,1.713,8.065,8.065,0,0,0-2.116,4.75h12.673a8.29,8.29,0,0,0-.391-2.611,5.817,5.817,0,0,0-1.15-2.047,5.147,5.147,0,0,0-1.852-1.334A6.244,6.244,0,0,0,245.157,24.346Zm14.789,28.543V21.7h2.438a1.044,1.044,0,0,1,1.1.851l.345,2.76a12.439,12.439,0,0,1,3.415-2.921,8.725,8.725,0,0,1,4.428-1.1,8.41,8.41,0,0,1,3.634.771,7.493,7.493,0,0,1,2.783,2.277,10.92,10.92,0,0,1,1.771,3.738,19.183,19.183,0,0,1,.621,5.129,16.076,16.076,0,0,1-.69,4.8,11.678,11.678,0,0,1-1.978,3.841,9.237,9.237,0,0,1-3.163,2.553,9.355,9.355,0,0,1-4.22.931,8.686,8.686,0,0,1-3.691-.713,8.319,8.319,0,0,1-2.7-2.024v10.3ZM270.319,24.6a6.6,6.6,0,0,0-3.507.92,10.111,10.111,0,0,0-2.772,2.6v11.27a6.583,6.583,0,0,0,2.473,2.139,7.078,7.078,0,0,0,3,.621,5.873,5.873,0,0,0,4.991-2.323,10.85,10.85,0,0,0,1.748-6.624,16.528,16.528,0,0,0-.4-3.91,7.646,7.646,0,0,0-1.161-2.68,4.519,4.519,0,0,0-1.863-1.529A6.2,6.2,0,0,0,270.319,24.6Zm23.9,20.4V11.121h4.094V24.829a12.572,12.572,0,0,1,3.312-2.542,8.87,8.87,0,0,1,4.186-.955,8.413,8.413,0,0,1,3.369.633,6.519,6.519,0,0,1,2.438,1.794,7.922,7.922,0,0,1,1.483,2.795,12.161,12.161,0,0,1,.506,3.611V45h-4.094V30.165a6.271,6.271,0,0,0-1.207-4.106,4.514,4.514,0,0,0-3.691-1.461,6.882,6.882,0,0,0-3.392.874,11.173,11.173,0,0,0-2.91,2.369V45Zm34.8-23.667a10.4,10.4,0,0,1,3.864.7,8.673,8.673,0,0,1,3.059,2.024,9.228,9.228,0,0,1,2.013,3.266,12.618,12.618,0,0,1,.724,4.427,2.67,2.67,0,0,1-.207,1.288.86.86,0,0,1-.782.322h-15.5a12.863,12.863,0,0,0,.6,3.841,7.854,7.854,0,0,0,1.518,2.726,6.082,6.082,0,0,0,2.3,1.633,7.9,7.9,0,0,0,2.99.541,8.772,8.772,0,0,0,2.656-.357,12.637,12.637,0,0,0,1.921-.771,14.649,14.649,0,0,0,1.345-.771,1.784,1.784,0,0,1,.932-.356.9.9,0,0,1,.782.391l1.15,1.5a7.776,7.776,0,0,1-1.817,1.6,11.314,11.314,0,0,1-2.266,1.116,14.389,14.389,0,0,1-2.5.655,15.243,15.243,0,0,1-2.553.218,11.847,11.847,0,0,1-4.451-.816,9.768,9.768,0,0,1-3.519-2.392,10.974,10.974,0,0,1-2.311-3.9,15.853,15.853,0,0,1-.828-5.336,13.576,13.576,0,0,1,.747-4.554,10.734,10.734,0,0,1,2.151-3.668,9.9,9.9,0,0,1,3.427-2.438A11.25,11.25,0,0,1,329.015,21.333Zm.092,3.013a6.285,6.285,0,0,0-4.669,1.713,8.065,8.065,0,0,0-2.116,4.75h12.673A8.29,8.29,0,0,0,334.6,28.2a5.817,5.817,0,0,0-1.15-2.047,5.147,5.147,0,0,0-1.852-1.334A6.244,6.244,0,0,0,329.107,24.346Zm19.044-13.225V31.062h1.058a1.961,1.961,0,0,0,.759-.127,2.124,2.124,0,0,0,.667-.517l7.36-7.889a4,4,0,0,1,.69-.6,1.635,1.635,0,0,1,.92-.23h3.726l-8.579,9.131a8.152,8.152,0,0,1-.632.69,3.74,3.74,0,0,1-.7.529,4.239,4.239,0,0,1,.747.633,5.891,5.891,0,0,1,.633.816L363.906,45h-3.68a1.77,1.77,0,0,1-.862-.2,2.254,2.254,0,0,1-.678-.61l-7.659-9.545a1.788,1.788,0,0,0-.69-.632,2.733,2.733,0,0,0-1.035-.15h-1.15V45h-4.117V11.121ZM381.34,25.542a.907.907,0,0,1-.851.506,1.6,1.6,0,0,1-.782-.253q-.437-.253-1.069-.563a10.044,10.044,0,0,0-1.507-.575,7.187,7.187,0,0,0-2.07-.264,6.109,6.109,0,0,0-1.863.264,4.474,4.474,0,0,0-1.414.725,3.2,3.2,0,0,0-.9,1.069,2.871,2.871,0,0,0-.311,1.322,2.2,2.2,0,0,0,.518,1.5,4.5,4.5,0,0,0,1.368,1.035,11.93,11.93,0,0,0,1.932.771q1.081.333,2.219.713t2.22.84a8.053,8.053,0,0,1,1.932,1.15,5.26,5.26,0,0,1,1.368,1.69,5.174,5.174,0,0,1,.518,2.4,7.611,7.611,0,0,1-.575,2.979,6.5,6.5,0,0,1-1.7,2.369,8.207,8.207,0,0,1-2.76,1.576,11.339,11.339,0,0,1-3.772.575,11.766,11.766,0,0,1-4.416-.793,11.19,11.19,0,0,1-3.358-2.035l.966-1.564a1.4,1.4,0,0,1,.437-.46,1.227,1.227,0,0,1,.667-.161,1.541,1.541,0,0,1,.874.322q.46.322,1.116.713a8.583,8.583,0,0,0,1.587.713,7.233,7.233,0,0,0,2.335.322,6.4,6.4,0,0,0,2.093-.311,4.4,4.4,0,0,0,1.495-.84,3.325,3.325,0,0,0,.885-1.219,3.788,3.788,0,0,0,.288-1.472,2.441,2.441,0,0,0-.517-1.6,4.368,4.368,0,0,0-1.368-1.081,11.153,11.153,0,0,0-1.944-.782q-1.092-.333-2.231-.7t-2.231-.839a7.843,7.843,0,0,1-1.943-1.185,5.366,5.366,0,0,1-1.368-1.759,5.689,5.689,0,0,1-.518-2.542,6.2,6.2,0,0,1,.552-2.564,6.289,6.289,0,0,1,1.61-2.162,7.929,7.929,0,0,1,2.6-1.483,10.4,10.4,0,0,1,3.519-.552,11.13,11.13,0,0,1,4.129.725,9.771,9.771,0,0,1,3.163,1.989Zm15.847-4.209a10.4,10.4,0,0,1,3.864.7,8.673,8.673,0,0,1,3.059,2.024,9.228,9.228,0,0,1,2.013,3.266,12.618,12.618,0,0,1,.724,4.427,2.67,2.67,0,0,1-.207,1.288.86.86,0,0,1-.782.322h-15.5a12.863,12.863,0,0,0,.6,3.841,7.854,7.854,0,0,0,1.518,2.726,6.082,6.082,0,0,0,2.3,1.633,7.9,7.9,0,0,0,2.99.541,8.772,8.772,0,0,0,2.656-.357,12.637,12.637,0,0,0,1.921-.771,14.649,14.649,0,0,0,1.345-.771,1.784,1.784,0,0,1,.932-.356.9.9,0,0,1,.782.391l1.15,1.5a7.776,7.776,0,0,1-1.817,1.6,11.314,11.314,0,0,1-2.266,1.116,14.389,14.389,0,0,1-2.5.655,15.243,15.243,0,0,1-2.553.218,11.847,11.847,0,0,1-4.451-.816,9.768,9.768,0,0,1-3.519-2.392,10.974,10.974,0,0,1-2.311-3.9,15.853,15.853,0,0,1-.828-5.336,13.576,13.576,0,0,1,.747-4.554,10.734,10.734,0,0,1,2.151-3.668,9.9,9.9,0,0,1,3.427-2.438A11.25,11.25,0,0,1,397.187,21.333Zm.092,3.013a6.285,6.285,0,0,0-4.669,1.713,8.065,8.065,0,0,0-2.116,4.75h12.673a8.29,8.29,0,0,0-.391-2.611,5.817,5.817,0,0,0-1.15-2.047,5.147,5.147,0,0,0-1.852-1.334A6.244,6.244,0,0,0,397.279,24.346ZM412.068,45V21.7h2.438a1.044,1.044,0,0,1,1.1.851l.322,2.53a13.1,13.1,0,0,1,3.392-2.714,8.823,8.823,0,0,1,4.336-1.035,8.413,8.413,0,0,1,3.369.633,6.519,6.519,0,0,1,2.438,1.794,7.922,7.922,0,0,1,1.483,2.795,12.161,12.161,0,0,1,.506,3.611V45h-4.094V30.165a6.271,6.271,0,0,0-1.207-4.106,4.514,4.514,0,0,0-3.691-1.461,6.882,6.882,0,0,0-3.392.874,11.173,11.173,0,0,0-2.91,2.369V45Zm21.9-23.3h3.358a1.263,1.263,0,0,1,.8.253,1.434,1.434,0,0,1,.46.6l5.911,15A11.377,11.377,0,0,1,445,39.2q.184.828.345,1.633.184-.8.391-1.633a13.807,13.807,0,0,1,.529-1.656l5.98-15a1.365,1.365,0,0,1,.448-.61,1.217,1.217,0,0,1,.771-.241h3.2l-9.5,23.3h-3.7Zm35.121-.368a10.4,10.4,0,0,1,3.864.7,8.673,8.673,0,0,1,3.059,2.024,9.228,9.228,0,0,1,2.013,3.266,12.618,12.618,0,0,1,.724,4.427,2.67,2.67,0,0,1-.207,1.288.86.86,0,0,1-.782.322h-15.5a12.863,12.863,0,0,0,.6,3.841,7.854,7.854,0,0,0,1.518,2.726,6.082,6.082,0,0,0,2.3,1.633,7.9,7.9,0,0,0,2.99.541,8.772,8.772,0,0,0,2.656-.357,12.637,12.637,0,0,0,1.921-.771,14.649,14.649,0,0,0,1.345-.771,1.784,1.784,0,0,1,.932-.356.9.9,0,0,1,.782.391l1.15,1.5a7.776,7.776,0,0,1-1.817,1.6,11.314,11.314,0,0,1-2.266,1.116,14.389,14.389,0,0,1-2.5.655,15.243,15.243,0,0,1-2.553.218,11.847,11.847,0,0,1-4.451-.816,9.768,9.768,0,0,1-3.519-2.392,10.974,10.974,0,0,1-2.311-3.9,15.853,15.853,0,0,1-.828-5.336,13.576,13.576,0,0,1,.747-4.554,10.734,10.734,0,0,1,2.151-3.668,9.9,9.9,0,0,1,3.427-2.438A11.25,11.25,0,0,1,469.085,21.333Zm.092,3.013a6.285,6.285,0,0,0-4.669,1.713,8.065,8.065,0,0,0-2.116,4.75h12.673a8.29,8.29,0,0,0-.391-2.611,5.817,5.817,0,0,0-1.15-2.047,5.147,5.147,0,0,0-1.852-1.334A6.244,6.244,0,0,0,469.177,24.346ZM483.966,45V21.7h2.346a1.3,1.3,0,0,1,.92.253,1.551,1.551,0,0,1,.345.874l.276,3.634a10.657,10.657,0,0,1,2.956-3.806,6.964,6.964,0,0,1,5.876-1.15,6.093,6.093,0,0,1,1.449.609l-.529,3.059a.692.692,0,0,1-.713.575,3.578,3.578,0,0,1-.989-.219,6.238,6.238,0,0,0-1.863-.219,5.277,5.277,0,0,0-3.577,1.242,9.324,9.324,0,0,0-2.4,3.611V45ZM499.56,21.7h3.358a1.263,1.263,0,0,1,.8.253,1.434,1.434,0,0,1,.46.6l5.911,15A11.377,11.377,0,0,1,510.6,39.2q.184.828.345,1.633.184-.8.391-1.633a13.807,13.807,0,0,1,.529-1.656l5.98-15a1.365,1.365,0,0,1,.449-.61,1.217,1.217,0,0,1,.77-.241h3.2l-9.5,23.3h-3.7Zm35.328-.368a11.967,11.967,0,0,1,4.611.851A9.723,9.723,0,0,1,543,24.6a10.692,10.692,0,0,1,2.208,3.784,15.044,15.044,0,0,1,.771,4.957,15.017,15.017,0,0,1-.771,4.968A10.708,10.708,0,0,1,543,42.079a9.6,9.6,0,0,1-3.5,2.4,13.085,13.085,0,0,1-9.223,0,9.711,9.711,0,0,1-3.508-2.4,10.753,10.753,0,0,1-2.231-3.772,14.816,14.816,0,0,1-.782-4.968,14.843,14.843,0,0,1,.782-4.957,10.735,10.735,0,0,1,2.231-3.784,9.835,9.835,0,0,1,3.508-2.415A11.967,11.967,0,0,1,534.888,21.333Zm0,20.792a5.981,5.981,0,0,0,5.152-2.312,10.7,10.7,0,0,0,1.7-6.451,10.8,10.8,0,0,0-1.7-6.486,5.969,5.969,0,0,0-5.152-2.323,7.15,7.15,0,0,0-3.036.6,5.682,5.682,0,0,0-2.151,1.725,7.662,7.662,0,0,0-1.288,2.771,14.858,14.858,0,0,0-.425,3.715,14.72,14.72,0,0,0,.425,3.7,7.548,7.548,0,0,0,1.288,2.749,5.727,5.727,0,0,0,2.151,1.714A7.15,7.15,0,0,0,534.888,42.125Zm20.7-31V45h-4.094V11.121ZM570.653,21.31a11.588,11.588,0,0,1,2.841.333,8.934,8.934,0,0,1,2.4.977h6.325v1.518q0,.759-.966.966l-2.645.368a7.085,7.085,0,0,1,.782,3.335,7.17,7.17,0,0,1-.655,3.094,7.017,7.017,0,0,1-1.817,2.381,8.156,8.156,0,0,1-2.76,1.518,11.109,11.109,0,0,1-3.508.529,11.786,11.786,0,0,1-3.082-.391,3.872,3.872,0,0,0-1.116.989,1.78,1.78,0,0,0-.379,1.035,1.393,1.393,0,0,0,.667,1.254,4.742,4.742,0,0,0,1.771.61,19.2,19.2,0,0,0,2.507.23q1.4.046,2.864.149a26.8,26.8,0,0,1,2.864.357,8.763,8.763,0,0,1,2.507.828,4.365,4.365,0,0,1,2.438,4.209,6.089,6.089,0,0,1-.747,2.9,7.841,7.841,0,0,1-2.151,2.5,11.082,11.082,0,0,1-3.427,1.748,14.826,14.826,0,0,1-4.577.656,17.66,17.66,0,0,1-4.474-.506,10.462,10.462,0,0,1-3.185-1.357,5.913,5.913,0,0,1-1.9-1.967,4.667,4.667,0,0,1-.632-2.334,4.215,4.215,0,0,1,1.092-2.932,7.494,7.494,0,0,1,3-1.921,4.115,4.115,0,0,1-1.576-1.23,3.314,3.314,0,0,1-.587-2.058,3.24,3.24,0,0,1,.184-1.047,4.116,4.116,0,0,1,.564-1.069A6.023,6.023,0,0,1,565.5,35.11a7.25,7.25,0,0,1-2.7-2.564,7.021,7.021,0,0,1-.977-3.738,7.17,7.17,0,0,1,.655-3.094,6.84,6.84,0,0,1,1.829-2.369,8.363,8.363,0,0,1,2.794-1.506A11.4,11.4,0,0,1,570.653,21.31Zm7.268,24.955a2,2,0,0,0-.483-1.4,3.119,3.119,0,0,0-1.311-.816,9.514,9.514,0,0,0-1.909-.426q-1.081-.138-2.277-.2T569.5,43.3a22.43,22.43,0,0,1-2.369-.253,6.721,6.721,0,0,0-2.128,1.518,3.069,3.069,0,0,0-.817,2.139,2.813,2.813,0,0,0,.4,1.46,3.431,3.431,0,0,0,1.23,1.173,7.2,7.2,0,0,0,2.082.782,15.1,15.1,0,0,0,5.922-.012,7.45,7.45,0,0,0,2.219-.851,4.178,4.178,0,0,0,1.392-1.311A3.064,3.064,0,0,0,577.921,46.265Zm-7.268-12.65a6.445,6.445,0,0,0,2.2-.345,4.44,4.44,0,0,0,1.6-.966,3.951,3.951,0,0,0,.966-1.484,5.387,5.387,0,0,0,.322-1.9,4.532,4.532,0,0,0-1.3-3.4,6.256,6.256,0,0,0-7.544,0,4.532,4.532,0,0,0-1.3,3.4,5.219,5.219,0,0,0,.333,1.9A4.073,4.073,0,0,0,566.9,32.3a4.456,4.456,0,0,0,1.587.966A6.271,6.271,0,0,0,570.653,33.615ZM590.87,21.7V45h-4.094V21.7Zm.92-7.314a2.606,2.606,0,0,1-.241,1.115,3.212,3.212,0,0,1-.644.92,2.992,2.992,0,0,1-.931.632,2.8,2.8,0,0,1-1.127.23,2.715,2.715,0,0,1-1.115-.23,3.066,3.066,0,0,1-1.553-1.552,2.715,2.715,0,0,1-.23-1.115,2.878,2.878,0,0,1,.23-1.139,2.957,2.957,0,0,1,.633-.943,3.033,3.033,0,0,1,.92-.632,2.715,2.715,0,0,1,1.115-.23,2.8,2.8,0,0,1,1.127.23,2.991,2.991,0,0,1,.931.632,3.119,3.119,0,0,1,.644.943A2.761,2.761,0,0,1,591.79,14.387ZM598.092,45V21.7h2.438a1.044,1.044,0,0,1,1.1.851l.322,2.53a13.1,13.1,0,0,1,3.393-2.714,8.823,8.823,0,0,1,4.336-1.035,8.413,8.413,0,0,1,3.37.633,6.519,6.519,0,0,1,2.438,1.794,7.923,7.923,0,0,1,1.484,2.795,12.161,12.161,0,0,1,.506,3.611V45h-4.094V30.165a6.271,6.271,0,0,0-1.208-4.106,4.514,4.514,0,0,0-3.691-1.461,6.882,6.882,0,0,0-3.393.874,11.172,11.172,0,0,0-2.909,2.369V45Zm33.419-23.69a11.588,11.588,0,0,1,2.841.333,8.934,8.934,0,0,1,2.4.977h6.325v1.518q0,.759-.966.966l-2.645.368a7.085,7.085,0,0,1,.782,3.335A7.17,7.17,0,0,1,639.6,31.9a7.017,7.017,0,0,1-1.817,2.381,8.156,8.156,0,0,1-2.76,1.518,11.109,11.109,0,0,1-3.508.529,11.786,11.786,0,0,1-3.082-.391,3.872,3.872,0,0,0-1.116.989,1.78,1.78,0,0,0-.379,1.035,1.393,1.393,0,0,0,.667,1.254,4.742,4.742,0,0,0,1.771.61,19.2,19.2,0,0,0,2.507.23q1.4.046,2.863.149a26.8,26.8,0,0,1,2.864.357,8.763,8.763,0,0,1,2.507.828,4.365,4.365,0,0,1,2.438,4.209,6.089,6.089,0,0,1-.748,2.9,7.841,7.841,0,0,1-2.15,2.5,11.082,11.082,0,0,1-3.427,1.748,14.826,14.826,0,0,1-4.577.656,17.66,17.66,0,0,1-4.474-.506,10.462,10.462,0,0,1-3.185-1.357,5.913,5.913,0,0,1-1.9-1.967,4.667,4.667,0,0,1-.632-2.334,4.215,4.215,0,0,1,1.092-2.932,7.494,7.494,0,0,1,3-1.921,4.115,4.115,0,0,1-1.576-1.23,3.314,3.314,0,0,1-.587-2.058,3.24,3.24,0,0,1,.184-1.047,4.116,4.116,0,0,1,.564-1.069,6.023,6.023,0,0,1,2.219-1.863,7.25,7.25,0,0,1-2.7-2.564,7.021,7.021,0,0,1-.977-3.738,7.17,7.17,0,0,1,.655-3.094,6.84,6.84,0,0,1,1.829-2.369,8.363,8.363,0,0,1,2.794-1.506A11.4,11.4,0,0,1,631.511,21.31Zm7.268,24.955a2,2,0,0,0-.483-1.4,3.119,3.119,0,0,0-1.311-.816,9.514,9.514,0,0,0-1.909-.426q-1.081-.138-2.277-.2t-2.438-.126a22.43,22.43,0,0,1-2.369-.253,6.721,6.721,0,0,0-2.128,1.518,3.069,3.069,0,0,0-.817,2.139,2.813,2.813,0,0,0,.4,1.46,3.431,3.431,0,0,0,1.23,1.173,7.2,7.2,0,0,0,2.082.782,15.1,15.1,0,0,0,5.922-.012,7.45,7.45,0,0,0,2.219-.851,4.178,4.178,0,0,0,1.392-1.311A3.064,3.064,0,0,0,638.779,46.265Zm-7.268-12.65a6.445,6.445,0,0,0,2.2-.345,4.44,4.44,0,0,0,1.6-.966,3.951,3.951,0,0,0,.966-1.484,5.387,5.387,0,0,0,.322-1.9,4.532,4.532,0,0,0-1.3-3.4,6.256,6.256,0,0,0-7.544,0,4.532,4.532,0,0,0-1.3,3.4,5.219,5.219,0,0,0,.333,1.9,4.073,4.073,0,0,0,.978,1.484,4.456,4.456,0,0,0,1.587.966A6.271,6.271,0,0,0,631.511,33.615ZM656.4,21.333a10.4,10.4,0,0,1,3.864.7,8.674,8.674,0,0,1,3.059,2.024,9.227,9.227,0,0,1,2.012,3.266,12.617,12.617,0,0,1,.725,4.427,2.67,2.67,0,0,1-.207,1.288.86.86,0,0,1-.782.322h-15.5a12.865,12.865,0,0,0,.6,3.841,7.854,7.854,0,0,0,1.518,2.726,6.082,6.082,0,0,0,2.3,1.633,7.9,7.9,0,0,0,2.99.541,8.771,8.771,0,0,0,2.656-.357,12.64,12.64,0,0,0,1.92-.771,14.641,14.641,0,0,0,1.346-.771,1.784,1.784,0,0,1,.932-.356.9.9,0,0,1,.782.391l1.15,1.5a7.778,7.778,0,0,1-1.817,1.6,11.313,11.313,0,0,1-2.266,1.116,14.39,14.39,0,0,1-2.5.655,15.243,15.243,0,0,1-2.553.218,11.847,11.847,0,0,1-4.451-.816,9.768,9.768,0,0,1-3.519-2.392,10.972,10.972,0,0,1-2.311-3.9,15.853,15.853,0,0,1-.828-5.336,13.575,13.575,0,0,1,.747-4.554,10.734,10.734,0,0,1,2.15-3.668,9.9,9.9,0,0,1,3.427-2.438A11.25,11.25,0,0,1,656.4,21.333Zm.092,3.013a6.285,6.285,0,0,0-4.669,1.713,8.065,8.065,0,0,0-2.116,4.75h12.673a8.289,8.289,0,0,0-.391-2.611,5.817,5.817,0,0,0-1.15-2.047,5.148,5.148,0,0,0-1.852-1.334A6.245,6.245,0,0,0,656.489,24.346ZM671.278,45V21.7h2.438a1.044,1.044,0,0,1,1.1.851l.322,2.53a13.1,13.1,0,0,1,3.393-2.714,8.823,8.823,0,0,1,4.336-1.035,8.413,8.413,0,0,1,3.37.633,6.519,6.519,0,0,1,2.438,1.794,7.923,7.923,0,0,1,1.484,2.795,12.161,12.161,0,0,1,.506,3.611V45h-4.094V30.165a6.271,6.271,0,0,0-1.208-4.106,4.514,4.514,0,0,0-3.691-1.461,6.882,6.882,0,0,0-3.393.874,11.172,11.172,0,0,0-2.909,2.369V45Zm34.454,0V21.7h2.438a1.044,1.044,0,0,1,1.1.851l.322,2.53a13.1,13.1,0,0,1,3.393-2.714,8.823,8.823,0,0,1,4.336-1.035,8.413,8.413,0,0,1,3.37.633,6.519,6.519,0,0,1,2.438,1.794,7.923,7.923,0,0,1,1.484,2.795,12.161,12.161,0,0,1,.506,3.611V45h-4.094V30.165a6.271,6.271,0,0,0-1.208-4.106,4.514,4.514,0,0,0-3.691-1.461,6.882,6.882,0,0,0-3.393.874,11.172,11.172,0,0,0-2.909,2.369V45Zm42.688,0H746.6a2.168,2.168,0,0,1-.966-.184,1.018,1.018,0,0,1-.483-.782l-.46-2.162q-.92.828-1.794,1.483a10.269,10.269,0,0,1-1.84,1.1,9.534,9.534,0,0,1-2.058.679,11.806,11.806,0,0,1-2.427.23,8.283,8.283,0,0,1-2.542-.38,5.794,5.794,0,0,1-2.058-1.139,5.421,5.421,0,0,1-1.392-1.92,6.712,6.712,0,0,1-.517-2.749,5.127,5.127,0,0,1,.759-2.657,6.67,6.67,0,0,1,2.45-2.265,15.958,15.958,0,0,1,4.427-1.621,33.731,33.731,0,0,1,6.693-.725V30.1a6.272,6.272,0,0,0-1.161-4.106,4.224,4.224,0,0,0-3.439-1.392,7.289,7.289,0,0,0-2.518.379,9.534,9.534,0,0,0-1.771.851q-.748.471-1.288.851a1.858,1.858,0,0,1-1.07.38,1.227,1.227,0,0,1-.724-.219,1.665,1.665,0,0,1-.495-.541l-.736-1.311a13.3,13.3,0,0,1,4.163-2.783,12.854,12.854,0,0,1,4.945-.92,8.823,8.823,0,0,1,3.473.644,7.122,7.122,0,0,1,2.553,1.794,7.6,7.6,0,0,1,1.564,2.783,11.591,11.591,0,0,1,.529,3.588Zm-10.626-2.507a8.358,8.358,0,0,0,1.978-.219,7.807,7.807,0,0,0,1.69-.621,8.96,8.96,0,0,0,1.518-.978,13.157,13.157,0,0,0,1.414-1.311V34.512a33.832,33.832,0,0,0-4.807.448,13.482,13.482,0,0,0-3.22.931,4.485,4.485,0,0,0-1.806,1.357A2.919,2.919,0,0,0,734,39a3.857,3.857,0,0,0,.3,1.587,3.007,3.007,0,0,0,.8,1.092,3.177,3.177,0,0,0,1.2.621A5.466,5.466,0,0,0,737.794,42.493ZM20.47,100H18.653a2.169,2.169,0,0,1-.966-.184,1.018,1.018,0,0,1-.483-.782l-.46-2.162q-.92.828-1.794,1.483a10.267,10.267,0,0,1-1.84,1.1,9.535,9.535,0,0,1-2.058.678,11.807,11.807,0,0,1-2.427.23,8.283,8.283,0,0,1-2.542-.379A5.794,5.794,0,0,1,4.025,98.85a5.421,5.421,0,0,1-1.391-1.921,6.711,6.711,0,0,1-.518-2.748,5.126,5.126,0,0,1,.759-2.657,6.67,6.67,0,0,1,2.45-2.265,15.958,15.958,0,0,1,4.427-1.622,33.731,33.731,0,0,1,6.693-.724V85.1a6.272,6.272,0,0,0-1.161-4.105A4.223,4.223,0,0,0,11.845,79.6a7.289,7.289,0,0,0-2.518.38,9.533,9.533,0,0,0-1.771.851q-.748.471-1.288.851a1.858,1.858,0,0,1-1.07.38,1.227,1.227,0,0,1-.725-.218,1.665,1.665,0,0,1-.494-.541L3.243,79.99a13.3,13.3,0,0,1,4.163-2.783,12.854,12.854,0,0,1,4.945-.92,8.823,8.823,0,0,1,3.473.644,7.122,7.122,0,0,1,2.553,1.794,7.6,7.6,0,0,1,1.564,2.783A11.591,11.591,0,0,1,20.47,85.1ZM9.844,97.493a8.358,8.358,0,0,0,1.978-.218,7.807,7.807,0,0,0,1.691-.621,8.959,8.959,0,0,0,1.518-.978,13.152,13.152,0,0,0,1.414-1.311V89.512a33.832,33.832,0,0,0-4.807.449,13.483,13.483,0,0,0-3.22.931,4.485,4.485,0,0,0-1.806,1.357A2.919,2.919,0,0,0,6.049,94a3.857,3.857,0,0,0,.3,1.587,3.008,3.008,0,0,0,.8,1.092,3.178,3.178,0,0,0,1.2.621A5.466,5.466,0,0,0,9.844,97.493ZM43.792,100H41.975a2.169,2.169,0,0,1-.966-.184,1.018,1.018,0,0,1-.483-.782l-.46-2.162q-.92.828-1.794,1.483a10.267,10.267,0,0,1-1.84,1.1,9.535,9.535,0,0,1-2.058.678,11.807,11.807,0,0,1-2.427.23,8.283,8.283,0,0,1-2.542-.379,5.794,5.794,0,0,1-2.059-1.139,5.421,5.421,0,0,1-1.391-1.921,6.711,6.711,0,0,1-.518-2.748,5.126,5.126,0,0,1,.759-2.657,6.67,6.67,0,0,1,2.449-2.265,15.958,15.958,0,0,1,4.428-1.622,33.731,33.731,0,0,1,6.693-.724V85.1a6.272,6.272,0,0,0-1.161-4.105A4.223,4.223,0,0,0,35.167,79.6a7.289,7.289,0,0,0-2.519.38,9.533,9.533,0,0,0-1.771.851q-.747.471-1.288.851a1.858,1.858,0,0,1-1.069.38,1.227,1.227,0,0,1-.725-.218A1.665,1.665,0,0,1,27.3,81.3l-.736-1.311a13.3,13.3,0,0,1,4.163-2.783,12.854,12.854,0,0,1,4.945-.92,8.823,8.823,0,0,1,3.473.644A7.122,7.122,0,0,1,41.7,78.725a7.6,7.6,0,0,1,1.564,2.783,11.591,11.591,0,0,1,.529,3.588ZM33.166,97.493a8.358,8.358,0,0,0,1.978-.218,7.807,7.807,0,0,0,1.69-.621,8.959,8.959,0,0,0,1.518-.978,13.152,13.152,0,0,0,1.414-1.311V89.512a33.832,33.832,0,0,0-4.807.449,13.483,13.483,0,0,0-3.22.931,4.485,4.485,0,0,0-1.806,1.357A2.919,2.919,0,0,0,29.371,94a3.857,3.857,0,0,0,.3,1.587,3.008,3.008,0,0,0,.805,1.092,3.178,3.178,0,0,0,1.2.621A5.466,5.466,0,0,0,33.166,97.493ZM50,100V76.7H52.44a1.044,1.044,0,0,1,1.1.851l.322,2.53a13.1,13.1,0,0,1,3.392-2.714,8.823,8.823,0,0,1,4.336-1.035,8.413,8.413,0,0,1,3.369.632A6.519,6.519,0,0,1,67.4,78.759a7.923,7.923,0,0,1,1.483,2.795,12.161,12.161,0,0,1,.506,3.611V100H65.3V85.165A6.271,6.271,0,0,0,64.09,81.06,4.514,4.514,0,0,0,60.4,79.6a6.882,6.882,0,0,0-3.393.874,11.172,11.172,0,0,0-2.91,2.369V100Zm50.853,0a1.044,1.044,0,0,1-1.1-.851l-.368-2.829a12.265,12.265,0,0,1-3.415,2.91,8.75,8.75,0,0,1-4.4,1.092,8.41,8.41,0,0,1-3.634-.771,7.536,7.536,0,0,1-2.783-2.265,10.791,10.791,0,0,1-1.771-3.726,19.183,19.183,0,0,1-.621-5.129,16.076,16.076,0,0,1,.69-4.8,11.688,11.688,0,0,1,1.99-3.853,9.125,9.125,0,0,1,7.395-3.5,8.431,8.431,0,0,1,3.657.725A8.768,8.768,0,0,1,99.2,79.047V66.121h4.094V100ZM92.92,97.01a6.6,6.6,0,0,0,3.507-.92,10.111,10.111,0,0,0,2.771-2.6V82.221a6.478,6.478,0,0,0-2.472-2.128,7.135,7.135,0,0,0-2.979-.609,5.9,5.9,0,0,0-5.014,2.323,10.85,10.85,0,0,0-1.748,6.624,16.843,16.843,0,0,0,.391,3.9A7.5,7.5,0,0,0,88.527,95a4.519,4.519,0,0,0,1.863,1.53A6.258,6.258,0,0,0,92.92,97.01Zm26.473-20.677a10.4,10.4,0,0,1,3.864.7,8.673,8.673,0,0,1,3.059,2.024,9.227,9.227,0,0,1,2.012,3.266,12.618,12.618,0,0,1,.725,4.427,2.67,2.67,0,0,1-.207,1.288.86.86,0,0,1-.782.322h-15.5a12.863,12.863,0,0,0,.6,3.841,7.854,7.854,0,0,0,1.518,2.725,6.082,6.082,0,0,0,2.3,1.633,7.9,7.9,0,0,0,2.99.54,8.772,8.772,0,0,0,2.657-.356,12.638,12.638,0,0,0,1.921-.771,14.65,14.65,0,0,0,1.345-.771,1.784,1.784,0,0,1,.932-.356.9.9,0,0,1,.782.391l1.15,1.5a7.776,7.776,0,0,1-1.817,1.6,11.313,11.313,0,0,1-2.266,1.116,14.389,14.389,0,0,1-2.5.656,15.242,15.242,0,0,1-2.553.218,11.847,11.847,0,0,1-4.45-.816,9.768,9.768,0,0,1-3.519-2.392,10.973,10.973,0,0,1-2.312-3.9,15.853,15.853,0,0,1-.828-5.336,13.576,13.576,0,0,1,.747-4.554,10.734,10.734,0,0,1,2.15-3.668,9.9,9.9,0,0,1,3.427-2.438A11.25,11.25,0,0,1,119.393,76.333Zm.092,3.013a6.285,6.285,0,0,0-4.669,1.714,8.065,8.065,0,0,0-2.116,4.749h12.673a8.29,8.29,0,0,0-.391-2.61,5.817,5.817,0,0,0-1.15-2.047,5.147,5.147,0,0,0-1.852-1.334A6.244,6.244,0,0,0,119.485,79.346ZM143.152,100V66.121h4.094V79.829a12.573,12.573,0,0,1,3.312-2.542,8.87,8.87,0,0,1,4.186-.954,8.413,8.413,0,0,1,3.37.632,6.519,6.519,0,0,1,2.438,1.794,7.923,7.923,0,0,1,1.483,2.795,12.161,12.161,0,0,1,.506,3.611V100h-4.094V85.165a6.271,6.271,0,0,0-1.208-4.105,4.514,4.514,0,0,0-3.691-1.461,6.882,6.882,0,0,0-3.393.874,11.172,11.172,0,0,0-2.91,2.369V100Zm42.688,0h-1.817a2.169,2.169,0,0,1-.966-.184,1.018,1.018,0,0,1-.483-.782l-.46-2.162q-.92.828-1.794,1.483a10.267,10.267,0,0,1-1.84,1.1,9.535,9.535,0,0,1-2.059.678,11.807,11.807,0,0,1-2.426.23,8.283,8.283,0,0,1-2.542-.379,5.794,5.794,0,0,1-2.059-1.139A5.421,5.421,0,0,1,168,96.929a6.711,6.711,0,0,1-.518-2.748,5.126,5.126,0,0,1,.759-2.657,6.67,6.67,0,0,1,2.449-2.265,15.958,15.958,0,0,1,4.428-1.622,33.731,33.731,0,0,1,6.693-.724V85.1a6.272,6.272,0,0,0-1.162-4.105,4.223,4.223,0,0,0-3.438-1.392,7.289,7.289,0,0,0-2.518.38,9.533,9.533,0,0,0-1.771.851q-.748.471-1.288.851a1.858,1.858,0,0,1-1.07.38,1.227,1.227,0,0,1-.725-.218,1.665,1.665,0,0,1-.494-.541l-.736-1.311a13.305,13.305,0,0,1,4.163-2.783,12.853,12.853,0,0,1,4.945-.92,8.823,8.823,0,0,1,3.473.644,7.122,7.122,0,0,1,2.553,1.794,7.6,7.6,0,0,1,1.564,2.783,11.59,11.59,0,0,1,.529,3.588Zm-10.626-2.507a8.358,8.358,0,0,0,1.978-.218,7.807,7.807,0,0,0,1.69-.621,8.958,8.958,0,0,0,1.518-.978,13.152,13.152,0,0,0,1.415-1.311V89.512a33.832,33.832,0,0,0-4.807.449,13.483,13.483,0,0,0-3.22.931,4.485,4.485,0,0,0-1.805,1.357A2.919,2.919,0,0,0,171.419,94a3.857,3.857,0,0,0,.3,1.587,3.008,3.008,0,0,0,.8,1.092,3.177,3.177,0,0,0,1.2.621A5.466,5.466,0,0,0,175.214,97.493ZM192.05,100V76.7h2.438a1.044,1.044,0,0,1,1.1.851l.322,2.53a13.1,13.1,0,0,1,3.393-2.714,8.823,8.823,0,0,1,4.335-1.035,8.413,8.413,0,0,1,3.37.632,6.519,6.519,0,0,1,2.438,1.794,7.923,7.923,0,0,1,1.484,2.795,12.161,12.161,0,0,1,.506,3.611V100h-4.094V85.165a6.271,6.271,0,0,0-1.208-4.105,4.514,4.514,0,0,0-3.691-1.461,6.882,6.882,0,0,0-3.393.874,11.172,11.172,0,0,0-2.91,2.369V100Zm41.975,0a1.044,1.044,0,0,1-1.1-.851l-.368-2.829a12.265,12.265,0,0,1-3.415,2.91,8.75,8.75,0,0,1-4.4,1.092,8.41,8.41,0,0,1-3.634-.771,7.536,7.536,0,0,1-2.783-2.265,10.791,10.791,0,0,1-1.771-3.726,19.183,19.183,0,0,1-.621-5.129,16.076,16.076,0,0,1,.69-4.8,11.688,11.688,0,0,1,1.99-3.853,9.125,9.125,0,0,1,7.395-3.5,8.43,8.43,0,0,1,3.657.725,8.768,8.768,0,0,1,2.714,2.035V66.121h4.094V100Zm-7.935-2.99a6.6,6.6,0,0,0,3.507-.92,10.111,10.111,0,0,0,2.771-2.6V82.221a6.478,6.478,0,0,0-2.473-2.128,7.135,7.135,0,0,0-2.979-.609,5.9,5.9,0,0,0-5.014,2.323,10.85,10.85,0,0,0-1.748,6.624,16.843,16.843,0,0,0,.391,3.9A7.5,7.5,0,0,0,221.7,95a4.519,4.519,0,0,0,1.863,1.53A6.258,6.258,0,0,0,226.09,97.01ZM249.274,76.7h3.358a1.263,1.263,0,0,1,.8.253,1.434,1.434,0,0,1,.46.6l5.911,15a11.373,11.373,0,0,1,.506,1.656q.184.828.345,1.633.184-.805.391-1.633a13.8,13.8,0,0,1,.529-1.656l5.98-15a1.365,1.365,0,0,1,.449-.61,1.217,1.217,0,0,1,.771-.241h3.2l-9.5,23.3h-3.7ZM292.882,100h-1.817a2.169,2.169,0,0,1-.966-.184,1.018,1.018,0,0,1-.483-.782l-.46-2.162q-.92.828-1.794,1.483a10.267,10.267,0,0,1-1.84,1.1,9.534,9.534,0,0,1-2.058.678,11.807,11.807,0,0,1-2.427.23,8.283,8.283,0,0,1-2.542-.379,5.794,5.794,0,0,1-2.059-1.139,5.421,5.421,0,0,1-1.391-1.921,6.711,6.711,0,0,1-.518-2.748,5.126,5.126,0,0,1,.759-2.657,6.67,6.67,0,0,1,2.449-2.265,15.958,15.958,0,0,1,4.428-1.622,33.731,33.731,0,0,1,6.693-.724V85.1a6.272,6.272,0,0,0-1.161-4.105,4.223,4.223,0,0,0-3.439-1.392,7.289,7.289,0,0,0-2.518.38,9.532,9.532,0,0,0-1.771.851q-.747.471-1.288.851a1.858,1.858,0,0,1-1.069.38,1.227,1.227,0,0,1-.724-.218,1.664,1.664,0,0,1-.495-.541l-.736-1.311a13.3,13.3,0,0,1,4.163-2.783,12.854,12.854,0,0,1,4.945-.92,8.823,8.823,0,0,1,3.473.644,7.122,7.122,0,0,1,2.553,1.794,7.6,7.6,0,0,1,1.564,2.783,11.591,11.591,0,0,1,.529,3.588Zm-10.626-2.507a8.358,8.358,0,0,0,1.978-.218,7.808,7.808,0,0,0,1.691-.621,8.959,8.959,0,0,0,1.518-.978,13.151,13.151,0,0,0,1.415-1.311V89.512a33.832,33.832,0,0,0-4.807.449,13.483,13.483,0,0,0-3.22.931,4.485,4.485,0,0,0-1.806,1.357A2.919,2.919,0,0,0,278.461,94a3.857,3.857,0,0,0,.3,1.587,3.008,3.008,0,0,0,.805,1.092,3.177,3.177,0,0,0,1.2.621A5.466,5.466,0,0,0,282.256,97.493ZM299.092,100V76.7h2.438a1.044,1.044,0,0,1,1.1.851l.322,2.53a13.1,13.1,0,0,1,3.393-2.714,8.823,8.823,0,0,1,4.336-1.035,8.413,8.413,0,0,1,3.369.632,6.519,6.519,0,0,1,2.438,1.794,7.923,7.923,0,0,1,1.483,2.795,12.161,12.161,0,0,1,.506,3.611V100h-4.094V85.165a6.271,6.271,0,0,0-1.208-4.105,4.514,4.514,0,0,0-3.691-1.461,6.882,6.882,0,0,0-3.392.874,11.173,11.173,0,0,0-2.91,2.369V100Zm43.677-23.667a10.4,10.4,0,0,1,3.864.7,8.673,8.673,0,0,1,3.059,2.024,9.227,9.227,0,0,1,2.013,3.266,12.618,12.618,0,0,1,.724,4.427,2.67,2.67,0,0,1-.207,1.288.86.86,0,0,1-.782.322h-15.5a12.863,12.863,0,0,0,.6,3.841,7.854,7.854,0,0,0,1.518,2.725,6.082,6.082,0,0,0,2.3,1.633,7.9,7.9,0,0,0,2.99.54A8.772,8.772,0,0,0,346,96.745a12.637,12.637,0,0,0,1.921-.771,14.65,14.65,0,0,0,1.345-.771,1.784,1.784,0,0,1,.932-.356.9.9,0,0,1,.782.391l1.15,1.5a7.775,7.775,0,0,1-1.817,1.6,11.314,11.314,0,0,1-2.266,1.116,14.389,14.389,0,0,1-2.5.656,15.242,15.242,0,0,1-2.553.218,11.847,11.847,0,0,1-4.451-.816,9.768,9.768,0,0,1-3.519-2.392,10.974,10.974,0,0,1-2.311-3.9,15.853,15.853,0,0,1-.828-5.336,13.576,13.576,0,0,1,.747-4.554,10.734,10.734,0,0,1,2.151-3.668,9.9,9.9,0,0,1,3.427-2.438A11.25,11.25,0,0,1,342.769,76.333Zm.092,3.013a6.285,6.285,0,0,0-4.669,1.714,8.065,8.065,0,0,0-2.116,4.749h12.673a8.29,8.29,0,0,0-.391-2.61,5.817,5.817,0,0,0-1.15-2.047,5.147,5.147,0,0,0-1.852-1.334A6.244,6.244,0,0,0,342.861,79.346Zm24.012-3.013a10.4,10.4,0,0,1,3.864.7,8.673,8.673,0,0,1,3.059,2.024,9.227,9.227,0,0,1,2.013,3.266,12.618,12.618,0,0,1,.724,4.427,2.67,2.67,0,0,1-.207,1.288.86.86,0,0,1-.782.322h-15.5a12.863,12.863,0,0,0,.6,3.841,7.854,7.854,0,0,0,1.518,2.725,6.082,6.082,0,0,0,2.3,1.633,7.9,7.9,0,0,0,2.99.54,8.772,8.772,0,0,0,2.656-.356,12.637,12.637,0,0,0,1.921-.771,14.65,14.65,0,0,0,1.345-.771,1.784,1.784,0,0,1,.932-.356.9.9,0,0,1,.782.391l1.15,1.5a7.775,7.775,0,0,1-1.817,1.6,11.314,11.314,0,0,1-2.266,1.116,14.389,14.389,0,0,1-2.5.656,15.242,15.242,0,0,1-2.553.218,11.847,11.847,0,0,1-4.451-.816,9.768,9.768,0,0,1-3.519-2.392,10.974,10.974,0,0,1-2.311-3.9,15.853,15.853,0,0,1-.828-5.336,13.576,13.576,0,0,1,.747-4.554,10.734,10.734,0,0,1,2.151-3.668,9.9,9.9,0,0,1,3.427-2.438A11.25,11.25,0,0,1,366.873,76.333Zm.092,3.013A6.285,6.285,0,0,0,362.3,81.06a8.065,8.065,0,0,0-2.116,4.749h12.673a8.29,8.29,0,0,0-.391-2.61,5.817,5.817,0,0,0-1.15-2.047,5.147,5.147,0,0,0-1.852-1.334A6.244,6.244,0,0,0,366.965,79.346ZM381.754,100V76.7h2.438a1.044,1.044,0,0,1,1.1.851l.322,2.53a13.1,13.1,0,0,1,3.393-2.714,8.823,8.823,0,0,1,4.336-1.035,8.413,8.413,0,0,1,3.369.632,6.519,6.519,0,0,1,2.438,1.794,7.923,7.923,0,0,1,1.483,2.795,12.161,12.161,0,0,1,.506,3.611V100h-4.094V85.165a6.271,6.271,0,0,0-1.208-4.105A4.514,4.514,0,0,0,392.15,79.6a6.882,6.882,0,0,0-3.392.874,11.173,11.173,0,0,0-2.91,2.369V100Zm47.058,0h-6.486L413.08,76.149h5.934a2.2,2.2,0,0,1,1.276.356,1.776,1.776,0,0,1,.7.885L424.3,88.086q.391,1.311.747,2.553t.609,2.484q.253-1.242.621-2.484t.782-2.553l3.45-10.695a1.794,1.794,0,0,1,.69-.885,2.023,2.023,0,0,1,1.2-.356h5.658ZM450.34,75.781a12.281,12.281,0,0,1,4.335.736,9.425,9.425,0,0,1,3.381,2.139,9.763,9.763,0,0,1,2.208,3.438,12.618,12.618,0,0,1,.793,4.612,10.068,10.068,0,0,1-.069,1.311,2.075,2.075,0,0,1-.253.805.963.963,0,0,1-.495.414,2.316,2.316,0,0,1-.794.115H445.694a6.724,6.724,0,0,0,1.817,4.336,5.406,5.406,0,0,0,3.795,1.345,6.793,6.793,0,0,0,2.139-.3,10.792,10.792,0,0,0,1.6-.667q.7-.368,1.288-.667a2.674,2.674,0,0,1,1.23-.3,1.474,1.474,0,0,1,1.288.621l2.07,2.553a10.6,10.6,0,0,1-2.38,2.058,12.371,12.371,0,0,1-2.622,1.242,14.212,14.212,0,0,1-2.691.621,20.194,20.194,0,0,1-2.564.172,13.39,13.39,0,0,1-4.7-.816,10.808,10.808,0,0,1-3.841-2.426,11.449,11.449,0,0,1-2.6-4,14.954,14.954,0,0,1-.954-5.566,12.6,12.6,0,0,1,.816-4.531,11.007,11.007,0,0,1,6.049-6.3A12.222,12.222,0,0,1,450.34,75.781Zm.138,4.922a4.3,4.3,0,0,0-3.2,1.161,6.052,6.052,0,0,0-1.518,3.346h8.9a6.294,6.294,0,0,0-.219-1.656,4.014,4.014,0,0,0-.713-1.437,3.628,3.628,0,0,0-1.3-1.023A4.444,4.444,0,0,0,450.478,80.7ZM465.152,100V76.149h4.232a3.609,3.609,0,0,1,.885.092,1.553,1.553,0,0,1,.6.288,1.227,1.227,0,0,1,.368.517,4.668,4.668,0,0,1,.219.782l.391,2.231a11.688,11.688,0,0,1,2.944-3.2,5.982,5.982,0,0,1,3.565-1.173,4.107,4.107,0,0,1,2.622.782l-.92,5.244a1.024,1.024,0,0,1-.368.679,1.249,1.249,0,0,1-.736.2,4.882,4.882,0,0,1-.92-.1,7.132,7.132,0,0,0-1.334-.1q-2.806,0-4.416,2.99V100Zm27.37.368a8.408,8.408,0,0,1-3-.494,5.791,5.791,0,0,1-3.53-3.6,8.5,8.5,0,0,1-.46-2.875V81.071h-2.024a1.286,1.286,0,0,1-1.334-1.4V76.885l3.795-.736,1.4-5.819a1.417,1.417,0,0,1,1.564-1.1h3.726v6.969h5.8v4.876h-5.8V92.916a2.229,2.229,0,0,0,.4,1.368,1.36,1.36,0,0,0,1.162.54,2.282,2.282,0,0,0,.655-.08,2.61,2.61,0,0,0,.46-.184q.2-.1.368-.184a.943.943,0,0,1,.4-.081.83.83,0,0,1,.517.15,1.851,1.851,0,0,1,.4.471l2.162,3.381a9.84,9.84,0,0,1-3.105,1.553A12.34,12.34,0,0,1,492.522,100.368Zm20.24-24.587a12.281,12.281,0,0,1,4.336.736,9.425,9.425,0,0,1,3.381,2.139,9.763,9.763,0,0,1,2.208,3.438,12.618,12.618,0,0,1,.793,4.612,10.074,10.074,0,0,1-.069,1.311,2.074,2.074,0,0,1-.253.805.963.963,0,0,1-.495.414,2.316,2.316,0,0,1-.794.115H508.116a6.724,6.724,0,0,0,1.817,4.336,5.406,5.406,0,0,0,3.8,1.345,6.793,6.793,0,0,0,2.139-.3,10.789,10.789,0,0,0,1.6-.667q.7-.368,1.288-.667a2.674,2.674,0,0,1,1.23-.3,1.474,1.474,0,0,1,1.288.621l2.07,2.553a10.6,10.6,0,0,1-2.381,2.058,12.37,12.37,0,0,1-2.622,1.242,14.211,14.211,0,0,1-2.691.621,20.2,20.2,0,0,1-2.565.172,13.39,13.39,0,0,1-4.7-.816,10.808,10.808,0,0,1-3.841-2.426,11.449,11.449,0,0,1-2.6-4,14.954,14.954,0,0,1-.954-5.566,12.6,12.6,0,0,1,.816-4.531,11.007,11.007,0,0,1,6.049-6.3A12.222,12.222,0,0,1,512.762,75.781ZM512.9,80.7a4.3,4.3,0,0,0-3.2,1.161,6.052,6.052,0,0,0-1.518,3.346h8.9a6.293,6.293,0,0,0-.219-1.656,4.015,4.015,0,0,0-.713-1.437,3.628,3.628,0,0,0-1.3-1.023A4.444,4.444,0,0,0,512.9,80.7Zm22.034-15.134V100H527.8V65.569Zm12.88,0v19.3h1.058a2.282,2.282,0,0,0,1.023-.184,1.919,1.919,0,0,0,.679-.667l4.508-6.716a2.458,2.458,0,0,1,.931-.874,3,3,0,0,1,1.369-.276h6.532l-6.164,8.487a6.687,6.687,0,0,1-.954,1.058,7.936,7.936,0,0,1-1.116.828,7.006,7.006,0,0,1,1.794,2.07L564.19,100h-6.44a3.363,3.363,0,0,1-1.391-.265,2.069,2.069,0,0,1-.955-.931L550.9,90.363a1.761,1.761,0,0,0-.667-.747,2.4,2.4,0,0,0-1.035-.173h-1.38V100h-7.13V65.569ZM583.648,100a3.341,3.341,0,0,1-1.53-.276,2.108,2.108,0,0,1-.862-1.15l-.506-1.311q-.9.759-1.725,1.334a10.933,10.933,0,0,1-1.714.978,8.462,8.462,0,0,1-1.886.6,11.607,11.607,0,0,1-2.219.2,9.732,9.732,0,0,1-2.967-.425,6.19,6.19,0,0,1-2.265-1.253,5.511,5.511,0,0,1-1.437-2.059,7.423,7.423,0,0,1-.506-2.84,5.957,5.957,0,0,1,.644-2.6,6.412,6.412,0,0,1,2.231-2.427,14.18,14.18,0,0,1,4.278-1.828,28.7,28.7,0,0,1,6.785-.828V85.1a4.373,4.373,0,0,0-.862-3.024,3.173,3.173,0,0,0-2.449-.932,6.5,6.5,0,0,0-2.07.276,9.306,9.306,0,0,0-1.437.621q-.633.345-1.231.621a3.379,3.379,0,0,1-1.426.276,2.156,2.156,0,0,1-1.254-.356,2.648,2.648,0,0,1-.816-.885l-1.288-2.231a14.5,14.5,0,0,1,4.8-2.84,16.811,16.811,0,0,1,5.646-.932,10.326,10.326,0,0,1,3.9.7,8.39,8.39,0,0,1,2.944,1.955,8.542,8.542,0,0,1,1.852,2.979,10.7,10.7,0,0,1,.644,3.772V100Zm-8.188-4.347a5.657,5.657,0,0,0,2.415-.483,7.357,7.357,0,0,0,2.093-1.564V90.294a23.671,23.671,0,0,0-3.519.368,8.549,8.549,0,0,0-2.185.69,2.644,2.644,0,0,0-1.115.943,2.232,2.232,0,0,0-.31,1.15,2,2,0,0,0,.667,1.714A3.254,3.254,0,0,0,575.46,95.653ZM608.442,100a3.341,3.341,0,0,1-1.53-.276,2.109,2.109,0,0,1-.862-1.15l-.506-1.311q-.9.759-1.725,1.334a10.933,10.933,0,0,1-1.714.978,8.462,8.462,0,0,1-1.886.6,11.607,11.607,0,0,1-2.219.2,9.732,9.732,0,0,1-2.967-.425,6.19,6.19,0,0,1-2.265-1.253,5.511,5.511,0,0,1-1.437-2.059,7.423,7.423,0,0,1-.506-2.84,5.957,5.957,0,0,1,.644-2.6,6.412,6.412,0,0,1,2.231-2.427,14.18,14.18,0,0,1,4.278-1.828,28.7,28.7,0,0,1,6.785-.828V85.1a4.373,4.373,0,0,0-.862-3.024,3.173,3.173,0,0,0-2.449-.932,6.5,6.5,0,0,0-2.07.276,9.306,9.306,0,0,0-1.437.621q-.633.345-1.231.621a3.379,3.379,0,0,1-1.426.276,2.156,2.156,0,0,1-1.254-.356,2.648,2.648,0,0,1-.816-.885l-1.288-2.231a14.5,14.5,0,0,1,4.8-2.84,16.811,16.811,0,0,1,5.646-.932,10.326,10.326,0,0,1,3.9.7,8.39,8.39,0,0,1,2.944,1.955,8.542,8.542,0,0,1,1.852,2.979,10.7,10.7,0,0,1,.644,3.772V100Zm-8.188-4.347a5.657,5.657,0,0,0,2.415-.483,7.357,7.357,0,0,0,2.093-1.564V90.294a23.671,23.671,0,0,0-3.519.368,8.549,8.549,0,0,0-2.185.69,2.644,2.644,0,0,0-1.115.943,2.232,2.232,0,0,0-.31,1.15,2,2,0,0,0,.667,1.714A3.254,3.254,0,0,0,600.254,95.653ZM616.768,100V76.149H621a3.609,3.609,0,0,1,.885.092,1.553,1.553,0,0,1,.6.288,1.227,1.227,0,0,1,.368.517,4.671,4.671,0,0,1,.219.782l.391,2.231a11.687,11.687,0,0,1,2.944-3.2,5.982,5.982,0,0,1,3.565-1.173,4.107,4.107,0,0,1,2.622.782l-.92,5.244a1.024,1.024,0,0,1-.368.679,1.249,1.249,0,0,1-.736.2,4.882,4.882,0,0,1-.92-.1,7.132,7.132,0,0,0-1.334-.1q-2.806,0-4.416,2.99V100Zm27.37.368a8.408,8.408,0,0,1-3-.494,5.791,5.791,0,0,1-3.531-3.6,8.5,8.5,0,0,1-.46-2.875V81.071h-2.024a1.286,1.286,0,0,1-1.334-1.4V76.885l3.8-.736,1.4-5.819a1.417,1.417,0,0,1,1.564-1.1h3.726v6.969h5.8v4.876h-5.8V92.916a2.229,2.229,0,0,0,.4,1.368,1.36,1.36,0,0,0,1.161.54,2.283,2.283,0,0,0,.656-.08,2.609,2.609,0,0,0,.46-.184q.2-.1.368-.184a.943.943,0,0,1,.4-.081.83.83,0,0,1,.518.15,1.851,1.851,0,0,1,.4.471l2.162,3.381a9.84,9.84,0,0,1-3.1,1.553A12.34,12.34,0,0,1,644.138,100.368Zm9.292-2.9a2.922,2.922,0,0,1,.219-1.127,2.891,2.891,0,0,1,.6-.92,2.865,2.865,0,0,1,3.162-.621,2.95,2.95,0,0,1,.92.621,2.794,2.794,0,0,1,.609.92,3.045,3.045,0,0,1,0,2.265,2.826,2.826,0,0,1-.609.909,2.8,2.8,0,0,1-.92.61,3.016,3.016,0,0,1-2.254,0,2.669,2.669,0,0,1-.909-.61,2.881,2.881,0,0,1-.817-2.047Z" transform="translate(1035.338 454)" fill="#1a1a1a"/>
        <g id="Group_12" data-name="Group 12" transform="translate(1001.672 465.549) rotate(90)">
          <g id="Group_9-3" data-name="Group 9" clip-path="url(#clip-path-2)">
            <path id="Path_92-3" data-name="Path 92" d="M32.924,33.672H0V12.807A6.213,6.213,0,0,1,2.851,7.582L13.1.988a6.213,6.213,0,0,1,6.723,0L30.073,7.582a6.213,6.213,0,0,1,2.851,5.225Z" transform="translate(0 0)" fill="#7765b4"/>
          </g>
        </g>
      </g>
    </g>
  </g>
</svg>
