<svg xmlns="http://www.w3.org/2000/svg" width="536.198" height="79.087" viewBox="0 0 536.198 79.087">
  <g id="Group_75" data-name="Group 75" transform="translate(84.318 -1179.596)">
    <g id="Group_73" data-name="Group 73" transform="translate(-84.097 1179.896)">
      <path id="Path_164" data-name="Path 164" d="M15.411,3.2,385.271,1.385s11.7,4.569,12.17,13.6S392.7,47.8,392.7,47.8l-5.285,22.216L106.181,73.621,19.925,75.739,11.1,65.637l-6.453-22.2L.628,23.637l5.252-14Z" transform="translate(0.035 0.808)" fill="#fff"/>
      <path id="Path_170" data-name="Path 170" d="M535.816,21.061c-1.14-4.781-3.99-9.068-7.069-13.281a16.573,16.573,0,0,0-9.12-5.695,42.445,42.445,0,0,0-13.1-1.776c-3.12.137-399.649,1.635-431.289,2,0-.075-.022-.15-.027-.226-3.852.232-45.817,1.287-49.674,1.255A22.811,22.811,0,0,0,15.89,5.154Q13.341,6.385,10.965,7.8a20.95,20.95,0,0,0-8.017,7.138C-.413,20.511,0,26.507,1.078,32.269A75.534,75.534,0,0,0,6.43,49.931a38.821,38.821,0,0,1,2.528,6.82c1.243,5.1,2.677,10.157,5.578,14.9,2.41,3.945,6.189,6.55,12.5,6.847,13.366.629,26.727.249,40.06-.115,22.1-.6,90-1.506,112.087-2.851,9.3-.566,296.708-.746,306.031-.536,9.711.228,19.328-.594,28.958-1.277a11.1,11.1,0,0,0,5.014-2c3.736-2.2,4.49-5.616,5.638-8.668a94.077,94.077,0,0,0,3.86-14.486,120.291,120.291,0,0,1,3.293-12.926c1.229-3.819,3.036-7.532,3.817-11.434a7.239,7.239,0,0,0,.022-3.149m-4.454,3.076c-1.164,3.484-2.177,6.847-3.42,10.167-2.366,6.321-3.363,12.835-5.122,19.241-1.294,4.719-1.831,9.627-5.1,13.96-1.116,1.483-2.858,2.057-5.213,2.3-18.423,1.906-315.174.55-333.581,2.166-12,1.055-119.14,1.6-131.129,2.035-17.28.629,14.841,1.51-2.485,1.245-2.185-.034-2.185-.02-1.975-1.8-2.148,1.322-4.182,2.528-7.029,1.5.851-1,2.817-1.073,3.676-2.528-3.142.871-5.381,2.571-8.714,2.423L38,70.859c-3.806.782-6.329,2.476-9.336,3.442-.894.289-1.885,1.051-2.55.366s1.051-.841,1.383-1.417c.1-.172.243-.337.411-.568-1.426-.552-2.1.4-3.015.748-.659.249-1.21,1.069-2.012.439-.778-.61-.3-1.192.648-1.574.27-.111.421-.38.77-.713-1.634-.354-2.175,1.4-3.857.7L24.315,68.9c-1.586.594-2.62.928-3.574,1.364-.524.238-.759,1.071-1.591.3a.976.976,0,0,1-.059-1.633c.656-.56,1.621-.962,1.551-1.823-1.307-.36-1.975,1.687-3.339.445-1.124-1.029-.74-1.958,1.029-2.486-.551-.843-2.1.307-2.274-.855-.178-1.215,1.345-1.514,2.142-2.191-.219-.152-.313-.273-.446-.3-1.008-.216-1.526,1.366-2.434.556-.935-.843.875-1.061,1.3-1.625.935-1.219,2.307-2.253,3.312-3.634l-5.281,2.48C13.256,55.676,11.784,52,10.6,48.276c-.627-1.974-1.286-3.957-2.034-5.883A84.574,84.574,0,0,1,4.839,28.7,16.236,16.236,0,0,1,10.46,12.31a37.155,37.155,0,0,1,9.606-5.727,9.119,9.119,0,0,1,3.406-.4c4-.123,20.316-.659,44.1-.849l0,.093c3.72,0,435.692-1.958,439.415-1.96,1.172,0,2.5-.3,3.552.511-.689.978-2.723.857-3.05,2.16,2.782.17,4.557-2.031,7.358-1.726.224,1.1-1.5.889-1.742,1.641a1.7,1.7,0,0,0,1.65.04c2.045-1.211,3.944-.479,5.824.18.792.277,1.44.689.154,1.233-.829.352-1.84.574-2.3,1.344,1.3.212,2.188-.521,3.3-.681.621-.093,1.337-.732,1.831.044.424.669-.646.62-1.008.924C521.3,10.2,519,10.237,517.7,11.878c2.661-.818,4.625-2.071,7.4-1.948-.357,1.633-2.723,1.708-3.963,2.835,1.4.1,2.083-.764,3.117-.9.854-.117,1.912-.437,2.38.352.432.725-.783.709-1.24,1.035s-.935.586-1.475.922c.792.321,1.216-.188,1.769-.21.77-.026,1.518-1.1,2.269-.131.664.857-.781.822-1.2,1.229-.267.259-.535.519-.94.909,1.156.133,2.126-.663,3.161-.018-.446,1.56-3.123,1.394-3.979,2.9,1.95.038,3.263-1.12,5-1.318.978,1.54-2.064,1.308-1.983,2.437.989.416,1.991-.75,3.058.065a5.106,5.106,0,0,1-2.193,1.833c.783.723,1.81-.794,2.526.164.24.323-.019.582-.44.814-.759.426-1.44.926-2.691,1.746l3.09-.455" transform="translate(-0.3 -0.3)" fill="#121211"/>
      <path id="Path_171" data-name="Path 171" d="M535.816,21.061c-1.14-4.781-3.99-9.068-7.069-13.281a16.573,16.573,0,0,0-9.12-5.695,42.445,42.445,0,0,0-13.1-1.776c-3.12.137-399.649,1.635-431.289,2,0-.075-.022-.15-.027-.226-3.852.232-45.817,1.287-49.674,1.255A22.811,22.811,0,0,0,15.89,5.154Q13.341,6.385,10.965,7.8a20.95,20.95,0,0,0-8.017,7.138C-.413,20.511,0,26.507,1.078,32.269A75.534,75.534,0,0,0,6.43,49.931a38.821,38.821,0,0,1,2.528,6.82c1.243,5.1,2.677,10.157,5.578,14.9,2.41,3.945,6.189,6.55,12.5,6.847,13.366.629,26.727.249,40.06-.115,22.1-.6,90-1.506,112.087-2.851,9.3-.566,296.708-.746,306.031-.536,9.711.228,19.328-.594,28.958-1.277a11.1,11.1,0,0,0,5.014-2c3.736-2.2,4.49-5.616,5.638-8.668a94.077,94.077,0,0,0,3.86-14.486,120.291,120.291,0,0,1,3.293-12.926c1.229-3.819,3.036-7.532,3.817-11.434a7.239,7.239,0,0,0,.022-3.149m-4.454,3.076c-1.164,3.484-2.177,6.847-3.42,10.167-2.366,6.321-3.363,12.835-5.122,19.241-1.294,4.719-1.831,9.627-5.1,13.96-1.116,1.483-2.858,2.057-5.213,2.3-18.423,1.906-315.174.55-333.581,2.166-12,1.055-119.14,1.6-131.129,2.035-17.28.629,14.841,1.51-2.485,1.245-2.185-.034-2.185-.02-1.975-1.8-2.148,1.322-4.182,2.528-7.029,1.5.851-1,2.817-1.073,3.676-2.528-3.142.871-5.381,2.571-8.714,2.423L38,70.859c-3.806.782-6.329,2.476-9.336,3.442-.894.289-1.885,1.051-2.55.366s1.051-.841,1.383-1.417c.1-.172.243-.337.411-.568-1.426-.552-2.1.4-3.015.748-.659.249-1.21,1.069-2.012.439-.778-.61-.3-1.192.648-1.574.27-.111.421-.38.77-.713-1.634-.354-2.175,1.4-3.857.7L24.315,68.9c-1.586.594-2.62.928-3.574,1.364-.524.238-.759,1.071-1.591.3a.976.976,0,0,1-.059-1.633c.656-.56,1.621-.962,1.551-1.823-1.307-.36-1.975,1.687-3.339.445-1.124-1.029-.74-1.958,1.029-2.486-.551-.843-2.1.307-2.274-.855-.178-1.215,1.345-1.514,2.142-2.191-.219-.152-.313-.273-.446-.3-1.008-.216-1.526,1.366-2.434.556-.935-.843.875-1.061,1.3-1.625.935-1.219,2.307-2.253,3.312-3.634l-5.281,2.48C13.256,55.676,11.784,52,10.6,48.276c-.627-1.974-1.286-3.957-2.034-5.883A84.574,84.574,0,0,1,4.839,28.7,16.236,16.236,0,0,1,10.46,12.31a37.155,37.155,0,0,1,9.606-5.727,9.119,9.119,0,0,1,3.406-.4c4-.123,20.316-.659,44.1-.849l0,.093c3.72,0,435.692-1.958,439.415-1.96,1.172,0,2.5-.3,3.552.511-.689.978-2.723.857-3.05,2.16,2.782.17,4.557-2.031,7.358-1.726.224,1.1-1.5.889-1.742,1.641a1.7,1.7,0,0,0,1.65.04c2.045-1.211,3.944-.479,5.824.18.792.277,1.44.689.154,1.233-.829.352-1.84.574-2.3,1.344,1.3.212,2.188-.521,3.3-.681.621-.093,1.337-.732,1.831.044.424.669-.646.62-1.008.924C521.3,10.2,519,10.237,517.7,11.878c2.661-.818,4.625-2.071,7.4-1.948-.357,1.633-2.723,1.708-3.963,2.835,1.4.1,2.083-.764,3.117-.9.854-.117,1.912-.437,2.38.352.432.725-.783.709-1.24,1.035s-.935.586-1.475.922c.792.321,1.216-.188,1.769-.21.77-.026,1.518-1.1,2.269-.131.664.857-.781.822-1.2,1.229-.267.259-.535.519-.94.909,1.156.133,2.126-.663,3.161-.018-.446,1.56-3.123,1.394-3.979,2.9,1.95.038,3.263-1.12,5-1.318.978,1.54-2.064,1.308-1.983,2.437.989.416,1.991-.75,3.058.065a5.106,5.106,0,0,1-2.193,1.833c.783.723,1.81-.794,2.526.164.24.323-.019.582-.44.814-.759.426-1.44.926-2.691,1.746l3.09-.455" transform="translate(-0.3 -0.3)" fill="none" stroke="#040405" stroke-miterlimit="10" stroke-width="0.6"/>
    </g>
    <path id="Path_204" data-name="Path 204" d="M33.417.188c0-.141-.517-.423-.658-.47A47.315,47.315,0,0,1,25.286-7.52c-.047-1.786-3.854-5.546-4.747-7.191-.188-.376-.188-.893-.423-1.269,3.666-1.269,6.862-5.217,6.862-9.118,0-2.961-1.5-3.29-3.948-4.042l.987-.282c-2.538-2.538-7.144-3.149-10.575-3.149-3.619,0-7.238.047-10.857.094l.282.47a38.128,38.128,0,0,1,3.995.987A23.819,23.819,0,0,1,7-28.435l.752,1.269L7-26.132c0,1.41-.094,2.82-.094,4.183A10.4,10.4,0,0,0,7.52-18.8a10.427,10.427,0,0,0-.705,4.089C6.815-12.5,7-10.293,7-8.084l.893.893c0,.7-.94,1.316-.94,1.974L6.862-2.444c-.94.235-1.551,1.316-2.491,1.41L2.82.141a115.95,115.95,0,0,1,12.126,0L13.395-.7v-.752l-.188-.329A11.421,11.421,0,0,1,11-2.162c.047-.329.094-.235-.094-.47L10.81-7.285c-.047-1.222.517-2.35.517-3.572A1.627,1.627,0,0,0,10.2-12.549l.564-.47.047-.752c.564-1.222,2.068-.893,3.2-.94a27.726,27.726,0,0,1,3.243,1.88c1.081,1.41,1.927,1.269,2.82,3.29l-.047.188C21.385-7.567,22.889-5.217,25-4.23l-.611,1.5A11.8,11.8,0,0,0,32.148.564C32.336.564,33.417.423,33.417.188ZM22.8-24.2c0,1.222-.517,2.4-.47,3.572-1.786,3.384-6.486,4.183-9.964,4.183-2.209,0-1.316-3.149-1.927-4.606a4.426,4.426,0,0,0,.329-2.35c0-.564-.705-1.034-.705-1.6,0-.517.705-.893.705-1.41.047-1.786-.423-2.961,1.786-2.961,1.081,0,2.209.376,3.29.423l.094-1.692C19.411-30.644,22.8-27.824,22.8-24.2Zm48.739,7.1a21.024,21.024,0,0,0-.517-4.371c-.141-.376-1.363-.893-1.5-1.222-.141-.282.658-.94.47-1.222C67.3-29.751,61.147-33.135,54-33.135a21.965,21.965,0,0,0-6.721,1.222c-.188.047.188.376,0,.423-.423.188-2.444.611-2.82.846a17.008,17.008,0,0,0-5.593,5.217c-.141.235.517.7.376.94-.188.329-1.5.846-1.645,1.175A19.074,19.074,0,0,0,36-15.886a17.814,17.814,0,0,0,2.115,8.507c.235.329,1.739.846,2.021,1.128.188.282-.564.94-.329,1.175A17.713,17.713,0,0,0,53.439.752,18.015,18.015,0,0,0,66.458-4.277c.329-.282,0-.752.188-.94.235-.235,1.316-.7,1.6-1.128A17.96,17.96,0,0,0,71.534-17.108Zm-2.961,1.739c0,.376-1.128,1.222-1.175,1.6a17.489,17.489,0,0,1-.752,3.854c-.094.235.517.846.423,1.081-.141.235-1.128.752-1.316.987A12.418,12.418,0,0,1,54.614-.893a12.226,12.226,0,0,1-7.238-2.35c-.423-.235-2.585-.893-3.008-1.175-.235-.188.517-.846.282-1.081a17.451,17.451,0,0,1-2.726-4.277c-.235-.329-1.739-.94-1.88-1.269-.188-.329.94-.846.8-1.175a22.235,22.235,0,0,1-.752-5.264A16.882,16.882,0,0,1,40.42-21.9a18.662,18.662,0,0,1,.8-1.692A11.981,11.981,0,0,1,45.5-29.328c.329-.235.893-.423,1.222-.611a12.64,12.64,0,0,1,6.392-1.6,13.394,13.394,0,0,1,10.246,5.029c.329.282,1.927.8,2.209,1.081.235.282-.611.987-.423,1.269a19.7,19.7,0,0,1,2.256,7.52C67.445-16.309,68.573-15.745,68.573-15.369Zm44.65-17.249-5.452.235-5.734-.235,4.512,1.551L106.69-29l.376,1.175-.235,1.41.141,8.836-.094,4.277.517.987-.47,1.128v5.5l-7.567-9.635L97.2-16.074l.893-.658-4.935-6.3L91.7-24.064l-.235-1.128L89.441-27.73l-1.786-1.316L87.326-30.5l-1.645-2.162-7.849.188L79.9-31.208l2.162.564.141,2.773.94,1.175-.987,1.222-.282,6.956.329,5.076-.329.705L81.78-5.17l.188.94-.329,2.679L77.926.094l6.157-.188,3.29.235L84.694-1.786l-.282-2.961.047-6.2-.611-1.927.658-1.175-.329-5.781-.235-1.41.47-.611v-5.593l.94,1.269.8.376,4.841,6.627,2.679,2.35.8,1.927,5.123,6.016,1.833,2.726L105.139-1.5l2.867,1.88,1.081-.94V-4.418l.235-14.852-.282-.846.517-8.789-.611-.47.705-.517.094-1.222,3.2-.94ZM153.173-18a12.216,12.216,0,0,0-9.682-12.22l.47-.329A28.072,28.072,0,0,0,133.2-32.571c-4.888,0-9.776.611-14.664.7l.282.47c1.034.235,2.115.47,3.149.752l.658,1.927c.188.611,1.363,1.5,1.363,2.021,0,.47-1.222.94-1.175,1.41v6.11l.94,1.034-.94.893c0,2.585-.094,5.123-.094,7.661a10.114,10.114,0,0,0,1.128,5.123L122.764-4l-.047.47-.376,1.269L119.615-.893l-1.034.517c3.713.235,7.473.517,11.233.517,7.849,0,15.134-1.128,20.163-7.755a17.22,17.22,0,0,0,2.162-4.089c0-.423-.329-.8-.423-1.222C153.408-14.241,153.173-16.027,153.173-18Zm-4.183,1.645a15.157,15.157,0,0,1-1.269,6.439l.564.658-1.5.94a12.292,12.292,0,0,1-4.136,4.089l-.047.564a33.437,33.437,0,0,1-9.588,1.927A22.114,22.114,0,0,1,126.9-2.3l-.047-1.269-.846-1.081.752-1.316c-.047-1.739-.047-3.525,0-5.311l-.705-.7.705-.564v-2.256l-.94-1.034.94-1.081v-5.5c0-.8-.282-1.551-.282-2.3a34.085,34.085,0,0,1,.423-3.76c.893-.235,1.222-2.068,2.068-2.068.987-.047,2.021-.047,3.008-.047,5.452,0,9.588,1.88,14.288,4.418l-.423.752C148.285-22.748,148.99-19.881,148.99-16.356ZM180.715-7.05l-.705.423a17.824,17.824,0,0,1-1.551,3.149C177.472-2.3,168.683-2.4,166.8-2.4l-.752-.8c-.094-1.034-.094-2.068-.094-3.1l-.893-.7.846-.893v-7.9l4.277-.047a31.344,31.344,0,0,1,3.807.376l.893.752.47,1.316.893.987.047-2.4a9.388,9.388,0,0,0-.235-1.833,21.877,21.877,0,0,0,.705-4.559l-.47.235c-.141.517-.329.987-.517,1.5-3.2,1.363-4.747,1.269-8.178,1.269-1.551,0-1.974-.752-1.974-2.209A53.463,53.463,0,0,1,166-26.555l-.517-.423.517-.329v-2.35l.423-.376c1.692,0,9.87.188,10.81.987a7.743,7.743,0,0,1,1.363,2.679l.987.188-.376-5.781.188-1.833-.893.094a4.177,4.177,0,0,0-1.316,1.081,55.067,55.067,0,0,1-5.593.235c-2.961,0-5.969-.188-8.977-.188-1.269,0-2.538.423-3.807.423l.282.423c1.833.423,1.551,2.585,2.4,2.773a23,23,0,0,1,1.269,2.162c.235.376.376,0-.846,1.88v6.721c0,.846,1.363,1.081,1.363,1.927,0,.893-1.363,1.128-1.363,2.021,0,3.478.047,6.909-.188,10.34l.423.517a12.67,12.67,0,0,0-1.316.188,17.814,17.814,0,0,0-1.645,2.82A4.629,4.629,0,0,0,160.505,0c2.021,0,14.147-.423,15.04.517.141.564.94.564,1.034,1.128l.705.094c.282-.752,1.88-1.457,2.209-2.256C180.292-2.491,180.245-4.935,180.715-7.05Zm25.568-1.034v-.752a7.348,7.348,0,0,0-.7-3.337c-.141-.329-.611-.611-.846-.8,0-.141.094-.376.047-.517-.376-1.175-2.444-2.726-3.478-3.478a14.151,14.151,0,0,0-2.021-.893l-.8-.188s.282-.517.047-.658a17.028,17.028,0,0,0-2.021-1.128,17.872,17.872,0,0,1-4.277-3.008c-.282-.329-1.034-.752-1.316-1.034.047-.188.376-.47.329-.8a14.392,14.392,0,0,1-.235-1.5c0-3.478,2.914-5.076,6.063-5.076,2.867,0,6.016,1.41,6.486,4.277.611.141.846.188,1.363.329a6.056,6.056,0,0,0,.282-1.175c0-.282-.141-.235-.235-.564-.141-.47-.564-.611-.564-.94,0-.235.141-.752,0-.893-2.021-2.3-3.9-2.914-7.1-2.914a9.417,9.417,0,0,0-6.251,2.4c-.282.282-.94.846-1.175,1.081s.047.564-.094.7c-.329.329-1.128.658-1.316,1.034a7.118,7.118,0,0,0-.752,3.2,7.055,7.055,0,0,0,2.162,5.264,11.372,11.372,0,0,0,2.256,1.175c.047.235-.329.611-.094.846,2.35,2.444,6.674,3.008,9.259,6.157a5.823,5.823,0,0,1,1.41,3.807c0,.846-.094,1.081.517,1.5-.188.282-.846.658-.987.987a5.778,5.778,0,0,1-.658,1.175,7.041,7.041,0,0,1-5.875,2.538,10.253,10.253,0,0,1-6.533-2.4,4.1,4.1,0,0,1-1.457-2.961v-.7l-1.034.094c-.188.564-.611,1.692-.611,1.692a8.136,8.136,0,0,0,.188,1.41c.047.188.141.376.188.517a4.517,4.517,0,0,0,2.35,3.1,14.151,14.151,0,0,0,3.337.94,17.053,17.053,0,0,0,3.055.235,15.122,15.122,0,0,0,5.452-.94,8.589,8.589,0,0,0,4.371-3.666,9.813,9.813,0,0,0,.8-1.927c.047-.141-.611-.94-.705-1.081C205.343-7.238,206.236-7.708,206.283-8.084Zm35.2,8.225L241.2-.376,237.4-1.833l-.188-3.149v-5.687l.047-4-.846-3.149.846-1.316.094-9.964-.8-.47,1.5-.376.893-1.692,2.538-1.034H229.219v.094l.611.846,3.478,1.316.094,2.773.752.564.047,1.457-.752,1.5V-8.037l.658,1.081-.7,1.081-.047,1.363.8,1.269-.846.329L231.24-.987l-1.034.517-.94.611ZM282.94-32.618l-5.452.235-5.734-.235,4.512,1.551L276.407-29l.376,1.175-.235,1.41.141,8.836L276.6-13.3l.517.987-.47,1.128v5.5l-7.567-9.635-2.162-.752.893-.658-4.935-6.3-1.457-1.034-.235-1.128-2.021-2.538-1.786-1.316-.329-1.457L255.4-32.665l-7.849.188,2.068,1.269,2.162.564.141,2.773.94,1.175-.987,1.222-.282,6.956.329,5.076-.329.705L251.5-5.17l.188.94-.329,2.679L247.643.094,253.8-.094l3.29.235-2.679-1.927-.282-2.961.047-6.2-.611-1.927.658-1.175-.329-5.781-.235-1.41.47-.611v-5.593l.94,1.269.8.376,4.841,6.627,2.679,2.35.8,1.927,5.123,6.016,1.833,2.726L274.856-1.5l2.867,1.88,1.081-.94V-4.418l.235-14.852-.282-.846.517-8.789-.611-.47.7-.517.094-1.222,3.2-.94Zm58.844,17.531H329.47l.658.8,3.995,1.269a17.284,17.284,0,0,0,.47,3.619c-.611,1.269-.047,5.17-.8,7.473a18.909,18.909,0,0,1-4.7.658,29.141,29.141,0,0,1-8.413-1.081c-2.914-.752-8.977-2.914-10.622-11.8-.188-.893-.94-1.6-1.081-2.4-.047-.423.893-.517.705-.94a12.424,12.424,0,0,1,.564-3.384c1.833-6.815,9.212-10.246,15.839-10.293,3.008-.047,7.238.7,8.883,3.478.141.235.611,2.256.611,2.256l.329,1.034h1.175l-.376-2.4.329-.987-.329-1.128-.047-.8-.376-4.747-1.175.047a17.321,17.321,0,0,0-.611,2.021c-4.277-1.175-9.682-.705-13.959-.094-1.316.188-6.016,1.927-6.956,2.914l.846.658c-.517.235-1.457.047-1.927.376-5.076,3.2-6.11,6.3-6.2,12.126,0,.188-.47.376-.47.564a17.23,17.23,0,0,0,.8,4.371c.611,2.4.7,3.478,2.021,4.7.329.329,1.786.423,1.786.423l-1.128.846C313.49-.611,319.788.752,325.9.752a32.935,32.935,0,0,0,11.891-1.786,51.745,51.745,0,0,1,.282-10.058l-.752-.94.893-1.222,3.29-1.175ZM377.41.188c0-.141-.517-.423-.658-.47a47.316,47.316,0,0,1-7.473-7.238c-.047-1.786-3.854-5.546-4.747-7.191a13.376,13.376,0,0,0-.423-1.269c3.666-1.269,6.862-5.217,6.862-9.118,0-2.961-1.5-3.29-3.948-4.042l.987-.282c-2.538-2.538-7.144-3.149-10.575-3.149-3.619,0-7.238.047-10.857.094l.282.47a38.128,38.128,0,0,1,3.995.987A23.821,23.821,0,0,1,351-28.435l.752,1.269L351-26.132c0,1.41-.094,2.82-.094,4.183a10.4,10.4,0,0,0,.611,3.149,10.427,10.427,0,0,0-.7,4.089c0,2.209.188,4.418.188,6.627l.893.893c0,.7-.94,1.316-.94,1.974l-.094,2.773c-.94.235-1.551,1.316-2.491,1.41L346.813.141a115.95,115.95,0,0,1,12.126,0L357.388-.7v-.752l-.188-.329a11.422,11.422,0,0,1-2.209-.376c.047-.329.094-.235-.094-.47L354.8-7.285c-.047-1.222.517-2.35.517-3.572a1.627,1.627,0,0,0-1.128-1.692l.564-.47.047-.752c.564-1.222,2.068-.893,3.2-.94a27.726,27.726,0,0,1,3.243,1.88c1.081,1.41,1.927,1.269,2.82,3.29l-.047.188c1.363,1.786,2.867,4.136,4.982,5.123l-.611,1.5a11.8,11.8,0,0,0,7.755,3.29C376.329.564,377.41.423,377.41.188ZM366.788-24.2c0,1.222-.517,2.4-.47,3.572-1.786,3.384-6.486,4.183-9.964,4.183-2.209,0-1.316-3.149-1.927-4.606a4.426,4.426,0,0,0,.329-2.35c0-.564-.7-1.034-.7-1.6,0-.517.7-.893.7-1.41.047-1.786-.423-2.961,1.786-2.961,1.081,0,2.209.376,3.29.423l.094-1.692C363.4-30.644,366.788-27.824,366.788-24.2Zm48.739,7.1a21.023,21.023,0,0,0-.517-4.371c-.141-.376-1.363-.893-1.5-1.222-.141-.282.658-.94.47-1.222-2.679-5.828-8.836-9.212-15.98-9.212a21.965,21.965,0,0,0-6.721,1.222c-.188.047.188.376,0,.423-.423.188-2.444.611-2.82.846a17.008,17.008,0,0,0-5.593,5.217c-.141.235.517.7.376.94-.188.329-1.5.846-1.645,1.175a19.074,19.074,0,0,0-1.6,7.426,17.813,17.813,0,0,0,2.115,8.507c.235.329,1.739.846,2.021,1.128.188.282-.564.94-.329,1.175A17.713,17.713,0,0,0,397.432.752a18.016,18.016,0,0,0,13.019-5.029c.329-.282,0-.752.188-.94.235-.235,1.316-.7,1.6-1.128A17.96,17.96,0,0,0,415.527-17.108Zm-2.961,1.739c0,.376-1.128,1.222-1.175,1.6a17.491,17.491,0,0,1-.752,3.854c-.094.235.517.846.423,1.081-.141.235-1.128.752-1.316.987A12.418,12.418,0,0,1,398.607-.893a12.226,12.226,0,0,1-7.238-2.35c-.423-.235-2.585-.893-3.008-1.175-.235-.188.517-.846.282-1.081a17.451,17.451,0,0,1-2.726-4.277c-.235-.329-1.739-.94-1.88-1.269-.188-.329.94-.846.8-1.175a22.237,22.237,0,0,1-.752-5.264,16.882,16.882,0,0,1,.329-4.418,18.663,18.663,0,0,1,.8-1.692,11.981,11.981,0,0,1,4.277-5.734c.329-.235.893-.423,1.222-.611a12.64,12.64,0,0,1,6.392-1.6,13.394,13.394,0,0,1,10.246,5.029c.329.282,1.927.8,2.209,1.081.235.282-.611.987-.423,1.269a19.7,19.7,0,0,1,2.256,7.52C411.438-16.309,412.566-15.745,412.566-15.369ZM444.15-7.05l-.705.423a17.826,17.826,0,0,1-1.551,3.149C440.907-2.3,432.118-2.4,430.238-2.4l-.752-.8c-.094-1.034-.094-2.068-.094-3.1L428.5-7l.846-.893v-7.9l4.277-.047a31.344,31.344,0,0,1,3.807.376l.893.752.47,1.316.893.987.047-2.4a9.39,9.39,0,0,0-.235-1.833A21.879,21.879,0,0,0,440.2-21.2l-.47.235c-.141.517-.329.987-.517,1.5-3.2,1.363-4.747,1.269-8.178,1.269-1.551,0-1.974-.752-1.974-2.209a53.46,53.46,0,0,1,.376-6.157l-.517-.423.517-.329v-2.35l.423-.376c1.692,0,9.87.188,10.81.987a7.742,7.742,0,0,1,1.363,2.679l.987.188-.376-5.781.188-1.833-.893.094a4.178,4.178,0,0,0-1.316,1.081,55.066,55.066,0,0,1-5.593.235c-2.961,0-5.969-.188-8.977-.188-1.269,0-2.538.423-3.807.423l.282.423c1.833.423,1.551,2.585,2.4,2.773A23,23,0,0,1,426.2-26.79c.235.376.376,0-.846,1.88v6.721c0,.846,1.363,1.081,1.363,1.927,0,.893-1.363,1.128-1.363,2.021,0,3.478.047,6.909-.188,10.34l.423.517a12.669,12.669,0,0,0-1.316.188,17.814,17.814,0,0,0-1.645,2.82A4.629,4.629,0,0,0,423.94,0c2.021,0,14.147-.423,15.04.517.141.564.94.564,1.034,1.128l.705.094C441,.987,442.6.282,442.928-.517,443.727-2.491,443.68-4.935,444.15-7.05Zm29.281-17.86a5.976,5.976,0,0,0-.188-1.5c-.094-.564-1.363-1.034-1.6-1.316-.188-.235.611-.564.329-.893-2.491-3.29-8.178-4.089-12.173-3.995a11.559,11.559,0,0,0-2.538.047c-1.786,0-7.614.047-7.614.047l.282.47c.846.094,3.149.846,3.995,1.034.047.423.047,2.115.094,2.491,0,.282.8.94.8,1.222s-.752.846-.752,1.128c0,.893-.047,4.794-.047,5.734,0,.141.564.611.564.752s-.564.611-.564.7c0,1.222.047,7.8.047,8.977,0,.188.893.658.893.846s-.893.564-.893.8c0,1.316-.047,4.606-.141,5.922-.8.188-1.645,1.363-2.491,1.41L449.884.141C450.871.094,453.55,0,454.537,0h2.632c.893,0,4.277.094,5.17.141l-1.6-1.034a7.258,7.258,0,0,1-.047-.8,18.458,18.458,0,0,0-2.068-.47c-.47-.047-.188-.235-.611-.47-.094-1.6-.141-3.525-.141-5.358,0-.235-.611-.611-.611-.8,0-.094.564-.329.564-.517,0-2.585.987-3.713,1.222-4.888.987-.047,2.867-.141,4-.329,4.747-.893,7.943-3.1,9.4-6.345.188-.329-.611-.846-.47-1.175s1.269-.846,1.363-1.316C473.384-23.923,473.431-24.346,473.431-24.91Zm-4.136,1.081a8.5,8.5,0,0,1-.423,2.585c-.188.47-.282,1.128-.423,1.316s-.658.611-.94.893c-.235.282-.376.564-.47.658-.235.141-.893.517-1.269.705a15.637,15.637,0,0,1-6.721,1.739c-.8-1.175-1.222-2.444-1.222-6.063,0-.141-.282-.517-.282-.658,0-.094.282-.517.282-.658v-1.081c0-.235-.7-.846-.7-1.081,0-.329.7-.8.7-1.081.047-.658.094-2.867.141-3.525.94-.987,3.76-1.222,6.2-.329.611.235,2.632.517,3.008.752.235.188-.658.47-.376.7A6.19,6.19,0,0,1,469.295-23.829Z" transform="translate(-54.259 1233.665)" stroke="#000" stroke-width="0.6"/>
  </g>
</svg>
