<svg xmlns="http://www.w3.org/2000/svg" xmlns:xlink="http://www.w3.org/1999/xlink" width="832.894" height="300.106" viewBox="0 0 832.894 300.106">
  <defs>
    <filter id="Path_1" x="0" y="26.525" width="832.894" height="273.581" filterUnits="userSpaceOnUse">
      <feOffset dy="3" input="SourceAlpha"/>
      <feGaussianBlur stdDeviation="10" result="blur"/>
      <feFlood flood-opacity="0.161"/>
      <feComposite operator="in" in2="blur"/>
      <feComposite in="SourceGraphic"/>
    </filter>
    <filter id="Path_4" x="359.921" y="0" width="113.05" height="113.048" filterUnits="userSpaceOnUse">
      <feOffset dy="3" input="SourceAlpha"/>
      <feGaussianBlur stdDeviation="3" result="blur-2"/>
      <feFlood flood-opacity="0.161"/>
      <feComposite operator="in" in2="blur-2"/>
      <feComposite in="SourceGraphic"/>
    </filter>
  </defs>
  <g id="Group_48" data-name="Group 48" transform="translate(30 6)">
    <g transform="matrix(1, 0, 0, 1, -30, -6)" filter="url(#Path_1)">
      <path id="Path_1-2" data-name="Path 1" d="M27.945,0C7.424,0-9.213,13.422-9.213,29.977v183.6H763.681V29.977C763.681,13.422,747.047,0,726.527,0Z" transform="translate(39.21 53.52)" fill="#7765b4"/>
    </g>
    <path id="Path_205" data-name="Path 205" d="M-236.793,0h2.448l12.75-29.325,4.59-3.06v-.765h-13.209v.765l4.59,3.06-8.262,20.451h-.2l-8.16-20.451,4.59-3.06v-.765h-16.269v.765l4.59,3.06Zm27.846-2.958c-4.182,0-6.528-3.009-6.885-7.9h12.648a13.819,13.819,0,0,0,.255-2.754c0-5.049-3.213-8.568-8.415-8.568-6.273,0-10.761,5.151-10.761,11.73C-222.1-3.774-217.413.51-211.344.51a13.123,13.123,0,0,0,8.211-2.958l-.969-1.785A10.909,10.909,0,0,1-208.947-2.958Zm-3.111-16.269c2.091,0,3.366,1.428,3.468,5.712h-7.242C-215.628-17.238-214.3-19.227-212.058-19.227Zm21.981,3.009a23.2,23.2,0,0,1,6.375.867V-21.93a3.62,3.62,0,0,0-1.479-.255c-1.938,0-4.233,1.479-6.732,3.774l-.663-3.672-.663-.357-7.65,3.927v.663l3.264,1.989V-3.519l-.255.255h-2.295V0h11.73V-3.264h-3.06l-.255-.255v-12.6C-191.2-16.167-190.638-16.218-190.077-16.218Zm25.7,12.954-.255-.255v-9.945c0-5.661-2.142-8.721-7.5-8.721a11.961,11.961,0,0,0-8.823,3.774l.969,1.938a10.037,10.037,0,0,1,5.355-1.887c2.958,0,4.131,1.785,4.131,5.253v.918c-8.823.918-11.373,3.876-11.373,7.7,0,3.774,2.6,5.049,5.049,5.049a11.545,11.545,0,0,0,6.324-2.346V0h8.415V-3.264Zm-8.874.153c-1.734,0-2.958-.867-2.907-2.8.051-2.295,1.683-3.417,5.661-3.774v6.12A11.1,11.1,0,0,1-173.247-3.111Zm36.159-.1-.255-.306v-12.7c0-4.182-2.55-5.967-6.171-5.967-2.754,0-4.9,1.071-7.9,3.06l-.612-3.009-.663-.357-7.65,3.927v.663l3.264,1.989V-3.519l-.255.255h-2.295V0h10.965V-3.264h-2.295l-.255-.255V-17.187a15.751,15.751,0,0,1,3.927-.612c2.907,0,4.08,1.122,4.08,5.2v9.078l-.255.255h-2.295V0h10.965V-3.213Zm26.01-.051-.255-.255V-36.363L-112-36.72l-8.466,4.08v.612l3.264,2.04v8.568a9.147,9.147,0,0,0-3.825-.765c-6.426,0-11.016,5.253-11.016,12.24,0,5.763,3.009,10.455,7.9,10.455,2.6,0,4.488-1.326,6.936-3.162V0h8.415V-3.264Zm-9.333-.612c-3.417,0-5.406-2.6-5.406-7.7,0-4.794,1.632-7.548,4.641-7.548,1.683,0,2.958.867,3.978,2.652V-4.335A13.147,13.147,0,0,1-120.411-3.876Zm27.744.918c-4.182,0-6.528-3.009-6.885-7.9H-86.9a13.819,13.819,0,0,0,.255-2.754c0-5.049-3.213-8.568-8.415-8.568-6.273,0-10.761,5.151-10.761,11.73,0,6.681,4.692,10.965,10.761,10.965a13.123,13.123,0,0,0,8.211-2.958l-.969-1.785A10.909,10.909,0,0,1-92.667-2.958Zm-3.111-16.269c2.091,0,3.366,1.428,3.468,5.712h-7.242C-99.348-17.238-98.022-19.227-95.778-19.227ZM-73.8-16.218a23.2,23.2,0,0,1,6.375.867V-21.93a3.62,3.62,0,0,0-1.479-.255c-1.938,0-4.233,1.479-6.732,3.774l-.663-3.672-.663-.357-7.65,3.927v.663l3.264,1.989V-3.519l-.255.255h-2.3V0h11.73V-3.264h-3.06l-.255-.255v-12.6C-74.919-16.167-74.358-16.218-73.8-16.218Zm13.77-10a3.537,3.537,0,0,0,3.519-3.57A3.526,3.526,0,0,0-60.027-33.3a3.537,3.537,0,0,0-3.57,3.519A3.548,3.548,0,0,0-60.027-26.214ZM-65.331,0h10.965V-3.264h-2.3l-.255-.255V-22.236l-.663-.306-8.466,4.029v.612l3.264,2.04V-3.519l-.255.255h-2.295ZM-29.58-3.213l-.255-.306v-12.7c0-4.182-2.55-5.967-6.171-5.967-2.754,0-4.9,1.071-7.905,3.06l-.612-3.009-.663-.357-7.65,3.927v.663l3.264,1.989V-3.519l-.255.255h-2.3V0h10.965V-3.264h-2.295l-.255-.255V-17.187A15.751,15.751,0,0,1-39.78-17.8c2.907,0,4.08,1.122,4.08,5.2v9.078l-.255.255h-2.3V0h10.965V-3.213ZM-2.346-22.644l-6.375,2.4a9.723,9.723,0,0,0-5.967-1.938c-5.1,0-9.537,3.57-9.537,8.721a6.91,6.91,0,0,0,3.162,6.018c-2.244,2.04-3.519,4.233-3.519,6.324a3.725,3.725,0,0,0,1.836,3.366c-2.4,1.632-3.672,3.417-3.672,5.355,0,2.856,2.754,4.488,8.007,4.488,8.211,0,14.331-3.621,14.331-9.282,0-3.468-2.5-5.049-7.14-5.049h-4.9c-3.213,0-4.029-.816-4.029-2.091a3.913,3.913,0,0,1,.816-2.244,11.054,11.054,0,0,0,3.774.612c5.1,0,9.639-3.06,9.639-8.262a7.622,7.622,0,0,0-1.275-4.335l4.284,1.326.714-.1v-5.151ZM-14.994-8.466c-2.142,0-3.264-2.244-3.264-5.865,0-3.723,1.377-5.406,3.06-5.406,2.04,0,3.366,2.346,3.366,6.069C-11.832-9.894-13.26-8.466-14.994-8.466ZM-17.9,3.264h5c2.142,0,3.672.2,3.672,1.785,0,2.448-3.672,3.876-7.6,3.876-3.162,0-4.845-1.02-4.845-3.264a4.915,4.915,0,0,1,.816-2.7A12.259,12.259,0,0,0-17.9,3.264ZM22.7-2.958c-4.182,0-6.528-3.009-6.885-7.9H28.458a13.818,13.818,0,0,0,.255-2.754c0-5.049-3.213-8.568-8.415-8.568-6.273,0-10.761,5.151-10.761,11.73C9.537-3.774,14.229.51,20.3.51a13.123,13.123,0,0,0,8.211-2.958L27.54-4.233A10.909,10.909,0,0,1,22.7-2.958ZM19.584-19.227c2.091,0,3.366,1.428,3.468,5.712H15.81C16.014-17.238,17.34-19.227,19.584-19.227ZM54.009-3.213l-.255-.306v-12.7c0-4.182-2.55-5.967-6.171-5.967-2.754,0-4.9,1.071-7.905,3.06l-.612-3.009-.663-.357-7.65,3.927v.663l3.264,1.989V-3.519l-.255.255h-2.3V0H42.432V-3.264H40.137l-.255-.255V-17.187a15.751,15.751,0,0,1,3.927-.612c2.907,0,4.08,1.122,4.08,5.2v9.078l-.255.255h-2.3V0H56.3V-3.213ZM76.653.51c5.253,0,8.313-2.5,8.313-6.63,0-3.009-1.836-4.845-5.763-6.834-2.754-1.377-4.9-2.4-4.9-4.284,0-1.071.816-1.989,2.4-1.989a4.725,4.725,0,0,1,3.213,1.479l2.958,3.519h.663v-6.885a16.6,16.6,0,0,0-6.018-1.071c-5.1,0-8.466,2.3-8.466,6.171,0,3.111,1.581,4.9,5.457,7.14,2.55,1.479,5.2,2.142,5.2,4.284,0,1.173-.765,2.142-2.652,2.142a6.161,6.161,0,0,1-4.59-2.6L69.666-8.517H69v7.344A20.058,20.058,0,0,0,76.653.51Zm26.061-22.695c-2.6,0-4.743,1.377-7.191,3.264l-.663-3.162L94.2-22.44l-7.65,3.927v.663l3.264,1.989V8.211l-.255.255h-2.3V11.73h11.73V8.466h-3.06l-.255-.255V-.255A9.147,9.147,0,0,0,99.5.51c6.426,0,11.016-5.253,11.016-11.985C110.517-17.8,107.2-22.185,102.714-22.185ZM99.705-2.55A4.544,4.544,0,0,1,95.676-5V-17.34A15,15,0,0,1,99.3-17.8c3.009,0,5,2.6,5,7.7C104.3-5.457,102.765-2.55,99.705-2.55Zm30.906-.714-.255-.255v-9.945c0-5.661-2.142-8.721-7.5-8.721a11.961,11.961,0,0,0-8.823,3.774l.969,1.938a10.037,10.037,0,0,1,5.355-1.887c2.958,0,4.131,1.785,4.131,5.253v.918c-8.823.918-11.373,3.876-11.373,7.7,0,3.774,2.6,5.049,5.049,5.049a11.545,11.545,0,0,0,6.324-2.346V0h8.415V-3.264Zm-8.874.153c-1.734,0-2.958-.867-2.907-2.8.051-2.295,1.683-3.417,5.661-3.774v6.12A11.1,11.1,0,0,1,121.737-3.111Zm36.159-.1-.255-.306v-12.7c0-4.182-2.55-5.967-6.171-5.967-2.754,0-4.9,1.071-7.9,3.06l-.612-3.009-.663-.357-7.65,3.927v.663l3.264,1.989V-3.519l-.255.255h-2.295V0h10.965V-3.264h-2.295l-.255-.255V-17.187A15.751,15.751,0,0,1,147.7-17.8c2.907,0,4.08,1.122,4.08,5.2v9.078l-.255.255h-2.295V0h10.965V-3.213Zm27.285,0-.255-.306v-12.7c0-4.182-2.55-5.967-6.171-5.967-2.754,0-4.9,1.071-7.9,3.06l-.612-3.009-.663-.357-7.65,3.927v.663l3.264,1.989V-3.519l-.255.255h-2.295V0H173.6V-3.264h-2.295l-.255-.255V-17.187a15.751,15.751,0,0,1,3.927-.612c2.907,0,4.08,1.122,4.08,5.2v9.078l-.255.255h-2.295V0h10.965V-3.213Zm10.149-23a3.537,3.537,0,0,0,3.519-3.57A3.526,3.526,0,0,0,195.33-33.3a3.537,3.537,0,0,0-3.57,3.519A3.548,3.548,0,0,0,195.33-26.214ZM190.026,0h10.965V-3.264H198.7l-.255-.255V-22.236l-.663-.306-8.466,4.029v.612l3.264,2.04V-3.519l-.255.255h-2.3Zm35.751-3.213-.255-.306v-12.7c0-4.182-2.55-5.967-6.171-5.967-2.754,0-4.9,1.071-7.9,3.06l-.612-3.009-.663-.357-7.65,3.927v.663l3.264,1.989V-3.519l-.255.255h-2.295V0H214.2V-3.264H211.9l-.255-.255V-17.187a15.751,15.751,0,0,1,3.927-.612c2.907,0,4.08,1.122,4.08,5.2v9.078l-.255.255h-2.295V0h10.965V-3.213Zm27.234-19.431-6.375,2.4a9.723,9.723,0,0,0-5.967-1.938c-5.1,0-9.537,3.57-9.537,8.721a6.91,6.91,0,0,0,3.162,6.018c-2.244,2.04-3.519,4.233-3.519,6.324a3.725,3.725,0,0,0,1.836,3.366c-2.4,1.632-3.672,3.417-3.672,5.355,0,2.856,2.754,4.488,8.007,4.488,8.211,0,14.331-3.621,14.331-9.282,0-3.468-2.5-5.049-7.14-5.049h-4.9c-3.213,0-4.029-.816-4.029-2.091a3.913,3.913,0,0,1,.816-2.244,11.054,11.054,0,0,0,3.774.612c5.1,0,9.639-3.06,9.639-8.262a7.622,7.622,0,0,0-1.275-4.335l4.284,1.326.714-.1v-5.151ZM240.363-8.466c-2.142,0-3.264-2.244-3.264-5.865,0-3.723,1.377-5.406,3.06-5.406,2.04,0,3.366,2.346,3.366,6.069C243.525-9.894,242.1-8.466,240.363-8.466Zm-2.907,11.73h5c2.142,0,3.672.2,3.672,1.785,0,2.448-3.672,3.876-7.6,3.876-3.162,0-4.845-1.02-4.845-3.264a4.915,4.915,0,0,1,.816-2.7A12.259,12.259,0,0,0,237.456,3.264ZM-277.669,34.786a3.537,3.537,0,0,0,3.519-3.57,3.526,3.526,0,0,0-3.519-3.519,3.537,3.537,0,0,0-3.57,3.519A3.548,3.548,0,0,0-277.669,34.786ZM-282.974,61h10.965V57.736H-274.3l-.255-.255V38.764l-.663-.306-8.466,4.029V43.1l3.264,2.04V57.481l-.255.255h-2.3Zm35.751-3.213-.255-.306v-12.7c0-4.182-2.55-5.967-6.171-5.967-2.754,0-4.9,1.071-7.9,3.06l-.612-3.009-.663-.357-7.65,3.927V43.1l3.264,1.989V57.481l-.255.255h-2.295V61H-258.8V57.736h-2.3l-.255-.255V43.813a15.751,15.751,0,0,1,3.927-.612c2.907,0,4.08,1.122,4.08,5.2v9.078l-.255.255h-2.295V61h10.965V57.787Zm35.7-.051-.255-.255V24.637l-.663-.357-8.466,4.08v.612l3.264,2.04V39.58a9.147,9.147,0,0,0-3.825-.765c-6.426,0-11.016,5.253-11.016,12.24,0,5.763,3.009,10.455,7.9,10.455,2.6,0,4.488-1.326,6.936-3.162V61h8.415V57.736Zm-9.333-.612c-3.417,0-5.406-2.6-5.406-7.7,0-4.794,1.632-7.548,4.641-7.548,1.683,0,2.958.867,3.978,2.652V56.665A13.147,13.147,0,0,1-220.856,57.124Zm27.744.918c-4.182,0-6.528-3.009-6.885-7.9h12.648a13.819,13.819,0,0,0,.255-2.754c0-5.049-3.213-8.568-8.415-8.568-6.273,0-10.761,5.151-10.761,11.73,0,6.681,4.692,10.965,10.761,10.965a13.123,13.123,0,0,0,8.211-2.958l-.969-1.785A10.909,10.909,0,0,1-193.111,58.042Zm-3.111-16.269c2.091,0,3.366,1.428,3.468,5.712H-200C-199.792,43.762-198.466,41.773-196.223,41.773ZM-149.4,39.58v.663l3.111,2.805-3.978,10.659h-.255l-4.692-14.688-5.763,1.683,2.448,6.273-3.927,7.089h-.255L-167.153,43.1l3.06-2.856V39.58h-12.546v.714l3.111,2.805,8.16,18.411h2.091l6.12-10.965,4.284,10.965h2.244l7.9-18.411,3.264-2.856V39.58Zm22.848,18.462c-4.182,0-6.528-3.009-6.885-7.9h12.648a13.819,13.819,0,0,0,.255-2.754c0-5.049-3.213-8.568-8.415-8.568-6.273,0-10.761,5.151-10.761,11.73,0,6.681,4.692,10.965,10.761,10.965a13.123,13.123,0,0,0,8.211-2.958l-.969-1.785A10.909,10.909,0,0,1-126.557,58.042Zm-3.111-16.269c2.091,0,3.366,1.428,3.468,5.712h-7.242C-133.238,43.762-131.911,41.773-129.668,41.773Zm21.981,3.009a23.2,23.2,0,0,1,6.375.867V39.07a3.62,3.62,0,0,0-1.479-.255c-1.938,0-4.233,1.479-6.732,3.774l-.663-3.672-.663-.357-7.65,3.927v.663l3.264,1.989V57.481l-.255.255h-2.3V61h11.73V57.736h-3.06l-.255-.255v-12.6C-108.809,44.833-108.248,44.782-107.687,44.782Zm21.573,13.26c-4.182,0-6.528-3.009-6.885-7.9H-80.35a13.819,13.819,0,0,0,.255-2.754c0-5.049-3.213-8.568-8.415-8.568-6.273,0-10.761,5.151-10.761,11.73,0,6.681,4.692,10.965,10.761,10.965A13.123,13.123,0,0,0-80.3,58.552l-.969-1.785A10.909,10.909,0,0,1-86.113,58.042Zm-3.111-16.269c2.091,0,3.366,1.428,3.468,5.712H-93C-92.794,43.762-91.468,41.773-89.225,41.773ZM-77.495,61H-66.53V57.736h-2.295l-.255-.255V24.637l-.714-.357-8.415,4.08v.612l3.264,2.04V57.481l-.255.255h-2.3Zm34.884-3.264-.255-.255V24.637l-.663-.357-8.466,4.08v.612l3.264,2.04V39.58a9.147,9.147,0,0,0-3.825-.765c-6.426,0-11.016,5.253-11.016,12.24,0,5.763,3.009,10.455,7.9,10.455,2.6,0,4.488-1.326,6.936-3.162V61h8.415V57.736Zm-9.333-.612c-3.417,0-5.406-2.6-5.406-7.7,0-4.794,1.632-7.548,4.641-7.548,1.683,0,2.958.867,3.978,2.652V56.665A13.147,13.147,0,0,1-51.944,57.124Zm37.179.918c-4.182,0-6.528-3.009-6.885-7.9H-9a13.818,13.818,0,0,0,.255-2.754c0-5.049-3.213-8.568-8.415-8.568-6.273,0-10.761,5.151-10.761,11.73,0,6.681,4.692,10.965,10.761,10.965A13.123,13.123,0,0,0-8.95,58.552l-.969-1.785A10.909,10.909,0,0,1-14.764,58.042Zm-3.111-16.269c2.091,0,3.366,1.428,3.468,5.712h-7.242C-21.445,43.762-20.119,41.773-17.875,41.773ZM16.55,57.787l-.255-.306v-12.7c0-4.182-2.55-5.967-6.171-5.967-2.754,0-4.9,1.071-7.9,3.06l-.612-3.009-.663-.357-7.65,3.927V43.1l3.264,1.989V57.481l-.255.255h-2.3V61H4.973V57.736h-2.3l-.255-.255V43.813A15.751,15.751,0,0,1,6.35,43.2c2.907,0,4.08,1.122,4.08,5.2v9.078l-.255.255H7.88V61H18.845V57.787Zm19.839-23a3.545,3.545,0,1,0-3.57-3.57A3.537,3.537,0,0,0,36.389,34.786ZM31.085,61H42.05V57.736h-2.3l-.255-.255V38.764l-.663-.306-8.466,4.029V43.1l3.264,2.04V57.481l-.255.255h-2.3Zm35.751-3.213-.255-.306v-12.7c0-4.182-2.55-5.967-6.171-5.967-2.754,0-4.9,1.071-7.905,3.06l-.612-3.009-.663-.357-7.65,3.927V43.1l3.264,1.989V57.481l-.255.255h-2.3V61H55.258V57.736H52.963l-.255-.255V43.813a15.751,15.751,0,0,1,3.927-.612c2.907,0,4.08,1.122,4.08,5.2v9.078l-.255.255h-2.3V61H69.13V57.787Zm35.7-.051-.255-.255V24.637l-.663-.357-8.466,4.08v.612l3.264,2.04V39.58a9.147,9.147,0,0,0-3.825-.765c-6.426,0-11.016,5.253-11.016,12.24,0,5.763,3.009,10.455,7.9,10.455,2.6,0,4.488-1.326,6.936-3.162V61h8.415V57.736ZM93.2,57.124c-3.417,0-5.406-2.6-5.406-7.7,0-4.794,1.632-7.548,4.641-7.548,1.683,0,2.958.867,3.978,2.652V56.665A13.147,13.147,0,0,1,93.2,57.124Zm27.744.918c-4.182,0-6.528-3.009-6.885-7.9h12.648a13.819,13.819,0,0,0,.255-2.754c0-5.049-3.213-8.568-8.415-8.568-6.273,0-10.761,5.151-10.761,11.73,0,6.681,4.692,10.965,10.761,10.965a13.123,13.123,0,0,0,8.211-2.958l-.969-1.785A10.909,10.909,0,0,1,120.946,58.042Zm-3.111-16.269c2.091,0,3.366,1.428,3.468,5.712h-7.242C114.265,43.762,115.591,41.773,117.835,41.773ZM147.62,61.51c5.253,0,8.313-2.5,8.313-6.63,0-3.009-1.836-4.845-5.763-6.834-2.754-1.377-4.9-2.4-4.9-4.284,0-1.071.816-1.989,2.4-1.989a4.725,4.725,0,0,1,3.213,1.479l2.958,3.519h.663V39.886a16.6,16.6,0,0,0-6.018-1.071c-5.1,0-8.466,2.295-8.466,6.171,0,3.111,1.581,4.9,5.457,7.14,2.55,1.479,5.2,2.142,5.2,4.284,0,1.173-.765,2.142-2.652,2.142a6.161,6.161,0,0,1-4.59-2.6l-2.8-3.468h-.663v7.344A20.058,20.058,0,0,0,147.62,61.51Zm18.411,0a12.036,12.036,0,0,0,7.65-2.958l-.969-1.785a8.909,8.909,0,0,1-3.774,1.122c-2.04,0-2.8-1.428-2.8-5.508V42.844h6.783V39.58h-6.783V33.511h-.663l-8.313,8.67v.663h2.856l.255.255v11.73C160.267,59.725,162.358,61.51,166.03,61.51Zm22.236-3.468c-4.182,0-6.528-3.009-6.885-7.9h12.648a13.819,13.819,0,0,0,.255-2.754c0-5.049-3.213-8.568-8.415-8.568-6.273,0-10.761,5.151-10.761,11.73,0,6.681,4.692,10.965,10.761,10.965a13.123,13.123,0,0,0,8.211-2.958l-.969-1.785A10.909,10.909,0,0,1,188.266,58.042Zm-3.111-16.269c2.091,0,3.366,1.428,3.468,5.712h-7.242C181.585,43.762,182.911,41.773,185.155,41.773Zm33.15,15.963-.255-.255V24.637l-.663-.357-8.466,4.08v.612l3.264,2.04V39.58a9.147,9.147,0,0,0-3.825-.765c-6.426,0-11.016,5.253-11.016,12.24,0,5.763,3.009,10.455,7.9,10.455,2.6,0,4.488-1.326,6.936-3.162V61H220.6V57.736Zm-9.333-.612c-3.417,0-5.406-2.6-5.406-7.7,0-4.794,1.632-7.548,4.641-7.548,1.683,0,2.958.867,3.978,2.652V56.665A13.147,13.147,0,0,1,208.973,57.124Zm27.744.918c-4.182,0-6.528-3.009-6.885-7.9H242.48a13.819,13.819,0,0,0,.255-2.754c0-5.049-3.213-8.568-8.415-8.568-6.273,0-10.761,5.151-10.761,11.73,0,6.681,4.692,10.965,10.761,10.965a13.123,13.123,0,0,0,8.211-2.958l-.969-1.785A10.909,10.909,0,0,1,236.717,58.042Zm-3.111-16.269c2.091,0,3.366,1.428,3.468,5.712h-7.242C230.036,43.762,231.362,41.773,233.605,41.773Zm34.425,16.014-.255-.306v-12.7c0-4.182-2.55-5.967-6.171-5.967-2.754,0-4.9,1.071-7.9,3.06l-.612-3.009-.663-.357-7.65,3.927V43.1l3.264,1.989V57.481l-.255.255h-2.295V61h10.965V57.736h-2.295l-.255-.255V43.813a15.751,15.751,0,0,1,3.927-.612c2.907,0,4.08,1.122,4.08,5.2v9.078l-.255.255h-2.295V61h10.965V57.787Zm9.894,3.978A3.825,3.825,0,1,0,274.1,57.94,3.82,3.82,0,0,0,277.924,61.765Z" transform="translate(382.097 142.816)" fill="#fff"/>
    <g id="Group_2" data-name="Group 2" transform="translate(338.921 0)">
      <g transform="matrix(1, 0, 0, 1, -368.92, -6)" filter="url(#Path_4)">
        <path id="Path_4-2" data-name="Path 4" d="M29.22,58.439A47.524,47.524,0,1,0-18.305,10.914,47.525,47.525,0,0,0,29.22,58.439" transform="translate(387.23 42.61)" fill="#fff"/>
      </g>
      <path id="Path_206" data-name="Path 206" d="M26.466-.528,24.75-1.452l-.726-1.254-.066-.132a28.676,28.676,0,0,1-4.62-1.188,26.66,26.66,0,0,1-.924-4.818c0-.2.66-.726.66-.858.066-2.31.066-11.022.066-16.7v-2.838c0-.33-.66-.99-.66-1.386,0-.726.726-1.848.726-2.64v-2.31c.066-.462.066-1.914.066-2.376.066-1.056.132-3.5.264-4.554a15.746,15.746,0,0,1-1.452-.792,10.992,10.992,0,0,1,.858-.792s-1.056-2.574-1.32-2.442c-1.848.726-5.742,2.838-5.742,2.838L7.59-41.646l1.056.924,4.884-.066a21.66,21.66,0,0,1,.528,2.31v3.5c0,.4,1.056,1.122,1.056,1.452,0,.66-1.056,1.518-1.056,2.178v8.514c0,1.32.066,5.742.066,7.062v1.716a13.8,13.8,0,0,1-.066,1.65c0,.4,1.056,1.32.99,1.716,0,.4-1.056,1.122-1.056,1.518,0,1.716-.066,1.782-.066,3.5a8.873,8.873,0,0,0,.924.726L11.286-2.442,7.26-1.254A15.226,15.226,0,0,0,8.184,0C13.926.066,19.668-.2,25.41.066,25.674.132,26.2-.528,26.466-.528Z" transform="translate(30.535 70.891)" fill="#2b2e34"/>
    </g>
  </g>
</svg>
