<svg xmlns="http://www.w3.org/2000/svg" xmlns:xlink="http://www.w3.org/1999/xlink" width="832.894" height="300.106" viewBox="0 0 832.894 300.106">
  <defs>
    <filter id="Path_1" x="0" y="26.525" width="832.894" height="273.581" filterUnits="userSpaceOnUse">
      <feOffset dy="3" input="SourceAlpha"/>
      <feGaussianBlur stdDeviation="10" result="blur"/>
      <feFlood flood-opacity="0.161"/>
      <feComposite operator="in" in2="blur"/>
      <feComposite in="SourceGraphic"/>
    </filter>
    <filter id="Path_4" x="359.921" y="0" width="113.05" height="113.048" filterUnits="userSpaceOnUse">
      <feOffset dy="3" input="SourceAlpha"/>
      <feGaussianBlur stdDeviation="3" result="blur-2"/>
      <feFlood flood-opacity="0.161"/>
      <feComposite operator="in" in2="blur-2"/>
      <feComposite in="SourceGraphic"/>
    </filter>
  </defs>
  <g id="Group_48" data-name="Group 48" transform="translate(30 6)">
    <g transform="matrix(1, 0, 0, 1, -30, -6)" filter="url(#Path_1)">
      <path id="Path_1-2" data-name="Path 1" d="M27.945,0C7.424,0-9.213,13.422-9.213,29.977v183.6H763.681V29.977C763.681,13.422,747.047,0,726.527,0Z" transform="translate(39.21 53.52)" fill="#bbb1d9"/>
    </g>
    <path id="Path_211" data-name="Path 211" d="M-220.448-32.232l.1-.918h-24.531v10.863h.765l4.08-7.4h11.322L-246.3-.918V0h25.6V-10.812h-.765l-3.978,7.4H-238.2ZM-206.78.51c6.477,0,11.118-4.692,11.118-11.628s-4.539-11.067-10.506-11.067c-6.63,0-11.118,5.151-11.118,11.883C-217.286-3.774-213,.51-206.78.51Zm1.02-3.009c-3.06,0-5.3-4.08-5.3-9.894,0-4.182,1.479-6.63,3.876-6.63,3.06,0,5.3,4.08,5.3,9.894C-201.884-4.947-203.363-2.5-205.76-2.5Zm35.649-.714-.255-.306v-12.7c0-4.182-2.55-5.967-6.171-5.967-2.754,0-4.9,1.071-7.9,3.06l-.612-3.009-.663-.357-7.65,3.927v.663l3.264,1.989V-3.519l-.255.255h-2.295V0h10.965V-3.264h-2.295l-.255-.255V-17.187a15.751,15.751,0,0,1,3.927-.612c2.907,0,4.08,1.122,4.08,5.2v9.078l-.255.255h-2.295V0h10.965V-3.213Zm26.01-.051-.255-.255V-36.363l-.663-.357-8.466,4.08v.612l3.264,2.04v8.568a9.147,9.147,0,0,0-3.825-.765c-6.426,0-11.016,5.253-11.016,12.24,0,5.763,3.009,10.455,7.9,10.455,2.6,0,4.488-1.326,6.936-3.162V0h8.415V-3.264Zm-9.333-.612c-3.417,0-5.406-2.6-5.406-7.7,0-4.794,1.632-7.548,4.641-7.548,1.683,0,2.958.867,3.978,2.652V-4.335A13.147,13.147,0,0,1-153.434-3.876Zm27.744.918c-4.182,0-6.528-3.009-6.885-7.9h12.648a13.819,13.819,0,0,0,.255-2.754c0-5.049-3.213-8.568-8.415-8.568-6.273,0-10.761,5.151-10.761,11.73,0,6.681,4.692,10.965,10.761,10.965a13.123,13.123,0,0,0,8.211-2.958l-.969-1.785A10.909,10.909,0,0,1-125.689-2.958ZM-128.8-19.227c2.091,0,3.366,1.428,3.468,5.712h-7.242C-132.37-17.238-131.044-19.227-128.8-19.227Zm26.826-2.958c-2.754,0-4.59,1.173-7.038,3.162v-17.34l-.663-.357-8.466,4.08v.612l3.264,2.04V-1.173A20.052,20.052,0,0,0-106.412.51c6.171,0,12.24-4.284,12.24-12.291C-94.172-17.748-97.487-22.185-101.975-22.185ZM-105.086-2.55a4.883,4.883,0,0,1-3.927-2.04V-17.34a15,15,0,0,1,3.621-.459c3.009,0,5,2.5,5,7.548C-100.394-5.355-101.924-2.55-105.086-2.55ZM-80.351.51c6.477,0,11.118-4.692,11.118-11.628s-4.539-11.067-10.506-11.067c-6.63,0-11.118,5.151-11.118,11.883C-90.857-3.774-86.573.51-80.351.51Zm1.02-3.009c-3.06,0-5.3-4.08-5.3-9.894,0-4.182,1.479-6.63,3.876-6.63,3.06,0,5.3,4.08,5.3,9.894C-75.455-4.947-76.934-2.5-79.331-2.5Zm21.369-1.02V-36.363l-.714-.357-8.415,4.08v.612l3.264,2.04V-3.519l-.255.255h-2.3V0h10.965V-3.264h-2.3Zm13.158.255-6.885-9.69,9.027-8.313v-.408H-53.933v.459l2.907,2.856-6.528,6.936L-49.7,0h8.058V-3.264Zm13.158-.255V-36.363l-.714-.357-8.415,4.08v.612l3.264,2.04V-3.519l-.255.255h-2.295V0H-29.1V-3.264h-2.3Zm13.158.255-6.885-9.69,9.027-8.313v-.408H-27.617v.459l2.907,2.856-6.528,6.936L-23.384,0h8.058V-3.264Zm17.34.306c-4.182,0-6.528-3.009-6.885-7.9H4.615a13.818,13.818,0,0,0,.255-2.754c0-5.049-3.213-8.568-8.415-8.568-6.273,0-10.761,5.151-10.761,11.73C-14.306-3.774-9.614.51-3.545.51A13.123,13.123,0,0,0,4.666-2.448L3.7-4.233A10.909,10.909,0,0,1-1.148-2.958ZM-4.259-19.227c2.091,0,3.366,1.428,3.468,5.712H-8.033C-7.829-17.238-6.5-19.227-4.259-19.227ZM30.166-3.213l-.255-.306v-12.7c0-4.182-2.55-5.967-6.171-5.967-2.754,0-4.9,1.071-7.9,3.06l-.612-3.009-.663-.357L6.91-18.564v.663l3.264,1.989V-3.519l-.255.255h-2.3V0H18.589V-3.264h-2.3l-.255-.255V-17.187a15.751,15.751,0,0,1,3.927-.612c2.907,0,4.08,1.122,4.08,5.2v9.078l-.255.255H21.5V0H32.461V-3.213Zm31.773-.051-.255-.255v-9.945c0-5.661-2.142-8.721-7.5-8.721a11.961,11.961,0,0,0-8.823,3.774l.969,1.938a10.037,10.037,0,0,1,5.355-1.887c2.958,0,4.131,1.785,4.131,5.253v.918c-8.823.918-11.373,3.876-11.373,7.7,0,3.774,2.6,5.049,5.049,5.049a11.545,11.545,0,0,0,6.324-2.346V0h8.415V-3.264Zm-8.874.153c-1.734,0-2.958-.867-2.907-2.8.051-2.295,1.683-3.417,5.661-3.774v6.12A11.1,11.1,0,0,1,53.065-3.111Zm30.957-.153-.255-.255v-9.945c0-5.661-2.142-8.721-7.5-8.721a11.961,11.961,0,0,0-8.823,3.774l.969,1.938a10.037,10.037,0,0,1,5.355-1.887c2.958,0,4.131,1.785,4.131,5.253v.918c-8.823.918-11.373,3.876-11.373,7.7,0,3.774,2.6,5.049,5.049,5.049A11.545,11.545,0,0,0,77.9-1.785V0h8.415V-3.264Zm-8.874.153c-1.734,0-2.958-.867-2.907-2.8.051-2.295,1.683-3.417,5.661-3.774v6.12A11.1,11.1,0,0,1,75.149-3.111Zm36.159-.1-.255-.306v-12.7c0-4.182-2.55-5.967-6.171-5.967-2.754,0-4.9,1.071-7.9,3.06l-.612-3.009-.663-.357-7.65,3.927v.663l3.264,1.989V-3.519l-.255.255h-2.3V0H99.73V-3.264H97.435l-.255-.255V-17.187a15.751,15.751,0,0,1,3.927-.612c2.907,0,4.08,1.122,4.08,5.2v9.078l-.255.255h-2.295V0H113.6V-3.213ZM140.275-21.42v.663l3.111,2.805L139.409-7.293h-.255l-4.692-14.688L128.7-20.3l2.448,6.273-3.927,7.089h-.255L122.527-17.9l3.06-2.856v-.663H113.041v.714l3.111,2.8L124.313.51H126.4l6.12-10.965L136.807.51h2.244l7.9-18.411,3.264-2.856v-.663Zm16.32-4.794a3.537,3.537,0,0,0,3.519-3.57A3.526,3.526,0,0,0,156.6-33.3a3.537,3.537,0,0,0-3.57,3.519A3.548,3.548,0,0,0,156.6-26.214Zm13.26,0a3.537,3.537,0,0,0,3.519-3.57,3.526,3.526,0,0,0-3.519-3.519,3.537,3.537,0,0,0-3.57,3.519A3.548,3.548,0,0,0,169.855-26.214ZM151.291,0h10.965V-3.264h-2.295l-.255-.255V-22.236l-.663-.306-8.466,4.029v.612l3.264,2.04V-3.519l-.255.255h-2.3Zm11.424,11.577c6.069-.918,10-4.182,10-11.475V-22.236l-.663-.306-8.466,4.029v.612l3.264,2.04v18c0,4.692-1.581,6.477-4.947,7.9ZM177.556,0h19.125V-7.854h-.612l-2.958,4.59h-7.344v-.2l10.761-16.983v-.969H178.117v7.854h.612l3.111-4.59h6.834v.255L177.556-.867Zm35.19-2.958c-4.182,0-6.528-3.009-6.885-7.9h12.648a13.819,13.819,0,0,0,.255-2.754c0-5.049-3.213-8.568-8.415-8.568-6.273,0-10.761,5.151-10.761,11.73C199.588-3.774,204.28.51,210.349.51a13.123,13.123,0,0,0,8.211-2.958l-.969-1.785A10.909,10.909,0,0,1,212.746-2.958Zm-3.111-16.269c2.091,0,3.366,1.428,3.468,5.712h-7.242C206.065-17.238,207.391-19.227,209.635-19.227ZM244.061-3.213l-.255-.306v-12.7c0-4.182-2.55-5.967-6.171-5.967-2.754,0-4.9,1.071-7.9,3.06l-.612-3.009-.663-.357-7.65,3.927v.663l3.264,1.989V-3.519l-.255.255h-2.295V0h10.965V-3.264h-2.295l-.255-.255V-17.187a15.751,15.751,0,0,1,3.927-.612c2.907,0,4.08,1.122,4.08,5.2v9.078l-.255.255h-2.295V0h10.965V-3.213ZM-164.96,61.51c6.477,0,11.118-4.692,11.118-11.628s-4.539-11.067-10.506-11.067c-6.63,0-11.118,5.151-11.118,11.883C-175.465,57.226-171.182,61.51-164.96,61.51Zm1.02-3.009c-3.06,0-5.3-4.08-5.3-9.894,0-4.182,1.479-6.63,3.876-6.63,3.06,0,5.3,4.08,5.3,9.894C-160.064,56.053-161.542,58.5-163.939,58.5Zm35.649-.714-.255-.306v-12.7c0-4.182-2.55-5.967-6.171-5.967-2.754,0-4.9,1.071-7.9,3.06l-.612-3.009-.663-.357-7.65,3.927V43.1l3.264,1.989V57.481l-.255.255h-2.295V61h10.965V57.736h-2.295l-.255-.255V43.813a15.751,15.751,0,0,1,3.927-.612c2.907,0,4.08,1.122,4.08,5.2v9.078l-.255.255h-2.295V61H-126V57.787Zm26.01-.051-.255-.255V24.637l-.663-.357-8.466,4.08v.612l3.264,2.04V39.58a9.147,9.147,0,0,0-3.825-.765c-6.426,0-11.016,5.253-11.016,12.24,0,5.763,3.009,10.455,7.9,10.455,2.6,0,4.488-1.326,6.936-3.162V61h8.415V57.736Zm-9.333-.612c-3.417,0-5.406-2.6-5.406-7.7,0-4.794,1.632-7.548,4.641-7.548,1.683,0,2.958.867,3.978,2.652V56.665A13.147,13.147,0,0,1-111.613,57.124Zm27.744.918c-4.182,0-6.528-3.009-6.885-7.9h12.648a13.819,13.819,0,0,0,.255-2.754c0-5.049-3.213-8.568-8.415-8.568-6.273,0-10.761,5.151-10.761,11.73,0,6.681,4.692,10.965,10.761,10.965a13.123,13.123,0,0,0,8.211-2.958l-.969-1.785A10.909,10.909,0,0,1-83.869,58.042ZM-86.98,41.773c2.091,0,3.366,1.428,3.468,5.712h-7.242C-90.55,43.762-89.224,41.773-86.98,41.773ZM-65,44.782a23.2,23.2,0,0,1,6.375.867V39.07a3.62,3.62,0,0,0-1.479-.255c-1.938,0-4.233,1.479-6.732,3.774l-.663-3.672-.663-.357-7.65,3.927v.663l3.264,1.989V57.481l-.255.255h-2.3V61h11.73V57.736h-3.06l-.255-.255v-12.6C-66.121,44.833-65.561,44.782-65,44.782Zm39.321,12.954-.255-.255V24.637l-.663-.357-8.466,4.08v.612l3.264,2.04V39.58a9.147,9.147,0,0,0-3.825-.765c-6.426,0-11.016,5.253-11.016,12.24,0,5.763,3.009,10.455,7.9,10.455,2.6,0,4.488-1.326,6.936-3.162V61h8.415V57.736Zm-9.333-.612c-3.417,0-5.406-2.6-5.406-7.7,0-4.794,1.632-7.548,4.641-7.548,1.683,0,2.958.867,3.978,2.652V56.665A13.147,13.147,0,0,1-35.011,57.124Zm27.744.918c-4.182,0-6.528-3.009-6.885-7.9H-1.5a13.818,13.818,0,0,0,.255-2.754c0-5.049-3.213-8.568-8.415-8.568-6.273,0-10.761,5.151-10.761,11.73,0,6.681,4.692,10.965,10.761,10.965a13.123,13.123,0,0,0,8.211-2.958l-.969-1.785A10.909,10.909,0,0,1-7.268,58.042Zm-3.111-16.269c2.091,0,3.366,1.428,3.468,5.712h-7.242C-13.949,43.762-12.623,41.773-10.379,41.773Zm36.516-2.958c-2.754,0-4.59,1.173-7.038,3.162V24.637l-.663-.357L9.97,28.36v.612l3.264,2.04V59.827A20.052,20.052,0,0,0,21.7,61.51c6.171,0,12.24-4.284,12.24-12.291C33.94,43.252,30.625,38.815,26.137,38.815ZM23.027,58.45A4.883,4.883,0,0,1,19.1,56.41V43.66a15,15,0,0,1,3.621-.459c3.009,0,5,2.5,5,7.548C27.718,55.645,26.189,58.45,23.027,58.45Zm35.9-.714-.2-.255V38.815l-.714-.357L49.6,42.538v.612l3.264,2.04V56.512a12.739,12.739,0,0,1-3.519.51c-2.805,0-3.978-1.122-3.978-4.743V39.172l-.714-.357L36.235,42.9v.612l3.264,2.04v9.945c0,3.876,2.04,6.018,5.865,6.018,2.958,0,5-1.479,7.5-3.57V61h8.364V57.736ZM73.822,44.782a23.2,23.2,0,0,1,6.375.867V39.07a3.62,3.62,0,0,0-1.479-.255c-1.938,0-4.233,1.479-6.732,3.774l-.663-3.672-.663-.357-7.65,3.927v.663l3.264,1.989V57.481l-.255.255h-2.3V61h11.73V57.736h-3.06l-.255-.255v-12.6C72.7,44.833,73.261,44.782,73.822,44.782Zm30.855-6.426-6.375,2.4a9.723,9.723,0,0,0-5.967-1.938c-5.1,0-9.537,3.57-9.537,8.721a6.91,6.91,0,0,0,3.162,6.018c-2.244,2.04-3.519,4.233-3.519,6.324a3.725,3.725,0,0,0,1.836,3.366c-2.4,1.632-3.672,3.417-3.672,5.355,0,2.856,2.754,4.488,8.007,4.488,8.211,0,14.331-3.621,14.331-9.282,0-3.468-2.5-5.049-7.14-5.049h-4.9c-3.213,0-4.029-.816-4.029-2.091a3.913,3.913,0,0,1,.816-2.244,11.054,11.054,0,0,0,3.774.612c5.1,0,9.639-3.06,9.639-8.262a7.622,7.622,0,0,0-1.275-4.335l4.284,1.326.714-.1V38.509ZM92.03,52.534c-2.142,0-3.264-2.244-3.264-5.865,0-3.723,1.377-5.406,3.06-5.406,2.04,0,3.366,2.346,3.366,6.069C95.192,51.106,93.764,52.534,92.03,52.534Zm-2.907,11.73h5c2.142,0,3.672.2,3.672,1.785,0,2.448-3.672,3.876-7.6,3.876-3.162,0-4.845-1.02-4.845-3.264a4.915,4.915,0,0,1,.816-2.7A12.258,12.258,0,0,0,89.123,64.264Zm29.886-6.222c-4.182,0-6.528-3.009-6.885-7.9h12.648a13.819,13.819,0,0,0,.255-2.754c0-5.049-3.213-8.568-8.415-8.568-6.273,0-10.761,5.151-10.761,11.73,0,6.681,4.692,10.965,10.761,10.965a13.123,13.123,0,0,0,8.211-2.958l-.969-1.785A10.909,10.909,0,0,1,119.009,58.042ZM115.9,41.773c2.091,0,3.366,1.428,3.468,5.712h-7.242C112.328,43.762,113.654,41.773,115.9,41.773Zm21.981,3.009a23.2,23.2,0,0,1,6.375.867V39.07a3.62,3.62,0,0,0-1.479-.255c-1.938,0-4.233,1.479-6.732,3.774l-.663-3.672-.663-.357-7.65,3.927v.663l3.264,1.989V57.481l-.255.255h-2.3V61h11.73V57.736h-3.06l-.255-.255v-12.6C136.757,44.833,137.318,44.782,137.878,44.782ZM154.454,61.51c5.253,0,8.313-2.5,8.313-6.63,0-3.009-1.836-4.845-5.763-6.834-2.754-1.377-4.9-2.4-4.9-4.284,0-1.071.816-1.989,2.4-1.989a4.725,4.725,0,0,1,3.213,1.479l2.958,3.519h.663V39.886a16.6,16.6,0,0,0-6.018-1.071c-5.1,0-8.466,2.295-8.466,6.171,0,3.111,1.581,4.9,5.457,7.14,2.55,1.479,5.2,2.142,5.2,4.284,0,1.173-.765,2.142-2.652,2.142a6.161,6.161,0,0,1-4.59-2.6l-2.8-3.468H146.8v7.344A20.058,20.058,0,0,0,154.454,61.51Zm15.912.255a3.825,3.825,0,1,0-3.825-3.825A3.82,3.82,0,0,0,170.365,61.765Z" transform="translate(382.097 142.816)"/>
    <g id="Group_2" data-name="Group 2" transform="translate(338.921 0)">
      <g transform="matrix(1, 0, 0, 1, -368.92, -6)" filter="url(#Path_4)">
        <path id="Path_4-2" data-name="Path 4" d="M29.22,58.439A47.524,47.524,0,1,0-18.305,10.914,47.525,47.525,0,0,0,29.22,58.439" transform="translate(387.23 42.61)" fill="#fff"/>
      </g>
      <path id="Path_212" data-name="Path 212" d="M30.162-13.068a21.72,21.72,0,0,0-.528-4.092l-1.188-.594a2.453,2.453,0,0,0,.594-1.254v-.264c-1.452-4.092-6.27-5.742-10.1-6.2.4-.2.594-.594.924-.924.462-.33,1.056-.132,1.518-.462.726-.462,3.828-2.508,3.828-3.3,0-.2-.264-.462-.33-.594,1.914-.792,2.64-3.1,2.64-5.148a15.016,15.016,0,0,0-.132-1.716,6.275,6.275,0,0,0-1.848-1.32c.33-.33.99-.726,1.056-1.122-1.782-3.7-6.072-5.148-9.966-5.148a14.344,14.344,0,0,0-5.544,1.122l-.726-.264c0-.264.2-.726-.2-.726-.264,0-.66.2-1.056.264A16.971,16.971,0,0,0,3.7-34.782c2.31-4.29,5.874-6.8,10.758-6.8,3.7,0,6.468,1.518,7.458,5.082.132.264.792,1.122.792,1.122a5.187,5.187,0,0,0-.792,1.188c-.924,4.62-6.27,7.788-10.032,10.23,5.346.858,12.87,2.508,12.87,9.372,0,1.518-.2,1.452,1.386,2.178-.462.4-1.056.726-1.518,1.188A11.86,11.86,0,0,1,13.4-3.432c-4.092,0-7.458-1.518-9.372-5.28l-.594.132A13.742,13.742,0,0,0,10.758.726L11.55.66l1.386-.726A12.806,12.806,0,0,0,16.83,0c4.158-.528,8.316-2.178,10.89-5.676.066-.2.924-1.386.924-1.518,0-.462-.792-.792-1.122-.924l1.848-.66A15.879,15.879,0,0,0,30.162-13.068Z" transform="translate(30.535 70.891)" fill="#2b2e34"/>
    </g>
  </g>
</svg>
