<svg xmlns="http://www.w3.org/2000/svg" xmlns:xlink="http://www.w3.org/1999/xlink" width="832.894" height="300.106" viewBox="0 0 832.894 300.106">
  <defs>
    <filter id="Path_1" x="0" y="26.525" width="832.894" height="273.581" filterUnits="userSpaceOnUse">
      <feOffset dy="3" input="SourceAlpha"/>
      <feGaussianBlur stdDeviation="10" result="blur"/>
      <feFlood flood-opacity="0.161"/>
      <feComposite operator="in" in2="blur"/>
      <feComposite in="SourceGraphic"/>
    </filter>
    <filter id="Path_4" x="359.921" y="0" width="113.05" height="113.048" filterUnits="userSpaceOnUse">
      <feOffset dy="3" input="SourceAlpha"/>
      <feGaussianBlur stdDeviation="3" result="blur-2"/>
      <feFlood flood-opacity="0.161"/>
      <feComposite operator="in" in2="blur-2"/>
      <feComposite in="SourceGraphic"/>
    </filter>
  </defs>
  <g id="Group_48" data-name="Group 48" transform="translate(30 6)">
    <g transform="matrix(1, 0, 0, 1, -30, -6)" filter="url(#Path_1)">
      <path id="Path_1-2" data-name="Path 1" d="M27.945,0C7.424,0-9.213,13.422-9.213,29.977v183.6H763.681V29.977C763.681,13.422,747.047,0,726.527,0Z" transform="translate(39.21 53.52)" fill="#e4e0f0"/>
    </g>
    <path id="Path_213" data-name="Path 213" d="M-247.886,0h2.448l12.75-29.325,4.59-3.06v-.765h-13.209v.765l4.59,3.06-8.262,20.451h-.2l-8.16-20.451,4.59-3.06v-.765h-16.269v.765l4.59,3.06Zm27.846-2.958c-4.182,0-6.528-3.009-6.885-7.9h12.648a13.819,13.819,0,0,0,.255-2.754c0-5.049-3.213-8.568-8.415-8.568-6.273,0-10.761,5.151-10.761,11.73C-233.2-3.774-228.506.51-222.437.51a13.123,13.123,0,0,0,8.211-2.958l-.969-1.785A10.909,10.909,0,0,1-220.04-2.958Zm-3.111-16.269c2.091,0,3.366,1.428,3.468,5.712h-7.242C-226.721-17.238-225.395-19.227-223.151-19.227Zm21.981,3.009a23.2,23.2,0,0,1,6.375.867V-21.93a3.62,3.62,0,0,0-1.479-.255c-1.938,0-4.233,1.479-6.732,3.774l-.663-3.672-.663-.357-7.65,3.927v.663l3.264,1.989V-3.519l-.255.255h-2.295V0h11.73V-3.264h-3.06l-.255-.255v-12.6C-202.292-16.167-201.73-16.218-201.17-16.218Zm29.631,12.954-.255-.255V-36.363l-.663-.357-8.466,4.08v.612l3.264,2.04v8.568a9.147,9.147,0,0,0-3.825-.765c-6.426,0-11.016,5.253-11.016,12.24,0,5.763,3.009,10.455,7.9,10.455,2.6,0,4.488-1.326,6.936-3.162V0h8.415V-3.264Zm-9.333-.612c-3.417,0-5.406-2.6-5.406-7.7,0-4.794,1.632-7.548,4.641-7.548,1.683,0,2.958.867,3.978,2.652V-4.335A13.147,13.147,0,0,1-180.872-3.876ZM-149-3.264l-.255-.255v-9.945c0-5.661-2.142-8.721-7.5-8.721a11.961,11.961,0,0,0-8.823,3.774l.969,1.938a10.037,10.037,0,0,1,5.355-1.887c2.958,0,4.131,1.785,4.131,5.253v.918c-8.823.918-11.373,3.876-11.373,7.7,0,3.774,2.6,5.049,5.049,5.049a11.545,11.545,0,0,0,6.324-2.346V0h8.415V-3.264Zm-8.874.153c-1.734,0-2.958-.867-2.907-2.8.051-2.295,1.683-3.417,5.661-3.774v6.12A11.1,11.1,0,0,1-157.871-3.111ZM-133.748.51a11.8,11.8,0,0,0,8.007-2.958l-.969-1.785a8.342,8.342,0,0,1-4.437,1.224c-3.519,0-6.834-2.856-6.834-9.231,0-4.539,1.377-6.987,3.978-6.987a4.167,4.167,0,0,1,2.805,1.173l3.876,5.2h.663v-8.211a17.411,17.411,0,0,0-5.967-1.122c-7.14,0-11.577,5.2-11.577,11.883C-144.2-3.774-140.123.51-133.748.51Zm32.64-3.774-.255-.255v-12.7c0-4.182-2.55-5.967-6.171-5.967-2.7,0-4.794,1.071-7.7,2.958V-36.363l-.714-.357-8.415,4.08v.612l3.264,2.04V-3.519l-.255.255h-2.3V0h10.965V-3.264h-2.295l-.255-.255V-17.187a15.751,15.751,0,0,1,3.927-.612c2.907,0,4.08,1.122,4.08,5.2v9.078l-.255.255h-2.295V0h10.965V-3.264ZM-88.715.51a12.036,12.036,0,0,0,7.65-2.958l-.969-1.785a8.909,8.909,0,0,1-3.774,1.122c-2.04,0-2.805-1.428-2.805-5.508v-9.537h6.783V-21.42h-6.783v-6.069h-.663l-8.313,8.67v.663h2.856l.255.255v11.73C-94.478-1.275-92.387.51-88.715.51Zm44.931-3.774-.255-.255V-15.963c0-3.825-2.04-6.222-5.967-6.222-2.856,0-4.9,1.275-7.9,3.264-.867-2.04-2.7-3.264-5.508-3.264-2.6,0-4.692,1.173-7.548,3.06l-.612-3.009-.663-.357-7.65,3.927v.663l3.264,1.989V-3.519l-.255.255h-2.3V0h10.965V-3.264h-2.295l-.255-.255V-17.187a16.081,16.081,0,0,1,4.284-.612c2.244,0,3.264,1.275,3.264,5.2v9.078l-.255.255h-2.3V0H-54.8V-3.264h-2.3l-.255-.255V-15.861a12.538,12.538,0,0,0-.1-1.428l.051.1a16.081,16.081,0,0,1,4.284-.612c2.193,0,3.213,1.275,3.213,5.2v9.078l-.255.255h-2.3V0h10.965V-3.264Zm22.083,0-.255-.255v-9.945c0-5.661-2.142-8.721-7.5-8.721a11.961,11.961,0,0,0-8.823,3.774l.969,1.938a10.037,10.037,0,0,1,5.355-1.887c2.958,0,4.131,1.785,4.131,5.253v.918c-8.823.918-11.373,3.876-11.373,7.7,0,3.774,2.6,5.049,5.049,5.049a11.545,11.545,0,0,0,6.324-2.346V0h8.415V-3.264Zm-8.874.153c-1.734,0-2.958-.867-2.907-2.8.051-2.295,1.683-3.417,5.661-3.774v6.12A11.1,11.1,0,0,1-30.575-3.111ZM-8.7-3.519V-36.363l-.714-.357-8.415,4.08v.612l3.264,2.04V-3.519l-.255.255h-2.3V0H-6.146V-3.264h-2.3Zm13.158.255-6.885-9.69L6.6-21.267v-.408H-4.667v.459L-1.76-18.36l-6.528,6.936L-.434,0H7.624V-3.264Zm17.34.306c-4.182,0-6.528-3.009-6.885-7.9H27.566a13.818,13.818,0,0,0,.255-2.754c0-5.049-3.213-8.568-8.415-8.568-6.273,0-10.761,5.151-10.761,11.73C8.645-3.774,13.337.51,19.406.51a13.123,13.123,0,0,0,8.211-2.958l-.969-1.785A10.909,10.909,0,0,1,21.8-2.958ZM18.692-19.227c2.091,0,3.366,1.428,3.468,5.712H14.918C15.122-17.238,16.448-19.227,18.692-19.227ZM53.116-3.213l-.255-.306v-12.7c0-4.182-2.55-5.967-6.171-5.967-2.754,0-4.9,1.071-7.905,3.06l-.612-3.009-.663-.357-7.65,3.927v.663l3.264,1.989V-3.519l-.255.255h-2.3V0H41.539V-3.264H39.244l-.255-.255V-17.187a15.751,15.751,0,0,1,3.927-.612c2.907,0,4.08,1.122,4.08,5.2v9.078l-.255.255h-2.3V0H55.411V-3.213Zm26.01-.051-.255-.255V-36.363l-.663-.357-8.466,4.08v.612l3.264,2.04v8.568a9.147,9.147,0,0,0-3.825-.765c-6.426,0-11.016,5.253-11.016,12.24C58.165-4.182,61.174.51,66.07.51c2.6,0,4.488-1.326,6.936-3.162V0h8.415V-3.264Zm-9.333-.612c-3.417,0-5.406-2.6-5.406-7.7,0-4.794,1.632-7.548,4.641-7.548,1.683,0,2.958.867,3.978,2.652V-4.335A13.147,13.147,0,0,1,69.793-3.876Zm27.744.918c-4.182,0-6.528-3.009-6.885-7.9H103.3a13.819,13.819,0,0,0,.255-2.754c0-5.049-3.213-8.568-8.415-8.568-6.273,0-10.761,5.151-10.761,11.73C84.379-3.774,89.071.51,95.14.51a13.123,13.123,0,0,0,8.211-2.958l-.969-1.785A10.909,10.909,0,0,1,97.537-2.958ZM94.426-19.227c2.091,0,3.366,1.428,3.468,5.712H90.652C90.856-17.238,92.182-19.227,94.426-19.227ZM126.1-16.218a23.2,23.2,0,0,1,6.375.867V-21.93a3.62,3.62,0,0,0-1.479-.255c-1.938,0-4.233,1.479-6.732,3.774l-.663-3.672-.663-.357-7.65,3.927v.663l3.264,1.989V-3.519l-.255.255H116V0h11.73V-3.264h-3.06l-.255-.255v-12.6C124.975-16.167,125.536-16.218,126.1-16.218ZM145.018.51c6.477,0,11.118-4.692,11.118-11.628S151.6-22.185,145.63-22.185c-6.63,0-11.118,5.151-11.118,11.883C134.512-3.774,138.8.51,145.018.51Zm1.02-3.009c-3.06,0-5.3-4.08-5.3-9.894,0-4.182,1.479-6.63,3.876-6.63,3.06,0,5.3,4.08,5.3,9.894C149.914-4.947,148.435-2.5,146.038-2.5Zm34.374-.765-.255-.255V-36.363l-.663-.357-8.466,4.08v.612l3.264,2.04v8.568a9.147,9.147,0,0,0-3.825-.765c-6.426,0-11.016,5.253-11.016,12.24,0,5.763,3.009,10.455,7.9,10.455,2.6,0,4.488-1.326,6.936-3.162V0h8.415V-3.264Zm-9.333-.612c-3.417,0-5.406-2.6-5.406-7.7,0-4.794,1.632-7.548,4.641-7.548,1.683,0,2.958.867,3.978,2.652V-4.335A13.147,13.147,0,0,1,171.079-3.876Zm35.8.612-.255-.255V-36.363l-.663-.357L197.5-32.64v.612l3.264,2.04v8.568a9.147,9.147,0,0,0-3.825-.765c-6.426,0-11.016,5.253-11.016,12.24,0,5.763,3.009,10.455,7.9,10.455,2.6,0,4.488-1.326,6.936-3.162V0h8.415V-3.264Zm-9.333-.612c-3.417,0-5.406-2.6-5.406-7.7,0-4.794,1.632-7.548,4.641-7.548,1.683,0,2.958.867,3.978,2.652V-4.335A13.147,13.147,0,0,1,197.548-3.876Zm27.744.918c-4.182,0-6.528-3.009-6.885-7.9h12.648a13.819,13.819,0,0,0,.255-2.754c0-5.049-3.213-8.568-8.415-8.568-6.273,0-10.761,5.151-10.761,11.73C212.134-3.774,216.826.51,222.9.51a13.123,13.123,0,0,0,8.211-2.958l-.969-1.785A10.909,10.909,0,0,1,225.292-2.958Zm-3.111-16.269c2.091,0,3.366,1.428,3.468,5.712h-7.242C218.611-17.238,219.938-19.227,222.181-19.227ZM233.911,0h10.965V-3.264h-2.295l-.255-.255V-36.363l-.714-.357L233.2-32.64v.612l3.264,2.04V-3.519l-.255.255h-2.295Zm21.573.51c5.253,0,8.313-2.5,8.313-6.63,0-3.009-1.836-4.845-5.763-6.834-2.754-1.377-4.9-2.4-4.9-4.284,0-1.071.816-1.989,2.4-1.989a4.725,4.725,0,0,1,3.213,1.479l2.958,3.519h.663v-6.885a16.6,16.6,0,0,0-6.018-1.071c-5.1,0-8.466,2.3-8.466,6.171,0,3.111,1.581,4.9,5.457,7.14,2.55,1.479,5.2,2.142,5.2,4.284,0,1.173-.765,2.142-2.652,2.142a6.161,6.161,0,0,1-4.59-2.6l-2.8-3.468h-.663v7.344A20.058,20.058,0,0,0,255.484.51ZM-275.426,61h10.965V57.736h-2.295l-.255-.255V24.637l-.714-.357-8.415,4.08v.612l3.264,2.04V57.481l-.255.255h-2.3Zm26.826-2.958c-4.182,0-6.528-3.009-6.885-7.9h12.648a13.819,13.819,0,0,0,.255-2.754c0-5.049-3.213-8.568-8.415-8.568-6.273,0-10.761,5.151-10.761,11.73,0,6.681,4.692,10.965,10.761,10.965a13.123,13.123,0,0,0,8.211-2.958l-.969-1.785A10.909,10.909,0,0,1-248.6,58.042Zm-3.111-16.269c2.091,0,3.366,1.428,3.468,5.712h-7.242C-255.281,43.762-253.954,41.773-251.711,41.773Zm17.289-6.987a3.537,3.537,0,0,0,3.519-3.57,3.526,3.526,0,0,0-3.519-3.519,3.537,3.537,0,0,0-3.57,3.519A3.548,3.548,0,0,0-234.421,34.786ZM-239.725,61h10.965V57.736h-2.295l-.255-.255V38.764l-.663-.306-8.466,4.029V43.1l3.264,2.04V57.481l-.255.255h-2.3Zm34.476-3.264-.255-.255V24.637l-.663-.357-8.466,4.08v.612l3.264,2.04V39.58a9.147,9.147,0,0,0-3.825-.765c-6.426,0-11.016,5.253-11.016,12.24,0,5.763,3.009,10.455,7.9,10.455,2.6,0,4.488-1.326,6.936-3.162V61h8.415V57.736Zm-9.333-.612c-3.417,0-5.406-2.6-5.406-7.7,0-4.794,1.632-7.548,4.641-7.548,1.683,0,2.958.867,3.978,2.652V56.665A13.147,13.147,0,0,1-214.583,57.124Zm27.744.918c-4.182,0-6.528-3.009-6.885-7.9h12.648a13.819,13.819,0,0,0,.255-2.754c0-5.049-3.213-8.568-8.415-8.568-6.273,0-10.761,5.151-10.761,11.73,0,6.681,4.692,10.965,10.761,10.965a13.123,13.123,0,0,0,8.211-2.958l-.969-1.785A10.909,10.909,0,0,1-186.838,58.042Zm-3.111-16.269c2.091,0,3.366,1.428,3.468,5.712h-7.242C-193.519,43.762-192.193,41.773-189.949,41.773Zm34.425,16.014-.255-.306v-12.7c0-4.182-2.55-5.967-6.171-5.967-2.754,0-4.9,1.071-7.9,3.06l-.612-3.009-.663-.357-7.65,3.927V43.1l3.264,1.989V57.481l-.255.255h-2.295V61H-167.1V57.736H-169.4l-.255-.255V43.813a15.751,15.751,0,0,1,3.927-.612c2.907,0,4.08,1.122,4.08,5.2v9.078l-.255.255h-2.295V61h10.965V57.787Zm22.083,3.723a12.036,12.036,0,0,0,7.65-2.958l-.969-1.785a8.909,8.909,0,0,1-3.774,1.122c-2.04,0-2.8-1.428-2.8-5.508V42.844h6.783V39.58h-6.783V33.511H-134l-8.313,8.67v.663h2.856l.255.255v11.73C-139.2,59.725-137.113,61.51-133.441,61.51Zm19.584,0c6.477,0,11.118-4.692,11.118-11.628s-4.539-11.067-10.506-11.067c-6.63,0-11.118,5.151-11.118,11.883C-124.363,57.226-120.079,61.51-113.857,61.51Zm1.02-3.009c-3.06,0-5.3-4.08-5.3-9.894,0-4.182,1.479-6.63,3.876-6.63,3.06,0,5.3,4.08,5.3,9.894C-108.961,56.053-110.44,58.5-112.837,58.5ZM-92.08,61.51a12.036,12.036,0,0,0,7.65-2.958l-.969-1.785a8.909,8.909,0,0,1-3.774,1.122c-2.04,0-2.805-1.428-2.805-5.508V42.844H-85.2V39.58h-6.783V33.511h-.663l-8.313,8.67v.663H-98.1l.255.255v11.73C-97.843,59.725-95.752,61.51-92.08,61.51Zm32.436-3.468c-4.182,0-6.528-3.009-6.885-7.9h12.648a13.818,13.818,0,0,0,.255-2.754c0-5.049-3.213-8.568-8.415-8.568-6.273,0-10.761,5.151-10.761,11.73,0,6.681,4.692,10.965,10.761,10.965a13.123,13.123,0,0,0,8.211-2.958l-.969-1.785A10.909,10.909,0,0,1-59.644,58.042Zm-3.111-16.269c2.091,0,3.366,1.428,3.468,5.712h-7.242C-66.325,43.762-65,41.773-62.755,41.773Zm25.092,16.269c-4.182,0-6.528-3.009-6.885-7.9H-31.9a13.818,13.818,0,0,0,.255-2.754c0-5.049-3.213-8.568-8.415-8.568-6.273,0-10.761,5.151-10.761,11.73,0,6.681,4.692,10.965,10.761,10.965a13.123,13.123,0,0,0,8.211-2.958l-.969-1.785A10.909,10.909,0,0,1-37.664,58.042Zm-3.111-16.269c2.091,0,3.366,1.428,3.468,5.712h-7.242C-44.345,43.762-43.019,41.773-40.775,41.773ZM-6.349,57.787l-.255-.306v-12.7c0-4.182-2.55-5.967-6.171-5.967-2.754,0-4.9,1.071-7.905,3.06l-.612-3.009-.663-.357-7.65,3.927V43.1l3.264,1.989V57.481l-.255.255h-2.3V61h10.965V57.736h-2.3l-.255-.255V43.813a15.751,15.751,0,0,1,3.927-.612c2.907,0,4.08,1.122,4.08,5.2v9.078l-.255.255h-2.3V61H-4.055V57.787ZM17.875,61.51h2.346L29.044,43.1l3.111-2.856V39.58H22.618v.714L25.474,43.1,20.425,54.064h-.153L15.58,43.1l2.856-2.856V39.58H6.094v.714L9.205,43.1Zm27.183-3.468c-4.182,0-6.528-3.009-6.885-7.9H50.822a13.818,13.818,0,0,0,.255-2.754c0-5.049-3.213-8.568-8.415-8.568-6.273,0-10.761,5.151-10.761,11.73,0,6.681,4.692,10.965,10.761,10.965a13.123,13.123,0,0,0,8.211-2.958L49.9,56.767A10.909,10.909,0,0,1,45.059,58.042ZM41.948,41.773c2.091,0,3.366,1.428,3.468,5.712H38.174C38.378,43.762,39.7,41.773,41.948,41.773Zm21.981,3.009a23.2,23.2,0,0,1,6.375.867V39.07a3.62,3.62,0,0,0-1.479-.255c-1.938,0-4.233,1.479-6.732,3.774l-.663-3.672-.663-.357-7.65,3.927v.663l3.264,1.989V57.481l-.255.255h-2.3V61h11.73V57.736H62.5l-.255-.255v-12.6C62.807,44.833,63.368,44.782,63.929,44.782ZM82.85,61.51c6.477,0,11.118-4.692,11.118-11.628S89.429,38.815,83.462,38.815c-6.63,0-11.118,5.151-11.118,11.883C72.344,57.226,76.628,61.51,82.85,61.51ZM83.87,58.5c-3.06,0-5.3-4.08-5.3-9.894,0-4.182,1.479-6.63,3.876-6.63,3.06,0,5.3,4.08,5.3,9.894C87.746,56.053,86.267,58.5,83.87,58.5Zm23.664,3.009c6.477,0,11.118-4.692,11.118-11.628s-4.539-11.067-10.506-11.067c-6.63,0-11.118,5.151-11.118,11.883C97.027,57.226,101.312,61.51,107.534,61.51Zm1.02-3.009c-3.06,0-5.3-4.08-5.3-9.894,0-4.182,1.479-6.63,3.876-6.63,3.06,0,5.3,4.08,5.3,9.894C112.429,56.053,110.951,58.5,108.553,58.5Zm23.205-13.719a23.2,23.2,0,0,1,6.375.867V39.07a3.62,3.62,0,0,0-1.479-.255c-1.938,0-4.233,1.479-6.732,3.774l-.663-3.672-.663-.357-7.65,3.927v.663l3.264,1.989V57.481l-.255.255h-2.3V61h11.73V57.736h-3.06l-.255-.255v-12.6C130.637,44.833,131.2,44.782,131.759,44.782Zm29.631,12.954-.255-.255V24.637l-.663-.357-8.466,4.08v.612l3.264,2.04V39.58a9.147,9.147,0,0,0-3.825-.765c-6.426,0-11.016,5.253-11.016,12.24,0,5.763,3.009,10.455,7.9,10.455,2.6,0,4.488-1.326,6.936-3.162V61h8.415V57.736Zm-9.333-.612c-3.417,0-5.406-2.6-5.406-7.7,0-4.794,1.632-7.548,4.641-7.548,1.683,0,2.958.867,3.978,2.652V56.665A13.147,13.147,0,0,1,152.056,57.124Zm27.744.918c-4.182,0-6.528-3.009-6.885-7.9h12.648a13.819,13.819,0,0,0,.255-2.754c0-5.049-3.213-8.568-8.415-8.568-6.273,0-10.761,5.151-10.761,11.73,0,6.681,4.692,10.965,10.761,10.965a13.123,13.123,0,0,0,8.211-2.958l-.969-1.785A10.909,10.909,0,0,1,179.8,58.042ZM176.69,41.773c2.091,0,3.366,1.428,3.468,5.712h-7.242C173.12,43.762,174.446,41.773,176.69,41.773ZM188.42,61h10.965V57.736H197.09l-.255-.255V24.637l-.714-.357-8.415,4.08v.612l3.264,2.04V57.481l-.255.255H188.42Zm18.768-26.214a3.545,3.545,0,1,0-3.57-3.57A3.537,3.537,0,0,0,207.187,34.786ZM201.883,61h10.965V57.736h-2.295l-.255-.255V38.764l-.663-.306-8.466,4.029V43.1l3.264,2.04V57.481l-.255.255h-2.3Zm35.751-3.213-.255-.306v-12.7c0-4.182-2.55-5.967-6.171-5.967-2.754,0-4.9,1.071-7.9,3.06l-.612-3.009-.663-.357-7.65,3.927V43.1l3.264,1.989V57.481l-.255.255h-2.295V61h10.965V57.736h-2.295l-.255-.255V43.813a15.751,15.751,0,0,1,3.927-.612c2.907,0,4.08,1.122,4.08,5.2v9.078l-.255.255h-2.295V61h10.965V57.787Zm27.234-19.431-6.375,2.4a9.723,9.723,0,0,0-5.967-1.938c-5.1,0-9.537,3.57-9.537,8.721a6.91,6.91,0,0,0,3.162,6.018c-2.244,2.04-3.519,4.233-3.519,6.324a3.725,3.725,0,0,0,1.836,3.366c-2.4,1.632-3.672,3.417-3.672,5.355,0,2.856,2.754,4.488,8.007,4.488,8.211,0,14.331-3.621,14.331-9.282,0-3.468-2.5-5.049-7.14-5.049h-4.9c-3.213,0-4.029-.816-4.029-2.091a3.913,3.913,0,0,1,.816-2.244,11.054,11.054,0,0,0,3.774.612c5.1,0,9.639-3.06,9.639-8.262a7.622,7.622,0,0,0-1.275-4.335l4.284,1.326.714-.1V38.509ZM252.221,52.534c-2.142,0-3.264-2.244-3.264-5.865,0-3.723,1.377-5.406,3.06-5.406,2.04,0,3.366,2.346,3.366,6.069C255.383,51.106,253.955,52.534,252.221,52.534Zm-2.907,11.73h5c2.142,0,3.672.2,3.672,1.785,0,2.448-3.672,3.876-7.6,3.876-3.162,0-4.845-1.02-4.845-3.264a4.915,4.915,0,0,1,.816-2.7A12.258,12.258,0,0,0,249.314,64.264Zm20.808-2.5A3.825,3.825,0,1,0,266.3,57.94,3.82,3.82,0,0,0,270.121,61.765Z" transform="translate(382.097 142.816)"/>
    <g id="Group_2" data-name="Group 2" transform="translate(338.921 0)">
      <g transform="matrix(1, 0, 0, 1, -368.92, -6)" filter="url(#Path_4)">
        <path id="Path_4-2" data-name="Path 4" d="M29.22,58.439A47.524,47.524,0,1,0-18.305,10.914,47.525,47.525,0,0,0,29.22,58.439" transform="translate(387.23 42.61)" fill="#fff"/>
      </g>
      <path id="Path_214" data-name="Path 214" d="M35.112-19.14l-1.056.264-.528,1.254L32.34-14.916l-2.244.132-4.422-.264.99-.792V-28.776L26.6-36.432l-.33-1.122.066-5.412-.4-6.072-3.96,5.61L-.132-10.89l2.442.132H19.932L21.648-8.25l-.132,2.838.792,1.65L19.536-2.9,19.47-1.518,15.312.132,22.11,0h4.884l5.94.132L32.868.066l-.462-1.254L26.8-2.706,26.664-7.92v-2.838l2.838-.066,1.254.4,1.188.462L33-7.128l.726.4ZM22.77-30.03l-1.122.594v2.244l.528.528-.528.66v11.418H5.61L21.648-38.148v7Z" transform="translate(26.535 69.891)" fill="#2b2e34"/>
    </g>
  </g>
</svg>
