<svg xmlns="http://www.w3.org/2000/svg" xmlns:xlink="http://www.w3.org/1999/xlink" width="832.894" height="300.106" viewBox="0 0 832.894 300.106">
  <defs>
    <filter id="Path_1" x="0" y="26.525" width="832.894" height="273.581" filterUnits="userSpaceOnUse">
      <feOffset dy="3" input="SourceAlpha"/>
      <feGaussianBlur stdDeviation="10" result="blur"/>
      <feFlood flood-opacity="0.161"/>
      <feComposite operator="in" in2="blur"/>
      <feComposite in="SourceGraphic"/>
    </filter>
    <filter id="Path_4" x="359.921" y="0" width="113.05" height="113.048" filterUnits="userSpaceOnUse">
      <feOffset dy="3" input="SourceAlpha"/>
      <feGaussianBlur stdDeviation="3" result="blur-2"/>
      <feFlood flood-opacity="0.161"/>
      <feComposite operator="in" in2="blur-2"/>
      <feComposite in="SourceGraphic"/>
    </filter>
  </defs>
  <g id="Group_48" data-name="Group 48" transform="translate(30 6)">
    <g transform="matrix(1, 0, 0, 1, -30, -6)" filter="url(#Path_1)">
      <path id="Path_1-2" data-name="Path 1" d="M27.945,0C7.424,0-9.213,13.422-9.213,29.977v183.6H763.681V29.977C763.681,13.422,747.047,0,726.527,0Z" transform="translate(39.21 53.52)" fill="#9a8ac7"/>
    </g>
    <path id="Path_209" data-name="Path 209" d="M-140.734.765c9.792,0,16.83-7.191,16.83-17.85,0-10.506-6.477-16.83-15.759-16.83-9.69,0-17.085,7.038-17.085,17.646C-156.748-5.559-150.067.765-140.734.765Zm.51-3.213c-5.763,0-9.384-5.2-9.384-14.637,0-8.568,3.621-13.617,9.384-13.617,5.661,0,9.18,5.559,9.18,14.382C-131.044-7.038-134.614-2.448-140.224-2.448Zm42.381-.765-.255-.306v-12.7c0-4.182-2.55-5.967-6.171-5.967-2.754,0-4.9,1.071-7.9,3.06l-.612-3.009-.663-.357-7.65,3.927v.663l3.264,1.989V-3.519l-.255.255h-2.3V0h10.965V-3.264h-2.295l-.255-.255V-17.187a15.751,15.751,0,0,1,3.927-.612c2.907,0,4.08,1.122,4.08,5.2v9.078l-.255.255h-2.295V0h10.965V-3.213ZM-84.328.51h2.346L-73.159-17.9l3.111-2.856v-.663h-9.537v.714l2.856,2.8L-81.778-6.936h-.153L-86.623-17.9l2.856-2.856v-.663H-96.109v.714L-93-17.9Zm27.183-3.468c-4.182,0-6.528-3.009-6.885-7.9h12.648a13.818,13.818,0,0,0,.255-2.754c0-5.049-3.213-8.568-8.415-8.568-6.273,0-10.761,5.151-10.761,11.73C-70.3-3.774-65.611.51-59.542.51a13.123,13.123,0,0,0,8.211-2.958L-52.3-4.233A10.909,10.909,0,0,1-57.145-2.958Zm-3.111-16.269c2.091,0,3.366,1.428,3.468,5.712H-64.03C-63.826-17.238-62.5-19.227-60.256-19.227Zm21.981,3.009a23.2,23.2,0,0,1,6.375.867V-21.93a3.62,3.62,0,0,0-1.479-.255c-1.938,0-4.233,1.479-6.732,3.774l-.663-3.672-.663-.357-7.65,3.927v.663l3.264,1.989V-3.519l-.255.255h-2.3V0h11.73V-3.264H-39.7l-.255-.255v-12.6C-39.4-16.167-38.836-16.218-38.275-16.218Zm16.626,12.7V-36.363l-.714-.357-8.415,4.08v.612l3.264,2.04V-3.519l-.255.255h-2.3V0H-19.1V-3.264h-2.3Zm13.158.255-6.885-9.69,9.027-8.313v-.408H-17.62v.459l2.907,2.856-6.528,6.936L-13.387,0h8.058V-3.264ZM-3.748,0H7.217V-3.264h-2.3l-.255-.255V-36.363l-.714-.357-8.415,4.08v.612l3.264,2.04V-3.519l-.255.255h-2.3ZM27.209-3.264l-.255-.255v-9.945c0-5.661-2.142-8.721-7.5-8.721a11.961,11.961,0,0,0-8.823,3.774l.969,1.938a10.037,10.037,0,0,1,5.355-1.887c2.958,0,4.131,1.785,4.131,5.253v.918c-8.823.918-11.373,3.876-11.373,7.7,0,3.774,2.6,5.049,5.049,5.049a11.545,11.545,0,0,0,6.324-2.346V0H29.5V-3.264Zm-8.874.153c-1.734,0-2.958-.867-2.907-2.8.051-2.295,1.683-3.417,5.661-3.774v6.12A11.1,11.1,0,0,1,18.335-3.111Zm30.957-.153-.255-.255v-9.945c0-5.661-2.142-8.721-7.5-8.721a11.961,11.961,0,0,0-8.823,3.774l.969,1.938a10.037,10.037,0,0,1,5.355-1.887c2.958,0,4.131,1.785,4.131,5.253v.918c-8.823.918-11.373,3.876-11.373,7.7C31.8-.714,34.4.561,36.848.561a11.545,11.545,0,0,0,6.324-2.346V0h8.415V-3.264Zm-8.874.153c-1.734,0-2.958-.867-2.907-2.8.051-2.295,1.683-3.417,5.661-3.774v6.12A11.1,11.1,0,0,1,40.418-3.111ZM64.133-16.218a23.2,23.2,0,0,1,6.375.867V-21.93a3.62,3.62,0,0,0-1.479-.255c-1.938,0-4.233,1.479-6.732,3.774l-.663-3.672-.663-.357-7.65,3.927v.663l3.264,1.989V-3.519l-.255.255h-2.3V0h11.73V-3.264H62.7l-.255-.255v-12.6C63.011-16.167,63.572-16.218,64.133-16.218ZM87.44-22.185c-2.754,0-4.59,1.173-7.038,3.162v-17.34l-.663-.357-8.466,4.08v.612l3.264,2.04V-1.173A20.052,20.052,0,0,0,83,.51c6.171,0,12.24-4.284,12.24-12.291C95.243-17.748,91.928-22.185,87.44-22.185ZM84.329-2.55A4.883,4.883,0,0,1,80.4-4.59V-17.34a15,15,0,0,1,3.621-.459c3.009,0,5,2.5,5,7.548C89.021-5.355,87.491-2.55,84.329-2.55Zm31.008-.714-.255-.255v-9.945c0-5.661-2.142-8.721-7.5-8.721a11.961,11.961,0,0,0-8.823,3.774l.969,1.938a10.037,10.037,0,0,1,5.355-1.887c2.958,0,4.131,1.785,4.131,5.253v.918c-8.823.918-11.373,3.876-11.373,7.7,0,3.774,2.6,5.049,5.049,5.049a11.545,11.545,0,0,0,6.324-2.346V0h8.415V-3.264Zm-8.874.153c-1.734,0-2.958-.867-2.907-2.8.051-2.295,1.683-3.417,5.661-3.774v6.12A11.1,11.1,0,0,1,106.463-3.111Zm23.715-13.107a23.2,23.2,0,0,1,6.375.867V-21.93a3.62,3.62,0,0,0-1.479-.255c-1.938,0-4.233,1.479-6.732,3.774l-.663-3.672-.663-.357-7.65,3.927v.663l3.264,1.989V-3.519l-.255.255h-2.3V0h11.73V-3.264h-3.06l-.255-.255v-12.6C129.056-16.167,129.617-16.218,130.178-16.218Zm21.573,13.26c-4.182,0-6.528-3.009-6.885-7.9h12.648a13.819,13.819,0,0,0,.255-2.754c0-5.049-3.213-8.568-8.415-8.568-6.273,0-10.761,5.151-10.761,11.73,0,6.681,4.692,10.965,10.761,10.965a13.123,13.123,0,0,0,8.211-2.958L156.6-4.233A10.909,10.909,0,0,1,151.751-2.958Zm-3.111-16.269c2.091,0,3.366,1.428,3.468,5.712h-7.242C145.07-17.238,146.4-19.227,148.639-19.227ZM-260.508,38.356l-6.375,2.4a9.723,9.723,0,0,0-5.967-1.938c-5.1,0-9.537,3.57-9.537,8.721a6.91,6.91,0,0,0,3.162,6.018c-2.244,2.04-3.519,4.233-3.519,6.324a3.725,3.725,0,0,0,1.836,3.366c-2.4,1.632-3.672,3.417-3.672,5.355,0,2.856,2.754,4.488,8.007,4.488,8.211,0,14.331-3.621,14.331-9.282,0-3.468-2.5-5.049-7.14-5.049h-4.9c-3.213,0-4.029-.816-4.029-2.091a3.913,3.913,0,0,1,.816-2.244,11.054,11.054,0,0,0,3.774.612c5.1,0,9.639-3.06,9.639-8.262a7.622,7.622,0,0,0-1.275-4.335l4.284,1.326.714-.1V38.509Zm-12.648,14.178c-2.142,0-3.264-2.244-3.264-5.865,0-3.723,1.377-5.406,3.06-5.406,2.04,0,3.366,2.346,3.366,6.069C-269.994,51.106-271.422,52.534-273.156,52.534Zm-2.907,11.73h5c2.142,0,3.672.2,3.672,1.785,0,2.448-3.672,3.876-7.6,3.876-3.162,0-4.845-1.02-4.845-3.264a4.915,4.915,0,0,1,.816-2.7A12.259,12.259,0,0,0-276.063,64.264Zm29.886-6.222c-4.182,0-6.528-3.009-6.885-7.9h12.648a13.819,13.819,0,0,0,.255-2.754c0-5.049-3.213-8.568-8.415-8.568-6.273,0-10.761,5.151-10.761,11.73,0,6.681,4.692,10.965,10.761,10.965a13.123,13.123,0,0,0,8.211-2.958l-.969-1.785A10.909,10.909,0,0,1-246.177,58.042Zm-3.111-16.269c2.091,0,3.366,1.428,3.468,5.712h-7.242C-252.858,43.762-251.532,41.773-249.288,41.773Zm26.826-2.958c-2.754,0-4.59,1.173-7.038,3.162V24.637l-.663-.357-8.466,4.08v.612l3.264,2.04V59.827A20.052,20.052,0,0,0-226.9,61.51c6.171,0,12.24-4.284,12.24-12.291C-214.659,43.252-217.974,38.815-222.462,38.815Zm-3.111,19.635a4.883,4.883,0,0,1-3.927-2.04V43.66a15,15,0,0,1,3.621-.459c3.009,0,5,2.5,5,7.548C-220.881,55.645-222.411,58.45-225.573,58.45Zm27.387-.408c-4.182,0-6.528-3.009-6.885-7.9h12.648a13.819,13.819,0,0,0,.255-2.754c0-5.049-3.213-8.568-8.415-8.568-6.273,0-10.761,5.151-10.761,11.73,0,6.681,4.692,10.965,10.761,10.965a13.123,13.123,0,0,0,8.211-2.958l-.969-1.785A10.909,10.909,0,0,1-198.186,58.042ZM-201.3,41.773c2.091,0,3.366,1.428,3.468,5.712h-7.242C-204.867,43.762-203.541,41.773-201.3,41.773Zm33.609,15.963-.2-.255V38.815l-.714-.357-8.415,4.08v.612l3.264,2.04V56.512a12.739,12.739,0,0,1-3.519.51c-2.805,0-3.978-1.122-3.978-4.743V39.172l-.714-.357-8.415,4.08v.612l3.264,2.04v9.945c0,3.876,2.04,6.018,5.865,6.018,2.958,0,5-1.479,7.5-3.57V61h8.364V57.736ZM-152.8,44.782a23.2,23.2,0,0,1,6.375.867V39.07a3.62,3.62,0,0,0-1.479-.255c-1.938,0-4.233,1.479-6.732,3.774l-.663-3.672-.663-.357-7.65,3.927v.663l3.264,1.989V57.481l-.255.255h-2.295V61h11.73V57.736h-3.06l-.255-.255v-12.6C-153.918,44.833-153.357,44.782-152.8,44.782Zm16.524,16.728a12.036,12.036,0,0,0,7.65-2.958l-.969-1.785a8.909,8.909,0,0,1-3.774,1.122c-2.04,0-2.8-1.428-2.8-5.508V42.844h6.783V39.58h-6.783V33.511h-.663l-8.313,8.67v.663h2.856l.255.255v11.73C-142.035,59.725-139.944,61.51-136.272,61.51Zm22.236-3.468c-4.182,0-6.528-3.009-6.885-7.9h12.648a13.819,13.819,0,0,0,.255-2.754c0-5.049-3.213-8.568-8.415-8.568-6.273,0-10.761,5.151-10.761,11.73,0,6.681,4.692,10.965,10.761,10.965a13.123,13.123,0,0,0,8.211-2.958l-.969-1.785A10.909,10.909,0,0,1-114.036,58.042Zm-3.111-16.269c2.091,0,3.366,1.428,3.468,5.712h-7.242C-120.717,43.762-119.391,41.773-117.147,41.773Zm34.425,16.014-.255-.306v-12.7c0-4.182-2.55-5.967-6.171-5.967-2.754,0-4.9,1.071-7.9,3.06l-.612-3.009-.663-.357-7.65,3.927V43.1l3.264,1.989V57.481l-.255.255h-2.3V61H-94.3V57.736h-2.295l-.255-.255V43.813a15.751,15.751,0,0,1,3.927-.612c2.907,0,4.08,1.122,4.08,5.2v9.078l-.255.255h-2.295V61h10.965V57.787Zm10.149-23a3.537,3.537,0,0,0,3.519-3.57A3.526,3.526,0,0,0-72.573,27.7a3.537,3.537,0,0,0-3.57,3.519A3.548,3.548,0,0,0-72.573,34.786ZM-77.877,61h10.965V57.736h-2.295l-.255-.255V38.764l-.663-.306-8.466,4.029V43.1l3.264,2.04V57.481l-.255.255h-2.295Zm21.42.51c5.253,0,8.313-2.5,8.313-6.63,0-3.009-1.836-4.845-5.763-6.834-2.754-1.377-4.9-2.4-4.9-4.284,0-1.071.816-1.989,2.4-1.989a4.725,4.725,0,0,1,3.213,1.479l2.958,3.519h.663V39.886a16.6,16.6,0,0,0-6.018-1.071c-5.1,0-8.466,2.295-8.466,6.171,0,3.111,1.581,4.9,5.457,7.14,2.55,1.479,5.2,2.142,5.2,4.284,0,1.173-.765,2.142-2.652,2.142a6.161,6.161,0,0,1-4.59-2.6l-2.805-3.468h-.663v7.344A20.058,20.058,0,0,0-56.457,61.51Zm18.972,0c5.253,0,8.313-2.5,8.313-6.63,0-3.009-1.836-4.845-5.763-6.834-2.754-1.377-4.9-2.4-4.9-4.284,0-1.071.816-1.989,2.4-1.989a4.725,4.725,0,0,1,3.213,1.479l2.958,3.519h.663V39.886a16.6,16.6,0,0,0-6.018-1.071c-5.1,0-8.466,2.295-8.466,6.171,0,3.111,1.581,4.9,5.457,7.14,2.55,1.479,5.2,2.142,5.2,4.284,0,1.173-.765,2.142-2.652,2.142a6.161,6.161,0,0,1-4.59-2.6l-2.805-3.468h-.663v7.344A20.058,20.058,0,0,0-37.485,61.51Zm23.97-3.468c-4.182,0-6.528-3.009-6.885-7.9H-7.752A13.818,13.818,0,0,0-7.5,47.383c0-5.049-3.213-8.568-8.415-8.568-6.273,0-10.761,5.151-10.761,11.73,0,6.681,4.692,10.965,10.761,10.965A13.123,13.123,0,0,0-7.7,58.552l-.969-1.785A10.909,10.909,0,0,1-13.515,58.042Zm-3.111-16.269c2.091,0,3.366,1.428,3.468,5.712H-20.4C-20.2,43.762-18.87,41.773-16.626,41.773ZM17.8,57.787l-.255-.306v-12.7c0-4.182-2.55-5.967-6.171-5.967-2.754,0-4.9,1.071-7.9,3.06l-.612-3.009-.663-.357-7.65,3.927V43.1l3.264,1.989V57.481l-.255.255h-2.3V61H6.222V57.736h-2.3l-.255-.255V43.813A15.751,15.751,0,0,1,7.6,43.2c2.907,0,4.08,1.122,4.08,5.2v9.078l-.255.255h-2.3V61H20.094V57.787Zm19.839-23a3.545,3.545,0,1,0-3.57-3.57A3.537,3.537,0,0,0,37.638,34.786ZM32.334,61H43.3V57.736H41l-.255-.255V38.764l-.663-.306L31.62,42.487V43.1l3.264,2.04V57.481l-.255.255H32.334Zm35.751-3.213-.255-.306v-12.7c0-4.182-2.55-5.967-6.171-5.967-2.754,0-4.9,1.071-7.905,3.06l-.612-3.009-.663-.357-7.65,3.927V43.1l3.264,1.989V57.481l-.255.255h-2.3V61H56.508V57.736H54.213l-.255-.255V43.813a15.751,15.751,0,0,1,3.927-.612c2.907,0,4.08,1.122,4.08,5.2v9.078l-.255.255h-2.3V61H70.38V57.787Zm24.99,3.723c6.477,0,11.118-4.692,11.118-11.628S99.654,38.815,93.687,38.815c-6.63,0-11.118,5.151-11.118,11.883C82.569,57.226,86.853,61.51,93.075,61.51ZM94.1,58.5c-3.06,0-5.3-4.08-5.3-9.894,0-4.182,1.479-6.63,3.876-6.63,3.06,0,5.3,4.08,5.3,9.894C97.971,56.053,96.492,58.5,94.1,58.5Zm35.649-.714-.255-.306v-12.7c0-4.182-2.55-5.967-6.171-5.967-2.754,0-4.9,1.071-7.9,3.06l-.612-3.009-.663-.357-7.65,3.927V43.1l3.264,1.989V57.481l-.255.255h-2.3V61h10.965V57.736h-2.295l-.255-.255V43.813a15.751,15.751,0,0,1,3.927-.612c2.907,0,4.08,1.122,4.08,5.2v9.078l-.255.255h-2.295V61h10.965V57.787ZM134.589,61h19.125V53.146H153.1l-2.958,4.59H142.8v-.2l10.761-16.983V39.58H135.15v7.854h.612l3.111-4.59h6.834V43.1L134.589,60.133Zm35.19-2.958c-4.182,0-6.528-3.009-6.885-7.9h12.648a13.819,13.819,0,0,0,.255-2.754c0-5.049-3.213-8.568-8.415-8.568-6.273,0-10.761,5.151-10.761,11.73,0,6.681,4.692,10.965,10.761,10.965a13.123,13.123,0,0,0,8.211-2.958l-.969-1.785A10.909,10.909,0,0,1,169.779,58.042Zm-3.111-16.269c2.091,0,3.366,1.428,3.468,5.712h-7.242C163.1,43.762,164.424,41.773,166.668,41.773ZM196.452,61.51c5.253,0,8.313-2.5,8.313-6.63,0-3.009-1.836-4.845-5.763-6.834-2.754-1.377-4.9-2.4-4.9-4.284,0-1.071.816-1.989,2.4-1.989a4.725,4.725,0,0,1,3.213,1.479l2.958,3.519h.663V39.886a16.6,16.6,0,0,0-6.018-1.071c-5.1,0-8.466,2.295-8.466,6.171,0,3.111,1.581,4.9,5.457,7.14,2.55,1.479,5.2,2.142,5.2,4.284,0,1.173-.765,2.142-2.652,2.142a6.161,6.161,0,0,1-4.59-2.6l-2.8-3.468H188.8v7.344A20.058,20.058,0,0,0,196.452,61.51Zm18.411,0a12.036,12.036,0,0,0,7.65-2.958l-.969-1.785a8.909,8.909,0,0,1-3.774,1.122c-2.04,0-2.8-1.428-2.8-5.508V42.844h6.783V39.58h-6.783V33.511H214.3l-8.313,8.67v.663h2.856l.255.255v11.73C209.1,59.725,211.191,61.51,214.863,61.51Zm26.877-3.774-.255-.255V47.536c0-5.661-2.142-8.721-7.5-8.721a11.961,11.961,0,0,0-8.823,3.774l.969,1.938a10.037,10.037,0,0,1,5.355-1.887c2.958,0,4.131,1.785,4.131,5.253v.918c-8.823.918-11.373,3.876-11.373,7.7,0,3.774,2.6,5.049,5.049,5.049a11.545,11.545,0,0,0,6.324-2.346V61h8.415V57.736Zm-8.874.153c-1.734,0-2.958-.867-2.907-2.805.051-2.295,1.683-3.417,5.661-3.774v6.12A11.1,11.1,0,0,1,232.866,57.889Zm34.884-.153-.255-.255V24.637l-.663-.357-8.466,4.08v.612l3.264,2.04V39.58a9.147,9.147,0,0,0-3.825-.765c-6.426,0-11.016,5.253-11.016,12.24,0,5.763,3.009,10.455,7.9,10.455,2.6,0,4.488-1.326,6.936-3.162V61h8.415V57.736Zm-9.333-.612c-3.417,0-5.406-2.6-5.406-7.7,0-4.794,1.632-7.548,4.641-7.548,1.683,0,2.958.867,3.978,2.652V56.665A13.147,13.147,0,0,1,258.417,57.124Zm19.431,4.641a3.825,3.825,0,1,0-3.825-3.825A3.82,3.82,0,0,0,277.848,61.765Z" transform="translate(382.097 142.816)" fill="#fff"/>
    <g id="Group_2" data-name="Group 2" transform="translate(338.921 0)">
      <g transform="matrix(1, 0, 0, 1, -368.92, -6)" filter="url(#Path_4)">
        <path id="Path_4-2" data-name="Path 4" d="M29.22,58.439A47.524,47.524,0,1,0-18.305,10.914,47.525,47.525,0,0,0,29.22,58.439" transform="translate(387.23 42.61)" fill="#fff"/>
      </g>
      <path id="Path_210" data-name="Path 210" d="M31.218-10.494l-.99.4c-.264,1.32-2.376,3.7-2.838,4.884C25.806-4.092,19.6-4.026,17.622-4.026L9.108-4.158c2.64-2.31,6.336-6.072,9.24-9.042,4.95-5.082,10.1-11.418,10.89-18.942a13.7,13.7,0,0,0,.066-2.31,10.073,10.073,0,0,0-.2-1.98c-.132-.264-1.254-.924-1.386-1.188-.066-.2.66-.858.528-1.056a10.28,10.28,0,0,0-2.97-4.29,13.219,13.219,0,0,0-7.194-2.64,17.267,17.267,0,0,0-4.884.066c-.4-.726-.726-1.452-1.056-2.178-.132,0-.792-.264-.858-.264a16.14,16.14,0,0,0-2.244,2.046,18.806,18.806,0,0,0-4.224,7.392c-.132.528-.858,3.7-.858,3.7s.858.132.99,0A41.485,41.485,0,0,1,9.042-41.91a9.91,9.91,0,0,1,4.818-1.122c5.148,0,8.514,3.234,9.57,7.788a9.553,9.553,0,0,1,.264,1.98,8.649,8.649,0,0,1,0,1.848c.066.4,1.386,1.056,1.386,1.386,0,1.056-1.716,2.574-2.046,3.564a21.646,21.646,0,0,1-1.584,3.63c-.066.132,1.122.594,1.056.726-.066.2-1.848.792-1.98,1.056A71.191,71.191,0,0,1,8.448-6.336c-.132.132.132.99-.066,1.122-.132.132-1.65.462-1.848.594-.33.264-.858.726-1.122.99A52.778,52.778,0,0,1,.99,0C5.61.066,18.744-.066,23.364.132c.066.792,2.31,1.65,2.31,1.65L27.918.99l.528-.462s.528-1.848.594-2.244c.066-.264-1.188-.99-1.188-1.254.066-.4,1.848-1.254,1.914-1.716C29.964-5.94,31.086-9.174,31.218-10.494Z" transform="translate(30.535 70.891)" fill="#2b2e34"/>
    </g>
  </g>
</svg>
