<svg xmlns="http://www.w3.org/2000/svg" width="162.821" height="198.781" viewBox="0 0 162.821 198.781">
  <g id="Group_112" data-name="Group 112" transform="translate(-472.605 -294.949)">
    <path id="Path_64" data-name="Path 64" d="M11.889,56.851s5.252,31.9,9.23,46.281S54.026,134.61,54.026,134.61s-15.842-53.673-17.2-61.895-.439-23.168,3.294-35.452S52.385,15,79.868,2.683c31.178-4.714,58.766,21.488,66.322,29.018,4.087,4.073,7.945,11.631,10.625,17.712a7.664,7.664,0,0,0-3.151,1.126c-7.7,4.707-11.136,10.827-16.039,17.995-3.614,5.284-7.694,9.089-9.279,14.4l-7.616,1.819-9.181-5.2-11.325-8.085-6.069,1.994L91.695,84.749,90.6,95.394l3.96,18.873,15.162,34.32c8.381,45.515-15.36,43.3-29.364,42.525C21.5,182.172,5.8,126.548,2.338,106.465s9.551-49.614,9.551-49.614" transform="translate(473.931 296.275)" fill="#9a8ac7"/>
    <path id="Union_1" data-name="Union 1" d="M88.707,197.691a88.328,88.328,0,0,1-53.9-21.145c-8.627-7.236-16.05-16.918-22.7-29.59a107.16,107.16,0,0,1-11.5-40.634C-.666,91.765-.73,74.8,8.465,59.409a28.573,28.573,0,0,1,5.277-6.387c.13-.118.266-.252.41-.385,1.038-1,2.323-2.245,3.737-1.081a4.5,4.5,0,0,1,1.894,4.688,57.338,57.338,0,0,0-1.239,8.479C17.055,86.084,23.09,105.254,36.475,121.7a38.21,38.21,0,0,0,3.259,3.488l-.269-.213.269.213c2.059,1.966,4.3,3.777,6.5,5.546,1.565,1.264,3.183,2.567,4.7,3.905l.15.13,1.046-.781c.524.335.987.626,1.379.87-.391-.244-.854-.535-1.377-.87l.264-.2-.054-.167q-1.315-4.079-2.644-8.153c-1.917-5.879-3.9-11.956-5.7-17.98C37.649,86.181,35.041,69.7,35.552,54.041,36.264,32.294,47.68,14.893,66.093,7.5c1.63-.659,3.265-1.379,4.847-2.075,4.571-2.012,9.3-4.1,14.4-4.8,13.8-1.895,26.211.544,36.9,7.261,14.463,9.084,25.671,19.11,34.274,30.653a37.579,37.579,0,0,1,4.215,7.072c.377,1.031.67,1.869.862,2.47a5.807,5.807,0,0,1,.291,1.956L135.863,75.41l-1.732,7.757c-5.7,6.838-7.954,6.687-7.954,6.687l-.032.393-.16.111a63.623,63.623,0,0,0-8.127-1.734h-.011c0-.084.015-.149.007-.241l-.017-.171-.166-.042c-5.452-1.42-8.969-4.331-10.749-8.9-1-2.557-3.44-3.174-5.6-3.717-.58-.146-1.129-.285-1.647-.455a1.451,1.451,0,0,0-1.247.067c-.685.413-.856,1.432-1.009,2.332a7.651,7.651,0,0,1-.161.8,45.138,45.138,0,0,0-.711,22.985,259.451,259.451,0,0,0,17.521,50.24c4.678,10.086,4.655,20.948-.067,32.282-4.679,11.229-11.443,13.969-21.9,13.968C91.012,197.774,89.88,197.744,88.707,197.691Zm-4.238-5.284c.186.038.377.074.577.1a17.737,17.737,0,0,0,4.149,0c.185-.021.37-.036.555-.063,1.087-.151,4.669-.77,5.162-2.365h0a40.5,40.5,0,0,1,1.682-4.293c1.2-2.753,2.333-5.355,2.133-8.061h0c.787-5.083,1.149-7.4.1-8.6-.974-1.119-3.014-1.082-7.073-1.015l-.224,0a3.133,3.133,0,0,0-2.339.653,2.392,2.392,0,0,0-.405,1.883c.615,6.858-2.436,12.682-5.342,17.6a4.462,4.462,0,0,1-.469.594c-.558.638-1.253,1.441-.558,2.512a3.172,3.172,0,0,0,2.048,1.047c-1.1-.053-2.162-.116-3.175-.172C82.307,192.292,83.371,192.354,84.469,192.407Zm4.858.1a34.608,34.608,0,0,0,8.335-1.011A34.662,34.662,0,0,1,89.327,192.511Zm-8.034-.276C24.386,183.59,7.819,131.312,3.652,109.7,7.819,131.312,24.386,183.592,81.294,192.234Zm16.342-.6.351-.06a13.21,13.21,0,0,0,10.2-7.331c2.032-3.946,3.026-9.539,3.13-17.075l.006-.5-.4.308a6.538,6.538,0,0,1-3.518.928c-1.963.154-3.994.316-4.411,2.91a86.332,86.332,0,0,1-2.764,10.925c-.926,3.091-1.885,6.286-2.526,9.548l-.041.21Zm-23.6-27.255a2.69,2.69,0,0,0-.886,1.661c-1.312,7.35-5.623,13.038-9.93,18.235-.765.921-1.025,1.518-.876,1.985.188.587.932.784,1.979,1.062.622.166,1.245.325,1.871.486a55.331,55.331,0,0,1,7.109,2.166,7.2,7.2,0,0,0,1.693.48c1.957.282,3.545-.561,5-2.6l.325-.447c2.62-3.644,5.329-7.412,5.287-11.925.045-.311.087-.57.125-.8a9.319,9.319,0,0,0,.134-1.048,11.456,11.456,0,0,1,.306-1.863c.368-1.7.787-3.627-.967-4.537a32.657,32.657,0,0,0-8.079-2.5c-.756-.162-1.514-.328-2.259-.5a1.022,1.022,0,0,0-.256-.033A1.044,1.044,0,0,0,74.034,164.384ZM55.2,155.292c-1.117.476-1.314,2.263-1.54,4.33a34.2,34.2,0,0,1-4.522,13.236c-1.246,2.142-1.631,3.782-1.215,5.154.525,1.735,2.308,2.812,4.156,3.719a17.225,17.225,0,0,1,1.681.989,16.028,16.028,0,0,0,1.967,1.126,6.563,6.563,0,0,0,1.715.545v0a3.5,3.5,0,0,0,3.194-1.281c4.673-4.885,7.4-10.647,10.741-18.255a1.235,1.235,0,0,0,.134-1c-.2-.68-.987-1.353-2.4-2.055-1.116-.554-2.291-1.051-3.429-1.533a29.527,29.527,0,0,1-6.565-3.446c-1.44-1.108-2.516-1.642-3.324-1.642A1.506,1.506,0,0,0,55.2,155.292ZM40.231,145.2c-.594.28-.915,1.024-.983,2.275-.046.893-.122,1.786-.2,2.681a37,37,0,0,0-.15,6.76c.421,4.1,1.155,8.225,1.861,12.218q.307,1.731.606,3.457a3.567,3.567,0,0,0,3.145,2.842l.068.01c1.4.178,1.716-.918,1.971-1.8v-.008a4.905,4.905,0,0,1,.344-.947,46.694,46.694,0,0,0,3.69-10.6c.389-1.5.791-3.051,1.252-4.551,1.04-2.859.264-4.983-2.436-6.681-1.7-1.068-3.329-2.32-4.907-3.53-.616-.474-1.233-.947-1.855-1.411a3.406,3.406,0,0,0-1.884-.833A1.213,1.213,0,0,0,40.231,145.2ZM29.075,134.884c-2.822,9.041,1.292,27.238,7.218,31.919l.355.283.039-.455a32.9,32.9,0,0,0-.334-6.675h0c-.353-2.982-.721-6.065.107-9.093,1.841-6.744-.455-12.014-7.02-16.115l-.268-.167Zm81.582,14.826a93.722,93.722,0,0,1,1.747,16.876A93.722,93.722,0,0,0,110.658,149.71Zm-16.27,15.974c1.288.247,2.617.5,3.362-.134a1.872,1.872,0,0,0,.55-1.573,5.74,5.74,0,0,0-1.952-4.123A8.042,8.042,0,0,0,90.27,158l-.062,0-.053.033c-.262.16-.9-.049-1.473-.236-.807-.265-1.641-.538-2.182-.142a1.444,1.444,0,0,0-.468,1.267h0a7.161,7.161,0,0,0,2.02,5.274,4.836,4.836,0,0,0,2.623,1.205,6.87,6.87,0,0,0,1.573.031h.087A8.709,8.709,0,0,1,94.388,165.684Zm10.406-15.9v0a8.8,8.8,0,0,0-.628,1.032,3.361,3.361,0,0,1-1.192,1.507c-2.382,1.106-3.73,2.378-4.121,3.891-.578,2.218,1.014,4.655,2.693,6.96a7.131,7.131,0,0,1,.594,1.044c.382.768.773,1.554,1.684,1.682a3.039,3.039,0,0,0,1.523-.255c.312-.121.636-.226.96-.334,2.036-.674,4.343-1.438,4.335-5.877l-.007-.062c-.154-.577-.321-1.254-.507-2-.532-2.128-1.192-4.776-2.055-7.386a1.747,1.747,0,0,0-1.277-1.332l-.025,0h-.023A2.257,2.257,0,0,0,104.794,149.788Zm-31.252,3.741c-.244,5.632,1.759,8.591,6.292,9.237.32.045.647.08.989.1a5.168,5.168,0,0,1,.589.09c.726.144,1.64.319,2.158-.736a2.381,2.381,0,0,0-.369-2.342c-.091-.163-.182-.328-.264-.493v0c-1.045-2.185-2.924-2.947-4.913-3.755a12.892,12.892,0,0,1-4.069-2.276l-.389-.352Zm-18.1-7.59h0c-.613,6.267.471,7.221,14.523,12.776l.326.129.008-.348c.154-5.4-2.155-6.559-9.8-10.374-1.381-.69-2.941-1.468-4.7-2.378l-.323-.166Zm44.948-4.411a33.729,33.729,0,0,1-11.6,4.284c-2.459.4-4.461.98-4.033,3.987-.449,2.009-.595,2.958-.135,3.569a2.253,2.253,0,0,0,1.568.679c.463.066,1.012.1,1.651.142A14.708,14.708,0,0,0,103.1,143.992c.043-.148.1-.3.154-.451.277-.771.621-1.73-.464-2.3h0a2.849,2.849,0,0,0-2.395.283ZM18.45,120.457c-2.456,10.5.417,26.879,7.8,32.253l.405.3-.018-.507c-.053-1.289-.215-2.535-.372-3.741a23.715,23.715,0,0,1-.29-5.658c.811-7.773,1-16.581-7.143-22.785l-.3-.229Zm52.04,27.175.175.079q1.155.517,2.306,1.029c1.892.836,3.845,1.705,5.735,2.614l.279.14a4.117,4.117,0,0,0,1.16.45,1,1,0,0,0,.61-.085,1.639,1.639,0,0,0,.72-1.277c.023-.135.053-.268.08-.4v0a3.281,3.281,0,0,0-.112-2.527,1.965,1.965,0,0,0-1.459-.747c-2.092-.284-4.231-.428-6.3-.562-.9-.061-1.8-.12-2.692-.191l-.219-.017ZM40.909,135.215v0a3.889,3.889,0,0,0-1.178,3.05,4.352,4.352,0,0,0,1.8,3.127c.785.588,1.557,1.24,2.306,1.866a20.573,20.573,0,0,0,6.415,4.15l.22.074.087-.216c1.908-4.79-.784-6.865-3.395-8.872-.637-.494-1.3-1-1.865-1.539a10.017,10.017,0,0,1-.7-.773c-.615-.73-1.295-1.565-2.185-1.594A2.015,2.015,0,0,0,40.909,135.215Zm35.263,8.712c1.544.363,3.306.772,4.355-1.382.643-1.313.292-3.318-.957-5.5-1.2-2.1-3.386-4.428-5.422-4.718-.063-.01-.13-.017-.2-.021a41.059,41.059,0,0,1-10.989-2.092c-.131-.049-.27-.1-.408-.162-.823-.341-1.961-.809-2.827.412-.827,1.166.182,4.306.51,5.243.876,2.487,2.351,5.166,3.674,5.543h0c2.222.63,4.508,1.2,6.72,1.759q1.444.362,2.9.731l.067.017.063-.019a5.287,5.287,0,0,1,2.513.194Zm21.208-20.285h0a30.152,30.152,0,0,1-13.545,8.466l-.275.075a3.079,3.079,0,0,0-2,1.143,1.957,1.957,0,0,0-.087,1.525c.441,1.564.944,3.137,1.431,4.657q.331,1.04.659,2.079a2.642,2.642,0,0,0,1.188,1.7,1.617,1.617,0,0,0,.5.159,2.248,2.248,0,0,0,1.028-.12c1.575-.531,3.227-.916,4.824-1.29a35.618,35.618,0,0,0,7.348-2.3c2.608-1.245,3.419-2.927,2.627-5.456l-3.412-10.935Zm-67.093,1.082c-1.73,4.469.646,6.655,3.155,8.968a16.116,16.116,0,0,1,3.241,3.657l.257.45.184-.483v0c2.178-5.76.6-8.849-6.492-12.716l-.244-.134Zm24.669,11.011s-15.843-53.676-17.2-61.894c1.354,8.194,17.106,61.574,17.2,61.894ZM9.471,102.925c-2.822,8.8-1.556,17.21,4.234,28.12l.321.607.135-.677h0c1.973-9.96,3.131-19.606-4.274-28.139l-.286-.327Zm81.713-.417q-.751.551-1.483,1.091c-3.461,2.554-6.452,4.76-10.148,6.02-3.383,1.15-5.467,2.13-6.126,3.736-.68,1.649.148,3.885,1.915,7.439a13.6,13.6,0,0,0,.768,1.309,11.487,11.487,0,0,1,.87,1.539c1.34,3.1,2.443,5.014,4.095,5.654a3.625,3.625,0,0,0,.783.2c1.491.212,3.319-.42,5.8-1.54,7.524-3.389,9.114-6.92,6.55-14.526a51.731,51.731,0,0,1-2.639-10.753l-.049-.415ZM53.306,109.94c.375,1.37.744,2.691,1.105,3.981.914,3.292,1.783,6.4,2.542,9.52l.037.149c.267,1.106.544,2.25,1.875,2.543,4.57,1,9.142,1.917,13.4,2.758.121.026.242.045.354.061a2.082,2.082,0,0,0,1.979-.44c.44-.512.437-1.369-.013-2.618q-.957-2.678-1.915-5.354-1.248-3.519-2.519-7.031h0c-.188-.52-.771-2.1-2.263-1.855-2.967.494-5.772-.193-8.744-.924a42.073,42.073,0,0,0-5.58-1.1l-.358-.037Zm-33.019-1.9c-1.93,6.924,1.522,10.75,4.863,14.451.39.431.78.864,1.16,1.3l.3.34.123-.433h0c1.406-4.936-.92-8.215-3.381-11.7a41.051,41.051,0,0,1-2.611-4.015l-.289-.529ZM12.773,84.967c-3.472,7.9-.193,14.606,3.279,21.7.309.632.621,1.267.931,1.911l.278.58.178-.618c1.632-5.732-.153-10.382-1.881-14.88a27.987,27.987,0,0,1-2.315-8.609l-.053-1.037ZM63.523,108.7c.179.032.352.062.519.085,1.733.247,2.886.032,3.517-.655.676-.736.753-1.948.242-3.816a45.864,45.864,0,0,1-1.766-11.948c-.017-2.391-1.458-2.533-2.84-2.668a26.175,26.175,0,0,1-11.051-3.321,27.968,27.968,0,0,0-5.287-2.188c-.839-.283-1.706-.575-2.564-.9l-.4-.153.074.424a38.389,38.389,0,0,0,2.269,7.392,40.847,40.847,0,0,1,1.845,5.574l0,0C49.929,104.623,55.591,107.249,63.523,108.7ZM89.738,87.361c-3.138,1.717-6.119,2-9,2.282-.51.05-1.017.1-1.519.154l-.488.055c-5.047.563-7.58.842-8.747,2.314s-.862,4.016-.26,9.095c.026.233.06.464.093.694.053.383.1.766.138,1.151.21,2.414.848,3.888,2.007,4.633a3.374,3.374,0,0,0,1.37.494,8.26,8.26,0,0,0,3.785-.587c5.588-1.962,9.836-4.661,12.985-8.254,1.5-1.718,1.007-3.752.526-5.719h0a10.213,10.213,0,0,1-.448-3.5,7.5,7.5,0,0,0-.018-1.389c-.02-.333-.047-.728-.067-1.22l-.015-.395ZM3.1,106.519A45.244,45.244,0,0,1,2.68,100.2,45.244,45.244,0,0,0,3.1,106.519ZM68.991,82.783a12.932,12.932,0,0,1-.346,2.254,1.893,1.893,0,0,0,.082,1.557c.415.688,1.355.877,2.263,1.06.307.06.608.12.884.2a7.13,7.13,0,0,0,.962.207,13.231,13.231,0,0,0,4.664-.421,17.564,17.564,0,0,1,3.266-.486c5.1-.113,7.811-.614,9.291-2.656a8.423,8.423,0,0,0,1.308-3.528,38.776,38.776,0,0,0,.467-4.982l.012-.285-.281.031c-2.334.247-4.663.691-6.919,1.12-3.994.759-8.125,1.545-12.36,1.244-.1-.007-.2-.011-.3-.011C69.451,78.087,69.209,80.576,68.991,82.783ZM43.762,79.428c1.929.786,3.831,1.75,5.67,2.687C53.148,84,56.985,85.952,61.32,86.573c.234.033.47.062.705.088,2.692.288,3.666-.339,4.532-2.925.814-2.426,1.459-4.723.446-6.182-.714-1.03-2.2-1.569-4.536-1.65a2.728,2.728,0,0,1-1.281-.575,8.151,8.151,0,0,0-.723-.428,111.31,111.31,0,0,1-18.9-11.346l-.454-.347.061.568c.124,1.175.171,2.335.215,3.457a28.757,28.757,0,0,0,.5,5.093,13.048,13.048,0,0,1,.184,2.5h0C42.082,76.75,42.107,78.753,43.762,79.428Zm68.713,1.241,9.183,5.2,7.616-1.82-7.616,1.818-9.183-5.2L101.15,72.582l-6.069,1.994-3.716,6.393,3.716-6.392,6.069-1.994Zm42.117-29.007c-7.7,4.707-11.137,10.827-16.04,17.994-3.614,5.284-7.7,9.089-9.279,14.4,1.583-5.306,5.665-9.112,9.279-14.4,4.9-7.167,8.344-13.288,16.04-17.994a7.643,7.643,0,0,1,3.15-1.126h0A7.661,7.661,0,0,0,154.592,51.661ZM120.158,64.4a8.667,8.667,0,0,1-1.411,1.779c-.547.47-1.082.974-1.6,1.461-.5.464-1,.941-1.544,1.41-2.872,2.475-4.314,3.712-4.309,5.041s1.472,2.574,4.4,5.062a4.215,4.215,0,0,1,.469.508,2.266,2.266,0,0,0,.967.814,13.2,13.2,0,0,1,2.532,1.225A10.235,10.235,0,0,0,123.32,83.2a6.283,6.283,0,0,0,3.02-.334,7.53,7.53,0,0,0,2.333-1.283l0,0a54.066,54.066,0,0,1,2.531-6.559,41.319,41.319,0,0,1,2.618-4.729.7.7,0,0,0-.128-.267c-2.2-2.746-5.228-6.121-9.188-7.869a3.031,3.031,0,0,0-1.23-.289C121.835,61.87,120.958,63.2,120.158,64.4ZM11.459,65.9C6.651,72.667,6.2,76.6,9.533,82.72l.238.439.2-.458A27.7,27.7,0,0,0,11.9,66l-.1-.58Zm61.7,4.88a3.64,3.64,0,0,0-1.264,2.7,2.328,2.328,0,0,0,.488,1.964,1.923,1.923,0,0,0,1.142.515,7.551,7.551,0,0,0,1.665-.023c.227-.021.444-.039.645-.049a44.04,44.04,0,0,0,11.9-1.836L87.884,74l.166-1.889-.23-.033c-1.174-.167-2.354-.323-3.53-.48-2.721-.358-5.535-.731-8.267-1.254a3.567,3.567,0,0,0-2.864.438ZM45.665,48.731c-.443.352-.931.691-1.405,1.018-1.676,1.159-3.411,2.357-3.563,4.395v.017c0,.4-.017.784-.031,1.138h0c-.06,1.49-.107,2.668.9,3.709,6.377,6.587,14.524,11.592,24.9,15.3a3.426,3.426,0,0,0,.662.167c1.988.284,2.836-1.746,3.474-3.267.087-.211.173-.415.259-.607a2.069,2.069,0,0,0,.133-1.746,3.363,3.363,0,0,0-2.259-1.389A32.147,32.147,0,0,1,47.959,50.2l-.1-.208c-.272-.584-.648-1.382-1.271-1.528a1.042,1.042,0,0,0-.205-.021A1.058,1.058,0,0,0,45.665,48.731Zm-7.908,25.11a54.052,54.052,0,0,1-.595-8.587A54.05,54.05,0,0,0,37.756,73.841Zm62.553-14.8-.9,1.313a28.255,28.255,0,0,0-2.23,3.631,2.8,2.8,0,0,0,1.144,3.991c1.536.852,3.135,1.666,4.674,2.452.665.34,1.334.68,2,1.027l.044.023h.054a4.738,4.738,0,0,1,.593.085c.118.021.24.042.36.059a1.708,1.708,0,0,0,1.034-.091l0,0a29.673,29.673,0,0,0,12.4-11.332,1.971,1.971,0,0,0,.276-1.554,3.342,3.342,0,0,0-1.828-1.766c-2.138-1.137-3.837-2.154-5.2-2.971-2.455-1.469-3.97-2.34-5.262-2.34C105.443,51.561,103.972,53.7,100.309,59.038ZM93.168,45.384a10.5,10.5,0,0,0-7.446,4.034,23.849,23.849,0,0,0-3.751,7.034c-.994,2.929-1.449,4.384-.9,5.421.568,1.074,2.142,1.524,5.287,2.413.827.235,1.651.518,2.455.785.364.124.727.248,1.089.365l.039.014h.042a5.62,5.62,0,0,1,.978.111c.991.166,2.143.37,2.866-1.284v0c2-4.6,5-8.709,7.9-12.685l.33-.45c.529-.717,1.13-1.531.017-2.552a11.9,11.9,0,0,0-8.15-3.228C93.673,45.36,93.421,45.368,93.168,45.384Zm49.175-8.5c-2.375,5.948-6.839,10.3-11.156,14.51-.81.788-1.617,1.576-2.42,2.379-1.729,1.737-2.862,2.968-2.827,4.206.041,1.36,1.354,2.586,4.317,5.226a6.693,6.693,0,0,0,3.223,1.915,2.653,2.653,0,0,0,.681.01c1.117-.132,2.17-1,3.422-2.8,2.863-4.121,7.142-6.818,11.282-9.428,1.892-1.194,3.848-2.428,5.656-3.786a1.868,1.868,0,0,1,.544-.23,1.339,1.339,0,0,0,1.185-1.426v-.087l-.057-.067c-.106-.124-.231-.248-.359-.377a3.065,3.065,0,0,1-.691-.876,22.006,22.006,0,0,0-4.609-6.247,37.734,37.734,0,0,1-2.9-3.333c-.968-1.31-2.055-1.956-3.058-1.827l0,0C143.93,34.732,143.017,35.189,142.343,36.884ZM78.28,58.349a29.247,29.247,0,0,1,5.671-12.114c.808-1.06,1.068-1.876.8-2.5s-1.105-1.015-2.5-1.149c-.748-.073-1.512-.19-2.248-.307-.262-.039-.524-.08-.787-.118l.014-.15L78.972,42c-.545-.037-1.095-.063-1.639-.089-1.138-.053-2.316-.11-3.454-.272l-.129-.018c-1.99-.284-3.49.017-4.467.894-1.02.918-1.475,2.416-1.385,4.577.044,1.071.127,2.16.206,3.213a40.952,40.952,0,0,1,.156,6.64c-.245,2.828-.147,4.586,3.272,5.076l.086.011v0C75.079,62.491,77.538,62.045,78.28,58.349ZM57.272,42.916a1.825,1.825,0,0,0-.289,1.989c.392.971.713,1.96,1.051,3.007.939,2.9,1.909,5.891,4.469,8.378l.256.249.138-.329v0c1.706-4,1.515-7.855,1.327-11.579-.021-.408-.042-.815-.059-1.217a1.639,1.639,0,0,0-.55-1.359c-.538-.387-1.331-.149-2.1.082a3.461,3.461,0,0,1-1.71.236,2.455,2.455,0,0,0-2.536.545Zm72.041-20.826c-1.086.3-1.732,1.819-3.027,4.85v0a25.539,25.539,0,0,0-.875,2.524c-.242.785-.491,1.6-.808,2.357-.256.619-.5,1.239-.749,1.86-1.845,4.621-3.586,8.987-8.445,11.473-1.523.78-3.614,1.852-4.692,3.992l-.1.2.192.117q1.289.782,2.561,1.558c2.257,1.376,4.389,2.678,6.6,3.957a5.745,5.745,0,0,0,1.928.8,1.708,1.708,0,0,0,1.789-.808,34.894,34.894,0,0,1,6.219-6.547,33.385,33.385,0,0,0,6.6-7.113c6.147-9.9,6.039-10.679-2.293-16.733-2.246-1.63-3.5-2.549-4.5-2.549A1.5,1.5,0,0,0,129.312,22.091Zm-17.036-6.77c-3.072,8.448-8.034,16.441-15.168,24.436-.1.106-.2.215-.314.326-.625.63-1.479,1.49-.71,2.784.542.912,6.709,3.4,9.278,3.892.119.023.225.042.32.055.659.094.888,0,1.012-.091a35.575,35.575,0,0,1,3.833-2.438c2.772-1.6,5.642-3.259,7.181-6.262,1.94-3.772,3.547-7.788,5.1-11.67.67-1.679,1.364-3.414,2.073-5.106l.007-.018a2.862,2.862,0,0,0-1.514-3.876,35.676,35.676,0,0,1-3.44-1.889,37.17,37.17,0,0,0-3.494-1.92,3.3,3.3,0,0,0-2.618-.348v0A3.249,3.249,0,0,0,112.277,15.32ZM52.344,25.81v0C46.775,29.7,45.953,33.913,49.6,39.9c.094.154.174.315.255.473.259.512.544,1.075,1.189,1.167a1.768,1.768,0,0,0,.732-.07c1.3-.374,1.433-1.45,1.39-2.455-.134-3.175-.229-6.284-.33-9.577l-.123-3.882ZM87.006,41c2.607.887,4.422-.534,5.721-1.873,4.521-4.656,9.554-10.312,12.587-16.941.72-1.567,1.377-2.921,1.955-4.118,1.823-3.758,2.828-5.825,2.1-7.221-.856-1.642-4.037-2.143-11-3.249l-.811-.128c-.759-.107-1.518-.241-2.275-.375a30.983,30.983,0,0,0-5.242-.621v0c-2.245,0-5.325-.008-7.192,2.987A137.136,137.136,0,0,0,70.8,34.863c-.554,1.5-.579,2.573-.08,3.271a2.434,2.434,0,0,0,1.738.888,7.113,7.113,0,0,0,1.137.056q.7-.026,1.393-.026A38.082,38.082,0,0,1,87.006,41ZM78.089,9.328a47.977,47.977,0,0,0-18.49,8.15,5.688,5.688,0,0,0-1.678,2.338,32.319,32.319,0,0,0-2.06,17.743l.033.233c.079.6.17,1.295.582,1.588a2.731,2.731,0,0,0,1.2.439,7.685,7.685,0,0,0,3.2-.376c2.3-.7,4.964-2.28,5.592-3.942,1.21-3.2,2.67-6.612,4.594-10.753,1.518-3.267,3.129-6.552,4.835-10.031.787-1.608,1.606-3.28,2.466-5.041l.22-.457ZM80.8,3.805C53.31,16.124,44.783,26.1,41.049,38.389q-.109.36-.215.723.106-.363.215-.723C44.783,26.1,53.31,16.124,80.8,3.805Zm66.321,29.018-.041-.041ZM131.475,19.41l0,0Zm-.152-.11c-9.231-6.675-21.4-13.418-34.906-15.445C109.929,5.882,122.091,12.624,131.323,19.3ZM96.4,3.852l-.3-.044ZM135.863,75.41l26.021-25.376c-.181,6.306-11.8,10.136-21.335,24.411a103.2,103.2,0,0,1-6.419,8.722Z" transform="translate(473.006 295.456)" fill="#121211" stroke="rgba(0,0,0,0)" stroke-miterlimit="10" stroke-width="1"/>
  </g>
</svg>
