<svg xmlns="http://www.w3.org/2000/svg" width="242.881" height="296.511" viewBox="0 0 242.881 296.511">
  <g id="Group_107" data-name="Group 107" transform="translate(0.532 0.511)">
    <path id="Path_64" data-name="Path 64" d="M218.291,83.9s-7.846,47.659-13.791,69.15-49.168,47.033-49.168,47.033,23.67-80.2,25.7-92.479.656-34.616-4.922-52.97S157.785,21.368,116.722,2.962c-46.585-7.044-87.8,32.106-99.093,43.357C11.522,52.4,5.758,63.7,1.753,72.782A11.45,11.45,0,0,1,6.46,74.464C17.958,81.5,23.1,90.642,30.425,101.351c5.4,7.894,11.5,13.58,13.864,21.509l11.379,2.718,13.718-7.773,16.921-12.081,9.067,2.979,3.678,16.875,1.628,15.906-5.917,28.2L72.108,220.961c-12.522,68,22.949,64.7,43.873,63.537,87.946-13.356,111.409-96.466,116.581-126.474S218.291,83.9,218.291,83.9" transform="translate(4.443 2.27)" fill="#feb153"/>
    <path id="Union_1" data-name="Union 1" d="M132.54.124C102.474,1.486,75.368,12.11,52.013,31.718,39.123,42.529,28.032,56.995,18.1,75.929,8.65,93.95,2.869,114.376.913,136.642c-1.908,21.751-2,47.094,11.735,70.094a42.681,42.681,0,0,0,7.884,9.544c.194.177.4.376.613.576,1.551,1.492,3.471,3.355,5.584,1.615,2.494-2.054,3.421-4.347,2.829-7A85.78,85.78,0,0,1,27.707,198.8C25.482,166.88,34.5,138.237,54.5,113.67a57.1,57.1,0,0,1,4.869-5.211l-.4.319.4-.319c3.077-2.938,6.429-5.643,9.713-8.287,2.339-1.888,4.757-3.835,7.03-5.835l.225-.194L77.9,95.31c.783-.5,1.475-.935,2.06-1.3-.584.364-1.275.8-2.058,1.3l.394.294-.081.25q-1.965,6.095-3.951,12.182C71.4,116.82,68.436,125.9,65.751,134.9c-9.5,31.834-13.395,56.464-12.631,79.857,1.064,32.492,18.121,58.492,45.632,69.545,2.436.984,4.878,2.061,7.242,3.1,6.83,3.006,13.9,6.12,21.512,7.169,20.613,2.831,39.162-.813,55.14-10.849,21.61-13.573,38.356-28.552,51.21-45.8a56.125,56.125,0,0,0,6.3-10.567c.563-1.54,1-2.792,1.289-3.69a8.678,8.678,0,0,0,.435-2.922L203,182.828l-2.588-11.59c-8.512-10.218-11.885-9.991-11.885-9.991l-.048-.587c-.081-.055-.159-.109-.239-.166-4.034.918-8,2.2-12.143,2.59h-.016c0,.125.023.223.011.36l-.025.255-.248.063c-8.146,2.122-13.4,6.472-16.06,13.3-1.487,3.821-5.14,4.742-8.363,5.554-.866.218-1.687.426-2.46.679a2.169,2.169,0,0,1-1.863-.1c-1.023-.617-1.278-2.139-1.506-3.484a11.511,11.511,0,0,0-.241-1.2,67.445,67.445,0,0,1-1.062-34.343A387.675,387.675,0,0,1,170.44,69.1c6.99-15.07,6.955-31.3-.1-48.233C163.349,4.093,153.243,0,137.613,0,135.983,0,134.292.045,132.54.124Zm-6.333,7.894c.278-.057.563-.111.863-.153a26.5,26.5,0,0,1,6.2,0c.276.032.552.053.829.094,1.625.226,6.977,1.15,7.713,3.534v0a60.643,60.643,0,0,0,2.514,6.415c1.793,4.113,3.485,8,3.186,12.045h.007c1.177,7.595,1.717,11.055.15,12.856-1.455,1.672-4.5,1.617-10.569,1.517l-.335-.007c-1.594-.027-2.8-.205-3.495-.975a3.576,3.576,0,0,1-.606-2.813c.918-10.246-3.641-18.948-7.982-26.3a6.7,6.7,0,0,0-.7-.888c-.834-.954-1.872-2.154-.834-3.753a4.74,4.74,0,0,1,3.06-1.564c-1.64.078-3.23.173-4.744.257C122.977,8.191,124.567,8.1,126.208,8.018Zm7.259-.154A51.705,51.705,0,0,1,145.92,9.375,51.791,51.791,0,0,0,133.467,7.864Zm-12,.413C36.436,21.192,11.683,99.3,5.457,131.592,11.683,99.3,36.436,21.19,121.463,8.277Zm24.418.89.524.089c7.028,1.2,12.013,4.687,15.242,10.954,3.036,5.9,4.521,14.252,4.676,25.513l.009.752-.6-.46c-1.414-1.088-3.368-1.237-5.256-1.387-2.933-.23-5.967-.472-6.591-4.348a128.983,128.983,0,0,0-4.129-16.324c-1.384-4.618-2.817-9.392-3.774-14.266l-.061-.314ZM110.617,49.888a4.019,4.019,0,0,1-1.323-2.482c-1.961-10.982-8.4-19.481-14.836-27.245-1.143-1.376-1.532-2.268-1.309-2.967.28-.877,1.393-1.171,2.956-1.587.929-.248,1.861-.485,2.8-.726a82.656,82.656,0,0,0,10.621-3.236,10.782,10.782,0,0,1,2.53-.717c2.924-.421,5.3.838,7.476,3.88l.485.668c3.915,5.445,7.962,11.075,7.9,17.818.068.465.13.852.187,1.191a13.957,13.957,0,0,1,.2,1.565,17.18,17.18,0,0,0,.457,2.783c.549,2.539,1.177,5.42-1.444,6.778-3.694,1.915-7.951,2.837-12.071,3.737-1.13.242-2.263.49-3.375.752a1.52,1.52,0,0,1-.382.049A1.56,1.56,0,0,1,110.617,49.888ZM82.473,63.474c-1.669-.711-1.963-3.382-2.3-6.47a51.085,51.085,0,0,0-6.757-19.777c-1.861-3.2-2.437-5.652-1.815-7.7.785-2.592,3.448-4.2,6.21-5.557a25.72,25.72,0,0,0,2.512-1.478,23.963,23.963,0,0,1,2.94-1.683,9.8,9.8,0,0,1,2.562-.815l0,0A5.226,5.226,0,0,1,90.6,21.9c6.982,7.3,11.056,15.908,16.049,27.276a1.847,1.847,0,0,1,.2,1.5c-.3,1.016-1.475,2.022-3.589,3.07-1.667.827-3.423,1.571-5.124,2.291a44.122,44.122,0,0,0-9.809,5.149c-2.151,1.655-3.759,2.453-4.966,2.453A2.253,2.253,0,0,1,82.473,63.474ZM60.11,78.548c-.888-.419-1.368-1.53-1.469-3.4-.069-1.333-.182-2.669-.292-4.006a55.268,55.268,0,0,1-.225-10.1c.629-6.122,1.726-12.289,2.781-18.255q.458-2.586.9-5.165a5.33,5.33,0,0,1,4.7-4.247l.1-.014c2.09-.266,2.564,1.371,2.945,2.687v.012a7.287,7.287,0,0,0,.514,1.416C72.777,42.5,74.2,47.995,75.583,53.308c.582,2.241,1.182,4.559,1.87,6.8,1.553,4.272.394,7.445-3.641,9.982-2.537,1.6-4.974,3.466-7.331,5.274-.92.708-1.843,1.416-2.772,2.109A5.089,5.089,0,0,1,60.9,78.718,1.809,1.809,0,0,1,60.11,78.548ZM43.442,93.966c-4.216-13.509,1.931-40.7,10.785-47.691l.531-.422.059.679a49.151,49.151,0,0,1-.5,9.973h-.005c-.528,4.455-1.077,9.062.161,13.587,2.75,10.077-.68,17.95-10.489,24.077l-.4.25Zm121.9-22.152a140.118,140.118,0,0,0,2.61-25.215A140.118,140.118,0,0,1,165.337,71.814ZM141.028,47.947c1.924-.369,3.91-.743,5.022.2a2.8,2.8,0,0,1,.822,2.35,8.577,8.577,0,0,1-2.917,6.16,12.016,12.016,0,0,1-9.08,2.769l-.092-.007-.079-.05c-.391-.239-1.352.073-2.2.353-1.205.4-2.451.8-3.261.212a2.159,2.159,0,0,1-.7-1.893v0a10.7,10.7,0,0,1,3.019-7.88,7.224,7.224,0,0,1,3.918-1.8,10.261,10.261,0,0,1,2.35-.046h.131A13.019,13.019,0,0,0,141.028,47.947ZM156.577,71.7v-.005a13.074,13.074,0,0,1-.938-1.542,5.022,5.022,0,0,0-1.781-2.252c-3.559-1.653-5.573-3.553-6.158-5.814-.863-3.314,1.516-6.955,4.024-10.4a10.688,10.688,0,0,0,.888-1.56c.571-1.148,1.154-2.321,2.516-2.514a4.537,4.537,0,0,1,2.275.382c.467.18.95.337,1.435.5,3.042,1.007,6.49,2.148,6.477,8.781l-.01.093c-.23.863-.48,1.874-.758,2.986-.8,3.179-1.781,7.137-3.07,11.036a2.611,2.611,0,0,1-1.908,1.99l-.037.007H159.5A3.373,3.373,0,0,1,156.577,71.7Zm-46.695-5.589c-.365-8.415,2.628-12.837,9.4-13.8.478-.068.966-.12,1.478-.153a7.708,7.708,0,0,0,.881-.134c1.084-.216,2.45-.476,3.224,1.1.658,1.332.016,2.485-.551,3.5-.135.244-.272.49-.394.736v-.005c-1.562,3.264-4.37,4.4-7.342,5.611a19.268,19.268,0,0,0-6.08,3.4l-.581.526ZM82.841,77.449l0,0c-.917-9.364.7-10.79,21.7-19.089l.487-.193.012.521c.23,8.074-3.22,9.8-14.648,15.5C88.331,75.217,86,76.38,83.375,77.74l-.483.248ZM150,84.041a50.389,50.389,0,0,0-17.334-6.4c-3.674-.6-6.665-1.464-6.026-5.956-.67-3-.888-4.42-.2-5.333a3.367,3.367,0,0,1,2.343-1.014c.691-.1,1.512-.153,2.467-.212,10.545-.645,19.916,5.618,22.792,15.233.064.221.148.446.23.674.414,1.152.927,2.585-.693,3.434v0A4.257,4.257,0,0,1,150,84.041ZM27.566,115.522c-3.669-15.691.624-40.16,11.662-48.19l.606-.446-.027.758c-.078,1.925-.321,3.788-.556,5.589a35.43,35.43,0,0,0-.433,8.454C40.03,93.3,40.31,106.462,28.146,115.731l-.449.342Zm77.755-40.6.262-.118q1.725-.773,3.444-1.537c2.826-1.25,5.745-2.548,8.568-3.906l.417-.209a6.156,6.156,0,0,1,1.734-.672,1.5,1.5,0,0,1,.911.127,2.451,2.451,0,0,1,1.075,1.908c.034.2.079.4.12.6v0c.266,1.289.565,2.744-.168,3.776A2.935,2.935,0,0,1,119.506,76c-3.125.424-6.322.64-9.414.84-1.342.091-2.685.18-4.022.285l-.326.025Zm-44.2,18.552v-.007a5.811,5.811,0,0,1-1.76-4.557,6.5,6.5,0,0,1,2.692-4.673c1.173-.879,2.327-1.852,3.445-2.788,2.9-2.435,5.9-4.956,9.584-6.2l.328-.111.13.323c2.851,7.156-1.171,10.257-5.072,13.255-.952.738-1.936,1.5-2.787,2.3a14.972,14.972,0,0,0-1.043,1.155c-.918,1.091-1.934,2.339-3.264,2.382A3.012,3.012,0,0,1,61.123,93.472Zm52.688-13.016c2.307-.542,4.94-1.154,6.507,2.064.961,1.961.437,4.958-1.43,8.223-1.8,3.14-5.06,6.616-8.1,7.049-.094.014-.194.025-.294.032a61.349,61.349,0,0,0-16.418,3.125c-.2.073-.4.157-.61.242-1.23.51-2.931,1.209-4.225-.615-1.235-1.742.273-6.434.763-7.834,1.309-3.715,3.512-7.718,5.489-8.281v0c3.32-.941,6.735-1.8,10.041-2.628q2.158-.54,4.329-1.093l.1-.025.094.028a7.9,7.9,0,0,0,3.755-.291ZM145.5,110.764l0,0c-6.279-6.45-12.708-10.471-20.237-12.649L124.853,98c-1.068-.292-2.4-.66-2.99-1.708a2.927,2.927,0,0,1-.13-2.278c.66-2.337,1.41-4.687,2.138-6.958q.5-1.554.984-3.106a3.945,3.945,0,0,1,1.774-2.539,2.421,2.421,0,0,1,.75-.237,3.355,3.355,0,0,1,1.535.18c2.353.793,4.822,1.369,7.208,1.927A53.213,53.213,0,0,1,147.1,86.713c3.9,1.86,5.108,4.373,3.926,8.151l-5.1,16.338ZM45.254,109.147c-2.585-6.677.964-9.943,4.714-13.4a24.068,24.068,0,0,0,4.842-5.464l.385-.672.275.722v0c3.254,8.606.9,13.222-9.7,19l-.366.2ZM82.112,92.694s-23.671,80.2-25.7,92.478c2.023-12.244,25.559-92,25.7-92.478ZM14.15,141.717C9.934,128.567,11.826,116,20.478,99.7l.479-.907.2,1.011h.005c2.949,14.881,4.678,29.294-6.386,42.043l-.428.489Zm122.091.622q-1.123-.824-2.216-1.63c-5.17-3.815-9.64-7.112-15.162-8.994-5.054-1.719-8.169-3.182-9.153-5.582-1.016-2.464.221-5.8,2.861-11.114a20.234,20.234,0,0,1,1.148-1.956,17.158,17.158,0,0,0,1.3-2.3c2-4.625,3.649-7.492,6.119-8.447a5.422,5.422,0,0,1,1.17-.3c2.229-.317,4.959.628,8.671,2.3,11.241,5.063,13.618,10.339,9.786,21.7a77.311,77.311,0,0,0-3.943,16.067l-.073.62Zm-56.595-11.1c.56-2.047,1.113-4.02,1.651-5.948,1.365-4.919,2.663-9.565,3.8-14.224l.056-.223c.4-1.653.813-3.362,2.8-3.8,6.828-1.5,13.66-2.865,20.02-4.12.182-.039.362-.068.529-.091,1.432-.207,2.4.011,2.958.658.658.765.652,2.045-.02,3.912q-1.43,4-2.861,8-1.864,5.258-3.764,10.5l.007,0c-.282.777-1.152,3.145-3.382,2.772-4.433-.738-8.624.289-13.065,1.38a62.81,62.81,0,0,1-8.336,1.642l-.535.055Zm-49.334,2.842c-2.883-10.346,2.275-16.062,7.267-21.592.583-.644,1.166-1.291,1.733-1.943l.444-.508.184.647v0c2.1,7.376-1.375,12.275-5.052,17.475a61.193,61.193,0,0,0-3.9,6l-.432.79ZM19.085,168.549c-5.188-11.808-.289-21.824,4.9-32.423.462-.945.927-1.893,1.391-2.856l.416-.866.266.924c2.439,8.565-.228,15.512-2.81,22.232C21.58,159.9,20,164,19.788,168.423l-.079,1.549Zm75.826-35.457c.267-.048.526-.093.775-.127,2.589-.369,4.313-.048,5.254.979,1.011,1.1,1.125,2.911.362,5.7A68.536,68.536,0,0,0,98.664,157.5c-.025,3.573-2.178,3.785-4.243,3.986a39.1,39.1,0,0,0-16.511,4.962,41.794,41.794,0,0,1-7.9,3.27c-1.253.422-2.549.859-3.831,1.35l-.6.228.111-.633a57.379,57.379,0,0,1,3.391-11.045,60.987,60.987,0,0,0,2.756-8.328l0,0C74.6,139.18,83.061,135.256,94.912,133.092Zm39.169,31.879c-4.689-2.566-9.143-3-13.448-3.409-.763-.075-1.519-.148-2.27-.23l-.729-.082c-7.542-.841-11.327-1.259-13.068-3.457s-1.289-6-.389-13.589c.04-.348.089-.693.139-1.038.079-.572.157-1.145.207-1.72.313-3.607,1.268-5.808,3-6.923a5.036,5.036,0,0,1,2.047-.738,12.34,12.34,0,0,1,5.655.877c8.349,2.931,14.7,6.964,19.4,12.332,2.246,2.567,1.5,5.605.786,8.545l.005,0a15.255,15.255,0,0,0-.669,5.225,11.2,11.2,0,0,1-.026,2.075c-.03.5-.07,1.088-.1,1.822l-.023.59ZM4.629,136.347A67.654,67.654,0,0,0,4,145.789,67.654,67.654,0,0,1,4.629,136.347Zm98.453,35.465a19.333,19.333,0,0,0-.517-3.368,2.829,2.829,0,0,1,.123-2.327c.621-1.029,2.024-1.31,3.38-1.583.458-.089.909-.18,1.321-.3a10.692,10.692,0,0,1,1.437-.308,19.77,19.77,0,0,1,6.969.629,26.232,26.232,0,0,0,4.879.726c7.615.169,11.67.918,13.883,3.969a12.593,12.593,0,0,1,1.954,5.272,57.892,57.892,0,0,1,.7,7.443l.018.426-.42-.046c-3.487-.369-6.967-1.032-10.337-1.674-5.967-1.134-12.14-2.309-18.467-1.859-.155.011-.3.016-.449.016C103.77,178.828,103.407,175.109,103.082,171.812Zm-37.7,5.013c2.883-1.175,5.725-2.615,8.472-4.015,5.552-2.82,11.285-5.734,17.762-6.661.35-.05.7-.093,1.054-.132,4.022-.43,5.477.506,6.771,4.37,1.216,3.625,2.18,7.057.665,9.237-1.066,1.539-3.293,2.344-6.777,2.466a4.074,4.074,0,0,0-1.913.859,12.173,12.173,0,0,1-1.08.64c-7.969,3.915-18.381,9.374-28.246,16.953l-.678.519.091-.849c.186-1.756.255-3.489.321-5.165a42.9,42.9,0,0,1,.745-7.609,19.477,19.477,0,0,0,.274-3.73h0C62.875,180.826,62.913,177.833,65.386,176.825Zm102.667-1.854,13.721-7.773,11.38,2.719-11.38-2.717-13.721,7.773-16.921,12.081-9.068-2.979-5.552-9.552,5.552,9.551,9.068,2.979Zm62.929,43.341c-11.5-7.033-16.64-16.178-23.965-26.885-5.4-7.894-11.5-13.58-13.863-21.51,2.364,7.928,8.463,13.614,13.863,21.508,7.326,10.708,12.466,19.854,23.965,26.885a11.419,11.419,0,0,0,4.707,1.683v0A11.441,11.441,0,0,1,230.982,218.312Zm-51.45-19.028a12.956,12.956,0,0,0-2.107-2.658c-.818-.7-1.617-1.455-2.387-2.182-.74-.693-1.5-1.407-2.307-2.107-4.292-3.7-6.445-5.546-6.438-7.532s2.2-3.846,6.575-7.563a6.317,6.317,0,0,0,.7-.76,3.383,3.383,0,0,1,1.444-1.216,19.731,19.731,0,0,0,3.783-1.831,15.3,15.3,0,0,1,5.461-2.252,9.392,9.392,0,0,1,4.513.5,11.255,11.255,0,0,1,3.485,1.917l0,.007a80.821,80.821,0,0,0,3.782,9.8,61.676,61.676,0,0,0,3.912,7.065,1.042,1.042,0,0,1-.191.4c-3.284,4.1-7.811,9.146-13.728,11.758a4.532,4.532,0,0,1-1.838.431C182.037,203.059,180.727,201.073,179.532,199.284Zm-162.412-2.25c-7.183-10.107-7.854-15.978-2.877-25.127l.356-.656.3.685a41.377,41.377,0,0,1,2.878,24.951l-.146.866Zm92.188-7.292a5.438,5.438,0,0,1-1.888-4.027,3.477,3.477,0,0,1,.729-2.935,2.872,2.872,0,0,1,1.706-.77,11.268,11.268,0,0,1,2.487.034c.339.032.663.059.963.073a65.791,65.791,0,0,1,17.776,2.744l.229.073.248,2.822-.344.05c-1.754.25-3.518.483-5.275.717-4.065.535-8.269,1.093-12.352,1.874a5.329,5.329,0,0,1-4.279-.654ZM68.229,222.691c-.662-.526-1.391-1.032-2.1-1.521-2.5-1.731-5.1-3.521-5.324-6.566v-.025c-.005-.6-.025-1.171-.046-1.7h0c-.089-2.227-.161-3.986,1.346-5.541,9.528-9.841,21.7-17.32,37.2-22.863a5.117,5.117,0,0,1,.989-.25c2.97-.424,4.238,2.608,5.19,4.881.13.316.258.62.387.907a3.091,3.091,0,0,1,.2,2.608c-.519,1.114-1.929,1.656-3.375,2.075-14.243,4.131-24.687,12.808-31.041,25.792l-.15.31c-.406.872-.968,2.065-1.9,2.284a1.56,1.56,0,0,1-.307.031A1.579,1.579,0,0,1,68.229,222.691ZM56.413,185.172A80.85,80.85,0,0,0,55.524,198,80.845,80.845,0,0,1,56.413,185.172Zm93.462,22.118-1.344-1.961A42.308,42.308,0,0,1,145.2,199.9c-1.2-2.473-.563-4.7,1.71-5.964,2.294-1.273,4.684-2.489,6.983-3.664.993-.508,1.993-1.016,2.993-1.535l.066-.034h.081a7.078,7.078,0,0,0,.886-.127c.177-.032.358-.062.537-.087a2.554,2.554,0,0,1,1.546.135l0,.005c8.356,4.368,14.418,9.9,18.529,16.932a2.943,2.943,0,0,1,.412,2.321c-.348,1.227-1.578,2.024-2.731,2.639-3.195,1.7-5.733,3.218-7.773,4.439-3.667,2.195-5.933,3.5-7.862,3.5C157.546,218.461,155.348,215.263,149.875,207.29Zm-10.668,20.4a15.693,15.693,0,0,1-11.125-6.028,35.632,35.632,0,0,1-5.6-10.51c-1.485-4.377-2.165-6.55-1.35-8.1.849-1.6,3.2-2.277,7.9-3.6,1.235-.351,2.467-.774,3.667-1.173.544-.185,1.086-.371,1.628-.546l.059-.021h.063a8.383,8.383,0,0,0,1.462-.166c1.481-.248,3.2-.553,4.282,1.918v0c2.992,6.875,7.474,13.013,11.81,18.953l.494.672c.79,1.072,1.688,2.287.025,3.814a17.783,17.783,0,0,1-12.177,4.823C139.96,227.727,139.583,227.716,139.206,227.692Zm73.473,12.7c-3.548-8.887-10.218-15.39-16.668-21.679-1.21-1.177-2.416-2.355-3.616-3.555-2.583-2.6-4.277-4.434-4.224-6.285.061-2.032,2.024-3.863,6.451-7.809,1.995-1.779,3.471-2.669,4.815-2.861a3.969,3.969,0,0,1,1.018-.014c1.668.2,3.243,1.487,5.113,4.177,4.277,6.158,10.67,10.187,16.857,14.086,2.828,1.785,5.75,3.628,8.451,5.657a2.8,2.8,0,0,0,.813.344,2,2,0,0,1,1.771,2.13v.13l-.085.1c-.157.185-.344.371-.537.563a4.576,4.576,0,0,0-1.033,1.309c-1.586,3.7-4.28,6.564-6.887,9.333A56.313,56.313,0,0,0,220.591,241c-1.446,1.958-3.07,2.922-4.569,2.729l0,0C215.05,243.607,213.687,242.924,212.679,240.391ZM116.96,208.319a43.7,43.7,0,0,0,8.474,18.1c1.207,1.583,1.6,2.8,1.189,3.733-.414.952-1.651,1.517-3.739,1.717-1.118.109-2.259.283-3.359.458-.392.059-.783.12-1.177.177l.021.225-.376.025c-.815.055-1.635.094-2.45.134-1.7.078-3.46.164-5.162.406l-.192.027c-2.974.424-5.215-.025-6.675-1.335-1.524-1.371-2.2-3.61-2.07-6.839.066-1.6.189-3.227.309-4.8a61.261,61.261,0,0,0,.233-9.922c-.367-4.225-.219-6.851,4.889-7.584l.128-.016v0C112.178,202.131,115.853,202.8,116.96,208.319ZM85.571,231.378a2.727,2.727,0,0,1-.432-2.972c.586-1.451,1.066-2.929,1.571-4.493,1.4-4.327,2.853-8.8,6.677-12.517l.383-.373.207.492v0c2.55,5.981,2.264,11.736,1.983,17.3-.031.61-.062,1.218-.087,1.818a2.448,2.448,0,0,1-.822,2.031c-.8.578-1.989.223-3.134-.123a5.17,5.17,0,0,0-2.555-.353,3.668,3.668,0,0,1-3.79-.815ZM193.21,262.495c-1.623-.446-2.589-2.717-4.523-7.247v0a38.014,38.014,0,0,1-1.307-3.771c-.362-1.173-.734-2.384-1.207-3.521-.383-.925-.75-1.851-1.12-2.779-2.756-6.905-5.357-13.428-12.617-17.142-2.276-1.166-5.4-2.767-7.01-5.965l-.149-.3.287-.175q1.926-1.169,3.826-2.328c3.373-2.056,6.558-4,9.865-5.912a8.59,8.59,0,0,1,2.881-1.2,2.551,2.551,0,0,1,2.672,1.207c2.525,3.794,5.964,6.839,9.292,9.782,3.564,3.157,7.249,6.416,9.864,10.628,9.184,14.787,9.023,15.956-3.426,25-3.356,2.435-5.235,3.808-6.727,3.808A2.246,2.246,0,0,1,193.21,262.495ZM167.757,272.61c-4.591-12.623-12-24.566-22.664-36.511-.145-.159-.305-.321-.469-.487-.934-.941-2.21-2.227-1.061-4.159.811-1.362,10.025-5.081,13.863-5.816.178-.034.335-.062.478-.082.984-.141,1.326-.005,1.512.135a53.1,53.1,0,0,0,5.727,3.642c4.142,2.394,8.429,4.869,10.729,9.356,2.9,5.635,5.3,11.637,7.616,17.436,1,2.509,2.038,5.1,3.1,7.629l.011.027c.875,2.664.07,4.721-2.262,5.791a53.3,53.3,0,0,0-5.14,2.822,55.513,55.513,0,0,1-5.22,2.869c-1.654.761-2.933.931-3.912.521l0,0C168.937,275.311,168.324,274.176,167.757,272.61ZM78.208,256.937l0,0c-8.319-5.81-9.547-12.1-4.1-21.043.141-.23.26-.471.381-.706.387-.765.813-1.606,1.776-1.744a2.637,2.637,0,0,1,1.093.105c1.941.558,2.141,2.166,2.077,3.667-.2,4.744-.342,9.388-.492,14.309l-.184,5.8ZM130,234.24c3.9-1.325,6.607.8,8.548,2.8,6.755,6.957,14.275,15.407,18.808,25.313,1.075,2.341,2.057,4.364,2.92,6.153,2.724,5.614,4.226,8.7,3.138,10.79-1.278,2.453-6.032,3.2-16.431,4.855l-1.212.191c-1.134.161-2.268.36-3.4.56a46.288,46.288,0,0,1-7.832.927v0c-3.355.007-7.957.012-10.745-4.463a204.925,204.925,0,0,1-18.016-37.95c-.827-2.246-.865-3.844-.12-4.887a3.637,3.637,0,0,1,2.6-1.326,10.624,10.624,0,0,1,1.7-.084q1.042.038,2.083.038A56.9,56.9,0,0,0,130,234.24Zm-13.322,47.324a71.685,71.685,0,0,1-27.627-12.177,8.494,8.494,0,0,1-2.506-3.493c-3.466-8.128-4.472-16.8-3.078-26.511l.05-.348c.118-.9.253-1.934.87-2.373a4.079,4.079,0,0,1,1.8-.656,11.481,11.481,0,0,1,4.776.562c3.439,1.048,7.417,3.407,8.356,5.891,1.808,4.774,3.99,9.879,6.864,16.067,2.268,4.881,4.675,9.79,7.224,14.988,1.177,2.4,2.4,4.9,3.684,7.532l.328.683Zm4.043,8.251C79.652,271.409,66.912,256.5,61.333,238.143q-.163-.538-.322-1.08.159.542.322,1.08c5.578,18.354,18.318,33.266,59.386,51.672Zm99.092-43.357-.061.061ZM196.441,266.5l0,0Zm-.228.165c-13.793,9.974-31.968,20.048-52.154,23.077C164.249,286.712,182.42,276.64,196.214,266.665Zm-52.181,23.081-.452.066ZM203,182.828l38.878,37.916c-.271-9.422-17.625-15.145-31.877-36.473a154.311,154.311,0,0,0-9.59-13.033Z" transform="translate(241.88 295.501) rotate(180)" fill="#121211" stroke="rgba(0,0,0,0)" stroke-miterlimit="10" stroke-width="1"/>
  </g>
</svg>
