<svg xmlns="http://www.w3.org/2000/svg" xmlns:xlink="http://www.w3.org/1999/xlink" width="598.703" height="292.875" viewBox="0 0 598.703 292.875">
  <defs>
    <clipPath id="clip-path">
      <rect id="Rectangle_35" data-name="Rectangle 35" width="598.703" height="292.875" fill="#161615"/>
    </clipPath>
  </defs>
  <g id="Group_111" data-name="Group 111" transform="translate(-662 -361)">
    <g id="Group_109" data-name="Group 109">
      <path id="Path_93" data-name="Path 93" d="M-6058.679,369.318h-87.991L-6186,407.675l-10.589,47.407L-6179.5,537.3l27.929,94.648,42.5,17.309,440.385-8.658,22.148-30.351L-5606.7,451.57l-27.3-67.588-28.033-11.834-87.844-4.866Z" transform="translate(6862)" fill="#fff"/>
      <g id="Group_108" data-name="Group 108" transform="translate(662 361)">
        <g id="Group_108-2" data-name="Group 108" clip-path="url(#clip-path)">
          <path id="Path_177" data-name="Path 177" d="M598.345,83.425a114.359,114.359,0,0,0-4.358-17.778c.062.039.122.081.184.121-3.079-6.251-6.332-12.934-9.4-19.377-2.1-2.738-4.372-5.543-6.534-8.7C570.909,26.98,565.77,17.835,554.27,10.8a11.441,11.441,0,0,0-4.707-1.683c.368-.833-4.718-3.551-5.046-2.61a80.479,80.479,0,0,0-27.447-4.06c-21.587.937-43.041-1.443-64.809,1.148-8.987-.112-30.346-.359-39.415-.3-8.85.059-31.825.2-42.326.261-11.939-.5-23.882-.135-35.8-.034-18.978.16-37.936,1.987-56.951,1.69-50.634-.8-101.3-.377-151.821-4.838C108.175-1.192,90.557,2.69,72.877,2.21A52.972,52.972,0,0,0,53.7,5c-.052-.136-.11-.269-.162-.4-1.757,1.127-3.763,2.4-6,3.786.11.246.223.5.33.74a11.429,11.429,0,0,0-2.506.606q-2.787,1.717-5.965,3.621A92.773,92.773,0,0,0,17.351,36.724C11.951,44.618,7.7,51.268,5.339,59.2c0,0-4.2,8.922-3.844,8.674C-.94,82.492-.055,97.5,1.7,112.135,4.423,135,8.508,157.908,15.552,180.172a185.23,185.23,0,0,1,6.655,26.292c3.141,19.618,6.836,39.109,14.687,57.449,6.53,15.249,17.021,25.416,34.838,26.841,37.721,3.013,75.5,2.167,113.2,1.374,62.5-1.319,125.04.983,187.546-3.18a699.152,699.152,0,0,1,79.013-.8c27.421,1.315,54.66-1.392,81.924-3.589,5.8-.469,10.03-4.134,14.3-7.442,10.713-8.281,13.089-21.351,16.553-33.009,5.366-18.068,8.8-36.79,11.948-55.423,2.81-16.642,6.045-33.11,10.236-49.466,3.74-14.6,9.12-28.768,11.6-43.713a37.365,37.365,0,0,0,.288-12.081M585.537,95.014h0C582,108.33,578.892,121.2,575.149,133.879,568.018,158.04,564.719,183,559.3,207.5c-4,18.052-5.883,36.873-15.4,53.354-3.26,5.642-8.224,7.773-14.9,8.6-2.069.256-4.138.462-6.209.679a6.454,6.454,0,0,1-.741.167c-1.127.2-4.817.494-10.375.855q-8,.611-16.013.942l-.6.033c-41.022,1.71-82.2-1.069-123.041,3.142v0c-33.99,3.5-67.838.29-101.727,1.417-48.873,1.623-97.731,4.227-146.664,2.428-5.156-.19-6-.2-5.72-4.179l-3.07.544a3.487,3.487,0,0,0-.167,1.219,3.506,3.506,0,0,1,.167-1.232l3.068-.544c.057-.782.151-1.706.27-2.828-6.168,4.977-12,9.518-19.968,5.437,2.481-3.791,8.036-3.99,10.569-9.529-8.935,3.2-15.389,9.623-24.8,8.889l19.291-15c-10.809,2.833-18.055,9.214-26.621,12.789-2.551,1.065-5.4,3.941-7.231,1.285-1.847-2.677,3.029-3.176,4.008-5.373.3-.67.711-1.289,1.2-2.158-3.99-2.183-5.96,1.447-8.571,2.73-1.882.926-3.5,4.047-5.72,1.594-2.151-2.375-.757-4.577,1.948-6.013.773-.411,1.219-1.443,2.225-2.7-4.589-1.431-6.241,5.268-10.949,2.5l11.2-12.794c-4.515,2.206-7.471,3.443-10.2,5.071-1.5.892-2.222,4.074-4.536,1.065-1.58-2.051-1.79-4.316-.043-6.269,1.893-2.115,4.643-3.61,4.508-6.925-3.672-1.445-5.7,6.385-9.463,1.552-3.107-3.992-1.957-7.54,3.082-9.495-1.5-3.256-5.967,1.086-6.365-3.381-.416-4.671,3.9-5.75,6.209-8.313-.606-.59-.867-1.056-1.235-1.171-2.835-.876-4.415,5.169-6.921,2.016-2.593-3.26,2.547-4.031,3.8-6.175,2.248-3.83,5.333-7.174,7.991-11.175.561-.845,1.11-1.709,1.62-2.625L50,209.9c-3.776,2.321-7.639,4.7-11.9,7.314-1.984-7.939-4.027-15.721-5.976-23.459-1.663-6.6-3.258-13.171-4.68-19.776-.07-.326-.143-.652-.214-.978-1.573-7.267-3.242-14.58-5.118-21.679-4.593-17.382-7.218-35.053-9.538-52.744C9.554,75.535,14.087,53.706,29.631,35.937c7.59-8.674,17.289-15.745,27.556-21.55,3.036-1.717,6.363-1.317,9.653-1.4,62.358-1.63,124.633,2.389,186.968,2.787,30.7.2,61.331-1.134,91.926-2.5,25.119-1.12,50.122.219,75.172.16,32.415-.075,64.831.617,97.246,1.113,3.315.05,7.078-1.027,10.021,2.124-2.019,3.727-7.739,3.166-8.777,8.157,7.846.768,13.029-7.6,20.915-6.294.56,4.232-4.3,3.345-5.043,6.219a3.723,3.723,0,0,0,4.662.229c5.871-4.552,11.18-1.644,16.447.967,2.215,1.1,4.01,2.707.343,4.733-2.366,1.308-5.242,2.117-6.6,5.059,3.651.873,6.226-1.9,9.362-2.465,1.758-.318,3.83-2.748,5.167.254,1.152,2.588-1.866,2.353-2.9,3.5-3.626,4.04-10.121,4.067-13.939,10.306,7.577-3.022,13.224-7.744,21.043-7.138-1.129,6.253-7.821,6.429-11.4,10.7,3.958.441,5.94-2.837,8.868-3.329,2.421-.4,5.437-1.589,6.7,1.459,1.166,2.808-2.259,2.691-3.583,3.919-1.269,1.177-2.68,2.206-4.234,3.468,2.22,1.271,3.45-.672,5.018-.722,2.177-.071,4.369-4.168,6.424-.4,1.818,3.322-2.252,3.121-3.477,4.659-.78.981-1.55,1.966-2.723,3.45,3.253.565,6.052-2.453,8.928.073-1.372,5.965-8.926,5.213-11.447,10.942,5.505.235,9.3-4.15,14.211-4.833,2.652,5.958-5.928,4.943-5.777,9.271,2.766,1.648,5.674-2.789,8.638.386-1.237,3.107-3.782,5.05-6.331,6.932,2.158,2.814,5.172-2.956,7.119.745.661,1.255-.091,2.231-1.285,3.109-2.174,1.6-4.138,3.491-7.728,6.587,4.211-.773,6.084-1.116,8.763-1.6" fill="#161615"/>
        </g>
      </g>
    </g>
    <path id="Path_66" data-name="Path 66" d="M169.317,133.547l.476-2.145a67.62,67.62,0,0,0,9.536-1.907c.238-1.79.359-3.7.478-5.485l1.667-1.072-1.667-1.191c-.24-4.65.357-9.3.357-14.065,0-3.459-.238-6.918-.238-10.375,0-1.786-1.55-3.336-1.669-5.126l-12.277-.119c-9.774-.117-19.669.6-29.445,1.431-3.457.238-6.436,2.147-9.893,2.147a28.186,28.186,0,0,1,.238,4.529l-1.907,2.743,1.907,2.142v5.963c0,4.41-.119,8.939.238,13.231.238,2.385,1.55,4.531,1.909,6.916a79.157,79.157,0,0,0,9.3,1.429l.478,1.429h-.119c-5.6,0-11.326-.238-16.927-.594-5.007-.238-10.252-2.263-15.14-2.026l1.31-2.028a41.291,41.291,0,0,0,9.179-1.669c.359-5.126,0-10.37,0-15.5a54.51,54.51,0,0,1,.834-11.681h.121c.119-1.907.953-3.7.953-5.606,0-2.86-1.55-5.482-1.55-8.461a24.924,24.924,0,0,1,.834-7.867c-1.429-3.1-.716-19.671-1.193-24.676a92.608,92.608,0,0,0-10.012-2.028l-.6-1.55c5.6.359,11.2.359,16.809.359,4.648,0,9.536,1.79,14.065,1.433l-.594,1.667a67.623,67.623,0,0,0-9.657,1.55c.121,1.31.238,2.5.238,3.695,0,3.695-.835,7.273-.835,10.846a62.412,62.412,0,0,0,2.741,18.121c11.8-.238,23.484-.121,35.286,0l2.385-.953c4.41,0,8.583-1.667,12.993-2.145V81.336L181,80.264l-1.072-.956.119-15.137c0-3.7-1.072-7.27-2.026-10.967a51.375,51.375,0,0,0-9.536-1.312l-.6-1.55c8.7.6,17.643-.713,26.342.359,2.028.24,3.935,1.669,5.963,1.79a9.628,9.628,0,0,0-.6,3.217c-3.576.357-7.033,1.193-10.492,1.669a16.991,16.991,0,0,0,.121,3.457c0,9.893-.238,19.79-.238,29.683,0,1.548-.953,2.86-.953,4.529,0,1.788,1.07,3.578,1.07,5.364,0,8.466-.235,17.049-.235,25.51,0,1.431,1.191,2.622,1.191,4.056a36.917,36.917,0,0,0,10.846,2.5l.6,1.55C190.892,133.31,180.044,133.429,169.317,133.547Z" transform="translate(609.98 359.65)" fill="#161615" stroke="#161615" stroke-miterlimit="10" stroke-width="1"/>
    <path id="Path_68" data-name="Path 68" d="M205.72,133.651c-.835,2.028-4.89,3.816-5.6,5.723l-1.788-.24c-.24-1.431-2.266-1.431-2.622-2.86-2.266-2.385-33.02-1.312-38.144-1.312a11.744,11.744,0,0,1-3.338-.951c.238-.716,3.695-7.033,4.17-7.154a32.958,32.958,0,0,1,3.338-.478l-1.072-1.31c.6-8.7.476-17.4.476-26.226,0-2.266,3.459-2.86,3.459-5.124,0-2.147-3.459-2.741-3.459-4.888V71.785c3.1-4.769,2.741-3.816,2.147-4.769,0-.476-2.743-4.648-3.219-5.482-2.145-.478-1.431-5.96-6.079-7.033l-.713-1.072c3.217,0,6.436-1.075,9.653-1.075,7.629,0,15.259.476,22.769.476a139.987,139.987,0,0,0,14.184-.592c.718-1.315,3.338-2.743,3.338-2.743l2.268-.24L205,53.9l.953,14.662-2.5-.478S201.9,62.962,200,61.3c-2.385-2.026-23.126-2.5-27.417-2.5l-1.075.953V65.7l-1.31.837,1.31,1.072a135.4,135.4,0,0,0-.953,15.615c0,3.7,1.075,5.6,5.009,5.6,8.7,0,12.634.238,20.741-3.219.476-1.31.953-2.5,1.31-3.816l1.193-.592c-.359,3.813-.6,7.746-1.79,11.559a23.748,23.748,0,0,1,.6,4.648l-.119,6.084-2.266-2.506-1.191-3.338-2.266-1.907a79.516,79.516,0,0,0-9.655-.953l-10.846.121v20.023l-2.147,2.268,2.263,1.786c0,2.62,0,5.247.24,7.867l1.907,2.028c4.769,0,27.06.238,29.564-2.741,1.667-2.028,2.741-5.6,3.932-7.988l1.788-1.072C207.627,122.446,207.746,128.647,205.72,133.651Z" transform="translate(670.146 358.354)" fill="#161615" stroke="#161615" stroke-miterlimit="10" stroke-width="1"/>
    <path id="Path_70" data-name="Path 70" d="M263.627,136.929c-4.888-.478-17.643-8.7-22.767-11.086l1.786-.834c.953-.476.835-.238,0-1.075-4.17-4.291-7.986-9.058-11.921-13.708l.718-1.786c-1.431-1.431-3.695-1.907-5.009-3.338a95.58,95.58,0,0,1-11.2-14.662c-2.506,1.55-5.366,2.385-7.629,4.17-.121,2.625-3.459,6.916-3.576,9.538a193.711,193.711,0,0,0,.117,20.384l-1.431,1.429.956,2.506,2.86.713,1.312,1.671a53.141,53.141,0,0,0,7.51,1.667l.119,1.191h-.119c-7.748,0-18,.716-25.272-.357-1.191-.119.24-1.55-4.051-1.55l-.837-2.385,2.625-.357a46.281,46.281,0,0,1,6.079-5.128c.357-4.883-.121-10.012.476-14.778.121-1.55,1.788-2.5,1.907-3.935l-1.786-2.5c0-11.2-.121-22.529-.121-33.734,0-.956,2.5-2.147,2.5-3.1,0-1.075-1.072-2.149-1.31-3.219-.24-1.193-1.193-2.028-1.312-3.221-.238-1.786-.119-3.576-.238-5.361-3.457-.6-6.916-1.907-10.37-2.266l-.6-1.312a277.485,277.485,0,0,0,31.47.121l.238.713a14.536,14.536,0,0,1-3.219,1.788c-3.338,1.072-.357,4.65-9.179,6.317-.235,3.221,1.671,5.366,1.671,8.226v2.981l-1.193,1.431,1.193,1.786.117,16.45c5.723-4.648,10.611-10.489,17.286-13.827.6-.238,1.191-2.145,1.788-2.741,2.622-2.263,5.245-4.767,7.867-6.914,1.191-1.072,5.482-2.86,6.079-3.692.478-.6,0-1.193,0-1.909,0-.476,5.126-5.6,5.841-6.559-2.86-.713-5.6-1.786-8.345-2.5l.834-1.193a250.053,250.053,0,0,0,26.7,0c-3.457,2.741-7.033,3.813-10.727,5.96-.716.476-23.363,18.715-24.081,19.31-1.548,1.669-4.767,5.6-5.245,7.75l8.226,10.606.6,3.219,2.741,1.193c3.457,4.529,6.676,9.06,9.774,13.587,1.075,1.55,1.55,4.65,2.743,5.6,1.431,1.312,3.932,1.788,5.245,3.1,2.741,2.62,5.126,5.96,7.629,8.7,2.145,2.5,5.839,4.291,8.345,6.317C266.368,136.572,263.627,136.929,263.627,136.929Z" transform="translate(708.443 359.964)" fill="#161615" stroke="#161615" stroke-miterlimit="10" stroke-width="1"/>
    <path id="Path_72" data-name="Path 72" d="M271.736,116.38c.238.359,1.907,2.385,1.786,2.741a24.968,24.968,0,0,1-2.023,4.89,21.781,21.781,0,0,1-11.088,9.3,38.3,38.3,0,0,1-13.827,2.385,43.362,43.362,0,0,1-7.748-.594,35.848,35.848,0,0,1-8.464-2.385c-3.455-1.431-4.886-4.65-5.96-7.867-.119-.357-.357-.834-.476-1.312a20.8,20.8,0,0,1-.478-3.578s1.075-2.86,1.55-4.289l2.622-.238v1.786a10.393,10.393,0,0,0,3.695,7.51c4.172,3.813,10.848,6.081,16.569,6.081,5.844,0,11.685-1.909,14.9-6.438a14.7,14.7,0,0,0,1.669-2.981c.359-.832,2.026-1.788,2.5-2.5-1.55-1.072-1.31-1.671-1.31-3.813a14.781,14.781,0,0,0-3.578-9.659C255.522,97.429,244.555,96,238.6,89.8c-.6-.594.357-1.55.238-2.142-1.431-.837-4.65-1.792-5.723-2.981a17.9,17.9,0,0,1-5.482-13.352c0-2.5.716-6.2,1.907-8.107.478-.951,2.5-1.786,3.338-2.62.357-.359-.357-1.193.238-1.79s2.266-2.023,2.981-2.741a23.877,23.877,0,0,1,15.855-6.079c8.1,0,12.874,1.55,18,7.389.357.359,0,1.671,0,2.266,0,.834,1.072,1.191,1.429,2.385.238.834.6.716.6,1.433a15.245,15.245,0,0,1-.716,2.977c-1.31-.357-1.907-.478-3.457-.834-1.191-7.27-9.177-10.846-16.45-10.846-7.986,0-15.38,4.051-15.38,12.874a36.665,36.665,0,0,0,.6,3.813c.121.834-.713,1.548-.832,2.026.713.716,2.62,1.79,3.336,2.622,3.1,3.219,6.676,5.247,10.848,7.632a42.976,42.976,0,0,1,5.126,2.86c.6.357-.121,1.667-.121,1.667l2.028.478a35.6,35.6,0,0,1,5.126,2.266c2.622,1.907,7.869,5.839,8.823,8.823.119.357-.121.951-.121,1.308.6.478,1.788,1.193,2.147,2.028,1.312,2.263,1.788,5.841,1.788,8.464v1.909C274.6,114.474,272.33,115.667,271.736,116.38Z" transform="translate(760.424 359.294)" fill="#161615" stroke="#161615" stroke-miterlimit="10" stroke-width="1"/>
    <path id="Path_74" data-name="Path 74" d="M303.281,133.651c-.832,2.028-4.888,3.816-5.6,5.723l-1.788-.24c-.238-1.431-2.266-1.431-2.622-2.86-2.266-2.385-33.02-1.312-38.144-1.312a11.744,11.744,0,0,1-3.338-.951c.238-.716,3.695-7.033,4.17-7.154a32.955,32.955,0,0,1,3.338-.478l-1.072-1.31c.6-8.7.476-17.4.476-26.226,0-2.266,3.459-2.86,3.459-5.124,0-2.147-3.459-2.741-3.459-4.888V71.785c3.1-4.769,2.741-3.816,2.145-4.769,0-.476-2.741-4.648-3.217-5.482-2.144-.478-1.431-5.96-6.079-7.033l-.713-1.072c3.217,0,6.436-1.075,9.653-1.075,7.629,0,15.258.476,22.769.476a140.013,140.013,0,0,0,14.184-.592c.718-1.315,3.338-2.743,3.338-2.743l2.266-.24-.476,4.65.951,14.662-2.5-.478s-1.55-5.126-3.457-6.792c-2.385-2.026-23.125-2.5-27.417-2.5l-1.075.953V65.7l-1.31.837,1.31,1.072a135.412,135.412,0,0,0-.953,15.615c0,3.7,1.075,5.6,5.009,5.6,8.7,0,12.634.238,20.741-3.219.476-1.31.953-2.5,1.31-3.816l1.193-.592c-.359,3.813-.6,7.746-1.79,11.559a23.746,23.746,0,0,1,.6,4.648l-.119,6.084-2.266-2.506L291.6,97.652l-2.266-1.907a79.518,79.518,0,0,0-9.655-.953l-10.846.121v20.023l-2.147,2.268,2.263,1.786c0,2.62,0,5.247.24,7.867l1.907,2.028c4.769,0,27.06.238,29.564-2.741,1.667-2.028,2.741-5.6,3.932-7.988l1.788-1.072C305.19,122.446,305.309,128.647,303.281,133.651Z" transform="translate(795.638 358.354)" fill="#161615" stroke="#161615" stroke-miterlimit="10" stroke-width="1"/>
    <path id="Path_76" data-name="Path 76" d="M369.86,52.056l-8.1,2.385-.238,3.1-1.79,1.315,1.55,1.191-1.31,22.291.713,2.145-.594,37.668v9.776l-2.744,2.385-7.268-4.769-9.417-11.8-4.653-6.914-12.99-15.258-2.028-4.888-6.795-5.96L301.915,67.911l-2.026-.953L297.5,63.737V77.923l-1.193,1.55.6,3.578.834,14.659-1.667,2.981,1.548,4.886-.119,15.736.716,7.51,6.795,4.886-8.345-.594-15.617.478,9.417-4.175.837-6.792-.478-2.385.238-19.191.834-1.79-.834-12.874.718-17.641,2.5-3.1L291.9,62.667l-.357-7.035L286.062,54.2l-5.245-3.217,19.906-.478,4.172,5.485.832,3.695,4.531,3.338,5.126,6.436.6,2.86,3.695,2.625,12.515,15.974-2.263,1.669,5.485,1.907L354.6,118.929V104.983l1.193-2.862-1.312-2.5.24-10.848-.357-22.41.594-3.576-.956-2.981-.357-5.242-11.443-3.935,14.543.594,13.827-.594Z" transform="translate(834.204 359.964)" fill="#161615" stroke="#161615" stroke-miterlimit="10" stroke-width="1"/>
    <path id="Path_78" data-name="Path 78" d="M161.553,165.374c.238.359,1.907,2.385,1.786,2.741A24.888,24.888,0,0,1,161.315,173a21.774,21.774,0,0,1-11.088,9.3,38.344,38.344,0,0,1-13.827,2.385,43.362,43.362,0,0,1-7.748-.594,35.958,35.958,0,0,1-8.464-2.385c-3.455-1.431-4.886-4.65-5.96-7.869-.119-.357-.357-.835-.476-1.31a20.8,20.8,0,0,1-.478-3.578s1.075-2.86,1.55-4.289l2.622-.24v1.788a10.393,10.393,0,0,0,3.695,7.51c4.172,3.813,10.848,6.081,16.569,6.081,5.844,0,11.685-1.909,14.9-6.438a14.765,14.765,0,0,0,1.669-2.981c.359-.835,2.026-1.788,2.5-2.5-1.55-1.075-1.31-1.671-1.31-3.816a14.77,14.77,0,0,0-3.578-9.657c-6.557-7.986-17.524-9.415-23.482-15.615-.6-.6.357-1.55.238-2.145-1.431-.835-4.65-1.79-5.723-2.979a17.9,17.9,0,0,1-5.482-13.352c0-2.5.716-6.2,1.907-8.107.478-.953,2.5-1.788,3.338-2.62.357-.361-.357-1.193.238-1.79s2.266-2.026,2.981-2.741a23.877,23.877,0,0,1,15.855-6.079c8.1,0,12.874,1.55,18,7.389.357.359,0,1.671,0,2.266,0,.834,1.072,1.191,1.429,2.385.238.834.6.716.6,1.431a15.227,15.227,0,0,1-.716,2.979c-1.31-.357-1.907-.478-3.457-.835-1.191-7.273-9.177-10.848-16.45-10.848-7.986,0-15.38,4.054-15.38,12.876a36.666,36.666,0,0,0,.6,3.813c.121.834-.713,1.548-.832,2.026.713.716,2.62,1.79,3.336,2.622,3.1,3.219,6.676,5.247,10.848,7.629a42.989,42.989,0,0,1,5.126,2.862c.6.357-.121,1.667-.121,1.667l2.028.478a35.6,35.6,0,0,1,5.126,2.266c2.622,1.907,7.869,5.839,8.823,8.82.119.357-.121.953-.121,1.31.6.478,1.788,1.193,2.147,2.028,1.312,2.263,1.788,5.841,1.788,8.464v1.907C164.413,163.468,162.147,164.661,161.553,165.374Z" transform="translate(618.7 422.313)" fill="#161615" stroke="#161615" stroke-miterlimit="10" stroke-width="1"/>
    <path id="Path_80" data-name="Path 80" d="M219.975,120.241,215.445,108.8c-2.5-.834-15.974-.953-18.6-.953-3.695,0-7.273.476-10.967.6a67.7,67.7,0,0,0-.716,8.461l.953,1.075c-.119,6.315,0,12.755,0,19.072,0,1.191-2.266,2.026-2.266,3.219,0,1.31,2.147,2.5,2.266,3.932.359,3.1.24,11.2-.478,14.186,1.55,6.674.6,14.781.837,21.816,2.622.476,7.867,2.145,7.867,2.145l-1.31,1.31-15.617-.238-.716-1.788-8.583.238.24-4.529,5.482-.835,2.147-1.788.236-15.377,1.312-2.743-1.312-2.5c.121-6.676.121-13.471.121-20.265l1.191-1.909-1.191-1.907v-4.051l2.026-2.86-2.026-2.625a85.817,85.817,0,0,0-.953-13.59c-9.774,0-20.505-.357-30.042,2.028-.953,2.981-2.5,5.96-3.217,9.06l-1.431.834c.716-7.154,1.31-11.088,1.193-18.359l2.026.238c1.312,1.31,2.622-.953,3.932.24,18.121,1.07,51.617,1.788,69.854.238l3.695-2.5s-.953,5.96-1.072,7.867l1.193,10.967Z" transform="translate(653.98 421.91)" fill="#161615" stroke="#161615" stroke-miterlimit="10" stroke-width="1"/>
    <path id="Path_82" data-name="Path 82" d="M255.834,183.643a29.917,29.917,0,0,1-19.666-8.343l1.548-3.816c-5.364-2.5-9.177-8.464-12.636-12.993l.121-.478c-2.266-5.126-4.413-4.769-7.154-8.343a69.7,69.7,0,0,0-8.226-4.769c-2.86.119-6.674-.716-8.1,2.385l-.119,1.907-1.429,1.191c2.023.953,2.86,2.028,2.86,4.291,0,3.1-1.431,5.963-1.312,9.06l.24,11.8c.476.6.357.359.235,1.193a29.078,29.078,0,0,0,5.606.953l.476.835v1.907l3.932,2.145a294.858,294.858,0,0,0-30.755,0l3.935-2.977c2.385-.24,3.935-2.981,6.317-3.578l.24-7.033c0-1.669,2.385-3.219,2.385-5.007l-2.266-2.266c0-5.6-.476-11.2-.476-16.806,0-4.888.357-5.485,1.786-10.37a26.431,26.431,0,0,1-1.55-7.986c0-3.459.24-7.035.24-10.611l1.907-2.625-1.907-3.217a60.054,60.054,0,0,0-.359-6.557c-3.336-.713-6.674-2.145-10.13-2.5l-.718-1.191c9.182-.119,18.361-.238,27.538-.238,8.7,0,20.384,1.55,26.822,7.986l-2.506.716c6.2,1.907,10.014,2.741,10.014,10.252,0,9.893-8.1,19.906-17.4,23.126.594.956.594,2.266,1.072,3.219,2.266,4.172,11.921,13.708,12.039,18.237,3.695,4.767,13.948,15.021,18.953,18.359.357.117,1.669.834,1.669,1.191C259.053,183.287,256.312,183.643,255.834,183.643Zm-41.125-79.15-.238,4.291c-2.741-.121-5.6-1.075-8.345-1.075-5.6,0-4.41,2.981-4.529,7.51,0,1.312-1.788,2.266-1.788,3.576,0,1.431,1.788,2.622,1.788,4.054,0,2.026.238,4.172-.835,5.96,1.55,3.695-.716,11.683,4.888,11.683,8.82,0,20.741-2.028,25.272-10.611-.121-2.979,1.189-5.96,1.189-9.058C232.112,111.644,223.529,104.493,214.709,104.493Z" transform="translate(705.625 423.118)" fill="#161615" stroke="#161615" stroke-miterlimit="10" stroke-width="1"/>
    <path id="Path_84" data-name="Path 84" d="M271.42,182.646c-.832,2.028-4.888,3.813-5.6,5.723l-1.788-.24c-.238-1.431-2.266-1.431-2.622-2.86-2.266-2.385-33.02-1.312-38.144-1.312a11.752,11.752,0,0,1-3.338-.953c.238-.713,3.695-7.033,4.17-7.151a32.94,32.94,0,0,1,3.338-.478l-1.072-1.31c.6-8.7.476-17.4.476-26.226,0-2.266,3.459-2.86,3.459-5.126,0-2.145-3.459-2.741-3.459-4.886V120.778c3.1-4.767,2.741-3.813,2.145-4.767,0-.476-2.741-4.65-3.217-5.482-2.145-.478-1.431-5.96-6.079-7.033l-.713-1.075c3.217,0,6.436-1.072,9.653-1.072,7.629,0,15.258.476,22.769.476a139.356,139.356,0,0,0,14.184-.594c.718-1.312,3.338-2.744,3.338-2.744l2.266-.238-.476,4.65.951,14.662-2.5-.478s-1.55-5.126-3.457-6.792c-2.385-2.028-23.126-2.5-27.417-2.5l-1.075.953V114.7l-1.31.837,1.31,1.072a135.412,135.412,0,0,0-.953,15.615c0,3.7,1.075,5.6,5.009,5.6,8.7,0,12.634.238,20.741-3.219.476-1.312.953-2.5,1.31-3.816l1.193-.594c-.359,3.816-.6,7.746-1.79,11.562a23.746,23.746,0,0,1,.6,4.648l-.119,6.081-2.266-2.5-1.191-3.338-2.266-1.907a79.519,79.519,0,0,0-9.655-.953l-10.846.119v20.025l-2.147,2.266,2.263,1.788c0,2.62,0,5.245.24,7.867l1.907,2.026c4.769,0,27.06.24,29.564-2.741,1.667-2.026,2.741-5.6,3.932-7.986l1.788-1.072C273.329,171.441,273.448,177.642,271.42,182.646Z" transform="translate(754.656 421.374)" fill="#161615" stroke="#161615" stroke-miterlimit="10" stroke-width="1"/>
    <path id="Path_86" data-name="Path 86" d="M300.206,182.646c-.834,2.028-4.89,3.813-5.6,5.723l-1.788-.24c-.24-1.431-2.266-1.431-2.622-2.86-2.266-2.385-33.02-1.312-38.144-1.312A11.752,11.752,0,0,1,248.71,183c.238-.713,3.695-7.033,4.17-7.151a32.937,32.937,0,0,1,3.338-.478l-1.072-1.31c.6-8.7.476-17.4.476-26.226,0-2.266,3.459-2.86,3.459-5.126,0-2.145-3.459-2.741-3.459-4.886V120.778c3.1-4.767,2.741-3.813,2.147-4.767,0-.476-2.744-4.65-3.219-5.482-2.145-.478-1.431-5.96-6.079-7.033l-.713-1.075c3.217,0,6.436-1.072,9.653-1.072,7.629,0,15.259.476,22.769.476a139.328,139.328,0,0,0,14.184-.594c.718-1.312,3.338-2.744,3.338-2.744l2.268-.238-.478,4.65.953,14.662-2.5-.478s-1.55-5.126-3.457-6.792c-2.385-2.028-23.126-2.5-27.417-2.5l-1.075.953V114.7l-1.31.837,1.31,1.072a135.4,135.4,0,0,0-.953,15.615c0,3.7,1.075,5.6,5.009,5.6,8.7,0,12.634.238,20.741-3.219.476-1.312.953-2.5,1.31-3.816l1.193-.594c-.359,3.816-.6,7.746-1.79,11.562a23.746,23.746,0,0,1,.6,4.648l-.119,6.081-2.266-2.5-1.191-3.338-2.266-1.907a79.518,79.518,0,0,0-9.655-.953l-10.846.119v20.025L263.61,166.2l2.263,1.788c0,2.62,0,5.245.24,7.867l1.907,2.026c4.769,0,27.06.24,29.564-2.741,1.667-2.026,2.741-5.6,3.932-7.986l1.788-1.072C302.113,171.441,302.232,177.642,300.206,182.646Z" transform="translate(791.68 421.374)" fill="#161615" stroke="#161615" stroke-miterlimit="10" stroke-width="1"/>
    <path id="Path_88" data-name="Path 88" d="M358.113,185.923c-4.888-.478-17.643-8.7-22.767-11.086l1.786-.834c.953-.478.834-.238,0-1.075-4.17-4.291-7.986-9.058-11.921-13.708l.718-1.786c-1.431-1.431-3.695-1.909-5.009-3.338a95.8,95.8,0,0,1-11.2-14.662c-2.506,1.55-5.366,2.382-7.629,4.17-.121,2.625-3.459,6.916-3.576,9.538a193.663,193.663,0,0,0,.117,20.382l-1.431,1.431.956,2.5,2.86.716,1.312,1.669a53.147,53.147,0,0,0,7.51,1.669l.119,1.191h-.119c-7.748,0-18,.716-25.272-.357-1.191-.119.24-1.55-4.051-1.55l-.837-2.385,2.625-.357a46.1,46.1,0,0,1,6.079-5.128c.357-4.886-.121-10.012.476-14.778.121-1.55,1.788-2.5,1.907-3.935l-1.786-2.5c0-11.2-.121-22.529-.121-33.736,0-.953,2.5-2.145,2.5-3.1,0-1.072-1.072-2.147-1.31-3.217-.24-1.193-1.193-2.028-1.312-3.221-.238-1.788-.119-3.576-.238-5.364-3.457-.594-6.916-1.907-10.371-2.266l-.6-1.31a276.951,276.951,0,0,0,31.47.119l.238.713a14.455,14.455,0,0,1-3.219,1.79c-3.338,1.072-.357,4.65-9.179,6.317-.235,3.221,1.671,5.366,1.671,8.226v2.981l-1.193,1.429,1.193,1.788.117,16.45c5.723-4.648,10.611-10.489,17.286-13.827.6-.238,1.191-2.145,1.788-2.741,2.622-2.263,5.245-4.769,7.867-6.914,1.191-1.072,5.482-2.86,6.079-3.695.478-.6,0-1.193,0-1.907,0-.478,5.126-5.6,5.841-6.559-2.86-.713-5.6-1.786-8.345-2.5l.834-1.193a249.449,249.449,0,0,0,26.7,0c-3.457,2.741-7.033,3.816-10.727,5.963-.716.476-23.363,18.713-24.081,19.31-1.548,1.669-4.767,5.6-5.245,7.75l8.226,10.606.6,3.219,2.741,1.193c3.457,4.529,6.676,9.058,9.774,13.587,1.075,1.55,1.55,4.65,2.744,5.6,1.431,1.312,3.932,1.788,5.245,3.1,2.741,2.62,5.126,5.958,7.629,8.7,2.145,2.5,5.839,4.291,8.345,6.317C360.854,185.566,358.113,185.923,358.113,185.923Z" transform="translate(829.977 422.983)" fill="#161615" stroke="#161615" stroke-miterlimit="10" stroke-width="1"/>
  </g>
</svg>
