<svg xmlns="http://www.w3.org/2000/svg" width="228.03" height="93.256" viewBox="0 0 228.03 93.256">
  <g id="Group_118" data-name="Group 118" transform="translate(-845.686 -423.233)">
    <path id="Path_155" data-name="Path 155" d="M103.673,93.973l191.036-2.14s13.811,5.394,14.367,16.058-5.594,38.731-5.594,38.731l-6.239,26.226-86.414,4.261L109,179.609,98.582,167.683l-7.617-26.207L86.222,118.1l6.2-16.533Z" transform="translate(760.477 334.289)" fill="#fef1de"/>
    <path id="Path_162" data-name="Path 162" d="M313.252,115.256c-1.007-5.645-3.524-10.7-6.243-15.679a14.879,14.879,0,0,0-8.054-6.723,28.775,28.775,0,0,0-11.573-2.1c-2.755.162-107.365,1.93-135.309,2.362,0-.088-.019-.177-.024-.267-3.4.274-40.464,1.52-43.87,1.481a15.816,15.816,0,0,0-8.517,2.145,53.345,53.345,0,0,0-4.349,3.128,21.683,21.683,0,0,0-7.081,8.426c-2.968,6.575-2.608,13.653-1.651,20.455a112.473,112.473,0,0,0,4.726,20.851,56.394,56.394,0,0,1,2.233,8.052c1.1,6.017,2.364,11.99,4.926,17.592,2.128,4.657,5.466,7.732,11.039,8.083,11.8.742,23.6.293,35.38-.136,19.522-.711,79.488-1.777,98.991-3.366a221.959,221.959,0,0,1,24.685-.632c8.577.27,17.07-.7,25.574-1.508,1.815-.172,3.106-1.322,4.428-2.357,3.3-2.6,3.965-6.63,4.979-10.232a141.9,141.9,0,0,0,3.409-17.1c.78-5.129,1.694-10.211,2.908-15.259,1.086-4.509,2.682-8.891,3.371-13.5a11.364,11.364,0,0,0,.019-3.717m-3.934,3.631c-1.028,4.113-1.923,8.083-3.02,12-2.09,7.462-2.97,15.151-4.523,22.714-1.143,5.571-1.617,11.365-4.5,16.48-.985,1.751-2.524,2.429-4.6,2.717-16.27,2.25-32.76.649-49.016,2.557-10.6,1.245-105.22,1.892-115.808,2.4-15.261.742,13.107,1.782-2.195,1.47-1.93-.041-1.93-.024-1.744-2.128-1.9,1.56-3.693,2.985-6.208,1.77.751-1.179,2.488-1.267,3.247-2.985-2.775,1.028-4.752,3.035-7.7,2.86l5.94-4.707c-3.361.923-5.59,2.922-8.245,4.063-.79.341-1.665,1.241-2.252.432s.928-.992,1.221-1.672c.091-.2.215-.4.363-.67-1.26-.651-1.854.475-2.662.883-.582.293-1.069,1.262-1.777.518-.687-.72-.265-1.408.573-1.858.239-.131.372-.449.68-.842-1.443-.417-1.92,1.648-3.407.823l3.423-3.989c-1.4.7-2.314,1.1-3.156,1.61-.463.282-.67,1.264-1.405.351a1.386,1.386,0,0,1-.052-1.928c.58-.661,1.431-1.136,1.369-2.152-1.155-.425-1.744,1.992-2.949.525-.992-1.214-.654-2.312.909-2.934-.487-.995-1.858.363-2.009-1.009-.157-1.434,1.188-1.787,1.892-2.586-.193-.179-.277-.322-.394-.355-.89-.255-1.348,1.613-2.149.656-.825-.995.773-1.252,1.152-1.918.825-1.439,2.037-2.66,2.925-4.289l-4.664,2.927c-1.236-4.507-2.536-8.846-3.583-13.243-.553-2.331-1.136-4.671-1.8-6.945a127.347,127.347,0,0,1-3.29-16.17c-1.078-7.071.212-13.8,4.965-19.343a32.583,32.583,0,0,1,8.483-6.761,6.165,6.165,0,0,1,3.008-.477c3.536-.146,17.943-.778,38.951-1l0,.11c3.285,0,139.2-2.312,142.485-2.314,1.035,0,2.2-.351,3.137.6-.608,1.155-2.4,1.012-2.693,2.55,2.457.2,4.025-2.4,6.5-2.037.2,1.3-1.326,1.05-1.539,1.937a1.176,1.176,0,0,0,1.458.048c1.806-1.429,3.483-.565,5.144.212.7.327,1.272.813.136,1.455-.732.415-1.625.678-2.033,1.586,1.145.25,1.932-.616,2.911-.8.549-.11,1.181-.864,1.617.052.375.79-.57.732-.89,1.09-1.109,1.262-3.14,1.3-4.294,3.24,2.35-.966,4.084-2.445,6.532-2.3-.315,1.928-2.4,2.016-3.5,3.347,1.241.117,1.839-.9,2.753-1.066.754-.138,1.689-.515,2.1.415.382.856-.692.837-1.1,1.221s-.825.692-1.3,1.088c.7.379,1.074-.222,1.563-.248.68-.031,1.341-1.3,2-.155.587,1.012-.689.971-1.059,1.451-.236.305-.472.613-.83,1.074,1.021.157,1.878-.783,2.791-.021-.394,1.842-2.758,1.646-3.514,3.421,1.722.045,2.882-1.322,4.414-1.555.864,1.818-1.823,1.544-1.751,2.877.873.491,1.758-.885,2.7.076a5.147,5.147,0,0,1-1.937,2.164c.692.854,1.6-.938,2.231.193.212.382-.017.687-.389.961-.67.5-1.272,1.093-2.376,2.061l2.729-.537" transform="translate(760.021 332.786)" fill="none" stroke="#040405" stroke-miterlimit="10" stroke-width="0.6"/>
    <path id="Path_161" data-name="Path 161" d="M313.252,115.256c-1.007-5.645-3.524-10.7-6.243-15.679a14.879,14.879,0,0,0-8.054-6.723,28.775,28.775,0,0,0-11.573-2.1c-2.755.162-107.365,1.93-135.309,2.362,0-.088-.019-.177-.024-.267-3.4.274-40.464,1.52-43.87,1.481a15.816,15.816,0,0,0-8.517,2.145,53.345,53.345,0,0,0-4.349,3.128,21.683,21.683,0,0,0-7.081,8.426c-2.968,6.575-2.608,13.653-1.651,20.455a112.473,112.473,0,0,0,4.726,20.851,56.394,56.394,0,0,1,2.233,8.052c1.1,6.017,2.364,11.99,4.926,17.592,2.128,4.657,5.466,7.732,11.039,8.083,11.8.742,23.6.293,35.38-.136,19.522-.711,79.488-1.777,98.991-3.366a221.959,221.959,0,0,1,24.685-.632c8.577.27,17.07-.7,25.574-1.508,1.815-.172,3.106-1.322,4.428-2.357,3.3-2.6,3.965-6.63,4.979-10.232a141.9,141.9,0,0,0,3.409-17.1c.78-5.129,1.694-10.211,2.908-15.259,1.086-4.509,2.682-8.891,3.371-13.5a11.364,11.364,0,0,0,.019-3.717m-3.934,3.631c-1.028,4.113-1.923,8.083-3.02,12-2.09,7.462-2.97,15.151-4.523,22.714-1.143,5.571-1.617,11.365-4.5,16.48-.985,1.751-2.524,2.429-4.6,2.717-16.27,2.25-32.76.649-49.016,2.557-10.6,1.245-105.22,1.892-115.808,2.4-15.261.742,13.107,1.782-2.195,1.47-1.93-.041-1.93-.024-1.744-2.128-1.9,1.56-3.693,2.985-6.208,1.77.751-1.179,2.488-1.267,3.247-2.985-2.775,1.028-4.752,3.035-7.7,2.86l5.94-4.707c-3.361.923-5.59,2.922-8.245,4.063-.79.341-1.665,1.241-2.252.432s.928-.992,1.221-1.672c.091-.2.215-.4.363-.67-1.26-.651-1.854.475-2.662.883-.582.293-1.069,1.262-1.777.518-.687-.72-.265-1.408.573-1.858.239-.131.372-.449.68-.842-1.443-.417-1.92,1.648-3.407.823l3.423-3.989c-1.4.7-2.314,1.1-3.156,1.61-.463.282-.67,1.264-1.405.351a1.386,1.386,0,0,1-.052-1.928c.58-.661,1.431-1.136,1.369-2.152-1.155-.425-1.744,1.992-2.949.525-.992-1.214-.654-2.312.909-2.934-.487-.995-1.858.363-2.009-1.009-.157-1.434,1.188-1.787,1.892-2.586-.193-.179-.277-.322-.394-.355-.89-.255-1.348,1.613-2.149.656-.825-.995.773-1.252,1.152-1.918.825-1.439,2.037-2.66,2.925-4.289l-4.664,2.927c-1.236-4.507-2.536-8.846-3.583-13.243-.553-2.331-1.136-4.671-1.8-6.945a127.347,127.347,0,0,1-3.29-16.17c-1.078-7.071.212-13.8,4.965-19.343a32.583,32.583,0,0,1,8.483-6.761,6.165,6.165,0,0,1,3.008-.477c3.536-.146,17.943-.778,38.951-1l0,.11c3.285,0,139.2-2.312,142.485-2.314,1.035,0,2.2-.351,3.137.6-.608,1.155-2.4,1.012-2.693,2.55,2.457.2,4.025-2.4,6.5-2.037.2,1.3-1.326,1.05-1.539,1.937a1.176,1.176,0,0,0,1.458.048c1.806-1.429,3.483-.565,5.144.212.7.327,1.272.813.136,1.455-.732.415-1.625.678-2.033,1.586,1.145.25,1.932-.616,2.911-.8.549-.11,1.181-.864,1.617.052.375.79-.57.732-.89,1.09-1.109,1.262-3.14,1.3-4.294,3.24,2.35-.966,4.084-2.445,6.532-2.3-.315,1.928-2.4,2.016-3.5,3.347,1.241.117,1.839-.9,2.753-1.066.754-.138,1.689-.515,2.1.415.382.856-.692.837-1.1,1.221s-.825.692-1.3,1.088c.7.379,1.074-.222,1.563-.248.68-.031,1.341-1.3,2-.155.587,1.012-.689.971-1.059,1.451-.236.305-.472.613-.83,1.074,1.021.157,1.878-.783,2.791-.021-.394,1.842-2.758,1.646-3.514,3.421,1.722.045,2.882-1.322,4.414-1.555.864,1.818-1.823,1.544-1.751,2.877.873.491,1.758-.885,2.7.076a5.147,5.147,0,0,1-1.937,2.164c.692.854,1.6-.938,2.231.193.212.382-.017.687-.389.961-.67.5-1.272,1.093-2.376,2.061l2.729-.537" transform="translate(760.021 332.786)" fill="#121211"/>
    <path id="Path_198" data-name="Path 198" d="M40.494-19.533a13.256,13.256,0,0,0-10.506-13.26l.51-.357a30.461,30.461,0,0,0-11.679-2.193c-5.3,0-10.608.663-15.912.765l.306.51c1.122.255,2.3.51,3.417.816l.714,2.091c.2.663,1.479,1.632,1.479,2.193,0,.51-1.326,1.02-1.275,1.53v6.63l1.02,1.122-1.02.969c0,2.805-.1,5.559-.1,8.313A10.975,10.975,0,0,0,8.67-4.845L7.5-4.335l-.051.51L7.038-2.448,4.08-.969,2.958-.408c4.029.255,8.109.561,12.189.561,8.517,0,16.422-1.224,21.879-8.415.51-.663,2.346-3.774,2.346-4.437,0-.459-.357-.867-.459-1.326C40.749-15.453,40.494-17.391,40.494-19.533Zm-4.539,1.785a16.447,16.447,0,0,1-1.377,6.987l.612.714-1.632,1.02A13.338,13.338,0,0,1,29.07-4.59l-.051.612a36.283,36.283,0,0,1-10.4,2.091,24,24,0,0,1-6.63-.612l-.051-1.377-.918-1.173.816-1.428c-.051-1.887-.051-3.825,0-5.763l-.765-.765.765-.612v-2.448l-1.02-1.122,1.02-1.173v-5.967c0-.867-.306-1.683-.306-2.5a36.986,36.986,0,0,1,.459-4.08c.969-.255,1.326-2.244,2.244-2.244,1.071-.051,2.193-.051,3.264-.051,5.916,0,10.4,2.04,15.5,4.794l-.459.816C35.19-24.684,35.955-21.573,35.955-17.748ZM70.38-7.65l-.765.459a19.343,19.343,0,0,1-1.683,3.417C66.861-2.5,57.324-2.6,55.284-2.6l-.816-.867c-.1-1.122-.1-2.244-.1-3.366L53.4-7.6l.918-.969v-8.568l4.641-.051a34.011,34.011,0,0,1,4.131.408l.969.816.51,1.428.969,1.071.051-2.6a10.187,10.187,0,0,0-.255-1.989A23.739,23.739,0,0,0,66.1-23l-.51.255c-.153.561-.357,1.071-.561,1.632-3.468,1.479-5.151,1.377-8.874,1.377-1.683,0-2.142-.816-2.142-2.4a58.014,58.014,0,0,1,.408-6.681l-.561-.459.561-.357v-2.55l.459-.408c1.836,0,10.71.2,11.73,1.071a8.4,8.4,0,0,1,1.479,2.907l1.071.2-.408-6.273.2-1.989-.969.1a4.533,4.533,0,0,0-1.428,1.173,59.753,59.753,0,0,1-6.069.255c-3.213,0-6.477-.2-9.741-.2-1.377,0-2.754.459-4.131.459l.306.459c1.989.459,1.683,2.8,2.6,3.009A24.958,24.958,0,0,1,50.9-29.07c.255.408.408,0-.918,2.04v7.293c0,.918,1.479,1.173,1.479,2.091,0,.969-1.479,1.224-1.479,2.193,0,3.774.051,7.5-.2,11.22l.459.561a13.747,13.747,0,0,0-1.428.2,19.33,19.33,0,0,0-1.785,3.06A5.023,5.023,0,0,0,48.45,0C50.643,0,63.8-.459,64.77.561c.153.612,1.02.612,1.122,1.224l.765.1c.306-.816,2.04-1.581,2.4-2.448C69.921-2.7,69.87-5.355,70.38-7.65Zm30.6,0-.765.459a19.342,19.342,0,0,1-1.683,3.417C97.461-2.5,87.924-2.6,85.884-2.6l-.816-.867c-.1-1.122-.1-2.244-.1-3.366L84-7.6l.918-.969v-8.568l4.641-.051a34.011,34.011,0,0,1,4.131.408l.969.816.51,1.428.969,1.071.051-2.6a10.188,10.188,0,0,0-.255-1.989A23.739,23.739,0,0,0,96.7-23l-.51.255c-.153.561-.357,1.071-.561,1.632-3.468,1.479-5.151,1.377-8.874,1.377-1.683,0-2.142-.816-2.142-2.4a58.014,58.014,0,0,1,.408-6.681l-.561-.459.561-.357v-2.55l.459-.408c1.836,0,10.71.2,11.73,1.071a8.4,8.4,0,0,1,1.479,2.907l1.071.2-.408-6.273.2-1.989-.969.1a4.533,4.533,0,0,0-1.428,1.173,59.753,59.753,0,0,1-6.069.255c-3.213,0-6.477-.2-9.741-.2-1.377,0-2.754.459-4.131.459l.306.459c1.989.459,1.683,2.8,2.6,3.009A24.96,24.96,0,0,1,81.5-29.07c.255.408.408,0-.918,2.04v7.293c0,.918,1.479,1.173,1.479,2.091,0,.969-1.479,1.224-1.479,2.193,0,3.774.051,7.5-.2,11.22l.459.561a13.747,13.747,0,0,0-1.428.2,19.33,19.33,0,0,0-1.785,3.06A5.023,5.023,0,0,0,79.05,0C81.243,0,94.4-.459,95.37.561c.153.612,1.02.612,1.122,1.224l.765.1c.306-.816,2.04-1.581,2.4-2.448C100.521-2.7,100.47-5.355,100.98-7.65Zm30.294-1.785-.714.51c-2.907,7.191-4.9,7.089-12.291,7.089h-2.754a16.2,16.2,0,0,1-.306-2.193l-.51-.765c-.051-1.734-.051-1.326-.051-2.091l-.714-.255.918-.765c0-2.091.306-3.672.306-5.763,0-1.479-.2-1.428-1.275-2.6l1.071-2.142c-.1-2.3-.1-4.59-.051-6.885l-.561-1.224.612-1.581-.153-1.632.765-.561-.153-2.193c.2,0,.2-.255.459-.255l2.193-2.4c-.714-.561-1.581.918-2.193.255-.969-.969-.408-.357-2.6-.357-.918,0-.867-.1-1.785-.1-1.734,0-3.468.1-5.2,0l.357.255.2.459c4.386.357,3.927.969,3.927,4.9v4.488l.918.255-1.02.714a22.879,22.879,0,0,1,0,4.182c0,.561.255,1.377.306,1.938-.051.2-.306,1.02-.306,1.173v.663l.867,1.122-.867,1.02-.051,6.63c0,1.122,0,1.938-.1,3.06v.051c-.663.153-.663.714-1.326.765-.561,0-.408.1-.867.561a11.086,11.086,0,0,1-.1,1.836A4.621,4.621,0,0,1,106.692.1c5.967.1,10.965.153,16.932.357l1.581.255s1.173.255,1.173.714L127.3,2.7l.867.1,1.428-1.581a7.686,7.686,0,0,1,.357-2.448l-.714-.255-.153-.255,1.122-.357A70.753,70.753,0,0,0,131.274-9.435Zm45.747,1.326-.765.306c-.2,1.02-1.836,2.856-2.193,3.774-1.224.867-6.018.918-7.548.918l-6.579-.1c2.04-1.785,4.9-4.692,7.14-6.987,3.825-3.927,7.8-8.823,8.415-14.637a10.591,10.591,0,0,0,.051-1.785,7.783,7.783,0,0,0-.153-1.53c-.1-.2-.969-.714-1.071-.918-.051-.153.51-.663.408-.816a7.944,7.944,0,0,0-2.295-3.315,10.215,10.215,0,0,0-5.559-2.04,13.343,13.343,0,0,0-3.774.051c-.306-.561-.561-1.122-.816-1.683-.1,0-.612-.2-.663-.2a12.473,12.473,0,0,0-1.734,1.581,14.532,14.532,0,0,0-3.264,5.712c-.1.408-.663,2.856-.663,2.856s.663.1.765,0a32.056,32.056,0,0,1,3.162-5.457,7.658,7.658,0,0,1,3.723-.867A7.3,7.3,0,0,1,171-27.234a7.381,7.381,0,0,1,.2,1.53,6.684,6.684,0,0,1,0,1.428c.051.306,1.071.816,1.071,1.071,0,.816-1.326,1.989-1.581,2.754a16.725,16.725,0,0,1-1.224,2.805c-.051.1.867.459.816.561-.051.153-1.428.612-1.53.816A55.011,55.011,0,0,1,159.426-4.9c-.1.1.1.765-.051.867-.1.1-1.275.357-1.428.459-.255.2-.663.561-.867.765A40.784,40.784,0,0,1,153.663,0c3.57.051,13.719-.051,17.289.1.051.612,1.785,1.275,1.785,1.275l1.734-.612.408-.357s.408-1.428.459-1.734c.051-.2-.918-.765-.918-.969.051-.306,1.428-.969,1.479-1.326C176.052-4.59,176.919-7.089,177.021-8.109Z" transform="matrix(0.999, -0.035, 0.035, 0.999, 872.595, 490.063)" stroke="#000" stroke-width="1"/>
  </g>
</svg>
