<svg xmlns="http://www.w3.org/2000/svg" width="701.285" height="105.849" viewBox="0 0 701.285 105.849">
  <g id="Group_110" data-name="Group 110" transform="translate(-610.365 -711.131)">
    <path id="Path_19" data-name="Path 19" d="M75.344,216.756q-1.163,0-1.795-.053a.883.883,0,0,1-.793-.318q-1.584.106-5.412.133t-5.837.185c-.951.034-1.424-.352-1.424-1.161a2,2,0,0,1,1.161-1.85l1.955-.738a17.916,17.916,0,0,1,1.054-5.887,64.914,64.914,0,0,1,2.615-6.34,36.892,36.892,0,0,0,2.14-5.357,20.9,20.9,0,0,0,.393-3.99,8.4,8.4,0,0,0-.869-3.457q-4.016-.213-4.015-1.532a2.039,2.039,0,0,1,.713-1.4,2.3,2.3,0,0,1,1.4-.766c.567-.032,2.307.091,5.231.373l9.4-.53q.844.055,3.036.027t2.931-.08q1.478-.106,1.479,1.214c0,.352-.027.9-.078,1.639s-.082,1.3-.082,1.69a7.655,7.655,0,0,0,.055.766c.032.334.053.608.053.816a1.984,1.984,0,0,1-.686,1.454,2.008,2.008,0,0,1-1.374.658.878.878,0,0,1-.686-.29,1.625,1.625,0,0,1-.343-.9,8.3,8.3,0,0,1-.08-1.111c0-.332.007-.8.025-1.4s.027-1,.027-1.214a1.992,1.992,0,0,1-1.269.526q-1.163,0-4.223.133t-4.7.08a17.008,17.008,0,0,0-.816,2.4q-.346,1.293-.848,3.4t-1.081,4.12c.457.457,1.619.6,3.484.423a6.221,6.221,0,0,0,2.958-1.136,22.289,22.289,0,0,0,2.113-1.717,2.392,2.392,0,0,1,1.532-.789c.844,0,1.267.35,1.267,1.056a16.12,16.12,0,0,1-1,2.851,22.643,22.643,0,0,0-1.319,4.17l-.213,1.427a1.808,1.808,0,0,1-.766,1.056,2.141,2.141,0,0,1-1.241.421c-.775,0-1.107-.421-1-1.264l.105-.9a1.455,1.455,0,0,0-1.029-1.214,5.634,5.634,0,0,0-2.245-.423q-2.853,0-3.326,1.532a26.148,26.148,0,0,0-.846,3.752,31.379,31.379,0,0,1-.818,3.775,5.658,5.658,0,0,1-1.4,2.455,36.618,36.618,0,0,0,7.076-.528,11.413,11.413,0,0,0,3.644-1.4,14.737,14.737,0,0,0,2.773-2.032,24.487,24.487,0,0,1,2.005-1.77,2.9,2.9,0,0,1,1.559-.766,1.283,1.283,0,0,1,.9.343,1.145,1.145,0,0,1,.368.871,1.627,1.627,0,0,1-.053.476,11.739,11.739,0,0,1-3.96,6.127q-2.644,1.951-7.817,1.952" transform="translate(550.282 531.68)" fill="#161615"/>
    <path id="Path_20" data-name="Path 20" d="M82.014,212.856a8.914,8.914,0,0,1-4.726-1.269,6.585,6.585,0,0,1-2.876-4.012,11.777,11.777,0,0,1-.425-3.061,15.34,15.34,0,0,1,2.878-8.688,18.074,18.074,0,0,1,6.946-6.26,1.237,1.237,0,0,1,1-.158,16.5,16.5,0,0,1,6.55-1.795q4.647,0,4.275,5.862A8.321,8.321,0,0,1,93,199.1a14.043,14.043,0,0,1-5.624,3.354,22.022,22.022,0,0,1-6.626,1c-.142,0-.354-.009-.636-.027s-.492-.027-.633-.027l.318,1.214a4.221,4.221,0,0,0,.633,2.353,3.82,3.82,0,0,0,1.744,1.452,9.778,9.778,0,0,0,2.215.661,14.705,14.705,0,0,0,2.375.185q.638-.264,3.2-1.772a30.507,30.507,0,0,1,3.144-1.715c.981-.951,1.69-1.427,2.11-1.427a1.307,1.307,0,0,1,.924.37,1.19,1.19,0,0,1,.4.9,1.709,1.709,0,0,1-.476,1.161,28.683,28.683,0,0,1-6.262,4.355,13.266,13.266,0,0,1-5.887,1.717Zm-.738-13.624a14.492,14.492,0,0,0,7.156-1.93q3.457-1.924,3.459-4.989,0-.9-1.587-.9a12.285,12.285,0,0,0-4.8,1.241,7.829,7.829,0,0,0-3.752,2.878,13.252,13.252,0,0,0-1.637,3.644,9.328,9.328,0,0,0,1.164.053" transform="translate(568.167 536.319)" fill="#161615"/>
    <path id="Path_21" data-name="Path 21" d="M103.183,213.089q-2.215,0-2.218-2.956a8.682,8.682,0,0,1,.105-1.164q.055-.315.53-2.4t.924-4.7a27,27,0,0,0,.448-4.41q0-3.591-1.847-3.589a2.853,2.853,0,0,0-.9.158l-3.7,1.795q-1.53,1.265-2.773,5.334a44.589,44.589,0,0,0-1.61,6.813,7.752,7.752,0,0,0-.105,1.056,8.505,8.505,0,0,1-.133,1.187c-.053.231-.142.54-.265.926a1.742,1.742,0,0,1-.553.869,2.719,2.719,0,0,1-.9.453,5.441,5.441,0,0,1-1.319.155c-1.834,0-2.746-.631-2.746-1.9a7.71,7.71,0,0,1,.448-2.561,19.1,19.1,0,0,1,1.189-2.693q.737-1.4,1-2.035l.741-2.058a13.325,13.325,0,0,0,1.321-5.334q0-2.589-1.8-2.588a6.141,6.141,0,0,0-1.374,1.847,1.92,1.92,0,0,1-2.005,1.372c-.738,0-1.109-.313-1.109-.949a2.859,2.859,0,0,1,.105-.633,13.873,13.873,0,0,1,3.434-4.6q2.85-2.85,4.909-2.851a2.1,2.1,0,0,1,1.69.844,7.9,7.9,0,0,1,1.374,4.332q4.012-4.541,7.129-4.54a4.209,4.209,0,0,1,1.584.315q3.169,1.265,3.169,5.386a42.85,42.85,0,0,1-.526,4.648q-1.06,6.176-1.111,7.5v.37a4.726,4.726,0,0,0-.053.636v.526a3.708,3.708,0,0,0,.027.476,1.015,1.015,0,0,0,.078.318c.034.071.071.105.107.105a1.888,1.888,0,0,0,.924-.343,6.021,6.021,0,0,0,.871-.633c.213-.194.526-.5.951-.924l.633-.581a1.838,1.838,0,0,1,1.267-.53,1.337,1.337,0,0,1,.951.345,1.143,1.143,0,0,1,.37.871,1.747,1.747,0,0,1-.528,1.159q-4.122,4.438-8.082,5.126a3.044,3.044,0,0,1-.633.05" transform="translate(581.744 536.349)" fill="#161615"/>
    <path id="Path_22" data-name="Path 22" d="M110.024,220.215a36.527,36.527,0,0,1-3.96-.213,1.132,1.132,0,0,1-1.056-1.264,1.711,1.711,0,0,1,.476-1.269l1.159-1.214a10.342,10.342,0,0,1,.423-1.637,14.427,14.427,0,0,1,.661-1.664q.343-.713.844-1.77c.336-.7.572-1.2.716-1.479l3.537-13.2a40.453,40.453,0,0,0-1-9.136l-1-.528-1.056.16a1.353,1.353,0,0,1-1.059-.29,1.206,1.206,0,0,1-.368-.926,2.1,2.1,0,0,1,.368-1.189,1.664,1.664,0,0,1,1-.713,1.6,1.6,0,0,1,1.056-.476c.105,0,.336.018.686.055s.688.053,1,.053a40.706,40.706,0,0,0,6.655-1.427.905.905,0,0,1,1.029.185,1.6,1.6,0,0,1,.343,1.084,2.394,2.394,0,0,1-.158.844q-.741,1.742-2.058,5.334t-1.482,4.065a63.287,63.287,0,0,1-1.374,6.5,10.622,10.622,0,0,1,3.3-2.085,20.036,20.036,0,0,1,3.219-1.161q1.08-.237,3.724-.766a7.212,7.212,0,0,1,1.742-.21q3.062,0,3.061,3.274a25.862,25.862,0,0,1-1.5,6.838,44.187,44.187,0,0,0-1.61,5.784q-.106,1.265-.107,1.582c0,.988.16,1.479.476,1.479a1.071,1.071,0,0,0,.636-.315q.367-.319.951-.846c.386-.352.7-.636.951-.844a1.553,1.553,0,0,1,1.056-.425.913.913,0,0,1,.766.4,1.527,1.527,0,0,1,.29.924,2.013,2.013,0,0,1-.688,1.532q-.158.106-.818.713c-.441.4-.75.679-.924.818s-.466.386-.873.738a5.859,5.859,0,0,1-1,.741c-.265.139-.572.306-.926.5a4.719,4.719,0,0,1-1,.423,3.584,3.584,0,0,1-.951.13q-2.061,0-3.432-2.746a1.849,1.849,0,0,1-.107-.581q0-1.163,1.85-6.39t1.847-6.866c0-.738-.213-1.177-.633-1.319-.142-.389-.581-.581-1.319-.581a11.229,11.229,0,0,0-3.381.686,9.505,9.505,0,0,0-2.323.951l-1.161.581a17.2,17.2,0,0,0-2.483,4.963,30.163,30.163,0,0,0-1.267,4.781q-.264,1.77-.738,5.519a2.3,2.3,0,0,1-.661,1.347,1.843,1.843,0,0,1-1.347.553" transform="translate(608.067 529.117)" fill="#161615"/>
    <path id="Path_23" data-name="Path 23" d="M121.948,218.936q-2.325,0-2.746-3.059a6.143,6.143,0,0,1-.053-.951,9.776,9.776,0,0,1,.846-3.434,22.224,22.224,0,0,0,1-2.853,33.032,33.032,0,0,0,1.427-7.92c0-1.69-.421-2.554-1.269-2.588H121a2.742,2.742,0,0,0-.476.053c-.281.037-.421-.053-.421-.263h-.686c-.706,0-1.056-.334-1.056-1a2.338,2.338,0,0,1,.606-1.479,1.782,1.782,0,0,1,1.4-.738c.245,0,.642.009,1.189.027s.958.025,1.239.025a12.492,12.492,0,0,0,5.757-1.109,1.669,1.669,0,0,1,.633-.158c.6,0,.9.389.9,1.159a2.2,2.2,0,0,1-.423,1.324,13.236,13.236,0,0,0-1.264,2.638q-.638,1.691-1.241,3.775c-.407,1.395-.7,2.334-.873,2.828a16.778,16.778,0,0,1-.29,2.4c-.16.83-.281,1.418-.368,1.77s-.29,1.022-.608,2.007l-.476,1.532a3.342,3.342,0,0,0,.238,1.136.476.476,0,0,0,.606.29,8.58,8.58,0,0,0,3.276-2.7,1.813,1.813,0,0,1,1.264-.631,1.24,1.24,0,0,1,.951.393,1.315,1.315,0,0,1,.373.926,1.709,1.709,0,0,1-.476,1.161,23.447,23.447,0,0,1-4.12,3.537,8.569,8.569,0,0,1-4.7,1.9m3.539-27.3a1.306,1.306,0,0,1-1.109-.581,5.8,5.8,0,0,1-1.111-3.274,4.31,4.31,0,0,1,.37-1.847,5.934,5.934,0,0,1,4.172-3.169,1.129,1.129,0,0,1,1.136.263,1.322,1.322,0,0,1,.343,1.056,4.351,4.351,0,0,1,.791,2.375,3.376,3.376,0,0,1-.315,1.427,7.375,7.375,0,0,1-3.647,3.592,1.364,1.364,0,0,1-.631.158" transform="translate(625.24 530.026)" fill="#161615"/>
    <path id="Path_24" data-name="Path 24" d="M133.829,213.979a7.862,7.862,0,0,1-1.532-.16,7.007,7.007,0,0,1-4.225-2.586q-2.692-2.006-2.691-4.28a3.159,3.159,0,0,1,.631-1.952q1.217-1.584,2.27-1.584A2.137,2.137,0,0,1,130,204.5a18.847,18.847,0,0,1,1.664,3.091,2.633,2.633,0,0,0,1.081,1.081,3.223,3.223,0,0,0,1.717.5,2.656,2.656,0,0,0,1.692-.581,3.372,3.372,0,0,0,1.214-2.9,4.85,4.85,0,0,0-.793-2.8,10.63,10.63,0,0,0-3.009-2.06,14.515,14.515,0,0,1-2.538-1.479,5.932,5.932,0,0,1-1.952-4.118,8.41,8.41,0,0,1,.738-3.118A4.687,4.687,0,0,1,133.353,188a5.638,5.638,0,0,1,3.009-.846,7.819,7.819,0,0,1,6.34,3.276c.7.176,1.056.544,1.056,1.107a2.181,2.181,0,0,1-.476,1.321,2.132,2.132,0,0,1-1.744,1.109,1.971,1.971,0,0,1-.633.158.779.779,0,0,1-.686-.476,1.158,1.158,0,0,1-.581-1.372q-2.692-1.848-3.96-1.847a.863.863,0,0,0-.636.263,4.524,4.524,0,0,0-1.319,2.851,2.907,2.907,0,0,0,.818,2.007,11.276,11.276,0,0,0,2.4,1.875q1.588.981,1.85,1.189a9.655,9.655,0,0,1,2.27,2.746,7.65,7.65,0,0,1,1.056,3.962,8.565,8.565,0,0,1-2.113,5.384,7.772,7.772,0,0,1-6.177,3.276m5.334-11.937a1.325,1.325,0,0,0,.29-.238c.123-.121.22-.219.29-.288a9.635,9.635,0,0,0-.793-.688,9.593,9.593,0,0,1-1.134-.713c-.476-.334-.8-.556-.979-.661a14.715,14.715,0,0,1,.9,1.214l.213.213a5.637,5.637,0,0,1,1.214,1.161" transform="translate(634.272 535.724)" fill="#161615"/>
    <path id="Path_25" data-name="Path 25" d="M140.573,217.187a3.506,3.506,0,0,1-2.746-1.269,5.141,5.141,0,0,1-1.056-3.484,30.6,30.6,0,0,1,1.239-6.813,30.966,30.966,0,0,0,1.241-6.39q0-3.062-2.906-3.061l-.631.263a4.7,4.7,0,0,1-.476.107c-.6,0-.9-.336-.9-1.006a2.582,2.582,0,0,1,.423-1.372,1.987,1.987,0,0,1,1.056-.9,4.758,4.758,0,0,0,.9-.37q.158-.315.871-.473a10.541,10.541,0,0,1,1.717-.213c.668-.034,1.038-.053,1.111-.053A9.8,9.8,0,0,0,142,188.511q.9-3.008,1.69-3.589a1.272,1.272,0,0,1,.741-.265q1.475,0,1.477,3.274a53.428,53.428,0,0,1-.631,5.439,43.9,43.9,0,0,0,5.965-.631q1.427-.213,1.427,1.107a2.256,2.256,0,0,1-.448,1.321,1.676,1.676,0,0,1-1.136.738,53.626,53.626,0,0,1-6.337.686l-1.582,7.4a18.752,18.752,0,0,0-.45,2.19,15.653,15.653,0,0,1-.5,2.3,2.014,2.014,0,0,0-.185.528q-.134.477-.29,1.241a6.641,6.641,0,0,0-.16,1.294q0,1.111.686,1.111a1.326,1.326,0,0,0,.793-.267,13.955,13.955,0,0,0,2.113-1.5,20.808,20.808,0,0,1,2.007-1.5,2.156,2.156,0,0,1,1-.318c.773,0,1.161.407,1.161,1.216q0,1.269-3.064,4.092t-5.7,2.826" transform="translate(645.797 532.516)" fill="#161615"/>
    <path id="Path_26" data-name="Path 26" d="M152.913,212.5a7.07,7.07,0,0,1-2.007-.313l-2.325-1.481a6.969,6.969,0,0,1-3.695-3.377,8.926,8.926,0,0,1-1.321-4.227c0-.281-.009-.722-.027-1.319s-.025-1.056-.025-1.374a9.717,9.717,0,0,1,2.535-6.758q.158-.209.976-1.164c.546-.633.96-1.1,1.241-1.4s.729-.713,1.344-1.239a10.466,10.466,0,0,1,1.639-1.189,8.161,8.161,0,0,1,1.742-.686,6.522,6.522,0,0,1,2.085-.24,8.06,8.06,0,0,1,4.6,1.587q5.545,2.641,5.439,6.285l-.105,1.424a10.547,10.547,0,0,1-1.5,5.334,22.526,22.526,0,0,1-3.777,5.016q-2.8,5.124-6.811,5.121m-1.164-4.17a5.1,5.1,0,0,0,1.532-.213,30.2,30.2,0,0,0,2.428-1.847,18.518,18.518,0,0,0,3.857-7.869c.105-1.406.158-2.129.158-2.163l-.053-1.321a8.4,8.4,0,0,0-2.4-2.455,5.656,5.656,0,0,0-2.984-1.031,1.749,1.749,0,0,1-.951,1.269,9.055,9.055,0,0,0-3.512,4.225,13.963,13.963,0,0,0-1.4,5.915,8.163,8.163,0,0,0,.37,2.586,4.373,4.373,0,0,0,2.007,2.8,2.934,2.934,0,0,0,.949.105" transform="translate(657.594 536.463)" fill="#161615"/>
    <path id="Path_27" data-name="Path 27" d="M158.62,212.483a7.1,7.1,0,0,1-1.742-.213.855.855,0,0,1-.686-.951,2.541,2.541,0,0,1,.476-1.477,25.439,25.439,0,0,0,2.718-6.443,28.4,28.4,0,0,0,1.5-8.45,10.761,10.761,0,0,0-.421-3.064,2.647,2.647,0,0,0-1.479.9l-1.952,2.06a2.081,2.081,0,0,1-1.321.581,1.374,1.374,0,0,1-.976-.37,1.181,1.181,0,0,1-.4-.9,1.628,1.628,0,0,1,.581-1.107q.315-.264,1.372-1.427t1.77-1.85a9.2,9.2,0,0,1,1.822-1.319,4.215,4.215,0,0,1,2.06-.633,3.506,3.506,0,0,1,1.214.213,3.761,3.761,0,0,1,2.323,3.272,12.311,12.311,0,0,1,1.056-1.161,7.179,7.179,0,0,1,3.539-1.9,6.481,6.481,0,0,1,1.69-.263,5.285,5.285,0,0,1,3.644,1.427,3.313,3.313,0,0,1,1.161,2.43,4.079,4.079,0,0,1-.766,2.3,6.766,6.766,0,0,1-1.875,1.872,2.084,2.084,0,0,1-1.109.37,1.039,1.039,0,0,1-.951-.528,10.954,10.954,0,0,1-.528-1.321,9.468,9.468,0,0,0-.924-1.925c-.334-.512-.679-.748-1.029-.716l-.9.636-.526.315-.633.738a12.582,12.582,0,0,0-1.111,2.643q-.051.158-.473,1.927t-.951,3.775c-.352,1.34-.722,2.718-1.109,4.145s-.748,2.643-1.084,3.644a5.432,5.432,0,0,1-.711,1.664,5.2,5.2,0,0,1-3.276,1.109" transform="translate(671.528 536.587)" fill="#161615"/>
    <path id="Path_28" data-name="Path 28" d="M168.351,218.936q-2.325,0-2.746-3.059a6.147,6.147,0,0,1-.053-.951,9.776,9.776,0,0,1,.846-3.434,22.231,22.231,0,0,0,1-2.853,33.033,33.033,0,0,0,1.427-7.92c0-1.69-.421-2.554-1.269-2.588H167.4a2.743,2.743,0,0,0-.476.053c-.281.037-.421-.053-.421-.263h-.686c-.706,0-1.056-.334-1.056-1a2.338,2.338,0,0,1,.606-1.479,1.782,1.782,0,0,1,1.4-.738c.245,0,.642.009,1.189.027s.958.025,1.239.025a12.492,12.492,0,0,0,5.757-1.109,1.669,1.669,0,0,1,.633-.158c.6,0,.9.389.9,1.159a2.2,2.2,0,0,1-.423,1.324,13.238,13.238,0,0,0-1.264,2.638q-.638,1.691-1.241,3.775c-.407,1.395-.7,2.334-.873,2.828a16.782,16.782,0,0,1-.29,2.4c-.16.83-.281,1.418-.368,1.77s-.29,1.022-.608,2.007l-.476,1.532a3.343,3.343,0,0,0,.238,1.136.476.476,0,0,0,.606.29,8.58,8.58,0,0,0,3.276-2.7,1.813,1.813,0,0,1,1.264-.631,1.24,1.24,0,0,1,.951.393,1.315,1.315,0,0,1,.373.926,1.709,1.709,0,0,1-.476,1.161,23.446,23.446,0,0,1-4.12,3.537,8.569,8.569,0,0,1-4.7,1.9m3.539-27.3a1.306,1.306,0,0,1-1.109-.581,5.8,5.8,0,0,1-1.111-3.274,4.311,4.311,0,0,1,.37-1.847,5.934,5.934,0,0,1,4.172-3.169,1.129,1.129,0,0,1,1.136.263,1.322,1.322,0,0,1,.343,1.056,4.351,4.351,0,0,1,.791,2.375,3.376,3.376,0,0,1-.315,1.427,7.375,7.375,0,0,1-3.647,3.592,1.364,1.364,0,0,1-.631.158" transform="translate(684.927 530.026)" fill="#161615"/>
    <path id="Path_29" data-name="Path 29" d="M180.231,213.979a7.861,7.861,0,0,1-1.532-.16,7.007,7.007,0,0,1-4.225-2.586q-2.692-2.006-2.691-4.28a3.159,3.159,0,0,1,.631-1.952q1.217-1.584,2.27-1.584A2.137,2.137,0,0,1,176.4,204.5a18.849,18.849,0,0,1,1.664,3.091,2.632,2.632,0,0,0,1.081,1.081,3.222,3.222,0,0,0,1.717.5,2.656,2.656,0,0,0,1.692-.581,3.372,3.372,0,0,0,1.214-2.9,4.85,4.85,0,0,0-.793-2.8,10.629,10.629,0,0,0-3.009-2.06,14.515,14.515,0,0,1-2.538-1.479,5.932,5.932,0,0,1-1.952-4.118,8.41,8.41,0,0,1,.738-3.118A4.687,4.687,0,0,1,179.755,188a5.637,5.637,0,0,1,3.009-.846,7.818,7.818,0,0,1,6.34,3.276c.7.176,1.056.544,1.056,1.107a2.181,2.181,0,0,1-.476,1.321,2.132,2.132,0,0,1-1.744,1.109,1.971,1.971,0,0,1-.633.158.779.779,0,0,1-.686-.476,1.158,1.158,0,0,1-.581-1.372q-2.692-1.848-3.96-1.847a.863.863,0,0,0-.636.263,4.523,4.523,0,0,0-1.319,2.851,2.907,2.907,0,0,0,.818,2.007,11.278,11.278,0,0,0,2.4,1.875q1.588.981,1.85,1.189a9.655,9.655,0,0,1,2.27,2.746,7.65,7.65,0,0,1,1.056,3.962,8.565,8.565,0,0,1-2.113,5.384,7.772,7.772,0,0,1-6.177,3.276m5.334-11.937a1.325,1.325,0,0,0,.29-.238c.123-.121.219-.219.29-.288a9.63,9.63,0,0,0-.793-.688,9.6,9.6,0,0,1-1.134-.713c-.476-.334-.8-.556-.979-.661a14.7,14.7,0,0,1,.9,1.214l.213.213a5.638,5.638,0,0,1,1.214,1.161" transform="translate(693.958 535.724)" fill="#161615"/>
    <path id="Path_30" data-name="Path 30" d="M188.981,212.483a7.169,7.169,0,0,1-5.992-2.931,10.391,10.391,0,0,1-2.245-6.468q0-5.281,5.544-10.192a12.056,12.056,0,0,1,6.76-3.962l2.641-.846a1.681,1.681,0,0,1,.9-.263,1.066,1.066,0,0,1,.688.213,6.716,6.716,0,0,1,4.225,1.847,5.071,5.071,0,0,1,1.952,3.8,3.949,3.949,0,0,1-.976,2.561,6.132,6.132,0,0,1-2.826,1.822,2.156,2.156,0,0,1-.738.16c-.812,0-1.18-.53-1.111-1.587a3.272,3.272,0,0,0-.1-.526c-.073-.283-.114-.457-.133-.53s-.055-.226-.105-.476a4.952,4.952,0,0,0-.135-.526c-.032-.107-.078-.265-.13-.476a1.6,1.6,0,0,0-.183-.476,3.389,3.389,0,0,1-.24-.423c-.087-.176-.176-.334-.263-.476s-.194-.29-.318-.448a4.939,4.939,0,0,0-.4-.448h-2.273a14.822,14.822,0,0,0-5.254,4.726,10.675,10.675,0,0,0-1.98,6.047,5.564,5.564,0,0,0,1.795,4.355,6.123,6.123,0,0,0,4.225,1.612,6.351,6.351,0,0,0,2.247-.476,13.222,13.222,0,0,0,1.82-.818q.58-.343,2.273-1.4a2.2,2.2,0,0,1,1-.315,1.06,1.06,0,0,1,.846.37,1.334,1.334,0,0,1,.318.9,1.765,1.765,0,0,1-.793,1.479,23.829,23.829,0,0,1-5.439,2.9,15.668,15.668,0,0,1-5.6,1.269" transform="translate(705.484 536.587)" fill="#161615"/>
    <path id="Path_31" data-name="Path 31" d="M196.109,220.215a36.527,36.527,0,0,1-3.96-.213,1.132,1.132,0,0,1-1.056-1.264,1.711,1.711,0,0,1,.476-1.269l1.159-1.214a10.344,10.344,0,0,1,.423-1.637,14.432,14.432,0,0,1,.661-1.664q.343-.713.844-1.77c.336-.7.572-1.2.716-1.479l3.537-13.2a40.454,40.454,0,0,0-1-9.136l-1-.528-1.056.16a1.353,1.353,0,0,1-1.059-.29,1.206,1.206,0,0,1-.368-.926,2.1,2.1,0,0,1,.368-1.189,1.664,1.664,0,0,1,1-.713,1.6,1.6,0,0,1,1.056-.476c.105,0,.336.018.686.055s.688.053,1,.053a40.706,40.706,0,0,0,6.655-1.427.905.905,0,0,1,1.029.185,1.6,1.6,0,0,1,.343,1.084,2.394,2.394,0,0,1-.158.844q-.741,1.742-2.058,5.334t-1.482,4.065a63.292,63.292,0,0,1-1.374,6.5,10.621,10.621,0,0,1,3.3-2.085,20.036,20.036,0,0,1,3.219-1.161q1.08-.237,3.724-.766a7.212,7.212,0,0,1,1.742-.21q3.062,0,3.061,3.274a25.861,25.861,0,0,1-1.5,6.838,44.182,44.182,0,0,0-1.609,5.784q-.106,1.265-.107,1.582c0,.988.16,1.479.476,1.479a1.071,1.071,0,0,0,.636-.315q.367-.319.951-.846c.386-.352.7-.636.951-.844a1.553,1.553,0,0,1,1.056-.425.913.913,0,0,1,.766.4,1.527,1.527,0,0,1,.29.924,2.013,2.013,0,0,1-.688,1.532q-.158.106-.819.713c-.441.4-.75.679-.924.818s-.466.386-.873.738a5.861,5.861,0,0,1-1,.741c-.265.139-.572.306-.926.5a4.72,4.72,0,0,1-1,.423,3.585,3.585,0,0,1-.951.13q-2.061,0-3.432-2.746a1.849,1.849,0,0,1-.107-.581q0-1.163,1.85-6.39t1.847-6.866c0-.738-.213-1.177-.633-1.319-.142-.389-.581-.581-1.319-.581a11.229,11.229,0,0,0-3.381.686,9.506,9.506,0,0,0-2.323.951l-1.161.581a17.2,17.2,0,0,0-2.483,4.963,30.158,30.158,0,0,0-1.267,4.781q-.264,1.77-.738,5.519a2.3,2.3,0,0,1-.661,1.347,1.843,1.843,0,0,1-1.347.553" transform="translate(718.795 529.117)" fill="#161615"/>
    <path id="Path_32" data-name="Path 32" d="M212.471,212.856a8.909,8.909,0,0,1-4.726-1.269,6.588,6.588,0,0,1-2.878-4.012,11.772,11.772,0,0,1-.423-3.061,15.323,15.323,0,0,1,2.878-8.688,18.068,18.068,0,0,1,6.943-6.26,1.243,1.243,0,0,1,1-.158,16.5,16.5,0,0,1,6.548-1.795q4.65,0,4.278,5.862a8.321,8.321,0,0,1-2.641,5.624,14.043,14.043,0,0,1-5.624,3.354,22.022,22.022,0,0,1-6.626,1c-.142,0-.354-.009-.636-.027s-.494-.027-.633-.027l.318,1.214a4.221,4.221,0,0,0,.633,2.353,3.808,3.808,0,0,0,1.744,1.452,9.711,9.711,0,0,0,2.215.661,14.7,14.7,0,0,0,2.375.185q.638-.264,3.2-1.772a31.027,31.027,0,0,1,3.144-1.715c.983-.951,1.69-1.427,2.112-1.427a1.311,1.311,0,0,1,.924.37,1.188,1.188,0,0,1,.4.9,1.709,1.709,0,0,1-.476,1.161,28.669,28.669,0,0,1-6.26,4.355,13.266,13.266,0,0,1-5.887,1.717Zm-.738-13.624a14.5,14.5,0,0,0,7.156-1.93q3.457-1.924,3.459-4.989c0-.6-.53-.9-1.587-.9a12.276,12.276,0,0,0-4.8,1.241,7.818,7.818,0,0,0-3.752,2.878,13.252,13.252,0,0,0-1.637,3.644,9.329,9.329,0,0,0,1.164.053" transform="translate(735.968 536.319)" fill="#161615"/>
    <path id="Path_33" data-name="Path 33" d="M232.138,210.929l-2.483-.16a2.149,2.149,0,0,1-2.058-1.054,6.137,6.137,0,0,1-.636-3.327v-.055l-.213-2.533q-3.642-3.275-3.642-7.129a8.313,8.313,0,0,1,.528-2.906,12.583,12.583,0,0,1,2.19-3.539,4.2,4.2,0,0,1,3.2-1.69,2.234,2.234,0,0,1,.526.053q3.7.689,3.7,3.592a6.923,6.923,0,0,1-.29,1.875q-.288,1.029-.844,2.588t-.766,2.193a34.306,34.306,0,0,0-.421,4.17,2.986,2.986,0,0,0,.5,2.007,2.733,2.733,0,0,0,1.774.633q2.373-.792,4.25-4.648a32.453,32.453,0,0,0,2.666-7.762,1.918,1.918,0,0,1,1.9-1.532l1.742-.053a1.051,1.051,0,0,1,.818.4,1.1,1.1,0,0,1,.29.871,15.128,15.128,0,0,1-1.081,4.991A15.078,15.078,0,0,0,242.7,202.9c-.037,2.076.688,3.114,2.165,3.114a5.022,5.022,0,0,0,2.615-.869,6.881,6.881,0,0,0,2.085-1.877,9.171,9.171,0,0,0,1.269-3.932q.312-2.51.421-4.886a10.343,10.343,0,0,1,.476-3.219,1.831,1.831,0,0,1,1.69-1.269,2.827,2.827,0,0,1,2.218,1.292,4.131,4.131,0,0,1,.9,2.878q-.106,1.163-.21,2.007a12.5,12.5,0,0,1-.37,1.795c-.178.636-.309,1.118-.4,1.454s-.29.951-.608,1.85-.546,1.591-.686,2.085q-2.7,7.552-9.191,7.549a11.022,11.022,0,0,1-1.847-.158q-3.855-.737-3.855-5.492a13.04,13.04,0,0,1,.158-1.955,22.51,22.51,0,0,1-2.851,4.015q-1.955,3.224-4.54,3.644M227.172,199.1a66.428,66.428,0,0,1,1.424-7.129q-.737-.37-1.317.949a10.6,10.6,0,0,0-.793,2.8l-.213,1.479Z" transform="translate(759.974 537.508)" fill="#161615"/>
    <path id="Path_34" data-name="Path 34" d="M248.514,212.5a7.07,7.07,0,0,1-2.007-.313l-2.325-1.481a6.969,6.969,0,0,1-3.695-3.377,8.926,8.926,0,0,1-1.321-4.227c0-.281-.009-.722-.027-1.319s-.025-1.056-.025-1.374a9.717,9.717,0,0,1,2.535-6.758q.158-.209.976-1.164c.546-.633.96-1.1,1.241-1.4s.729-.713,1.344-1.239a10.466,10.466,0,0,1,1.639-1.189,8.162,8.162,0,0,1,1.742-.686,6.521,6.521,0,0,1,2.085-.24,8.06,8.06,0,0,1,4.6,1.587q5.545,2.641,5.439,6.285l-.105,1.424a10.547,10.547,0,0,1-1.5,5.334,22.524,22.524,0,0,1-3.777,5.016q-2.8,5.124-6.811,5.121m-1.164-4.17a5.094,5.094,0,0,0,1.532-.213,30.2,30.2,0,0,0,2.428-1.847,18.518,18.518,0,0,0,3.857-7.869c.105-1.406.158-2.129.158-2.163l-.053-1.321a8.4,8.4,0,0,0-2.4-2.455,5.656,5.656,0,0,0-2.984-1.031,1.749,1.749,0,0,1-.951,1.269,9.055,9.055,0,0,0-3.512,4.225,13.964,13.964,0,0,0-1.4,5.915,8.162,8.162,0,0,0,.37,2.586,4.373,4.373,0,0,0,2.007,2.8,2.934,2.934,0,0,0,.949.105" transform="translate(780.562 536.463)" fill="#161615"/>
    <path id="Path_35" data-name="Path 35" d="M254.221,212.483a7.1,7.1,0,0,1-1.742-.213.855.855,0,0,1-.686-.951,2.54,2.54,0,0,1,.476-1.477,25.438,25.438,0,0,0,2.718-6.443,28.4,28.4,0,0,0,1.5-8.45,10.762,10.762,0,0,0-.421-3.064,2.647,2.647,0,0,0-1.479.9l-1.952,2.06a2.081,2.081,0,0,1-1.321.581,1.374,1.374,0,0,1-.976-.37,1.181,1.181,0,0,1-.4-.9,1.628,1.628,0,0,1,.581-1.107q.316-.264,1.372-1.427t1.77-1.85a9.2,9.2,0,0,1,1.822-1.319,4.215,4.215,0,0,1,2.06-.633,3.506,3.506,0,0,1,1.214.213,3.761,3.761,0,0,1,2.323,3.272,12.308,12.308,0,0,1,1.056-1.161,7.178,7.178,0,0,1,3.539-1.9,6.48,6.48,0,0,1,1.69-.263,5.285,5.285,0,0,1,3.644,1.427,3.313,3.313,0,0,1,1.161,2.43,4.079,4.079,0,0,1-.766,2.3,6.765,6.765,0,0,1-1.875,1.872,2.084,2.084,0,0,1-1.109.37,1.039,1.039,0,0,1-.951-.528,10.949,10.949,0,0,1-.528-1.321,9.47,9.47,0,0,0-.924-1.925c-.334-.512-.679-.748-1.029-.716l-.9.636-.526.315-.633.738a12.58,12.58,0,0,0-1.111,2.643q-.051.158-.473,1.927t-.951,3.775c-.352,1.34-.722,2.718-1.109,4.145s-.748,2.643-1.084,3.644a5.433,5.433,0,0,1-.711,1.664,5.2,5.2,0,0,1-3.276,1.109" transform="translate(794.496 536.587)" fill="#161615"/>
    <path id="Path_36" data-name="Path 36" d="M261.346,218.646q-1.214,0-1.214-.9a24.851,24.851,0,0,1,1.847-7.5q1.848-5.065,2.323-7.023.689-2.483,2.062-6.653l.368-1.374.738-2.163a6.546,6.546,0,0,0,.055-1,5.506,5.506,0,0,0-2.853-4.963,2.169,2.169,0,0,1-.738.158q-.95,0-.951-1.109a2.378,2.378,0,0,1,.448-1.347,1.65,1.65,0,0,1,1.136-.766q.792-.158,2.771-.581t3.381-.661q1.4-.237,2.773-.345a.8.8,0,0,1,.766.345,1.743,1.743,0,0,1,.236,1.4q-.528,1.427-1.45,4.515t-1.559,4.673a23.638,23.638,0,0,1-1.532,5.124,26.666,26.666,0,0,1-1.084,3.4c-.546,1.463-.887,2.455-1.029,2.986l-.158,1.582a15.434,15.434,0,0,0,5.755-2.638,13.284,13.284,0,0,1,3.487-4.54l-.581-.583a1.181,1.181,0,0,1-.738-1.109,1.875,1.875,0,0,1,.658-1.372,1.991,1.991,0,0,1,1.4-.636,28.578,28.578,0,0,0,5.7-.633,1.629,1.629,0,0,1,.475-.053c.6,0,.9.334.9,1a2.19,2.19,0,0,1-1.111,2.06,27.347,27.347,0,0,0-3.642,2.428q-.583,1.746-3.7,4.6c.176.281.411.642.713,1.081s.51.775.631,1,.258.5.4.818a3.169,3.169,0,0,1,.263.951,10.708,10.708,0,0,1,.055,1.267v3.327q.051,1.427.633,1.427.634,0,1.664-1.427A12.978,12.978,0,0,0,282,211.255a1.657,1.657,0,0,1,1.532-1.006,1.275,1.275,0,0,1,.9.345,1.2,1.2,0,0,1,.368.924,2.551,2.551,0,0,1-.158.793q-2.112,4.383-4.7,5.649l-1.214.473-1.056.055a5.877,5.877,0,0,1-3.539-2.007,11.655,11.655,0,0,1-1.715-4.092,19.17,19.17,0,0,0-1.347-3.987q-1.056.425-3.7,1.214a24.135,24.135,0,0,1-.738,3.909,8.939,8.939,0,0,1-1.77,3.194,5.429,5.429,0,0,1-3.3,1.927Zm1.847-4.172a9.133,9.133,0,0,0,1.269-3.958H264.2a21.039,21.039,0,0,0-1,3.958" transform="translate(807.597 529.63)" fill="#161615"/>
    <path id="Path_37" data-name="Path 37" d="M280.546,213.979a7.863,7.863,0,0,1-1.532-.16,7.007,7.007,0,0,1-4.225-2.586q-2.692-2.006-2.691-4.28a3.159,3.159,0,0,1,.631-1.952q1.217-1.584,2.27-1.584a2.137,2.137,0,0,1,1.717,1.081,18.84,18.84,0,0,1,1.664,3.091,2.633,2.633,0,0,0,1.081,1.081,3.223,3.223,0,0,0,1.717.5,2.656,2.656,0,0,0,1.692-.581,3.372,3.372,0,0,0,1.214-2.9,4.85,4.85,0,0,0-.793-2.8,10.631,10.631,0,0,0-3.009-2.06,14.516,14.516,0,0,1-2.538-1.479,5.932,5.932,0,0,1-1.952-4.118,8.411,8.411,0,0,1,.738-3.118A4.687,4.687,0,0,1,280.07,188a5.638,5.638,0,0,1,3.009-.846,7.819,7.819,0,0,1,6.34,3.276c.7.176,1.056.544,1.056,1.107a2.181,2.181,0,0,1-.476,1.321,2.132,2.132,0,0,1-1.744,1.109,1.971,1.971,0,0,1-.633.158.779.779,0,0,1-.686-.476,1.158,1.158,0,0,1-.581-1.372q-2.692-1.848-3.96-1.847a.863.863,0,0,0-.636.263,4.524,4.524,0,0,0-1.319,2.851,2.907,2.907,0,0,0,.818,2.007,11.275,11.275,0,0,0,2.4,1.875q1.588.981,1.85,1.189a9.655,9.655,0,0,1,2.27,2.746,7.65,7.65,0,0,1,1.056,3.962,8.564,8.564,0,0,1-2.113,5.384,7.772,7.772,0,0,1-6.177,3.276m5.334-11.937a1.324,1.324,0,0,0,.29-.238c.124-.121.22-.219.29-.288a9.63,9.63,0,0,0-.793-.688,9.6,9.6,0,0,1-1.134-.713c-.475-.334-.8-.556-.978-.661a14.713,14.713,0,0,1,.9,1.214l.213.213a5.638,5.638,0,0,1,1.214,1.161" transform="translate(822.989 535.724)" fill="#161615"/>
    <path id="Path_38" data-name="Path 38" d="M286.26,220.215A36.528,36.528,0,0,1,282.3,220a1.132,1.132,0,0,1-1.056-1.264,1.711,1.711,0,0,1,.476-1.269l1.159-1.214a10.327,10.327,0,0,1,.423-1.637,14.416,14.416,0,0,1,.661-1.664q.343-.713.844-1.77c.336-.7.572-1.2.716-1.479l3.537-13.2a40.448,40.448,0,0,0-1-9.136l-1-.528L286,187a1.353,1.353,0,0,1-1.059-.29,1.206,1.206,0,0,1-.368-.926,2.1,2.1,0,0,1,.368-1.189,1.664,1.664,0,0,1,1-.713,1.6,1.6,0,0,1,1.056-.476c.105,0,.336.018.686.055s.688.053,1,.053a40.7,40.7,0,0,0,6.655-1.427.905.905,0,0,1,1.029.185,1.6,1.6,0,0,1,.343,1.084,2.394,2.394,0,0,1-.158.844q-.741,1.742-2.058,5.334t-1.481,4.065a63.331,63.331,0,0,1-1.374,6.5,10.621,10.621,0,0,1,3.3-2.085,20.034,20.034,0,0,1,3.219-1.161q1.08-.237,3.724-.766a7.211,7.211,0,0,1,1.742-.21q3.063,0,3.061,3.274a25.861,25.861,0,0,1-1.5,6.838,44.177,44.177,0,0,0-1.609,5.784q-.106,1.265-.107,1.582c0,.988.16,1.479.476,1.479a1.071,1.071,0,0,0,.636-.315q.367-.319.951-.846c.386-.352.7-.636.951-.844a1.553,1.553,0,0,1,1.056-.425.913.913,0,0,1,.766.4,1.527,1.527,0,0,1,.29.924,2.013,2.013,0,0,1-.688,1.532q-.158.106-.818.713c-.441.4-.75.679-.924.818s-.466.386-.873.738a5.859,5.859,0,0,1-1,.741c-.265.139-.572.306-.926.5a4.718,4.718,0,0,1-1,.423,3.585,3.585,0,0,1-.951.13q-2.061,0-3.432-2.746a1.849,1.849,0,0,1-.107-.581q0-1.163,1.85-6.39t1.847-6.866c0-.738-.213-1.177-.633-1.319-.142-.389-.581-.581-1.319-.581a11.228,11.228,0,0,0-3.381.686,9.507,9.507,0,0,0-2.323.951l-1.161.581a17.2,17.2,0,0,0-2.483,4.963,30.165,30.165,0,0,0-1.267,4.781q-.264,1.77-.738,5.519a2.3,2.3,0,0,1-.661,1.347,1.843,1.843,0,0,1-1.347.553" transform="translate(834.753 529.117)" fill="#161615"/>
    <path id="Path_39" data-name="Path 39" d="M304,212.5a7.07,7.07,0,0,1-2.007-.313l-2.325-1.481a6.969,6.969,0,0,1-3.695-3.377,8.926,8.926,0,0,1-1.321-4.227c0-.281-.009-.722-.027-1.319s-.025-1.056-.025-1.374a9.717,9.717,0,0,1,2.535-6.758q.158-.209.976-1.164c.546-.633.96-1.1,1.241-1.4s.729-.713,1.344-1.239a10.466,10.466,0,0,1,1.639-1.189,8.163,8.163,0,0,1,1.742-.686,6.522,6.522,0,0,1,2.085-.24,8.06,8.06,0,0,1,4.6,1.587q5.545,2.641,5.439,6.285l-.105,1.424a10.548,10.548,0,0,1-1.5,5.334,22.528,22.528,0,0,1-3.777,5.016q-2.8,5.124-6.811,5.121m-1.164-4.17a5.1,5.1,0,0,0,1.532-.213,30.2,30.2,0,0,0,2.428-1.847,18.518,18.518,0,0,0,3.857-7.869c.105-1.406.158-2.129.158-2.163l-.053-1.321a8.394,8.394,0,0,0-2.4-2.455,5.655,5.655,0,0,0-2.984-1.031,1.749,1.749,0,0,1-.951,1.269,9.055,9.055,0,0,0-3.512,4.225,13.964,13.964,0,0,0-1.4,5.915,8.164,8.164,0,0,0,.37,2.586,4.373,4.373,0,0,0,2.007,2.8,2.934,2.934,0,0,0,.949.105" transform="translate(851.925 536.463)" fill="#161615"/>
    <path id="Path_40" data-name="Path 40" d="M313.39,225.058a13.175,13.175,0,0,0-3.487-.421q-1,0-3.247.185a29.051,29.051,0,0,1-3.406.13.933.933,0,0,1-1.056-1.056,2.39,2.39,0,0,1,.476-1.372,1.51,1.51,0,0,1,1.109-.738,3.229,3.229,0,0,0,1.69-.766,6.144,6.144,0,0,0,1.452-1.955c.441-.864.821-1.653,1.136-2.375a19.921,19.921,0,0,0,.951-2.958q.473-1.872.686-2.718t.581-2.643c.247-1.2.368-1.813.368-1.847a74.775,74.775,0,0,0,1.532-9.769l-2.638,1.267a1.452,1.452,0,0,1-.738.213q-1,0-1.006-1.214a1.88,1.88,0,0,1,1.111-1.85,15.424,15.424,0,0,0,1.557-1.187,8.683,8.683,0,0,1,1.927-1.294v-.318a7.055,7.055,0,0,0,.055-.951v-.9a3.042,3.042,0,0,1,.158-.846,11.73,11.73,0,0,1,.421-1.161,2.049,2.049,0,0,1,.29-1.479,1.636,1.636,0,0,1,1.241-.9,6.884,6.884,0,0,0,1.031-.265,4.373,4.373,0,0,1,.791-.21,5.188,5.188,0,0,1,1.084,0,1.017,1.017,0,0,1,1.056.9,5.926,5.926,0,0,1,.21,1.479,3.812,3.812,0,0,1-.053.661,2.749,2.749,0,0,1-.213.633c-.105.229-.194.4-.263.528s-.213.343-.423.661-.37.562-.473.738a24.014,24.014,0,0,1,4.909-.581q5.864,0,7.974,4.751a11.566,11.566,0,0,1,1,4.6,11.911,11.911,0,0,1-4.147,8.978,12.776,12.776,0,0,1-8.791,3.855,7.5,7.5,0,0,1-3.75-.9,33.862,33.862,0,0,1-.793,3.932,17.889,17.889,0,0,0-.633,3.564,2.476,2.476,0,0,0,1.955,2.588.953.953,0,0,1,.791,1,2.04,2.04,0,0,1-.791,1.507,1.732,1.732,0,0,1-1.637.5m-4.488-3.484a7.451,7.451,0,0,0,1.056-.053l-.318-1a9.618,9.618,0,0,1-.738,1.056M317.35,208.8a7.811,7.811,0,0,0,3.592-1.164,29.9,29.9,0,0,0,4.092-2.481,4.477,4.477,0,0,0,1.664-2.378,8.841,8.841,0,0,0,.318-2.323,6.581,6.581,0,0,0-1.639-4.566,5.24,5.24,0,0,0-4.067-1.824,10.661,10.661,0,0,0-1.159.107l-2.851.633-.743,4.225a27.549,27.549,0,0,0-.208,2.876,16.183,16.183,0,0,1-.476,3.407l-.055-.053-.158,1.111a4.488,4.488,0,0,0,.265,1.527,1.343,1.343,0,0,0,1.424.9" transform="translate(861.7 533.779)" fill="#161615"/>
    <path id="Path_41" data-name="Path 41" d="M333.053,212.5a7.07,7.07,0,0,1-2.007-.313l-2.325-1.481a6.97,6.97,0,0,1-3.695-3.377A8.927,8.927,0,0,1,323.7,203.1c0-.281-.009-.722-.027-1.319s-.025-1.056-.025-1.374a9.717,9.717,0,0,1,2.535-6.758q.158-.209.976-1.164c.546-.633.96-1.1,1.241-1.4s.729-.713,1.344-1.239a10.46,10.46,0,0,1,1.639-1.189,8.159,8.159,0,0,1,1.742-.686,6.521,6.521,0,0,1,2.085-.24,8.06,8.06,0,0,1,4.6,1.587q5.545,2.641,5.439,6.285l-.105,1.424a10.547,10.547,0,0,1-1.5,5.334,22.522,22.522,0,0,1-3.777,5.016q-2.8,5.124-6.811,5.121m-1.164-4.17a5.094,5.094,0,0,0,1.532-.213,30.169,30.169,0,0,0,2.428-1.847,18.518,18.518,0,0,0,3.857-7.869c.105-1.406.158-2.129.158-2.163l-.053-1.321a8.4,8.4,0,0,0-2.4-2.455,5.656,5.656,0,0,0-2.984-1.031,1.749,1.749,0,0,1-.951,1.269,9.056,9.056,0,0,0-3.512,4.225,13.965,13.965,0,0,0-1.4,5.915,8.162,8.162,0,0,0,.37,2.586,4.373,4.373,0,0,0,2.007,2.8,2.933,2.933,0,0,0,.949.105" transform="translate(889.301 536.463)" fill="#161615"/>
    <path id="Path_42" data-name="Path 42" d="M344.04,211.513a5.142,5.142,0,0,1-1.53-.213,2.818,2.818,0,0,1-1.136-.633,6.415,6.415,0,0,1-.816-.924A3.479,3.479,0,0,1,340,208.58c-.121-.439-.229-.844-.316-1.214a6.339,6.339,0,0,1-.158-1.267c-.021-.476-.039-.846-.053-1.109a8.641,8.641,0,0,1,0-.979c.014-.386.027-.6.027-.631a5.036,5.036,0,0,1-3.7-2.325,8.167,8.167,0,0,1-1.319-4.593,8.379,8.379,0,0,1,1.527-4.963,10.629,10.629,0,0,1,2.35-2.353,4.838,4.838,0,0,1,2.878-1.134,2.5,2.5,0,0,1,1.216.318q2.637,1.529,2.641,6.706,0,1.742-.343,5.2c-.233,2.307-.345,3.864-.345,4.673,0,1.621.279,2.428.846,2.428q.792,0,2.853-2.8a11.676,11.676,0,0,0,1.662-3.249,16.348,16.348,0,0,0,.766-3.141q.158-1.32.341-3.617c.126-1.532.238-2.684.345-3.461q.422-3.114,4.12-3.114a3.415,3.415,0,0,1,.343.027c.158.016.288.025.4.025a.968.968,0,0,1,1.054.9,7.564,7.564,0,0,1,.158,1.637,22.484,22.484,0,0,1-2.083,8.475,33.569,33.569,0,0,1-5.281,8.713q-3.193,3.776-5.889,3.777M339.92,200.1a31.557,31.557,0,0,0,.265-3.96,8.219,8.219,0,0,0-.343-2.693q-.343-.95-1.134-.738H338.5a5.3,5.3,0,0,0-.9,3.221,5.776,5.776,0,0,0,.606,2.666,2.753,2.753,0,0,0,1.715,1.5m14.049-5.967a10.446,10.446,0,0,0,.318-2.533,5.879,5.879,0,0,0-.318,2.533" transform="translate(903.236 536.765)" fill="#161615"/>
    <path id="Path_43" data-name="Path 43" d="M353.875,212.856a8.909,8.909,0,0,1-4.726-1.269,6.589,6.589,0,0,1-2.878-4.012,11.773,11.773,0,0,1-.423-3.061,15.323,15.323,0,0,1,2.878-8.688,18.068,18.068,0,0,1,6.943-6.26,1.242,1.242,0,0,1,1-.158,16.5,16.5,0,0,1,6.548-1.795q4.65,0,4.278,5.862a8.321,8.321,0,0,1-2.641,5.624,14.043,14.043,0,0,1-5.624,3.354,22.022,22.022,0,0,1-6.626,1c-.142,0-.354-.009-.635-.027s-.494-.027-.633-.027l.318,1.214a4.221,4.221,0,0,0,.633,2.353,3.809,3.809,0,0,0,1.744,1.452,9.712,9.712,0,0,0,2.215.661,14.7,14.7,0,0,0,2.375.185q.638-.264,3.2-1.772a31.041,31.041,0,0,1,3.144-1.715c.983-.951,1.69-1.427,2.113-1.427a1.311,1.311,0,0,1,.924.37,1.188,1.188,0,0,1,.4.9,1.709,1.709,0,0,1-.476,1.161,28.67,28.67,0,0,1-6.26,4.355,13.266,13.266,0,0,1-5.887,1.717Zm-.738-13.624a14.5,14.5,0,0,0,7.156-1.93q3.457-1.924,3.459-4.989c0-.6-.53-.9-1.587-.9a12.276,12.276,0,0,0-4.8,1.241,7.817,7.817,0,0,0-3.752,2.878,13.248,13.248,0,0,0-1.637,3.644,9.327,9.327,0,0,0,1.164.053" transform="translate(917.851 536.319)" fill="#161615"/>
    <path id="Path_44" data-name="Path 44" d="M361.371,212.483a7.1,7.1,0,0,1-1.74-.213.854.854,0,0,1-.688-.951,2.54,2.54,0,0,1,.476-1.477,25.439,25.439,0,0,0,2.718-6.443,28.408,28.408,0,0,0,1.507-8.45,10.68,10.68,0,0,0-.423-3.064,2.647,2.647,0,0,0-1.479.9l-1.95,2.06a2.086,2.086,0,0,1-1.321.581,1.37,1.37,0,0,1-.976-.37,1.173,1.173,0,0,1-.4-.9,1.619,1.619,0,0,1,.581-1.107c.21-.176.665-.652,1.372-1.427s1.292-1.39,1.767-1.85a9.264,9.264,0,0,1,1.822-1.319,4.216,4.216,0,0,1,2.06-.633,3.506,3.506,0,0,1,1.214.213,3.757,3.757,0,0,1,2.323,3.272,12.635,12.635,0,0,1,1.056-1.161,7.188,7.188,0,0,1,3.539-1.9,6.51,6.51,0,0,1,1.692-.263,5.289,5.289,0,0,1,3.644,1.427,3.322,3.322,0,0,1,1.161,2.43,4.08,4.08,0,0,1-.766,2.3,6.8,6.8,0,0,1-1.875,1.872,2.091,2.091,0,0,1-1.111.37,1.033,1.033,0,0,1-.949-.528,10.762,10.762,0,0,1-.53-1.321,9.469,9.469,0,0,0-.924-1.925c-.334-.512-.679-.748-1.027-.716l-.9.636-.526.315-.631.738a12.589,12.589,0,0,0-1.113,2.643q-.048.158-.473,1.927t-.949,3.775c-.352,1.34-.725,2.718-1.111,4.145s-.748,2.643-1.084,3.644a5.524,5.524,0,0,1-.709,1.664,5.2,5.2,0,0,1-3.279,1.109" transform="translate(932.321 536.587)" fill="#161615"/>
    <path id="Path_45" data-name="Path 45" d="M122.338,244.957a12.067,12.067,0,0,1-7.764-2.325,17.443,17.443,0,0,1-3.985-7.471,19.186,19.186,0,0,1-.713-6.68,17.525,17.525,0,0,1,4.49-10.3,20.2,20.2,0,0,1,9.925-5.862q1-.213,1.822-.37a9.018,9.018,0,0,0,.951-.21,2.061,2.061,0,0,1,.53-.078c.263-.018.4-.027.421-.027h.766a10.32,10.32,0,0,1,6.918,2.375l.423-.581a1.8,1.8,0,0,1,1.9-1.374c.775,0,1.161.354,1.161,1.056,0,.105-.2.812-.606,2.113a16.5,16.5,0,0,0-.713,3.011,13.744,13.744,0,0,1,.213,3.537,2.052,2.052,0,0,1-.738,1.321,2.014,2.014,0,0,1-1.324.633,1.031,1.031,0,0,1-1.054-.951,8.427,8.427,0,0,1-.21-2.032,9.608,9.608,0,0,0-.213-2.112,4.581,4.581,0,0,0-1-1.875,9.071,9.071,0,0,0-4.435-1.161q-5.226,0-9.824,4.621t-4.593,9.742q.051,5.494,2.771,8.475a8.11,8.11,0,0,0,6.1,2.986,5.472,5.472,0,0,0,3.882-1.454,5.169,5.169,0,0,0,1.557-3.985,12.044,12.044,0,0,0-1.637-5.6,1.153,1.153,0,0,1-.791-1.056,1.882,1.882,0,0,1,.661-1.372,2.052,2.052,0,0,1,1.452-.633,1.623,1.623,0,0,1,.686.21,18.442,18.442,0,0,0,2.746.423,31.021,31.021,0,0,0,3.487.025c1.406-.05,2.234-.078,2.483-.078.7,0,1.056.3,1.056.9a2.4,2.4,0,0,1-.53,1.372,2.124,2.124,0,0,1-1.109.9l-2.956.686a16.014,16.014,0,0,1-.29,5.94,10.9,10.9,0,0,1-2.668,5.256h-.791a18.444,18.444,0,0,1-8.45,2.007" transform="translate(614.233 567.218)" fill="#161615"/>
    <path id="Path_46" data-name="Path 46" d="M132.066,240.574a8.909,8.909,0,0,1-4.726-1.269,6.588,6.588,0,0,1-2.878-4.012,11.772,11.772,0,0,1-.423-3.061,15.323,15.323,0,0,1,2.878-8.688,18.068,18.068,0,0,1,6.943-6.26,1.243,1.243,0,0,1,1-.158,16.5,16.5,0,0,1,6.548-1.795q4.65,0,4.278,5.862a8.321,8.321,0,0,1-2.641,5.624,14.044,14.044,0,0,1-5.624,3.354,22.023,22.023,0,0,1-6.626,1c-.142,0-.354-.009-.636-.027s-.494-.027-.633-.027l.318,1.214a4.221,4.221,0,0,0,.633,2.353,3.808,3.808,0,0,0,1.744,1.452,9.707,9.707,0,0,0,2.215.661,14.7,14.7,0,0,0,2.375.185q.638-.264,3.2-1.772a31.034,31.034,0,0,1,3.144-1.715c.983-.951,1.69-1.427,2.112-1.427a1.311,1.311,0,0,1,.924.37,1.188,1.188,0,0,1,.4.9,1.709,1.709,0,0,1-.476,1.161,28.671,28.671,0,0,1-6.26,4.355,13.266,13.266,0,0,1-5.887,1.717Zm-.738-13.624a14.5,14.5,0,0,0,7.156-1.93q3.457-1.924,3.459-4.989c0-.6-.53-.9-1.587-.9a12.276,12.276,0,0,0-4.8,1.241,7.818,7.818,0,0,0-3.752,2.878,13.253,13.253,0,0,0-1.637,3.644,9.329,9.329,0,0,0,1.164.053" transform="translate(632.546 571.972)" fill="#161615"/>
    <path id="Path_47" data-name="Path 47" d="M153.236,240.807q-2.215,0-2.218-2.956a8.684,8.684,0,0,1,.105-1.164q.055-.315.53-2.4t.924-4.7a27.006,27.006,0,0,0,.448-4.41q0-3.591-1.847-3.589a2.854,2.854,0,0,0-.9.158l-3.7,1.795q-1.53,1.265-2.773,5.334a44.594,44.594,0,0,0-1.61,6.813,7.762,7.762,0,0,0-.105,1.056,8.5,8.5,0,0,1-.133,1.187c-.053.231-.142.54-.265.926a1.742,1.742,0,0,1-.553.869,2.719,2.719,0,0,1-.9.453,5.442,5.442,0,0,1-1.319.155c-1.834,0-2.746-.631-2.746-1.9a7.709,7.709,0,0,1,.448-2.561,19.1,19.1,0,0,1,1.189-2.693q.737-1.4,1-2.035l.741-2.058a13.325,13.325,0,0,0,1.321-5.334q0-2.589-1.8-2.588a6.14,6.14,0,0,0-1.374,1.847,1.92,1.92,0,0,1-2.005,1.372c-.738,0-1.109-.313-1.109-.949a2.858,2.858,0,0,1,.105-.633,13.873,13.873,0,0,1,3.434-4.6q2.85-2.85,4.909-2.851a2.1,2.1,0,0,1,1.69.844,7.9,7.9,0,0,1,1.374,4.332q4.012-4.54,7.129-4.54a4.209,4.209,0,0,1,1.584.316q3.169,1.265,3.169,5.386a42.849,42.849,0,0,1-.526,4.648q-1.06,6.176-1.111,7.5v.37a4.728,4.728,0,0,0-.053.636v.526a3.708,3.708,0,0,0,.027.476,1.016,1.016,0,0,0,.078.318c.034.071.071.105.107.105a1.888,1.888,0,0,0,.924-.343,6.021,6.021,0,0,0,.871-.633c.213-.194.526-.5.951-.924l.633-.581a1.838,1.838,0,0,1,1.267-.53,1.337,1.337,0,0,1,.951.345,1.143,1.143,0,0,1,.37.871,1.747,1.747,0,0,1-.528,1.159q-4.122,4.438-8.082,5.126a3.042,3.042,0,0,1-.633.05" transform="translate(646.125 572.001)" fill="#161615"/>
    <path id="Path_48" data-name="Path 48" d="M153.716,244.905a3.506,3.506,0,0,1-2.746-1.269,5.14,5.14,0,0,1-1.056-3.484,30.6,30.6,0,0,1,1.239-6.813,30.964,30.964,0,0,0,1.241-6.39q0-3.062-2.906-3.061l-.631.263a4.7,4.7,0,0,1-.476.107c-.6,0-.9-.336-.9-1.006a2.581,2.581,0,0,1,.423-1.372,1.987,1.987,0,0,1,1.056-.9,4.754,4.754,0,0,0,.9-.37q.158-.316.871-.473a10.537,10.537,0,0,1,1.717-.213c.668-.034,1.038-.053,1.111-.053a9.8,9.8,0,0,0,1.582-3.644q.9-3.008,1.69-3.589a1.272,1.272,0,0,1,.741-.265q1.475,0,1.477,3.274a53.436,53.436,0,0,1-.631,5.439,43.892,43.892,0,0,0,5.965-.631q1.427-.213,1.427,1.107a2.255,2.255,0,0,1-.448,1.321,1.676,1.676,0,0,1-1.136.738,53.624,53.624,0,0,1-6.338.686l-1.582,7.4a18.748,18.748,0,0,0-.45,2.19,15.653,15.653,0,0,1-.5,2.3,2.012,2.012,0,0,0-.185.528q-.134.477-.29,1.241a6.638,6.638,0,0,0-.16,1.294q0,1.111.686,1.111a1.327,1.327,0,0,0,.793-.268,13.948,13.948,0,0,0,2.112-1.5,20.821,20.821,0,0,1,2.007-1.5,2.157,2.157,0,0,1,1-.318c.773,0,1.161.407,1.161,1.216q0,1.269-3.064,4.092t-5.7,2.826" transform="translate(662.703 568.168)" fill="#161615"/>
    <path id="Path_49" data-name="Path 49" d="M164.64,241.7a7.864,7.864,0,0,1-1.532-.16,7.007,7.007,0,0,1-4.225-2.586q-2.692-2.006-2.691-4.28a3.159,3.159,0,0,1,.631-1.952q1.217-1.584,2.27-1.584a2.137,2.137,0,0,1,1.717,1.081,18.853,18.853,0,0,1,1.664,3.091,2.632,2.632,0,0,0,1.081,1.081,3.223,3.223,0,0,0,1.717.5,2.656,2.656,0,0,0,1.692-.581,3.372,3.372,0,0,0,1.214-2.9,4.85,4.85,0,0,0-.793-2.8,10.63,10.63,0,0,0-3.009-2.06,14.512,14.512,0,0,1-2.538-1.479,5.932,5.932,0,0,1-1.952-4.118,8.41,8.41,0,0,1,.738-3.118,4.688,4.688,0,0,1,3.539-4.118,5.638,5.638,0,0,1,3.009-.846,7.818,7.818,0,0,1,6.34,3.276c.7.176,1.056.544,1.056,1.107a2.181,2.181,0,0,1-.476,1.321,2.132,2.132,0,0,1-1.744,1.109,1.971,1.971,0,0,1-.633.158.779.779,0,0,1-.686-.476,1.158,1.158,0,0,1-.581-1.372q-2.692-1.848-3.96-1.847a.863.863,0,0,0-.636.263,4.524,4.524,0,0,0-1.319,2.851,2.907,2.907,0,0,0,.818,2.007,11.276,11.276,0,0,0,2.4,1.875q1.588.981,1.85,1.189a9.655,9.655,0,0,1,2.27,2.746,7.65,7.65,0,0,1,1.056,3.962,8.565,8.565,0,0,1-2.112,5.384,7.772,7.772,0,0,1-6.178,3.276m5.334-11.937a1.325,1.325,0,0,0,.29-.238c.123-.121.219-.219.29-.288a9.636,9.636,0,0,0-.793-.688,9.59,9.59,0,0,1-1.134-.713c-.476-.334-.8-.556-.979-.661a14.693,14.693,0,0,1,.9,1.214l.213.213a5.639,5.639,0,0,1,1.214,1.161" transform="translate(673.903 571.376)" fill="#161615"/>
    <path id="Path_50" data-name="Path 50" d="M173.181,240.574a8.909,8.909,0,0,1-4.726-1.269,6.588,6.588,0,0,1-2.878-4.012,11.771,11.771,0,0,1-.423-3.061,15.323,15.323,0,0,1,2.878-8.688,18.068,18.068,0,0,1,6.943-6.26,1.243,1.243,0,0,1,1-.158,16.5,16.5,0,0,1,6.548-1.795q4.65,0,4.278,5.862a8.321,8.321,0,0,1-2.641,5.624,14.044,14.044,0,0,1-5.624,3.354,22.023,22.023,0,0,1-6.626,1c-.142,0-.354-.009-.636-.027s-.494-.027-.633-.027l.318,1.214a4.221,4.221,0,0,0,.633,2.353,3.808,3.808,0,0,0,1.744,1.452,9.707,9.707,0,0,0,2.215.661,14.7,14.7,0,0,0,2.375.185q.638-.264,3.2-1.772a31.027,31.027,0,0,1,3.144-1.715c.983-.951,1.69-1.427,2.112-1.427a1.311,1.311,0,0,1,.924.37,1.188,1.188,0,0,1,.4.9,1.709,1.709,0,0,1-.476,1.161,28.726,28.726,0,0,1-6.26,4.355,13.267,13.267,0,0,1-5.887,1.717Zm-.738-13.624a14.5,14.5,0,0,0,7.156-1.93q3.457-1.924,3.459-4.989c0-.6-.53-.9-1.587-.9a12.276,12.276,0,0,0-4.8,1.241,7.818,7.818,0,0,0-3.752,2.878,13.255,13.255,0,0,0-1.637,3.644,9.33,9.33,0,0,0,1.164.053" transform="translate(685.431 571.972)" fill="#161615"/>
    <path id="Path_51" data-name="Path 51" d="M199.846,245.6q-2.589,0-4.7-3.276a2.418,2.418,0,0,1-.423-.4,1.772,1.772,0,0,0-.37-.343q-3.909-2.586-6.5-2.588a3.36,3.36,0,0,0-.343.027,3.222,3.222,0,0,1-.345.025l-1.264.951a1.867,1.867,0,0,1-1.056.423c-.706,0-1.056-.439-1.056-1.319a2,2,0,0,1,.686-1.532q4.8-4.28,13.782-13.468l-.318.055a3.564,3.564,0,0,1-1.53-.345,4.93,4.93,0,0,1-1.164-.711c-.281-.247-.684-.636-1.214-1.161-.105-.107-.194-.194-.263-.265a5.662,5.662,0,0,0-1.214-1,9.559,9.559,0,0,0-.16,1.637,7.686,7.686,0,0,0,.423,2.43,1.329,1.329,0,0,1,.053.421,1.707,1.707,0,0,1-.606,1.3,1.907,1.907,0,0,1-1.3.553,1.168,1.168,0,0,1-1.159-.9l-.265-.844a5.973,5.973,0,0,1-1.795-4.067q0-3.22,3.432-5.439a5.657,5.657,0,0,1,3.169-.9,4.773,4.773,0,0,1,2.27.53,19.291,19.291,0,0,1,2.641,1.872,5.629,5.629,0,0,0,3.224,1.5,3.7,3.7,0,0,0,.684-.05c.636-.494,1.443-1.171,2.43-2.035s1.532-1.347,1.637-1.452a1.412,1.412,0,0,1,.951-.37,1.265,1.265,0,0,1,.924.4,1.329,1.329,0,0,1,.4.976,1.617,1.617,0,0,1-.528,1.161q-3.165,3.011-8.791,8.66t-7.421,7.446a3.961,3.961,0,0,1,1.637.476,3.68,3.68,0,0,1,3.064,4.067l-.053.318a6.4,6.4,0,0,0,.368.658,2.535,2.535,0,0,0,.238.315c.055.055.133.126.238.213a3.684,3.684,0,0,1,.318.29.649.649,0,0,0,.476.158,4,4,0,0,0,1.69-.606q1.108-.607,2.138-1.3c.686-.455,1.1-.72,1.241-.791a1.472,1.472,0,0,1,.636-.105,1.067,1.067,0,0,1,.789.315,1.548,1.548,0,0,1,1.111,1.955,6.278,6.278,0,0,1-.738,2.378,7.322,7.322,0,0,1-4.913,3.644,5.111,5.111,0,0,1-1.161.105M198.632,221q-.264-.213-1.454-1.136a11.607,11.607,0,0,0-2.085-1.347l-.158-.05-.21.263c.105.105.281.3.526.581a8.7,8.7,0,0,0,.688.711,4.774,4.774,0,0,0,.741.556,2.933,2.933,0,0,0,1.952.423" transform="translate(709.407 571.376)" fill="#161615"/>
    <path id="Path_52" data-name="Path 52" d="M205.136,240.217a7.071,7.071,0,0,1-2.007-.313l-2.325-1.481a6.97,6.97,0,0,1-3.695-3.377,8.926,8.926,0,0,1-1.321-4.227c0-.281-.009-.722-.027-1.319s-.025-1.056-.025-1.374a9.717,9.717,0,0,1,2.535-6.758q.158-.209.976-1.164c.546-.633.96-1.1,1.241-1.4s.729-.713,1.344-1.239a10.465,10.465,0,0,1,1.639-1.189,8.162,8.162,0,0,1,1.742-.686,6.521,6.521,0,0,1,2.085-.24,8.06,8.06,0,0,1,4.6,1.587q5.545,2.641,5.439,6.285l-.105,1.424a10.547,10.547,0,0,1-1.5,5.334,22.525,22.525,0,0,1-3.777,5.016q-2.8,5.124-6.811,5.121m-1.164-4.17a5.094,5.094,0,0,0,1.532-.213,30.2,30.2,0,0,0,2.428-1.847,18.519,18.519,0,0,0,3.857-7.869c.105-1.406.158-2.129.158-2.163l-.053-1.321a8.394,8.394,0,0,0-2.4-2.455,5.655,5.655,0,0,0-2.984-1.031,1.749,1.749,0,0,1-.951,1.269,9.055,9.055,0,0,0-3.512,4.225,13.964,13.964,0,0,0-1.4,5.915,8.163,8.163,0,0,0,.37,2.586,4.373,4.373,0,0,0,2.007,2.8,2.933,2.933,0,0,0,.949.105" transform="translate(724.766 572.116)" fill="#161615"/>
    <path id="Path_53" data-name="Path 53" d="M224.515,240.807q-2.215,0-2.218-2.956a8.679,8.679,0,0,1,.105-1.164q.055-.315.53-2.4t.924-4.7a27.01,27.01,0,0,0,.448-4.41q0-3.591-1.847-3.589a2.854,2.854,0,0,0-.9.158l-3.7,1.795q-1.529,1.265-2.773,5.334a44.6,44.6,0,0,0-1.61,6.813,7.76,7.76,0,0,0-.105,1.056,8.507,8.507,0,0,1-.133,1.187c-.053.231-.142.54-.265.926a1.742,1.742,0,0,1-.553.869,2.718,2.718,0,0,1-.9.453,5.442,5.442,0,0,1-1.319.155c-1.834,0-2.746-.631-2.746-1.9a7.71,7.71,0,0,1,.448-2.561,19.1,19.1,0,0,1,1.189-2.693q.737-1.4,1-2.035l.741-2.058a13.326,13.326,0,0,0,1.321-5.334q0-2.589-1.8-2.588a6.141,6.141,0,0,0-1.374,1.847,1.92,1.92,0,0,1-2.005,1.372c-.738,0-1.109-.313-1.109-.949a2.86,2.86,0,0,1,.105-.633,13.873,13.873,0,0,1,3.434-4.6q2.85-2.85,4.909-2.851a2.1,2.1,0,0,1,1.69.844,7.9,7.9,0,0,1,1.374,4.332q4.012-4.54,7.129-4.54a4.209,4.209,0,0,1,1.584.316q3.169,1.265,3.169,5.386a42.84,42.84,0,0,1-.526,4.648q-1.06,6.176-1.111,7.5v.37a4.724,4.724,0,0,0-.053.636v.526a3.7,3.7,0,0,0,.027.476,1.016,1.016,0,0,0,.078.318c.034.071.071.105.107.105a1.888,1.888,0,0,0,.924-.343,6.023,6.023,0,0,0,.871-.633c.213-.194.526-.5.951-.924l.633-.581a1.838,1.838,0,0,1,1.267-.53,1.337,1.337,0,0,1,.951.345,1.143,1.143,0,0,1,.37.871,1.747,1.747,0,0,1-.528,1.159q-4.122,4.438-8.082,5.126a3.041,3.041,0,0,1-.633.05" transform="translate(737.809 572.001)" fill="#161615"/>
    <path id="Path_54" data-name="Path 54" d="M237.036,246.71a3.251,3.251,0,0,1-2.458-1.109,4.035,4.035,0,0,1-1.029-2.851,7.825,7.825,0,0,1,.265-1.9q-4.067,5.281-8.08,5.279a6.038,6.038,0,0,1-2.087-.4,9.162,9.162,0,0,1-2.243-1.241,6.024,6.024,0,0,1-1.9-2.506,9.335,9.335,0,0,1-.741-3.829,12.309,12.309,0,0,1,.528-3.484,5.394,5.394,0,0,1,.528-1.164,9.255,9.255,0,0,1,.658-1q.291-.367.951-1.136c.441-.508.732-.853.871-1.029a15.642,15.642,0,0,1,8.135-7.657,2.84,2.84,0,0,1,.633-.105,1.166,1.166,0,0,1,1,.528,7.973,7.973,0,0,1,2.215-.318,6.551,6.551,0,0,1,5.176,2.588l.107-.846a24.428,24.428,0,0,1,.738-4.143,23.553,23.553,0,0,0,.741-4.623,4.275,4.275,0,0,0-.265-1.69,5.969,5.969,0,0,1-1.8-.368.894.894,0,0,1-.368-.846,2.09,2.09,0,0,1,.608-1.452,1.533,1.533,0,0,1,1.4-.553l1,.1a1.661,1.661,0,0,1,.476-.1,1.4,1.4,0,0,1,.686.208,13.12,13.12,0,0,0,3.406-.368q1.824-.422,1.927-.423a1.072,1.072,0,0,1,1.214,1.214q0,.425-3.166,5.124t-3.592,6.706a16.4,16.4,0,0,1-.738,5.174l-.265,3.434q-.213,3.488-.21,5.176,0,3.91.951,4.12a5.4,5.4,0,0,1,2.005-1.006,1.265,1.265,0,0,1,1.269,1.269,2.443,2.443,0,0,1-1.084,1.795,5.52,5.52,0,0,1-2.085,1.161q-3.488,2.274-5.386,2.273m-9.559-5.016a4.413,4.413,0,0,0,.738-.107,5.619,5.619,0,0,0,2.616-1.479,22.925,22.925,0,0,0,2.746-3.512q1.612-2.4,2.14-3.089a1.835,1.835,0,0,1,1.159-.581L238.2,229.6q-1.691-3.591-4.753-3.592a7.036,7.036,0,0,0-3.379.953,34.577,34.577,0,0,0-5.7,7.709,14.14,14.14,0,0,0,.581,4.673q.686,2.349,2.533,2.35m10.192,1.795a3.242,3.242,0,0,0,.528-.107l.791-.263a5.765,5.765,0,0,1-.949-3.589,18.637,18.637,0,0,1,.263-3.064l-.476,1.214a11.786,11.786,0,0,0-1.159,4.435c0,.917.332,1.374,1,1.374" transform="translate(754.387 565.464)" fill="#161615"/>
    <path id="Path_55" data-name="Path 55" d="M240.857,240.574a8.909,8.909,0,0,1-4.726-1.269,6.588,6.588,0,0,1-2.878-4.012,11.771,11.771,0,0,1-.423-3.061,15.323,15.323,0,0,1,2.878-8.688,18.068,18.068,0,0,1,6.943-6.26,1.243,1.243,0,0,1,1-.158,16.5,16.5,0,0,1,6.548-1.795q4.65,0,4.278,5.862a8.321,8.321,0,0,1-2.641,5.624,14.044,14.044,0,0,1-5.624,3.354,22.022,22.022,0,0,1-6.626,1c-.142,0-.354-.009-.636-.027s-.494-.027-.633-.027l.318,1.214a4.221,4.221,0,0,0,.633,2.353,3.808,3.808,0,0,0,1.744,1.452,9.707,9.707,0,0,0,2.215.661,14.7,14.7,0,0,0,2.375.185q.638-.264,3.2-1.772a31.03,31.03,0,0,1,3.144-1.715c.983-.951,1.69-1.427,2.112-1.427a1.311,1.311,0,0,1,.924.37,1.188,1.188,0,0,1,.4.9,1.709,1.709,0,0,1-.476,1.161,28.671,28.671,0,0,1-6.26,4.355,13.267,13.267,0,0,1-5.887,1.717Zm-.738-13.624a14.5,14.5,0,0,0,7.156-1.93q3.457-1.924,3.459-4.989c0-.6-.53-.9-1.587-.9a12.276,12.276,0,0,0-4.8,1.241,7.818,7.818,0,0,0-3.752,2.878,13.253,13.253,0,0,0-1.637,3.644,9.331,9.331,0,0,0,1.164.053" transform="translate(772.48 571.972)" fill="#161615"/>
    <path id="Path_56" data-name="Path 56" d="M252.708,247.728a10.953,10.953,0,0,1-3.962-.606,5.718,5.718,0,0,1-2.641-2.3l-.791-.476a5.58,5.58,0,0,1-.791-5.809q5.542-15.048,5.544-20.965a4.124,4.124,0,0,0-.37-2.005.985.985,0,0,0-1.214-.425l-1.532.055q-1.056,0-1.056-.951a2.33,2.33,0,0,1,.608-1.479,1.775,1.775,0,0,1,1.4-.738,12.885,12.885,0,0,0,4.515-1.374,38.126,38.126,0,0,1,3.617-1.532,1.013,1.013,0,0,1,1.187.4,1.286,1.286,0,0,1,.187,1.3,73.343,73.343,0,0,0-2.853,8.66q-1.533,5.545-2.323,9.454a14.758,14.758,0,0,1,3.116-2.273,7.5,7.5,0,0,1,6.546-2.06,8.1,8.1,0,0,1,4.913,2.35,6.515,6.515,0,0,1,1.637,4.515,14.8,14.8,0,0,1-1.216,5.334,19.726,19.726,0,0,1-3.825,5.942,12.013,12.013,0,0,1-5.784,3.72,9.89,9.89,0,0,1-4.911,1.269m1.532-4.12q5.7-2.743,7.341-6.072a12.3,12.3,0,0,0,1.687-4.858,3.6,3.6,0,0,0-1.847-2.956,5.6,5.6,0,0,0-2.8-.583,7.247,7.247,0,0,0-1.744.213l-1.161.9-4.328,3.221v.368a1.6,1.6,0,0,1-.9,1.427,46.878,46.878,0,0,0-1.059,5.652,6.428,6.428,0,0,0,4.808,2.691m9.028-3.96a9.8,9.8,0,0,0,2.378-5.757v-1.319a13.8,13.8,0,0,1-1.795,5.334Z" transform="translate(786.93 563.919)" fill="#161615"/>
    <path id="Path_57" data-name="Path 57" d="M265.514,240.217a7.044,7.044,0,0,1-2.005-.313l-2.325-1.481a6.983,6.983,0,0,1-3.7-3.377,8.92,8.92,0,0,1-1.319-4.227c0-.281-.011-.722-.03-1.319s-.025-1.056-.025-1.374a9.708,9.708,0,0,1,2.538-6.758q.154-.209.976-1.164c.544-.633.958-1.1,1.241-1.4s.729-.713,1.342-1.239a10.574,10.574,0,0,1,1.639-1.189,8.26,8.26,0,0,1,1.742-.686,6.521,6.521,0,0,1,2.085-.24,8.061,8.061,0,0,1,4.6,1.587q5.545,2.641,5.439,6.285l-.105,1.424a10.567,10.567,0,0,1-1.5,5.334,22.533,22.533,0,0,1-3.779,5.016q-2.8,5.124-6.811,5.121m-1.164-4.17a5.12,5.12,0,0,0,1.534-.213c.35-.21,1.161-.825,2.426-1.847a18.518,18.518,0,0,0,3.857-7.869c.105-1.406.158-2.129.158-2.163l-.053-1.321a8.368,8.368,0,0,0-2.4-2.455,5.655,5.655,0,0,0-2.981-1.031,1.746,1.746,0,0,1-.953,1.269,9.039,9.039,0,0,0-3.509,4.225,13.93,13.93,0,0,0-1.4,5.915,8.167,8.167,0,0,0,.368,2.586,4.373,4.373,0,0,0,2.007,2.8,2.943,2.943,0,0,0,.949.105" transform="translate(802.428 572.116)" fill="#161615"/>
    <path id="Path_58" data-name="Path 58" d="M268.16,246.364q-1.214,0-1.214-.9a24.85,24.85,0,0,1,1.847-7.5q1.848-5.065,2.323-7.023.689-2.483,2.062-6.653l.368-1.374.738-2.163a6.545,6.545,0,0,0,.055-1,5.506,5.506,0,0,0-2.853-4.963,2.169,2.169,0,0,1-.738.158q-.95,0-.951-1.109a2.378,2.378,0,0,1,.448-1.347,1.65,1.65,0,0,1,1.136-.766q.792-.158,2.771-.581t3.381-.661q1.4-.237,2.773-.345a.8.8,0,0,1,.766.345,1.742,1.742,0,0,1,.235,1.4q-.528,1.427-1.45,4.515t-1.559,4.673a23.638,23.638,0,0,1-1.532,5.124,26.67,26.67,0,0,1-1.084,3.4c-.546,1.463-.887,2.455-1.029,2.986l-.158,1.582a15.435,15.435,0,0,0,5.755-2.638,13.286,13.286,0,0,1,3.487-4.54l-.581-.583a1.181,1.181,0,0,1-.738-1.109,1.875,1.875,0,0,1,.659-1.372,1.991,1.991,0,0,1,1.4-.636,28.575,28.575,0,0,0,5.7-.633,1.627,1.627,0,0,1,.475-.053c.6,0,.9.334.9,1a2.19,2.19,0,0,1-1.111,2.06,27.347,27.347,0,0,0-3.642,2.428q-.583,1.746-3.7,4.6c.176.281.411.642.713,1.081s.51.775.631,1,.258.5.4.818a3.167,3.167,0,0,1,.263.951,10.681,10.681,0,0,1,.055,1.267v3.327q.051,1.427.633,1.427.635,0,1.664-1.427a12.979,12.979,0,0,0,1.347-2.163,1.657,1.657,0,0,1,1.532-1.006,1.275,1.275,0,0,1,.9.345,1.2,1.2,0,0,1,.368.924,2.551,2.551,0,0,1-.158.793q-2.112,4.383-4.7,5.649l-1.214.473-1.056.055a5.878,5.878,0,0,1-3.539-2.007,11.656,11.656,0,0,1-1.715-4.092,19.171,19.171,0,0,0-1.347-3.987q-1.056.425-3.7,1.214a24.134,24.134,0,0,1-.738,3.909,8.938,8.938,0,0,1-1.77,3.194,5.43,5.43,0,0,1-3.3,1.927Zm1.847-4.172a9.135,9.135,0,0,0,1.269-3.958h-.265a21.034,21.034,0,0,0-1,3.958" transform="translate(816.362 565.283)" fill="#161615"/>
    <path id="Path_59" data-name="Path 59" d="M280.356,246.364q-1.214,0-1.214-.9a24.851,24.851,0,0,1,1.847-7.5q1.848-5.065,2.323-7.023.689-2.483,2.062-6.653l.368-1.374.738-2.163a6.534,6.534,0,0,0,.055-1,5.506,5.506,0,0,0-2.853-4.963,2.169,2.169,0,0,1-.738.158q-.95,0-.951-1.109a2.377,2.377,0,0,1,.448-1.347,1.65,1.65,0,0,1,1.136-.766q.792-.158,2.771-.581t3.381-.661q1.4-.237,2.773-.345a.8.8,0,0,1,.766.345,1.742,1.742,0,0,1,.235,1.4q-.528,1.427-1.449,4.515t-1.559,4.673a23.638,23.638,0,0,1-1.532,5.124,26.672,26.672,0,0,1-1.084,3.4c-.546,1.463-.887,2.455-1.029,2.986l-.158,1.582a15.435,15.435,0,0,0,5.755-2.638,13.284,13.284,0,0,1,3.487-4.54l-.581-.583a1.181,1.181,0,0,1-.738-1.109,1.875,1.875,0,0,1,.658-1.372,1.991,1.991,0,0,1,1.4-.636,28.574,28.574,0,0,0,5.7-.633,1.629,1.629,0,0,1,.476-.053c.6,0,.9.334.9,1a2.19,2.19,0,0,1-1.111,2.06A27.348,27.348,0,0,0,299,228.092q-.583,1.746-3.7,4.6c.176.281.412.642.713,1.081s.51.775.631,1,.258.5.4.818a3.171,3.171,0,0,1,.263.951,10.713,10.713,0,0,1,.055,1.267v3.327q.052,1.427.633,1.427.634,0,1.664-1.427a12.975,12.975,0,0,0,1.347-2.163,1.658,1.658,0,0,1,1.532-1.006,1.275,1.275,0,0,1,.9.345,1.2,1.2,0,0,1,.368.924,2.552,2.552,0,0,1-.158.793q-2.112,4.383-4.7,5.649l-1.214.473-1.056.055a5.878,5.878,0,0,1-3.539-2.007,11.655,11.655,0,0,1-1.715-4.092,19.171,19.171,0,0,0-1.347-3.987q-1.056.425-3.7,1.214a24.141,24.141,0,0,1-.738,3.909,8.94,8.94,0,0,1-1.77,3.194,5.429,5.429,0,0,1-3.3,1.927Zm1.847-4.172a9.132,9.132,0,0,0,1.269-3.958h-.265a21.044,21.044,0,0,0-1,3.958" transform="translate(832.049 565.283)" fill="#161615"/>
    <path id="Path_60" data-name="Path 60" d="M299.364,240.574a8.909,8.909,0,0,1-4.726-1.269,6.588,6.588,0,0,1-2.878-4.012,11.773,11.773,0,0,1-.423-3.061,15.323,15.323,0,0,1,2.878-8.688,18.068,18.068,0,0,1,6.943-6.26,1.243,1.243,0,0,1,1-.158,16.5,16.5,0,0,1,6.548-1.795q4.65,0,4.278,5.862a8.321,8.321,0,0,1-2.641,5.624,14.044,14.044,0,0,1-5.624,3.354,22.022,22.022,0,0,1-6.626,1c-.142,0-.354-.009-.636-.027s-.494-.027-.633-.027l.318,1.214a4.221,4.221,0,0,0,.633,2.353,3.808,3.808,0,0,0,1.744,1.452,9.707,9.707,0,0,0,2.215.661,14.7,14.7,0,0,0,2.375.185q.638-.264,3.2-1.772a31.038,31.038,0,0,1,3.144-1.715c.983-.951,1.69-1.427,2.112-1.427a1.312,1.312,0,0,1,.924.37,1.188,1.188,0,0,1,.4.9,1.709,1.709,0,0,1-.476,1.161,28.671,28.671,0,0,1-6.26,4.355,13.266,13.266,0,0,1-5.887,1.717Zm-.738-13.624a14.5,14.5,0,0,0,7.156-1.93q3.457-1.924,3.459-4.989c0-.6-.53-.9-1.587-.9a12.276,12.276,0,0,0-4.8,1.241,7.819,7.819,0,0,0-3.752,2.878,13.254,13.254,0,0,0-1.637,3.644,9.331,9.331,0,0,0,1.164.053" transform="translate(847.735 571.972)" fill="#161615"/>
    <path id="Path_61" data-name="Path 61" d="M320.534,240.807q-2.215,0-2.218-2.956a8.692,8.692,0,0,1,.105-1.164q.055-.315.531-2.4t.924-4.7a27,27,0,0,0,.448-4.41q0-3.591-1.847-3.589a2.854,2.854,0,0,0-.9.158l-3.7,1.795q-1.529,1.265-2.773,5.334a44.59,44.59,0,0,0-1.61,6.813,7.765,7.765,0,0,0-.105,1.056,8.505,8.505,0,0,1-.133,1.187c-.053.231-.142.54-.265.926a1.741,1.741,0,0,1-.553.869,2.718,2.718,0,0,1-.9.453,5.442,5.442,0,0,1-1.319.155c-1.834,0-2.746-.631-2.746-1.9a7.711,7.711,0,0,1,.448-2.561,19.106,19.106,0,0,1,1.189-2.693q.737-1.4,1-2.035l.741-2.058a13.325,13.325,0,0,0,1.321-5.334q0-2.589-1.8-2.588a6.138,6.138,0,0,0-1.374,1.847A1.92,1.92,0,0,1,303,224.382c-.738,0-1.109-.313-1.109-.949A2.856,2.856,0,0,1,302,222.8a13.872,13.872,0,0,1,3.434-4.6q2.85-2.85,4.909-2.851a2.1,2.1,0,0,1,1.69.844,7.9,7.9,0,0,1,1.374,4.332q4.012-4.54,7.129-4.54a4.208,4.208,0,0,1,1.584.316q3.169,1.265,3.169,5.386a42.835,42.835,0,0,1-.526,4.648q-1.06,6.176-1.111,7.5v.37a4.714,4.714,0,0,0-.053.636v.526a3.713,3.713,0,0,0,.027.476,1.015,1.015,0,0,0,.078.318c.034.071.071.105.107.105a1.888,1.888,0,0,0,.924-.343,6.025,6.025,0,0,0,.871-.633c.213-.194.526-.5.951-.924l.633-.581a1.838,1.838,0,0,1,1.267-.53,1.337,1.337,0,0,1,.951.345,1.143,1.143,0,0,1,.37.871,1.748,1.748,0,0,1-.528,1.159q-4.122,4.438-8.082,5.126a3.041,3.041,0,0,1-.633.05" transform="translate(861.314 572.001)" fill="#161615"/>
    <path id="Path_62" data-name="Path 62" d="M318.05,230.377a8.36,8.36,0,0,1-2.007-.633,1.406,1.406,0,0,1-1.029-.185,2.491,2.491,0,0,1-.4-1.189.5.5,0,0,0-.135-.318,1.619,1.619,0,0,0-.235-.235c-.071-.055-.089-.08-.055-.08-.069,0-.1-.016-.1-.053a.321.321,0,0,1,.078-.158,1.333,1.333,0,0,0,.158-.29.966.966,0,0,0,.08-.4,6.312,6.312,0,0,1,.976-2.9,3.9,3.9,0,0,1,2.35-1.321,3.388,3.388,0,0,1,.688-.053,1.88,1.88,0,0,1,.949.213.375.375,0,0,1,.158.581,5.647,5.647,0,0,1,1.429,4.383,3.782,3.782,0,0,1-.766,1.927,2.2,2.2,0,0,1-2.14.713" transform="translate(877.001 581.27)" fill="#161615"/>
  </g>
</svg>
