<svg xmlns="http://www.w3.org/2000/svg" width="1104.2" height="217.22" viewBox="0 0 1104.2 217.22">
  <g id="Group_121" data-name="Group 121" transform="translate(-409.525 -692.88)">
    <path id="Path_195" data-name="Path 195" d="M-481.459-76.472l.242-2.178h-58.2v25.773h1.815l9.68-17.545h26.862L-542.806-2.178V0h60.742V-25.652h-1.815l-9.438,17.545h-30.25ZM-449.031,1.21c15.367,0,26.378-11.132,26.378-27.588s-10.769-26.257-24.926-26.257c-15.73,0-26.378,12.221-26.378,28.193C-473.957-8.954-463.793,1.21-449.031,1.21Zm2.42-7.139c-7.26,0-12.584-9.68-12.584-23.474,0-9.922,3.509-15.73,9.2-15.73,7.26,0,12.584,9.68,12.584,23.474C-437.415-11.737-440.924-5.929-446.611-5.929Zm84.579-1.694-.605-.726V-38.478c0-9.922-6.05-14.157-14.641-14.157-6.534,0-11.616,2.541-18.755,7.26l-1.452-7.139-1.573-.847-18.15,9.317v1.573l7.744,4.719v29.4l-.6.6h-5.445V0H-389.5V-7.744h-5.445l-.605-.6V-40.777a37.37,37.37,0,0,1,9.317-1.452c6.9,0,9.68,2.662,9.68,12.342V-8.349l-.605.6H-382.6V0h26.015V-7.623Zm61.71-.121-.605-.6V-86.273l-1.573-.847-20.086,9.68v1.452l7.744,4.84V-50.82a21.7,21.7,0,0,0-9.075-1.815c-15.246,0-26.136,12.463-26.136,29.04,0,13.673,7.139,24.8,18.755,24.8,6.171,0,10.648-3.146,16.456-7.5V0h19.965V-7.744ZM-322.465-9.2c-8.107,0-12.826-6.171-12.826-18.271,0-11.374,3.872-17.908,11.011-17.908,3.993,0,7.018,2.057,9.438,6.292v28.8A31.192,31.192,0,0,1-322.465-9.2Zm65.824,2.178c-9.922,0-15.488-7.139-16.335-18.755h30.008a32.784,32.784,0,0,0,.605-6.534c0-11.979-7.623-20.328-19.965-20.328-14.883,0-25.531,12.221-25.531,27.83,0,15.851,11.132,26.015,25.531,26.015a31.135,31.135,0,0,0,19.481-7.018l-2.3-4.235A25.883,25.883,0,0,1-256.641-7.018Zm-7.381-38.6c4.961,0,7.986,3.388,8.228,13.552h-17.182C-272.492-40.9-269.346-45.617-264.022-45.617Zm63.646-7.018c-6.534,0-10.89,2.783-16.7,7.5v-41.14l-1.573-.847-20.086,9.68v1.452l7.744,4.84V-2.783A47.574,47.574,0,0,0-210.9,1.21c14.641,0,29.04-10.164,29.04-29.161C-181.863-42.108-189.728-52.635-200.376-52.635ZM-207.757-6.05c-3.872,0-6.9-1.815-9.317-4.84V-41.14a35.576,35.576,0,0,1,8.591-1.089c7.139,0,11.858,5.929,11.858,17.908C-196.625-12.7-200.255-6.05-207.757-6.05Zm58.685,7.26c15.367,0,26.378-11.132,26.378-27.588s-10.769-26.257-24.926-26.257C-163.35-52.635-174-40.414-174-24.442-174-8.954-163.834,1.21-149.072,1.21Zm2.42-7.139c-7.26,0-12.584-9.68-12.584-23.474,0-9.922,3.509-15.73,9.2-15.73,7.26,0,12.584,9.68,12.584,23.474C-137.456-11.737-140.965-5.929-146.652-5.929Zm50.7-2.42V-86.273l-1.694-.847-19.965,9.68v1.452l7.744,4.84v62.8l-.6.6h-5.445V0H-89.9V-7.744h-5.445Zm31.218.6L-81.07-30.734l21.417-19.723v-.968H-86.394v1.089l6.9,6.776L-94.985-27.1-76.351,0h19.118V-7.744Zm31.218-.6V-86.273l-1.694-.847-19.965,9.68v1.452l7.744,4.84v62.8l-.6.6h-5.445V0h26.015V-7.744h-5.445Zm31.218.6-16.335-22.99L2.783-50.457v-.968H-23.958v1.089l6.9,6.776L-32.549-27.1-13.915,0H5.2V-7.744Zm41.14.726c-9.922,0-15.488-7.139-16.335-18.755H52.514a32.785,32.785,0,0,0,.6-6.534c0-11.979-7.623-20.328-19.965-20.328-14.883,0-25.531,12.221-25.531,27.83C7.623-8.954,18.755,1.21,33.154,1.21A31.135,31.135,0,0,0,52.635-5.808l-2.3-4.235A25.883,25.883,0,0,1,38.841-7.018Zm-7.381-38.6c4.961,0,7.986,3.388,8.228,13.552H22.506C22.99-40.9,26.136-45.617,31.46-45.617ZM113.135-7.623l-.6-.726V-38.478c0-9.922-6.05-14.157-14.641-14.157-6.534,0-11.616,2.541-18.755,7.26l-1.452-7.139-1.573-.847-18.15,9.317v1.573L65.7-37.752v29.4l-.6.6H59.653V0H85.668V-7.744H80.223l-.605-.6V-40.777a37.37,37.37,0,0,1,9.317-1.452c6.9,0,9.68,2.662,9.68,12.342V-8.349l-.605.6H92.565V0H118.58V-7.623ZM170.61,1.21h5.566l20.933-43.681,7.381-6.776V-50.82H181.863v1.694l6.776,6.655L176.66-16.456H176.3L165.165-42.471l6.776-6.776V-50.82H142.659v1.694l7.381,6.655Zm76.109-8.954-.6-.6v-23.6c0-13.431-5.082-20.691-17.787-20.691-8.228,0-15,3.025-20.933,8.954l2.3,4.6c4.356-2.783,8.47-4.477,12.705-4.477,7.018,0,9.8,4.235,9.8,12.463v2.178c-20.933,2.178-26.983,9.2-26.983,18.271,0,8.954,6.171,11.979,11.979,11.979,4.961,0,10.043-2.178,15-5.566V0h19.965V-7.744Zm-21.054.363c-4.114,0-7.018-2.057-6.9-6.655.121-5.445,3.993-8.107,13.431-8.954V-8.47A26.326,26.326,0,0,1,225.665-7.381Zm85.789-.242-.605-.726V-38.478c0-9.922-6.05-14.157-14.641-14.157-6.534,0-11.616,2.541-18.755,7.26L276-52.514l-1.573-.847-18.15,9.317v1.573l7.744,4.719v29.4l-.6.6h-5.445V0h26.015V-7.744h-5.445l-.605-.6V-40.777a37.37,37.37,0,0,1,9.317-1.452c6.9,0,9.68,2.662,9.68,12.342V-8.349l-.605.6h-5.445V0H316.9V-7.623Zm61.71-.121-.605-.6V-86.273l-1.573-.847L350.9-77.44v1.452l7.744,4.84V-50.82a21.7,21.7,0,0,0-9.075-1.815c-15.246,0-26.136,12.463-26.136,29.04,0,13.673,7.139,24.8,18.755,24.8,6.171,0,10.648-3.146,16.456-7.5V0h19.965V-7.744ZM351.021-9.2c-8.107,0-12.826-6.171-12.826-18.271,0-11.374,3.872-17.908,11.011-17.908,3.993,0,7.018,2.057,9.438,6.292v28.8A31.192,31.192,0,0,1,351.021-9.2Zm75.625,1.452-.6-.6v-23.6c0-13.431-5.082-20.691-17.787-20.691-8.228,0-15,3.025-20.933,8.954l2.3,4.6c4.356-2.783,8.47-4.477,12.705-4.477,7.018,0,9.8,4.235,9.8,12.463v2.178c-20.933,2.178-26.983,9.2-26.983,18.271,0,8.954,6.171,11.979,11.979,11.979,4.961,0,10.043-2.178,15-5.566V0h19.965V-7.744Zm-21.054.363c-4.114,0-7.018-2.057-6.9-6.655.121-5.445,3.993-8.107,13.431-8.954V-8.47A26.326,26.326,0,0,1,405.592-7.381Zm73.447-.363-.6-.6v-23.6c0-13.431-5.082-20.691-17.787-20.691-8.228,0-15,3.025-20.933,8.954l2.3,4.6c4.356-2.783,8.47-4.477,12.705-4.477,7.018,0,9.8,4.235,9.8,12.463v2.178c-20.933,2.178-26.983,9.2-26.983,18.271,0,8.954,6.171,11.979,11.979,11.979,4.961,0,10.043-2.178,15-5.566V0h19.965V-7.744Zm-21.054.363c-4.114,0-7.018-2.057-6.9-6.655.121-5.445,3.993-8.107,13.431-8.954V-8.47A26.326,26.326,0,0,1,457.985-7.381Zm85.668-46.343-15.125,5.687a23.069,23.069,0,0,0-14.157-4.6c-12.1,0-22.627,8.47-22.627,20.691a16.4,16.4,0,0,0,7.5,14.278c-5.324,4.84-8.349,10.043-8.349,15a8.838,8.838,0,0,0,4.356,7.986c-5.687,3.872-8.712,8.107-8.712,12.705,0,6.776,6.534,10.648,19,10.648,19.481,0,34-8.591,34-22.022,0-8.228-5.929-11.979-16.94-11.979H510.983c-7.623,0-9.559-1.936-9.559-4.961a9.285,9.285,0,0,1,1.936-5.324,26.226,26.226,0,0,0,8.954,1.452c12.1,0,22.869-7.26,22.869-19.6a18.084,18.084,0,0,0-3.025-10.285L542.322-40.9l1.694-.242V-53.361ZM513.645-20.086c-5.082,0-7.744-5.324-7.744-13.915,0-8.833,3.267-12.826,7.26-12.826,4.84,0,7.986,5.566,7.986,14.4C521.147-23.474,517.759-20.086,513.645-20.086Zm-6.9,27.83h11.858c5.082,0,8.712.484,8.712,4.235,0,5.808-8.712,9.2-18.029,9.2-7.5,0-11.5-2.42-11.5-7.744a11.661,11.661,0,0,1,1.936-6.413A29.084,29.084,0,0,0,506.748,7.744Z" transform="translate(961 780)"/>
    <path id="Path_196" data-name="Path 196" d="M-522.425,0H-527.3V-16.3h-19.3V0h-4.875V-35.825h4.875V-19.85h19.3V-35.825h4.875Zm18.075-25.725a11.3,11.3,0,0,1,4.2.763,9.428,9.428,0,0,1,3.325,2.2,10.03,10.03,0,0,1,2.188,3.55,13.715,13.715,0,0,1,.787,4.813,2.9,2.9,0,0,1-.225,1.4.934.934,0,0,1-.85.35h-16.85a13.981,13.981,0,0,0,.65,4.175,8.537,8.537,0,0,0,1.65,2.962,6.611,6.611,0,0,0,2.5,1.775,8.586,8.586,0,0,0,3.25.587,9.534,9.534,0,0,0,2.888-.387,13.739,13.739,0,0,0,2.087-.838,15.921,15.921,0,0,0,1.462-.838,1.939,1.939,0,0,1,1.013-.388.979.979,0,0,1,.85.425l1.25,1.625a8.453,8.453,0,0,1-1.975,1.738A12.3,12.3,0,0,1-498.612-.6a15.641,15.641,0,0,1-2.712.713A16.568,16.568,0,0,1-504.1.35a12.877,12.877,0,0,1-4.837-.888,10.617,10.617,0,0,1-3.825-2.6,11.928,11.928,0,0,1-2.513-4.237,17.23,17.23,0,0,1-.9-5.8,14.756,14.756,0,0,1,.813-4.95,11.668,11.668,0,0,1,2.338-3.988,10.761,10.761,0,0,1,3.725-2.65A12.228,12.228,0,0,1-504.35-25.725Zm.1,3.275a6.832,6.832,0,0,0-5.075,1.863,8.767,8.767,0,0,0-2.3,5.163h13.775a9.011,9.011,0,0,0-.425-2.837,6.322,6.322,0,0,0-1.25-2.225,5.6,5.6,0,0,0-2.013-1.45A6.787,6.787,0,0,0-504.25-22.45ZM-488.175,0V-25.325h2.55a1.407,1.407,0,0,1,1,.275,1.687,1.687,0,0,1,.375.95l.3,3.95a11.584,11.584,0,0,1,3.212-4.138,7.1,7.1,0,0,1,4.488-1.487,7.057,7.057,0,0,1,1.9.237,6.622,6.622,0,0,1,1.575.663l-.575,3.325a.752.752,0,0,1-.775.625,3.889,3.889,0,0,1-1.075-.237,6.78,6.78,0,0,0-2.025-.237,5.736,5.736,0,0,0-3.888,1.35,10.134,10.134,0,0,0-2.612,3.925V0ZM-463.4-36.825V-15.15h1.15a2.131,2.131,0,0,0,.825-.137,2.309,2.309,0,0,0,.725-.562l8-8.575a4.348,4.348,0,0,1,.75-.65,1.777,1.777,0,0,1,1-.25h4.05l-9.325,9.925a8.861,8.861,0,0,1-.687.75,4.065,4.065,0,0,1-.763.575,4.608,4.608,0,0,1,.813.688,6.4,6.4,0,0,1,.688.887l9.9,12.5h-4a1.924,1.924,0,0,1-.937-.213,2.451,2.451,0,0,1-.737-.662l-8.325-10.375a1.943,1.943,0,0,0-.75-.687,2.97,2.97,0,0,0-1.125-.163h-1.25V0h-4.475V-36.825Zm30.1,11.1a11.3,11.3,0,0,1,4.2.763,9.428,9.428,0,0,1,3.325,2.2,10.03,10.03,0,0,1,2.188,3.55A13.715,13.715,0,0,1-422.8-14.4a2.9,2.9,0,0,1-.225,1.4.934.934,0,0,1-.85.35h-16.85a13.981,13.981,0,0,0,.65,4.175,8.537,8.537,0,0,0,1.65,2.962,6.611,6.611,0,0,0,2.5,1.775,8.586,8.586,0,0,0,3.25.587,9.534,9.534,0,0,0,2.888-.387,13.739,13.739,0,0,0,2.087-.838,15.921,15.921,0,0,0,1.462-.838,1.939,1.939,0,0,1,1.013-.388.979.979,0,0,1,.85.425l1.25,1.625A8.453,8.453,0,0,1-425.1-1.812,12.3,12.3,0,0,1-427.562-.6a15.641,15.641,0,0,1-2.712.713A16.568,16.568,0,0,1-433.05.35a12.877,12.877,0,0,1-4.837-.888,10.617,10.617,0,0,1-3.825-2.6,11.928,11.928,0,0,1-2.513-4.237,17.231,17.231,0,0,1-.9-5.8,14.757,14.757,0,0,1,.813-4.95,11.667,11.667,0,0,1,2.337-3.988,10.761,10.761,0,0,1,3.725-2.65A12.228,12.228,0,0,1-433.3-25.725Zm.1,3.275a6.832,6.832,0,0,0-5.075,1.863,8.767,8.767,0,0,0-2.3,5.163H-426.8a9.011,9.011,0,0,0-.425-2.837,6.322,6.322,0,0,0-1.25-2.225,5.6,5.6,0,0,0-2.013-1.45A6.787,6.787,0,0,0-433.2-22.45ZM-417.125,0V-25.325h2.65a1.135,1.135,0,0,1,1.2.925l.35,2.75a14.233,14.233,0,0,1,3.688-2.95,9.59,9.59,0,0,1,4.712-1.125,9.144,9.144,0,0,1,3.663.688,7.086,7.086,0,0,1,2.65,1.95A8.612,8.612,0,0,1-396.6-20.05a13.219,13.219,0,0,1,.55,3.925V0h-4.45V-16.125a6.816,6.816,0,0,0-1.312-4.462,4.907,4.907,0,0,0-4.012-1.588,7.48,7.48,0,0,0-3.687.95,12.143,12.143,0,0,0-3.163,2.575V0Zm37.45,0V-36.825h4.45v14.9a13.665,13.665,0,0,1,3.6-2.763,9.641,9.641,0,0,1,4.55-1.038,9.144,9.144,0,0,1,3.663.688,7.086,7.086,0,0,1,2.65,1.95,8.612,8.612,0,0,1,1.612,3.038,13.219,13.219,0,0,1,.55,3.925V0h-4.45V-16.125a6.816,6.816,0,0,0-1.312-4.462,4.907,4.907,0,0,0-4.012-1.588,7.48,7.48,0,0,0-3.687.95,12.143,12.143,0,0,0-3.163,2.575V0Zm37.825-25.725a11.3,11.3,0,0,1,4.2.763,9.428,9.428,0,0,1,3.325,2.2,10.03,10.03,0,0,1,2.188,3.55,13.715,13.715,0,0,1,.787,4.813,2.9,2.9,0,0,1-.225,1.4.934.934,0,0,1-.85.35h-16.85a13.981,13.981,0,0,0,.65,4.175,8.537,8.537,0,0,0,1.65,2.962,6.611,6.611,0,0,0,2.5,1.775,8.586,8.586,0,0,0,3.25.587,9.534,9.534,0,0,0,2.888-.387,13.739,13.739,0,0,0,2.087-.838,15.921,15.921,0,0,0,1.462-.838,1.939,1.939,0,0,1,1.013-.388.979.979,0,0,1,.85.425l1.25,1.625a8.453,8.453,0,0,1-1.975,1.738A12.3,12.3,0,0,1-336.112-.6a15.641,15.641,0,0,1-2.712.713A16.568,16.568,0,0,1-341.6.35a12.877,12.877,0,0,1-4.837-.888,10.617,10.617,0,0,1-3.825-2.6,11.928,11.928,0,0,1-2.513-4.237,17.231,17.231,0,0,1-.9-5.8,14.757,14.757,0,0,1,.813-4.95,11.667,11.667,0,0,1,2.337-3.988,10.761,10.761,0,0,1,3.725-2.65A12.228,12.228,0,0,1-341.85-25.725Zm.1,3.275a6.832,6.832,0,0,0-5.075,1.863,8.767,8.767,0,0,0-2.3,5.163h13.775a9.011,9.011,0,0,0-.425-2.837,6.322,6.322,0,0,0-1.25-2.225,5.6,5.6,0,0,0-2.013-1.45A6.787,6.787,0,0,0-341.75-22.45ZM-318,.4a6.105,6.105,0,0,1-4.613-1.675A6.684,6.684,0,0,1-324.225-6.1V-21.6h-3.05a1,1,0,0,1-.675-.237.923.923,0,0,1-.275-.738V-24.35l4.15-.525,1.025-7.825a.946.946,0,0,1,.325-.612,1.033,1.033,0,0,1,.7-.237h2.25v8.725h7.25V-21.6h-7.25V-6.4A3.233,3.233,0,0,0-319-4.025a2.707,2.707,0,0,0,2,.775,3.531,3.531,0,0,0,1.212-.187,5.2,5.2,0,0,0,.887-.412q.375-.225.638-.412a.834.834,0,0,1,.462-.188.766.766,0,0,1,.625.425l1.3,2.125A8.291,8.291,0,0,1-314.65-.213,9.423,9.423,0,0,1-318,.4Zm38.3-23.825a2.435,2.435,0,0,1-.175.912,3.174,3.174,0,0,1-.45.788l-13.7,18.25H-280.2V0h-19.075V-1.85a2.241,2.241,0,0,1,.163-.763,3.321,3.321,0,0,1,.462-.837l13.775-18.375H-298.5v-3.5h18.8Zm15.675-2.3a13.008,13.008,0,0,1,5.013.925,10.569,10.569,0,0,1,3.8,2.625,11.621,11.621,0,0,1,2.4,4.113,16.352,16.352,0,0,1,.837,5.387,16.323,16.323,0,0,1-.837,5.4,11.639,11.639,0,0,1-2.4,4.1,10.437,10.437,0,0,1-3.8,2.613,13.165,13.165,0,0,1-5.013.913,13.165,13.165,0,0,1-5.012-.913,10.555,10.555,0,0,1-3.812-2.613,11.688,11.688,0,0,1-2.425-4.1,16.1,16.1,0,0,1-.85-5.4,16.132,16.132,0,0,1,.85-5.387,11.669,11.669,0,0,1,2.425-4.113,10.69,10.69,0,0,1,3.813-2.625A13.008,13.008,0,0,1-264.025-25.725Zm0,22.6a6.5,6.5,0,0,0,5.6-2.513,11.633,11.633,0,0,0,1.85-7.012,11.74,11.74,0,0,0-1.85-7.05,6.488,6.488,0,0,0-5.6-2.525,7.772,7.772,0,0,0-3.3.65,6.177,6.177,0,0,0-2.337,1.875,8.328,8.328,0,0,0-1.4,3.012,16.149,16.149,0,0,0-.462,4.038,16,16,0,0,0,.462,4.025,8.2,8.2,0,0,0,1.4,2.987,6.225,6.225,0,0,0,2.337,1.863A7.772,7.772,0,0,0-264.025-3.125ZM-246.475,0V-25.325h2.65a1.135,1.135,0,0,1,1.2.925l.35,2.75a14.233,14.233,0,0,1,3.688-2.95,9.59,9.59,0,0,1,4.712-1.125,9.145,9.145,0,0,1,3.663.688,7.086,7.086,0,0,1,2.65,1.95,8.612,8.612,0,0,1,1.613,3.038,13.219,13.219,0,0,1,.55,3.925V0h-4.45V-16.125a6.816,6.816,0,0,0-1.312-4.462,4.907,4.907,0,0,0-4.012-1.588,7.48,7.48,0,0,0-3.687.95,12.144,12.144,0,0,0-3.162,2.575V0Zm45.625,0a1.135,1.135,0,0,1-1.2-.925L-202.45-4a13.331,13.331,0,0,1-3.712,3.162A9.511,9.511,0,0,1-210.95.35a9.141,9.141,0,0,1-3.95-.838,8.191,8.191,0,0,1-3.025-2.463A11.729,11.729,0,0,1-219.85-7a20.851,20.851,0,0,1-.675-5.575,17.474,17.474,0,0,1,.75-5.212,12.7,12.7,0,0,1,2.162-4.187,10.136,10.136,0,0,1,3.438-2.787,10.147,10.147,0,0,1,4.6-1.013,9.164,9.164,0,0,1,3.975.788,9.531,9.531,0,0,1,2.95,2.212v-14.05h4.45V0Zm-8.625-3.25a7.168,7.168,0,0,0,3.813-1,10.99,10.99,0,0,0,3.012-2.825v-12.25a7.041,7.041,0,0,0-2.687-2.312,7.756,7.756,0,0,0-3.238-.663,6.41,6.41,0,0,0-5.45,2.525q-1.9,2.525-1.9,7.2a18.308,18.308,0,0,0,.425,4.238,8.154,8.154,0,0,0,1.25,2.9,4.912,4.912,0,0,0,2.025,1.663A6.8,6.8,0,0,0-209.475-3.25ZM-180.7-25.725a11.3,11.3,0,0,1,4.2.763,9.427,9.427,0,0,1,3.325,2.2,10.03,10.03,0,0,1,2.188,3.55A13.715,13.715,0,0,1-170.2-14.4a2.9,2.9,0,0,1-.225,1.4.934.934,0,0,1-.85.35h-16.85a13.982,13.982,0,0,0,.65,4.175,8.537,8.537,0,0,0,1.65,2.962,6.611,6.611,0,0,0,2.5,1.775,8.585,8.585,0,0,0,3.25.587,9.534,9.534,0,0,0,2.887-.387,13.738,13.738,0,0,0,2.087-.838,15.926,15.926,0,0,0,1.463-.838,1.939,1.939,0,0,1,1.012-.388.979.979,0,0,1,.85.425l1.25,1.625A8.453,8.453,0,0,1-172.5-1.812,12.3,12.3,0,0,1-174.962-.6a15.641,15.641,0,0,1-2.713.713A16.567,16.567,0,0,1-180.45.35a12.877,12.877,0,0,1-4.838-.888,10.617,10.617,0,0,1-3.825-2.6,11.928,11.928,0,0,1-2.512-4.237,17.231,17.231,0,0,1-.9-5.8,14.756,14.756,0,0,1,.813-4.95,11.667,11.667,0,0,1,2.337-3.988,10.761,10.761,0,0,1,3.725-2.65A12.228,12.228,0,0,1-180.7-25.725Zm.1,3.275a6.832,6.832,0,0,0-5.075,1.863,8.767,8.767,0,0,0-2.3,5.163H-174.2a9.01,9.01,0,0,0-.425-2.837,6.323,6.323,0,0,0-1.25-2.225,5.6,5.6,0,0,0-2.012-1.45A6.787,6.787,0,0,0-180.6-22.45ZM-164.375,0V-36.825h4.475v15.15a12.939,12.939,0,0,1,3.613-2.937,9.571,9.571,0,0,1,4.663-1.113,9.319,9.319,0,0,1,3.975.825,8.03,8.03,0,0,1,3.025,2.462,11.877,11.877,0,0,1,1.925,4.05,20.711,20.711,0,0,1,.675,5.562,17.474,17.474,0,0,1-.75,5.213,12.559,12.559,0,0,1-2.162,4.175,10.163,10.163,0,0,1-3.45,2.775A10.168,10.168,0,0,1-152.975.35a8.467,8.467,0,0,1-4.162-.95,9.468,9.468,0,0,1-2.988-2.65l-.225,2.3A1.071,1.071,0,0,1-161.5,0Zm11.3-22.175a7.168,7.168,0,0,0-3.812,1A10.99,10.99,0,0,0-159.9-18.35V-6.1a6.975,6.975,0,0,0,2.663,2.325,7.694,7.694,0,0,0,3.262.675,6.41,6.41,0,0,0,5.45-2.525q1.9-2.525,1.9-7.2a17.965,17.965,0,0,0-.437-4.25,8.311,8.311,0,0,0-1.262-2.912,4.912,4.912,0,0,0-2.025-1.663A6.735,6.735,0,0,0-153.075-22.175Zm26.75-3.55a13.008,13.008,0,0,1,5.012.925,10.569,10.569,0,0,1,3.8,2.625,11.621,11.621,0,0,1,2.4,4.113,16.352,16.352,0,0,1,.837,5.387,16.323,16.323,0,0,1-.837,5.4,11.639,11.639,0,0,1-2.4,4.1,10.437,10.437,0,0,1-3.8,2.613,13.165,13.165,0,0,1-5.012.913,13.165,13.165,0,0,1-5.013-.913,10.556,10.556,0,0,1-3.812-2.613,11.688,11.688,0,0,1-2.425-4.1,16.1,16.1,0,0,1-.85-5.4,16.132,16.132,0,0,1,.85-5.387,11.669,11.669,0,0,1,2.425-4.113,10.69,10.69,0,0,1,3.813-2.625A13.008,13.008,0,0,1-126.325-25.725Zm0,22.6a6.5,6.5,0,0,0,5.6-2.513,11.633,11.633,0,0,0,1.85-7.012,11.74,11.74,0,0,0-1.85-7.05,6.488,6.488,0,0,0-5.6-2.525,7.772,7.772,0,0,0-3.3.65,6.177,6.177,0,0,0-2.338,1.875,8.328,8.328,0,0,0-1.4,3.012,16.148,16.148,0,0,0-.463,4.038,16,16,0,0,0,.463,4.025,8.2,8.2,0,0,0,1.4,2.987,6.225,6.225,0,0,0,2.338,1.863A7.772,7.772,0,0,0-126.325-3.125Zm22.175-33.7V-15.15H-103a2.131,2.131,0,0,0,.825-.137,2.309,2.309,0,0,0,.725-.562l8-8.575a4.348,4.348,0,0,1,.75-.65,1.777,1.777,0,0,1,1-.25h4.05L-96.975-15.4a8.861,8.861,0,0,1-.687.75,4.065,4.065,0,0,1-.762.575,4.609,4.609,0,0,1,.813.688,6.4,6.4,0,0,1,.688.887l9.9,12.5h-4a1.924,1.924,0,0,1-.937-.213A2.451,2.451,0,0,1-92.7-.875l-8.325-10.375a1.943,1.943,0,0,0-.75-.687A2.97,2.97,0,0,0-102.9-12.1h-1.25V0h-4.475V-36.825Zm21.575,45.4v-33.9h2.65a1.135,1.135,0,0,1,1.2.925l.375,3a13.521,13.521,0,0,1,3.713-3.175,9.483,9.483,0,0,1,4.813-1.2,9.142,9.142,0,0,1,3.95.837,8.144,8.144,0,0,1,3.025,2.475A11.869,11.869,0,0,1-60.925-18.4a20.851,20.851,0,0,1,.675,5.575A17.474,17.474,0,0,1-61-7.613a12.693,12.693,0,0,1-2.15,4.175A10.04,10.04,0,0,1-66.587-.662,10.168,10.168,0,0,1-71.175.35a9.442,9.442,0,0,1-4.013-.775,9.042,9.042,0,0,1-2.937-2.2v11.2ZM-71.3-22.175a7.168,7.168,0,0,0-3.812,1,10.99,10.99,0,0,0-3.013,2.825V-6.1a7.156,7.156,0,0,0,2.688,2.325,7.694,7.694,0,0,0,3.263.675A6.384,6.384,0,0,0-66.75-5.625q1.9-2.525,1.9-7.2a17.966,17.966,0,0,0-.437-4.25,8.311,8.311,0,0,0-1.262-2.912,4.912,4.912,0,0,0-2.025-1.663A6.735,6.735,0,0,0-71.3-22.175ZM-54.975,0V-25.325h2.55a1.407,1.407,0,0,1,1,.275,1.687,1.687,0,0,1,.375.95l.3,3.95a11.584,11.584,0,0,1,3.213-4.138,7.1,7.1,0,0,1,4.487-1.487,7.057,7.057,0,0,1,1.9.237,6.623,6.623,0,0,1,1.575.663l-.575,3.325a.752.752,0,0,1-.775.625A3.889,3.889,0,0,1-42-21.163a6.78,6.78,0,0,0-2.025-.237,5.736,5.736,0,0,0-3.887,1.35,10.134,10.134,0,0,0-2.613,3.925V0Zm25.1-25.325V0h-4.45V-25.325Zm1-7.95a2.832,2.832,0,0,1-.263,1.212,3.491,3.491,0,0,1-.7,1,3.252,3.252,0,0,1-1.013.687,3.039,3.039,0,0,1-1.225.25,2.951,2.951,0,0,1-1.213-.25,3.3,3.3,0,0,1-1-.687,3.3,3.3,0,0,1-.687-1,2.951,2.951,0,0,1-.25-1.212,3.128,3.128,0,0,1,.25-1.238,3.213,3.213,0,0,1,.688-1.025,3.3,3.3,0,0,1,1-.687,2.951,2.951,0,0,1,1.213-.25,3.039,3.039,0,0,1,1.225.25,3.252,3.252,0,0,1,1.013.688,3.39,3.39,0,0,1,.7,1.025A3,3,0,0,1-28.875-33.275ZM-22.025,0V-25.325h2.65a1.135,1.135,0,0,1,1.2.925l.35,2.75a14.233,14.233,0,0,1,3.687-2.95,9.59,9.59,0,0,1,4.713-1.125,9.144,9.144,0,0,1,3.663.688,7.086,7.086,0,0,1,2.65,1.95A8.612,8.612,0,0,1-1.5-20.05a13.219,13.219,0,0,1,.55,3.925V0H-5.4V-16.125a6.816,6.816,0,0,0-1.312-4.462,4.907,4.907,0,0,0-4.012-1.588,7.48,7.48,0,0,0-3.687.95,12.144,12.144,0,0,0-3.163,2.575V0ZM23.05-20.825a1.987,1.987,0,0,1-.4.425.945.945,0,0,1-.575.15,1.428,1.428,0,0,1-.812-.312,11.842,11.842,0,0,0-1.113-.687,9.314,9.314,0,0,0-1.637-.687,7.728,7.728,0,0,0-2.363-.312,7.687,7.687,0,0,0-3.275.663,6.351,6.351,0,0,0-2.387,1.913,8.655,8.655,0,0,0-1.45,3.025,15.009,15.009,0,0,0-.487,3.975,14.523,14.523,0,0,0,.525,4.088,8.857,8.857,0,0,0,1.475,3,6.293,6.293,0,0,0,2.313,1.85,7.141,7.141,0,0,0,3.062.638A7.829,7.829,0,0,0,18.6-3.488a8.15,8.15,0,0,0,1.75-.862,12.825,12.825,0,0,0,1.15-.863,1.386,1.386,0,0,1,.9-.388.941.941,0,0,1,.85.425L24.5-3.55A9.621,9.621,0,0,1,20.375-.587,14.626,14.626,0,0,1,15.15.35a11.063,11.063,0,0,1-4.413-.875A10.061,10.061,0,0,1,7.2-3.062,12.04,12.04,0,0,1,4.838-7.15a16.432,16.432,0,0,1-.862-5.525A16.671,16.671,0,0,1,4.763-17.9a11.838,11.838,0,0,1,2.3-4.138A10.424,10.424,0,0,1,10.8-24.75a12.6,12.6,0,0,1,5.1-.975,12.03,12.03,0,0,1,4.7.863,11.249,11.249,0,0,1,3.625,2.437Zm11.025-4.5V0h-4.45V-25.325Zm1-7.95a2.832,2.832,0,0,1-.262,1.212,3.491,3.491,0,0,1-.7,1,3.252,3.252,0,0,1-1.013.687,3.039,3.039,0,0,1-1.225.25,2.951,2.951,0,0,1-1.212-.25,3.3,3.3,0,0,1-1-.687,3.3,3.3,0,0,1-.687-1,2.951,2.951,0,0,1-.25-1.212,3.128,3.128,0,0,1,.25-1.238,3.213,3.213,0,0,1,.688-1.025,3.3,3.3,0,0,1,1-.687,2.951,2.951,0,0,1,1.212-.25,3.039,3.039,0,0,1,1.225.25,3.252,3.252,0,0,1,1.013.688,3.39,3.39,0,0,1,.7,1.025A3,3,0,0,1,35.075-33.275Zm6.85,41.85v-33.9h2.65a1.135,1.135,0,0,1,1.2.925l.375,3a13.521,13.521,0,0,1,3.713-3.175,9.483,9.483,0,0,1,4.813-1.2,9.142,9.142,0,0,1,3.95.837,8.144,8.144,0,0,1,3.025,2.475A11.869,11.869,0,0,1,63.575-18.4a20.851,20.851,0,0,1,.675,5.575,17.474,17.474,0,0,1-.75,5.213,12.693,12.693,0,0,1-2.15,4.175A10.04,10.04,0,0,1,57.913-.662,10.168,10.168,0,0,1,53.325.35a9.442,9.442,0,0,1-4.013-.775,9.042,9.042,0,0,1-2.937-2.2v11.2ZM53.2-22.175a7.168,7.168,0,0,0-3.812,1,10.99,10.99,0,0,0-3.013,2.825V-6.1a7.156,7.156,0,0,0,2.688,2.325,7.694,7.694,0,0,0,3.263.675A6.384,6.384,0,0,0,57.75-5.625q1.9-2.525,1.9-7.2a17.966,17.966,0,0,0-.437-4.25,8.311,8.311,0,0,0-1.263-2.912,4.912,4.912,0,0,0-2.025-1.663A6.735,6.735,0,0,0,53.2-22.175Zm26.35-3.55a11.3,11.3,0,0,1,4.2.763,9.427,9.427,0,0,1,3.325,2.2,10.03,10.03,0,0,1,2.188,3.55A13.715,13.715,0,0,1,90.05-14.4a2.9,2.9,0,0,1-.225,1.4.934.934,0,0,1-.85.35H72.125a13.981,13.981,0,0,0,.65,4.175,8.537,8.537,0,0,0,1.65,2.962,6.611,6.611,0,0,0,2.5,1.775,8.585,8.585,0,0,0,3.25.587,9.534,9.534,0,0,0,2.887-.387,13.738,13.738,0,0,0,2.088-.838,15.923,15.923,0,0,0,1.463-.838A1.939,1.939,0,0,1,87.625-5.6a.979.979,0,0,1,.85.425l1.25,1.625A8.452,8.452,0,0,1,87.75-1.812,12.3,12.3,0,0,1,85.288-.6a15.641,15.641,0,0,1-2.713.713A16.567,16.567,0,0,1,79.8.35a12.877,12.877,0,0,1-4.838-.888,10.617,10.617,0,0,1-3.825-2.6,11.928,11.928,0,0,1-2.512-4.237,17.231,17.231,0,0,1-.9-5.8,14.756,14.756,0,0,1,.813-4.95,11.667,11.667,0,0,1,2.338-3.988,10.761,10.761,0,0,1,3.725-2.65A12.228,12.228,0,0,1,79.55-25.725Zm.1,3.275a6.832,6.832,0,0,0-5.075,1.863,8.767,8.767,0,0,0-2.3,5.163H86.05a9.011,9.011,0,0,0-.425-2.837,6.323,6.323,0,0,0-1.25-2.225,5.6,5.6,0,0,0-2.012-1.45A6.787,6.787,0,0,0,79.65-22.45Zm30.675-2.875V0h-4.45V-25.325Zm1-7.95a2.832,2.832,0,0,1-.262,1.212,3.491,3.491,0,0,1-.7,1,3.252,3.252,0,0,1-1.012.687,3.039,3.039,0,0,1-1.225.25,2.951,2.951,0,0,1-1.213-.25,3.3,3.3,0,0,1-1-.687,3.3,3.3,0,0,1-.687-1,2.951,2.951,0,0,1-.25-1.212,3.128,3.128,0,0,1,.25-1.238,3.213,3.213,0,0,1,.688-1.025,3.3,3.3,0,0,1,1-.687,2.951,2.951,0,0,1,1.213-.25,3.039,3.039,0,0,1,1.225.25,3.252,3.252,0,0,1,1.012.688,3.391,3.391,0,0,1,.7,1.025A3,3,0,0,1,111.325-33.275ZM118.175,0V-25.325h2.65a1.135,1.135,0,0,1,1.2.925l.35,2.75a14.233,14.233,0,0,1,3.688-2.95,9.59,9.59,0,0,1,4.713-1.125,9.145,9.145,0,0,1,3.663.688,7.086,7.086,0,0,1,2.65,1.95A8.612,8.612,0,0,1,138.7-20.05a13.219,13.219,0,0,1,.55,3.925V0H134.8V-16.125a6.816,6.816,0,0,0-1.312-4.462,4.907,4.907,0,0,0-4.012-1.588,7.48,7.48,0,0,0-3.687.95,12.144,12.144,0,0,0-3.162,2.575V0Zm47.7-25.725a13.008,13.008,0,0,1,5.013.925,10.569,10.569,0,0,1,3.8,2.625,11.621,11.621,0,0,1,2.4,4.113,16.352,16.352,0,0,1,.837,5.387,16.323,16.323,0,0,1-.837,5.4,11.639,11.639,0,0,1-2.4,4.1,10.437,10.437,0,0,1-3.8,2.613,13.165,13.165,0,0,1-5.013.913,13.165,13.165,0,0,1-5.012-.913,10.556,10.556,0,0,1-3.812-2.613,11.688,11.688,0,0,1-2.425-4.1,16.1,16.1,0,0,1-.85-5.4,16.132,16.132,0,0,1,.85-5.387,11.669,11.669,0,0,1,2.425-4.113,10.69,10.69,0,0,1,3.813-2.625A13.008,13.008,0,0,1,165.875-25.725Zm0,22.6a6.5,6.5,0,0,0,5.6-2.513,11.633,11.633,0,0,0,1.85-7.012,11.74,11.74,0,0,0-1.85-7.05,6.488,6.488,0,0,0-5.6-2.525,7.772,7.772,0,0,0-3.3.65,6.177,6.177,0,0,0-2.338,1.875,8.328,8.328,0,0,0-1.4,3.012,16.148,16.148,0,0,0-.463,4.038,16,16,0,0,0,.463,4.025,8.2,8.2,0,0,0,1.4,2.987,6.225,6.225,0,0,0,2.338,1.863A7.772,7.772,0,0,0,165.875-3.125ZM183.425,0V-25.325h2.65a1.135,1.135,0,0,1,1.2.925l.35,2.75a14.233,14.233,0,0,1,3.688-2.95,9.59,9.59,0,0,1,4.712-1.125,9.145,9.145,0,0,1,3.663.688,7.086,7.086,0,0,1,2.65,1.95,8.612,8.612,0,0,1,1.613,3.038,13.219,13.219,0,0,1,.55,3.925V0h-4.45V-16.125a6.816,6.816,0,0,0-1.312-4.462,4.907,4.907,0,0,0-4.012-1.588,7.48,7.48,0,0,0-3.687.95,12.144,12.144,0,0,0-3.162,2.575V0ZM228.9-23.425a2.435,2.435,0,0,1-.175.912,3.174,3.174,0,0,1-.45.788l-13.7,18.25H228.4V0H209.325V-1.85a2.241,2.241,0,0,1,.163-.763,3.321,3.321,0,0,1,.462-.837l13.775-18.375H210.1v-3.5h18.8Zm15.45-2.3a11.3,11.3,0,0,1,4.2.763,9.427,9.427,0,0,1,3.325,2.2,10.03,10.03,0,0,1,2.188,3.55,13.715,13.715,0,0,1,.788,4.813,2.9,2.9,0,0,1-.225,1.4.934.934,0,0,1-.85.35h-16.85a13.982,13.982,0,0,0,.65,4.175,8.537,8.537,0,0,0,1.65,2.962,6.611,6.611,0,0,0,2.5,1.775,8.585,8.585,0,0,0,3.25.587,9.534,9.534,0,0,0,2.887-.387,13.738,13.738,0,0,0,2.087-.838,15.926,15.926,0,0,0,1.463-.838,1.939,1.939,0,0,1,1.012-.388.979.979,0,0,1,.85.425l1.25,1.625a8.453,8.453,0,0,1-1.975,1.738A12.3,12.3,0,0,1,250.088-.6a15.641,15.641,0,0,1-2.713.713A16.567,16.567,0,0,1,244.6.35a12.877,12.877,0,0,1-4.838-.888,10.617,10.617,0,0,1-3.825-2.6,11.928,11.928,0,0,1-2.512-4.237,17.231,17.231,0,0,1-.9-5.8,14.756,14.756,0,0,1,.813-4.95,11.667,11.667,0,0,1,2.337-3.988,10.761,10.761,0,0,1,3.725-2.65A12.228,12.228,0,0,1,244.35-25.725Zm.1,3.275a6.832,6.832,0,0,0-5.075,1.863,8.767,8.767,0,0,0-2.3,5.163H250.85a9.01,9.01,0,0,0-.425-2.837,6.323,6.323,0,0,0-1.25-2.225,5.6,5.6,0,0,0-2.012-1.45A6.787,6.787,0,0,0,244.45-22.45ZM270.175,0V-25.325h2.65a1.135,1.135,0,0,1,1.2.925l.325,2.6a12.992,12.992,0,0,1,3.137-2.825,7.386,7.386,0,0,1,4.038-1.1,6,6,0,0,1,4.163,1.425,8.016,8.016,0,0,1,2.288,3.85,7.926,7.926,0,0,1,1.387-2.375,8.06,8.06,0,0,1,1.938-1.65,8.206,8.206,0,0,1,2.288-.95,10.215,10.215,0,0,1,2.462-.3,9.365,9.365,0,0,1,3.563.638,7.053,7.053,0,0,1,2.65,1.862,8.3,8.3,0,0,1,1.663,3.013,13.34,13.34,0,0,1,.575,4.087V0h-4.45V-16.125a6.826,6.826,0,0,0-1.3-4.513,4.667,4.667,0,0,0-3.775-1.538,5.663,5.663,0,0,0-2.088.388,5.03,5.03,0,0,0-1.737,1.138,5.333,5.333,0,0,0-1.187,1.887,7.321,7.321,0,0,0-.437,2.638V0h-4.45V-16.125a7.1,7.1,0,0,0-1.225-4.55,4.347,4.347,0,0,0-3.575-1.5,5.649,5.649,0,0,0-3.062.888,10.026,10.026,0,0,0-2.587,2.412V0Zm59.65,0H327.85a2.357,2.357,0,0,1-1.05-.2,1.106,1.106,0,0,1-.525-.85l-.5-2.35q-1,.9-1.95,1.612a11.161,11.161,0,0,1-2,1.2,10.364,10.364,0,0,1-2.237.737A12.833,12.833,0,0,1,316.95.4a9,9,0,0,1-2.763-.413A6.3,6.3,0,0,1,311.95-1.25a5.892,5.892,0,0,1-1.513-2.087,7.3,7.3,0,0,1-.562-2.987,5.572,5.572,0,0,1,.825-2.887,7.25,7.25,0,0,1,2.663-2.463,17.345,17.345,0,0,1,4.813-1.763,36.664,36.664,0,0,1,7.275-.787V-16.2a6.817,6.817,0,0,0-1.263-4.462,4.591,4.591,0,0,0-3.737-1.513,7.923,7.923,0,0,0-2.737.413,10.362,10.362,0,0,0-1.925.925q-.812.513-1.4.925a2.019,2.019,0,0,1-1.163.413,1.334,1.334,0,0,1-.788-.237,1.809,1.809,0,0,1-.537-.588l-.8-1.425a14.462,14.462,0,0,1,4.525-3.025,13.971,13.971,0,0,1,5.375-1,9.591,9.591,0,0,1,3.775.7,7.742,7.742,0,0,1,2.775,1.95,8.258,8.258,0,0,1,1.7,3.025,12.6,12.6,0,0,1,.575,3.9Zm-11.55-2.725a9.085,9.085,0,0,0,2.15-.238,8.486,8.486,0,0,0,1.837-.675,9.738,9.738,0,0,0,1.65-1.062,14.3,14.3,0,0,0,1.538-1.425V-11.4a36.773,36.773,0,0,0-5.225.487,14.656,14.656,0,0,0-3.5,1.013,4.875,4.875,0,0,0-1.962,1.475,3.173,3.173,0,0,0-.612,1.9,4.193,4.193,0,0,0,.325,1.725,3.27,3.27,0,0,0,.875,1.188,3.454,3.454,0,0,0,1.3.675A5.941,5.941,0,0,0,318.275-2.725ZM355.175,0H353.2a2.357,2.357,0,0,1-1.05-.2,1.106,1.106,0,0,1-.525-.85l-.5-2.35q-1,.9-1.95,1.612a11.161,11.161,0,0,1-2,1.2,10.364,10.364,0,0,1-2.237.737A12.833,12.833,0,0,1,342.3.4a9,9,0,0,1-2.763-.413A6.3,6.3,0,0,1,337.3-1.25a5.892,5.892,0,0,1-1.513-2.087,7.3,7.3,0,0,1-.562-2.987,5.572,5.572,0,0,1,.825-2.887,7.25,7.25,0,0,1,2.663-2.463,17.345,17.345,0,0,1,4.813-1.763,36.664,36.664,0,0,1,7.275-.787V-16.2a6.817,6.817,0,0,0-1.263-4.462,4.591,4.591,0,0,0-3.737-1.513,7.923,7.923,0,0,0-2.737.413,10.362,10.362,0,0,0-1.925.925q-.812.513-1.4.925a2.019,2.019,0,0,1-1.163.413,1.334,1.334,0,0,1-.788-.237,1.809,1.809,0,0,1-.537-.588l-.8-1.425a14.462,14.462,0,0,1,4.525-3.025,13.971,13.971,0,0,1,5.375-1,9.591,9.591,0,0,1,3.775.7,7.742,7.742,0,0,1,2.775,1.95,8.258,8.258,0,0,1,1.7,3.025,12.6,12.6,0,0,1,.575,3.9Zm-11.55-2.725a9.085,9.085,0,0,0,2.15-.238,8.486,8.486,0,0,0,1.837-.675,9.738,9.738,0,0,0,1.65-1.062A14.3,14.3,0,0,0,350.8-6.125V-11.4a36.773,36.773,0,0,0-5.225.487,14.656,14.656,0,0,0-3.5,1.013,4.875,4.875,0,0,0-1.962,1.475,3.173,3.173,0,0,0-.612,1.9,4.193,4.193,0,0,0,.325,1.725,3.27,3.27,0,0,0,.875,1.188,3.454,3.454,0,0,0,1.3.675A5.941,5.941,0,0,0,343.625-2.725ZM369.6.4a6.105,6.105,0,0,1-4.613-1.675A6.684,6.684,0,0,1,363.375-6.1V-21.6h-3.05a1,1,0,0,1-.675-.237.923.923,0,0,1-.275-.738V-24.35l4.15-.525L364.55-32.7a.946.946,0,0,1,.325-.612,1.033,1.033,0,0,1,.7-.237h2.25v8.725h7.25V-21.6h-7.25V-6.4a3.233,3.233,0,0,0,.775,2.375,2.707,2.707,0,0,0,2,.775,3.531,3.531,0,0,0,1.212-.187,5.2,5.2,0,0,0,.887-.412q.375-.225.638-.412a.834.834,0,0,1,.462-.188.766.766,0,0,1,.625.425l1.3,2.125A8.291,8.291,0,0,1,372.95-.213,9.423,9.423,0,0,1,369.6.4Zm25.475-21.55a.986.986,0,0,1-.925.55,1.741,1.741,0,0,1-.85-.275q-.475-.275-1.163-.612a10.919,10.919,0,0,0-1.637-.625,7.811,7.811,0,0,0-2.25-.288,6.64,6.64,0,0,0-2.025.288,4.863,4.863,0,0,0-1.537.788,3.483,3.483,0,0,0-.975,1.162,3.121,3.121,0,0,0-.337,1.438,2.4,2.4,0,0,0,.563,1.625,4.888,4.888,0,0,0,1.487,1.125,12.967,12.967,0,0,0,2.1.838q1.175.362,2.413.775t2.412.913a8.754,8.754,0,0,1,2.1,1.25,5.717,5.717,0,0,1,1.488,1.837A5.624,5.624,0,0,1,396.5-7.75a8.273,8.273,0,0,1-.625,3.238,7.065,7.065,0,0,1-1.85,2.575,8.921,8.921,0,0,1-3,1.713,12.325,12.325,0,0,1-4.1.625,12.789,12.789,0,0,1-4.8-.863,12.163,12.163,0,0,1-3.65-2.212l1.05-1.7a1.525,1.525,0,0,1,.475-.5,1.334,1.334,0,0,1,.725-.175,1.675,1.675,0,0,1,.95.35q.5.35,1.212.775a9.33,9.33,0,0,0,1.725.775,7.862,7.862,0,0,0,2.538.35,6.956,6.956,0,0,0,2.275-.337,4.779,4.779,0,0,0,1.625-.913,3.614,3.614,0,0,0,.962-1.325,4.118,4.118,0,0,0,.313-1.6,2.654,2.654,0,0,0-.562-1.738,4.747,4.747,0,0,0-1.487-1.175,12.122,12.122,0,0,0-2.113-.85q-1.187-.363-2.425-.762t-2.425-.912A8.525,8.525,0,0,1,381.2-13.7a5.833,5.833,0,0,1-1.487-1.912,6.184,6.184,0,0,1-.562-2.763,6.738,6.738,0,0,1,.6-2.788,6.835,6.835,0,0,1,1.75-2.35,8.618,8.618,0,0,1,2.825-1.612,11.305,11.305,0,0,1,3.825-.6,12.1,12.1,0,0,1,4.487.788,10.62,10.62,0,0,1,3.438,2.163Zm24.475.325a1.987,1.987,0,0,1-.4.425.945.945,0,0,1-.575.15,1.428,1.428,0,0,1-.812-.312,11.84,11.84,0,0,0-1.113-.687,9.314,9.314,0,0,0-1.637-.687,7.728,7.728,0,0,0-2.363-.312,7.687,7.687,0,0,0-3.275.663,6.352,6.352,0,0,0-2.388,1.913,8.655,8.655,0,0,0-1.45,3.025,15.008,15.008,0,0,0-.488,3.975,14.522,14.522,0,0,0,.525,4.088,8.857,8.857,0,0,0,1.475,3,6.293,6.293,0,0,0,2.313,1.85,7.141,7.141,0,0,0,3.063.638,7.829,7.829,0,0,0,2.675-.388,8.15,8.15,0,0,0,1.75-.862A12.831,12.831,0,0,0,418-5.213a1.386,1.386,0,0,1,.9-.388.941.941,0,0,1,.85.425L421-3.55a9.621,9.621,0,0,1-4.125,2.963A14.626,14.626,0,0,1,411.65.35a11.063,11.063,0,0,1-4.413-.875A10.061,10.061,0,0,1,403.7-3.062a12.04,12.04,0,0,1-2.363-4.088,16.433,16.433,0,0,1-.862-5.525,16.671,16.671,0,0,1,.788-5.225,11.838,11.838,0,0,1,2.3-4.138A10.424,10.424,0,0,1,407.3-24.75a12.6,12.6,0,0,1,5.1-.975,12.03,12.03,0,0,1,4.7.863,11.249,11.249,0,0,1,3.625,2.437ZM425.625,0V-36.825h4.45v14.9a13.665,13.665,0,0,1,3.6-2.763,9.641,9.641,0,0,1,4.55-1.038,9.144,9.144,0,0,1,3.663.688,7.086,7.086,0,0,1,2.65,1.95,8.612,8.612,0,0,1,1.612,3.038,13.219,13.219,0,0,1,.55,3.925V0h-4.45V-16.125a6.816,6.816,0,0,0-1.312-4.462,4.907,4.907,0,0,0-4.012-1.588,7.48,7.48,0,0,0-3.687.95,12.143,12.143,0,0,0-3.163,2.575V0Zm46.4,0H470.05A2.357,2.357,0,0,1,469-.2a1.106,1.106,0,0,1-.525-.85l-.5-2.35q-1,.9-1.95,1.612a11.161,11.161,0,0,1-2,1.2,10.364,10.364,0,0,1-2.237.737A12.833,12.833,0,0,1,459.15.4a9,9,0,0,1-2.763-.413A6.3,6.3,0,0,1,454.15-1.25a5.892,5.892,0,0,1-1.513-2.087,7.3,7.3,0,0,1-.562-2.987,5.572,5.572,0,0,1,.825-2.887,7.25,7.25,0,0,1,2.663-2.463,17.345,17.345,0,0,1,4.813-1.763,36.664,36.664,0,0,1,7.275-.787V-16.2a6.817,6.817,0,0,0-1.263-4.462,4.591,4.591,0,0,0-3.737-1.513,7.923,7.923,0,0,0-2.737.413,10.362,10.362,0,0,0-1.925.925q-.812.513-1.4.925a2.019,2.019,0,0,1-1.163.413,1.334,1.334,0,0,1-.788-.237,1.809,1.809,0,0,1-.537-.588l-.8-1.425a14.462,14.462,0,0,1,4.525-3.025,13.971,13.971,0,0,1,5.375-1,9.591,9.591,0,0,1,3.775.7,7.742,7.742,0,0,1,2.775,1.95,8.258,8.258,0,0,1,1.7,3.025,12.6,12.6,0,0,1,.575,3.9Zm-11.55-2.725a9.085,9.085,0,0,0,2.15-.238,8.486,8.486,0,0,0,1.837-.675,9.738,9.738,0,0,0,1.65-1.062,14.3,14.3,0,0,0,1.538-1.425V-11.4a36.773,36.773,0,0,0-5.225.487,14.656,14.656,0,0,0-3.5,1.013,4.875,4.875,0,0,0-1.962,1.475,3.173,3.173,0,0,0-.612,1.9,4.193,4.193,0,0,0,.325,1.725,3.27,3.27,0,0,0,.875,1.188,3.454,3.454,0,0,0,1.3.675A5.941,5.941,0,0,0,460.475-2.725Zm18.3,11.3v-33.9h2.65a1.135,1.135,0,0,1,1.2.925l.375,3a13.521,13.521,0,0,1,3.712-3.175,9.483,9.483,0,0,1,4.813-1.2,9.141,9.141,0,0,1,3.95.837,8.144,8.144,0,0,1,3.025,2.475,11.869,11.869,0,0,1,1.925,4.063,20.85,20.85,0,0,1,.675,5.575,17.474,17.474,0,0,1-.75,5.213,12.694,12.694,0,0,1-2.15,4.175,10.04,10.04,0,0,1-3.437,2.775A10.168,10.168,0,0,1,490.175.35a9.442,9.442,0,0,1-4.012-.775,9.042,9.042,0,0,1-2.937-2.2v11.2Zm11.275-30.75a7.168,7.168,0,0,0-3.812,1,10.99,10.99,0,0,0-3.012,2.825V-6.1a7.156,7.156,0,0,0,2.688,2.325,7.694,7.694,0,0,0,3.262.675A6.384,6.384,0,0,0,494.6-5.625q1.9-2.525,1.9-7.2a17.966,17.966,0,0,0-.437-4.25,8.31,8.31,0,0,0-1.263-2.912,4.912,4.912,0,0,0-2.025-1.663A6.735,6.735,0,0,0,490.05-22.175Zm16.325,30.75v-33.9h2.65a1.135,1.135,0,0,1,1.2.925l.375,3a13.521,13.521,0,0,1,3.713-3.175,9.483,9.483,0,0,1,4.813-1.2,9.141,9.141,0,0,1,3.95.837,8.144,8.144,0,0,1,3.025,2.475,11.87,11.87,0,0,1,1.925,4.063,20.85,20.85,0,0,1,.675,5.575,17.474,17.474,0,0,1-.75,5.213,12.694,12.694,0,0,1-2.15,4.175,10.04,10.04,0,0,1-3.437,2.775A10.168,10.168,0,0,1,517.775.35a9.442,9.442,0,0,1-4.013-.775,9.042,9.042,0,0,1-2.937-2.2v11.2Zm11.275-30.75a7.168,7.168,0,0,0-3.812,1,10.99,10.99,0,0,0-3.012,2.825V-6.1a7.156,7.156,0,0,0,2.687,2.325,7.694,7.694,0,0,0,3.263.675A6.384,6.384,0,0,0,522.2-5.625q1.9-2.525,1.9-7.2a17.964,17.964,0,0,0-.437-4.25,8.311,8.311,0,0,0-1.263-2.912,4.912,4.912,0,0,0-2.025-1.663A6.736,6.736,0,0,0,517.65-22.175Zm21.275-3.15V0h-4.45V-25.325Zm1-7.95a2.832,2.832,0,0,1-.262,1.212,3.491,3.491,0,0,1-.7,1,3.252,3.252,0,0,1-1.013.687,3.039,3.039,0,0,1-1.225.25,2.951,2.951,0,0,1-1.213-.25,3.3,3.3,0,0,1-1-.687,3.3,3.3,0,0,1-.687-1,2.951,2.951,0,0,1-.25-1.212,3.128,3.128,0,0,1,.25-1.238,3.213,3.213,0,0,1,.688-1.025,3.3,3.3,0,0,1,1-.687,2.951,2.951,0,0,1,1.213-.25,3.039,3.039,0,0,1,1.225.25,3.252,3.252,0,0,1,1.013.688,3.39,3.39,0,0,1,.7,1.025A3,3,0,0,1,539.925-33.275Zm11.8,7.95v27.2a9.69,9.69,0,0,1-.4,2.837A6.079,6.079,0,0,1,550.063,7a5.937,5.937,0,0,1-2.225,1.538,8.533,8.533,0,0,1-3.263.562,8.267,8.267,0,0,1-1.5-.125,8.164,8.164,0,0,1-1.35-.375l.2-2.4a.511.511,0,0,1,.225-.412,1.3,1.3,0,0,1,.55-.088q.2,0,.425.012t.55.013a3.6,3.6,0,0,0,2.775-.912,4.311,4.311,0,0,0,.825-2.937v-27.2Zm1-7.95a2.832,2.832,0,0,1-.262,1.212,3.491,3.491,0,0,1-.7,1,3.252,3.252,0,0,1-1.013.687,3.039,3.039,0,0,1-1.225.25,2.951,2.951,0,0,1-1.213-.25,3.3,3.3,0,0,1-1-.687,3.3,3.3,0,0,1-.687-1,2.951,2.951,0,0,1-.25-1.212,3.128,3.128,0,0,1,.25-1.238,3.213,3.213,0,0,1,.688-1.025,3.3,3.3,0,0,1,1-.687,2.951,2.951,0,0,1,1.213-.25,3.039,3.039,0,0,1,1.225.25,3.252,3.252,0,0,1,1.013.688,3.39,3.39,0,0,1,.7,1.025A3,3,0,0,1,552.725-33.275Z" transform="translate(961 901)"/>
  </g>
</svg>
