<svg xmlns="http://www.w3.org/2000/svg" width="1378.19" height="202.245" viewBox="0 0 1378.19 202.245">
  <g id="Group_120" data-name="Group 120" transform="translate(-270.631 -692.88)">
    <path id="Path_191" data-name="Path 191" d="M-599.676-76.835V-78.65h-36.9v1.815l10.89,7.26v24.2h-36.663v-24.2l10.89-7.26V-78.65h-36.905v1.815l10.89,7.26V-8.712l-.6.6h-9.075V0h34.485V-8.107h-9.075l-.6-.6V-36.905h36.663V-8.712l-.6.6h-9.075V0h34.485V-8.107h-9.075l-.605-.6V-69.575Zm36.663,69.817c-9.922,0-15.488-7.139-16.335-18.755h30.008a32.784,32.784,0,0,0,.6-6.534c0-11.979-7.623-20.328-19.965-20.328-14.883,0-25.531,12.221-25.531,27.83C-594.231-8.954-583.1,1.21-568.7,1.21a31.135,31.135,0,0,0,19.481-7.018l-2.3-4.235A25.883,25.883,0,0,1-563.013-7.018Zm-7.381-38.6c4.961,0,7.986,3.388,8.228,13.552h-17.182C-578.864-40.9-575.718-45.617-570.394-45.617Zm47.8,37.268V-86.273l-1.694-.847-19.965,9.68v1.452l7.744,4.84v62.8l-.6.6h-5.445V0h26.015V-7.744h-5.445Zm31.218.6-16.335-22.99L-486.3-50.457v-.968H-513.04v1.089l6.9,6.776L-521.631-27.1-503,0h19.118V-7.744Zm31.1,8.954c12.463,0,19.723-5.929,19.723-15.73,0-7.139-4.356-11.5-13.673-16.214C-460.768-34-465.85-36.421-465.85-40.9c0-2.541,1.936-4.719,5.687-4.719a11.211,11.211,0,0,1,7.623,3.509l7.018,8.349h1.573V-50.094a39.375,39.375,0,0,0-14.278-2.541c-12.1,0-20.086,5.445-20.086,14.641,0,7.381,3.751,11.616,12.947,16.94,6.05,3.509,12.342,5.082,12.342,10.164,0,2.783-1.815,5.082-6.292,5.082-3.993,0-7.865-2.42-10.89-6.171l-6.655-8.228h-1.573V-2.783A47.588,47.588,0,0,0-460.284,1.21Zm56.87-8.228c-9.922,0-15.488-7.139-16.335-18.755h30.008a32.784,32.784,0,0,0,.605-6.534c0-11.979-7.623-20.328-19.965-20.328-14.883,0-25.531,12.221-25.531,27.83C-434.632-8.954-423.5,1.21-409.1,1.21A31.135,31.135,0,0,0-389.62-5.808l-2.3-4.235A25.883,25.883,0,0,1-403.414-7.018Zm-7.381-38.6c4.961,0,7.986,3.388,8.228,13.552h-17.182C-419.265-40.9-416.119-45.617-410.8-45.617ZM-329.12-7.623l-.605-.726V-38.478c0-9.922-6.05-14.157-14.641-14.157-6.534,0-11.616,2.541-18.755,7.26l-1.452-7.139-1.573-.847-18.15,9.317v1.573l7.744,4.719v29.4l-.6.6H-382.6V0h26.015V-7.744h-5.445l-.605-.6V-40.777a37.37,37.37,0,0,1,9.317-1.452c6.9,0,9.68,2.662,9.68,12.342V-8.349l-.605.6h-5.445V0h26.015V-7.623Zm32.065,8.833h5.566l20.933-43.681,7.381-6.776V-50.82H-285.8v1.694l6.776,6.655-11.979,26.015h-.363L-302.5-42.471l6.776-6.776V-50.82h-29.282v1.694l7.381,6.655Zm64.493-8.228c-9.922,0-15.488-7.139-16.335-18.755h30.008a32.784,32.784,0,0,0,.605-6.534c0-11.979-7.623-20.328-19.965-20.328-14.883,0-25.531,12.221-25.531,27.83,0,15.851,11.132,26.015,25.531,26.015a31.135,31.135,0,0,0,19.481-7.018l-2.3-4.235A25.883,25.883,0,0,1-232.562-7.018Zm-7.381-38.6c4.961,0,7.986,3.388,8.228,13.552H-248.9C-248.413-40.9-245.267-45.617-239.943-45.617Zm52.151,7.139a55.049,55.049,0,0,1,15.125,2.057V-52.03a8.588,8.588,0,0,0-3.509-.6c-4.6,0-10.043,3.509-15.972,8.954l-1.573-8.712-1.573-.847-18.15,9.317v1.573l7.744,4.719V-8.349l-.605.6h-5.445V0h27.83V-7.744h-7.26l-.6-.6V-38.236C-190.454-38.357-189.123-38.478-187.792-38.478Zm72.963,30.734-.605-.6V-38.478c0-9.922-6.05-14.157-14.641-14.157-6.413,0-11.374,2.541-18.271,7.018V-86.273l-1.694-.847-19.965,9.68v1.452l7.744,4.84v62.8l-.6.6h-5.445V0H-142.3V-7.744h-5.445l-.605-.6V-40.777a37.37,37.37,0,0,1,9.317-1.452c6.9,0,9.68,2.662,9.68,12.342V-8.349l-.605.6H-135.4V0h26.015V-7.744Zm52.393,0-.6-.6v-23.6c0-13.431-5.082-20.691-17.787-20.691-8.228,0-15,3.025-20.933,8.954l2.3,4.6c4.356-2.783,8.47-4.477,12.705-4.477,7.018,0,9.8,4.235,9.8,12.463v2.178c-20.933,2.178-26.983,9.2-26.983,18.271,0,8.954,6.171,11.979,11.979,11.979,4.961,0,10.043-2.178,15-5.566V0h19.965V-7.744Zm-21.054.363c-4.114,0-7.018-2.057-6.9-6.655.121-5.445,3.993-8.107,13.431-8.954V-8.47A26.326,26.326,0,0,1-83.49-7.381ZM-51.546,0h26.015V-7.744h-5.445l-.6-.6V-86.273l-1.694-.847L-53.24-77.44v1.452l7.744,4.84v62.8l-.6.6h-5.445ZM12.1-7.018c-9.922,0-15.488-7.139-16.335-18.755H25.773a32.785,32.785,0,0,0,.6-6.534c0-11.979-7.623-20.328-19.965-20.328-14.883,0-25.531,12.221-25.531,27.83C-19.118-8.954-7.986,1.21,6.413,1.21A31.135,31.135,0,0,0,25.894-5.808l-2.3-4.235A25.883,25.883,0,0,1,12.1-7.018Zm-7.381-38.6c4.961,0,7.986,3.388,8.228,13.552H-4.235C-3.751-40.9-.6-45.617,4.719-45.617ZM86.394-7.623l-.6-.726V-38.478c0-9.922-6.05-14.157-14.641-14.157-6.534,0-11.616,2.541-18.755,7.26l-1.452-7.139-1.573-.847-18.15,9.317v1.573l7.744,4.719v29.4l-.6.6H32.912V0H58.927V-7.744H53.482l-.605-.6V-40.777a37.37,37.37,0,0,1,9.317-1.452c6.9,0,9.68,2.662,9.68,12.342V-8.349l-.605.6H65.824V0H91.839V-7.623Zm59.29,8.833c15.367,0,26.378-11.132,26.378-27.588s-10.769-26.257-24.926-26.257c-15.73,0-26.378,12.221-26.378,28.193C120.758-8.954,130.922,1.21,145.684,1.21Zm2.42-7.139c-7.26,0-12.584-9.68-12.584-23.474,0-9.922,3.509-15.73,9.2-15.73,7.26,0,12.584,9.68,12.584,23.474C157.3-11.737,153.791-5.929,148.1-5.929Zm84.579-1.694-.6-.726V-38.478c0-9.922-6.05-14.157-14.641-14.157-6.534,0-11.616,2.541-18.755,7.26l-1.452-7.139-1.573-.847-18.15,9.317v1.573l7.744,4.719v29.4l-.605.6H179.2V0h26.015V-7.744h-5.445l-.6-.6V-40.777a37.37,37.37,0,0,1,9.317-1.452c6.9,0,9.68,2.662,9.68,12.342V-8.349l-.605.6h-5.445V0h26.015V-7.623Zm29.4,8.833a28.556,28.556,0,0,0,18.15-7.018l-2.3-4.235a21.137,21.137,0,0,1-8.954,2.662c-4.84,0-6.655-3.388-6.655-13.068V-43.076h16.093V-50.82H262.328v-14.4h-1.573l-19.723,20.57v1.573h6.776l.6.6v27.83C248.413-3.025,253.374,1.21,262.086,1.21Zm106.6-8.954-.605-.6V-37.873c0-9.075-4.84-14.762-14.157-14.762-6.776,0-11.616,3.025-18.755,7.744-2.057-4.84-6.413-7.744-13.068-7.744-6.171,0-11.132,2.783-17.908,7.26l-1.452-7.139-1.573-.847-18.15,9.317v1.573l7.744,4.719v29.4l-.6.6h-5.445V0h26.015V-7.744h-5.445l-.605-.6V-40.777a38.154,38.154,0,0,1,10.164-1.452c5.324,0,7.744,3.025,7.744,12.342V-8.349l-.6.6h-5.445V0h26.015V-7.744h-5.445l-.605-.6V-37.631a29.745,29.745,0,0,0-.242-3.388l.121.242a38.154,38.154,0,0,1,10.164-1.452c5.2,0,7.623,3.025,7.623,12.342V-8.349l-.605.6h-5.445V0h26.015V-7.744Zm52.393,0-.6-.6v-23.6c0-13.431-5.082-20.691-17.787-20.691-8.228,0-15,3.025-20.933,8.954l2.3,4.6c4.356-2.783,8.47-4.477,12.705-4.477,7.018,0,9.8,4.235,9.8,12.463v2.178c-20.933,2.178-26.983,9.2-26.983,18.271,0,8.954,6.171,11.979,11.979,11.979,4.961,0,10.043-2.178,15-5.566V0h19.965V-7.744Zm-21.054.363c-4.114,0-7.018-2.057-6.9-6.655.121-5.445,3.993-8.107,13.431-8.954V-8.47A26.326,26.326,0,0,1,400.026-7.381ZM451.814,1.21c12.463,0,19.723-5.929,19.723-15.73,0-7.139-4.356-11.5-13.673-16.214C451.33-34,446.248-36.421,446.248-40.9c0-2.541,1.936-4.719,5.687-4.719a11.211,11.211,0,0,1,7.623,3.509l7.018,8.349h1.573V-50.094a39.375,39.375,0,0,0-14.278-2.541c-12.1,0-20.086,5.445-20.086,14.641,0,7.381,3.751,11.616,12.947,16.94,6.05,3.509,12.342,5.082,12.342,10.164,0,2.783-1.815,5.082-6.292,5.082-3.993,0-7.865-2.42-10.89-6.171l-6.655-8.228h-1.573V-2.783A47.588,47.588,0,0,0,451.814,1.21Zm45.133-9.559V-86.273l-1.694-.847-19.965,9.68v1.452l7.744,4.84v62.8l-.605.6h-5.445V0H503V-7.744h-5.445Zm31.218.6L511.83-30.734l21.417-19.723v-.968H506.506v1.089l6.9,6.776L497.915-27.1,516.549,0h19.118V-7.744Zm41.14.726c-9.922,0-15.488-7.139-16.335-18.755h30.008a32.784,32.784,0,0,0,.6-6.534c0-11.979-7.623-20.328-19.965-20.328-14.883,0-25.531,12.221-25.531,27.83,0,15.851,11.132,26.015,25.531,26.015A31.135,31.135,0,0,0,583.1-5.808l-2.3-4.235A25.883,25.883,0,0,1,569.305-7.018Zm-7.381-38.6c4.961,0,7.986,3.388,8.228,13.552H552.97C553.454-40.9,556.6-45.617,561.924-45.617Zm52.151,7.139A55.049,55.049,0,0,1,629.2-36.421V-52.03a8.587,8.587,0,0,0-3.509-.6c-4.6,0-10.043,3.509-15.972,8.954l-1.573-8.712-1.573-.847-18.15,9.317v1.573l7.744,4.719V-8.349l-.605.6h-5.445V0h27.83V-7.744h-7.26l-.6-.6V-38.236C611.413-38.357,612.744-38.478,614.075-38.478Zm70.3,30.734-.6-.6V-86.273L682.2-87.12l-20.086,9.68v1.452l7.744,4.84V-50.82a21.7,21.7,0,0,0-9.075-1.815c-15.246,0-26.136,12.463-26.136,29.04,0,13.673,7.139,24.8,18.755,24.8,6.171,0,10.648-3.146,16.456-7.5V0h19.965V-7.744ZM662.233-9.2c-8.107,0-12.826-6.171-12.826-18.271,0-11.374,3.872-17.908,11.011-17.908,3.993,0,7.018,2.057,9.438,6.292v28.8A31.192,31.192,0,0,1,662.233-9.2Z" transform="translate(959 780)"/>
    <path id="Path_192" data-name="Path 192" d="M-565.875-17.9a20.678,20.678,0,0,1-1.275,7.387,16.918,16.918,0,0,1-3.6,5.787,16.09,16.09,0,0,1-5.588,3.762A18.842,18.842,0,0,1-583.55.375a18.748,18.748,0,0,1-7.2-1.337,16.116,16.116,0,0,1-5.575-3.762,16.918,16.918,0,0,1-3.6-5.787A20.678,20.678,0,0,1-601.2-17.9a20.678,20.678,0,0,1,1.275-7.388,17.052,17.052,0,0,1,3.6-5.8,16.177,16.177,0,0,1,5.575-3.788,18.6,18.6,0,0,1,7.2-1.35,18.688,18.688,0,0,1,7.212,1.35,16.15,16.15,0,0,1,5.588,3.788,17.052,17.052,0,0,1,3.6,5.8A20.678,20.678,0,0,1-565.875-17.9Zm-4.975,0a18.206,18.206,0,0,0-.9-5.925,12.533,12.533,0,0,0-2.55-4.437,11.066,11.066,0,0,0-4-2.788,13.579,13.579,0,0,0-5.25-.975,13.511,13.511,0,0,0-5.225.975,11.185,11.185,0,0,0-4.012,2.788,12.43,12.43,0,0,0-2.562,4.437,18.206,18.206,0,0,0-.9,5.925,18.092,18.092,0,0,0,.9,5.912,12.446,12.446,0,0,0,2.563,4.425,11.052,11.052,0,0,0,4.012,2.775,13.665,13.665,0,0,0,5.225.963,13.735,13.735,0,0,0,5.25-.963,10.935,10.935,0,0,0,4-2.775,12.549,12.549,0,0,0,2.55-4.425A18.092,18.092,0,0,0-570.85-17.9ZM-559.95,0V-25.325h2.65a1.135,1.135,0,0,1,1.2.925l.35,2.75a14.234,14.234,0,0,1,3.688-2.95,9.591,9.591,0,0,1,4.713-1.125,9.144,9.144,0,0,1,3.662.688,7.086,7.086,0,0,1,2.65,1.95,8.612,8.612,0,0,1,1.612,3.038,13.22,13.22,0,0,1,.55,3.925V0h-4.45V-16.125a6.816,6.816,0,0,0-1.312-4.462,4.907,4.907,0,0,0-4.013-1.588,7.48,7.48,0,0,0-3.687.95A12.144,12.144,0,0,0-555.5-18.65V0Zm35.475.4a6.105,6.105,0,0,1-4.612-1.675A6.684,6.684,0,0,1-530.7-6.1V-21.6h-3.05a1,1,0,0,1-.675-.237.923.923,0,0,1-.275-.738V-24.35l4.15-.525,1.025-7.825a.946.946,0,0,1,.325-.612,1.033,1.033,0,0,1,.7-.237h2.25v8.725H-519V-21.6h-7.25V-6.4a3.233,3.233,0,0,0,.775,2.375,2.707,2.707,0,0,0,2,.775,3.53,3.53,0,0,0,1.212-.187,5.2,5.2,0,0,0,.888-.412q.375-.225.638-.412a.834.834,0,0,1,.463-.188.766.766,0,0,1,.625.425l1.3,2.125a8.291,8.291,0,0,1-2.775,1.687A9.423,9.423,0,0,1-524.475.4Zm15.925-37.225V0H-513V-36.825Zm17.875,11.1a11.3,11.3,0,0,1,4.2.763,9.428,9.428,0,0,1,3.325,2.2,10.03,10.03,0,0,1,2.188,3.55,13.715,13.715,0,0,1,.787,4.813A2.9,2.9,0,0,1-480.4-13a.934.934,0,0,1-.85.35H-498.1a13.981,13.981,0,0,0,.65,4.175,8.537,8.537,0,0,0,1.65,2.962,6.611,6.611,0,0,0,2.5,1.775,8.586,8.586,0,0,0,3.25.587,9.534,9.534,0,0,0,2.888-.387,13.739,13.739,0,0,0,2.087-.838,15.921,15.921,0,0,0,1.462-.838A1.939,1.939,0,0,1-482.6-5.6a.979.979,0,0,1,.85.425l1.25,1.625a8.453,8.453,0,0,1-1.975,1.738A12.3,12.3,0,0,1-484.937-.6a15.641,15.641,0,0,1-2.712.713,16.568,16.568,0,0,1-2.775.238,12.877,12.877,0,0,1-4.837-.888,10.617,10.617,0,0,1-3.825-2.6A11.928,11.928,0,0,1-501.6-7.375a17.231,17.231,0,0,1-.9-5.8,14.757,14.757,0,0,1,.813-4.95,11.667,11.667,0,0,1,2.337-3.988,10.761,10.761,0,0,1,3.725-2.65A12.228,12.228,0,0,1-490.675-25.725Zm.1,3.275a6.832,6.832,0,0,0-5.075,1.863,8.767,8.767,0,0,0-2.3,5.163h13.775a9.011,9.011,0,0,0-.425-2.837,6.322,6.322,0,0,0-1.25-2.225,5.6,5.6,0,0,0-2.013-1.45A6.787,6.787,0,0,0-490.575-22.45Zm26.1-3.275a11.3,11.3,0,0,1,4.2.763,9.428,9.428,0,0,1,3.325,2.2,10.03,10.03,0,0,1,2.188,3.55,13.715,13.715,0,0,1,.787,4.813A2.9,2.9,0,0,1-454.2-13a.934.934,0,0,1-.85.35H-471.9a13.981,13.981,0,0,0,.65,4.175,8.537,8.537,0,0,0,1.65,2.962,6.611,6.611,0,0,0,2.5,1.775,8.586,8.586,0,0,0,3.25.587,9.534,9.534,0,0,0,2.888-.387,13.739,13.739,0,0,0,2.087-.838,15.921,15.921,0,0,0,1.462-.838A1.939,1.939,0,0,1-456.4-5.6a.979.979,0,0,1,.85.425l1.25,1.625a8.453,8.453,0,0,1-1.975,1.738A12.3,12.3,0,0,1-458.737-.6a15.641,15.641,0,0,1-2.712.713,16.568,16.568,0,0,1-2.775.238,12.877,12.877,0,0,1-4.837-.888,10.617,10.617,0,0,1-3.825-2.6A11.928,11.928,0,0,1-475.4-7.375a17.231,17.231,0,0,1-.9-5.8,14.757,14.757,0,0,1,.813-4.95,11.667,11.667,0,0,1,2.337-3.988,10.761,10.761,0,0,1,3.725-2.65A12.228,12.228,0,0,1-464.475-25.725Zm.1,3.275a6.832,6.832,0,0,0-5.075,1.863,8.767,8.767,0,0,0-2.3,5.163h13.775a9.011,9.011,0,0,0-.425-2.837,6.322,6.322,0,0,0-1.25-2.225,5.6,5.6,0,0,0-2.013-1.45A6.787,6.787,0,0,0-464.375-22.45ZM-430.475,0a1.135,1.135,0,0,1-1.2-.925l-.4-3.075a13.331,13.331,0,0,1-3.712,3.162A9.511,9.511,0,0,1-440.575.35a9.142,9.142,0,0,1-3.95-.838A8.191,8.191,0,0,1-447.55-2.95,11.729,11.729,0,0,1-449.475-7a20.85,20.85,0,0,1-.675-5.575,17.474,17.474,0,0,1,.75-5.212,12.7,12.7,0,0,1,2.163-4.187,10.136,10.136,0,0,1,3.438-2.787,10.147,10.147,0,0,1,4.6-1.013,9.164,9.164,0,0,1,3.975.788,9.531,9.531,0,0,1,2.95,2.212v-14.05h4.45V0ZM-439.1-3.25a7.168,7.168,0,0,0,3.813-1,10.99,10.99,0,0,0,3.012-2.825v-12.25a7.041,7.041,0,0,0-2.687-2.312A7.756,7.756,0,0,0-438.2-22.3a6.41,6.41,0,0,0-5.45,2.525q-1.9,2.525-1.9,7.2a18.307,18.307,0,0,0,.425,4.238,8.153,8.153,0,0,0,1.25,2.9,4.912,4.912,0,0,0,2.025,1.663A6.8,6.8,0,0,0-439.1-3.25ZM-410.7,0V-36.825h4.45v14.9a13.665,13.665,0,0,1,3.6-2.763,9.641,9.641,0,0,1,4.55-1.038,9.144,9.144,0,0,1,3.663.688,7.086,7.086,0,0,1,2.65,1.95,8.612,8.612,0,0,1,1.612,3.038,13.219,13.219,0,0,1,.55,3.925V0h-4.45V-16.125a6.816,6.816,0,0,0-1.312-4.462,4.907,4.907,0,0,0-4.012-1.588,7.48,7.48,0,0,0-3.687.95,12.143,12.143,0,0,0-3.163,2.575V0Zm37.825-25.725a11.3,11.3,0,0,1,4.2.763,9.428,9.428,0,0,1,3.325,2.2,10.03,10.03,0,0,1,2.188,3.55,13.715,13.715,0,0,1,.787,4.813A2.9,2.9,0,0,1-362.6-13a.934.934,0,0,1-.85.35H-380.3a13.981,13.981,0,0,0,.65,4.175A8.537,8.537,0,0,0-378-5.513a6.611,6.611,0,0,0,2.5,1.775,8.586,8.586,0,0,0,3.25.587,9.534,9.534,0,0,0,2.888-.387,13.739,13.739,0,0,0,2.087-.838,15.921,15.921,0,0,0,1.462-.838A1.939,1.939,0,0,1-364.8-5.6a.979.979,0,0,1,.85.425l1.25,1.625a8.453,8.453,0,0,1-1.975,1.738A12.3,12.3,0,0,1-367.137-.6a15.641,15.641,0,0,1-2.712.713,16.568,16.568,0,0,1-2.775.238,12.877,12.877,0,0,1-4.837-.888,10.617,10.617,0,0,1-3.825-2.6A11.928,11.928,0,0,1-383.8-7.375a17.231,17.231,0,0,1-.9-5.8,14.757,14.757,0,0,1,.813-4.95,11.667,11.667,0,0,1,2.337-3.988,10.761,10.761,0,0,1,3.725-2.65A12.228,12.228,0,0,1-372.875-25.725Zm.1,3.275a6.832,6.832,0,0,0-5.075,1.863,8.767,8.767,0,0,0-2.3,5.163h13.775a9.011,9.011,0,0,0-.425-2.837,6.322,6.322,0,0,0-1.25-2.225,5.6,5.6,0,0,0-2.013-1.45A6.787,6.787,0,0,0-372.775-22.45ZM-349.025.4a6.105,6.105,0,0,1-4.613-1.675A6.684,6.684,0,0,1-355.25-6.1V-21.6h-3.05a1,1,0,0,1-.675-.237.923.923,0,0,1-.275-.738V-24.35l4.15-.525,1.025-7.825a.946.946,0,0,1,.325-.612,1.033,1.033,0,0,1,.7-.237h2.25v8.725h7.25V-21.6h-7.25V-6.4a3.233,3.233,0,0,0,.775,2.375,2.707,2.707,0,0,0,2,.775,3.531,3.531,0,0,0,1.212-.187,5.2,5.2,0,0,0,.887-.412q.375-.225.638-.412a.834.834,0,0,1,.462-.188.766.766,0,0,1,.625.425l1.3,2.125a8.291,8.291,0,0,1-2.775,1.687A9.423,9.423,0,0,1-349.025.4ZM-328.4,0V-25.325h2.65a1.135,1.135,0,0,1,1.2.925l.325,2.6a12.992,12.992,0,0,1,3.137-2.825,7.386,7.386,0,0,1,4.038-1.1,6,6,0,0,1,4.163,1.425,8.016,8.016,0,0,1,2.288,3.85,7.926,7.926,0,0,1,1.387-2.375,8.06,8.06,0,0,1,1.938-1.65,8.206,8.206,0,0,1,2.288-.95,10.215,10.215,0,0,1,2.462-.3,9.365,9.365,0,0,1,3.563.638,7.053,7.053,0,0,1,2.65,1.862,8.3,8.3,0,0,1,1.663,3.013,13.34,13.34,0,0,1,.575,4.087V0h-4.45V-16.125a6.826,6.826,0,0,0-1.3-4.513,4.667,4.667,0,0,0-3.775-1.538,5.663,5.663,0,0,0-2.088.388,5.03,5.03,0,0,0-1.737,1.138,5.333,5.333,0,0,0-1.187,1.887,7.321,7.321,0,0,0-.437,2.638V0h-4.45V-16.125a7.1,7.1,0,0,0-1.225-4.55,4.347,4.347,0,0,0-3.575-1.5,5.649,5.649,0,0,0-3.062.888,10.026,10.026,0,0,0-2.587,2.412V0Zm51.075-25.725a11.3,11.3,0,0,1,4.2.763,9.428,9.428,0,0,1,3.325,2.2,10.03,10.03,0,0,1,2.188,3.55,13.715,13.715,0,0,1,.787,4.813,2.9,2.9,0,0,1-.225,1.4.934.934,0,0,1-.85.35h-16.85a13.981,13.981,0,0,0,.65,4.175,8.537,8.537,0,0,0,1.65,2.962,6.611,6.611,0,0,0,2.5,1.775,8.586,8.586,0,0,0,3.25.587,9.534,9.534,0,0,0,2.888-.387,13.739,13.739,0,0,0,2.087-.838,15.921,15.921,0,0,0,1.462-.838A1.939,1.939,0,0,1-269.25-5.6a.979.979,0,0,1,.85.425l1.25,1.625a8.453,8.453,0,0,1-1.975,1.738A12.3,12.3,0,0,1-271.587-.6,15.641,15.641,0,0,1-274.3.112a16.568,16.568,0,0,1-2.775.238,12.877,12.877,0,0,1-4.837-.888,10.617,10.617,0,0,1-3.825-2.6,11.928,11.928,0,0,1-2.513-4.237,17.231,17.231,0,0,1-.9-5.8,14.757,14.757,0,0,1,.813-4.95A11.667,11.667,0,0,1-286-22.113a10.761,10.761,0,0,1,3.725-2.65A12.228,12.228,0,0,1-277.325-25.725Zm.1,3.275a6.832,6.832,0,0,0-5.075,1.863,8.767,8.767,0,0,0-2.3,5.163h13.775a9.011,9.011,0,0,0-.425-2.837,6.322,6.322,0,0,0-1.25-2.225,5.6,5.6,0,0,0-2.013-1.45A6.787,6.787,0,0,0-277.225-22.45Zm33.35,1.625a1.986,1.986,0,0,1-.4.425.945.945,0,0,1-.575.15,1.428,1.428,0,0,1-.812-.312,11.843,11.843,0,0,0-1.113-.687,9.314,9.314,0,0,0-1.637-.687,7.728,7.728,0,0,0-2.363-.312,7.687,7.687,0,0,0-3.275.663,6.352,6.352,0,0,0-2.388,1.913,8.655,8.655,0,0,0-1.45,3.025,15.008,15.008,0,0,0-.488,3.975,14.522,14.522,0,0,0,.525,4.088,8.857,8.857,0,0,0,1.475,3,6.293,6.293,0,0,0,2.313,1.85A7.141,7.141,0,0,0-251-3.1a7.829,7.829,0,0,0,2.675-.388,8.15,8.15,0,0,0,1.75-.862,12.827,12.827,0,0,0,1.15-.863,1.386,1.386,0,0,1,.9-.388.941.941,0,0,1,.85.425l1.25,1.625A9.621,9.621,0,0,1-246.55-.587a14.626,14.626,0,0,1-5.225.938,11.063,11.063,0,0,1-4.413-.875,10.061,10.061,0,0,1-3.537-2.538,12.04,12.04,0,0,1-2.363-4.088,16.433,16.433,0,0,1-.862-5.525,16.671,16.671,0,0,1,.788-5.225,11.838,11.838,0,0,1,2.3-4.138,10.424,10.424,0,0,1,3.737-2.712,12.6,12.6,0,0,1,5.1-.975,12.03,12.03,0,0,1,4.7.863,11.249,11.249,0,0,1,3.625,2.437ZM-237.8,0V-36.825h4.45v14.9a13.665,13.665,0,0,1,3.6-2.763,9.641,9.641,0,0,1,4.55-1.038,9.145,9.145,0,0,1,3.663.688,7.086,7.086,0,0,1,2.65,1.95,8.612,8.612,0,0,1,1.613,3.038,13.219,13.219,0,0,1,.55,3.925V0h-4.45V-16.125a6.816,6.816,0,0,0-1.312-4.462,4.907,4.907,0,0,0-4.012-1.588,7.48,7.48,0,0,0-3.687.95,12.144,12.144,0,0,0-3.162,2.575V0Zm46.4,0h-1.975a2.357,2.357,0,0,1-1.05-.2,1.106,1.106,0,0,1-.525-.85l-.5-2.35q-1,.9-1.95,1.612a11.16,11.16,0,0,1-2,1.2,10.364,10.364,0,0,1-2.238.737,12.833,12.833,0,0,1-2.637.25,9,9,0,0,1-2.762-.413,6.3,6.3,0,0,1-2.238-1.237,5.892,5.892,0,0,1-1.512-2.087,7.3,7.3,0,0,1-.562-2.987,5.572,5.572,0,0,1,.825-2.887,7.25,7.25,0,0,1,2.663-2.463,17.345,17.345,0,0,1,4.813-1.763,36.664,36.664,0,0,1,7.275-.787V-16.2a6.817,6.817,0,0,0-1.262-4.462,4.591,4.591,0,0,0-3.738-1.513,7.923,7.923,0,0,0-2.738.413,10.362,10.362,0,0,0-1.925.925q-.813.513-1.4.925A2.019,2.019,0,0,1-208-19.5a1.333,1.333,0,0,1-.787-.237,1.809,1.809,0,0,1-.538-.588l-.8-1.425a14.462,14.462,0,0,1,4.525-3.025,13.971,13.971,0,0,1,5.375-1,9.59,9.59,0,0,1,3.775.7,7.742,7.742,0,0,1,2.775,1.95,8.258,8.258,0,0,1,1.7,3.025,12.6,12.6,0,0,1,.575,3.9Zm-11.55-2.725a9.085,9.085,0,0,0,2.15-.238,8.486,8.486,0,0,0,1.837-.675,9.737,9.737,0,0,0,1.65-1.062,14.294,14.294,0,0,0,1.538-1.425V-11.4a36.774,36.774,0,0,0-5.225.487A14.656,14.656,0,0,0-204.5-9.9a4.875,4.875,0,0,0-1.962,1.475,3.173,3.173,0,0,0-.613,1.9A4.192,4.192,0,0,0-206.75-4.8a3.27,3.27,0,0,0,.875,1.188,3.454,3.454,0,0,0,1.3.675A5.941,5.941,0,0,0-202.95-2.725ZM-184.65,0V-25.325H-182a1.135,1.135,0,0,1,1.2.925l.35,2.75a14.233,14.233,0,0,1,3.688-2.95,9.59,9.59,0,0,1,4.712-1.125,9.145,9.145,0,0,1,3.663.688,7.086,7.086,0,0,1,2.65,1.95,8.612,8.612,0,0,1,1.613,3.038,13.219,13.219,0,0,1,.55,3.925V0h-4.45V-16.125a6.816,6.816,0,0,0-1.312-4.462,4.907,4.907,0,0,0-4.012-1.588,7.48,7.48,0,0,0-3.687.95A12.144,12.144,0,0,0-180.2-18.65V0Zm32.75-25.325V0h-4.45V-25.325Zm1-7.95a2.832,2.832,0,0,1-.263,1.212,3.491,3.491,0,0,1-.7,1,3.252,3.252,0,0,1-1.012.687,3.039,3.039,0,0,1-1.225.25,2.951,2.951,0,0,1-1.212-.25,3.3,3.3,0,0,1-1-.687,3.3,3.3,0,0,1-.687-1,2.951,2.951,0,0,1-.25-1.212,3.128,3.128,0,0,1,.25-1.238,3.213,3.213,0,0,1,.688-1.025,3.3,3.3,0,0,1,1-.687,2.951,2.951,0,0,1,1.212-.25,3.039,3.039,0,0,1,1.225.25,3.252,3.252,0,0,1,1.012.688,3.39,3.39,0,0,1,.7,1.025A3,3,0,0,1-150.9-33.275Zm21.35,12.125a.986.986,0,0,1-.925.55,1.741,1.741,0,0,1-.85-.275q-.475-.275-1.163-.612a10.918,10.918,0,0,0-1.637-.625,7.811,7.811,0,0,0-2.25-.288,6.64,6.64,0,0,0-2.025.288,4.863,4.863,0,0,0-1.538.788,3.483,3.483,0,0,0-.975,1.162,3.121,3.121,0,0,0-.338,1.438,2.4,2.4,0,0,0,.563,1.625,4.888,4.888,0,0,0,1.488,1.125,12.968,12.968,0,0,0,2.1.838q1.175.362,2.412.775t2.413.913a8.754,8.754,0,0,1,2.1,1.25,5.717,5.717,0,0,1,1.488,1.837,5.624,5.624,0,0,1,.563,2.613,8.273,8.273,0,0,1-.625,3.238,7.065,7.065,0,0,1-1.85,2.575,8.921,8.921,0,0,1-3,1.713A12.325,12.325,0,0,1-137.7.4a12.789,12.789,0,0,1-4.8-.863,12.163,12.163,0,0,1-3.65-2.212l1.05-1.7a1.525,1.525,0,0,1,.475-.5,1.334,1.334,0,0,1,.725-.175,1.675,1.675,0,0,1,.95.35q.5.35,1.212.775a9.33,9.33,0,0,0,1.725.775,7.862,7.862,0,0,0,2.538.35,6.956,6.956,0,0,0,2.275-.337,4.779,4.779,0,0,0,1.625-.913,3.613,3.613,0,0,0,.962-1.325,4.118,4.118,0,0,0,.313-1.6,2.654,2.654,0,0,0-.562-1.738,4.747,4.747,0,0,0-1.487-1.175,12.122,12.122,0,0,0-2.113-.85q-1.188-.363-2.425-.762t-2.425-.912a8.525,8.525,0,0,1-2.113-1.288,5.833,5.833,0,0,1-1.487-1.912,6.184,6.184,0,0,1-.562-2.763,6.738,6.738,0,0,1,.6-2.788,6.836,6.836,0,0,1,1.75-2.35,8.619,8.619,0,0,1,2.825-1.612,11.305,11.305,0,0,1,3.825-.6,12.1,12.1,0,0,1,4.487.788,10.62,10.62,0,0,1,3.438,2.163ZM-122.35,0V-25.325h2.65a1.135,1.135,0,0,1,1.2.925l.325,2.6a12.992,12.992,0,0,1,3.138-2.825,7.386,7.386,0,0,1,4.037-1.1,6,6,0,0,1,4.162,1.425,8.016,8.016,0,0,1,2.287,3.85,7.925,7.925,0,0,1,1.388-2.375,8.06,8.06,0,0,1,1.938-1.65,8.206,8.206,0,0,1,2.287-.95,10.215,10.215,0,0,1,2.463-.3,9.365,9.365,0,0,1,3.563.638,7.053,7.053,0,0,1,2.65,1.862A8.3,8.3,0,0,1-88.6-20.212a13.34,13.34,0,0,1,.575,4.087V0h-4.45V-16.125a6.826,6.826,0,0,0-1.3-4.513,4.667,4.667,0,0,0-3.775-1.538,5.663,5.663,0,0,0-2.087.388,5.03,5.03,0,0,0-1.738,1.138,5.333,5.333,0,0,0-1.187,1.887A7.321,7.321,0,0,0-103-16.125V0h-4.45V-16.125a7.1,7.1,0,0,0-1.225-4.55,4.347,4.347,0,0,0-3.575-1.5,5.649,5.649,0,0,0-3.062.888,10.026,10.026,0,0,0-2.588,2.412V0Zm51.075-25.725a11.3,11.3,0,0,1,4.2.763,9.427,9.427,0,0,1,3.325,2.2,10.03,10.03,0,0,1,2.188,3.55,13.715,13.715,0,0,1,.787,4.813A2.9,2.9,0,0,1-61-13a.934.934,0,0,1-.85.35H-78.7a13.981,13.981,0,0,0,.65,4.175A8.537,8.537,0,0,0-76.4-5.513a6.611,6.611,0,0,0,2.5,1.775,8.585,8.585,0,0,0,3.25.587,9.534,9.534,0,0,0,2.887-.387,13.738,13.738,0,0,0,2.088-.838,15.923,15.923,0,0,0,1.463-.838A1.939,1.939,0,0,1-63.2-5.6a.979.979,0,0,1,.85.425L-61.1-3.55a8.452,8.452,0,0,1-1.975,1.738A12.3,12.3,0,0,1-65.538-.6,15.641,15.641,0,0,1-68.25.112,16.567,16.567,0,0,1-71.025.35a12.877,12.877,0,0,1-4.838-.888,10.617,10.617,0,0,1-3.825-2.6A11.928,11.928,0,0,1-82.2-7.375a17.231,17.231,0,0,1-.9-5.8,14.756,14.756,0,0,1,.813-4.95,11.667,11.667,0,0,1,2.338-3.988,10.761,10.761,0,0,1,3.725-2.65A12.228,12.228,0,0,1-71.275-25.725Zm.1,3.275a6.832,6.832,0,0,0-5.075,1.863,8.767,8.767,0,0,0-2.3,5.163h13.775a9.011,9.011,0,0,0-.425-2.837,6.323,6.323,0,0,0-1.25-2.225,5.6,5.6,0,0,0-2.012-1.45A6.787,6.787,0,0,0-71.175-22.45ZM-26.85,0h-1.975a2.357,2.357,0,0,1-1.05-.2,1.106,1.106,0,0,1-.525-.85l-.5-2.35q-1,.9-1.95,1.612a11.16,11.16,0,0,1-2,1.2A10.364,10.364,0,0,1-37.087.15,12.833,12.833,0,0,1-39.725.4a9,9,0,0,1-2.763-.413A6.3,6.3,0,0,1-44.725-1.25a5.892,5.892,0,0,1-1.513-2.087A7.3,7.3,0,0,1-46.8-6.325a5.572,5.572,0,0,1,.825-2.887,7.25,7.25,0,0,1,2.662-2.463A17.345,17.345,0,0,1-38.5-13.438a36.664,36.664,0,0,1,7.275-.787V-16.2a6.817,6.817,0,0,0-1.263-4.462,4.591,4.591,0,0,0-3.737-1.513,7.923,7.923,0,0,0-2.737.413,10.362,10.362,0,0,0-1.925.925q-.813.513-1.4.925a2.019,2.019,0,0,1-1.162.413,1.334,1.334,0,0,1-.788-.237,1.809,1.809,0,0,1-.537-.588l-.8-1.425a14.462,14.462,0,0,1,4.525-3.025,13.971,13.971,0,0,1,5.375-1,9.59,9.59,0,0,1,3.775.7,7.742,7.742,0,0,1,2.775,1.95,8.258,8.258,0,0,1,1.7,3.025,12.6,12.6,0,0,1,.575,3.9ZM-38.4-2.725a9.085,9.085,0,0,0,2.15-.238,8.486,8.486,0,0,0,1.838-.675A9.737,9.737,0,0,0-32.762-4.7a14.3,14.3,0,0,0,1.537-1.425V-11.4a36.774,36.774,0,0,0-5.225.487A14.656,14.656,0,0,0-39.95-9.9a4.875,4.875,0,0,0-1.963,1.475,3.173,3.173,0,0,0-.612,1.9A4.192,4.192,0,0,0-42.2-4.8a3.269,3.269,0,0,0,.875,1.188,3.454,3.454,0,0,0,1.3.675A5.941,5.941,0,0,0-38.4-2.725Zm35.575-18.1a1.987,1.987,0,0,1-.4.425.945.945,0,0,1-.575.15,1.428,1.428,0,0,1-.812-.312,11.842,11.842,0,0,0-1.113-.687,9.314,9.314,0,0,0-1.637-.687,7.728,7.728,0,0,0-2.363-.312A7.687,7.687,0,0,0-13-21.587a6.351,6.351,0,0,0-2.387,1.913,8.655,8.655,0,0,0-1.45,3.025,15.009,15.009,0,0,0-.487,3.975A14.523,14.523,0,0,0-16.8-8.587a8.857,8.857,0,0,0,1.475,3,6.293,6.293,0,0,0,2.313,1.85A7.141,7.141,0,0,0-9.95-3.1a7.829,7.829,0,0,0,2.675-.388,8.15,8.15,0,0,0,1.75-.862,12.825,12.825,0,0,0,1.15-.863,1.386,1.386,0,0,1,.9-.388.941.941,0,0,1,.85.425l1.25,1.625A9.621,9.621,0,0,1-5.5-.587,14.626,14.626,0,0,1-10.725.35a11.063,11.063,0,0,1-4.413-.875,10.061,10.061,0,0,1-3.537-2.538A12.04,12.04,0,0,1-21.038-7.15a16.432,16.432,0,0,1-.862-5.525,16.671,16.671,0,0,1,.788-5.225,11.838,11.838,0,0,1,2.3-4.138,10.424,10.424,0,0,1,3.738-2.712,12.6,12.6,0,0,1,5.1-.975,12.03,12.03,0,0,1,4.7.863A11.249,11.249,0,0,1-1.65-22.425ZM3.25,0V-36.825H7.7v14.9a13.665,13.665,0,0,1,3.6-2.763,9.641,9.641,0,0,1,4.55-1.038,9.144,9.144,0,0,1,3.663.688,7.086,7.086,0,0,1,2.65,1.95,8.612,8.612,0,0,1,1.612,3.038,13.219,13.219,0,0,1,.55,3.925V0h-4.45V-16.125a6.816,6.816,0,0,0-1.312-4.462,4.907,4.907,0,0,0-4.012-1.588,7.48,7.48,0,0,0-3.687.95A12.144,12.144,0,0,0,7.7-18.65V0ZM38.725.4a6.105,6.105,0,0,1-4.612-1.675A6.684,6.684,0,0,1,32.5-6.1V-21.6H29.45a1,1,0,0,1-.675-.237.923.923,0,0,1-.275-.738V-24.35l4.15-.525L33.675-32.7A.946.946,0,0,1,34-33.312a1.033,1.033,0,0,1,.7-.237h2.25v8.725H44.2V-21.6H36.95V-6.4a3.233,3.233,0,0,0,.775,2.375,2.707,2.707,0,0,0,2,.775,3.53,3.53,0,0,0,1.212-.187,5.2,5.2,0,0,0,.888-.412q.375-.225.638-.412a.834.834,0,0,1,.463-.188.766.766,0,0,1,.625.425L44.85-1.9A8.291,8.291,0,0,1,42.075-.213,9.423,9.423,0,0,1,38.725.4Zm21-26.125a11.3,11.3,0,0,1,4.2.763,9.427,9.427,0,0,1,3.325,2.2,10.03,10.03,0,0,1,2.188,3.55,13.715,13.715,0,0,1,.788,4.813A2.9,2.9,0,0,1,70-13a.934.934,0,0,1-.85.35H52.3a13.981,13.981,0,0,0,.65,4.175A8.537,8.537,0,0,0,54.6-5.513a6.611,6.611,0,0,0,2.5,1.775,8.585,8.585,0,0,0,3.25.587,9.534,9.534,0,0,0,2.887-.387,13.738,13.738,0,0,0,2.088-.838,15.923,15.923,0,0,0,1.463-.838A1.939,1.939,0,0,1,67.8-5.6a.979.979,0,0,1,.85.425L69.9-3.55a8.452,8.452,0,0,1-1.975,1.738A12.3,12.3,0,0,1,65.462-.6,15.641,15.641,0,0,1,62.75.112,16.567,16.567,0,0,1,59.975.35a12.877,12.877,0,0,1-4.837-.888,10.617,10.617,0,0,1-3.825-2.6A11.928,11.928,0,0,1,48.8-7.375a17.231,17.231,0,0,1-.9-5.8,14.756,14.756,0,0,1,.813-4.95,11.667,11.667,0,0,1,2.338-3.988,10.761,10.761,0,0,1,3.725-2.65A12.228,12.228,0,0,1,59.725-25.725Zm.1,3.275a6.832,6.832,0,0,0-5.075,1.863,8.767,8.767,0,0,0-2.3,5.163H66.225a9.011,9.011,0,0,0-.425-2.837,6.323,6.323,0,0,0-1.25-2.225,5.6,5.6,0,0,0-2.013-1.45A6.787,6.787,0,0,0,59.825-22.45ZM75.9,0V-25.325h2.55a1.407,1.407,0,0,1,1,.275,1.687,1.687,0,0,1,.375.95l.3,3.95a11.584,11.584,0,0,1,3.213-4.138,7.1,7.1,0,0,1,4.487-1.487,7.057,7.057,0,0,1,1.9.237,6.623,6.623,0,0,1,1.575.663l-.575,3.325a.752.752,0,0,1-.775.625,3.889,3.889,0,0,1-1.075-.237A6.78,6.78,0,0,0,86.85-21.4a5.736,5.736,0,0,0-3.887,1.35,10.134,10.134,0,0,0-2.613,3.925V0Zm47.625,0a1.135,1.135,0,0,1-1.2-.925L121.925-4a13.331,13.331,0,0,1-3.713,3.162A9.511,9.511,0,0,1,113.425.35a9.141,9.141,0,0,1-3.95-.838A8.191,8.191,0,0,1,106.45-2.95,11.729,11.729,0,0,1,104.525-7a20.851,20.851,0,0,1-.675-5.575,17.474,17.474,0,0,1,.75-5.212,12.7,12.7,0,0,1,2.162-4.187,10.136,10.136,0,0,1,3.438-2.787,10.147,10.147,0,0,1,4.6-1.013,9.164,9.164,0,0,1,3.975.788,9.531,9.531,0,0,1,2.95,2.212v-14.05h4.45V0ZM114.9-3.25a7.168,7.168,0,0,0,3.813-1,10.99,10.99,0,0,0,3.013-2.825v-12.25a7.041,7.041,0,0,0-2.687-2.312A7.756,7.756,0,0,0,115.8-22.3a6.41,6.41,0,0,0-5.45,2.525q-1.9,2.525-1.9,7.2a18.308,18.308,0,0,0,.425,4.238,8.154,8.154,0,0,0,1.25,2.9,4.912,4.912,0,0,0,2.025,1.663A6.8,6.8,0,0,0,114.9-3.25Zm28.775-22.475a11.3,11.3,0,0,1,4.2.763,9.427,9.427,0,0,1,3.325,2.2,10.03,10.03,0,0,1,2.188,3.55,13.715,13.715,0,0,1,.788,4.813,2.9,2.9,0,0,1-.225,1.4.934.934,0,0,1-.85.35H136.25a13.982,13.982,0,0,0,.65,4.175,8.537,8.537,0,0,0,1.65,2.962,6.611,6.611,0,0,0,2.5,1.775,8.585,8.585,0,0,0,3.25.587,9.534,9.534,0,0,0,2.887-.387,13.738,13.738,0,0,0,2.087-.838,15.926,15.926,0,0,0,1.463-.838A1.939,1.939,0,0,1,151.75-5.6a.979.979,0,0,1,.85.425l1.25,1.625a8.453,8.453,0,0,1-1.975,1.738A12.3,12.3,0,0,1,149.413-.6,15.641,15.641,0,0,1,146.7.112a16.567,16.567,0,0,1-2.775.238,12.877,12.877,0,0,1-4.838-.888,10.617,10.617,0,0,1-3.825-2.6,11.928,11.928,0,0,1-2.512-4.237,17.231,17.231,0,0,1-.9-5.8,14.756,14.756,0,0,1,.813-4.95A11.667,11.667,0,0,1,135-22.113a10.761,10.761,0,0,1,3.725-2.65A12.228,12.228,0,0,1,143.675-25.725Zm.1,3.275a6.832,6.832,0,0,0-5.075,1.863,8.767,8.767,0,0,0-2.3,5.163h13.775a9.01,9.01,0,0,0-.425-2.837,6.323,6.323,0,0,0-1.25-2.225,5.6,5.6,0,0,0-2.012-1.45A6.787,6.787,0,0,0,143.775-22.45ZM169.5,0V-36.825h4.45v14.9a13.665,13.665,0,0,1,3.6-2.763,9.641,9.641,0,0,1,4.55-1.038,9.145,9.145,0,0,1,3.663.688,7.086,7.086,0,0,1,2.65,1.95,8.612,8.612,0,0,1,1.613,3.038,13.219,13.219,0,0,1,.55,3.925V0h-4.45V-16.125a6.816,6.816,0,0,0-1.312-4.462,4.907,4.907,0,0,0-4.012-1.588,7.48,7.48,0,0,0-3.687.95,12.144,12.144,0,0,0-3.162,2.575V0Zm37.825-25.725a11.3,11.3,0,0,1,4.2.763,9.427,9.427,0,0,1,3.325,2.2,10.03,10.03,0,0,1,2.188,3.55,13.715,13.715,0,0,1,.788,4.813A2.9,2.9,0,0,1,217.6-13a.934.934,0,0,1-.85.35H199.9a13.982,13.982,0,0,0,.65,4.175,8.537,8.537,0,0,0,1.65,2.962,6.611,6.611,0,0,0,2.5,1.775,8.585,8.585,0,0,0,3.25.587,9.534,9.534,0,0,0,2.887-.387,13.738,13.738,0,0,0,2.087-.838,15.926,15.926,0,0,0,1.463-.838A1.939,1.939,0,0,1,215.4-5.6a.979.979,0,0,1,.85.425L217.5-3.55a8.453,8.453,0,0,1-1.975,1.738A12.3,12.3,0,0,1,213.063-.6a15.641,15.641,0,0,1-2.713.713,16.567,16.567,0,0,1-2.775.238,12.877,12.877,0,0,1-4.838-.888,10.617,10.617,0,0,1-3.825-2.6A11.928,11.928,0,0,1,196.4-7.375a17.231,17.231,0,0,1-.9-5.8,14.756,14.756,0,0,1,.813-4.95,11.667,11.667,0,0,1,2.337-3.988,10.761,10.761,0,0,1,3.725-2.65A12.228,12.228,0,0,1,207.325-25.725Zm.1,3.275a6.832,6.832,0,0,0-5.075,1.863,8.767,8.767,0,0,0-2.3,5.163h13.775a9.01,9.01,0,0,0-.425-2.837,6.323,6.323,0,0,0-1.25-2.225,5.6,5.6,0,0,0-2.012-1.45A6.787,6.787,0,0,0,207.425-22.45Zm20.7-14.375V-15.15h1.15a2.131,2.131,0,0,0,.825-.137,2.309,2.309,0,0,0,.725-.562l8-8.575a4.348,4.348,0,0,1,.75-.65,1.777,1.777,0,0,1,1-.25h4.05L235.3-15.4a8.859,8.859,0,0,1-.687.75,4.064,4.064,0,0,1-.762.575,4.608,4.608,0,0,1,.813.688,6.4,6.4,0,0,1,.688.887L245.25,0h-4a1.924,1.924,0,0,1-.937-.213,2.451,2.451,0,0,1-.737-.662L231.25-11.25a1.943,1.943,0,0,0-.75-.687,2.97,2.97,0,0,0-1.125-.163h-1.25V0H223.65V-36.825ZM264.2-21.15a.986.986,0,0,1-.925.55,1.741,1.741,0,0,1-.85-.275q-.475-.275-1.163-.612a10.919,10.919,0,0,0-1.637-.625,7.811,7.811,0,0,0-2.25-.288,6.64,6.64,0,0,0-2.025.288,4.863,4.863,0,0,0-1.538.788,3.483,3.483,0,0,0-.975,1.162,3.121,3.121,0,0,0-.338,1.438,2.4,2.4,0,0,0,.563,1.625,4.888,4.888,0,0,0,1.488,1.125,12.968,12.968,0,0,0,2.1.838q1.175.362,2.413.775t2.412.913a8.754,8.754,0,0,1,2.1,1.25,5.717,5.717,0,0,1,1.488,1.837,5.624,5.624,0,0,1,.563,2.613A8.273,8.273,0,0,1,265-4.512a7.065,7.065,0,0,1-1.85,2.575,8.921,8.921,0,0,1-3,1.713,12.325,12.325,0,0,1-4.1.625,12.789,12.789,0,0,1-4.8-.863,12.163,12.163,0,0,1-3.65-2.212l1.05-1.7a1.525,1.525,0,0,1,.475-.5,1.334,1.334,0,0,1,.725-.175,1.675,1.675,0,0,1,.95.35q.5.35,1.212.775a9.33,9.33,0,0,0,1.725.775,7.862,7.862,0,0,0,2.538.35,6.956,6.956,0,0,0,2.275-.337,4.779,4.779,0,0,0,1.625-.913,3.614,3.614,0,0,0,.962-1.325,4.118,4.118,0,0,0,.313-1.6,2.654,2.654,0,0,0-.562-1.738A4.747,4.747,0,0,0,259.4-9.887a12.122,12.122,0,0,0-2.113-.85q-1.187-.363-2.425-.762t-2.425-.912a8.525,8.525,0,0,1-2.113-1.288,5.833,5.833,0,0,1-1.487-1.912,6.184,6.184,0,0,1-.562-2.763,6.738,6.738,0,0,1,.6-2.788,6.836,6.836,0,0,1,1.75-2.35,8.619,8.619,0,0,1,2.825-1.612,11.305,11.305,0,0,1,3.825-.6,12.1,12.1,0,0,1,4.487.788,10.62,10.62,0,0,1,3.438,2.163Zm17.225-4.575a11.3,11.3,0,0,1,4.2.763,9.428,9.428,0,0,1,3.325,2.2,10.03,10.03,0,0,1,2.188,3.55,13.715,13.715,0,0,1,.787,4.813A2.9,2.9,0,0,1,291.7-13a.934.934,0,0,1-.85.35H274a13.981,13.981,0,0,0,.65,4.175,8.537,8.537,0,0,0,1.65,2.962,6.611,6.611,0,0,0,2.5,1.775,8.586,8.586,0,0,0,3.25.587,9.534,9.534,0,0,0,2.888-.387,13.739,13.739,0,0,0,2.087-.838,15.921,15.921,0,0,0,1.462-.838A1.939,1.939,0,0,1,289.5-5.6a.979.979,0,0,1,.85.425L291.6-3.55a8.453,8.453,0,0,1-1.975,1.738A12.3,12.3,0,0,1,287.163-.6a15.641,15.641,0,0,1-2.712.713,16.568,16.568,0,0,1-2.775.238,12.877,12.877,0,0,1-4.837-.888,10.617,10.617,0,0,1-3.825-2.6A11.928,11.928,0,0,1,270.5-7.375a17.231,17.231,0,0,1-.9-5.8,14.757,14.757,0,0,1,.813-4.95,11.667,11.667,0,0,1,2.337-3.988,10.761,10.761,0,0,1,3.725-2.65A12.228,12.228,0,0,1,281.425-25.725Zm.1,3.275a6.832,6.832,0,0,0-5.075,1.863,8.767,8.767,0,0,0-2.3,5.163h13.775a9.011,9.011,0,0,0-.425-2.837,6.322,6.322,0,0,0-1.25-2.225,5.6,5.6,0,0,0-2.013-1.45A6.787,6.787,0,0,0,281.525-22.45ZM297.6,0V-25.325h2.65a1.135,1.135,0,0,1,1.2.925l.35,2.75a14.233,14.233,0,0,1,3.688-2.95,9.59,9.59,0,0,1,4.712-1.125,9.144,9.144,0,0,1,3.663.688,7.086,7.086,0,0,1,2.65,1.95,8.612,8.612,0,0,1,1.612,3.038,13.219,13.219,0,0,1,.55,3.925V0h-4.45V-16.125a6.816,6.816,0,0,0-1.312-4.462,4.907,4.907,0,0,0-4.012-1.588,7.48,7.48,0,0,0-3.687.95,12.143,12.143,0,0,0-3.163,2.575V0Zm23.8-25.325h3.65a1.373,1.373,0,0,1,.875.275,1.558,1.558,0,0,1,.5.65L332.85-8.1a12.363,12.363,0,0,1,.55,1.8q.2.9.375,1.775.2-.875.425-1.775a15.005,15.005,0,0,1,.575-1.8l6.5-16.3a1.484,1.484,0,0,1,.487-.663,1.323,1.323,0,0,1,.837-.262h3.475L335.75,0h-4.025Zm38.175-.4a11.3,11.3,0,0,1,4.2.763,9.428,9.428,0,0,1,3.325,2.2,10.03,10.03,0,0,1,2.188,3.55,13.715,13.715,0,0,1,.787,4.813,2.9,2.9,0,0,1-.225,1.4.934.934,0,0,1-.85.35H352.15a13.981,13.981,0,0,0,.65,4.175,8.537,8.537,0,0,0,1.65,2.962,6.611,6.611,0,0,0,2.5,1.775,8.586,8.586,0,0,0,3.25.587,9.534,9.534,0,0,0,2.888-.387,13.739,13.739,0,0,0,2.087-.838,15.921,15.921,0,0,0,1.462-.838A1.939,1.939,0,0,1,367.65-5.6a.979.979,0,0,1,.85.425l1.25,1.625a8.453,8.453,0,0,1-1.975,1.738A12.3,12.3,0,0,1,365.313-.6,15.641,15.641,0,0,1,362.6.112a16.568,16.568,0,0,1-2.775.238,12.877,12.877,0,0,1-4.837-.888,10.617,10.617,0,0,1-3.825-2.6,11.928,11.928,0,0,1-2.513-4.237,17.231,17.231,0,0,1-.9-5.8,14.757,14.757,0,0,1,.813-4.95,11.667,11.667,0,0,1,2.337-3.988,10.761,10.761,0,0,1,3.725-2.65A12.228,12.228,0,0,1,359.575-25.725Zm.1,3.275a6.832,6.832,0,0,0-5.075,1.863,8.767,8.767,0,0,0-2.3,5.163h13.775a9.011,9.011,0,0,0-.425-2.837,6.322,6.322,0,0,0-1.25-2.225,5.6,5.6,0,0,0-2.013-1.45A6.787,6.787,0,0,0,359.675-22.45ZM375.75,0V-25.325h2.55a1.407,1.407,0,0,1,1,.275,1.687,1.687,0,0,1,.375.95l.3,3.95a11.584,11.584,0,0,1,3.212-4.138,7.1,7.1,0,0,1,4.488-1.487,7.057,7.057,0,0,1,1.9.237,6.622,6.622,0,0,1,1.575.663l-.575,3.325a.752.752,0,0,1-.775.625,3.889,3.889,0,0,1-1.075-.237A6.78,6.78,0,0,0,386.7-21.4a5.736,5.736,0,0,0-3.888,1.35,10.134,10.134,0,0,0-2.612,3.925V0ZM392.7-25.325h3.65a1.373,1.373,0,0,1,.875.275,1.558,1.558,0,0,1,.5.65L404.15-8.1a12.363,12.363,0,0,1,.55,1.8q.2.9.375,1.775.2-.875.425-1.775a15.005,15.005,0,0,1,.575-1.8l6.5-16.3a1.484,1.484,0,0,1,.487-.663,1.323,1.323,0,0,1,.837-.262h3.475L407.05,0h-4.025Zm38.4-.4a13.008,13.008,0,0,1,5.013.925,10.569,10.569,0,0,1,3.8,2.625,11.621,11.621,0,0,1,2.4,4.113,16.352,16.352,0,0,1,.838,5.387,16.322,16.322,0,0,1-.838,5.4,11.639,11.639,0,0,1-2.4,4.1,10.437,10.437,0,0,1-3.8,2.613A13.165,13.165,0,0,1,431.1.35a13.165,13.165,0,0,1-5.012-.913,10.555,10.555,0,0,1-3.812-2.613,11.688,11.688,0,0,1-2.425-4.1,16.1,16.1,0,0,1-.85-5.4,16.132,16.132,0,0,1,.85-5.387,11.669,11.669,0,0,1,2.425-4.113,10.69,10.69,0,0,1,3.813-2.625A13.008,13.008,0,0,1,431.1-25.725Zm0,22.6a6.5,6.5,0,0,0,5.6-2.513,11.633,11.633,0,0,0,1.85-7.012,11.74,11.74,0,0,0-1.85-7.05,6.488,6.488,0,0,0-5.6-2.525,7.772,7.772,0,0,0-3.3.65,6.177,6.177,0,0,0-2.337,1.875,8.328,8.328,0,0,0-1.4,3.012,16.149,16.149,0,0,0-.462,4.038,16,16,0,0,0,.462,4.025,8.2,8.2,0,0,0,1.4,2.987A6.225,6.225,0,0,0,427.8-3.775,7.772,7.772,0,0,0,431.1-3.125Zm22.5-33.7V0h-4.45V-36.825ZM469.975-25.75a12.6,12.6,0,0,1,3.088.363,9.711,9.711,0,0,1,2.612,1.063h6.875v1.65q0,.825-1.05,1.05l-2.875.4a7.7,7.7,0,0,1,.85,3.625,7.792,7.792,0,0,1-.712,3.362,7.628,7.628,0,0,1-1.975,2.588,8.865,8.865,0,0,1-3,1.65,12.075,12.075,0,0,1-3.812.575,12.811,12.811,0,0,1-3.35-.425,4.208,4.208,0,0,0-1.213,1.075A1.935,1.935,0,0,0,465-7.65a1.514,1.514,0,0,0,.725,1.362,5.155,5.155,0,0,0,1.925.663,20.864,20.864,0,0,0,2.725.25q1.525.05,3.112.162a29.13,29.13,0,0,1,3.112.387,9.525,9.525,0,0,1,2.725.9A5.064,5.064,0,0,1,481.25-2.2a5.091,5.091,0,0,1,.725,2.85,6.619,6.619,0,0,1-.812,3.15,8.522,8.522,0,0,1-2.337,2.713,12.045,12.045,0,0,1-3.725,1.9,16.114,16.114,0,0,1-4.975.713,19.2,19.2,0,0,1-4.863-.55A11.372,11.372,0,0,1,461.8,7.1a6.427,6.427,0,0,1-2.062-2.138,5.072,5.072,0,0,1-.687-2.537,4.582,4.582,0,0,1,1.188-3.188A8.145,8.145,0,0,1,463.5-2.85a4.473,4.473,0,0,1-1.713-1.338,3.6,3.6,0,0,1-.637-2.238,3.522,3.522,0,0,1,.2-1.137,4.473,4.473,0,0,1,.613-1.163,6.52,6.52,0,0,1,1.012-1.1,6.583,6.583,0,0,1,1.4-.925,7.881,7.881,0,0,1-2.937-2.787,7.631,7.631,0,0,1-1.062-4.063,7.792,7.792,0,0,1,.712-3.363,7.435,7.435,0,0,1,1.987-2.575,9.09,9.09,0,0,1,3.038-1.637A12.394,12.394,0,0,1,469.975-25.75Zm7.9,27.125A2.174,2.174,0,0,0,477.35-.15a3.39,3.39,0,0,0-1.425-.887A10.342,10.342,0,0,0,473.85-1.5q-1.175-.15-2.475-.212t-2.65-.138a24.381,24.381,0,0,1-2.575-.275,7.306,7.306,0,0,0-2.312,1.65,3.336,3.336,0,0,0-.888,2.325,3.058,3.058,0,0,0,.438,1.587,3.728,3.728,0,0,0,1.337,1.275,7.83,7.83,0,0,0,2.263.85,14.513,14.513,0,0,0,3.212.313,14.558,14.558,0,0,0,3.225-.325,8.1,8.1,0,0,0,2.413-.925A4.541,4.541,0,0,0,477.35,3.2,3.33,3.33,0,0,0,477.875,1.375Zm-7.9-13.75a7,7,0,0,0,2.388-.375A4.826,4.826,0,0,0,474.1-13.8a4.3,4.3,0,0,0,1.05-1.613,5.855,5.855,0,0,0,.35-2.062,4.926,4.926,0,0,0-1.413-3.7,5.663,5.663,0,0,0-4.113-1.375,5.626,5.626,0,0,0-4.087,1.375,4.926,4.926,0,0,0-1.413,3.7,5.674,5.674,0,0,0,.363,2.063A4.427,4.427,0,0,0,465.9-13.8a4.844,4.844,0,0,0,1.725,1.05A6.816,6.816,0,0,0,469.975-12.375Zm21.975-12.95V0H487.5V-25.325Zm1-7.95a2.831,2.831,0,0,1-.263,1.212,3.491,3.491,0,0,1-.7,1,3.252,3.252,0,0,1-1.013.687,3.039,3.039,0,0,1-1.225.25,2.951,2.951,0,0,1-1.212-.25,3.3,3.3,0,0,1-1-.687,3.3,3.3,0,0,1-.687-1,2.952,2.952,0,0,1-.25-1.212,3.128,3.128,0,0,1,.25-1.238,3.213,3.213,0,0,1,.688-1.025,3.3,3.3,0,0,1,1-.687,2.951,2.951,0,0,1,1.212-.25,3.039,3.039,0,0,1,1.225.25,3.252,3.252,0,0,1,1.013.688,3.39,3.39,0,0,1,.7,1.025A3,3,0,0,1,492.95-33.275ZM499.8,0V-25.325h2.65a1.135,1.135,0,0,1,1.2.925l.35,2.75a14.233,14.233,0,0,1,3.688-2.95,9.59,9.59,0,0,1,4.712-1.125,9.144,9.144,0,0,1,3.662.688,7.086,7.086,0,0,1,2.65,1.95,8.612,8.612,0,0,1,1.612,3.038,13.22,13.22,0,0,1,.55,3.925V0h-4.45V-16.125a6.816,6.816,0,0,0-1.312-4.462,4.907,4.907,0,0,0-4.013-1.588,7.48,7.48,0,0,0-3.687.95,12.143,12.143,0,0,0-3.163,2.575V0Zm36.325-25.75a12.6,12.6,0,0,1,3.088.363,9.711,9.711,0,0,1,2.612,1.063H548.7v1.65q0,.825-1.05,1.05l-2.875.4a7.7,7.7,0,0,1,.85,3.625,7.793,7.793,0,0,1-.712,3.362,7.628,7.628,0,0,1-1.975,2.588,8.865,8.865,0,0,1-3,1.65,12.075,12.075,0,0,1-3.812.575,12.811,12.811,0,0,1-3.35-.425,4.209,4.209,0,0,0-1.213,1.075,1.935,1.935,0,0,0-.412,1.125,1.514,1.514,0,0,0,.725,1.362,5.155,5.155,0,0,0,1.925.663,20.865,20.865,0,0,0,2.725.25q1.525.05,3.112.162a29.129,29.129,0,0,1,3.112.387,9.525,9.525,0,0,1,2.725.9A5.064,5.064,0,0,1,547.4-2.2a5.091,5.091,0,0,1,.725,2.85,6.618,6.618,0,0,1-.812,3.15,8.523,8.523,0,0,1-2.337,2.713,12.045,12.045,0,0,1-3.725,1.9,16.115,16.115,0,0,1-4.975.713,19.2,19.2,0,0,1-4.862-.55A11.373,11.373,0,0,1,527.95,7.1a6.427,6.427,0,0,1-2.062-2.138,5.073,5.073,0,0,1-.687-2.537,4.581,4.581,0,0,1,1.188-3.188A8.145,8.145,0,0,1,529.65-2.85a4.473,4.473,0,0,1-1.713-1.338,3.6,3.6,0,0,1-.638-2.238,3.521,3.521,0,0,1,.2-1.137,4.475,4.475,0,0,1,.612-1.163,6.523,6.523,0,0,1,1.013-1.1,6.584,6.584,0,0,1,1.4-.925,7.881,7.881,0,0,1-2.937-2.787,7.631,7.631,0,0,1-1.062-4.063,7.793,7.793,0,0,1,.712-3.363,7.435,7.435,0,0,1,1.988-2.575,9.09,9.09,0,0,1,3.037-1.637A12.394,12.394,0,0,1,536.125-25.75Zm7.9,27.125A2.174,2.174,0,0,0,543.5-.15a3.39,3.39,0,0,0-1.425-.887A10.342,10.342,0,0,0,540-1.5q-1.175-.15-2.475-.212t-2.65-.138a24.383,24.383,0,0,1-2.575-.275,7.306,7.306,0,0,0-2.312,1.65A3.336,3.336,0,0,0,529.1,1.85a3.058,3.058,0,0,0,.438,1.587,3.728,3.728,0,0,0,1.337,1.275,7.83,7.83,0,0,0,2.263.85,14.514,14.514,0,0,0,3.213.313,14.558,14.558,0,0,0,3.225-.325,8.1,8.1,0,0,0,2.412-.925A4.541,4.541,0,0,0,543.5,3.2,3.33,3.33,0,0,0,544.025,1.375Zm-7.9-13.75a7,7,0,0,0,2.388-.375,4.827,4.827,0,0,0,1.737-1.05,4.3,4.3,0,0,0,1.05-1.613,5.855,5.855,0,0,0,.35-2.062,4.926,4.926,0,0,0-1.413-3.7,5.663,5.663,0,0,0-4.112-1.375,5.626,5.626,0,0,0-4.087,1.375,4.926,4.926,0,0,0-1.413,3.7,5.674,5.674,0,0,0,.362,2.063A4.428,4.428,0,0,0,532.05-13.8a4.844,4.844,0,0,0,1.725,1.05A6.816,6.816,0,0,0,536.125-12.375Zm27.05-13.35a11.3,11.3,0,0,1,4.2.763,9.428,9.428,0,0,1,3.325,2.2,10.031,10.031,0,0,1,2.188,3.55,13.716,13.716,0,0,1,.787,4.813,2.9,2.9,0,0,1-.225,1.4.934.934,0,0,1-.85.35H555.75a13.98,13.98,0,0,0,.65,4.175,8.536,8.536,0,0,0,1.65,2.962,6.611,6.611,0,0,0,2.5,1.775,8.585,8.585,0,0,0,3.25.587,9.535,9.535,0,0,0,2.888-.387,13.737,13.737,0,0,0,2.088-.838,15.924,15.924,0,0,0,1.462-.838A1.939,1.939,0,0,1,571.25-5.6a.979.979,0,0,1,.85.425l1.25,1.625a8.452,8.452,0,0,1-1.975,1.738A12.3,12.3,0,0,1,568.912-.6,15.642,15.642,0,0,1,566.2.112a16.568,16.568,0,0,1-2.775.238,12.877,12.877,0,0,1-4.837-.888,10.617,10.617,0,0,1-3.825-2.6,11.928,11.928,0,0,1-2.513-4.237,17.23,17.23,0,0,1-.9-5.8,14.756,14.756,0,0,1,.813-4.95,11.668,11.668,0,0,1,2.338-3.988,10.761,10.761,0,0,1,3.725-2.65A12.228,12.228,0,0,1,563.175-25.725Zm.1,3.275a6.832,6.832,0,0,0-5.075,1.863,8.767,8.767,0,0,0-2.3,5.163h13.775a9.011,9.011,0,0,0-.425-2.837A6.323,6.323,0,0,0,568-20.488a5.6,5.6,0,0,0-2.013-1.45A6.787,6.787,0,0,0,563.275-22.45ZM579.35,0V-25.325H582a1.135,1.135,0,0,1,1.2.925l.35,2.75a14.234,14.234,0,0,1,3.688-2.95,9.591,9.591,0,0,1,4.713-1.125,9.144,9.144,0,0,1,3.662.688,7.086,7.086,0,0,1,2.65,1.95,8.612,8.612,0,0,1,1.612,3.038,13.22,13.22,0,0,1,.55,3.925V0h-4.45V-16.125a6.816,6.816,0,0,0-1.312-4.462,4.907,4.907,0,0,0-4.013-1.588,7.48,7.48,0,0,0-3.687.95A12.144,12.144,0,0,0,583.8-18.65V0Z" transform="translate(961 886)"/>
  </g>
</svg>
