<svg xmlns="http://www.w3.org/2000/svg" width="1190.398" height="276.695" viewBox="0 0 1190.398 276.695">
  <g id="Group_122" data-name="Group 122" transform="translate(-361.986 -692.88)">
    <path id="Path_193" data-name="Path 193" d="M-507.232-78.65v1.815l10.89,7.26-15.367,47.553h-.484L-530.222-78.65h-16.214l7.26,20.328-13.31,36.3h-.484l-16.819-47.553,10.89-7.26V-78.65h-38.115v1.815l10.89,7.26L-559.625,0h5.566l19.118-46.464L-518.364,0h5.687l25.894-69.575,10.89-7.26V-78.65Zm41.624,16.456a8.392,8.392,0,0,0,8.349-8.47,8.366,8.366,0,0,0-8.349-8.349,8.392,8.392,0,0,0-8.47,8.349A8.418,8.418,0,0,0-465.608-62.194ZM-478.192,0h26.015V-7.744h-5.445l-.605-.6V-52.756l-1.573-.726-20.086,9.559v1.452l7.744,4.84V-8.349l-.6.6h-5.445Zm62.678-7.018c-9.922,0-15.488-7.139-16.335-18.755h30.008a32.784,32.784,0,0,0,.605-6.534c0-11.979-7.623-20.328-19.965-20.328-14.883,0-25.531,12.221-25.531,27.83C-446.732-8.954-435.6,1.21-421.2,1.21A31.135,31.135,0,0,0-401.72-5.808l-2.3-4.235A25.883,25.883,0,0,1-415.514-7.018Zm-7.381-38.6c4.961,0,7.986,3.388,8.228,13.552h-17.182C-431.365-40.9-428.219-45.617-422.895-45.617Zm111.078-5.2v1.573l7.381,6.655L-313.874-17.3h-.605l-11.132-34.848-13.673,3.993,5.808,14.883-9.317,16.819h-.605l-10.527-26.015,7.26-6.776V-50.82h-29.766v1.694l7.381,6.655L-349.69,1.21h4.961l14.52-26.015L-320.045,1.21h5.324l18.755-43.681,7.744-6.776V-50.82ZM-263.9,1.21c15.367,0,26.378-11.132,26.378-27.588s-10.769-26.257-24.926-26.257c-15.73,0-26.378,12.221-26.378,28.193C-288.827-8.954-278.663,1.21-263.9,1.21Zm2.42-7.139c-7.26,0-12.584-9.68-12.584-23.474,0-9.922,3.509-15.73,9.2-15.73,7.26,0,12.584,9.68,12.584,23.474C-252.285-11.737-255.794-5.929-261.481-5.929Zm55.055-32.549A55.049,55.049,0,0,1-191.3-36.421V-52.03a8.588,8.588,0,0,0-3.509-.6c-4.6,0-10.043,3.509-15.972,8.954l-1.573-8.712-1.573-.847-18.15,9.317v1.573l7.744,4.719V-8.349l-.605.6h-5.445V0h27.83V-7.744h-7.26l-.6-.6V-38.236C-209.088-38.357-207.757-38.478-206.426-38.478Zm70.3,30.734-.605-.6V-86.273l-1.573-.847-20.086,9.68v1.452l7.744,4.84V-50.82a21.7,21.7,0,0,0-9.075-1.815c-15.246,0-26.136,12.463-26.136,29.04,0,13.673,7.139,24.8,18.755,24.8,6.171,0,10.648-3.146,16.456-7.5V0h19.965V-7.744ZM-158.268-9.2c-8.107,0-12.826-6.171-12.826-18.271,0-11.374,3.872-17.908,11.011-17.908,3.993,0,7.018,2.057,9.438,6.292v28.8A31.192,31.192,0,0,1-158.268-9.2Zm52.03,10.406a28.556,28.556,0,0,0,18.15-7.018l-2.3-4.235a21.137,21.137,0,0,1-8.954,2.662c-4.84,0-6.655-3.388-6.655-13.068V-43.076H-89.9V-50.82H-106v-14.4h-1.573l-19.723,20.57v1.573h6.776l.605.6v27.83C-119.911-3.025-114.95,1.21-106.238,1.21Zm96.074-8.954-.6-.6V-86.273l-1.573-.847-20.086,9.68v1.452l7.744,4.84V-50.82a21.7,21.7,0,0,0-9.075-1.815c-15.246,0-26.136,12.463-26.136,29.04,0,13.673,7.139,24.8,18.755,24.8,6.171,0,10.648-3.146,16.456-7.5V0H-4.719V-7.744ZM-32.307-9.2c-8.107,0-12.826-6.171-12.826-18.271,0-11.374,3.872-17.908,11.011-17.908,3.993,0,7.018,2.057,9.438,6.292v28.8A31.192,31.192,0,0,1-32.307-9.2ZM33.517-7.018c-9.922,0-15.488-7.139-16.335-18.755H47.19a32.785,32.785,0,0,0,.6-6.534c0-11.979-7.623-20.328-19.965-20.328C12.947-52.635,2.3-40.414,2.3-24.805,2.3-8.954,13.431,1.21,27.83,1.21A31.135,31.135,0,0,0,47.311-5.808l-2.3-4.235A25.883,25.883,0,0,1,33.517-7.018Zm-7.381-38.6c4.961,0,7.986,3.388,8.228,13.552H17.182C17.666-40.9,20.812-45.617,26.136-45.617ZM77.561,0h45.375V-18.634h-1.452l-7.018,10.89H97.042v-.484l25.531-40.293v-2.3H78.892v18.634h1.452l7.381-10.89h16.214v.6L77.561-2.057Zm77.2,1.21c15.367,0,26.378-11.132,26.378-27.588s-10.769-26.257-24.926-26.257c-15.73,0-26.378,12.221-26.378,28.193C129.833-8.954,140,1.21,154.759,1.21Zm2.42-7.139c-7.26,0-12.584-9.68-12.584-23.474,0-9.922,3.509-15.73,9.2-15.73,7.26,0,12.584,9.68,12.584,23.474C166.375-11.737,162.866-5.929,157.179-5.929Zm84.579-1.694-.6-.726V-38.478c0-9.922-6.05-14.157-14.641-14.157-6.534,0-11.616,2.541-18.755,7.26l-1.452-7.139-1.573-.847-18.15,9.317v1.573l7.744,4.719v29.4l-.605.6h-5.445V0h26.015V-7.744h-5.445l-.6-.6V-40.777a37.37,37.37,0,0,1,9.317-1.452c6.9,0,9.68,2.662,9.68,12.342V-8.349l-.605.6h-5.445V0H247.2V-7.623Zm61.71-.121-.605-.6V-86.273l-1.573-.847L281.2-77.44v1.452l7.744,4.84V-50.82a21.7,21.7,0,0,0-9.075-1.815c-15.246,0-26.136,12.463-26.136,29.04,0,13.673,7.139,24.8,18.755,24.8,6.171,0,10.648-3.146,16.456-7.5V0h19.965V-7.744ZM281.325-9.2c-8.107,0-12.826-6.171-12.826-18.271,0-11.374,3.872-17.908,11.011-17.908,3.993,0,7.018,2.057,9.438,6.292v28.8A31.192,31.192,0,0,1,281.325-9.2Zm65.824,2.178c-9.922,0-15.488-7.139-16.335-18.755h30.008a32.784,32.784,0,0,0,.605-6.534c0-11.979-7.623-20.328-19.965-20.328-14.883,0-25.531,12.221-25.531,27.83,0,15.851,11.132,26.015,25.531,26.015a31.135,31.135,0,0,0,19.481-7.018l-2.3-4.235A25.883,25.883,0,0,1,347.149-7.018Zm-7.381-38.6c4.961,0,7.986,3.388,8.228,13.552H330.814C331.3-40.9,334.444-45.617,339.768-45.617Zm63.646-7.018c-6.534,0-10.89,2.783-16.7,7.5v-41.14l-1.573-.847-20.086,9.68v1.452l7.744,4.84V-2.783A47.574,47.574,0,0,0,392.887,1.21c14.641,0,29.04-10.164,29.04-29.161C421.927-42.108,414.062-52.635,403.414-52.635ZM396.033-6.05c-3.872,0-6.9-1.815-9.317-4.84V-41.14a35.576,35.576,0,0,1,8.591-1.089c7.139,0,11.858,5.929,11.858,17.908C407.165-12.7,403.535-6.05,396.033-6.05Zm58.685,7.26c15.367,0,26.378-11.132,26.378-27.588S470.327-52.635,456.17-52.635c-15.73,0-26.378,12.221-26.378,28.193C429.792-8.954,439.956,1.21,454.718,1.21Zm2.42-7.139c-7.26,0-12.584-9.68-12.584-23.474,0-9.922,3.509-15.73,9.2-15.73,7.26,0,12.584,9.68,12.584,23.474C466.334-11.737,462.825-5.929,457.138-5.929Zm50.7-2.42V-86.273l-1.694-.847-19.965,9.68v1.452l7.744,4.84v62.8l-.605.6h-5.445V0h26.015V-7.744h-5.445Zm31.218.6L522.72-30.734l21.417-19.723v-.968H517.4v1.089l6.9,6.776L508.805-27.1,527.439,0h19.118V-7.744ZM569.91-80.465c-12.1,0-19.965,4.84-25.652,13.31l10.285,7.381c2.3-9.317,7.139-13.431,13.189-13.431s9.922,5.2,9.922,12.221c0,9.8-5.324,16.456-16.94,22.99L564.1-22.022h3.751l3.025-15.367c15.246-5.808,22.506-14.278,22.506-24.442C593.384-73.084,584.188-80.465,569.91-80.465ZM565.8-16.335a9.141,9.141,0,0,0-9.075,9.075A9.141,9.141,0,0,0,565.8,1.815a9.063,9.063,0,0,0,9.075-9.075A9.063,9.063,0,0,0,565.8-16.335Z" transform="translate(959 780)"/>
    <path id="Path_194" data-name="Path 194" d="M-333.225-35.825v3.95h-17.2v11.9H-336.5v3.8h-13.925V-3.95h17.2V0H-355.3V-35.825ZM-326.95,0V-25.325h2.55a1.407,1.407,0,0,1,1,.275,1.687,1.687,0,0,1,.375.95l.3,3.95a11.584,11.584,0,0,1,3.212-4.138,7.1,7.1,0,0,1,4.488-1.487,7.057,7.057,0,0,1,1.9.237,6.622,6.622,0,0,1,1.575.663l-.575,3.325a.752.752,0,0,1-.775.625,3.889,3.889,0,0,1-1.075-.237A6.78,6.78,0,0,0-316-21.4a5.736,5.736,0,0,0-3.888,1.35,10.134,10.134,0,0,0-2.612,3.925V0ZM-310-25.325h3.65a1.373,1.373,0,0,1,.875.275,1.558,1.558,0,0,1,.5.65l6.425,16.3A12.363,12.363,0,0,1-298-6.3q.2.9.375,1.775.2-.875.425-1.775a15.005,15.005,0,0,1,.575-1.8l6.5-16.3a1.484,1.484,0,0,1,.487-.663,1.323,1.323,0,0,1,.837-.262h3.475L-295.65,0h-4.025ZM-262.6,0h-1.975a2.357,2.357,0,0,1-1.05-.2,1.106,1.106,0,0,1-.525-.85l-.5-2.35q-1,.9-1.95,1.612a11.161,11.161,0,0,1-2,1.2,10.364,10.364,0,0,1-2.237.737,12.833,12.833,0,0,1-2.638.25,9,9,0,0,1-2.763-.413,6.3,6.3,0,0,1-2.237-1.237,5.892,5.892,0,0,1-1.513-2.087,7.3,7.3,0,0,1-.562-2.987,5.572,5.572,0,0,1,.825-2.887,7.25,7.25,0,0,1,2.663-2.463,17.345,17.345,0,0,1,4.813-1.763,36.664,36.664,0,0,1,7.275-.787V-16.2a6.817,6.817,0,0,0-1.263-4.462,4.591,4.591,0,0,0-3.737-1.513,7.923,7.923,0,0,0-2.737.413,10.362,10.362,0,0,0-1.925.925q-.812.513-1.4.925a2.019,2.019,0,0,1-1.163.413,1.334,1.334,0,0,1-.788-.237,1.809,1.809,0,0,1-.537-.588l-.8-1.425a14.462,14.462,0,0,1,4.525-3.025,13.971,13.971,0,0,1,5.375-1,9.591,9.591,0,0,1,3.775.7,7.742,7.742,0,0,1,2.775,1.95,8.258,8.258,0,0,1,1.7,3.025,12.6,12.6,0,0,1,.575,3.9Zm-11.55-2.725A9.085,9.085,0,0,0-272-2.963a8.486,8.486,0,0,0,1.837-.675,9.738,9.738,0,0,0,1.65-1.062,14.3,14.3,0,0,0,1.538-1.425V-11.4a36.773,36.773,0,0,0-5.225.487A14.656,14.656,0,0,0-275.7-9.9a4.875,4.875,0,0,0-1.962,1.475,3.173,3.173,0,0,0-.612,1.9A4.193,4.193,0,0,0-277.95-4.8a3.27,3.27,0,0,0,.875,1.188,3.454,3.454,0,0,0,1.3.675A5.941,5.941,0,0,0-274.15-2.725ZM-237.25,0h-1.975a2.357,2.357,0,0,1-1.05-.2,1.106,1.106,0,0,1-.525-.85l-.5-2.35q-1,.9-1.95,1.612a11.16,11.16,0,0,1-2,1.2,10.364,10.364,0,0,1-2.238.737,12.833,12.833,0,0,1-2.637.25,9,9,0,0,1-2.762-.413,6.3,6.3,0,0,1-2.238-1.237,5.892,5.892,0,0,1-1.513-2.087,7.3,7.3,0,0,1-.562-2.987,5.572,5.572,0,0,1,.825-2.887,7.25,7.25,0,0,1,2.663-2.463,17.345,17.345,0,0,1,4.813-1.763,36.664,36.664,0,0,1,7.275-.787V-16.2a6.817,6.817,0,0,0-1.262-4.462,4.591,4.591,0,0,0-3.738-1.513,7.923,7.923,0,0,0-2.738.413,10.362,10.362,0,0,0-1.925.925q-.813.513-1.4.925a2.019,2.019,0,0,1-1.163.413,1.333,1.333,0,0,1-.787-.237,1.809,1.809,0,0,1-.538-.588l-.8-1.425a14.462,14.462,0,0,1,4.525-3.025,13.971,13.971,0,0,1,5.375-1,9.59,9.59,0,0,1,3.775.7,7.742,7.742,0,0,1,2.775,1.95,8.258,8.258,0,0,1,1.7,3.025,12.6,12.6,0,0,1,.575,3.9ZM-248.8-2.725a9.085,9.085,0,0,0,2.15-.238,8.486,8.486,0,0,0,1.837-.675,9.737,9.737,0,0,0,1.65-1.062,14.294,14.294,0,0,0,1.538-1.425V-11.4a36.774,36.774,0,0,0-5.225.487,14.656,14.656,0,0,0-3.5,1.013,4.875,4.875,0,0,0-1.962,1.475,3.173,3.173,0,0,0-.613,1.9A4.192,4.192,0,0,0-252.6-4.8a3.27,3.27,0,0,0,.875,1.188,3.454,3.454,0,0,0,1.3.675A5.941,5.941,0,0,0-248.8-2.725ZM-230.5,0V-25.325h2.55a1.407,1.407,0,0,1,1,.275,1.687,1.687,0,0,1,.375.95l.3,3.95a11.584,11.584,0,0,1,3.212-4.138,7.1,7.1,0,0,1,4.488-1.487,7.057,7.057,0,0,1,1.9.237,6.623,6.623,0,0,1,1.575.663l-.575,3.325a.752.752,0,0,1-.775.625,3.889,3.889,0,0,1-1.075-.237,6.78,6.78,0,0,0-2.025-.237,5.736,5.736,0,0,0-3.888,1.35,10.134,10.134,0,0,0-2.612,3.925V0Zm47.475-23.425a2.435,2.435,0,0,1-.175.912,3.174,3.174,0,0,1-.45.788l-13.7,18.25h13.825V0H-202.6V-1.85a2.241,2.241,0,0,1,.163-.763,3.321,3.321,0,0,1,.462-.837L-188.2-21.825h-13.625v-3.5h18.8Zm15.45-2.3a11.3,11.3,0,0,1,4.2.763,9.427,9.427,0,0,1,3.325,2.2,10.03,10.03,0,0,1,2.188,3.55,13.715,13.715,0,0,1,.788,4.813A2.9,2.9,0,0,1-157.3-13a.934.934,0,0,1-.85.35H-175a13.982,13.982,0,0,0,.65,4.175,8.537,8.537,0,0,0,1.65,2.962,6.611,6.611,0,0,0,2.5,1.775,8.585,8.585,0,0,0,3.25.587,9.534,9.534,0,0,0,2.887-.387,13.738,13.738,0,0,0,2.087-.838,15.926,15.926,0,0,0,1.463-.838A1.939,1.939,0,0,1-159.5-5.6a.979.979,0,0,1,.85.425l1.25,1.625a8.453,8.453,0,0,1-1.975,1.738A12.3,12.3,0,0,1-161.837-.6a15.641,15.641,0,0,1-2.713.713,16.567,16.567,0,0,1-2.775.238,12.877,12.877,0,0,1-4.838-.888,10.617,10.617,0,0,1-3.825-2.6A11.928,11.928,0,0,1-178.5-7.375a17.231,17.231,0,0,1-.9-5.8,14.756,14.756,0,0,1,.813-4.95,11.667,11.667,0,0,1,2.337-3.988,10.761,10.761,0,0,1,3.725-2.65A12.228,12.228,0,0,1-167.575-25.725Zm.1,3.275a6.832,6.832,0,0,0-5.075,1.863,8.767,8.767,0,0,0-2.3,5.163h13.775a9.01,9.01,0,0,0-.425-2.837,6.323,6.323,0,0,0-1.25-2.225,5.6,5.6,0,0,0-2.012-1.45A6.787,6.787,0,0,0-167.475-22.45Zm21.025-14.375V0h-4.45V-36.825ZM-137.6,0V-21.525l-2.8-.325a2.227,2.227,0,0,1-.863-.388A.908.908,0,0,1-141.6-23v-1.825h4v-2.45a11.282,11.282,0,0,1,.613-3.862,7.83,7.83,0,0,1,1.75-2.85A7.417,7.417,0,0,1-132.5-35.75a10.194,10.194,0,0,1,3.6-.6,9.6,9.6,0,0,1,3.15.5l-.1,2.225a.568.568,0,0,1-.425.6,4.888,4.888,0,0,1-1.125.1h-.775a6.827,6.827,0,0,0-2.087.3,3.944,3.944,0,0,0-1.613.975,4.414,4.414,0,0,0-1.038,1.775,8.806,8.806,0,0,0-.362,2.725v2.325h7.325V-21.6h-7.175V0Zm25.5,0V-36.825h4.45v14.9a13.666,13.666,0,0,1,3.6-2.763,9.641,9.641,0,0,1,4.55-1.038,9.144,9.144,0,0,1,3.662.688,7.086,7.086,0,0,1,2.65,1.95,8.612,8.612,0,0,1,1.613,3.038,13.219,13.219,0,0,1,.55,3.925V0h-4.45V-16.125a6.816,6.816,0,0,0-1.312-4.462,4.907,4.907,0,0,0-4.013-1.588,7.48,7.48,0,0,0-3.687.95,12.144,12.144,0,0,0-3.162,2.575V0Zm37.825-25.725a11.3,11.3,0,0,1,4.2.763,9.427,9.427,0,0,1,3.325,2.2,10.03,10.03,0,0,1,2.188,3.55,13.715,13.715,0,0,1,.788,4.813A2.9,2.9,0,0,1-64-13a.934.934,0,0,1-.85.35H-81.7a13.981,13.981,0,0,0,.65,4.175A8.537,8.537,0,0,0-79.4-5.513a6.611,6.611,0,0,0,2.5,1.775,8.585,8.585,0,0,0,3.25.587,9.534,9.534,0,0,0,2.887-.387,13.738,13.738,0,0,0,2.088-.838,15.923,15.923,0,0,0,1.463-.838A1.939,1.939,0,0,1-66.2-5.6a.979.979,0,0,1,.85.425L-64.1-3.55a8.452,8.452,0,0,1-1.975,1.738A12.3,12.3,0,0,1-68.537-.6,15.641,15.641,0,0,1-71.25.112,16.567,16.567,0,0,1-74.025.35a12.877,12.877,0,0,1-4.838-.888,10.617,10.617,0,0,1-3.825-2.6A11.928,11.928,0,0,1-85.2-7.375a17.231,17.231,0,0,1-.9-5.8,14.756,14.756,0,0,1,.813-4.95,11.667,11.667,0,0,1,2.338-3.988,10.761,10.761,0,0,1,3.725-2.65A12.228,12.228,0,0,1-74.275-25.725Zm.1,3.275a6.832,6.832,0,0,0-5.075,1.863,8.767,8.767,0,0,0-2.3,5.163h13.775a9.011,9.011,0,0,0-.425-2.837,6.323,6.323,0,0,0-1.25-2.225,5.6,5.6,0,0,0-2.012-1.45A6.787,6.787,0,0,0-74.175-22.45ZM-50.425.4a6.105,6.105,0,0,1-4.612-1.675A6.684,6.684,0,0,1-56.65-6.1V-21.6H-59.7a1,1,0,0,1-.675-.237.923.923,0,0,1-.275-.738V-24.35l4.15-.525,1.025-7.825a.946.946,0,0,1,.325-.612,1.033,1.033,0,0,1,.7-.237h2.25v8.725h7.25V-21.6H-52.2V-6.4a3.233,3.233,0,0,0,.775,2.375,2.707,2.707,0,0,0,2,.775,3.53,3.53,0,0,0,1.212-.187,5.2,5.2,0,0,0,.888-.412q.375-.225.638-.412a.834.834,0,0,1,.463-.188.766.766,0,0,1,.625.425L-44.3-1.9A8.291,8.291,0,0,1-47.075-.213,9.423,9.423,0,0,1-50.425.4Zm38.3-23.825a2.435,2.435,0,0,1-.175.912,3.174,3.174,0,0,1-.45.788l-13.7,18.25h13.825V0H-31.7V-1.85a2.241,2.241,0,0,1,.163-.763,3.321,3.321,0,0,1,.462-.837L-17.3-21.825H-30.925v-3.5h18.8Zm15.675-2.3a13.008,13.008,0,0,1,5.013.925,10.569,10.569,0,0,1,3.8,2.625,11.621,11.621,0,0,1,2.4,4.113,16.352,16.352,0,0,1,.837,5.387,16.323,16.323,0,0,1-.837,5.4,11.639,11.639,0,0,1-2.4,4.1,10.437,10.437,0,0,1-3.8,2.613A13.165,13.165,0,0,1,3.55.35,13.165,13.165,0,0,1-1.463-.562,10.556,10.556,0,0,1-5.275-3.175,11.688,11.688,0,0,1-7.7-7.275a16.1,16.1,0,0,1-.85-5.4,16.132,16.132,0,0,1,.85-5.387,11.669,11.669,0,0,1,2.425-4.113A10.69,10.69,0,0,1-1.463-24.8,13.008,13.008,0,0,1,3.55-25.725Zm0,22.6a6.5,6.5,0,0,0,5.6-2.513A11.633,11.633,0,0,0,11-12.65,11.74,11.74,0,0,0,9.15-19.7a6.488,6.488,0,0,0-5.6-2.525,7.772,7.772,0,0,0-3.3.65A6.177,6.177,0,0,0-2.088-19.7a8.328,8.328,0,0,0-1.4,3.012A16.148,16.148,0,0,0-3.95-12.65a16,16,0,0,0,.463,4.025,8.2,8.2,0,0,0,1.4,2.987A6.225,6.225,0,0,0,.25-3.775,7.772,7.772,0,0,0,3.55-3.125ZM21.1,0V-25.325h2.65a1.135,1.135,0,0,1,1.2.925l.35,2.75a14.233,14.233,0,0,1,3.687-2.95A9.59,9.59,0,0,1,33.7-25.725a9.144,9.144,0,0,1,3.662.688,7.086,7.086,0,0,1,2.65,1.95,8.612,8.612,0,0,1,1.612,3.038,13.219,13.219,0,0,1,.55,3.925V0h-4.45V-16.125a6.816,6.816,0,0,0-1.312-4.462A4.907,4.907,0,0,0,32.4-22.175a7.48,7.48,0,0,0-3.688.95A12.144,12.144,0,0,0,25.55-18.65V0ZM66.725,0a1.135,1.135,0,0,1-1.2-.925L65.125-4A13.331,13.331,0,0,1,61.412-.838,9.511,9.511,0,0,1,56.625.35a9.141,9.141,0,0,1-3.95-.838A8.191,8.191,0,0,1,49.65-2.95,11.729,11.729,0,0,1,47.725-7a20.851,20.851,0,0,1-.675-5.575,17.474,17.474,0,0,1,.75-5.212,12.7,12.7,0,0,1,2.163-4.187A10.135,10.135,0,0,1,53.4-24.762,10.147,10.147,0,0,1,58-25.775a9.164,9.164,0,0,1,3.975.788,9.531,9.531,0,0,1,2.95,2.212v-14.05h4.45V0ZM58.1-3.25a7.168,7.168,0,0,0,3.813-1,10.99,10.99,0,0,0,3.013-2.825v-12.25a7.041,7.041,0,0,0-2.688-2.312A7.756,7.756,0,0,0,59-22.3a6.41,6.41,0,0,0-5.45,2.525q-1.9,2.525-1.9,7.2a18.308,18.308,0,0,0,.425,4.238,8.154,8.154,0,0,0,1.25,2.9A4.912,4.912,0,0,0,55.35-3.775,6.8,6.8,0,0,0,58.1-3.25ZM86.875-25.725a11.3,11.3,0,0,1,4.2.763,9.427,9.427,0,0,1,3.325,2.2,10.03,10.03,0,0,1,2.188,3.55,13.715,13.715,0,0,1,.788,4.813A2.9,2.9,0,0,1,97.15-13a.934.934,0,0,1-.85.35H79.45a13.981,13.981,0,0,0,.65,4.175,8.537,8.537,0,0,0,1.65,2.962,6.611,6.611,0,0,0,2.5,1.775,8.585,8.585,0,0,0,3.25.587,9.534,9.534,0,0,0,2.887-.387,13.738,13.738,0,0,0,2.088-.838,15.923,15.923,0,0,0,1.463-.838A1.939,1.939,0,0,1,94.95-5.6a.979.979,0,0,1,.85.425L97.05-3.55a8.452,8.452,0,0,1-1.975,1.738A12.3,12.3,0,0,1,92.613-.6,15.641,15.641,0,0,1,89.9.112,16.567,16.567,0,0,1,87.125.35a12.877,12.877,0,0,1-4.838-.888,10.617,10.617,0,0,1-3.825-2.6A11.928,11.928,0,0,1,75.95-7.375a17.231,17.231,0,0,1-.9-5.8,14.756,14.756,0,0,1,.813-4.95A11.667,11.667,0,0,1,78.2-22.113a10.761,10.761,0,0,1,3.725-2.65A12.228,12.228,0,0,1,86.875-25.725Zm.1,3.275A6.832,6.832,0,0,0,81.9-20.587a8.767,8.767,0,0,0-2.3,5.163H93.375a9.011,9.011,0,0,0-.425-2.837,6.323,6.323,0,0,0-1.25-2.225,5.6,5.6,0,0,0-2.012-1.45A6.787,6.787,0,0,0,86.975-22.45ZM103.2,0V-36.825h4.475v15.15a12.938,12.938,0,0,1,3.612-2.937,9.571,9.571,0,0,1,4.663-1.113,9.319,9.319,0,0,1,3.975.825,8.03,8.03,0,0,1,3.025,2.462,11.877,11.877,0,0,1,1.925,4.05,20.711,20.711,0,0,1,.675,5.562,17.474,17.474,0,0,1-.75,5.213,12.559,12.559,0,0,1-2.162,4.175,10.163,10.163,0,0,1-3.45,2.775A10.168,10.168,0,0,1,114.6.35a8.467,8.467,0,0,1-4.162-.95,9.468,9.468,0,0,1-2.987-2.65l-.225,2.3a1.071,1.071,0,0,1-1.15.95Zm11.3-22.175a7.168,7.168,0,0,0-3.812,1,10.99,10.99,0,0,0-3.012,2.825V-6.1a6.974,6.974,0,0,0,2.662,2.325A7.694,7.694,0,0,0,113.6-3.1a6.41,6.41,0,0,0,5.45-2.525q1.9-2.525,1.9-7.2a17.966,17.966,0,0,0-.437-4.25,8.311,8.311,0,0,0-1.263-2.912,4.912,4.912,0,0,0-2.025-1.663A6.735,6.735,0,0,0,114.5-22.175Zm26.75-3.55a13.008,13.008,0,0,1,5.013.925,10.569,10.569,0,0,1,3.8,2.625,11.621,11.621,0,0,1,2.4,4.113,16.352,16.352,0,0,1,.837,5.387,16.323,16.323,0,0,1-.837,5.4,11.639,11.639,0,0,1-2.4,4.1,10.437,10.437,0,0,1-3.8,2.613A13.165,13.165,0,0,1,141.25.35a13.165,13.165,0,0,1-5.012-.913,10.556,10.556,0,0,1-3.812-2.613A11.688,11.688,0,0,1,130-7.275a16.1,16.1,0,0,1-.85-5.4,16.132,16.132,0,0,1,.85-5.387,11.669,11.669,0,0,1,2.425-4.113,10.69,10.69,0,0,1,3.813-2.625A13.008,13.008,0,0,1,141.25-25.725Zm0,22.6a6.5,6.5,0,0,0,5.6-2.513,11.633,11.633,0,0,0,1.85-7.012,11.74,11.74,0,0,0-1.85-7.05,6.488,6.488,0,0,0-5.6-2.525,7.772,7.772,0,0,0-3.3.65,6.177,6.177,0,0,0-2.338,1.875,8.328,8.328,0,0,0-1.4,3.012,16.148,16.148,0,0,0-.463,4.038,16,16,0,0,0,.463,4.025,8.2,8.2,0,0,0,1.4,2.987,6.225,6.225,0,0,0,2.338,1.863A7.772,7.772,0,0,0,141.25-3.125Zm22.175-33.7V-15.15h1.15a2.131,2.131,0,0,0,.825-.137,2.309,2.309,0,0,0,.725-.562l8-8.575a4.348,4.348,0,0,1,.75-.65,1.777,1.777,0,0,1,1-.25h4.05L170.6-15.4a8.859,8.859,0,0,1-.687.75,4.064,4.064,0,0,1-.762.575,4.608,4.608,0,0,1,.813.688,6.4,6.4,0,0,1,.688.887L180.55,0h-4a1.924,1.924,0,0,1-.937-.213,2.451,2.451,0,0,1-.737-.662L166.55-11.25a1.943,1.943,0,0,0-.75-.687,2.97,2.97,0,0,0-1.125-.163h-1.25V0H158.95V-36.825ZM185,8.575v-33.9h2.65a1.135,1.135,0,0,1,1.2.925l.375,3a13.521,13.521,0,0,1,3.712-3.175,9.483,9.483,0,0,1,4.813-1.2,9.142,9.142,0,0,1,3.95.837,8.144,8.144,0,0,1,3.025,2.475A11.869,11.869,0,0,1,206.65-18.4a20.851,20.851,0,0,1,.675,5.575,17.474,17.474,0,0,1-.75,5.213,12.693,12.693,0,0,1-2.15,4.175,10.04,10.04,0,0,1-3.437,2.775A10.168,10.168,0,0,1,196.4.35a9.442,9.442,0,0,1-4.012-.775,9.042,9.042,0,0,1-2.937-2.2v11.2Zm11.275-30.75a7.168,7.168,0,0,0-3.812,1,10.99,10.99,0,0,0-3.012,2.825V-6.1a7.156,7.156,0,0,0,2.688,2.325A7.694,7.694,0,0,0,195.4-3.1a6.384,6.384,0,0,0,5.425-2.525q1.9-2.525,1.9-7.2a17.965,17.965,0,0,0-.437-4.25,8.311,8.311,0,0,0-1.262-2.912A4.912,4.912,0,0,0,199-21.65,6.735,6.735,0,0,0,196.275-22.175ZM212.6,0V-25.325h2.55a1.407,1.407,0,0,1,1,.275,1.687,1.687,0,0,1,.375.95l.3,3.95a11.584,11.584,0,0,1,3.212-4.138,7.1,7.1,0,0,1,4.488-1.487,7.057,7.057,0,0,1,1.9.237,6.623,6.623,0,0,1,1.575.663l-.575,3.325a.752.752,0,0,1-.775.625,3.889,3.889,0,0,1-1.075-.237,6.78,6.78,0,0,0-2.025-.237,5.736,5.736,0,0,0-3.888,1.35,10.134,10.134,0,0,0-2.612,3.925V0Zm25.1-25.325V0h-4.45V-25.325Zm1-7.95a2.832,2.832,0,0,1-.263,1.212,3.491,3.491,0,0,1-.7,1,3.252,3.252,0,0,1-1.012.687,3.039,3.039,0,0,1-1.225.25,2.951,2.951,0,0,1-1.212-.25,3.3,3.3,0,0,1-1-.687,3.3,3.3,0,0,1-.687-1,2.951,2.951,0,0,1-.25-1.212,3.128,3.128,0,0,1,.25-1.238,3.213,3.213,0,0,1,.688-1.025,3.3,3.3,0,0,1,1-.687,2.951,2.951,0,0,1,1.212-.25,3.039,3.039,0,0,1,1.225.25,3.252,3.252,0,0,1,1.012.688,3.39,3.39,0,0,1,.7,1.025A3,3,0,0,1,238.7-33.275ZM245.55,0V-25.325h2.65a1.135,1.135,0,0,1,1.2.925l.35,2.75a14.233,14.233,0,0,1,3.688-2.95,9.59,9.59,0,0,1,4.712-1.125,9.144,9.144,0,0,1,3.663.688,7.086,7.086,0,0,1,2.65,1.95,8.612,8.612,0,0,1,1.612,3.038,13.219,13.219,0,0,1,.55,3.925V0h-4.45V-16.125a6.816,6.816,0,0,0-1.312-4.462,4.907,4.907,0,0,0-4.012-1.588,7.48,7.48,0,0,0-3.688.95A12.144,12.144,0,0,0,250-18.65V0Zm45.075-20.825a1.987,1.987,0,0,1-.4.425.945.945,0,0,1-.575.15,1.428,1.428,0,0,1-.812-.312,11.84,11.84,0,0,0-1.113-.687,9.314,9.314,0,0,0-1.637-.687,7.728,7.728,0,0,0-2.363-.312,7.687,7.687,0,0,0-3.275.663,6.352,6.352,0,0,0-2.388,1.913,8.655,8.655,0,0,0-1.45,3.025,15.008,15.008,0,0,0-.488,3.975,14.522,14.522,0,0,0,.525,4.088,8.857,8.857,0,0,0,1.475,3,6.293,6.293,0,0,0,2.313,1.85A7.141,7.141,0,0,0,283.5-3.1a7.829,7.829,0,0,0,2.675-.388,8.15,8.15,0,0,0,1.75-.862,12.831,12.831,0,0,0,1.15-.863,1.386,1.386,0,0,1,.9-.388.941.941,0,0,1,.85.425l1.25,1.625A9.621,9.621,0,0,1,287.95-.587a14.626,14.626,0,0,1-5.225.938,11.063,11.063,0,0,1-4.413-.875,10.061,10.061,0,0,1-3.537-2.538,12.04,12.04,0,0,1-2.363-4.088,16.433,16.433,0,0,1-.862-5.525,16.671,16.671,0,0,1,.788-5.225,11.838,11.838,0,0,1,2.3-4.138,10.424,10.424,0,0,1,3.737-2.712,12.6,12.6,0,0,1,5.1-.975,12.03,12.03,0,0,1,4.7.863,11.249,11.249,0,0,1,3.625,2.437Zm11.025-4.5V0H297.2V-25.325Zm1-7.95a2.831,2.831,0,0,1-.263,1.212,3.491,3.491,0,0,1-.7,1,3.252,3.252,0,0,1-1.013.687,3.039,3.039,0,0,1-1.225.25,2.951,2.951,0,0,1-1.212-.25,3.3,3.3,0,0,1-1-.687,3.3,3.3,0,0,1-.687-1,2.952,2.952,0,0,1-.25-1.212,3.128,3.128,0,0,1,.25-1.238,3.213,3.213,0,0,1,.688-1.025,3.3,3.3,0,0,1,1-.687,2.951,2.951,0,0,1,1.212-.25,3.039,3.039,0,0,1,1.225.25,3.252,3.252,0,0,1,1.013.688,3.39,3.39,0,0,1,.7,1.025A3,3,0,0,1,302.65-33.275Zm6.85,41.85v-33.9h2.65a1.135,1.135,0,0,1,1.2.925l.375,3a13.521,13.521,0,0,1,3.712-3.175,9.483,9.483,0,0,1,4.813-1.2,9.141,9.141,0,0,1,3.95.837,8.144,8.144,0,0,1,3.025,2.475A11.869,11.869,0,0,1,331.15-18.4a20.85,20.85,0,0,1,.675,5.575,17.474,17.474,0,0,1-.75,5.213,12.694,12.694,0,0,1-2.15,4.175,10.04,10.04,0,0,1-3.437,2.775A10.168,10.168,0,0,1,320.9.35a9.442,9.442,0,0,1-4.012-.775,9.042,9.042,0,0,1-2.937-2.2v11.2Zm11.275-30.75a7.168,7.168,0,0,0-3.812,1,10.99,10.99,0,0,0-3.012,2.825V-6.1a7.156,7.156,0,0,0,2.688,2.325A7.694,7.694,0,0,0,319.9-3.1a6.384,6.384,0,0,0,5.425-2.525q1.9-2.525,1.9-7.2a17.966,17.966,0,0,0-.437-4.25,8.31,8.31,0,0,0-1.263-2.912A4.912,4.912,0,0,0,323.5-21.65,6.735,6.735,0,0,0,320.775-22.175Zm26.35-3.55a11.3,11.3,0,0,1,4.2.763,9.428,9.428,0,0,1,3.325,2.2,10.03,10.03,0,0,1,2.188,3.55,13.715,13.715,0,0,1,.787,4.813A2.9,2.9,0,0,1,357.4-13a.934.934,0,0,1-.85.35H339.7a13.981,13.981,0,0,0,.65,4.175A8.537,8.537,0,0,0,342-5.513a6.611,6.611,0,0,0,2.5,1.775,8.586,8.586,0,0,0,3.25.587,9.534,9.534,0,0,0,2.888-.387,13.739,13.739,0,0,0,2.087-.838,15.921,15.921,0,0,0,1.462-.838A1.939,1.939,0,0,1,355.2-5.6a.979.979,0,0,1,.85.425L357.3-3.55a8.453,8.453,0,0,1-1.975,1.738A12.3,12.3,0,0,1,352.862-.6a15.641,15.641,0,0,1-2.712.713,16.568,16.568,0,0,1-2.775.238,12.877,12.877,0,0,1-4.837-.888,10.617,10.617,0,0,1-3.825-2.6A11.928,11.928,0,0,1,336.2-7.375a17.231,17.231,0,0,1-.9-5.8,14.757,14.757,0,0,1,.813-4.95,11.667,11.667,0,0,1,2.337-3.988,10.761,10.761,0,0,1,3.725-2.65A12.228,12.228,0,0,1,347.125-25.725Zm.1,3.275a6.832,6.832,0,0,0-5.075,1.863,8.767,8.767,0,0,0-2.3,5.163h13.775a9.011,9.011,0,0,0-.425-2.837,6.322,6.322,0,0,0-1.25-2.225,5.6,5.6,0,0,0-2.013-1.45A6.787,6.787,0,0,0,347.225-22.45Zm-689.25,57.125h3.65a1.373,1.373,0,0,1,.875.275,1.558,1.558,0,0,1,.5.65l6.425,16.3a12.363,12.363,0,0,1,.55,1.8q.2.9.375,1.775.2-.875.425-1.775a15,15,0,0,1,.575-1.8l6.5-16.3a1.484,1.484,0,0,1,.487-.662,1.323,1.323,0,0,1,.837-.263h3.475L-327.675,60H-331.7Zm33.75,0V60h-4.45V34.675Zm1-7.95a2.831,2.831,0,0,1-.263,1.212,3.491,3.491,0,0,1-.7,1,3.252,3.252,0,0,1-1.013.687,3.039,3.039,0,0,1-1.225.25,2.951,2.951,0,0,1-1.212-.25,3.3,3.3,0,0,1-1-.687,3.3,3.3,0,0,1-.687-1,2.952,2.952,0,0,1-.25-1.212,3.128,3.128,0,0,1,.25-1.238,3.213,3.213,0,0,1,.688-1.025,3.3,3.3,0,0,1,1-.687,2.951,2.951,0,0,1,1.212-.25,3.039,3.039,0,0,1,1.225.25,3.252,3.252,0,0,1,1.013.688,3.39,3.39,0,0,1,.7,1.025A3,3,0,0,1-307.275,26.725ZM-281.825,60H-283.8a2.357,2.357,0,0,1-1.05-.2,1.106,1.106,0,0,1-.525-.85l-.5-2.35q-1,.9-1.95,1.613a11.161,11.161,0,0,1-2,1.2,10.364,10.364,0,0,1-2.237.738,12.833,12.833,0,0,1-2.638.25,9,9,0,0,1-2.763-.413A6.3,6.3,0,0,1-299.7,58.75a5.892,5.892,0,0,1-1.513-2.088,7.3,7.3,0,0,1-.562-2.987,5.572,5.572,0,0,1,.825-2.888,7.25,7.25,0,0,1,2.663-2.462,17.345,17.345,0,0,1,4.813-1.763,36.664,36.664,0,0,1,7.275-.787V43.8a6.817,6.817,0,0,0-1.263-4.462,4.591,4.591,0,0,0-3.737-1.513,7.923,7.923,0,0,0-2.737.413,10.362,10.362,0,0,0-1.925.925q-.812.513-1.4.925a2.019,2.019,0,0,1-1.163.412,1.334,1.334,0,0,1-.788-.237,1.809,1.809,0,0,1-.537-.588l-.8-1.425a14.462,14.462,0,0,1,4.525-3.025,13.971,13.971,0,0,1,5.375-1,9.59,9.59,0,0,1,3.775.7,7.742,7.742,0,0,1,2.775,1.95,8.258,8.258,0,0,1,1.7,3.025,12.6,12.6,0,0,1,.575,3.9Zm-11.55-2.725a9.085,9.085,0,0,0,2.15-.238,8.485,8.485,0,0,0,1.837-.675,9.738,9.738,0,0,0,1.65-1.062,14.3,14.3,0,0,0,1.538-1.425V48.6a36.774,36.774,0,0,0-5.225.488,14.656,14.656,0,0,0-3.5,1.012,4.875,4.875,0,0,0-1.962,1.475,3.173,3.173,0,0,0-.612,1.9,4.193,4.193,0,0,0,.325,1.725,3.27,3.27,0,0,0,.875,1.188,3.454,3.454,0,0,0,1.3.675A5.941,5.941,0,0,0-293.375,57.275ZM-265.425,60V23.175h4.45v14.9a13.665,13.665,0,0,1,3.6-2.763,9.641,9.641,0,0,1,4.55-1.037,9.145,9.145,0,0,1,3.663.688,7.086,7.086,0,0,1,2.65,1.95A8.612,8.612,0,0,1-244.9,39.95a13.219,13.219,0,0,1,.55,3.925V60h-4.45V43.875a6.816,6.816,0,0,0-1.312-4.463,4.907,4.907,0,0,0-4.012-1.588,7.48,7.48,0,0,0-3.687.95,12.143,12.143,0,0,0-3.163,2.575V60ZM-227.6,34.275a11.3,11.3,0,0,1,4.2.762,9.427,9.427,0,0,1,3.325,2.2,10.03,10.03,0,0,1,2.188,3.55A13.715,13.715,0,0,1-217.1,45.6a2.9,2.9,0,0,1-.225,1.4.934.934,0,0,1-.85.35h-16.85a13.982,13.982,0,0,0,.65,4.175,8.537,8.537,0,0,0,1.65,2.962,6.611,6.611,0,0,0,2.5,1.775,8.585,8.585,0,0,0,3.25.587,9.534,9.534,0,0,0,2.887-.387A13.739,13.739,0,0,0-222,55.625a15.925,15.925,0,0,0,1.462-.838,1.939,1.939,0,0,1,1.012-.387.979.979,0,0,1,.85.425l1.25,1.625a8.453,8.453,0,0,1-1.975,1.737,12.3,12.3,0,0,1-2.462,1.213,15.641,15.641,0,0,1-2.713.712,16.567,16.567,0,0,1-2.775.237,12.877,12.877,0,0,1-4.838-.887,10.617,10.617,0,0,1-3.825-2.6,11.927,11.927,0,0,1-2.512-4.237,17.231,17.231,0,0,1-.9-5.8,14.756,14.756,0,0,1,.813-4.95,11.667,11.667,0,0,1,2.337-3.988,10.761,10.761,0,0,1,3.725-2.65A12.228,12.228,0,0,1-227.6,34.275Zm.1,3.275a6.832,6.832,0,0,0-5.075,1.862,8.767,8.767,0,0,0-2.3,5.163H-221.1a9.01,9.01,0,0,0-.425-2.837,6.323,6.323,0,0,0-1.25-2.225,5.6,5.6,0,0,0-2.012-1.45A6.787,6.787,0,0,0-227.5,37.55Zm23.75,22.85a6.105,6.105,0,0,1-4.613-1.675,6.684,6.684,0,0,1-1.612-4.825V38.4h-3.05a1,1,0,0,1-.675-.238.923.923,0,0,1-.275-.737V35.65l4.15-.525L-208.8,27.3a.946.946,0,0,1,.325-.612,1.033,1.033,0,0,1,.7-.237h2.25v8.725h7.25V38.4h-7.25V53.6a3.233,3.233,0,0,0,.775,2.375,2.707,2.707,0,0,0,2,.775,3.531,3.531,0,0,0,1.213-.187,5.2,5.2,0,0,0,.887-.412q.375-.225.637-.413a.834.834,0,0,1,.462-.187.766.766,0,0,1,.625.425l1.3,2.125a8.291,8.291,0,0,1-2.775,1.688A9.423,9.423,0,0,1-203.75,60.4Zm25.25-37.225V44.85h1.15a2.131,2.131,0,0,0,.825-.137,2.309,2.309,0,0,0,.725-.562l8-8.575a4.349,4.349,0,0,1,.75-.65,1.777,1.777,0,0,1,1-.25H-162l-9.325,9.925a8.858,8.858,0,0,1-.687.75,4.064,4.064,0,0,1-.762.575,4.608,4.608,0,0,1,.813.688,6.4,6.4,0,0,1,.688.888l9.9,12.5h-4a1.924,1.924,0,0,1-.937-.213,2.451,2.451,0,0,1-.738-.662l-8.325-10.375a1.943,1.943,0,0,0-.75-.687,2.97,2.97,0,0,0-1.125-.162h-1.25V60h-4.475V23.175ZM-138.325,60H-140.3a2.357,2.357,0,0,1-1.05-.2,1.106,1.106,0,0,1-.525-.85l-.5-2.35q-1,.9-1.95,1.613a11.16,11.16,0,0,1-2,1.2,10.364,10.364,0,0,1-2.238.738,12.833,12.833,0,0,1-2.637.25,9,9,0,0,1-2.762-.413A6.3,6.3,0,0,1-156.2,58.75a5.892,5.892,0,0,1-1.512-2.088,7.3,7.3,0,0,1-.562-2.987,5.572,5.572,0,0,1,.825-2.888,7.25,7.25,0,0,1,2.663-2.462,17.345,17.345,0,0,1,4.813-1.763,36.664,36.664,0,0,1,7.275-.787V43.8a6.817,6.817,0,0,0-1.262-4.462,4.591,4.591,0,0,0-3.738-1.513,7.923,7.923,0,0,0-2.738.413,10.362,10.362,0,0,0-1.925.925q-.813.513-1.4.925a2.019,2.019,0,0,1-1.163.412,1.333,1.333,0,0,1-.787-.237,1.809,1.809,0,0,1-.538-.588l-.8-1.425a14.462,14.462,0,0,1,4.525-3.025,13.971,13.971,0,0,1,5.375-1,9.59,9.59,0,0,1,3.775.7,7.742,7.742,0,0,1,2.775,1.95,8.258,8.258,0,0,1,1.7,3.025,12.6,12.6,0,0,1,.575,3.9Zm-11.55-2.725a9.085,9.085,0,0,0,2.15-.238,8.486,8.486,0,0,0,1.837-.675,9.737,9.737,0,0,0,1.65-1.062,14.294,14.294,0,0,0,1.538-1.425V48.6a36.774,36.774,0,0,0-5.225.488,14.656,14.656,0,0,0-3.5,1.012,4.875,4.875,0,0,0-1.962,1.475,3.173,3.173,0,0,0-.613,1.9,4.192,4.192,0,0,0,.325,1.725,3.27,3.27,0,0,0,.875,1.188,3.454,3.454,0,0,0,1.3.675A5.941,5.941,0,0,0-149.875,57.275Zm36.9,2.725h-1.975a2.357,2.357,0,0,1-1.05-.2,1.106,1.106,0,0,1-.525-.85l-.5-2.35q-1,.9-1.95,1.613a11.16,11.16,0,0,1-2,1.2,10.364,10.364,0,0,1-2.238.738,12.833,12.833,0,0,1-2.637.25,9,9,0,0,1-2.762-.413,6.3,6.3,0,0,1-2.238-1.237,5.892,5.892,0,0,1-1.512-2.088,7.3,7.3,0,0,1-.562-2.987,5.572,5.572,0,0,1,.825-2.888,7.25,7.25,0,0,1,2.663-2.462,17.345,17.345,0,0,1,4.812-1.763,36.664,36.664,0,0,1,7.275-.787V43.8a6.817,6.817,0,0,0-1.262-4.462,4.591,4.591,0,0,0-3.738-1.513,7.923,7.923,0,0,0-2.738.413,10.362,10.362,0,0,0-1.925.925q-.812.513-1.4.925a2.019,2.019,0,0,1-1.163.412,1.333,1.333,0,0,1-.787-.237,1.809,1.809,0,0,1-.538-.588l-.8-1.425a14.462,14.462,0,0,1,4.525-3.025,13.971,13.971,0,0,1,5.375-1,9.59,9.59,0,0,1,3.775.7,7.742,7.742,0,0,1,2.775,1.95,8.259,8.259,0,0,1,1.7,3.025,12.6,12.6,0,0,1,.575,3.9Zm-11.55-2.725a9.085,9.085,0,0,0,2.15-.238,8.486,8.486,0,0,0,1.838-.675,9.737,9.737,0,0,0,1.65-1.062,14.3,14.3,0,0,0,1.537-1.425V48.6a36.774,36.774,0,0,0-5.225.488,14.655,14.655,0,0,0-3.5,1.012,4.875,4.875,0,0,0-1.963,1.475,3.173,3.173,0,0,0-.613,1.9,4.192,4.192,0,0,0,.325,1.725,3.27,3.27,0,0,0,.875,1.188,3.454,3.454,0,0,0,1.3.675A5.941,5.941,0,0,0-124.525,57.275Zm18.3,2.725V34.675h2.55a1.407,1.407,0,0,1,1,.275,1.687,1.687,0,0,1,.375.95l.3,3.95a11.584,11.584,0,0,1,3.213-4.137A7.1,7.1,0,0,1-94.3,34.225a7.057,7.057,0,0,1,1.9.238,6.623,6.623,0,0,1,1.575.662L-91.4,38.45a.752.752,0,0,1-.775.625,3.889,3.889,0,0,1-1.075-.237,6.78,6.78,0,0,0-2.025-.238,5.736,5.736,0,0,0-3.887,1.35,10.134,10.134,0,0,0-2.613,3.925V60Zm27.825.4a6.105,6.105,0,0,1-4.612-1.675A6.684,6.684,0,0,1-84.625,53.9V38.4h-3.05a1,1,0,0,1-.675-.238.923.923,0,0,1-.275-.737V35.65l4.15-.525L-83.45,27.3a.946.946,0,0,1,.325-.612,1.033,1.033,0,0,1,.7-.237h2.25v8.725h7.25V38.4h-7.25V53.6a3.233,3.233,0,0,0,.775,2.375,2.707,2.707,0,0,0,2,.775,3.531,3.531,0,0,0,1.213-.187,5.2,5.2,0,0,0,.888-.412q.375-.225.637-.413a.834.834,0,0,1,.463-.187.766.766,0,0,1,.625.425l1.3,2.125a8.29,8.29,0,0,1-2.775,1.688A9.423,9.423,0,0,1-78.4,60.4Zm25.475-21.55a.986.986,0,0,1-.925.55,1.74,1.74,0,0,1-.85-.275q-.475-.275-1.162-.612a10.918,10.918,0,0,0-1.638-.625,7.812,7.812,0,0,0-2.25-.287,6.64,6.64,0,0,0-2.025.287,4.863,4.863,0,0,0-1.537.788,3.483,3.483,0,0,0-.975,1.162,3.121,3.121,0,0,0-.338,1.438,2.4,2.4,0,0,0,.563,1.625,4.888,4.888,0,0,0,1.488,1.125,12.968,12.968,0,0,0,2.1.837q1.175.362,2.413.775t2.412.912a8.754,8.754,0,0,1,2.1,1.25,5.717,5.717,0,0,1,1.487,1.838A5.624,5.624,0,0,1-51.5,52.25a8.273,8.273,0,0,1-.625,3.237,7.065,7.065,0,0,1-1.85,2.575,8.921,8.921,0,0,1-3,1.713,12.325,12.325,0,0,1-4.1.625,12.789,12.789,0,0,1-4.8-.863,12.163,12.163,0,0,1-3.65-2.212l1.05-1.7a1.525,1.525,0,0,1,.475-.5,1.334,1.334,0,0,1,.725-.175,1.675,1.675,0,0,1,.95.35q.5.35,1.213.775a9.33,9.33,0,0,0,1.725.775,7.862,7.862,0,0,0,2.537.35,6.956,6.956,0,0,0,2.275-.338,4.779,4.779,0,0,0,1.625-.912,3.613,3.613,0,0,0,.963-1.325,4.118,4.118,0,0,0,.313-1.6,2.654,2.654,0,0,0-.562-1.738,4.747,4.747,0,0,0-1.488-1.175,12.121,12.121,0,0,0-2.112-.85q-1.188-.362-2.425-.763t-2.425-.912A8.525,8.525,0,0,1-66.8,46.3a5.833,5.833,0,0,1-1.488-1.912,6.184,6.184,0,0,1-.562-2.763,6.738,6.738,0,0,1,.6-2.787,6.836,6.836,0,0,1,1.75-2.35,8.618,8.618,0,0,1,2.825-1.612,11.305,11.305,0,0,1,3.825-.6,12.1,12.1,0,0,1,4.488.787,10.62,10.62,0,0,1,3.438,2.162Zm7.2,29.725v-33.9h2.65a1.135,1.135,0,0,1,1.2.925l.375,3a13.521,13.521,0,0,1,3.713-3.175,9.483,9.483,0,0,1,4.813-1.2,9.141,9.141,0,0,1,3.95.838A8.144,8.144,0,0,1-26,37.537,11.869,11.869,0,0,1-24.075,41.6a20.851,20.851,0,0,1,.675,5.575,17.474,17.474,0,0,1-.75,5.213,12.694,12.694,0,0,1-2.15,4.175,10.04,10.04,0,0,1-3.437,2.775,10.168,10.168,0,0,1-4.587,1.012,9.442,9.442,0,0,1-4.013-.775,9.042,9.042,0,0,1-2.937-2.2v11.2Zm11.275-30.75a7.168,7.168,0,0,0-3.812,1,10.99,10.99,0,0,0-3.013,2.825V53.9a7.156,7.156,0,0,0,2.688,2.325,7.694,7.694,0,0,0,3.263.675A6.384,6.384,0,0,0-29.9,54.375q1.9-2.525,1.9-7.2a17.966,17.966,0,0,0-.437-4.25A8.311,8.311,0,0,0-29.7,40.013a4.912,4.912,0,0,0-2.025-1.663A6.735,6.735,0,0,0-34.45,37.825Zm26.35-3.55a11.3,11.3,0,0,1,4.2.762,9.427,9.427,0,0,1,3.325,2.2,10.03,10.03,0,0,1,2.188,3.55A13.715,13.715,0,0,1,2.4,45.6,2.9,2.9,0,0,1,2.175,47a.934.934,0,0,1-.85.35h-16.85a13.982,13.982,0,0,0,.65,4.175,8.537,8.537,0,0,0,1.65,2.962,6.611,6.611,0,0,0,2.5,1.775,8.585,8.585,0,0,0,3.25.587,9.534,9.534,0,0,0,2.887-.387A13.738,13.738,0,0,0-2.5,55.625a15.923,15.923,0,0,0,1.462-.838A1.939,1.939,0,0,1-.025,54.4a.979.979,0,0,1,.85.425l1.25,1.625A8.452,8.452,0,0,1,.1,58.188,12.3,12.3,0,0,1-2.362,59.4a15.641,15.641,0,0,1-2.713.712,16.568,16.568,0,0,1-2.775.237,12.877,12.877,0,0,1-4.837-.887,10.617,10.617,0,0,1-3.825-2.6,11.928,11.928,0,0,1-2.513-4.237,17.231,17.231,0,0,1-.9-5.8,14.756,14.756,0,0,1,.813-4.95,11.667,11.667,0,0,1,2.337-3.988,10.761,10.761,0,0,1,3.725-2.65A12.228,12.228,0,0,1-8.1,34.275ZM-8,37.55a6.832,6.832,0,0,0-5.075,1.862,8.767,8.767,0,0,0-2.3,5.163H-1.6a9.011,9.011,0,0,0-.425-2.837,6.323,6.323,0,0,0-1.25-2.225,5.6,5.6,0,0,0-2.013-1.45A6.787,6.787,0,0,0-8,37.55ZM13.025,23.175V60H8.575V23.175ZM60.275,60H55.4V43.7H36.1V60H31.225V24.175H36.1V40.15H55.4V24.175h4.875ZM78.35,34.275a11.3,11.3,0,0,1,4.2.762,9.427,9.427,0,0,1,3.325,2.2,10.03,10.03,0,0,1,2.188,3.55A13.715,13.715,0,0,1,88.85,45.6a2.9,2.9,0,0,1-.225,1.4.934.934,0,0,1-.85.35H70.925a13.981,13.981,0,0,0,.65,4.175,8.537,8.537,0,0,0,1.65,2.962,6.611,6.611,0,0,0,2.5,1.775,8.585,8.585,0,0,0,3.25.587,9.534,9.534,0,0,0,2.887-.387,13.738,13.738,0,0,0,2.088-.838,15.923,15.923,0,0,0,1.463-.838,1.939,1.939,0,0,1,1.012-.387.979.979,0,0,1,.85.425l1.25,1.625a8.452,8.452,0,0,1-1.975,1.737A12.3,12.3,0,0,1,84.088,59.4a15.641,15.641,0,0,1-2.713.712,16.567,16.567,0,0,1-2.775.237,12.877,12.877,0,0,1-4.838-.887,10.617,10.617,0,0,1-3.825-2.6,11.928,11.928,0,0,1-2.512-4.237,17.231,17.231,0,0,1-.9-5.8,14.756,14.756,0,0,1,.813-4.95,11.667,11.667,0,0,1,2.338-3.988,10.761,10.761,0,0,1,3.725-2.65A12.228,12.228,0,0,1,78.35,34.275Zm.1,3.275a6.832,6.832,0,0,0-5.075,1.862,8.767,8.767,0,0,0-2.3,5.163H84.85a9.011,9.011,0,0,0-.425-2.837,6.323,6.323,0,0,0-1.25-2.225,5.6,5.6,0,0,0-2.012-1.45A6.787,6.787,0,0,0,78.45,37.55Zm20.7-14.375V44.85h1.15a2.131,2.131,0,0,0,.825-.137,2.309,2.309,0,0,0,.725-.562l8-8.575a4.348,4.348,0,0,1,.75-.65,1.777,1.777,0,0,1,1-.25h4.05L106.325,44.6a8.861,8.861,0,0,1-.687.75,4.065,4.065,0,0,1-.762.575,4.609,4.609,0,0,1,.813.688,6.4,6.4,0,0,1,.688.888l9.9,12.5h-4a1.924,1.924,0,0,1-.937-.213,2.451,2.451,0,0,1-.738-.662L102.275,48.75a1.943,1.943,0,0,0-.75-.687A2.97,2.97,0,0,0,100.4,47.9H99.15V60H94.675V23.175ZM135.225,38.85a.986.986,0,0,1-.925.55,1.74,1.74,0,0,1-.85-.275q-.475-.275-1.163-.612a10.918,10.918,0,0,0-1.637-.625,7.811,7.811,0,0,0-2.25-.287,6.64,6.64,0,0,0-2.025.287,4.863,4.863,0,0,0-1.538.788,3.483,3.483,0,0,0-.975,1.162,3.121,3.121,0,0,0-.338,1.438,2.4,2.4,0,0,0,.563,1.625,4.888,4.888,0,0,0,1.488,1.125,12.968,12.968,0,0,0,2.1.837q1.175.362,2.412.775t2.413.912a8.754,8.754,0,0,1,2.1,1.25,5.717,5.717,0,0,1,1.488,1.838,5.624,5.624,0,0,1,.563,2.612,8.273,8.273,0,0,1-.625,3.237,7.065,7.065,0,0,1-1.85,2.575,8.921,8.921,0,0,1-3,1.713,12.325,12.325,0,0,1-4.1.625,12.789,12.789,0,0,1-4.8-.863,12.163,12.163,0,0,1-3.65-2.212l1.05-1.7a1.525,1.525,0,0,1,.475-.5,1.334,1.334,0,0,1,.725-.175,1.675,1.675,0,0,1,.95.35q.5.35,1.213.775a9.33,9.33,0,0,0,1.725.775,7.862,7.862,0,0,0,2.537.35,6.956,6.956,0,0,0,2.275-.338,4.778,4.778,0,0,0,1.625-.912,3.613,3.613,0,0,0,.962-1.325,4.118,4.118,0,0,0,.313-1.6,2.654,2.654,0,0,0-.562-1.738,4.747,4.747,0,0,0-1.487-1.175,12.122,12.122,0,0,0-2.113-.85q-1.187-.362-2.425-.763t-2.425-.912A8.525,8.525,0,0,1,121.35,46.3a5.833,5.833,0,0,1-1.488-1.912,6.184,6.184,0,0,1-.562-2.763,6.738,6.738,0,0,1,.6-2.787,6.836,6.836,0,0,1,1.75-2.35,8.618,8.618,0,0,1,2.825-1.612,11.305,11.305,0,0,1,3.825-.6,12.1,12.1,0,0,1,4.487.787,10.62,10.62,0,0,1,3.438,2.162Zm17.225-4.575a11.3,11.3,0,0,1,4.2.762,9.427,9.427,0,0,1,3.325,2.2,10.03,10.03,0,0,1,2.188,3.55,13.715,13.715,0,0,1,.788,4.813,2.9,2.9,0,0,1-.225,1.4.934.934,0,0,1-.85.35h-16.85a13.982,13.982,0,0,0,.65,4.175,8.537,8.537,0,0,0,1.65,2.962,6.611,6.611,0,0,0,2.5,1.775,8.585,8.585,0,0,0,3.25.587,9.534,9.534,0,0,0,2.887-.387,13.738,13.738,0,0,0,2.087-.838,15.925,15.925,0,0,0,1.463-.838,1.939,1.939,0,0,1,1.012-.387.979.979,0,0,1,.85.425l1.25,1.625a8.453,8.453,0,0,1-1.975,1.737,12.3,12.3,0,0,1-2.462,1.213,15.641,15.641,0,0,1-2.713.712,16.567,16.567,0,0,1-2.775.237,12.877,12.877,0,0,1-4.838-.887,10.617,10.617,0,0,1-3.825-2.6,11.927,11.927,0,0,1-2.512-4.237,17.231,17.231,0,0,1-.9-5.8,14.756,14.756,0,0,1,.813-4.95,11.667,11.667,0,0,1,2.337-3.988,10.761,10.761,0,0,1,3.725-2.65A12.228,12.228,0,0,1,152.45,34.275Zm.1,3.275a6.832,6.832,0,0,0-5.075,1.862,8.767,8.767,0,0,0-2.3,5.163H158.95a9.01,9.01,0,0,0-.425-2.837,6.323,6.323,0,0,0-1.25-2.225,5.6,5.6,0,0,0-2.012-1.45A6.787,6.787,0,0,0,152.55,37.55ZM168.625,60V34.675h2.65a1.135,1.135,0,0,1,1.2.925l.35,2.75a14.233,14.233,0,0,1,3.688-2.95,9.59,9.59,0,0,1,4.712-1.125,9.145,9.145,0,0,1,3.663.688,7.086,7.086,0,0,1,2.65,1.95,8.612,8.612,0,0,1,1.613,3.038,13.219,13.219,0,0,1,.55,3.925V60h-4.45V43.875a6.816,6.816,0,0,0-1.312-4.463,4.907,4.907,0,0,0-4.012-1.588,7.48,7.48,0,0,0-3.687.95,12.144,12.144,0,0,0-3.162,2.575V60Zm42.3-21.15a.986.986,0,0,1-.925.55,1.74,1.74,0,0,1-.85-.275q-.475-.275-1.163-.612a10.918,10.918,0,0,0-1.637-.625,7.811,7.811,0,0,0-2.25-.287,6.64,6.64,0,0,0-2.025.287,4.863,4.863,0,0,0-1.538.788,3.483,3.483,0,0,0-.975,1.162,3.121,3.121,0,0,0-.338,1.438,2.4,2.4,0,0,0,.563,1.625,4.888,4.888,0,0,0,1.488,1.125,12.968,12.968,0,0,0,2.1.837q1.175.362,2.412.775t2.413.912a8.754,8.754,0,0,1,2.1,1.25,5.717,5.717,0,0,1,1.488,1.838,5.624,5.624,0,0,1,.563,2.612,8.273,8.273,0,0,1-.625,3.237,7.065,7.065,0,0,1-1.85,2.575,8.921,8.921,0,0,1-3,1.713,12.325,12.325,0,0,1-4.1.625,12.789,12.789,0,0,1-4.8-.863,12.163,12.163,0,0,1-3.65-2.212l1.05-1.7a1.525,1.525,0,0,1,.475-.5,1.334,1.334,0,0,1,.725-.175,1.675,1.675,0,0,1,.95.35q.5.35,1.212.775a9.33,9.33,0,0,0,1.725.775A7.862,7.862,0,0,0,203,57.2a6.956,6.956,0,0,0,2.275-.338,4.778,4.778,0,0,0,1.625-.912,3.613,3.613,0,0,0,.962-1.325,4.118,4.118,0,0,0,.313-1.6,2.654,2.654,0,0,0-.562-1.738,4.747,4.747,0,0,0-1.487-1.175,12.122,12.122,0,0,0-2.113-.85q-1.188-.362-2.425-.763t-2.425-.912A8.525,8.525,0,0,1,197.05,46.3a5.833,5.833,0,0,1-1.487-1.912A6.184,6.184,0,0,1,195,41.625a6.738,6.738,0,0,1,.6-2.787,6.836,6.836,0,0,1,1.75-2.35,8.619,8.619,0,0,1,2.825-1.612,11.305,11.305,0,0,1,3.825-.6,12.1,12.1,0,0,1,4.487.787,10.62,10.62,0,0,1,3.438,2.162ZM225.8,60.4a6.105,6.105,0,0,1-4.613-1.675,6.684,6.684,0,0,1-1.612-4.825V38.4h-3.05a1,1,0,0,1-.675-.238.923.923,0,0,1-.275-.737V35.65l4.15-.525L220.75,27.3a.946.946,0,0,1,.325-.612,1.033,1.033,0,0,1,.7-.237h2.25v8.725h7.25V38.4h-7.25V53.6a3.233,3.233,0,0,0,.775,2.375,2.707,2.707,0,0,0,2,.775,3.531,3.531,0,0,0,1.213-.187,5.2,5.2,0,0,0,.887-.412q.375-.225.637-.413A.834.834,0,0,1,230,55.55a.766.766,0,0,1,.625.425l1.3,2.125a8.291,8.291,0,0,1-2.775,1.688A9.423,9.423,0,0,1,225.8,60.4Zm10.975-.4V34.675h2.55a1.407,1.407,0,0,1,1,.275,1.687,1.687,0,0,1,.375.95l.3,3.95a11.584,11.584,0,0,1,3.212-4.137,7.569,7.569,0,0,1,6.388-1.25,6.623,6.623,0,0,1,1.575.662L251.6,38.45a.752.752,0,0,1-.775.625,3.889,3.889,0,0,1-1.075-.237,6.78,6.78,0,0,0-2.025-.238,5.736,5.736,0,0,0-3.888,1.35,10.134,10.134,0,0,0-2.612,3.925V60ZM266.95,34.275a11.3,11.3,0,0,1,4.2.762,9.428,9.428,0,0,1,3.325,2.2,10.03,10.03,0,0,1,2.188,3.55,13.715,13.715,0,0,1,.787,4.813,2.9,2.9,0,0,1-.225,1.4.934.934,0,0,1-.85.35h-16.85a13.982,13.982,0,0,0,.65,4.175,8.537,8.537,0,0,0,1.65,2.962,6.611,6.611,0,0,0,2.5,1.775,8.586,8.586,0,0,0,3.25.587,9.534,9.534,0,0,0,2.888-.387,13.739,13.739,0,0,0,2.087-.838,15.92,15.92,0,0,0,1.462-.838,1.939,1.939,0,0,1,1.013-.387.979.979,0,0,1,.85.425l1.25,1.625a8.453,8.453,0,0,1-1.975,1.737,12.3,12.3,0,0,1-2.462,1.213,15.641,15.641,0,0,1-2.712.712,16.568,16.568,0,0,1-2.775.237,12.877,12.877,0,0,1-4.837-.887,10.617,10.617,0,0,1-3.825-2.6,11.928,11.928,0,0,1-2.513-4.237,17.231,17.231,0,0,1-.9-5.8,14.756,14.756,0,0,1,.813-4.95,11.667,11.667,0,0,1,2.337-3.988A10.761,10.761,0,0,1,262,35.238,12.228,12.228,0,0,1,266.95,34.275Zm.1,3.275a6.832,6.832,0,0,0-5.075,1.862,8.767,8.767,0,0,0-2.3,5.163H273.45a9.011,9.011,0,0,0-.425-2.837,6.323,6.323,0,0,0-1.25-2.225,5.6,5.6,0,0,0-2.013-1.45A6.787,6.787,0,0,0,267.05,37.55Zm26.1-3.275a11.3,11.3,0,0,1,4.2.762,9.428,9.428,0,0,1,3.325,2.2,10.03,10.03,0,0,1,2.188,3.55,13.715,13.715,0,0,1,.787,4.813,2.9,2.9,0,0,1-.225,1.4.934.934,0,0,1-.85.35h-16.85a13.982,13.982,0,0,0,.65,4.175,8.537,8.537,0,0,0,1.65,2.962,6.611,6.611,0,0,0,2.5,1.775,8.586,8.586,0,0,0,3.25.587,9.534,9.534,0,0,0,2.888-.387,13.739,13.739,0,0,0,2.087-.838,15.92,15.92,0,0,0,1.462-.838,1.939,1.939,0,0,1,1.013-.387.979.979,0,0,1,.85.425l1.25,1.625a8.453,8.453,0,0,1-1.975,1.737,12.3,12.3,0,0,1-2.462,1.213,15.641,15.641,0,0,1-2.712.712,16.568,16.568,0,0,1-2.775.237,12.877,12.877,0,0,1-4.837-.887,10.617,10.617,0,0,1-3.825-2.6,11.928,11.928,0,0,1-2.513-4.237,17.231,17.231,0,0,1-.9-5.8,14.757,14.757,0,0,1,.813-4.95,11.667,11.667,0,0,1,2.337-3.988,10.761,10.761,0,0,1,3.725-2.65A12.228,12.228,0,0,1,293.15,34.275Zm.1,3.275a6.832,6.832,0,0,0-5.075,1.862,8.767,8.767,0,0,0-2.3,5.163H299.65a9.011,9.011,0,0,0-.425-2.837,6.323,6.323,0,0,0-1.25-2.225,5.6,5.6,0,0,0-2.013-1.45A6.787,6.787,0,0,0,293.25,37.55Zm20.7-14.375V44.85h1.15a2.131,2.131,0,0,0,.825-.137,2.309,2.309,0,0,0,.725-.562l8-8.575a4.348,4.348,0,0,1,.75-.65,1.777,1.777,0,0,1,1-.25h4.05L321.125,44.6a8.861,8.861,0,0,1-.687.75,4.065,4.065,0,0,1-.763.575,4.608,4.608,0,0,1,.813.688,6.4,6.4,0,0,1,.688.888l9.9,12.5h-4a1.924,1.924,0,0,1-.937-.213,2.451,2.451,0,0,1-.737-.662L317.075,48.75a1.943,1.943,0,0,0-.75-.687A2.97,2.97,0,0,0,315.2,47.9h-1.25V60h-4.475V23.175ZM334.075,57.25a3.177,3.177,0,0,1,.237-1.225,3.141,3.141,0,0,1,.65-1,3.114,3.114,0,0,1,3.438-.675,3.207,3.207,0,0,1,1,.675,3.038,3.038,0,0,1,.663,1,3.31,3.31,0,0,1,0,2.462,3.072,3.072,0,0,1-.663.987,3.038,3.038,0,0,1-1,.663,3.278,3.278,0,0,1-2.45,0,2.9,2.9,0,0,1-.988-.663,3.131,3.131,0,0,1-.887-2.225Z" transform="translate(961 901)"/>
  </g>
</svg>
